G04 #@! TF.GenerationSoftware,KiCad,Pcbnew,(5.1.0)-1*
G04 #@! TF.CreationDate,2021-05-08T22:38:50+01:00*
G04 #@! TF.ProjectId,blit-cpu-mk3,626c6974-2d63-4707-952d-6d6b332e6b69,3.00*
G04 #@! TF.SameCoordinates,Original*
G04 #@! TF.FileFunction,Legend,Top*
G04 #@! TF.FilePolarity,Positive*
%FSLAX46Y46*%
G04 Gerber Fmt 4.6, Leading zero omitted, Abs format (unit mm)*
G04 Created by KiCad (PCBNEW (5.1.0)-1) date 2021-05-08 22:38:50*
%MOMM*%
%LPD*%
G04 APERTURE LIST*
%ADD10C,0.120000*%
%ADD11C,0.150000*%
%ADD12C,0.300000*%
%ADD13C,0.200000*%
%ADD14C,0.100000*%
G04 APERTURE END LIST*
D10*
X81780330Y-33375000D02*
G75*
G03X81780330Y-33375000I-530330J0D01*
G01*
X85155330Y-36375000D02*
G75*
G03X85155330Y-36375000I-530330J0D01*
G01*
D11*
X46479285Y-66892380D02*
X46479285Y-65892380D01*
X47050714Y-66892380D01*
X47050714Y-65892380D01*
D10*
X48035000Y-65805000D02*
X47400000Y-66440000D01*
X48035000Y-65805000D02*
X48670000Y-66440000D01*
X48035000Y-70250000D02*
X48035000Y-65805000D01*
X49305000Y-68345000D02*
G75*
G03X49305000Y-68345000I-1270000J0D01*
G01*
D11*
X59917380Y-64137857D02*
X58917380Y-64137857D01*
X59631666Y-63804523D01*
X58917380Y-63471190D01*
X59917380Y-63471190D01*
X59917380Y-62566428D02*
X59393571Y-62566428D01*
X59298333Y-62614047D01*
X59250714Y-62709285D01*
X59250714Y-62899761D01*
X59298333Y-62995000D01*
X59869761Y-62566428D02*
X59917380Y-62661666D01*
X59917380Y-62899761D01*
X59869761Y-62995000D01*
X59774523Y-63042619D01*
X59679285Y-63042619D01*
X59584047Y-62995000D01*
X59536428Y-62899761D01*
X59536428Y-62661666D01*
X59488809Y-62566428D01*
X59917380Y-62185476D02*
X59250714Y-61661666D01*
X59250714Y-62185476D02*
X59917380Y-61661666D01*
X59917380Y-60756904D02*
X59917380Y-61328333D01*
X59917380Y-61042619D02*
X58917380Y-61042619D01*
X59060238Y-61137857D01*
X59155476Y-61233095D01*
X59203095Y-61328333D01*
X58917380Y-60137857D02*
X58917380Y-60042619D01*
X58965000Y-59947380D01*
X59012619Y-59899761D01*
X59107857Y-59852142D01*
X59298333Y-59804523D01*
X59536428Y-59804523D01*
X59726904Y-59852142D01*
X59822142Y-59899761D01*
X59869761Y-59947380D01*
X59917380Y-60042619D01*
X59917380Y-60137857D01*
X59869761Y-60233095D01*
X59822142Y-60280714D01*
X59726904Y-60328333D01*
X59536428Y-60375952D01*
X59298333Y-60375952D01*
X59107857Y-60328333D01*
X59012619Y-60280714D01*
X58965000Y-60233095D01*
X58917380Y-60137857D01*
X57512380Y-94467380D02*
X57607619Y-94467380D01*
X57702857Y-94515000D01*
X57750476Y-94562619D01*
X57798095Y-94657857D01*
X57845714Y-94848333D01*
X57845714Y-95086428D01*
X57798095Y-95276904D01*
X57750476Y-95372142D01*
X57702857Y-95419761D01*
X57607619Y-95467380D01*
X57512380Y-95467380D01*
X57417142Y-95419761D01*
X57369523Y-95372142D01*
X57321904Y-95276904D01*
X57274285Y-95086428D01*
X57274285Y-94848333D01*
X57321904Y-94657857D01*
X57369523Y-94562619D01*
X57417142Y-94515000D01*
X57512380Y-94467380D01*
X55305714Y-95467380D02*
X54734285Y-95467380D01*
X55020000Y-95467380D02*
X55020000Y-94467380D01*
X54924761Y-94610238D01*
X54829523Y-94705476D01*
X54734285Y-94753095D01*
X52194285Y-94562619D02*
X52241904Y-94515000D01*
X52337142Y-94467380D01*
X52575238Y-94467380D01*
X52670476Y-94515000D01*
X52718095Y-94562619D01*
X52765714Y-94657857D01*
X52765714Y-94753095D01*
X52718095Y-94895952D01*
X52146666Y-95467380D01*
X52765714Y-95467380D01*
X49606666Y-94467380D02*
X50225714Y-94467380D01*
X49892380Y-94848333D01*
X50035238Y-94848333D01*
X50130476Y-94895952D01*
X50178095Y-94943571D01*
X50225714Y-95038809D01*
X50225714Y-95276904D01*
X50178095Y-95372142D01*
X50130476Y-95419761D01*
X50035238Y-95467380D01*
X49749523Y-95467380D01*
X49654285Y-95419761D01*
X49606666Y-95372142D01*
X47590476Y-94800714D02*
X47590476Y-95467380D01*
X47352380Y-94419761D02*
X47114285Y-95134047D01*
X47733333Y-95134047D01*
X45098095Y-94467380D02*
X44621904Y-94467380D01*
X44574285Y-94943571D01*
X44621904Y-94895952D01*
X44717142Y-94848333D01*
X44955238Y-94848333D01*
X45050476Y-94895952D01*
X45098095Y-94943571D01*
X45145714Y-95038809D01*
X45145714Y-95276904D01*
X45098095Y-95372142D01*
X45050476Y-95419761D01*
X44955238Y-95467380D01*
X44717142Y-95467380D01*
X44621904Y-95419761D01*
X44574285Y-95372142D01*
X42510476Y-94467380D02*
X42320000Y-94467380D01*
X42224761Y-94515000D01*
X42177142Y-94562619D01*
X42081904Y-94705476D01*
X42034285Y-94895952D01*
X42034285Y-95276904D01*
X42081904Y-95372142D01*
X42129523Y-95419761D01*
X42224761Y-95467380D01*
X42415238Y-95467380D01*
X42510476Y-95419761D01*
X42558095Y-95372142D01*
X42605714Y-95276904D01*
X42605714Y-95038809D01*
X42558095Y-94943571D01*
X42510476Y-94895952D01*
X42415238Y-94848333D01*
X42224761Y-94848333D01*
X42129523Y-94895952D01*
X42081904Y-94943571D01*
X42034285Y-95038809D01*
X39446666Y-94467380D02*
X40113333Y-94467380D01*
X39684761Y-95467380D01*
X37144761Y-94895952D02*
X37049523Y-94848333D01*
X37001904Y-94800714D01*
X36954285Y-94705476D01*
X36954285Y-94657857D01*
X37001904Y-94562619D01*
X37049523Y-94515000D01*
X37144761Y-94467380D01*
X37335238Y-94467380D01*
X37430476Y-94515000D01*
X37478095Y-94562619D01*
X37525714Y-94657857D01*
X37525714Y-94705476D01*
X37478095Y-94800714D01*
X37430476Y-94848333D01*
X37335238Y-94895952D01*
X37144761Y-94895952D01*
X37049523Y-94943571D01*
X37001904Y-94991190D01*
X36954285Y-95086428D01*
X36954285Y-95276904D01*
X37001904Y-95372142D01*
X37049523Y-95419761D01*
X37144761Y-95467380D01*
X37335238Y-95467380D01*
X37430476Y-95419761D01*
X37478095Y-95372142D01*
X37525714Y-95276904D01*
X37525714Y-95086428D01*
X37478095Y-94991190D01*
X37430476Y-94943571D01*
X37335238Y-94895952D01*
X36319761Y-93562380D02*
X36319761Y-92562380D01*
X36319761Y-92943333D02*
X36415000Y-92895714D01*
X36605476Y-92895714D01*
X36700714Y-92943333D01*
X36748333Y-92990952D01*
X36795952Y-93086190D01*
X36795952Y-93371904D01*
X36748333Y-93467142D01*
X36700714Y-93514761D01*
X36605476Y-93562380D01*
X36415000Y-93562380D01*
X36319761Y-93514761D01*
X37367380Y-93562380D02*
X37272142Y-93514761D01*
X37224523Y-93467142D01*
X37176904Y-93371904D01*
X37176904Y-93086190D01*
X37224523Y-92990952D01*
X37272142Y-92943333D01*
X37367380Y-92895714D01*
X37510238Y-92895714D01*
X37605476Y-92943333D01*
X37653095Y-92990952D01*
X37700714Y-93086190D01*
X37700714Y-93371904D01*
X37653095Y-93467142D01*
X37605476Y-93514761D01*
X37510238Y-93562380D01*
X37367380Y-93562380D01*
X38272142Y-93562380D02*
X38176904Y-93514761D01*
X38129285Y-93467142D01*
X38081666Y-93371904D01*
X38081666Y-93086190D01*
X38129285Y-92990952D01*
X38176904Y-92943333D01*
X38272142Y-92895714D01*
X38415000Y-92895714D01*
X38510238Y-92943333D01*
X38557857Y-92990952D01*
X38605476Y-93086190D01*
X38605476Y-93371904D01*
X38557857Y-93467142D01*
X38510238Y-93514761D01*
X38415000Y-93562380D01*
X38272142Y-93562380D01*
X38891190Y-92895714D02*
X39272142Y-92895714D01*
X39034047Y-92562380D02*
X39034047Y-93419523D01*
X39081666Y-93514761D01*
X39176904Y-93562380D01*
X39272142Y-93562380D01*
X40795952Y-93514761D02*
X40700714Y-93562380D01*
X40510238Y-93562380D01*
X40415000Y-93514761D01*
X40367380Y-93467142D01*
X40319761Y-93371904D01*
X40319761Y-93086190D01*
X40367380Y-92990952D01*
X40415000Y-92943333D01*
X40510238Y-92895714D01*
X40700714Y-92895714D01*
X40795952Y-92943333D01*
X41367380Y-93562380D02*
X41272142Y-93514761D01*
X41224523Y-93467142D01*
X41176904Y-93371904D01*
X41176904Y-93086190D01*
X41224523Y-92990952D01*
X41272142Y-92943333D01*
X41367380Y-92895714D01*
X41510238Y-92895714D01*
X41605476Y-92943333D01*
X41653095Y-92990952D01*
X41700714Y-93086190D01*
X41700714Y-93371904D01*
X41653095Y-93467142D01*
X41605476Y-93514761D01*
X41510238Y-93562380D01*
X41367380Y-93562380D01*
X42129285Y-92895714D02*
X42129285Y-93562380D01*
X42129285Y-92990952D02*
X42176904Y-92943333D01*
X42272142Y-92895714D01*
X42415000Y-92895714D01*
X42510238Y-92943333D01*
X42557857Y-93038571D01*
X42557857Y-93562380D01*
X42891190Y-92895714D02*
X43272142Y-92895714D01*
X43034047Y-93562380D02*
X43034047Y-92705238D01*
X43081666Y-92610000D01*
X43176904Y-92562380D01*
X43272142Y-92562380D01*
X43605476Y-93562380D02*
X43605476Y-92895714D01*
X43605476Y-92562380D02*
X43557857Y-92610000D01*
X43605476Y-92657619D01*
X43653095Y-92610000D01*
X43605476Y-92562380D01*
X43605476Y-92657619D01*
X44510238Y-92895714D02*
X44510238Y-93705238D01*
X44462619Y-93800476D01*
X44415000Y-93848095D01*
X44319761Y-93895714D01*
X44176904Y-93895714D01*
X44081666Y-93848095D01*
X44510238Y-93514761D02*
X44415000Y-93562380D01*
X44224523Y-93562380D01*
X44129285Y-93514761D01*
X44081666Y-93467142D01*
X44034047Y-93371904D01*
X44034047Y-93086190D01*
X44081666Y-92990952D01*
X44129285Y-92943333D01*
X44224523Y-92895714D01*
X44415000Y-92895714D01*
X44510238Y-92943333D01*
X46376428Y-62892380D02*
X46376428Y-62225714D01*
X46376428Y-62416190D02*
X46424047Y-62320952D01*
X46471666Y-62273333D01*
X46566904Y-62225714D01*
X46662142Y-62225714D01*
X47376428Y-62844761D02*
X47281190Y-62892380D01*
X47090714Y-62892380D01*
X46995476Y-62844761D01*
X46947857Y-62749523D01*
X46947857Y-62368571D01*
X46995476Y-62273333D01*
X47090714Y-62225714D01*
X47281190Y-62225714D01*
X47376428Y-62273333D01*
X47424047Y-62368571D01*
X47424047Y-62463809D01*
X46947857Y-62559047D01*
X47757380Y-62225714D02*
X47995476Y-62892380D01*
X48233571Y-62225714D01*
X49281190Y-61892380D02*
X49900238Y-61892380D01*
X49566904Y-62273333D01*
X49709761Y-62273333D01*
X49805000Y-62320952D01*
X49852619Y-62368571D01*
X49900238Y-62463809D01*
X49900238Y-62701904D01*
X49852619Y-62797142D01*
X49805000Y-62844761D01*
X49709761Y-62892380D01*
X49424047Y-62892380D01*
X49328809Y-62844761D01*
X49281190Y-62797142D01*
X50328809Y-62797142D02*
X50376428Y-62844761D01*
X50328809Y-62892380D01*
X50281190Y-62844761D01*
X50328809Y-62797142D01*
X50328809Y-62892380D01*
X50995476Y-61892380D02*
X51090714Y-61892380D01*
X51185952Y-61940000D01*
X51233571Y-61987619D01*
X51281190Y-62082857D01*
X51328809Y-62273333D01*
X51328809Y-62511428D01*
X51281190Y-62701904D01*
X51233571Y-62797142D01*
X51185952Y-62844761D01*
X51090714Y-62892380D01*
X50995476Y-62892380D01*
X50900238Y-62844761D01*
X50852619Y-62797142D01*
X50805000Y-62701904D01*
X50757380Y-62511428D01*
X50757380Y-62273333D01*
X50805000Y-62082857D01*
X50852619Y-61987619D01*
X50900238Y-61940000D01*
X50995476Y-61892380D01*
X52281190Y-62892380D02*
X51709761Y-62892380D01*
X51995476Y-62892380D02*
X51995476Y-61892380D01*
X51900238Y-62035238D01*
X51805000Y-62130476D01*
X51709761Y-62178095D01*
X45852619Y-64542380D02*
X45852619Y-63542380D01*
X46185952Y-64256666D01*
X46519285Y-63542380D01*
X46519285Y-64542380D01*
X47424047Y-64542380D02*
X47424047Y-64018571D01*
X47376428Y-63923333D01*
X47281190Y-63875714D01*
X47090714Y-63875714D01*
X46995476Y-63923333D01*
X47424047Y-64494761D02*
X47328809Y-64542380D01*
X47090714Y-64542380D01*
X46995476Y-64494761D01*
X46947857Y-64399523D01*
X46947857Y-64304285D01*
X46995476Y-64209047D01*
X47090714Y-64161428D01*
X47328809Y-64161428D01*
X47424047Y-64113809D01*
X47805000Y-63875714D02*
X48043095Y-64542380D01*
X48281190Y-63875714D02*
X48043095Y-64542380D01*
X47947857Y-64780476D01*
X47900238Y-64828095D01*
X47805000Y-64875714D01*
X49376428Y-63637619D02*
X49424047Y-63590000D01*
X49519285Y-63542380D01*
X49757380Y-63542380D01*
X49852619Y-63590000D01*
X49900238Y-63637619D01*
X49947857Y-63732857D01*
X49947857Y-63828095D01*
X49900238Y-63970952D01*
X49328809Y-64542380D01*
X49947857Y-64542380D01*
X50566904Y-63542380D02*
X50662142Y-63542380D01*
X50757380Y-63590000D01*
X50805000Y-63637619D01*
X50852619Y-63732857D01*
X50900238Y-63923333D01*
X50900238Y-64161428D01*
X50852619Y-64351904D01*
X50805000Y-64447142D01*
X50757380Y-64494761D01*
X50662142Y-64542380D01*
X50566904Y-64542380D01*
X50471666Y-64494761D01*
X50424047Y-64447142D01*
X50376428Y-64351904D01*
X50328809Y-64161428D01*
X50328809Y-63923333D01*
X50376428Y-63732857D01*
X50424047Y-63637619D01*
X50471666Y-63590000D01*
X50566904Y-63542380D01*
X51281190Y-63637619D02*
X51328809Y-63590000D01*
X51424047Y-63542380D01*
X51662142Y-63542380D01*
X51757380Y-63590000D01*
X51805000Y-63637619D01*
X51852619Y-63732857D01*
X51852619Y-63828095D01*
X51805000Y-63970952D01*
X51233571Y-64542380D01*
X51852619Y-64542380D01*
X52805000Y-64542380D02*
X52233571Y-64542380D01*
X52519285Y-64542380D02*
X52519285Y-63542380D01*
X52424047Y-63685238D01*
X52328809Y-63780476D01*
X52233571Y-63828095D01*
D12*
X42590714Y-58228571D02*
X42590714Y-56728571D01*
X42947857Y-56728571D01*
X43162142Y-56800000D01*
X43305000Y-56942857D01*
X43376428Y-57085714D01*
X43447857Y-57371428D01*
X43447857Y-57585714D01*
X43376428Y-57871428D01*
X43305000Y-58014285D01*
X43162142Y-58157142D01*
X42947857Y-58228571D01*
X42590714Y-58228571D01*
X44305000Y-58228571D02*
X44162142Y-58157142D01*
X44090714Y-58085714D01*
X44019285Y-57942857D01*
X44019285Y-57514285D01*
X44090714Y-57371428D01*
X44162142Y-57300000D01*
X44305000Y-57228571D01*
X44519285Y-57228571D01*
X44662142Y-57300000D01*
X44733571Y-57371428D01*
X44805000Y-57514285D01*
X44805000Y-57942857D01*
X44733571Y-58085714D01*
X44662142Y-58157142D01*
X44519285Y-58228571D01*
X44305000Y-58228571D01*
X45376428Y-58157142D02*
X45519285Y-58228571D01*
X45805000Y-58228571D01*
X45947857Y-58157142D01*
X46019285Y-58014285D01*
X46019285Y-57942857D01*
X45947857Y-57800000D01*
X45805000Y-57728571D01*
X45590714Y-57728571D01*
X45447857Y-57657142D01*
X45376428Y-57514285D01*
X45376428Y-57442857D01*
X45447857Y-57300000D01*
X45590714Y-57228571D01*
X45805000Y-57228571D01*
X45947857Y-57300000D01*
X46590714Y-58157142D02*
X46733571Y-58228571D01*
X47019285Y-58228571D01*
X47162142Y-58157142D01*
X47233571Y-58014285D01*
X47233571Y-57942857D01*
X47162142Y-57800000D01*
X47019285Y-57728571D01*
X46805000Y-57728571D01*
X46662142Y-57657142D01*
X46590714Y-57514285D01*
X46590714Y-57442857D01*
X46662142Y-57300000D01*
X46805000Y-57228571D01*
X47019285Y-57228571D01*
X47162142Y-57300000D01*
X47733571Y-57228571D02*
X48090714Y-58228571D01*
X48447857Y-57228571D02*
X48090714Y-58228571D01*
X47947857Y-58585714D01*
X47876428Y-58657142D01*
X47733571Y-58728571D01*
X48805000Y-57228571D02*
X49376428Y-57228571D01*
X49019285Y-56728571D02*
X49019285Y-58014285D01*
X49090714Y-58157142D01*
X49233571Y-58228571D01*
X49376428Y-58228571D01*
X49876428Y-58228571D02*
X49876428Y-57228571D01*
X49876428Y-57514285D02*
X49947857Y-57371428D01*
X50019285Y-57300000D01*
X50162142Y-57228571D01*
X50305000Y-57228571D01*
X51019285Y-58228571D02*
X50876428Y-58157142D01*
X50805000Y-58085714D01*
X50733571Y-57942857D01*
X50733571Y-57514285D01*
X50805000Y-57371428D01*
X50876428Y-57300000D01*
X51019285Y-57228571D01*
X51233571Y-57228571D01*
X51376428Y-57300000D01*
X51447857Y-57371428D01*
X51519285Y-57514285D01*
X51519285Y-57942857D01*
X51447857Y-58085714D01*
X51376428Y-58157142D01*
X51233571Y-58228571D01*
X51019285Y-58228571D01*
X52162142Y-57228571D02*
X52162142Y-58228571D01*
X52162142Y-57371428D02*
X52233571Y-57300000D01*
X52376428Y-57228571D01*
X52590714Y-57228571D01*
X52733571Y-57300000D01*
X52805000Y-57442857D01*
X52805000Y-58228571D01*
X53519285Y-58228571D02*
X53519285Y-57228571D01*
X53519285Y-56728571D02*
X53447857Y-56800000D01*
X53519285Y-56871428D01*
X53590714Y-56800000D01*
X53519285Y-56728571D01*
X53519285Y-56871428D01*
X54876428Y-58157142D02*
X54733571Y-58228571D01*
X54447857Y-58228571D01*
X54305000Y-58157142D01*
X54233571Y-58085714D01*
X54162142Y-57942857D01*
X54162142Y-57514285D01*
X54233571Y-57371428D01*
X54305000Y-57300000D01*
X54447857Y-57228571D01*
X54733571Y-57228571D01*
X54876428Y-57300000D01*
X55447857Y-58157142D02*
X55590714Y-58228571D01*
X55876428Y-58228571D01*
X56019285Y-58157142D01*
X56090714Y-58014285D01*
X56090714Y-57942857D01*
X56019285Y-57800000D01*
X55876428Y-57728571D01*
X55662142Y-57728571D01*
X55519285Y-57657142D01*
X55447857Y-57514285D01*
X55447857Y-57442857D01*
X55519285Y-57300000D01*
X55662142Y-57228571D01*
X55876428Y-57228571D01*
X56019285Y-57300000D01*
X43590714Y-59982857D02*
X43805000Y-60054285D01*
X43876428Y-60125714D01*
X43947857Y-60268571D01*
X43947857Y-60482857D01*
X43876428Y-60625714D01*
X43805000Y-60697142D01*
X43662142Y-60768571D01*
X43090714Y-60768571D01*
X43090714Y-59268571D01*
X43590714Y-59268571D01*
X43733571Y-59340000D01*
X43805000Y-59411428D01*
X43876428Y-59554285D01*
X43876428Y-59697142D01*
X43805000Y-59840000D01*
X43733571Y-59911428D01*
X43590714Y-59982857D01*
X43090714Y-59982857D01*
X44805000Y-60768571D02*
X44662142Y-60697142D01*
X44590714Y-60554285D01*
X44590714Y-59268571D01*
X45376428Y-60768571D02*
X45376428Y-59768571D01*
X45376428Y-59268571D02*
X45305000Y-59340000D01*
X45376428Y-59411428D01*
X45447857Y-59340000D01*
X45376428Y-59268571D01*
X45376428Y-59411428D01*
X45876428Y-59768571D02*
X46447857Y-59768571D01*
X46090714Y-59268571D02*
X46090714Y-60554285D01*
X46162142Y-60697142D01*
X46305000Y-60768571D01*
X46447857Y-60768571D01*
X46733571Y-59768571D02*
X47305000Y-59768571D01*
X46947857Y-59268571D02*
X46947857Y-60554285D01*
X47019285Y-60697142D01*
X47162142Y-60768571D01*
X47305000Y-60768571D01*
X48376428Y-60697142D02*
X48233571Y-60768571D01*
X47947857Y-60768571D01*
X47805000Y-60697142D01*
X47733571Y-60554285D01*
X47733571Y-59982857D01*
X47805000Y-59840000D01*
X47947857Y-59768571D01*
X48233571Y-59768571D01*
X48376428Y-59840000D01*
X48447857Y-59982857D01*
X48447857Y-60125714D01*
X47733571Y-60268571D01*
X49090714Y-60768571D02*
X49090714Y-59768571D01*
X49090714Y-60054285D02*
X49162142Y-59911428D01*
X49233571Y-59840000D01*
X49376428Y-59768571D01*
X49519285Y-59768571D01*
X51162142Y-60768571D02*
X51162142Y-59268571D01*
X51662142Y-60340000D01*
X52162142Y-59268571D01*
X52162142Y-60768571D01*
X52876428Y-60768571D02*
X52876428Y-59268571D01*
X53019285Y-60197142D02*
X53447857Y-60768571D01*
X53447857Y-59768571D02*
X52876428Y-60340000D01*
X54090714Y-60625714D02*
X54162142Y-60697142D01*
X54090714Y-60768571D01*
X54019285Y-60697142D01*
X54090714Y-60625714D01*
X54090714Y-60768571D01*
X54662142Y-59268571D02*
X55590714Y-59268571D01*
X55090714Y-59840000D01*
X55305000Y-59840000D01*
X55447857Y-59911428D01*
X55519285Y-59982857D01*
X55590714Y-60125714D01*
X55590714Y-60482857D01*
X55519285Y-60625714D01*
X55447857Y-60697142D01*
X55305000Y-60768571D01*
X54876428Y-60768571D01*
X54733571Y-60697142D01*
X54662142Y-60625714D01*
D11*
X77189523Y-30030714D02*
X77189523Y-30840238D01*
X77141904Y-30935476D01*
X77094285Y-30983095D01*
X76999047Y-31030714D01*
X76856190Y-31030714D01*
X76760952Y-30983095D01*
X77189523Y-30649761D02*
X77094285Y-30697380D01*
X76903809Y-30697380D01*
X76808571Y-30649761D01*
X76760952Y-30602142D01*
X76713333Y-30506904D01*
X76713333Y-30221190D01*
X76760952Y-30125952D01*
X76808571Y-30078333D01*
X76903809Y-30030714D01*
X77094285Y-30030714D01*
X77189523Y-30078333D01*
X77665714Y-30030714D02*
X77665714Y-30697380D01*
X77665714Y-30125952D02*
X77713333Y-30078333D01*
X77808571Y-30030714D01*
X77951428Y-30030714D01*
X78046666Y-30078333D01*
X78094285Y-30173571D01*
X78094285Y-30697380D01*
X78999047Y-30697380D02*
X78999047Y-29697380D01*
X78999047Y-30649761D02*
X78903809Y-30697380D01*
X78713333Y-30697380D01*
X78618095Y-30649761D01*
X78570476Y-30602142D01*
X78522857Y-30506904D01*
X78522857Y-30221190D01*
X78570476Y-30125952D01*
X78618095Y-30078333D01*
X78713333Y-30030714D01*
X78903809Y-30030714D01*
X78999047Y-30078333D01*
X76380000Y-28157380D02*
X76380000Y-27490714D01*
X76380000Y-27681190D02*
X76427619Y-27585952D01*
X76475238Y-27538333D01*
X76570476Y-27490714D01*
X76665714Y-27490714D01*
X76999047Y-28157380D02*
X76999047Y-27490714D01*
X76999047Y-27157380D02*
X76951428Y-27205000D01*
X76999047Y-27252619D01*
X77046666Y-27205000D01*
X76999047Y-27157380D01*
X76999047Y-27252619D01*
X77903809Y-27490714D02*
X77903809Y-28300238D01*
X77856190Y-28395476D01*
X77808571Y-28443095D01*
X77713333Y-28490714D01*
X77570476Y-28490714D01*
X77475238Y-28443095D01*
X77903809Y-28109761D02*
X77808571Y-28157380D01*
X77618095Y-28157380D01*
X77522857Y-28109761D01*
X77475238Y-28062142D01*
X77427619Y-27966904D01*
X77427619Y-27681190D01*
X77475238Y-27585952D01*
X77522857Y-27538333D01*
X77618095Y-27490714D01*
X77808571Y-27490714D01*
X77903809Y-27538333D01*
X78380000Y-28157380D02*
X78380000Y-27157380D01*
X78808571Y-28157380D02*
X78808571Y-27633571D01*
X78760952Y-27538333D01*
X78665714Y-27490714D01*
X78522857Y-27490714D01*
X78427619Y-27538333D01*
X78380000Y-27585952D01*
X79141904Y-27490714D02*
X79522857Y-27490714D01*
X79284761Y-27157380D02*
X79284761Y-28014523D01*
X79332380Y-28109761D01*
X79427619Y-28157380D01*
X79522857Y-28157380D01*
X76999047Y-25617380D02*
X76903809Y-25569761D01*
X76856190Y-25474523D01*
X76856190Y-24617380D01*
X77760952Y-25569761D02*
X77665714Y-25617380D01*
X77475238Y-25617380D01*
X77380000Y-25569761D01*
X77332380Y-25474523D01*
X77332380Y-25093571D01*
X77380000Y-24998333D01*
X77475238Y-24950714D01*
X77665714Y-24950714D01*
X77760952Y-24998333D01*
X77808571Y-25093571D01*
X77808571Y-25188809D01*
X77332380Y-25284047D01*
X78094285Y-24950714D02*
X78475238Y-24950714D01*
X78237142Y-25617380D02*
X78237142Y-24760238D01*
X78284761Y-24665000D01*
X78380000Y-24617380D01*
X78475238Y-24617380D01*
X78665714Y-24950714D02*
X79046666Y-24950714D01*
X78808571Y-24617380D02*
X78808571Y-25474523D01*
X78856190Y-25569761D01*
X78951428Y-25617380D01*
X79046666Y-25617380D01*
X84047380Y-31078095D02*
X83523571Y-31078095D01*
X83428333Y-31125714D01*
X83380714Y-31220952D01*
X83380714Y-31411428D01*
X83428333Y-31506666D01*
X83999761Y-31078095D02*
X84047380Y-31173333D01*
X84047380Y-31411428D01*
X83999761Y-31506666D01*
X83904523Y-31554285D01*
X83809285Y-31554285D01*
X83714047Y-31506666D01*
X83666428Y-31411428D01*
X83666428Y-31173333D01*
X83618809Y-31078095D01*
X83380714Y-30601904D02*
X84047380Y-30601904D01*
X83475952Y-30601904D02*
X83428333Y-30554285D01*
X83380714Y-30459047D01*
X83380714Y-30316190D01*
X83428333Y-30220952D01*
X83523571Y-30173333D01*
X84047380Y-30173333D01*
X84047380Y-29268571D02*
X83523571Y-29268571D01*
X83428333Y-29316190D01*
X83380714Y-29411428D01*
X83380714Y-29601904D01*
X83428333Y-29697142D01*
X83999761Y-29268571D02*
X84047380Y-29363809D01*
X84047380Y-29601904D01*
X83999761Y-29697142D01*
X83904523Y-29744761D01*
X83809285Y-29744761D01*
X83714047Y-29697142D01*
X83666428Y-29601904D01*
X83666428Y-29363809D01*
X83618809Y-29268571D01*
X84047380Y-28649523D02*
X83999761Y-28744761D01*
X83904523Y-28792380D01*
X83047380Y-28792380D01*
X84047380Y-28125714D02*
X83999761Y-28220952D01*
X83952142Y-28268571D01*
X83856904Y-28316190D01*
X83571190Y-28316190D01*
X83475952Y-28268571D01*
X83428333Y-28220952D01*
X83380714Y-28125714D01*
X83380714Y-27982857D01*
X83428333Y-27887619D01*
X83475952Y-27840000D01*
X83571190Y-27792380D01*
X83856904Y-27792380D01*
X83952142Y-27840000D01*
X83999761Y-27887619D01*
X84047380Y-27982857D01*
X84047380Y-28125714D01*
X83380714Y-26935238D02*
X84190238Y-26935238D01*
X84285476Y-26982857D01*
X84333095Y-27030476D01*
X84380714Y-27125714D01*
X84380714Y-27268571D01*
X84333095Y-27363809D01*
X83999761Y-26935238D02*
X84047380Y-27030476D01*
X84047380Y-27220952D01*
X83999761Y-27316190D01*
X83952142Y-27363809D01*
X83856904Y-27411428D01*
X83571190Y-27411428D01*
X83475952Y-27363809D01*
X83428333Y-27316190D01*
X83380714Y-27220952D01*
X83380714Y-27030476D01*
X83428333Y-26935238D01*
X83380714Y-26030476D02*
X84047380Y-26030476D01*
X83380714Y-26459047D02*
X83904523Y-26459047D01*
X83999761Y-26411428D01*
X84047380Y-26316190D01*
X84047380Y-26173333D01*
X83999761Y-26078095D01*
X83952142Y-26030476D01*
X83999761Y-25173333D02*
X84047380Y-25268571D01*
X84047380Y-25459047D01*
X83999761Y-25554285D01*
X83904523Y-25601904D01*
X83523571Y-25601904D01*
X83428333Y-25554285D01*
X83380714Y-25459047D01*
X83380714Y-25268571D01*
X83428333Y-25173333D01*
X83523571Y-25125714D01*
X83618809Y-25125714D01*
X83714047Y-25601904D01*
X72617380Y-30054285D02*
X71617380Y-30054285D01*
X72569761Y-30054285D02*
X72617380Y-30149523D01*
X72617380Y-30340000D01*
X72569761Y-30435238D01*
X72522142Y-30482857D01*
X72426904Y-30530476D01*
X72141190Y-30530476D01*
X72045952Y-30482857D01*
X71998333Y-30435238D01*
X71950714Y-30340000D01*
X71950714Y-30149523D01*
X71998333Y-30054285D01*
X72617380Y-29578095D02*
X71950714Y-29578095D01*
X71617380Y-29578095D02*
X71665000Y-29625714D01*
X71712619Y-29578095D01*
X71665000Y-29530476D01*
X71617380Y-29578095D01*
X71712619Y-29578095D01*
X71950714Y-28673333D02*
X72760238Y-28673333D01*
X72855476Y-28720952D01*
X72903095Y-28768571D01*
X72950714Y-28863809D01*
X72950714Y-29006666D01*
X72903095Y-29101904D01*
X72569761Y-28673333D02*
X72617380Y-28768571D01*
X72617380Y-28959047D01*
X72569761Y-29054285D01*
X72522142Y-29101904D01*
X72426904Y-29149523D01*
X72141190Y-29149523D01*
X72045952Y-29101904D01*
X71998333Y-29054285D01*
X71950714Y-28959047D01*
X71950714Y-28768571D01*
X71998333Y-28673333D01*
X72617380Y-28197142D02*
X71950714Y-28197142D01*
X71617380Y-28197142D02*
X71665000Y-28244761D01*
X71712619Y-28197142D01*
X71665000Y-28149523D01*
X71617380Y-28197142D01*
X71712619Y-28197142D01*
X71950714Y-27863809D02*
X71950714Y-27482857D01*
X71617380Y-27720952D02*
X72474523Y-27720952D01*
X72569761Y-27673333D01*
X72617380Y-27578095D01*
X72617380Y-27482857D01*
X72617380Y-26720952D02*
X72093571Y-26720952D01*
X71998333Y-26768571D01*
X71950714Y-26863809D01*
X71950714Y-27054285D01*
X71998333Y-27149523D01*
X72569761Y-26720952D02*
X72617380Y-26816190D01*
X72617380Y-27054285D01*
X72569761Y-27149523D01*
X72474523Y-27197142D01*
X72379285Y-27197142D01*
X72284047Y-27149523D01*
X72236428Y-27054285D01*
X72236428Y-26816190D01*
X72188809Y-26720952D01*
X72617380Y-26101904D02*
X72569761Y-26197142D01*
X72474523Y-26244761D01*
X71617380Y-26244761D01*
X75856190Y-23029761D02*
X75951428Y-23077380D01*
X76141904Y-23077380D01*
X76237142Y-23029761D01*
X76284761Y-22934523D01*
X76284761Y-22886904D01*
X76237142Y-22791666D01*
X76141904Y-22744047D01*
X75999047Y-22744047D01*
X75903809Y-22696428D01*
X75856190Y-22601190D01*
X75856190Y-22553571D01*
X75903809Y-22458333D01*
X75999047Y-22410714D01*
X76141904Y-22410714D01*
X76237142Y-22458333D01*
X76856190Y-23077380D02*
X76760952Y-23029761D01*
X76713333Y-22982142D01*
X76665714Y-22886904D01*
X76665714Y-22601190D01*
X76713333Y-22505952D01*
X76760952Y-22458333D01*
X76856190Y-22410714D01*
X76999047Y-22410714D01*
X77094285Y-22458333D01*
X77141904Y-22505952D01*
X77189523Y-22601190D01*
X77189523Y-22886904D01*
X77141904Y-22982142D01*
X77094285Y-23029761D01*
X76999047Y-23077380D01*
X76856190Y-23077380D01*
X78046666Y-22410714D02*
X78046666Y-23077380D01*
X77618095Y-22410714D02*
X77618095Y-22934523D01*
X77665714Y-23029761D01*
X77760952Y-23077380D01*
X77903809Y-23077380D01*
X77999047Y-23029761D01*
X78046666Y-22982142D01*
X78522857Y-22410714D02*
X78522857Y-23077380D01*
X78522857Y-22505952D02*
X78570476Y-22458333D01*
X78665714Y-22410714D01*
X78808571Y-22410714D01*
X78903809Y-22458333D01*
X78951428Y-22553571D01*
X78951428Y-23077380D01*
X79856190Y-23077380D02*
X79856190Y-22077380D01*
X79856190Y-23029761D02*
X79760952Y-23077380D01*
X79570476Y-23077380D01*
X79475238Y-23029761D01*
X79427619Y-22982142D01*
X79380000Y-22886904D01*
X79380000Y-22601190D01*
X79427619Y-22505952D01*
X79475238Y-22458333D01*
X79570476Y-22410714D01*
X79760952Y-22410714D01*
X79856190Y-22458333D01*
X28685595Y-100547380D02*
X28685595Y-99880714D01*
X28685595Y-99547380D02*
X28637976Y-99595000D01*
X28685595Y-99642619D01*
X28733214Y-99595000D01*
X28685595Y-99547380D01*
X28685595Y-99642619D01*
X29304642Y-100547380D02*
X29209404Y-100499761D01*
X29161785Y-100452142D01*
X29114166Y-100356904D01*
X29114166Y-100071190D01*
X29161785Y-99975952D01*
X29209404Y-99928333D01*
X29304642Y-99880714D01*
X29447500Y-99880714D01*
X29542738Y-99928333D01*
X29590357Y-99975952D01*
X29637976Y-100071190D01*
X29637976Y-100356904D01*
X29590357Y-100452142D01*
X29542738Y-100499761D01*
X29447500Y-100547380D01*
X29304642Y-100547380D01*
X30495119Y-99547380D02*
X30304642Y-99547380D01*
X30209404Y-99595000D01*
X30161785Y-99642619D01*
X30066547Y-99785476D01*
X30018928Y-99975952D01*
X30018928Y-100356904D01*
X30066547Y-100452142D01*
X30114166Y-100499761D01*
X30209404Y-100547380D01*
X30399880Y-100547380D01*
X30495119Y-100499761D01*
X30542738Y-100452142D01*
X30590357Y-100356904D01*
X30590357Y-100118809D01*
X30542738Y-100023571D01*
X30495119Y-99975952D01*
X30399880Y-99928333D01*
X30209404Y-99928333D01*
X30114166Y-99975952D01*
X30066547Y-100023571D01*
X30018928Y-100118809D01*
X28685595Y-98007380D02*
X28685595Y-97340714D01*
X28685595Y-97007380D02*
X28637976Y-97055000D01*
X28685595Y-97102619D01*
X28733214Y-97055000D01*
X28685595Y-97007380D01*
X28685595Y-97102619D01*
X29304642Y-98007380D02*
X29209404Y-97959761D01*
X29161785Y-97912142D01*
X29114166Y-97816904D01*
X29114166Y-97531190D01*
X29161785Y-97435952D01*
X29209404Y-97388333D01*
X29304642Y-97340714D01*
X29447500Y-97340714D01*
X29542738Y-97388333D01*
X29590357Y-97435952D01*
X29637976Y-97531190D01*
X29637976Y-97816904D01*
X29590357Y-97912142D01*
X29542738Y-97959761D01*
X29447500Y-98007380D01*
X29304642Y-98007380D01*
X30542738Y-97007380D02*
X30066547Y-97007380D01*
X30018928Y-97483571D01*
X30066547Y-97435952D01*
X30161785Y-97388333D01*
X30399880Y-97388333D01*
X30495119Y-97435952D01*
X30542738Y-97483571D01*
X30590357Y-97578809D01*
X30590357Y-97816904D01*
X30542738Y-97912142D01*
X30495119Y-97959761D01*
X30399880Y-98007380D01*
X30161785Y-98007380D01*
X30066547Y-97959761D01*
X30018928Y-97912142D01*
X28685595Y-95467380D02*
X28685595Y-94800714D01*
X28685595Y-94467380D02*
X28637976Y-94515000D01*
X28685595Y-94562619D01*
X28733214Y-94515000D01*
X28685595Y-94467380D01*
X28685595Y-94562619D01*
X29304642Y-95467380D02*
X29209404Y-95419761D01*
X29161785Y-95372142D01*
X29114166Y-95276904D01*
X29114166Y-94991190D01*
X29161785Y-94895952D01*
X29209404Y-94848333D01*
X29304642Y-94800714D01*
X29447500Y-94800714D01*
X29542738Y-94848333D01*
X29590357Y-94895952D01*
X29637976Y-94991190D01*
X29637976Y-95276904D01*
X29590357Y-95372142D01*
X29542738Y-95419761D01*
X29447500Y-95467380D01*
X29304642Y-95467380D01*
X30495119Y-94800714D02*
X30495119Y-95467380D01*
X30257023Y-94419761D02*
X30018928Y-95134047D01*
X30637976Y-95134047D01*
X28685595Y-92927380D02*
X28685595Y-92260714D01*
X28685595Y-91927380D02*
X28637976Y-91975000D01*
X28685595Y-92022619D01*
X28733214Y-91975000D01*
X28685595Y-91927380D01*
X28685595Y-92022619D01*
X29304642Y-92927380D02*
X29209404Y-92879761D01*
X29161785Y-92832142D01*
X29114166Y-92736904D01*
X29114166Y-92451190D01*
X29161785Y-92355952D01*
X29209404Y-92308333D01*
X29304642Y-92260714D01*
X29447500Y-92260714D01*
X29542738Y-92308333D01*
X29590357Y-92355952D01*
X29637976Y-92451190D01*
X29637976Y-92736904D01*
X29590357Y-92832142D01*
X29542738Y-92879761D01*
X29447500Y-92927380D01*
X29304642Y-92927380D01*
X29971309Y-91927380D02*
X30590357Y-91927380D01*
X30257023Y-92308333D01*
X30399880Y-92308333D01*
X30495119Y-92355952D01*
X30542738Y-92403571D01*
X30590357Y-92498809D01*
X30590357Y-92736904D01*
X30542738Y-92832142D01*
X30495119Y-92879761D01*
X30399880Y-92927380D01*
X30114166Y-92927380D01*
X30018928Y-92879761D01*
X29971309Y-92832142D01*
X28685595Y-90387380D02*
X28685595Y-89720714D01*
X28685595Y-89387380D02*
X28637976Y-89435000D01*
X28685595Y-89482619D01*
X28733214Y-89435000D01*
X28685595Y-89387380D01*
X28685595Y-89482619D01*
X29304642Y-90387380D02*
X29209404Y-90339761D01*
X29161785Y-90292142D01*
X29114166Y-90196904D01*
X29114166Y-89911190D01*
X29161785Y-89815952D01*
X29209404Y-89768333D01*
X29304642Y-89720714D01*
X29447500Y-89720714D01*
X29542738Y-89768333D01*
X29590357Y-89815952D01*
X29637976Y-89911190D01*
X29637976Y-90196904D01*
X29590357Y-90292142D01*
X29542738Y-90339761D01*
X29447500Y-90387380D01*
X29304642Y-90387380D01*
X30018928Y-89482619D02*
X30066547Y-89435000D01*
X30161785Y-89387380D01*
X30399880Y-89387380D01*
X30495119Y-89435000D01*
X30542738Y-89482619D01*
X30590357Y-89577857D01*
X30590357Y-89673095D01*
X30542738Y-89815952D01*
X29971309Y-90387380D01*
X30590357Y-90387380D01*
X28685595Y-87847380D02*
X28685595Y-87180714D01*
X28685595Y-86847380D02*
X28637976Y-86895000D01*
X28685595Y-86942619D01*
X28733214Y-86895000D01*
X28685595Y-86847380D01*
X28685595Y-86942619D01*
X29304642Y-87847380D02*
X29209404Y-87799761D01*
X29161785Y-87752142D01*
X29114166Y-87656904D01*
X29114166Y-87371190D01*
X29161785Y-87275952D01*
X29209404Y-87228333D01*
X29304642Y-87180714D01*
X29447500Y-87180714D01*
X29542738Y-87228333D01*
X29590357Y-87275952D01*
X29637976Y-87371190D01*
X29637976Y-87656904D01*
X29590357Y-87752142D01*
X29542738Y-87799761D01*
X29447500Y-87847380D01*
X29304642Y-87847380D01*
X30590357Y-87847380D02*
X30018928Y-87847380D01*
X30304642Y-87847380D02*
X30304642Y-86847380D01*
X30209404Y-86990238D01*
X30114166Y-87085476D01*
X30018928Y-87133095D01*
X28685595Y-85307380D02*
X28685595Y-84640714D01*
X28685595Y-84307380D02*
X28637976Y-84355000D01*
X28685595Y-84402619D01*
X28733214Y-84355000D01*
X28685595Y-84307380D01*
X28685595Y-84402619D01*
X29304642Y-85307380D02*
X29209404Y-85259761D01*
X29161785Y-85212142D01*
X29114166Y-85116904D01*
X29114166Y-84831190D01*
X29161785Y-84735952D01*
X29209404Y-84688333D01*
X29304642Y-84640714D01*
X29447500Y-84640714D01*
X29542738Y-84688333D01*
X29590357Y-84735952D01*
X29637976Y-84831190D01*
X29637976Y-85116904D01*
X29590357Y-85212142D01*
X29542738Y-85259761D01*
X29447500Y-85307380D01*
X29304642Y-85307380D01*
X30257023Y-84307380D02*
X30352261Y-84307380D01*
X30447500Y-84355000D01*
X30495119Y-84402619D01*
X30542738Y-84497857D01*
X30590357Y-84688333D01*
X30590357Y-84926428D01*
X30542738Y-85116904D01*
X30495119Y-85212142D01*
X30447500Y-85259761D01*
X30352261Y-85307380D01*
X30257023Y-85307380D01*
X30161785Y-85259761D01*
X30114166Y-85212142D01*
X30066547Y-85116904D01*
X30018928Y-84926428D01*
X30018928Y-84688333D01*
X30066547Y-84497857D01*
X30114166Y-84402619D01*
X30161785Y-84355000D01*
X30257023Y-84307380D01*
X28828452Y-82767380D02*
X28733214Y-82719761D01*
X28685595Y-82672142D01*
X28637976Y-82576904D01*
X28637976Y-82291190D01*
X28685595Y-82195952D01*
X28733214Y-82148333D01*
X28828452Y-82100714D01*
X28971309Y-82100714D01*
X29066547Y-82148333D01*
X29114166Y-82195952D01*
X29161785Y-82291190D01*
X29161785Y-82576904D01*
X29114166Y-82672142D01*
X29066547Y-82719761D01*
X28971309Y-82767380D01*
X28828452Y-82767380D01*
X29495119Y-81767380D02*
X30114166Y-81767380D01*
X29780833Y-82148333D01*
X29923690Y-82148333D01*
X30018928Y-82195952D01*
X30066547Y-82243571D01*
X30114166Y-82338809D01*
X30114166Y-82576904D01*
X30066547Y-82672142D01*
X30018928Y-82719761D01*
X29923690Y-82767380D01*
X29637976Y-82767380D01*
X29542738Y-82719761D01*
X29495119Y-82672142D01*
X28828452Y-80227380D02*
X28733214Y-80179761D01*
X28685595Y-80132142D01*
X28637976Y-80036904D01*
X28637976Y-79751190D01*
X28685595Y-79655952D01*
X28733214Y-79608333D01*
X28828452Y-79560714D01*
X28971309Y-79560714D01*
X29066547Y-79608333D01*
X29114166Y-79655952D01*
X29161785Y-79751190D01*
X29161785Y-80036904D01*
X29114166Y-80132142D01*
X29066547Y-80179761D01*
X28971309Y-80227380D01*
X28828452Y-80227380D01*
X29542738Y-79322619D02*
X29590357Y-79275000D01*
X29685595Y-79227380D01*
X29923690Y-79227380D01*
X30018928Y-79275000D01*
X30066547Y-79322619D01*
X30114166Y-79417857D01*
X30114166Y-79513095D01*
X30066547Y-79655952D01*
X29495119Y-80227380D01*
X30114166Y-80227380D01*
X28828452Y-77687380D02*
X28733214Y-77639761D01*
X28685595Y-77592142D01*
X28637976Y-77496904D01*
X28637976Y-77211190D01*
X28685595Y-77115952D01*
X28733214Y-77068333D01*
X28828452Y-77020714D01*
X28971309Y-77020714D01*
X29066547Y-77068333D01*
X29114166Y-77115952D01*
X29161785Y-77211190D01*
X29161785Y-77496904D01*
X29114166Y-77592142D01*
X29066547Y-77639761D01*
X28971309Y-77687380D01*
X28828452Y-77687380D01*
X30114166Y-77687380D02*
X29542738Y-77687380D01*
X29828452Y-77687380D02*
X29828452Y-76687380D01*
X29733214Y-76830238D01*
X29637976Y-76925476D01*
X29542738Y-76973095D01*
X28828452Y-75147380D02*
X28733214Y-75099761D01*
X28685595Y-75052142D01*
X28637976Y-74956904D01*
X28637976Y-74671190D01*
X28685595Y-74575952D01*
X28733214Y-74528333D01*
X28828452Y-74480714D01*
X28971309Y-74480714D01*
X29066547Y-74528333D01*
X29114166Y-74575952D01*
X29161785Y-74671190D01*
X29161785Y-74956904D01*
X29114166Y-75052142D01*
X29066547Y-75099761D01*
X28971309Y-75147380D01*
X28828452Y-75147380D01*
X29780833Y-74147380D02*
X29876071Y-74147380D01*
X29971309Y-74195000D01*
X30018928Y-74242619D01*
X30066547Y-74337857D01*
X30114166Y-74528333D01*
X30114166Y-74766428D01*
X30066547Y-74956904D01*
X30018928Y-75052142D01*
X29971309Y-75099761D01*
X29876071Y-75147380D01*
X29780833Y-75147380D01*
X29685595Y-75099761D01*
X29637976Y-75052142D01*
X29590357Y-74956904D01*
X29542738Y-74766428D01*
X29542738Y-74528333D01*
X29590357Y-74337857D01*
X29637976Y-74242619D01*
X29685595Y-74195000D01*
X29780833Y-74147380D01*
X29114166Y-72607380D02*
X29114166Y-72083571D01*
X29066547Y-71988333D01*
X28971309Y-71940714D01*
X28780833Y-71940714D01*
X28685595Y-71988333D01*
X29114166Y-72559761D02*
X29018928Y-72607380D01*
X28780833Y-72607380D01*
X28685595Y-72559761D01*
X28637976Y-72464523D01*
X28637976Y-72369285D01*
X28685595Y-72274047D01*
X28780833Y-72226428D01*
X29018928Y-72226428D01*
X29114166Y-72178809D01*
X30018928Y-71940714D02*
X30018928Y-72607380D01*
X29590357Y-71940714D02*
X29590357Y-72464523D01*
X29637976Y-72559761D01*
X29733214Y-72607380D01*
X29876071Y-72607380D01*
X29971309Y-72559761D01*
X30018928Y-72512142D01*
X30399880Y-72607380D02*
X30923690Y-71940714D01*
X30399880Y-71940714D02*
X30923690Y-72607380D01*
X35670595Y-54938571D02*
X36003928Y-54938571D01*
X36146785Y-55462380D02*
X35670595Y-55462380D01*
X35670595Y-54462380D01*
X36146785Y-54462380D01*
X37289642Y-54414761D02*
X36432500Y-55700476D01*
X37813452Y-54462380D02*
X38003928Y-54462380D01*
X38099166Y-54510000D01*
X38194404Y-54605238D01*
X38242023Y-54795714D01*
X38242023Y-55129047D01*
X38194404Y-55319523D01*
X38099166Y-55414761D01*
X38003928Y-55462380D01*
X37813452Y-55462380D01*
X37718214Y-55414761D01*
X37622976Y-55319523D01*
X37575357Y-55129047D01*
X37575357Y-54795714D01*
X37622976Y-54605238D01*
X37718214Y-54510000D01*
X37813452Y-54462380D01*
X38622976Y-55414761D02*
X38765833Y-55462380D01*
X39003928Y-55462380D01*
X39099166Y-55414761D01*
X39146785Y-55367142D01*
X39194404Y-55271904D01*
X39194404Y-55176666D01*
X39146785Y-55081428D01*
X39099166Y-55033809D01*
X39003928Y-54986190D01*
X38813452Y-54938571D01*
X38718214Y-54890952D01*
X38670595Y-54843333D01*
X38622976Y-54748095D01*
X38622976Y-54652857D01*
X38670595Y-54557619D01*
X38718214Y-54510000D01*
X38813452Y-54462380D01*
X39051547Y-54462380D01*
X39194404Y-54510000D01*
X40194404Y-55367142D02*
X40146785Y-55414761D01*
X40003928Y-55462380D01*
X39908690Y-55462380D01*
X39765833Y-55414761D01*
X39670595Y-55319523D01*
X39622976Y-55224285D01*
X39575357Y-55033809D01*
X39575357Y-54890952D01*
X39622976Y-54700476D01*
X39670595Y-54605238D01*
X39765833Y-54510000D01*
X39908690Y-54462380D01*
X40003928Y-54462380D01*
X40146785Y-54510000D01*
X40194404Y-54557619D01*
X40813452Y-54462380D02*
X41003928Y-54462380D01*
X41099166Y-54510000D01*
X41194404Y-54605238D01*
X41242023Y-54795714D01*
X41242023Y-55129047D01*
X41194404Y-55319523D01*
X41099166Y-55414761D01*
X41003928Y-55462380D01*
X40813452Y-55462380D01*
X40718214Y-55414761D01*
X40622976Y-55319523D01*
X40575357Y-55129047D01*
X40575357Y-54795714D01*
X40622976Y-54605238D01*
X40718214Y-54510000D01*
X40813452Y-54462380D01*
X41956309Y-55843333D02*
X41908690Y-55795714D01*
X41813452Y-55652857D01*
X41765833Y-55557619D01*
X41718214Y-55414761D01*
X41670595Y-55176666D01*
X41670595Y-54986190D01*
X41718214Y-54748095D01*
X41765833Y-54605238D01*
X41813452Y-54510000D01*
X41908690Y-54367142D01*
X41956309Y-54319523D01*
X42242023Y-54462380D02*
X42861071Y-54462380D01*
X42527738Y-54843333D01*
X42670595Y-54843333D01*
X42765833Y-54890952D01*
X42813452Y-54938571D01*
X42861071Y-55033809D01*
X42861071Y-55271904D01*
X42813452Y-55367142D01*
X42765833Y-55414761D01*
X42670595Y-55462380D01*
X42384880Y-55462380D01*
X42289642Y-55414761D01*
X42242023Y-55367142D01*
X43765833Y-54462380D02*
X43289642Y-54462380D01*
X43242023Y-54938571D01*
X43289642Y-54890952D01*
X43384880Y-54843333D01*
X43622976Y-54843333D01*
X43718214Y-54890952D01*
X43765833Y-54938571D01*
X43813452Y-55033809D01*
X43813452Y-55271904D01*
X43765833Y-55367142D01*
X43718214Y-55414761D01*
X43622976Y-55462380D01*
X43384880Y-55462380D01*
X43289642Y-55414761D01*
X43242023Y-55367142D01*
X44146785Y-55843333D02*
X44194404Y-55795714D01*
X44289642Y-55652857D01*
X44337261Y-55557619D01*
X44384880Y-55414761D01*
X44432500Y-55176666D01*
X44432500Y-54986190D01*
X44384880Y-54748095D01*
X44337261Y-54605238D01*
X44289642Y-54510000D01*
X44194404Y-54367142D01*
X44146785Y-54319523D01*
X35430476Y-68162380D02*
X35430476Y-67638571D01*
X35382857Y-67543333D01*
X35287619Y-67495714D01*
X35097142Y-67495714D01*
X35001904Y-67543333D01*
X35430476Y-68114761D02*
X35335238Y-68162380D01*
X35097142Y-68162380D01*
X35001904Y-68114761D01*
X34954285Y-68019523D01*
X34954285Y-67924285D01*
X35001904Y-67829047D01*
X35097142Y-67781428D01*
X35335238Y-67781428D01*
X35430476Y-67733809D01*
X36335238Y-67495714D02*
X36335238Y-68162380D01*
X35906666Y-67495714D02*
X35906666Y-68019523D01*
X35954285Y-68114761D01*
X36049523Y-68162380D01*
X36192380Y-68162380D01*
X36287619Y-68114761D01*
X36335238Y-68067142D01*
X36716190Y-68162380D02*
X37240000Y-67495714D01*
X36716190Y-67495714D02*
X37240000Y-68162380D01*
X37620952Y-68162380D02*
X37620952Y-67495714D01*
X37620952Y-67162380D02*
X37573333Y-67210000D01*
X37620952Y-67257619D01*
X37668571Y-67210000D01*
X37620952Y-67162380D01*
X37620952Y-67257619D01*
X38240000Y-68162380D02*
X38144761Y-68114761D01*
X38097142Y-68067142D01*
X38049523Y-67971904D01*
X38049523Y-67686190D01*
X38097142Y-67590952D01*
X38144761Y-67543333D01*
X38240000Y-67495714D01*
X38382857Y-67495714D01*
X38478095Y-67543333D01*
X38525714Y-67590952D01*
X38573333Y-67686190D01*
X38573333Y-67971904D01*
X38525714Y-68067142D01*
X38478095Y-68114761D01*
X38382857Y-68162380D01*
X38240000Y-68162380D01*
X39525714Y-68162380D02*
X38954285Y-68162380D01*
X39240000Y-68162380D02*
X39240000Y-67162380D01*
X39144761Y-67305238D01*
X39049523Y-67400476D01*
X38954285Y-67448095D01*
X35035595Y-65622380D02*
X35035595Y-64622380D01*
X35416547Y-64622380D01*
X35511785Y-64670000D01*
X35559404Y-64717619D01*
X35607023Y-64812857D01*
X35607023Y-64955714D01*
X35559404Y-65050952D01*
X35511785Y-65098571D01*
X35416547Y-65146190D01*
X35035595Y-65146190D01*
X36035595Y-65622380D02*
X36035595Y-64622380D01*
X36035595Y-65098571D02*
X36607023Y-65098571D01*
X36607023Y-65622380D02*
X36607023Y-64622380D01*
X37083214Y-65622380D02*
X37083214Y-64622380D01*
X38273690Y-64574761D02*
X37416547Y-65860476D01*
X38559404Y-65336666D02*
X39035595Y-65336666D01*
X38464166Y-65622380D02*
X38797500Y-64622380D01*
X39130833Y-65622380D01*
X39797500Y-65098571D02*
X39940357Y-65146190D01*
X39987976Y-65193809D01*
X40035595Y-65289047D01*
X40035595Y-65431904D01*
X39987976Y-65527142D01*
X39940357Y-65574761D01*
X39845119Y-65622380D01*
X39464166Y-65622380D01*
X39464166Y-64622380D01*
X39797500Y-64622380D01*
X39892738Y-64670000D01*
X39940357Y-64717619D01*
X39987976Y-64812857D01*
X39987976Y-64908095D01*
X39940357Y-65003333D01*
X39892738Y-65050952D01*
X39797500Y-65098571D01*
X39464166Y-65098571D01*
X40321309Y-64622380D02*
X40892738Y-64622380D01*
X40607023Y-65622380D02*
X40607023Y-64622380D01*
X41559404Y-65098571D02*
X41702261Y-65146190D01*
X41749880Y-65193809D01*
X41797500Y-65289047D01*
X41797500Y-65431904D01*
X41749880Y-65527142D01*
X41702261Y-65574761D01*
X41607023Y-65622380D01*
X41226071Y-65622380D01*
X41226071Y-64622380D01*
X41559404Y-64622380D01*
X41654642Y-64670000D01*
X41702261Y-64717619D01*
X41749880Y-64812857D01*
X41749880Y-64908095D01*
X41702261Y-65003333D01*
X41654642Y-65050952D01*
X41559404Y-65098571D01*
X41226071Y-65098571D01*
X42511785Y-66003333D02*
X42464166Y-65955714D01*
X42368928Y-65812857D01*
X42321309Y-65717619D01*
X42273690Y-65574761D01*
X42226071Y-65336666D01*
X42226071Y-65146190D01*
X42273690Y-64908095D01*
X42321309Y-64765238D01*
X42368928Y-64670000D01*
X42464166Y-64527142D01*
X42511785Y-64479523D01*
X42797500Y-64622380D02*
X43416547Y-64622380D01*
X43083214Y-65003333D01*
X43226071Y-65003333D01*
X43321309Y-65050952D01*
X43368928Y-65098571D01*
X43416547Y-65193809D01*
X43416547Y-65431904D01*
X43368928Y-65527142D01*
X43321309Y-65574761D01*
X43226071Y-65622380D01*
X42940357Y-65622380D01*
X42845119Y-65574761D01*
X42797500Y-65527142D01*
X43749880Y-66003333D02*
X43797500Y-65955714D01*
X43892738Y-65812857D01*
X43940357Y-65717619D01*
X43987976Y-65574761D01*
X44035595Y-65336666D01*
X44035595Y-65146190D01*
X43987976Y-64908095D01*
X43940357Y-64765238D01*
X43892738Y-64670000D01*
X43797500Y-64527142D01*
X43749880Y-64479523D01*
X35035595Y-63082380D02*
X35035595Y-62082380D01*
X35416547Y-62082380D01*
X35511785Y-62130000D01*
X35559404Y-62177619D01*
X35607023Y-62272857D01*
X35607023Y-62415714D01*
X35559404Y-62510952D01*
X35511785Y-62558571D01*
X35416547Y-62606190D01*
X35035595Y-62606190D01*
X36035595Y-63082380D02*
X36035595Y-62082380D01*
X36035595Y-62558571D02*
X36607023Y-62558571D01*
X36607023Y-63082380D02*
X36607023Y-62082380D01*
X37083214Y-63082380D02*
X37083214Y-62082380D01*
X38083214Y-63082380D02*
X37511785Y-63082380D01*
X37797500Y-63082380D02*
X37797500Y-62082380D01*
X37702261Y-62225238D01*
X37607023Y-62320476D01*
X37511785Y-62368095D01*
X38654642Y-63082380D02*
X38559404Y-63034761D01*
X38511785Y-62987142D01*
X38464166Y-62891904D01*
X38464166Y-62606190D01*
X38511785Y-62510952D01*
X38559404Y-62463333D01*
X38654642Y-62415714D01*
X38797500Y-62415714D01*
X38892738Y-62463333D01*
X38940357Y-62510952D01*
X38987976Y-62606190D01*
X38987976Y-62891904D01*
X38940357Y-62987142D01*
X38892738Y-63034761D01*
X38797500Y-63082380D01*
X38654642Y-63082380D01*
X39845119Y-62415714D02*
X39845119Y-63082380D01*
X39416547Y-62415714D02*
X39416547Y-62939523D01*
X39464166Y-63034761D01*
X39559404Y-63082380D01*
X39702261Y-63082380D01*
X39797500Y-63034761D01*
X39845119Y-62987142D01*
X40178452Y-62415714D02*
X40559404Y-62415714D01*
X40321309Y-62082380D02*
X40321309Y-62939523D01*
X40368928Y-63034761D01*
X40464166Y-63082380D01*
X40559404Y-63082380D01*
X35622976Y-52874761D02*
X35765833Y-52922380D01*
X36003928Y-52922380D01*
X36099166Y-52874761D01*
X36146785Y-52827142D01*
X36194404Y-52731904D01*
X36194404Y-52636666D01*
X36146785Y-52541428D01*
X36099166Y-52493809D01*
X36003928Y-52446190D01*
X35813452Y-52398571D01*
X35718214Y-52350952D01*
X35670595Y-52303333D01*
X35622976Y-52208095D01*
X35622976Y-52112857D01*
X35670595Y-52017619D01*
X35718214Y-51970000D01*
X35813452Y-51922380D01*
X36051547Y-51922380D01*
X36194404Y-51970000D01*
X36813452Y-51922380D02*
X37003928Y-51922380D01*
X37099166Y-51970000D01*
X37194404Y-52065238D01*
X37242023Y-52255714D01*
X37242023Y-52589047D01*
X37194404Y-52779523D01*
X37099166Y-52874761D01*
X37003928Y-52922380D01*
X36813452Y-52922380D01*
X36718214Y-52874761D01*
X36622976Y-52779523D01*
X36575357Y-52589047D01*
X36575357Y-52255714D01*
X36622976Y-52065238D01*
X36718214Y-51970000D01*
X36813452Y-51922380D01*
X38003928Y-52398571D02*
X38146785Y-52446190D01*
X38194404Y-52493809D01*
X38242023Y-52589047D01*
X38242023Y-52731904D01*
X38194404Y-52827142D01*
X38146785Y-52874761D01*
X38051547Y-52922380D01*
X37670595Y-52922380D01*
X37670595Y-51922380D01*
X38003928Y-51922380D01*
X38099166Y-51970000D01*
X38146785Y-52017619D01*
X38194404Y-52112857D01*
X38194404Y-52208095D01*
X38146785Y-52303333D01*
X38099166Y-52350952D01*
X38003928Y-52398571D01*
X37670595Y-52398571D01*
X38956309Y-53303333D02*
X38908690Y-53255714D01*
X38813452Y-53112857D01*
X38765833Y-53017619D01*
X38718214Y-52874761D01*
X38670595Y-52636666D01*
X38670595Y-52446190D01*
X38718214Y-52208095D01*
X38765833Y-52065238D01*
X38813452Y-51970000D01*
X38908690Y-51827142D01*
X38956309Y-51779523D01*
X39242023Y-51922380D02*
X39861071Y-51922380D01*
X39527738Y-52303333D01*
X39670595Y-52303333D01*
X39765833Y-52350952D01*
X39813452Y-52398571D01*
X39861071Y-52493809D01*
X39861071Y-52731904D01*
X39813452Y-52827142D01*
X39765833Y-52874761D01*
X39670595Y-52922380D01*
X39384880Y-52922380D01*
X39289642Y-52874761D01*
X39242023Y-52827142D01*
X40432500Y-52350952D02*
X40337261Y-52303333D01*
X40289642Y-52255714D01*
X40242023Y-52160476D01*
X40242023Y-52112857D01*
X40289642Y-52017619D01*
X40337261Y-51970000D01*
X40432500Y-51922380D01*
X40622976Y-51922380D01*
X40718214Y-51970000D01*
X40765833Y-52017619D01*
X40813452Y-52112857D01*
X40813452Y-52160476D01*
X40765833Y-52255714D01*
X40718214Y-52303333D01*
X40622976Y-52350952D01*
X40432500Y-52350952D01*
X40337261Y-52398571D01*
X40289642Y-52446190D01*
X40242023Y-52541428D01*
X40242023Y-52731904D01*
X40289642Y-52827142D01*
X40337261Y-52874761D01*
X40432500Y-52922380D01*
X40622976Y-52922380D01*
X40718214Y-52874761D01*
X40765833Y-52827142D01*
X40813452Y-52731904D01*
X40813452Y-52541428D01*
X40765833Y-52446190D01*
X40718214Y-52398571D01*
X40622976Y-52350952D01*
X41146785Y-53303333D02*
X41194404Y-53255714D01*
X41289642Y-53112857D01*
X41337261Y-53017619D01*
X41384880Y-52874761D01*
X41432500Y-52636666D01*
X41432500Y-52446190D01*
X41384880Y-52208095D01*
X41337261Y-52065238D01*
X41289642Y-51970000D01*
X41194404Y-51827142D01*
X41146785Y-51779523D01*
X26669404Y-67210000D02*
X26574166Y-67162380D01*
X26431309Y-67162380D01*
X26288452Y-67210000D01*
X26193214Y-67305238D01*
X26145595Y-67400476D01*
X26097976Y-67590952D01*
X26097976Y-67733809D01*
X26145595Y-67924285D01*
X26193214Y-68019523D01*
X26288452Y-68114761D01*
X26431309Y-68162380D01*
X26526547Y-68162380D01*
X26669404Y-68114761D01*
X26717023Y-68067142D01*
X26717023Y-67733809D01*
X26526547Y-67733809D01*
X27145595Y-68162380D02*
X27145595Y-67162380D01*
X27717023Y-68162380D01*
X27717023Y-67162380D01*
X28193214Y-68162380D02*
X28193214Y-67162380D01*
X28431309Y-67162380D01*
X28574166Y-67210000D01*
X28669404Y-67305238D01*
X28717023Y-67400476D01*
X28764642Y-67590952D01*
X28764642Y-67733809D01*
X28717023Y-67924285D01*
X28669404Y-68019523D01*
X28574166Y-68114761D01*
X28431309Y-68162380D01*
X28193214Y-68162380D01*
X26145595Y-65622380D02*
X26145595Y-64622380D01*
X26478928Y-65336666D01*
X26812261Y-64622380D01*
X26812261Y-65622380D01*
X27764642Y-65622380D02*
X27288452Y-65622380D01*
X27288452Y-64622380D01*
X28431309Y-65098571D02*
X28574166Y-65146190D01*
X28621785Y-65193809D01*
X28669404Y-65289047D01*
X28669404Y-65431904D01*
X28621785Y-65527142D01*
X28574166Y-65574761D01*
X28478928Y-65622380D01*
X28097976Y-65622380D01*
X28097976Y-64622380D01*
X28431309Y-64622380D01*
X28526547Y-64670000D01*
X28574166Y-64717619D01*
X28621785Y-64812857D01*
X28621785Y-64908095D01*
X28574166Y-65003333D01*
X28526547Y-65050952D01*
X28431309Y-65098571D01*
X28097976Y-65098571D01*
X29383690Y-66003333D02*
X29336071Y-65955714D01*
X29240833Y-65812857D01*
X29193214Y-65717619D01*
X29145595Y-65574761D01*
X29097976Y-65336666D01*
X29097976Y-65146190D01*
X29145595Y-64908095D01*
X29193214Y-64765238D01*
X29240833Y-64670000D01*
X29336071Y-64527142D01*
X29383690Y-64479523D01*
X30240833Y-64622380D02*
X29764642Y-64622380D01*
X29717023Y-65098571D01*
X29764642Y-65050952D01*
X29859880Y-65003333D01*
X30097976Y-65003333D01*
X30193214Y-65050952D01*
X30240833Y-65098571D01*
X30288452Y-65193809D01*
X30288452Y-65431904D01*
X30240833Y-65527142D01*
X30193214Y-65574761D01*
X30097976Y-65622380D01*
X29859880Y-65622380D01*
X29764642Y-65574761D01*
X29717023Y-65527142D01*
X30621785Y-66003333D02*
X30669404Y-65955714D01*
X30764642Y-65812857D01*
X30812261Y-65717619D01*
X30859880Y-65574761D01*
X30907500Y-65336666D01*
X30907500Y-65146190D01*
X30859880Y-64908095D01*
X30812261Y-64765238D01*
X30764642Y-64670000D01*
X30669404Y-64527142D01*
X30621785Y-64479523D01*
X26574166Y-63082380D02*
X26574166Y-62558571D01*
X26526547Y-62463333D01*
X26431309Y-62415714D01*
X26240833Y-62415714D01*
X26145595Y-62463333D01*
X26574166Y-63034761D02*
X26478928Y-63082380D01*
X26240833Y-63082380D01*
X26145595Y-63034761D01*
X26097976Y-62939523D01*
X26097976Y-62844285D01*
X26145595Y-62749047D01*
X26240833Y-62701428D01*
X26478928Y-62701428D01*
X26574166Y-62653809D01*
X27478928Y-62415714D02*
X27478928Y-63082380D01*
X27050357Y-62415714D02*
X27050357Y-62939523D01*
X27097976Y-63034761D01*
X27193214Y-63082380D01*
X27336071Y-63082380D01*
X27431309Y-63034761D01*
X27478928Y-62987142D01*
X27859880Y-63082380D02*
X28383690Y-62415714D01*
X27859880Y-62415714D02*
X28383690Y-63082380D01*
X28907500Y-63082380D02*
X28812261Y-63034761D01*
X28764642Y-62987142D01*
X28717023Y-62891904D01*
X28717023Y-62606190D01*
X28764642Y-62510952D01*
X28812261Y-62463333D01*
X28907500Y-62415714D01*
X29050357Y-62415714D01*
X29145595Y-62463333D01*
X29193214Y-62510952D01*
X29240833Y-62606190D01*
X29240833Y-62891904D01*
X29193214Y-62987142D01*
X29145595Y-63034761D01*
X29050357Y-63082380D01*
X28907500Y-63082380D01*
X30193214Y-63082380D02*
X29621785Y-63082380D01*
X29907500Y-63082380D02*
X29907500Y-62082380D01*
X29812261Y-62225238D01*
X29717023Y-62320476D01*
X29621785Y-62368095D01*
X26669404Y-57050000D02*
X26574166Y-57002380D01*
X26431309Y-57002380D01*
X26288452Y-57050000D01*
X26193214Y-57145238D01*
X26145595Y-57240476D01*
X26097976Y-57430952D01*
X26097976Y-57573809D01*
X26145595Y-57764285D01*
X26193214Y-57859523D01*
X26288452Y-57954761D01*
X26431309Y-58002380D01*
X26526547Y-58002380D01*
X26669404Y-57954761D01*
X26717023Y-57907142D01*
X26717023Y-57573809D01*
X26526547Y-57573809D01*
X27145595Y-58002380D02*
X27145595Y-57002380D01*
X27717023Y-58002380D01*
X27717023Y-57002380D01*
X28193214Y-58002380D02*
X28193214Y-57002380D01*
X28431309Y-57002380D01*
X28574166Y-57050000D01*
X28669404Y-57145238D01*
X28717023Y-57240476D01*
X28764642Y-57430952D01*
X28764642Y-57573809D01*
X28717023Y-57764285D01*
X28669404Y-57859523D01*
X28574166Y-57954761D01*
X28431309Y-58002380D01*
X28193214Y-58002380D01*
X26002738Y-54462380D02*
X26336071Y-55462380D01*
X26669404Y-54462380D01*
X27002738Y-55462380D02*
X27002738Y-54462380D01*
X27383690Y-54462380D01*
X27478928Y-54510000D01*
X27526547Y-54557619D01*
X27574166Y-54652857D01*
X27574166Y-54795714D01*
X27526547Y-54890952D01*
X27478928Y-54938571D01*
X27383690Y-54986190D01*
X27002738Y-54986190D01*
X28336071Y-54938571D02*
X28478928Y-54986190D01*
X28526547Y-55033809D01*
X28574166Y-55129047D01*
X28574166Y-55271904D01*
X28526547Y-55367142D01*
X28478928Y-55414761D01*
X28383690Y-55462380D01*
X28002738Y-55462380D01*
X28002738Y-54462380D01*
X28336071Y-54462380D01*
X28431309Y-54510000D01*
X28478928Y-54557619D01*
X28526547Y-54652857D01*
X28526547Y-54748095D01*
X28478928Y-54843333D01*
X28431309Y-54890952D01*
X28336071Y-54938571D01*
X28002738Y-54938571D01*
X29288452Y-55843333D02*
X29240833Y-55795714D01*
X29145595Y-55652857D01*
X29097976Y-55557619D01*
X29050357Y-55414761D01*
X29002738Y-55176666D01*
X29002738Y-54986190D01*
X29050357Y-54748095D01*
X29097976Y-54605238D01*
X29145595Y-54510000D01*
X29240833Y-54367142D01*
X29288452Y-54319523D01*
X30193214Y-55462380D02*
X29621785Y-55462380D01*
X29907500Y-55462380D02*
X29907500Y-54462380D01*
X29812261Y-54605238D01*
X29717023Y-54700476D01*
X29621785Y-54748095D01*
X30526547Y-55843333D02*
X30574166Y-55795714D01*
X30669404Y-55652857D01*
X30717023Y-55557619D01*
X30764642Y-55414761D01*
X30812261Y-55176666D01*
X30812261Y-54986190D01*
X30764642Y-54748095D01*
X30717023Y-54605238D01*
X30669404Y-54510000D01*
X30574166Y-54367142D01*
X30526547Y-54319523D01*
X26574166Y-52922380D02*
X26574166Y-52398571D01*
X26526547Y-52303333D01*
X26431309Y-52255714D01*
X26240833Y-52255714D01*
X26145595Y-52303333D01*
X26574166Y-52874761D02*
X26478928Y-52922380D01*
X26240833Y-52922380D01*
X26145595Y-52874761D01*
X26097976Y-52779523D01*
X26097976Y-52684285D01*
X26145595Y-52589047D01*
X26240833Y-52541428D01*
X26478928Y-52541428D01*
X26574166Y-52493809D01*
X27478928Y-52255714D02*
X27478928Y-52922380D01*
X27050357Y-52255714D02*
X27050357Y-52779523D01*
X27097976Y-52874761D01*
X27193214Y-52922380D01*
X27336071Y-52922380D01*
X27431309Y-52874761D01*
X27478928Y-52827142D01*
X27859880Y-52922380D02*
X28383690Y-52255714D01*
X27859880Y-52255714D02*
X28383690Y-52922380D01*
X28907500Y-52922380D02*
X28812261Y-52874761D01*
X28764642Y-52827142D01*
X28717023Y-52731904D01*
X28717023Y-52446190D01*
X28764642Y-52350952D01*
X28812261Y-52303333D01*
X28907500Y-52255714D01*
X29050357Y-52255714D01*
X29145595Y-52303333D01*
X29193214Y-52350952D01*
X29240833Y-52446190D01*
X29240833Y-52731904D01*
X29193214Y-52827142D01*
X29145595Y-52874761D01*
X29050357Y-52922380D01*
X28907500Y-52922380D01*
X29859880Y-51922380D02*
X29955119Y-51922380D01*
X30050357Y-51970000D01*
X30097976Y-52017619D01*
X30145595Y-52112857D01*
X30193214Y-52303333D01*
X30193214Y-52541428D01*
X30145595Y-52731904D01*
X30097976Y-52827142D01*
X30050357Y-52874761D01*
X29955119Y-52922380D01*
X29859880Y-52922380D01*
X29764642Y-52874761D01*
X29717023Y-52827142D01*
X29669404Y-52731904D01*
X29621785Y-52541428D01*
X29621785Y-52303333D01*
X29669404Y-52112857D01*
X29717023Y-52017619D01*
X29764642Y-51970000D01*
X29859880Y-51922380D01*
D13*
X117885714Y-99542380D02*
X117314285Y-99542380D01*
X117600000Y-99542380D02*
X117600000Y-98542380D01*
X117504761Y-98685238D01*
X117409523Y-98780476D01*
X117314285Y-98828095D01*
X117432380Y-92542380D02*
X117527619Y-92542380D01*
X117622857Y-92590000D01*
X117670476Y-92637619D01*
X117718095Y-92732857D01*
X117765714Y-92923333D01*
X117765714Y-93161428D01*
X117718095Y-93351904D01*
X117670476Y-93447142D01*
X117622857Y-93494761D01*
X117527619Y-93542380D01*
X117432380Y-93542380D01*
X117337142Y-93494761D01*
X117289523Y-93447142D01*
X117241904Y-93351904D01*
X117194285Y-93161428D01*
X117194285Y-92923333D01*
X117241904Y-92732857D01*
X117289523Y-92637619D01*
X117337142Y-92590000D01*
X117432380Y-92542380D01*
X115986666Y-89728571D02*
X116129523Y-89776190D01*
X116177142Y-89823809D01*
X116224761Y-89919047D01*
X116224761Y-90061904D01*
X116177142Y-90157142D01*
X116129523Y-90204761D01*
X116034285Y-90252380D01*
X115653333Y-90252380D01*
X115653333Y-89252380D01*
X115986666Y-89252380D01*
X116081904Y-89300000D01*
X116129523Y-89347619D01*
X116177142Y-89442857D01*
X116177142Y-89538095D01*
X116129523Y-89633333D01*
X116081904Y-89680952D01*
X115986666Y-89728571D01*
X115653333Y-89728571D01*
X116510476Y-89252380D02*
X117081904Y-89252380D01*
X116796190Y-90252380D02*
X116796190Y-89252380D01*
X117415238Y-90252380D02*
X117415238Y-89252380D01*
X117986666Y-90252380D01*
X117986666Y-89252380D01*
X96896666Y-100232380D02*
X97515714Y-100232380D01*
X97182380Y-100613333D01*
X97325238Y-100613333D01*
X97420476Y-100660952D01*
X97468095Y-100708571D01*
X97515714Y-100803809D01*
X97515714Y-101041904D01*
X97468095Y-101137142D01*
X97420476Y-101184761D01*
X97325238Y-101232380D01*
X97039523Y-101232380D01*
X96944285Y-101184761D01*
X96896666Y-101137142D01*
X93424285Y-100347619D02*
X93471904Y-100300000D01*
X93567142Y-100252380D01*
X93805238Y-100252380D01*
X93900476Y-100300000D01*
X93948095Y-100347619D01*
X93995714Y-100442857D01*
X93995714Y-100538095D01*
X93948095Y-100680952D01*
X93376666Y-101252380D01*
X93995714Y-101252380D01*
X90465714Y-101252380D02*
X89894285Y-101252380D01*
X90180000Y-101252380D02*
X90180000Y-100252380D01*
X90084761Y-100395238D01*
X89989523Y-100490476D01*
X89894285Y-100538095D01*
X86712380Y-100252380D02*
X86807619Y-100252380D01*
X86902857Y-100300000D01*
X86950476Y-100347619D01*
X86998095Y-100442857D01*
X87045714Y-100633333D01*
X87045714Y-100871428D01*
X86998095Y-101061904D01*
X86950476Y-101157142D01*
X86902857Y-101204761D01*
X86807619Y-101252380D01*
X86712380Y-101252380D01*
X86617142Y-101204761D01*
X86569523Y-101157142D01*
X86521904Y-101061904D01*
X86474285Y-100871428D01*
X86474285Y-100633333D01*
X86521904Y-100442857D01*
X86569523Y-100347619D01*
X86617142Y-100300000D01*
X86712380Y-100252380D01*
X82957142Y-101232380D02*
X82480952Y-101232380D01*
X82480952Y-100232380D01*
X83290476Y-100708571D02*
X83623809Y-100708571D01*
X83766666Y-101232380D02*
X83290476Y-101232380D01*
X83290476Y-100232380D01*
X83766666Y-100232380D01*
X84195238Y-101232380D02*
X84195238Y-100232380D01*
X84433333Y-100232380D01*
X84576190Y-100280000D01*
X84671428Y-100375238D01*
X84719047Y-100470476D01*
X84766666Y-100660952D01*
X84766666Y-100803809D01*
X84719047Y-100994285D01*
X84671428Y-101089523D01*
X84576190Y-101184761D01*
X84433333Y-101232380D01*
X84195238Y-101232380D01*
X119512380Y-100643333D02*
X118512380Y-100643333D01*
X118512380Y-100262380D01*
X118560000Y-100167142D01*
X118607619Y-100119523D01*
X118702857Y-100071904D01*
X118845714Y-100071904D01*
X118940952Y-100119523D01*
X118988571Y-100167142D01*
X119036190Y-100262380D01*
X119036190Y-100643333D01*
X118512380Y-99738571D02*
X119512380Y-99500476D01*
X118798095Y-99310000D01*
X119512380Y-99119523D01*
X118512380Y-98881428D01*
X119512380Y-97929047D02*
X119036190Y-98262380D01*
X119512380Y-98500476D02*
X118512380Y-98500476D01*
X118512380Y-98119523D01*
X118560000Y-98024285D01*
X118607619Y-97976666D01*
X118702857Y-97929047D01*
X118845714Y-97929047D01*
X118940952Y-97976666D01*
X118988571Y-98024285D01*
X119036190Y-98119523D01*
X119036190Y-98500476D01*
D10*
X74650000Y-32450000D02*
X78070000Y-32830000D01*
X62110000Y-43770000D02*
X62110000Y-36730000D01*
X55040000Y-36440000D02*
X55040000Y-43330000D01*
D12*
X48757142Y-26598571D02*
X48757142Y-25098571D01*
X48757142Y-25812857D02*
X49614285Y-25812857D01*
X49614285Y-26598571D02*
X49614285Y-25098571D01*
X50328571Y-26598571D02*
X50328571Y-25098571D01*
X50685714Y-25098571D01*
X50900000Y-25170000D01*
X51042857Y-25312857D01*
X51114285Y-25455714D01*
X51185714Y-25741428D01*
X51185714Y-25955714D01*
X51114285Y-26241428D01*
X51042857Y-26384285D01*
X50900000Y-26527142D01*
X50685714Y-26598571D01*
X50328571Y-26598571D01*
X51828571Y-26598571D02*
X51828571Y-25098571D01*
X52328571Y-26170000D01*
X52828571Y-25098571D01*
X52828571Y-26598571D01*
X53542857Y-26598571D02*
X53542857Y-25098571D01*
D14*
X47625000Y-29925000D02*
X47625000Y-30225000D01*
X46200000Y-29925000D02*
X47625000Y-29925000D01*
X45675000Y-22175000D02*
X46325000Y-22175000D01*
X45675000Y-22750000D02*
X45675000Y-22175000D01*
X57125000Y-22175000D02*
X56400000Y-22175000D01*
X57125000Y-22775000D02*
X57125000Y-22175000D01*
X57125000Y-29925000D02*
X56550000Y-29925000D01*
X57125000Y-29550000D02*
X57125000Y-29925000D01*
X46050000Y-29925000D02*
X45700000Y-29600000D01*
X46200000Y-29925000D02*
X46050000Y-29925000D01*
D11*
X24365000Y-45025000D02*
X22965000Y-45025000D01*
X24365000Y-50125000D02*
X28515000Y-50125000D01*
X24365000Y-44975000D02*
X28515000Y-44975000D01*
X24365000Y-50125000D02*
X24365000Y-49980000D01*
X28515000Y-50125000D02*
X28515000Y-49980000D01*
X28515000Y-44975000D02*
X28515000Y-45120000D01*
X24365000Y-44975000D02*
X24365000Y-45025000D01*
D10*
X114135000Y-38440000D02*
X114135000Y-43640000D01*
X114135000Y-43640000D02*
X113565000Y-43640000D01*
X112045000Y-43640000D02*
X111025000Y-43640000D01*
X109505000Y-43640000D02*
X108485000Y-43640000D01*
X106965000Y-43640000D02*
X105945000Y-43640000D01*
X104425000Y-43640000D02*
X103405000Y-43640000D01*
X101885000Y-43640000D02*
X100865000Y-43640000D01*
X99345000Y-43640000D02*
X98325000Y-43640000D01*
X96805000Y-43640000D02*
X95785000Y-43640000D01*
X94265000Y-43640000D02*
X93245000Y-43640000D01*
X91725000Y-43640000D02*
X90705000Y-43640000D01*
X89185000Y-43640000D02*
X88165000Y-43640000D01*
X86645000Y-43640000D02*
X85625000Y-43640000D01*
X84105000Y-43640000D02*
X83085000Y-43640000D01*
X81565000Y-43640000D02*
X80545000Y-43640000D01*
X79025000Y-43640000D02*
X78005000Y-43640000D01*
X76485000Y-43640000D02*
X75465000Y-43640000D01*
X73945000Y-43640000D02*
X72925000Y-43640000D01*
X71405000Y-43640000D02*
X70385000Y-43640000D01*
X68865000Y-43640000D02*
X67845000Y-43640000D01*
X66325000Y-43640000D02*
X65305000Y-43640000D01*
X63785000Y-43640000D02*
X63215000Y-43640000D01*
X63215000Y-38440000D02*
X63215000Y-43640000D01*
X114135000Y-38440000D02*
X113565000Y-38440000D01*
X112045000Y-38440000D02*
X111025000Y-38440000D01*
X109505000Y-38440000D02*
X108485000Y-38440000D01*
X106965000Y-38440000D02*
X105945000Y-38440000D01*
X104425000Y-38440000D02*
X103405000Y-38440000D01*
X101885000Y-38440000D02*
X100865000Y-38440000D01*
X99345000Y-38440000D02*
X98325000Y-38440000D01*
X96805000Y-38440000D02*
X95785000Y-38440000D01*
X94265000Y-38440000D02*
X93245000Y-38440000D01*
X91725000Y-38440000D02*
X90705000Y-38440000D01*
X89185000Y-38440000D02*
X88165000Y-38440000D01*
X86645000Y-38440000D02*
X85625000Y-38440000D01*
X84105000Y-38440000D02*
X83085000Y-38440000D01*
X81565000Y-38440000D02*
X80545000Y-38440000D01*
X79025000Y-38440000D02*
X78005000Y-38440000D01*
X76485000Y-38440000D02*
X75465000Y-38440000D01*
X73945000Y-38440000D02*
X72925000Y-38440000D01*
X71405000Y-38440000D02*
X70385000Y-38440000D01*
X68865000Y-38440000D02*
X67845000Y-38440000D01*
X66325000Y-38440000D02*
X65305000Y-38440000D01*
X63785000Y-38440000D02*
X63215000Y-38440000D01*
X113565000Y-43640000D02*
X113565000Y-45000000D01*
X64630000Y-65120000D02*
X60380000Y-65120000D01*
X60380000Y-65120000D02*
X60380000Y-60870000D01*
X64630000Y-65120000D02*
X60380000Y-65120000D01*
X60380000Y-65120000D02*
X60380000Y-60870000D01*
X64630000Y-47880000D02*
X60380000Y-47880000D01*
X60380000Y-47880000D02*
X60380000Y-52130000D01*
X64630000Y-65120000D02*
X60380000Y-65120000D01*
X60380000Y-65120000D02*
X60380000Y-60870000D01*
X73370000Y-47880000D02*
X77620000Y-47880000D01*
X77620000Y-47880000D02*
X77620000Y-52130000D01*
X73370000Y-65120000D02*
X76500000Y-65120000D01*
X76500000Y-65120000D02*
X77620000Y-64000000D01*
X77620000Y-64000000D02*
X77620000Y-60870000D01*
D13*
X77600000Y-65000000D02*
G75*
G03X77600000Y-65000000I-100000J0D01*
G01*
D10*
X92800000Y-75120000D02*
X92200000Y-75120000D01*
X93500000Y-73020000D02*
X93500000Y-74420000D01*
X92200000Y-72320000D02*
X92800000Y-72320000D01*
X91500000Y-74420000D02*
X91500000Y-73020000D01*
X92200000Y-75120000D02*
G75*
G02X91500000Y-74420000I0J700000D01*
G01*
X93500000Y-74420000D02*
G75*
G02X92800000Y-75120000I-700000J0D01*
G01*
X92800000Y-72320000D02*
G75*
G02X93500000Y-73020000I0J-700000D01*
G01*
X91500000Y-73020000D02*
G75*
G02X92200000Y-72320000I700000J0D01*
G01*
X31650000Y-49300000D02*
X31650000Y-48800000D01*
X30590000Y-48800000D02*
X30590000Y-49300000D01*
D11*
X70872000Y-34861500D02*
X58922000Y-34861500D01*
X70872000Y-34861500D02*
X70872000Y-23411500D01*
X70872000Y-23411500D02*
X58922000Y-23411500D01*
X58922000Y-34861500D02*
X58922000Y-23411500D01*
X70422000Y-23411500D02*
X70422000Y-19061500D01*
X70422000Y-19061500D02*
X59422000Y-19061500D01*
X59422000Y-19061500D02*
X59422000Y-23411500D01*
D10*
X121330000Y-34590000D02*
X118670000Y-34590000D01*
X121330000Y-39730000D02*
X121330000Y-34590000D01*
X118670000Y-39730000D02*
X118670000Y-34590000D01*
X121330000Y-39730000D02*
X118670000Y-39730000D01*
X121330000Y-41000000D02*
X121330000Y-42330000D01*
X121330000Y-42330000D02*
X120000000Y-42330000D01*
X105170000Y-48810000D02*
X104670000Y-48810000D01*
X104670000Y-49750000D02*
X105170000Y-49750000D01*
X118240000Y-52860000D02*
X117240000Y-52860000D01*
X117240000Y-54560000D02*
X118240000Y-54560000D01*
X113050000Y-26980000D02*
X113550000Y-26980000D01*
X113550000Y-25920000D02*
X113050000Y-25920000D01*
X78090000Y-35340000D02*
X78090000Y-35840000D01*
X79030000Y-35840000D02*
X79030000Y-35340000D01*
X77450000Y-36045000D02*
X77450000Y-32895000D01*
X77450000Y-32895000D02*
X73650000Y-32895000D01*
D11*
X77891421Y-33170000D02*
G75*
G03X77891421Y-33170000I-141421J0D01*
G01*
D10*
X79140000Y-33930000D02*
X79140000Y-33430000D01*
X78080000Y-33430000D02*
X78080000Y-33930000D01*
X95965000Y-61790000D02*
X95965000Y-62950000D01*
X95585000Y-61790000D02*
X95965000Y-61790000D01*
X95585000Y-56600000D02*
X95585000Y-61790000D01*
X95585000Y-51410000D02*
X95965000Y-51410000D01*
X95585000Y-56600000D02*
X95585000Y-51410000D01*
X114215000Y-61790000D02*
X113835000Y-61790000D01*
X114215000Y-56600000D02*
X114215000Y-61790000D01*
X114215000Y-51410000D02*
X113835000Y-51410000D01*
X114215000Y-56600000D02*
X114215000Y-51410000D01*
X95965000Y-76790000D02*
X95965000Y-77950000D01*
X95585000Y-76790000D02*
X95965000Y-76790000D01*
X95585000Y-71600000D02*
X95585000Y-76790000D01*
X95585000Y-66410000D02*
X95965000Y-66410000D01*
X95585000Y-71600000D02*
X95585000Y-66410000D01*
X114215000Y-76790000D02*
X113835000Y-76790000D01*
X114215000Y-71600000D02*
X114215000Y-76790000D01*
X114215000Y-66410000D02*
X113835000Y-66410000D01*
X114215000Y-71600000D02*
X114215000Y-66410000D01*
D11*
X116700000Y-96800000D02*
X116700000Y-101200000D01*
X116700000Y-101200000D02*
X112300000Y-101200000D01*
X112300000Y-101200000D02*
X112300000Y-96850000D01*
X112300000Y-96850000D02*
X116700000Y-96850000D01*
X115750000Y-99000000D02*
G75*
G03X115750000Y-99000000I-1250000J0D01*
G01*
X116700000Y-90800000D02*
X116700000Y-95200000D01*
X116700000Y-95200000D02*
X112300000Y-95200000D01*
X112300000Y-95200000D02*
X112300000Y-90850000D01*
X112300000Y-90850000D02*
X116700000Y-90850000D01*
X115750000Y-93000000D02*
G75*
G03X115750000Y-93000000I-1250000J0D01*
G01*
D10*
X42550000Y-42620000D02*
X43050000Y-42620000D01*
X43050000Y-41680000D02*
X42550000Y-41680000D01*
X91800000Y-57380000D02*
X80200000Y-57380000D01*
D14*
X80200000Y-65620000D02*
X93050000Y-65620000D01*
D11*
X76149500Y-75057000D02*
X76149500Y-68707000D01*
X61824500Y-76132000D02*
X61824500Y-68707000D01*
X76149500Y-75057000D02*
X76142000Y-75057000D01*
X76149500Y-68707000D02*
X76142000Y-68707000D01*
X61899500Y-68707000D02*
X61907000Y-68707000D01*
D10*
X22575000Y-101425000D02*
X27775000Y-101425000D01*
X22575000Y-75965000D02*
X22575000Y-101425000D01*
X27775000Y-73365000D02*
X27775000Y-101425000D01*
X22575000Y-75965000D02*
X25175000Y-75965000D01*
X25175000Y-75965000D02*
X25175000Y-73365000D01*
X25175000Y-73365000D02*
X27775000Y-73365000D01*
X22575000Y-74695000D02*
X22575000Y-73365000D01*
X22575000Y-73365000D02*
X23905000Y-73365000D01*
X66325000Y-96965000D02*
X65305000Y-96965000D01*
X66325000Y-91765000D02*
X65305000Y-91765000D01*
X68865000Y-96965000D02*
X67845000Y-96965000D01*
X68865000Y-91765000D02*
X67845000Y-91765000D01*
X71405000Y-96965000D02*
X70385000Y-96965000D01*
X71405000Y-91765000D02*
X70385000Y-91765000D01*
X73945000Y-96965000D02*
X72925000Y-96965000D01*
X73945000Y-91765000D02*
X72925000Y-91765000D01*
X76485000Y-96965000D02*
X75465000Y-96965000D01*
X76485000Y-91765000D02*
X75465000Y-91765000D01*
X79025000Y-96965000D02*
X78005000Y-96965000D01*
X79025000Y-91765000D02*
X78005000Y-91765000D01*
X81565000Y-96965000D02*
X80545000Y-96965000D01*
X81565000Y-91765000D02*
X80545000Y-91765000D01*
X63785000Y-96965000D02*
X63215000Y-96965000D01*
X63785000Y-91765000D02*
X63215000Y-91765000D01*
X83655000Y-96965000D02*
X83085000Y-96965000D01*
X83655000Y-91765000D02*
X83085000Y-91765000D01*
X83085000Y-90325000D02*
X83085000Y-91765000D01*
X63215000Y-91765000D02*
X63215000Y-96965000D01*
X83655000Y-91765000D02*
X83655000Y-96965000D01*
X32100000Y-56340000D02*
X34760000Y-56340000D01*
X32100000Y-53740000D02*
X32100000Y-56340000D01*
X34760000Y-53740000D02*
X34760000Y-56340000D01*
X32100000Y-53740000D02*
X34760000Y-53740000D01*
X32100000Y-52470000D02*
X32100000Y-51140000D01*
X32100000Y-51140000D02*
X33430000Y-51140000D01*
X32100000Y-69040000D02*
X34760000Y-69040000D01*
X32100000Y-63900000D02*
X32100000Y-69040000D01*
X34760000Y-63900000D02*
X34760000Y-69040000D01*
X32100000Y-63900000D02*
X34760000Y-63900000D01*
X32100000Y-62630000D02*
X32100000Y-61300000D01*
X32100000Y-61300000D02*
X33430000Y-61300000D01*
X22575000Y-58880000D02*
X25235000Y-58880000D01*
X22575000Y-53740000D02*
X22575000Y-58880000D01*
X25235000Y-53740000D02*
X25235000Y-58880000D01*
X22575000Y-53740000D02*
X25235000Y-53740000D01*
X22575000Y-52470000D02*
X22575000Y-51140000D01*
X22575000Y-51140000D02*
X23905000Y-51140000D01*
X22575000Y-69040000D02*
X25235000Y-69040000D01*
X22575000Y-63900000D02*
X22575000Y-69040000D01*
X25235000Y-63900000D02*
X25235000Y-69040000D01*
X22575000Y-63900000D02*
X25235000Y-63900000D01*
X22575000Y-62630000D02*
X22575000Y-61300000D01*
X22575000Y-61300000D02*
X23905000Y-61300000D01*
X68865000Y-86820000D02*
X67845000Y-86820000D01*
X68865000Y-81620000D02*
X67845000Y-81620000D01*
X71405000Y-86820000D02*
X70385000Y-86820000D01*
X71405000Y-81620000D02*
X70385000Y-81620000D01*
X73945000Y-86820000D02*
X72925000Y-86820000D01*
X73945000Y-81620000D02*
X72925000Y-81620000D01*
X76485000Y-86820000D02*
X75465000Y-86820000D01*
X76485000Y-81620000D02*
X75465000Y-81620000D01*
X79025000Y-86820000D02*
X78005000Y-86820000D01*
X79025000Y-81620000D02*
X78005000Y-81620000D01*
X81565000Y-86820000D02*
X80545000Y-86820000D01*
X81565000Y-81620000D02*
X80545000Y-81620000D01*
X84105000Y-86820000D02*
X83085000Y-86820000D01*
X84105000Y-81620000D02*
X83085000Y-81620000D01*
X86645000Y-86820000D02*
X85625000Y-86820000D01*
X86645000Y-81620000D02*
X85625000Y-81620000D01*
X89185000Y-86820000D02*
X88165000Y-86820000D01*
X89185000Y-81620000D02*
X88165000Y-81620000D01*
X91725000Y-86820000D02*
X90705000Y-86820000D01*
X91725000Y-81620000D02*
X90705000Y-81620000D01*
X94265000Y-86820000D02*
X93245000Y-86820000D01*
X94265000Y-81620000D02*
X93245000Y-81620000D01*
X96805000Y-86820000D02*
X95785000Y-86820000D01*
X96805000Y-81620000D02*
X95785000Y-81620000D01*
X99345000Y-86820000D02*
X98325000Y-86820000D01*
X99345000Y-81620000D02*
X98325000Y-81620000D01*
X101885000Y-86820000D02*
X100865000Y-86820000D01*
X101885000Y-81620000D02*
X100865000Y-81620000D01*
X104425000Y-86820000D02*
X103405000Y-86820000D01*
X104425000Y-81620000D02*
X103405000Y-81620000D01*
X106965000Y-86820000D02*
X105945000Y-86820000D01*
X106965000Y-81620000D02*
X105945000Y-81620000D01*
X109505000Y-86820000D02*
X108485000Y-86820000D01*
X109505000Y-81620000D02*
X108485000Y-81620000D01*
X112045000Y-86820000D02*
X111025000Y-86820000D01*
X112045000Y-81620000D02*
X111025000Y-81620000D01*
X114585000Y-86820000D02*
X113565000Y-86820000D01*
X114585000Y-81620000D02*
X113565000Y-81620000D01*
X66325000Y-86820000D02*
X65755000Y-86820000D01*
X66325000Y-81620000D02*
X65755000Y-81620000D01*
X116675000Y-86820000D02*
X116105000Y-86820000D01*
X116675000Y-81620000D02*
X116105000Y-81620000D01*
X116105000Y-80180000D02*
X116105000Y-81620000D01*
X65755000Y-81620000D02*
X65755000Y-86820000D01*
X116675000Y-81620000D02*
X116675000Y-86820000D01*
X108660000Y-25295000D02*
X108060000Y-25295000D01*
X109360000Y-23195000D02*
X109360000Y-24595000D01*
X108060000Y-22495000D02*
X108660000Y-22495000D01*
X107360000Y-24595000D02*
X107360000Y-23195000D01*
X108060000Y-25295000D02*
G75*
G02X107360000Y-24595000I0J700000D01*
G01*
X109360000Y-24595000D02*
G75*
G02X108660000Y-25295000I-700000J0D01*
G01*
X108660000Y-22495000D02*
G75*
G02X109360000Y-23195000I0J-700000D01*
G01*
X107360000Y-23195000D02*
G75*
G02X108060000Y-22495000I700000J0D01*
G01*
X44125000Y-33075000D02*
G75*
G03X44125000Y-33075000I-11000000J0D01*
G01*
X33125000Y-26025000D02*
X33125000Y-40125000D01*
X33165000Y-26025000D02*
X33165000Y-40125000D01*
X33205000Y-26025000D02*
X33205000Y-40125000D01*
X33245000Y-26026000D02*
X33245000Y-40124000D01*
X33285000Y-26026000D02*
X33285000Y-40124000D01*
X33325000Y-26027000D02*
X33325000Y-40123000D01*
X33365000Y-26029000D02*
X33365000Y-40121000D01*
X33405000Y-26030000D02*
X33405000Y-40120000D01*
X33445000Y-26032000D02*
X33445000Y-40118000D01*
X33485000Y-26034000D02*
X33485000Y-40116000D01*
X33525000Y-26036000D02*
X33525000Y-40114000D01*
X33565000Y-26038000D02*
X33565000Y-40112000D01*
X33605000Y-26041000D02*
X33605000Y-40109000D01*
X33645000Y-26044000D02*
X33645000Y-40106000D01*
X33685000Y-26047000D02*
X33685000Y-40103000D01*
X33725000Y-26050000D02*
X33725000Y-40100000D01*
X33765000Y-26053000D02*
X33765000Y-40097000D01*
X33805000Y-26057000D02*
X33805000Y-40093000D01*
X33846000Y-26061000D02*
X33846000Y-40089000D01*
X33886000Y-26065000D02*
X33886000Y-40085000D01*
X33926000Y-26070000D02*
X33926000Y-40080000D01*
X33966000Y-26074000D02*
X33966000Y-40076000D01*
X34006000Y-26079000D02*
X34006000Y-40071000D01*
X34046000Y-26084000D02*
X34046000Y-40066000D01*
X34086000Y-26090000D02*
X34086000Y-40060000D01*
X34126000Y-26095000D02*
X34126000Y-40055000D01*
X34166000Y-26101000D02*
X34166000Y-40049000D01*
X34206000Y-26107000D02*
X34206000Y-40043000D01*
X34246000Y-26114000D02*
X34246000Y-31695000D01*
X34246000Y-34455000D02*
X34246000Y-40036000D01*
X34286000Y-26120000D02*
X34286000Y-31695000D01*
X34286000Y-34455000D02*
X34286000Y-40030000D01*
X34326000Y-26127000D02*
X34326000Y-31695000D01*
X34326000Y-34455000D02*
X34326000Y-40023000D01*
X34366000Y-26134000D02*
X34366000Y-31695000D01*
X34366000Y-34455000D02*
X34366000Y-40016000D01*
X34406000Y-26141000D02*
X34406000Y-31695000D01*
X34406000Y-34455000D02*
X34406000Y-40009000D01*
X34446000Y-26148000D02*
X34446000Y-31695000D01*
X34446000Y-34455000D02*
X34446000Y-40002000D01*
X34486000Y-26156000D02*
X34486000Y-31695000D01*
X34486000Y-34455000D02*
X34486000Y-39994000D01*
X34526000Y-26164000D02*
X34526000Y-31695000D01*
X34526000Y-34455000D02*
X34526000Y-39986000D01*
X34566000Y-26172000D02*
X34566000Y-31695000D01*
X34566000Y-34455000D02*
X34566000Y-39978000D01*
X34606000Y-26181000D02*
X34606000Y-31695000D01*
X34606000Y-34455000D02*
X34606000Y-39969000D01*
X34646000Y-26189000D02*
X34646000Y-31695000D01*
X34646000Y-34455000D02*
X34646000Y-39961000D01*
X34686000Y-26198000D02*
X34686000Y-31695000D01*
X34686000Y-34455000D02*
X34686000Y-39952000D01*
X34726000Y-26207000D02*
X34726000Y-31695000D01*
X34726000Y-34455000D02*
X34726000Y-39943000D01*
X34766000Y-26217000D02*
X34766000Y-31695000D01*
X34766000Y-34455000D02*
X34766000Y-39933000D01*
X34806000Y-26226000D02*
X34806000Y-31695000D01*
X34806000Y-34455000D02*
X34806000Y-39924000D01*
X34846000Y-26236000D02*
X34846000Y-31695000D01*
X34846000Y-34455000D02*
X34846000Y-39914000D01*
X34886000Y-26246000D02*
X34886000Y-31695000D01*
X34886000Y-34455000D02*
X34886000Y-39904000D01*
X34926000Y-26257000D02*
X34926000Y-31695000D01*
X34926000Y-34455000D02*
X34926000Y-39893000D01*
X34966000Y-26267000D02*
X34966000Y-31695000D01*
X34966000Y-34455000D02*
X34966000Y-39883000D01*
X35006000Y-26278000D02*
X35006000Y-31695000D01*
X35006000Y-34455000D02*
X35006000Y-39872000D01*
X35046000Y-26289000D02*
X35046000Y-31695000D01*
X35046000Y-34455000D02*
X35046000Y-39861000D01*
X35086000Y-26301000D02*
X35086000Y-31695000D01*
X35086000Y-34455000D02*
X35086000Y-39849000D01*
X35126000Y-26312000D02*
X35126000Y-31695000D01*
X35126000Y-34455000D02*
X35126000Y-39838000D01*
X35166000Y-26324000D02*
X35166000Y-31695000D01*
X35166000Y-34455000D02*
X35166000Y-39826000D01*
X35206000Y-26336000D02*
X35206000Y-31695000D01*
X35206000Y-34455000D02*
X35206000Y-39814000D01*
X35246000Y-26349000D02*
X35246000Y-31695000D01*
X35246000Y-34455000D02*
X35246000Y-39801000D01*
X35286000Y-26362000D02*
X35286000Y-31695000D01*
X35286000Y-34455000D02*
X35286000Y-39788000D01*
X35326000Y-26374000D02*
X35326000Y-31695000D01*
X35326000Y-34455000D02*
X35326000Y-39776000D01*
X35366000Y-26388000D02*
X35366000Y-31695000D01*
X35366000Y-34455000D02*
X35366000Y-39762000D01*
X35406000Y-26401000D02*
X35406000Y-31695000D01*
X35406000Y-34455000D02*
X35406000Y-39749000D01*
X35446000Y-26415000D02*
X35446000Y-31695000D01*
X35446000Y-34455000D02*
X35446000Y-39735000D01*
X35486000Y-26429000D02*
X35486000Y-31695000D01*
X35486000Y-34455000D02*
X35486000Y-39721000D01*
X35526000Y-26443000D02*
X35526000Y-31695000D01*
X35526000Y-34455000D02*
X35526000Y-39707000D01*
X35566000Y-26458000D02*
X35566000Y-31695000D01*
X35566000Y-34455000D02*
X35566000Y-39692000D01*
X35606000Y-26472000D02*
X35606000Y-31695000D01*
X35606000Y-34455000D02*
X35606000Y-39678000D01*
X35646000Y-26487000D02*
X35646000Y-31695000D01*
X35646000Y-34455000D02*
X35646000Y-39663000D01*
X35686000Y-26503000D02*
X35686000Y-31695000D01*
X35686000Y-34455000D02*
X35686000Y-39647000D01*
X35726000Y-26518000D02*
X35726000Y-31695000D01*
X35726000Y-34455000D02*
X35726000Y-39632000D01*
X35766000Y-26534000D02*
X35766000Y-31695000D01*
X35766000Y-34455000D02*
X35766000Y-39616000D01*
X35806000Y-26551000D02*
X35806000Y-31695000D01*
X35806000Y-34455000D02*
X35806000Y-39599000D01*
X35846000Y-26567000D02*
X35846000Y-31695000D01*
X35846000Y-34455000D02*
X35846000Y-39583000D01*
X35886000Y-26584000D02*
X35886000Y-31695000D01*
X35886000Y-34455000D02*
X35886000Y-39566000D01*
X35926000Y-26601000D02*
X35926000Y-31695000D01*
X35926000Y-34455000D02*
X35926000Y-39549000D01*
X35966000Y-26618000D02*
X35966000Y-31695000D01*
X35966000Y-34455000D02*
X35966000Y-39532000D01*
X36006000Y-26636000D02*
X36006000Y-31695000D01*
X36006000Y-34455000D02*
X36006000Y-39514000D01*
X36046000Y-26654000D02*
X36046000Y-31695000D01*
X36046000Y-34455000D02*
X36046000Y-39496000D01*
X36086000Y-26672000D02*
X36086000Y-31695000D01*
X36086000Y-34455000D02*
X36086000Y-39478000D01*
X36126000Y-26690000D02*
X36126000Y-31695000D01*
X36126000Y-34455000D02*
X36126000Y-39460000D01*
X36166000Y-26709000D02*
X36166000Y-31695000D01*
X36166000Y-34455000D02*
X36166000Y-39441000D01*
X36206000Y-26728000D02*
X36206000Y-31695000D01*
X36206000Y-34455000D02*
X36206000Y-39422000D01*
X36246000Y-26748000D02*
X36246000Y-31695000D01*
X36246000Y-34455000D02*
X36246000Y-39402000D01*
X36286000Y-26768000D02*
X36286000Y-31695000D01*
X36286000Y-34455000D02*
X36286000Y-39382000D01*
X36326000Y-26788000D02*
X36326000Y-31695000D01*
X36326000Y-34455000D02*
X36326000Y-39362000D01*
X36366000Y-26808000D02*
X36366000Y-31695000D01*
X36366000Y-34455000D02*
X36366000Y-39342000D01*
X36406000Y-26829000D02*
X36406000Y-31695000D01*
X36406000Y-34455000D02*
X36406000Y-39321000D01*
X36446000Y-26850000D02*
X36446000Y-31695000D01*
X36446000Y-34455000D02*
X36446000Y-39300000D01*
X36486000Y-26871000D02*
X36486000Y-31695000D01*
X36486000Y-34455000D02*
X36486000Y-39279000D01*
X36526000Y-26893000D02*
X36526000Y-31695000D01*
X36526000Y-34455000D02*
X36526000Y-39257000D01*
X36566000Y-26915000D02*
X36566000Y-31695000D01*
X36566000Y-34455000D02*
X36566000Y-39235000D01*
X36606000Y-26937000D02*
X36606000Y-31695000D01*
X36606000Y-34455000D02*
X36606000Y-39213000D01*
X36646000Y-26960000D02*
X36646000Y-31695000D01*
X36646000Y-34455000D02*
X36646000Y-39190000D01*
X36686000Y-26983000D02*
X36686000Y-31695000D01*
X36686000Y-34455000D02*
X36686000Y-39167000D01*
X36726000Y-27006000D02*
X36726000Y-31695000D01*
X36726000Y-34455000D02*
X36726000Y-39144000D01*
X36766000Y-27030000D02*
X36766000Y-31695000D01*
X36766000Y-34455000D02*
X36766000Y-39120000D01*
X36806000Y-27054000D02*
X36806000Y-31695000D01*
X36806000Y-34455000D02*
X36806000Y-39096000D01*
X36846000Y-27079000D02*
X36846000Y-31695000D01*
X36846000Y-34455000D02*
X36846000Y-39071000D01*
X36886000Y-27104000D02*
X36886000Y-31695000D01*
X36886000Y-34455000D02*
X36886000Y-39046000D01*
X36926000Y-27129000D02*
X36926000Y-31695000D01*
X36926000Y-34455000D02*
X36926000Y-39021000D01*
X36966000Y-27154000D02*
X36966000Y-31695000D01*
X36966000Y-34455000D02*
X36966000Y-38996000D01*
X37006000Y-27180000D02*
X37006000Y-38970000D01*
X37046000Y-27207000D02*
X37046000Y-38943000D01*
X37086000Y-27233000D02*
X37086000Y-38917000D01*
X37126000Y-27261000D02*
X37126000Y-38889000D01*
X37166000Y-27288000D02*
X37166000Y-38862000D01*
X37206000Y-27316000D02*
X37206000Y-38834000D01*
X37246000Y-27344000D02*
X37246000Y-38806000D01*
X37286000Y-27373000D02*
X37286000Y-38777000D01*
X37326000Y-27402000D02*
X37326000Y-38748000D01*
X37366000Y-27432000D02*
X37366000Y-38718000D01*
X37406000Y-27462000D02*
X37406000Y-38688000D01*
X37446000Y-27493000D02*
X37446000Y-38657000D01*
X37486000Y-27524000D02*
X37486000Y-38626000D01*
X37526000Y-27555000D02*
X37526000Y-38595000D01*
X37566000Y-27587000D02*
X37566000Y-38563000D01*
X37606000Y-27619000D02*
X37606000Y-38531000D01*
X37646000Y-27652000D02*
X37646000Y-38498000D01*
X37686000Y-27685000D02*
X37686000Y-38465000D01*
X37726000Y-27719000D02*
X37726000Y-38431000D01*
X37766000Y-27754000D02*
X37766000Y-38396000D01*
X37806000Y-27789000D02*
X37806000Y-38361000D01*
X37846000Y-27824000D02*
X37846000Y-38326000D01*
X37886000Y-27860000D02*
X37886000Y-38290000D01*
X37926000Y-27896000D02*
X37926000Y-38254000D01*
X37966000Y-27934000D02*
X37966000Y-38216000D01*
X38006000Y-27971000D02*
X38006000Y-38179000D01*
X38046000Y-28009000D02*
X38046000Y-38141000D01*
X38086000Y-28048000D02*
X38086000Y-38102000D01*
X38126000Y-28088000D02*
X38126000Y-38062000D01*
X38166000Y-28128000D02*
X38166000Y-38022000D01*
X38206000Y-28169000D02*
X38206000Y-37981000D01*
X38246000Y-28210000D02*
X38246000Y-37940000D01*
X38286000Y-28252000D02*
X38286000Y-37898000D01*
X38326000Y-28295000D02*
X38326000Y-37855000D01*
X38366000Y-28338000D02*
X38366000Y-37812000D01*
X38406000Y-28383000D02*
X38406000Y-37767000D01*
X38446000Y-28428000D02*
X38446000Y-37722000D01*
X38486000Y-28474000D02*
X38486000Y-37676000D01*
X38526000Y-28520000D02*
X38526000Y-37630000D01*
X38566000Y-28568000D02*
X38566000Y-37582000D01*
X38606000Y-28616000D02*
X38606000Y-37534000D01*
X38646000Y-28665000D02*
X38646000Y-37485000D01*
X38686000Y-28715000D02*
X38686000Y-37435000D01*
X38726000Y-28766000D02*
X38726000Y-37384000D01*
X38766000Y-28818000D02*
X38766000Y-37332000D01*
X38806000Y-28871000D02*
X38806000Y-37279000D01*
X38846000Y-28925000D02*
X38846000Y-37225000D01*
X38886000Y-28980000D02*
X38886000Y-37170000D01*
X38926000Y-29037000D02*
X38926000Y-37113000D01*
X38966000Y-29094000D02*
X38966000Y-37056000D01*
X39006000Y-29153000D02*
X39006000Y-36997000D01*
X39046000Y-29213000D02*
X39046000Y-36937000D01*
X39086000Y-29274000D02*
X39086000Y-36876000D01*
X39126000Y-29337000D02*
X39126000Y-36813000D01*
X39166000Y-29401000D02*
X39166000Y-36749000D01*
X39206000Y-29467000D02*
X39206000Y-36683000D01*
X39246000Y-29535000D02*
X39246000Y-36615000D01*
X39286000Y-29604000D02*
X39286000Y-36546000D01*
X39326000Y-29675000D02*
X39326000Y-36475000D01*
X39366000Y-29748000D02*
X39366000Y-36402000D01*
X39406000Y-29824000D02*
X39406000Y-36326000D01*
X39446000Y-29901000D02*
X39446000Y-36249000D01*
X39486000Y-29981000D02*
X39486000Y-36169000D01*
X39526000Y-30064000D02*
X39526000Y-36086000D01*
X39566000Y-30149000D02*
X39566000Y-36001000D01*
X39606000Y-30237000D02*
X39606000Y-35913000D01*
X39646000Y-30329000D02*
X39646000Y-35821000D01*
X39686000Y-30425000D02*
X39686000Y-35725000D01*
X39726000Y-30525000D02*
X39726000Y-35625000D01*
X39766000Y-30629000D02*
X39766000Y-35521000D01*
X39806000Y-30738000D02*
X39806000Y-35412000D01*
X39846000Y-30854000D02*
X39846000Y-35296000D01*
X39886000Y-30977000D02*
X39886000Y-35173000D01*
X39926000Y-31107000D02*
X39926000Y-35043000D01*
X39966000Y-31248000D02*
X39966000Y-34902000D01*
X40006000Y-31402000D02*
X40006000Y-34748000D01*
X40046000Y-31571000D02*
X40046000Y-34579000D01*
X40086000Y-31763000D02*
X40086000Y-34387000D01*
X40126000Y-31988000D02*
X40126000Y-34162000D01*
X40166000Y-32274000D02*
X40166000Y-33876000D01*
X40206000Y-32738000D02*
X40206000Y-33412000D01*
X28425000Y-35725000D02*
X30225000Y-35725000D01*
X29325000Y-34825000D02*
X29325000Y-36625000D01*
X80360000Y-23835000D02*
X81690000Y-23835000D01*
X80360000Y-25165000D02*
X80360000Y-23835000D01*
X80360000Y-26435000D02*
X83020000Y-26435000D01*
X83020000Y-26435000D02*
X83020000Y-31575000D01*
X80360000Y-26435000D02*
X80360000Y-31575000D01*
X80360000Y-31575000D02*
X83020000Y-31575000D01*
X73375000Y-23835000D02*
X74705000Y-23835000D01*
X73375000Y-25165000D02*
X73375000Y-23835000D01*
X73375000Y-26435000D02*
X76035000Y-26435000D01*
X76035000Y-26435000D02*
X76035000Y-31575000D01*
X73375000Y-26435000D02*
X73375000Y-31575000D01*
X73375000Y-31575000D02*
X76035000Y-31575000D01*
X106350000Y-32380000D02*
X85490000Y-32380000D01*
X85490000Y-32380000D02*
X85490000Y-23030000D01*
X85490000Y-23030000D02*
X106350000Y-23030000D01*
X106350000Y-23030000D02*
X106350000Y-32380000D01*
X106600000Y-22780000D02*
X104060000Y-22780000D01*
X106600000Y-22780000D02*
X106600000Y-25320000D01*
X119970000Y-96300000D02*
X119970000Y-96800000D01*
X121030000Y-96800000D02*
X121030000Y-96300000D01*
X119800000Y-101300000D02*
X119800000Y-98500000D01*
X121200000Y-101300000D02*
X121200000Y-98500000D01*
X119800000Y-101300000D02*
X121200000Y-101300000D01*
X109370000Y-35830000D02*
X109370000Y-33170000D01*
X106770000Y-35830000D02*
X109370000Y-35830000D01*
X106770000Y-33170000D02*
X109370000Y-33170000D01*
X106770000Y-35830000D02*
X106770000Y-33170000D01*
X105500000Y-35830000D02*
X104170000Y-35830000D01*
X104170000Y-35830000D02*
X104170000Y-34500000D01*
X60646500Y-36979000D02*
X61146500Y-36979000D01*
X61146500Y-35919000D02*
X60646500Y-35919000D01*
X60646500Y-37931500D02*
X61146500Y-37931500D01*
X61146500Y-36871500D02*
X60646500Y-36871500D01*
X60646500Y-38884000D02*
X61146500Y-38884000D01*
X61146500Y-37824000D02*
X60646500Y-37824000D01*
X60646500Y-39836500D02*
X61146500Y-39836500D01*
X61146500Y-38776500D02*
X60646500Y-38776500D01*
X61146500Y-39729000D02*
X60646500Y-39729000D01*
X60646500Y-40789000D02*
X61146500Y-40789000D01*
X61146500Y-40681500D02*
X60646500Y-40681500D01*
X60646500Y-41741500D02*
X61146500Y-41741500D01*
X61146500Y-41697500D02*
X60646500Y-41697500D01*
X60646500Y-42757500D02*
X61146500Y-42757500D01*
X61146500Y-42650000D02*
X60646500Y-42650000D01*
X60646500Y-43710000D02*
X61146500Y-43710000D01*
X111770000Y-25920000D02*
X111270000Y-25920000D01*
X111270000Y-26980000D02*
X111770000Y-26980000D01*
X100530000Y-98750000D02*
X100530000Y-98250000D01*
X99470000Y-98250000D02*
X99470000Y-98750000D01*
X97030000Y-98750000D02*
X97030000Y-98250000D01*
X95970000Y-98250000D02*
X95970000Y-98750000D01*
X93530000Y-98750000D02*
X93530000Y-98250000D01*
X92470000Y-98250000D02*
X92470000Y-98750000D01*
X90030000Y-98750000D02*
X90030000Y-98250000D01*
X88970000Y-98250000D02*
X88970000Y-98750000D01*
X81500000Y-35460000D02*
X81500000Y-34960000D01*
X80560000Y-34960000D02*
X80560000Y-35460000D01*
X55100000Y-32420000D02*
X55600000Y-32420000D01*
X55600000Y-31480000D02*
X55100000Y-31480000D01*
X56963500Y-36919000D02*
X57463500Y-36919000D01*
X57463500Y-35979000D02*
X56963500Y-35979000D01*
X56963500Y-37871500D02*
X57463500Y-37871500D01*
X57463500Y-36931500D02*
X56963500Y-36931500D01*
X56963500Y-38824000D02*
X57463500Y-38824000D01*
X57463500Y-37884000D02*
X56963500Y-37884000D01*
X56963500Y-39776500D02*
X57463500Y-39776500D01*
X57463500Y-38836500D02*
X56963500Y-38836500D01*
X56963500Y-40729000D02*
X57463500Y-40729000D01*
X57463500Y-39789000D02*
X56963500Y-39789000D01*
X56963500Y-41681500D02*
X57463500Y-41681500D01*
X57463500Y-40741500D02*
X56963500Y-40741500D01*
X56963500Y-42697500D02*
X57463500Y-42697500D01*
X57463500Y-41757500D02*
X56963500Y-41757500D01*
X56963500Y-43650000D02*
X57463500Y-43650000D01*
X57463500Y-42710000D02*
X56963500Y-42710000D01*
X104780000Y-79400000D02*
X105280000Y-79400000D01*
X105280000Y-78460000D02*
X104780000Y-78460000D01*
X42750000Y-81920000D02*
X43250000Y-81920000D01*
X43250000Y-80980000D02*
X42750000Y-80980000D01*
X56500000Y-77820000D02*
X57000000Y-77820000D01*
X57000000Y-76880000D02*
X56500000Y-76880000D01*
X32380000Y-71600000D02*
X32380000Y-72100000D01*
X33320000Y-72100000D02*
X33320000Y-71600000D01*
X48300000Y-80980000D02*
X47800000Y-80980000D01*
X47800000Y-81920000D02*
X48300000Y-81920000D01*
X51200000Y-77770000D02*
X51700000Y-77770000D01*
X51700000Y-76830000D02*
X51200000Y-76830000D01*
X40700000Y-69680000D02*
X40200000Y-69680000D01*
X40200000Y-70620000D02*
X40700000Y-70620000D01*
X49130000Y-43600000D02*
X49130000Y-44100000D01*
X50070000Y-44100000D02*
X50070000Y-43600000D01*
D11*
X53555000Y-37758000D02*
X53555000Y-33108000D01*
X45455000Y-38833000D02*
X45455000Y-33108000D01*
X53555000Y-37758000D02*
X53530000Y-37758000D01*
X53555000Y-33108000D02*
X53530000Y-33108000D01*
X45505000Y-33108000D02*
X45530000Y-33108000D01*
X56109500Y-68619000D02*
X51459500Y-68619000D01*
X57184500Y-76719000D02*
X51459500Y-76719000D01*
X56109500Y-68619000D02*
X56109500Y-68644000D01*
X51459500Y-68619000D02*
X51459500Y-68644000D01*
X51459500Y-76669000D02*
X51459500Y-76644000D01*
D10*
X121410000Y-65900000D02*
X121410000Y-71910000D01*
X114590000Y-68150000D02*
X114590000Y-71910000D01*
X121410000Y-71910000D02*
X120150000Y-71910000D01*
X114590000Y-71910000D02*
X115850000Y-71910000D01*
X121410000Y-43900000D02*
X121410000Y-49910000D01*
X114590000Y-46150000D02*
X114590000Y-49910000D01*
X121410000Y-49910000D02*
X120150000Y-49910000D01*
X114590000Y-49910000D02*
X115850000Y-49910000D01*
X121410000Y-54900000D02*
X121410000Y-60910000D01*
X114590000Y-57150000D02*
X114590000Y-60910000D01*
X121410000Y-60910000D02*
X120150000Y-60910000D01*
X114590000Y-60910000D02*
X115850000Y-60910000D01*
D11*
X91008500Y-75184000D02*
X91008500Y-68834000D01*
X76683500Y-76259000D02*
X76683500Y-68834000D01*
X91008500Y-75184000D02*
X91001000Y-75184000D01*
X91008500Y-68834000D02*
X91001000Y-68834000D01*
X76758500Y-68834000D02*
X76766000Y-68834000D01*
X35013000Y-78828000D02*
X39663000Y-78828000D01*
X33938000Y-70728000D02*
X39663000Y-70728000D01*
X35013000Y-78828000D02*
X35013000Y-78803000D01*
X39663000Y-78828000D02*
X39663000Y-78803000D01*
X39663000Y-70778000D02*
X39663000Y-70803000D01*
X43014000Y-90131000D02*
X47664000Y-90131000D01*
X41939000Y-82031000D02*
X47664000Y-82031000D01*
X43014000Y-90131000D02*
X43014000Y-90106000D01*
X47664000Y-90131000D02*
X47664000Y-90106000D01*
X47664000Y-82081000D02*
X47664000Y-82106000D01*
X42823500Y-50824500D02*
X47473500Y-50824500D01*
X41748500Y-42724500D02*
X47473500Y-42724500D01*
X42823500Y-50824500D02*
X42823500Y-50799500D01*
X47473500Y-50824500D02*
X47473500Y-50799500D01*
X47473500Y-42774500D02*
X47473500Y-42799500D01*
D10*
X35910000Y-96225000D02*
X35910000Y-101425000D01*
X56290000Y-96225000D02*
X35910000Y-96225000D01*
X58890000Y-101425000D02*
X35910000Y-101425000D01*
X56290000Y-96225000D02*
X56290000Y-98825000D01*
X56290000Y-98825000D02*
X58890000Y-98825000D01*
X58890000Y-98825000D02*
X58890000Y-101425000D01*
X57560000Y-96225000D02*
X58890000Y-96225000D01*
X58890000Y-96225000D02*
X58890000Y-97555000D01*
X120400000Y-32420000D02*
X121020000Y-32420000D01*
X120400000Y-30820000D02*
X120400000Y-32420000D01*
X121020000Y-30820000D02*
X120400000Y-30820000D01*
X120400000Y-29880000D02*
X121020000Y-29880000D01*
X120400000Y-28280000D02*
X120400000Y-29880000D01*
X121020000Y-28280000D02*
X120400000Y-28280000D01*
X120400000Y-27340000D02*
X121020000Y-27340000D01*
X120400000Y-25740000D02*
X120400000Y-27340000D01*
X121020000Y-25740000D02*
X120400000Y-25740000D01*
X120400000Y-24800000D02*
X121020000Y-24800000D01*
X120400000Y-23200000D02*
X120400000Y-24800000D01*
X121020000Y-23200000D02*
X120400000Y-23200000D01*
X115020000Y-31370000D02*
X116020000Y-31370000D01*
X115020000Y-24250000D02*
X116020000Y-24250000D01*
X116450000Y-31370000D02*
X116020000Y-31620000D01*
X116450000Y-24250000D02*
X116450000Y-31370000D01*
X116020000Y-24000000D02*
X116450000Y-24250000D01*
X116020000Y-31620000D02*
X115020000Y-31620000D01*
X116020000Y-24000000D02*
X116020000Y-31620000D01*
X115020000Y-24000000D02*
X116020000Y-24000000D01*
X121020000Y-32990000D02*
X121020000Y-22630000D01*
X115020000Y-32990000D02*
X121020000Y-32990000D01*
X115020000Y-22630000D02*
X115020000Y-32990000D01*
X121020000Y-22630000D02*
X115020000Y-22630000D01*
D11*
X78875000Y-47825000D02*
X78875000Y-54175000D01*
X93200000Y-46750000D02*
X93200000Y-54175000D01*
X78875000Y-47825000D02*
X78882500Y-47825000D01*
X78875000Y-54175000D02*
X78882500Y-54175000D01*
X93125000Y-54175000D02*
X93117500Y-54175000D01*
X82770711Y-33550000D02*
G75*
G03X82770711Y-33550000I-70711J0D01*
G01*
X83950000Y-32750000D02*
X81850000Y-32750000D01*
X81850000Y-32750000D02*
X81850000Y-33150000D01*
X83550000Y-36250000D02*
X82450000Y-36250000D01*
D10*
X99950000Y-35830000D02*
X99950000Y-33170000D01*
X92270000Y-35830000D02*
X99950000Y-35830000D01*
X92270000Y-33170000D02*
X99950000Y-33170000D01*
X92270000Y-35830000D02*
X92270000Y-33170000D01*
X91000000Y-35830000D02*
X89670000Y-35830000D01*
X89670000Y-35830000D02*
X89670000Y-34500000D01*
X88110000Y-35400000D02*
X88110000Y-33600000D01*
X84890000Y-33600000D02*
X84890000Y-36050000D01*
D11*
X92475000Y-91175000D02*
X92475000Y-95825000D01*
X100575000Y-90100000D02*
X100575000Y-95825000D01*
X92475000Y-91175000D02*
X92500000Y-91175000D01*
X92475000Y-95825000D02*
X92500000Y-95825000D01*
X100525000Y-95825000D02*
X100500000Y-95825000D01*
X101475000Y-91175000D02*
X101475000Y-95825000D01*
X109575000Y-90100000D02*
X109575000Y-95825000D01*
X101475000Y-91175000D02*
X101500000Y-91175000D01*
X101475000Y-95825000D02*
X101500000Y-95825000D01*
X109525000Y-95825000D02*
X109500000Y-95825000D01*
D10*
X108770000Y-27730000D02*
X112230000Y-27730000D01*
X108770000Y-31490000D02*
X112230000Y-31490000D01*
X97800000Y-101300000D02*
X97800000Y-98500000D01*
X99200000Y-101300000D02*
X99200000Y-98500000D01*
X97800000Y-101300000D02*
X99200000Y-101300000D01*
X94300000Y-101300000D02*
X94300000Y-98500000D01*
X95700000Y-101300000D02*
X95700000Y-98500000D01*
X94300000Y-101300000D02*
X95700000Y-101300000D01*
X90800000Y-101300000D02*
X90800000Y-98500000D01*
X92200000Y-101300000D02*
X92200000Y-98500000D01*
X90800000Y-101300000D02*
X92200000Y-101300000D01*
X87300000Y-101270000D02*
X87300000Y-98470000D01*
X88700000Y-101270000D02*
X88700000Y-98470000D01*
X87300000Y-101270000D02*
X88700000Y-101270000D01*
X118260000Y-75440000D02*
X117260000Y-75440000D01*
X117260000Y-77140000D02*
X118260000Y-77140000D01*
X118840000Y-63790000D02*
X117840000Y-63790000D01*
X117840000Y-65490000D02*
X118840000Y-65490000D01*
X113150000Y-22510000D02*
X110700000Y-22510000D01*
X111350000Y-25730000D02*
X113150000Y-25730000D01*
D11*
X50215476Y-30702380D02*
X50215476Y-31416666D01*
X50167857Y-31559523D01*
X50072619Y-31654761D01*
X49929761Y-31702380D01*
X49834523Y-31702380D01*
X50596428Y-30702380D02*
X51215476Y-30702380D01*
X50882142Y-31083333D01*
X51025000Y-31083333D01*
X51120238Y-31130952D01*
X51167857Y-31178571D01*
X51215476Y-31273809D01*
X51215476Y-31511904D01*
X51167857Y-31607142D01*
X51120238Y-31654761D01*
X51025000Y-31702380D01*
X50739285Y-31702380D01*
X50644047Y-31654761D01*
X50596428Y-31607142D01*
X52167857Y-31702380D02*
X51596428Y-31702380D01*
X51882142Y-31702380D02*
X51882142Y-30702380D01*
X51786904Y-30845238D01*
X51691666Y-30940476D01*
X51596428Y-30988095D01*
X25201904Y-43502380D02*
X25201904Y-44311904D01*
X25249523Y-44407142D01*
X25297142Y-44454761D01*
X25392380Y-44502380D01*
X25582857Y-44502380D01*
X25678095Y-44454761D01*
X25725714Y-44407142D01*
X25773333Y-44311904D01*
X25773333Y-43502380D01*
X26297142Y-44502380D02*
X26487619Y-44502380D01*
X26582857Y-44454761D01*
X26630476Y-44407142D01*
X26725714Y-44264285D01*
X26773333Y-44073809D01*
X26773333Y-43692857D01*
X26725714Y-43597619D01*
X26678095Y-43550000D01*
X26582857Y-43502380D01*
X26392380Y-43502380D01*
X26297142Y-43550000D01*
X26249523Y-43597619D01*
X26201904Y-43692857D01*
X26201904Y-43930952D01*
X26249523Y-44026190D01*
X26297142Y-44073809D01*
X26392380Y-44121428D01*
X26582857Y-44121428D01*
X26678095Y-44073809D01*
X26725714Y-44026190D01*
X26773333Y-43930952D01*
X27725714Y-44502380D02*
X27154285Y-44502380D01*
X27440000Y-44502380D02*
X27440000Y-43502380D01*
X27344761Y-43645238D01*
X27249523Y-43740476D01*
X27154285Y-43788095D01*
X114402380Y-41919523D02*
X115116666Y-41919523D01*
X115259523Y-41967142D01*
X115354761Y-42062380D01*
X115402380Y-42205238D01*
X115402380Y-42300476D01*
X114402380Y-40967142D02*
X114402380Y-41443333D01*
X114878571Y-41490952D01*
X114830952Y-41443333D01*
X114783333Y-41348095D01*
X114783333Y-41110000D01*
X114830952Y-41014761D01*
X114878571Y-40967142D01*
X114973809Y-40919523D01*
X115211904Y-40919523D01*
X115307142Y-40967142D01*
X115354761Y-41014761D01*
X115402380Y-41110000D01*
X115402380Y-41348095D01*
X115354761Y-41443333D01*
X115307142Y-41490952D01*
X115402380Y-39967142D02*
X115402380Y-40538571D01*
X115402380Y-40252857D02*
X114402380Y-40252857D01*
X114545238Y-40348095D01*
X114640476Y-40443333D01*
X114688095Y-40538571D01*
X76238095Y-65452380D02*
X76238095Y-66261904D01*
X76285714Y-66357142D01*
X76333333Y-66404761D01*
X76428571Y-66452380D01*
X76619047Y-66452380D01*
X76714285Y-66404761D01*
X76761904Y-66357142D01*
X76809523Y-66261904D01*
X76809523Y-65452380D01*
X77428571Y-65880952D02*
X77333333Y-65833333D01*
X77285714Y-65785714D01*
X77238095Y-65690476D01*
X77238095Y-65642857D01*
X77285714Y-65547619D01*
X77333333Y-65500000D01*
X77428571Y-65452380D01*
X77619047Y-65452380D01*
X77714285Y-65500000D01*
X77761904Y-65547619D01*
X77809523Y-65642857D01*
X77809523Y-65690476D01*
X77761904Y-65785714D01*
X77714285Y-65833333D01*
X77619047Y-65880952D01*
X77428571Y-65880952D01*
X77333333Y-65928571D01*
X77285714Y-65976190D01*
X77238095Y-66071428D01*
X77238095Y-66261904D01*
X77285714Y-66357142D01*
X77333333Y-66404761D01*
X77428571Y-66452380D01*
X77619047Y-66452380D01*
X77714285Y-66404761D01*
X77761904Y-66357142D01*
X77809523Y-66261904D01*
X77809523Y-66071428D01*
X77761904Y-65976190D01*
X77714285Y-65928571D01*
X77619047Y-65880952D01*
X91977142Y-76372380D02*
X91500952Y-76372380D01*
X91500952Y-75372380D01*
X92310476Y-76372380D02*
X92310476Y-75372380D01*
X92881904Y-76372380D02*
X92453333Y-75800952D01*
X92881904Y-75372380D02*
X92310476Y-75943809D01*
X93358095Y-76372380D02*
X93548571Y-76372380D01*
X93643809Y-76324761D01*
X93691428Y-76277142D01*
X93786666Y-76134285D01*
X93834285Y-75943809D01*
X93834285Y-75562857D01*
X93786666Y-75467619D01*
X93739047Y-75420000D01*
X93643809Y-75372380D01*
X93453333Y-75372380D01*
X93358095Y-75420000D01*
X93310476Y-75467619D01*
X93262857Y-75562857D01*
X93262857Y-75800952D01*
X93310476Y-75896190D01*
X93358095Y-75943809D01*
X93453333Y-75991428D01*
X93643809Y-75991428D01*
X93739047Y-75943809D01*
X93786666Y-75896190D01*
X93834285Y-75800952D01*
X94786666Y-76372380D02*
X94215238Y-76372380D01*
X94500952Y-76372380D02*
X94500952Y-75372380D01*
X94405714Y-75515238D01*
X94310476Y-75610476D01*
X94215238Y-75658095D01*
X30222380Y-49692857D02*
X29746190Y-50026190D01*
X30222380Y-50264285D02*
X29222380Y-50264285D01*
X29222380Y-49883333D01*
X29270000Y-49788095D01*
X29317619Y-49740476D01*
X29412857Y-49692857D01*
X29555714Y-49692857D01*
X29650952Y-49740476D01*
X29698571Y-49788095D01*
X29746190Y-49883333D01*
X29746190Y-50264285D01*
X30222380Y-49216666D02*
X30222380Y-49026190D01*
X30174761Y-48930952D01*
X30127142Y-48883333D01*
X29984285Y-48788095D01*
X29793809Y-48740476D01*
X29412857Y-48740476D01*
X29317619Y-48788095D01*
X29270000Y-48835714D01*
X29222380Y-48930952D01*
X29222380Y-49121428D01*
X29270000Y-49216666D01*
X29317619Y-49264285D01*
X29412857Y-49311904D01*
X29650952Y-49311904D01*
X29746190Y-49264285D01*
X29793809Y-49216666D01*
X29841428Y-49121428D01*
X29841428Y-48930952D01*
X29793809Y-48835714D01*
X29746190Y-48788095D01*
X29650952Y-48740476D01*
X29222380Y-47835714D02*
X29222380Y-48311904D01*
X29698571Y-48359523D01*
X29650952Y-48311904D01*
X29603333Y-48216666D01*
X29603333Y-47978571D01*
X29650952Y-47883333D01*
X29698571Y-47835714D01*
X29793809Y-47788095D01*
X30031904Y-47788095D01*
X30127142Y-47835714D01*
X30174761Y-47883333D01*
X30222380Y-47978571D01*
X30222380Y-48216666D01*
X30174761Y-48311904D01*
X30127142Y-48359523D01*
X68180476Y-35412380D02*
X68180476Y-36126666D01*
X68132857Y-36269523D01*
X68037619Y-36364761D01*
X67894761Y-36412380D01*
X67799523Y-36412380D01*
X69085238Y-35745714D02*
X69085238Y-36412380D01*
X68847142Y-35364761D02*
X68609047Y-36079047D01*
X69228095Y-36079047D01*
X70132857Y-36412380D02*
X69561428Y-36412380D01*
X69847142Y-36412380D02*
X69847142Y-35412380D01*
X69751904Y-35555238D01*
X69656666Y-35650476D01*
X69561428Y-35698095D01*
X63635095Y-26147214D02*
X63635095Y-27147214D01*
X64111285Y-26671023D02*
X64158904Y-26766261D01*
X64254142Y-26813880D01*
X63635095Y-26671023D02*
X63682714Y-26766261D01*
X63777952Y-26813880D01*
X63968428Y-26813880D01*
X64063666Y-26766261D01*
X64111285Y-26671023D01*
X64111285Y-26147214D01*
X64635095Y-26766261D02*
X64777952Y-26813880D01*
X65016047Y-26813880D01*
X65111285Y-26766261D01*
X65158904Y-26718642D01*
X65206523Y-26623404D01*
X65206523Y-26528166D01*
X65158904Y-26432928D01*
X65111285Y-26385309D01*
X65016047Y-26337690D01*
X64825571Y-26290071D01*
X64730333Y-26242452D01*
X64682714Y-26194833D01*
X64635095Y-26099595D01*
X64635095Y-26004357D01*
X64682714Y-25909119D01*
X64730333Y-25861500D01*
X64825571Y-25813880D01*
X65063666Y-25813880D01*
X65206523Y-25861500D01*
X65635095Y-26813880D02*
X65635095Y-25813880D01*
X65873190Y-25813880D01*
X66016047Y-25861500D01*
X66111285Y-25956738D01*
X66158904Y-26051976D01*
X66206523Y-26242452D01*
X66206523Y-26385309D01*
X66158904Y-26575785D01*
X66111285Y-26671023D01*
X66016047Y-26766261D01*
X65873190Y-26813880D01*
X65635095Y-26813880D01*
X116982380Y-42219523D02*
X117696666Y-42219523D01*
X117839523Y-42267142D01*
X117934761Y-42362380D01*
X117982380Y-42505238D01*
X117982380Y-42600476D01*
X117982380Y-41695714D02*
X117982380Y-41505238D01*
X117934761Y-41410000D01*
X117887142Y-41362380D01*
X117744285Y-41267142D01*
X117553809Y-41219523D01*
X117172857Y-41219523D01*
X117077619Y-41267142D01*
X117030000Y-41314761D01*
X116982380Y-41410000D01*
X116982380Y-41600476D01*
X117030000Y-41695714D01*
X117077619Y-41743333D01*
X117172857Y-41790952D01*
X117410952Y-41790952D01*
X117506190Y-41743333D01*
X117553809Y-41695714D01*
X117601428Y-41600476D01*
X117601428Y-41410000D01*
X117553809Y-41314761D01*
X117506190Y-41267142D01*
X117410952Y-41219523D01*
X117982380Y-40267142D02*
X117982380Y-40838571D01*
X117982380Y-40552857D02*
X116982380Y-40552857D01*
X117125238Y-40648095D01*
X117220476Y-40743333D01*
X117268095Y-40838571D01*
X104287142Y-48497142D02*
X104239523Y-48544761D01*
X104096666Y-48592380D01*
X104001428Y-48592380D01*
X103858571Y-48544761D01*
X103763333Y-48449523D01*
X103715714Y-48354285D01*
X103668095Y-48163809D01*
X103668095Y-48020952D01*
X103715714Y-47830476D01*
X103763333Y-47735238D01*
X103858571Y-47640000D01*
X104001428Y-47592380D01*
X104096666Y-47592380D01*
X104239523Y-47640000D01*
X104287142Y-47687619D01*
X104668095Y-47687619D02*
X104715714Y-47640000D01*
X104810952Y-47592380D01*
X105049047Y-47592380D01*
X105144285Y-47640000D01*
X105191904Y-47687619D01*
X105239523Y-47782857D01*
X105239523Y-47878095D01*
X105191904Y-48020952D01*
X104620476Y-48592380D01*
X105239523Y-48592380D01*
X105572857Y-47592380D02*
X106191904Y-47592380D01*
X105858571Y-47973333D01*
X106001428Y-47973333D01*
X106096666Y-48020952D01*
X106144285Y-48068571D01*
X106191904Y-48163809D01*
X106191904Y-48401904D01*
X106144285Y-48497142D01*
X106096666Y-48544761D01*
X106001428Y-48592380D01*
X105715714Y-48592380D01*
X105620476Y-48544761D01*
X105572857Y-48497142D01*
X114027142Y-53627142D02*
X113979523Y-53674761D01*
X113836666Y-53722380D01*
X113741428Y-53722380D01*
X113598571Y-53674761D01*
X113503333Y-53579523D01*
X113455714Y-53484285D01*
X113408095Y-53293809D01*
X113408095Y-53150952D01*
X113455714Y-52960476D01*
X113503333Y-52865238D01*
X113598571Y-52770000D01*
X113741428Y-52722380D01*
X113836666Y-52722380D01*
X113979523Y-52770000D01*
X114027142Y-52817619D01*
X114503333Y-53722380D02*
X114693809Y-53722380D01*
X114789047Y-53674761D01*
X114836666Y-53627142D01*
X114931904Y-53484285D01*
X114979523Y-53293809D01*
X114979523Y-52912857D01*
X114931904Y-52817619D01*
X114884285Y-52770000D01*
X114789047Y-52722380D01*
X114598571Y-52722380D01*
X114503333Y-52770000D01*
X114455714Y-52817619D01*
X114408095Y-52912857D01*
X114408095Y-53150952D01*
X114455714Y-53246190D01*
X114503333Y-53293809D01*
X114598571Y-53341428D01*
X114789047Y-53341428D01*
X114884285Y-53293809D01*
X114931904Y-53246190D01*
X114979523Y-53150952D01*
X115312857Y-52722380D02*
X115931904Y-52722380D01*
X115598571Y-53103333D01*
X115741428Y-53103333D01*
X115836666Y-53150952D01*
X115884285Y-53198571D01*
X115931904Y-53293809D01*
X115931904Y-53531904D01*
X115884285Y-53627142D01*
X115836666Y-53674761D01*
X115741428Y-53722380D01*
X115455714Y-53722380D01*
X115360476Y-53674761D01*
X115312857Y-53627142D01*
X115162380Y-27712857D02*
X114686190Y-28046190D01*
X115162380Y-28284285D02*
X114162380Y-28284285D01*
X114162380Y-27903333D01*
X114210000Y-27808095D01*
X114257619Y-27760476D01*
X114352857Y-27712857D01*
X114495714Y-27712857D01*
X114590952Y-27760476D01*
X114638571Y-27808095D01*
X114686190Y-27903333D01*
X114686190Y-28284285D01*
X115162380Y-27236666D02*
X115162380Y-27046190D01*
X115114761Y-26950952D01*
X115067142Y-26903333D01*
X114924285Y-26808095D01*
X114733809Y-26760476D01*
X114352857Y-26760476D01*
X114257619Y-26808095D01*
X114210000Y-26855714D01*
X114162380Y-26950952D01*
X114162380Y-27141428D01*
X114210000Y-27236666D01*
X114257619Y-27284285D01*
X114352857Y-27331904D01*
X114590952Y-27331904D01*
X114686190Y-27284285D01*
X114733809Y-27236666D01*
X114781428Y-27141428D01*
X114781428Y-26950952D01*
X114733809Y-26855714D01*
X114686190Y-26808095D01*
X114590952Y-26760476D01*
X114257619Y-26379523D02*
X114210000Y-26331904D01*
X114162380Y-26236666D01*
X114162380Y-25998571D01*
X114210000Y-25903333D01*
X114257619Y-25855714D01*
X114352857Y-25808095D01*
X114448095Y-25808095D01*
X114590952Y-25855714D01*
X115162380Y-26427142D01*
X115162380Y-25808095D01*
X80157142Y-36232857D02*
X80204761Y-36280476D01*
X80252380Y-36423333D01*
X80252380Y-36518571D01*
X80204761Y-36661428D01*
X80109523Y-36756666D01*
X80014285Y-36804285D01*
X79823809Y-36851904D01*
X79680952Y-36851904D01*
X79490476Y-36804285D01*
X79395238Y-36756666D01*
X79300000Y-36661428D01*
X79252380Y-36518571D01*
X79252380Y-36423333D01*
X79300000Y-36280476D01*
X79347619Y-36232857D01*
X80252380Y-35756666D02*
X80252380Y-35566190D01*
X80204761Y-35470952D01*
X80157142Y-35423333D01*
X80014285Y-35328095D01*
X79823809Y-35280476D01*
X79442857Y-35280476D01*
X79347619Y-35328095D01*
X79300000Y-35375714D01*
X79252380Y-35470952D01*
X79252380Y-35661428D01*
X79300000Y-35756666D01*
X79347619Y-35804285D01*
X79442857Y-35851904D01*
X79680952Y-35851904D01*
X79776190Y-35804285D01*
X79823809Y-35756666D01*
X79871428Y-35661428D01*
X79871428Y-35470952D01*
X79823809Y-35375714D01*
X79776190Y-35328095D01*
X79680952Y-35280476D01*
X79252380Y-34423333D02*
X79252380Y-34613809D01*
X79300000Y-34709047D01*
X79347619Y-34756666D01*
X79490476Y-34851904D01*
X79680952Y-34899523D01*
X80061904Y-34899523D01*
X80157142Y-34851904D01*
X80204761Y-34804285D01*
X80252380Y-34709047D01*
X80252380Y-34518571D01*
X80204761Y-34423333D01*
X80157142Y-34375714D01*
X80061904Y-34328095D01*
X79823809Y-34328095D01*
X79728571Y-34375714D01*
X79680952Y-34423333D01*
X79633333Y-34518571D01*
X79633333Y-34709047D01*
X79680952Y-34804285D01*
X79728571Y-34851904D01*
X79823809Y-34899523D01*
X72322380Y-36325714D02*
X73322380Y-35659047D01*
X72322380Y-35659047D02*
X73322380Y-36325714D01*
X73322380Y-35230476D02*
X73322380Y-35040000D01*
X73274761Y-34944761D01*
X73227142Y-34897142D01*
X73084285Y-34801904D01*
X72893809Y-34754285D01*
X72512857Y-34754285D01*
X72417619Y-34801904D01*
X72370000Y-34849523D01*
X72322380Y-34944761D01*
X72322380Y-35135238D01*
X72370000Y-35230476D01*
X72417619Y-35278095D01*
X72512857Y-35325714D01*
X72750952Y-35325714D01*
X72846190Y-35278095D01*
X72893809Y-35230476D01*
X72941428Y-35135238D01*
X72941428Y-34944761D01*
X72893809Y-34849523D01*
X72846190Y-34801904D01*
X72750952Y-34754285D01*
X72322380Y-33897142D02*
X72322380Y-34087619D01*
X72370000Y-34182857D01*
X72417619Y-34230476D01*
X72560476Y-34325714D01*
X72750952Y-34373333D01*
X73131904Y-34373333D01*
X73227142Y-34325714D01*
X73274761Y-34278095D01*
X73322380Y-34182857D01*
X73322380Y-33992380D01*
X73274761Y-33897142D01*
X73227142Y-33849523D01*
X73131904Y-33801904D01*
X72893809Y-33801904D01*
X72798571Y-33849523D01*
X72750952Y-33897142D01*
X72703333Y-33992380D01*
X72703333Y-34182857D01*
X72750952Y-34278095D01*
X72798571Y-34325714D01*
X72893809Y-34373333D01*
X72267142Y-32692380D02*
X71933809Y-32216190D01*
X71695714Y-32692380D02*
X71695714Y-31692380D01*
X72076666Y-31692380D01*
X72171904Y-31740000D01*
X72219523Y-31787619D01*
X72267142Y-31882857D01*
X72267142Y-32025714D01*
X72219523Y-32120952D01*
X72171904Y-32168571D01*
X72076666Y-32216190D01*
X71695714Y-32216190D01*
X72743333Y-32692380D02*
X72933809Y-32692380D01*
X73029047Y-32644761D01*
X73076666Y-32597142D01*
X73171904Y-32454285D01*
X73219523Y-32263809D01*
X73219523Y-31882857D01*
X73171904Y-31787619D01*
X73124285Y-31740000D01*
X73029047Y-31692380D01*
X72838571Y-31692380D01*
X72743333Y-31740000D01*
X72695714Y-31787619D01*
X72648095Y-31882857D01*
X72648095Y-32120952D01*
X72695714Y-32216190D01*
X72743333Y-32263809D01*
X72838571Y-32311428D01*
X73029047Y-32311428D01*
X73124285Y-32263809D01*
X73171904Y-32216190D01*
X73219523Y-32120952D01*
X74076666Y-32025714D02*
X74076666Y-32692380D01*
X73838571Y-31644761D02*
X73600476Y-32359047D01*
X74219523Y-32359047D01*
X94636904Y-63577380D02*
X94636904Y-64386904D01*
X94684523Y-64482142D01*
X94732142Y-64529761D01*
X94827380Y-64577380D01*
X95017857Y-64577380D01*
X95113095Y-64529761D01*
X95160714Y-64482142D01*
X95208333Y-64386904D01*
X95208333Y-63577380D01*
X95636904Y-63672619D02*
X95684523Y-63625000D01*
X95779761Y-63577380D01*
X96017857Y-63577380D01*
X96113095Y-63625000D01*
X96160714Y-63672619D01*
X96208333Y-63767857D01*
X96208333Y-63863095D01*
X96160714Y-64005952D01*
X95589285Y-64577380D01*
X96208333Y-64577380D01*
X96541666Y-63577380D02*
X97160714Y-63577380D01*
X96827380Y-63958333D01*
X96970238Y-63958333D01*
X97065476Y-64005952D01*
X97113095Y-64053571D01*
X97160714Y-64148809D01*
X97160714Y-64386904D01*
X97113095Y-64482142D01*
X97065476Y-64529761D01*
X96970238Y-64577380D01*
X96684523Y-64577380D01*
X96589285Y-64529761D01*
X96541666Y-64482142D01*
X95011904Y-78202380D02*
X95011904Y-79011904D01*
X95059523Y-79107142D01*
X95107142Y-79154761D01*
X95202380Y-79202380D01*
X95392857Y-79202380D01*
X95488095Y-79154761D01*
X95535714Y-79107142D01*
X95583333Y-79011904D01*
X95583333Y-78202380D01*
X96011904Y-78297619D02*
X96059523Y-78250000D01*
X96154761Y-78202380D01*
X96392857Y-78202380D01*
X96488095Y-78250000D01*
X96535714Y-78297619D01*
X96583333Y-78392857D01*
X96583333Y-78488095D01*
X96535714Y-78630952D01*
X95964285Y-79202380D01*
X96583333Y-79202380D01*
X96964285Y-78297619D02*
X97011904Y-78250000D01*
X97107142Y-78202380D01*
X97345238Y-78202380D01*
X97440476Y-78250000D01*
X97488095Y-78297619D01*
X97535714Y-78392857D01*
X97535714Y-78488095D01*
X97488095Y-78630952D01*
X96916666Y-79202380D01*
X97535714Y-79202380D01*
X43500952Y-41407142D02*
X43453333Y-41454761D01*
X43310476Y-41502380D01*
X43215238Y-41502380D01*
X43072380Y-41454761D01*
X42977142Y-41359523D01*
X42929523Y-41264285D01*
X42881904Y-41073809D01*
X42881904Y-40930952D01*
X42929523Y-40740476D01*
X42977142Y-40645238D01*
X43072380Y-40550000D01*
X43215238Y-40502380D01*
X43310476Y-40502380D01*
X43453333Y-40550000D01*
X43500952Y-40597619D01*
X44453333Y-41502380D02*
X43881904Y-41502380D01*
X44167619Y-41502380D02*
X44167619Y-40502380D01*
X44072380Y-40645238D01*
X43977142Y-40740476D01*
X43881904Y-40788095D01*
X45358095Y-40502380D02*
X44881904Y-40502380D01*
X44834285Y-40978571D01*
X44881904Y-40930952D01*
X44977142Y-40883333D01*
X45215238Y-40883333D01*
X45310476Y-40930952D01*
X45358095Y-40978571D01*
X45405714Y-41073809D01*
X45405714Y-41311904D01*
X45358095Y-41407142D01*
X45310476Y-41454761D01*
X45215238Y-41502380D01*
X44977142Y-41502380D01*
X44881904Y-41454761D01*
X44834285Y-41407142D01*
X46358095Y-41502380D02*
X45786666Y-41502380D01*
X46072380Y-41502380D02*
X46072380Y-40502380D01*
X45977142Y-40645238D01*
X45881904Y-40740476D01*
X45786666Y-40788095D01*
X90761904Y-65952380D02*
X90761904Y-66761904D01*
X90809523Y-66857142D01*
X90857142Y-66904761D01*
X90952380Y-66952380D01*
X91142857Y-66952380D01*
X91238095Y-66904761D01*
X91285714Y-66857142D01*
X91333333Y-66761904D01*
X91333333Y-65952380D01*
X91761904Y-66047619D02*
X91809523Y-66000000D01*
X91904761Y-65952380D01*
X92142857Y-65952380D01*
X92238095Y-66000000D01*
X92285714Y-66047619D01*
X92333333Y-66142857D01*
X92333333Y-66238095D01*
X92285714Y-66380952D01*
X91714285Y-66952380D01*
X92333333Y-66952380D01*
X93285714Y-66952380D02*
X92714285Y-66952380D01*
X93000000Y-66952380D02*
X93000000Y-65952380D01*
X92904761Y-66095238D01*
X92809523Y-66190476D01*
X92714285Y-66238095D01*
X61261904Y-76702380D02*
X61261904Y-77511904D01*
X61309523Y-77607142D01*
X61357142Y-77654761D01*
X61452380Y-77702380D01*
X61642857Y-77702380D01*
X61738095Y-77654761D01*
X61785714Y-77607142D01*
X61833333Y-77511904D01*
X61833333Y-76702380D01*
X62785714Y-76702380D02*
X62309523Y-76702380D01*
X62261904Y-77178571D01*
X62309523Y-77130952D01*
X62404761Y-77083333D01*
X62642857Y-77083333D01*
X62738095Y-77130952D01*
X62785714Y-77178571D01*
X62833333Y-77273809D01*
X62833333Y-77511904D01*
X62785714Y-77607142D01*
X62738095Y-77654761D01*
X62642857Y-77702380D01*
X62404761Y-77702380D01*
X62309523Y-77654761D01*
X62261904Y-77607142D01*
X63690476Y-77035714D02*
X63690476Y-77702380D01*
X63452380Y-76654761D02*
X63214285Y-77369047D01*
X63833333Y-77369047D01*
X23095476Y-71607380D02*
X23095476Y-72321666D01*
X23047857Y-72464523D01*
X22952619Y-72559761D01*
X22809761Y-72607380D01*
X22714523Y-72607380D01*
X24095476Y-72607380D02*
X23524047Y-72607380D01*
X23809761Y-72607380D02*
X23809761Y-71607380D01*
X23714523Y-71750238D01*
X23619285Y-71845476D01*
X23524047Y-71893095D01*
X24952619Y-71607380D02*
X24762142Y-71607380D01*
X24666904Y-71655000D01*
X24619285Y-71702619D01*
X24524047Y-71845476D01*
X24476428Y-72035952D01*
X24476428Y-72416904D01*
X24524047Y-72512142D01*
X24571666Y-72559761D01*
X24666904Y-72607380D01*
X24857380Y-72607380D01*
X24952619Y-72559761D01*
X25000238Y-72512142D01*
X25047857Y-72416904D01*
X25047857Y-72178809D01*
X25000238Y-72083571D01*
X24952619Y-72035952D01*
X24857380Y-71988333D01*
X24666904Y-71988333D01*
X24571666Y-72035952D01*
X24524047Y-72083571D01*
X24476428Y-72178809D01*
X84107380Y-95174523D02*
X84821666Y-95174523D01*
X84964523Y-95222142D01*
X85059761Y-95317380D01*
X85107380Y-95460238D01*
X85107380Y-95555476D01*
X84107380Y-94222142D02*
X84107380Y-94698333D01*
X84583571Y-94745952D01*
X84535952Y-94698333D01*
X84488333Y-94603095D01*
X84488333Y-94365000D01*
X84535952Y-94269761D01*
X84583571Y-94222142D01*
X84678809Y-94174523D01*
X84916904Y-94174523D01*
X85012142Y-94222142D01*
X85059761Y-94269761D01*
X85107380Y-94365000D01*
X85107380Y-94603095D01*
X85059761Y-94698333D01*
X85012142Y-94745952D01*
X84440714Y-93317380D02*
X85107380Y-93317380D01*
X84059761Y-93555476D02*
X84774047Y-93793571D01*
X84774047Y-93174523D01*
X35795476Y-50017380D02*
X35795476Y-50731666D01*
X35747857Y-50874523D01*
X35652619Y-50969761D01*
X35509761Y-51017380D01*
X35414523Y-51017380D01*
X36795476Y-51017380D02*
X36224047Y-51017380D01*
X36509761Y-51017380D02*
X36509761Y-50017380D01*
X36414523Y-50160238D01*
X36319285Y-50255476D01*
X36224047Y-50303095D01*
X37652619Y-50350714D02*
X37652619Y-51017380D01*
X37414523Y-49969761D02*
X37176428Y-50684047D01*
X37795476Y-50684047D01*
X31985476Y-59542380D02*
X31985476Y-60256666D01*
X31937857Y-60399523D01*
X31842619Y-60494761D01*
X31699761Y-60542380D01*
X31604523Y-60542380D01*
X32985476Y-60542380D02*
X32414047Y-60542380D01*
X32699761Y-60542380D02*
X32699761Y-59542380D01*
X32604523Y-59685238D01*
X32509285Y-59780476D01*
X32414047Y-59828095D01*
X33318809Y-59542380D02*
X33937857Y-59542380D01*
X33604523Y-59923333D01*
X33747380Y-59923333D01*
X33842619Y-59970952D01*
X33890238Y-60018571D01*
X33937857Y-60113809D01*
X33937857Y-60351904D01*
X33890238Y-60447142D01*
X33842619Y-60494761D01*
X33747380Y-60542380D01*
X33461666Y-60542380D01*
X33366428Y-60494761D01*
X33318809Y-60447142D01*
X26270476Y-50652380D02*
X26270476Y-51366666D01*
X26222857Y-51509523D01*
X26127619Y-51604761D01*
X25984761Y-51652380D01*
X25889523Y-51652380D01*
X27270476Y-51652380D02*
X26699047Y-51652380D01*
X26984761Y-51652380D02*
X26984761Y-50652380D01*
X26889523Y-50795238D01*
X26794285Y-50890476D01*
X26699047Y-50938095D01*
X27651428Y-50747619D02*
X27699047Y-50700000D01*
X27794285Y-50652380D01*
X28032380Y-50652380D01*
X28127619Y-50700000D01*
X28175238Y-50747619D01*
X28222857Y-50842857D01*
X28222857Y-50938095D01*
X28175238Y-51080952D01*
X27603809Y-51652380D01*
X28222857Y-51652380D01*
X26270476Y-60812380D02*
X26270476Y-61526666D01*
X26222857Y-61669523D01*
X26127619Y-61764761D01*
X25984761Y-61812380D01*
X25889523Y-61812380D01*
X27270476Y-61812380D02*
X26699047Y-61812380D01*
X26984761Y-61812380D02*
X26984761Y-60812380D01*
X26889523Y-60955238D01*
X26794285Y-61050476D01*
X26699047Y-61098095D01*
X28222857Y-61812380D02*
X27651428Y-61812380D01*
X27937142Y-61812380D02*
X27937142Y-60812380D01*
X27841904Y-60955238D01*
X27746666Y-61050476D01*
X27651428Y-61098095D01*
X117127380Y-85029523D02*
X117841666Y-85029523D01*
X117984523Y-85077142D01*
X118079761Y-85172380D01*
X118127380Y-85315238D01*
X118127380Y-85410476D01*
X117127380Y-84077142D02*
X117127380Y-84553333D01*
X117603571Y-84600952D01*
X117555952Y-84553333D01*
X117508333Y-84458095D01*
X117508333Y-84220000D01*
X117555952Y-84124761D01*
X117603571Y-84077142D01*
X117698809Y-84029523D01*
X117936904Y-84029523D01*
X118032142Y-84077142D01*
X118079761Y-84124761D01*
X118127380Y-84220000D01*
X118127380Y-84458095D01*
X118079761Y-84553333D01*
X118032142Y-84600952D01*
X117222619Y-83648571D02*
X117175000Y-83600952D01*
X117127380Y-83505714D01*
X117127380Y-83267619D01*
X117175000Y-83172380D01*
X117222619Y-83124761D01*
X117317857Y-83077142D01*
X117413095Y-83077142D01*
X117555952Y-83124761D01*
X118127380Y-83696190D01*
X118127380Y-83077142D01*
X107542380Y-27577857D02*
X107542380Y-28054047D01*
X106542380Y-28054047D01*
X107542380Y-27244523D02*
X106542380Y-27244523D01*
X107542380Y-26673095D02*
X106970952Y-27101666D01*
X106542380Y-26673095D02*
X107113809Y-27244523D01*
X107542380Y-26196904D02*
X107542380Y-26006428D01*
X107494761Y-25911190D01*
X107447142Y-25863571D01*
X107304285Y-25768333D01*
X107113809Y-25720714D01*
X106732857Y-25720714D01*
X106637619Y-25768333D01*
X106590000Y-25815952D01*
X106542380Y-25911190D01*
X106542380Y-26101666D01*
X106590000Y-26196904D01*
X106637619Y-26244523D01*
X106732857Y-26292142D01*
X106970952Y-26292142D01*
X107066190Y-26244523D01*
X107113809Y-26196904D01*
X107161428Y-26101666D01*
X107161428Y-25911190D01*
X107113809Y-25815952D01*
X107066190Y-25768333D01*
X106970952Y-25720714D01*
X106637619Y-25339761D02*
X106590000Y-25292142D01*
X106542380Y-25196904D01*
X106542380Y-24958809D01*
X106590000Y-24863571D01*
X106637619Y-24815952D01*
X106732857Y-24768333D01*
X106828095Y-24768333D01*
X106970952Y-24815952D01*
X107542380Y-25387380D01*
X107542380Y-24768333D01*
X32482142Y-25122142D02*
X32434523Y-25169761D01*
X32291666Y-25217380D01*
X32196428Y-25217380D01*
X32053571Y-25169761D01*
X31958333Y-25074523D01*
X31910714Y-24979285D01*
X31863095Y-24788809D01*
X31863095Y-24645952D01*
X31910714Y-24455476D01*
X31958333Y-24360238D01*
X32053571Y-24265000D01*
X32196428Y-24217380D01*
X32291666Y-24217380D01*
X32434523Y-24265000D01*
X32482142Y-24312619D01*
X32958333Y-25217380D02*
X33148809Y-25217380D01*
X33244047Y-25169761D01*
X33291666Y-25122142D01*
X33386904Y-24979285D01*
X33434523Y-24788809D01*
X33434523Y-24407857D01*
X33386904Y-24312619D01*
X33339285Y-24265000D01*
X33244047Y-24217380D01*
X33053571Y-24217380D01*
X32958333Y-24265000D01*
X32910714Y-24312619D01*
X32863095Y-24407857D01*
X32863095Y-24645952D01*
X32910714Y-24741190D01*
X32958333Y-24788809D01*
X33053571Y-24836428D01*
X33244047Y-24836428D01*
X33339285Y-24788809D01*
X33386904Y-24741190D01*
X33434523Y-24645952D01*
X33815476Y-24312619D02*
X33863095Y-24265000D01*
X33958333Y-24217380D01*
X34196428Y-24217380D01*
X34291666Y-24265000D01*
X34339285Y-24312619D01*
X34386904Y-24407857D01*
X34386904Y-24503095D01*
X34339285Y-24645952D01*
X33767857Y-25217380D01*
X34386904Y-25217380D01*
X82150476Y-22287380D02*
X82150476Y-23001666D01*
X82102857Y-23144523D01*
X82007619Y-23239761D01*
X81864761Y-23287380D01*
X81769523Y-23287380D01*
X82531428Y-22287380D02*
X83150476Y-22287380D01*
X82817142Y-22668333D01*
X82960000Y-22668333D01*
X83055238Y-22715952D01*
X83102857Y-22763571D01*
X83150476Y-22858809D01*
X83150476Y-23096904D01*
X83102857Y-23192142D01*
X83055238Y-23239761D01*
X82960000Y-23287380D01*
X82674285Y-23287380D01*
X82579047Y-23239761D01*
X82531428Y-23192142D01*
X83531428Y-22382619D02*
X83579047Y-22335000D01*
X83674285Y-22287380D01*
X83912380Y-22287380D01*
X84007619Y-22335000D01*
X84055238Y-22382619D01*
X84102857Y-22477857D01*
X84102857Y-22573095D01*
X84055238Y-22715952D01*
X83483809Y-23287380D01*
X84102857Y-23287380D01*
X72625476Y-22287380D02*
X72625476Y-23001666D01*
X72577857Y-23144523D01*
X72482619Y-23239761D01*
X72339761Y-23287380D01*
X72244523Y-23287380D01*
X73006428Y-22287380D02*
X73625476Y-22287380D01*
X73292142Y-22668333D01*
X73435000Y-22668333D01*
X73530238Y-22715952D01*
X73577857Y-22763571D01*
X73625476Y-22858809D01*
X73625476Y-23096904D01*
X73577857Y-23192142D01*
X73530238Y-23239761D01*
X73435000Y-23287380D01*
X73149285Y-23287380D01*
X73054047Y-23239761D01*
X73006428Y-23192142D01*
X73958809Y-22287380D02*
X74577857Y-22287380D01*
X74244523Y-22668333D01*
X74387380Y-22668333D01*
X74482619Y-22715952D01*
X74530238Y-22763571D01*
X74577857Y-22858809D01*
X74577857Y-23096904D01*
X74530238Y-23192142D01*
X74482619Y-23239761D01*
X74387380Y-23287380D01*
X74101666Y-23287380D01*
X74006428Y-23239761D01*
X73958809Y-23192142D01*
X102470476Y-30332380D02*
X102470476Y-31046666D01*
X102422857Y-31189523D01*
X102327619Y-31284761D01*
X102184761Y-31332380D01*
X102089523Y-31332380D01*
X103089523Y-30760952D02*
X102994285Y-30713333D01*
X102946666Y-30665714D01*
X102899047Y-30570476D01*
X102899047Y-30522857D01*
X102946666Y-30427619D01*
X102994285Y-30380000D01*
X103089523Y-30332380D01*
X103280000Y-30332380D01*
X103375238Y-30380000D01*
X103422857Y-30427619D01*
X103470476Y-30522857D01*
X103470476Y-30570476D01*
X103422857Y-30665714D01*
X103375238Y-30713333D01*
X103280000Y-30760952D01*
X103089523Y-30760952D01*
X102994285Y-30808571D01*
X102946666Y-30856190D01*
X102899047Y-30951428D01*
X102899047Y-31141904D01*
X102946666Y-31237142D01*
X102994285Y-31284761D01*
X103089523Y-31332380D01*
X103280000Y-31332380D01*
X103375238Y-31284761D01*
X103422857Y-31237142D01*
X103470476Y-31141904D01*
X103470476Y-30951428D01*
X103422857Y-30856190D01*
X103375238Y-30808571D01*
X103280000Y-30760952D01*
X104422857Y-31332380D02*
X103851428Y-31332380D01*
X104137142Y-31332380D02*
X104137142Y-30332380D01*
X104041904Y-30475238D01*
X103946666Y-30570476D01*
X103851428Y-30618095D01*
X120872380Y-94672857D02*
X120396190Y-95006190D01*
X120872380Y-95244285D02*
X119872380Y-95244285D01*
X119872380Y-94863333D01*
X119920000Y-94768095D01*
X119967619Y-94720476D01*
X120062857Y-94672857D01*
X120205714Y-94672857D01*
X120300952Y-94720476D01*
X120348571Y-94768095D01*
X120396190Y-94863333D01*
X120396190Y-95244285D01*
X119872380Y-93815714D02*
X119872380Y-94006190D01*
X119920000Y-94101428D01*
X119967619Y-94149047D01*
X120110476Y-94244285D01*
X120300952Y-94291904D01*
X120681904Y-94291904D01*
X120777142Y-94244285D01*
X120824761Y-94196666D01*
X120872380Y-94101428D01*
X120872380Y-93910952D01*
X120824761Y-93815714D01*
X120777142Y-93768095D01*
X120681904Y-93720476D01*
X120443809Y-93720476D01*
X120348571Y-93768095D01*
X120300952Y-93815714D01*
X120253333Y-93910952D01*
X120253333Y-94101428D01*
X120300952Y-94196666D01*
X120348571Y-94244285D01*
X120443809Y-94291904D01*
X119872380Y-93387142D02*
X119872380Y-92720476D01*
X120872380Y-93149047D01*
X110142380Y-35489523D02*
X110856666Y-35489523D01*
X110999523Y-35537142D01*
X111094761Y-35632380D01*
X111142380Y-35775238D01*
X111142380Y-35870476D01*
X110142380Y-34537142D02*
X110142380Y-35013333D01*
X110618571Y-35060952D01*
X110570952Y-35013333D01*
X110523333Y-34918095D01*
X110523333Y-34680000D01*
X110570952Y-34584761D01*
X110618571Y-34537142D01*
X110713809Y-34489523D01*
X110951904Y-34489523D01*
X111047142Y-34537142D01*
X111094761Y-34584761D01*
X111142380Y-34680000D01*
X111142380Y-34918095D01*
X111094761Y-35013333D01*
X111047142Y-35060952D01*
X110142380Y-34156190D02*
X110142380Y-33489523D01*
X111142380Y-33918095D01*
X62480952Y-36502380D02*
X62147619Y-36026190D01*
X61909523Y-36502380D02*
X61909523Y-35502380D01*
X62290476Y-35502380D01*
X62385714Y-35550000D01*
X62433333Y-35597619D01*
X62480952Y-35692857D01*
X62480952Y-35835714D01*
X62433333Y-35930952D01*
X62385714Y-35978571D01*
X62290476Y-36026190D01*
X61909523Y-36026190D01*
X62814285Y-35502380D02*
X63433333Y-35502380D01*
X63100000Y-35883333D01*
X63242857Y-35883333D01*
X63338095Y-35930952D01*
X63385714Y-35978571D01*
X63433333Y-36073809D01*
X63433333Y-36311904D01*
X63385714Y-36407142D01*
X63338095Y-36454761D01*
X63242857Y-36502380D01*
X62957142Y-36502380D01*
X62861904Y-36454761D01*
X62814285Y-36407142D01*
X64052380Y-35502380D02*
X64147619Y-35502380D01*
X64242857Y-35550000D01*
X64290476Y-35597619D01*
X64338095Y-35692857D01*
X64385714Y-35883333D01*
X64385714Y-36121428D01*
X64338095Y-36311904D01*
X64290476Y-36407142D01*
X64242857Y-36454761D01*
X64147619Y-36502380D01*
X64052380Y-36502380D01*
X63957142Y-36454761D01*
X63909523Y-36407142D01*
X63861904Y-36311904D01*
X63814285Y-36121428D01*
X63814285Y-35883333D01*
X63861904Y-35692857D01*
X63909523Y-35597619D01*
X63957142Y-35550000D01*
X64052380Y-35502380D01*
X64957142Y-35930952D02*
X64861904Y-35883333D01*
X64814285Y-35835714D01*
X64766666Y-35740476D01*
X64766666Y-35692857D01*
X64814285Y-35597619D01*
X64861904Y-35550000D01*
X64957142Y-35502380D01*
X65147619Y-35502380D01*
X65242857Y-35550000D01*
X65290476Y-35597619D01*
X65338095Y-35692857D01*
X65338095Y-35740476D01*
X65290476Y-35835714D01*
X65242857Y-35883333D01*
X65147619Y-35930952D01*
X64957142Y-35930952D01*
X64861904Y-35978571D01*
X64814285Y-36026190D01*
X64766666Y-36121428D01*
X64766666Y-36311904D01*
X64814285Y-36407142D01*
X64861904Y-36454761D01*
X64957142Y-36502380D01*
X65147619Y-36502380D01*
X65242857Y-36454761D01*
X65290476Y-36407142D01*
X65338095Y-36311904D01*
X65338095Y-36121428D01*
X65290476Y-36026190D01*
X65242857Y-35978571D01*
X65147619Y-35930952D01*
X61070952Y-45312380D02*
X60737619Y-44836190D01*
X60499523Y-45312380D02*
X60499523Y-44312380D01*
X60880476Y-44312380D01*
X60975714Y-44360000D01*
X61023333Y-44407619D01*
X61070952Y-44502857D01*
X61070952Y-44645714D01*
X61023333Y-44740952D01*
X60975714Y-44788571D01*
X60880476Y-44836190D01*
X60499523Y-44836190D01*
X61404285Y-44312380D02*
X62023333Y-44312380D01*
X61690000Y-44693333D01*
X61832857Y-44693333D01*
X61928095Y-44740952D01*
X61975714Y-44788571D01*
X62023333Y-44883809D01*
X62023333Y-45121904D01*
X61975714Y-45217142D01*
X61928095Y-45264761D01*
X61832857Y-45312380D01*
X61547142Y-45312380D01*
X61451904Y-45264761D01*
X61404285Y-45217142D01*
X62642380Y-44312380D02*
X62737619Y-44312380D01*
X62832857Y-44360000D01*
X62880476Y-44407619D01*
X62928095Y-44502857D01*
X62975714Y-44693333D01*
X62975714Y-44931428D01*
X62928095Y-45121904D01*
X62880476Y-45217142D01*
X62832857Y-45264761D01*
X62737619Y-45312380D01*
X62642380Y-45312380D01*
X62547142Y-45264761D01*
X62499523Y-45217142D01*
X62451904Y-45121904D01*
X62404285Y-44931428D01*
X62404285Y-44693333D01*
X62451904Y-44502857D01*
X62499523Y-44407619D01*
X62547142Y-44360000D01*
X62642380Y-44312380D01*
X63928095Y-45312380D02*
X63356666Y-45312380D01*
X63642380Y-45312380D02*
X63642380Y-44312380D01*
X63547142Y-44455238D01*
X63451904Y-44550476D01*
X63356666Y-44598095D01*
X108337142Y-26872380D02*
X108003809Y-26396190D01*
X107765714Y-26872380D02*
X107765714Y-25872380D01*
X108146666Y-25872380D01*
X108241904Y-25920000D01*
X108289523Y-25967619D01*
X108337142Y-26062857D01*
X108337142Y-26205714D01*
X108289523Y-26300952D01*
X108241904Y-26348571D01*
X108146666Y-26396190D01*
X107765714Y-26396190D01*
X108813333Y-26872380D02*
X109003809Y-26872380D01*
X109099047Y-26824761D01*
X109146666Y-26777142D01*
X109241904Y-26634285D01*
X109289523Y-26443809D01*
X109289523Y-26062857D01*
X109241904Y-25967619D01*
X109194285Y-25920000D01*
X109099047Y-25872380D01*
X108908571Y-25872380D01*
X108813333Y-25920000D01*
X108765714Y-25967619D01*
X108718095Y-26062857D01*
X108718095Y-26300952D01*
X108765714Y-26396190D01*
X108813333Y-26443809D01*
X108908571Y-26491428D01*
X109099047Y-26491428D01*
X109194285Y-26443809D01*
X109241904Y-26396190D01*
X109289523Y-26300952D01*
X110241904Y-26872380D02*
X109670476Y-26872380D01*
X109956190Y-26872380D02*
X109956190Y-25872380D01*
X109860952Y-26015238D01*
X109765714Y-26110476D01*
X109670476Y-26158095D01*
X81417142Y-39229047D02*
X81464761Y-39276666D01*
X81512380Y-39419523D01*
X81512380Y-39514761D01*
X81464761Y-39657619D01*
X81369523Y-39752857D01*
X81274285Y-39800476D01*
X81083809Y-39848095D01*
X80940952Y-39848095D01*
X80750476Y-39800476D01*
X80655238Y-39752857D01*
X80560000Y-39657619D01*
X80512380Y-39514761D01*
X80512380Y-39419523D01*
X80560000Y-39276666D01*
X80607619Y-39229047D01*
X80845714Y-38371904D02*
X81512380Y-38371904D01*
X80464761Y-38610000D02*
X81179047Y-38848095D01*
X81179047Y-38229047D01*
X80512380Y-37943333D02*
X80512380Y-37324285D01*
X80893333Y-37657619D01*
X80893333Y-37514761D01*
X80940952Y-37419523D01*
X80988571Y-37371904D01*
X81083809Y-37324285D01*
X81321904Y-37324285D01*
X81417142Y-37371904D01*
X81464761Y-37419523D01*
X81512380Y-37514761D01*
X81512380Y-37800476D01*
X81464761Y-37895714D01*
X81417142Y-37943333D01*
X81512380Y-36371904D02*
X81512380Y-36943333D01*
X81512380Y-36657619D02*
X80512380Y-36657619D01*
X80655238Y-36752857D01*
X80750476Y-36848095D01*
X80798095Y-36943333D01*
X54890952Y-33697142D02*
X54843333Y-33744761D01*
X54700476Y-33792380D01*
X54605238Y-33792380D01*
X54462380Y-33744761D01*
X54367142Y-33649523D01*
X54319523Y-33554285D01*
X54271904Y-33363809D01*
X54271904Y-33220952D01*
X54319523Y-33030476D01*
X54367142Y-32935238D01*
X54462380Y-32840000D01*
X54605238Y-32792380D01*
X54700476Y-32792380D01*
X54843333Y-32840000D01*
X54890952Y-32887619D01*
X55224285Y-32792380D02*
X55843333Y-32792380D01*
X55510000Y-33173333D01*
X55652857Y-33173333D01*
X55748095Y-33220952D01*
X55795714Y-33268571D01*
X55843333Y-33363809D01*
X55843333Y-33601904D01*
X55795714Y-33697142D01*
X55748095Y-33744761D01*
X55652857Y-33792380D01*
X55367142Y-33792380D01*
X55271904Y-33744761D01*
X55224285Y-33697142D01*
X56795714Y-33792380D02*
X56224285Y-33792380D01*
X56510000Y-33792380D02*
X56510000Y-32792380D01*
X56414761Y-32935238D01*
X56319523Y-33030476D01*
X56224285Y-33078095D01*
X57129047Y-32792380D02*
X57748095Y-32792380D01*
X57414761Y-33173333D01*
X57557619Y-33173333D01*
X57652857Y-33220952D01*
X57700476Y-33268571D01*
X57748095Y-33363809D01*
X57748095Y-33601904D01*
X57700476Y-33697142D01*
X57652857Y-33744761D01*
X57557619Y-33792380D01*
X57271904Y-33792380D01*
X57176666Y-33744761D01*
X57129047Y-33697142D01*
X54680952Y-35877142D02*
X54633333Y-35924761D01*
X54490476Y-35972380D01*
X54395238Y-35972380D01*
X54252380Y-35924761D01*
X54157142Y-35829523D01*
X54109523Y-35734285D01*
X54061904Y-35543809D01*
X54061904Y-35400952D01*
X54109523Y-35210476D01*
X54157142Y-35115238D01*
X54252380Y-35020000D01*
X54395238Y-34972380D01*
X54490476Y-34972380D01*
X54633333Y-35020000D01*
X54680952Y-35067619D01*
X55014285Y-34972380D02*
X55633333Y-34972380D01*
X55300000Y-35353333D01*
X55442857Y-35353333D01*
X55538095Y-35400952D01*
X55585714Y-35448571D01*
X55633333Y-35543809D01*
X55633333Y-35781904D01*
X55585714Y-35877142D01*
X55538095Y-35924761D01*
X55442857Y-35972380D01*
X55157142Y-35972380D01*
X55061904Y-35924761D01*
X55014285Y-35877142D01*
X56252380Y-34972380D02*
X56347619Y-34972380D01*
X56442857Y-35020000D01*
X56490476Y-35067619D01*
X56538095Y-35162857D01*
X56585714Y-35353333D01*
X56585714Y-35591428D01*
X56538095Y-35781904D01*
X56490476Y-35877142D01*
X56442857Y-35924761D01*
X56347619Y-35972380D01*
X56252380Y-35972380D01*
X56157142Y-35924761D01*
X56109523Y-35877142D01*
X56061904Y-35781904D01*
X56014285Y-35591428D01*
X56014285Y-35353333D01*
X56061904Y-35162857D01*
X56109523Y-35067619D01*
X56157142Y-35020000D01*
X56252380Y-34972380D01*
X57157142Y-35400952D02*
X57061904Y-35353333D01*
X57014285Y-35305714D01*
X56966666Y-35210476D01*
X56966666Y-35162857D01*
X57014285Y-35067619D01*
X57061904Y-35020000D01*
X57157142Y-34972380D01*
X57347619Y-34972380D01*
X57442857Y-35020000D01*
X57490476Y-35067619D01*
X57538095Y-35162857D01*
X57538095Y-35210476D01*
X57490476Y-35305714D01*
X57442857Y-35353333D01*
X57347619Y-35400952D01*
X57157142Y-35400952D01*
X57061904Y-35448571D01*
X57014285Y-35496190D01*
X56966666Y-35591428D01*
X56966666Y-35781904D01*
X57014285Y-35877142D01*
X57061904Y-35924761D01*
X57157142Y-35972380D01*
X57347619Y-35972380D01*
X57442857Y-35924761D01*
X57490476Y-35877142D01*
X57538095Y-35781904D01*
X57538095Y-35591428D01*
X57490476Y-35496190D01*
X57442857Y-35448571D01*
X57347619Y-35400952D01*
X54980952Y-44737142D02*
X54933333Y-44784761D01*
X54790476Y-44832380D01*
X54695238Y-44832380D01*
X54552380Y-44784761D01*
X54457142Y-44689523D01*
X54409523Y-44594285D01*
X54361904Y-44403809D01*
X54361904Y-44260952D01*
X54409523Y-44070476D01*
X54457142Y-43975238D01*
X54552380Y-43880000D01*
X54695238Y-43832380D01*
X54790476Y-43832380D01*
X54933333Y-43880000D01*
X54980952Y-43927619D01*
X55314285Y-43832380D02*
X55933333Y-43832380D01*
X55600000Y-44213333D01*
X55742857Y-44213333D01*
X55838095Y-44260952D01*
X55885714Y-44308571D01*
X55933333Y-44403809D01*
X55933333Y-44641904D01*
X55885714Y-44737142D01*
X55838095Y-44784761D01*
X55742857Y-44832380D01*
X55457142Y-44832380D01*
X55361904Y-44784761D01*
X55314285Y-44737142D01*
X56552380Y-43832380D02*
X56647619Y-43832380D01*
X56742857Y-43880000D01*
X56790476Y-43927619D01*
X56838095Y-44022857D01*
X56885714Y-44213333D01*
X56885714Y-44451428D01*
X56838095Y-44641904D01*
X56790476Y-44737142D01*
X56742857Y-44784761D01*
X56647619Y-44832380D01*
X56552380Y-44832380D01*
X56457142Y-44784761D01*
X56409523Y-44737142D01*
X56361904Y-44641904D01*
X56314285Y-44451428D01*
X56314285Y-44213333D01*
X56361904Y-44022857D01*
X56409523Y-43927619D01*
X56457142Y-43880000D01*
X56552380Y-43832380D01*
X57838095Y-44832380D02*
X57266666Y-44832380D01*
X57552380Y-44832380D02*
X57552380Y-43832380D01*
X57457142Y-43975238D01*
X57361904Y-44070476D01*
X57266666Y-44118095D01*
X106907142Y-79377142D02*
X106859523Y-79424761D01*
X106716666Y-79472380D01*
X106621428Y-79472380D01*
X106478571Y-79424761D01*
X106383333Y-79329523D01*
X106335714Y-79234285D01*
X106288095Y-79043809D01*
X106288095Y-78900952D01*
X106335714Y-78710476D01*
X106383333Y-78615238D01*
X106478571Y-78520000D01*
X106621428Y-78472380D01*
X106716666Y-78472380D01*
X106859523Y-78520000D01*
X106907142Y-78567619D01*
X107288095Y-78567619D02*
X107335714Y-78520000D01*
X107430952Y-78472380D01*
X107669047Y-78472380D01*
X107764285Y-78520000D01*
X107811904Y-78567619D01*
X107859523Y-78662857D01*
X107859523Y-78758095D01*
X107811904Y-78900952D01*
X107240476Y-79472380D01*
X107859523Y-79472380D01*
X108240476Y-78567619D02*
X108288095Y-78520000D01*
X108383333Y-78472380D01*
X108621428Y-78472380D01*
X108716666Y-78520000D01*
X108764285Y-78567619D01*
X108811904Y-78662857D01*
X108811904Y-78758095D01*
X108764285Y-78900952D01*
X108192857Y-79472380D01*
X108811904Y-79472380D01*
X41880952Y-80537142D02*
X41833333Y-80584761D01*
X41690476Y-80632380D01*
X41595238Y-80632380D01*
X41452380Y-80584761D01*
X41357142Y-80489523D01*
X41309523Y-80394285D01*
X41261904Y-80203809D01*
X41261904Y-80060952D01*
X41309523Y-79870476D01*
X41357142Y-79775238D01*
X41452380Y-79680000D01*
X41595238Y-79632380D01*
X41690476Y-79632380D01*
X41833333Y-79680000D01*
X41880952Y-79727619D01*
X42833333Y-80632380D02*
X42261904Y-80632380D01*
X42547619Y-80632380D02*
X42547619Y-79632380D01*
X42452380Y-79775238D01*
X42357142Y-79870476D01*
X42261904Y-79918095D01*
X43738095Y-79632380D02*
X43261904Y-79632380D01*
X43214285Y-80108571D01*
X43261904Y-80060952D01*
X43357142Y-80013333D01*
X43595238Y-80013333D01*
X43690476Y-80060952D01*
X43738095Y-80108571D01*
X43785714Y-80203809D01*
X43785714Y-80441904D01*
X43738095Y-80537142D01*
X43690476Y-80584761D01*
X43595238Y-80632380D01*
X43357142Y-80632380D01*
X43261904Y-80584761D01*
X43214285Y-80537142D01*
X44642857Y-79965714D02*
X44642857Y-80632380D01*
X44404761Y-79584761D02*
X44166666Y-80299047D01*
X44785714Y-80299047D01*
X55380952Y-78732142D02*
X55333333Y-78779761D01*
X55190476Y-78827380D01*
X55095238Y-78827380D01*
X54952380Y-78779761D01*
X54857142Y-78684523D01*
X54809523Y-78589285D01*
X54761904Y-78398809D01*
X54761904Y-78255952D01*
X54809523Y-78065476D01*
X54857142Y-77970238D01*
X54952380Y-77875000D01*
X55095238Y-77827380D01*
X55190476Y-77827380D01*
X55333333Y-77875000D01*
X55380952Y-77922619D01*
X56333333Y-78827380D02*
X55761904Y-78827380D01*
X56047619Y-78827380D02*
X56047619Y-77827380D01*
X55952380Y-77970238D01*
X55857142Y-78065476D01*
X55761904Y-78113095D01*
X57238095Y-77827380D02*
X56761904Y-77827380D01*
X56714285Y-78303571D01*
X56761904Y-78255952D01*
X56857142Y-78208333D01*
X57095238Y-78208333D01*
X57190476Y-78255952D01*
X57238095Y-78303571D01*
X57285714Y-78398809D01*
X57285714Y-78636904D01*
X57238095Y-78732142D01*
X57190476Y-78779761D01*
X57095238Y-78827380D01*
X56857142Y-78827380D01*
X56761904Y-78779761D01*
X56714285Y-78732142D01*
X57619047Y-77827380D02*
X58238095Y-77827380D01*
X57904761Y-78208333D01*
X58047619Y-78208333D01*
X58142857Y-78255952D01*
X58190476Y-78303571D01*
X58238095Y-78398809D01*
X58238095Y-78636904D01*
X58190476Y-78732142D01*
X58142857Y-78779761D01*
X58047619Y-78827380D01*
X57761904Y-78827380D01*
X57666666Y-78779761D01*
X57619047Y-78732142D01*
X33152142Y-75814047D02*
X33199761Y-75861666D01*
X33247380Y-76004523D01*
X33247380Y-76099761D01*
X33199761Y-76242619D01*
X33104523Y-76337857D01*
X33009285Y-76385476D01*
X32818809Y-76433095D01*
X32675952Y-76433095D01*
X32485476Y-76385476D01*
X32390238Y-76337857D01*
X32295000Y-76242619D01*
X32247380Y-76099761D01*
X32247380Y-76004523D01*
X32295000Y-75861666D01*
X32342619Y-75814047D01*
X33247380Y-74861666D02*
X33247380Y-75433095D01*
X33247380Y-75147380D02*
X32247380Y-75147380D01*
X32390238Y-75242619D01*
X32485476Y-75337857D01*
X32533095Y-75433095D01*
X32247380Y-73956904D02*
X32247380Y-74433095D01*
X32723571Y-74480714D01*
X32675952Y-74433095D01*
X32628333Y-74337857D01*
X32628333Y-74099761D01*
X32675952Y-74004523D01*
X32723571Y-73956904D01*
X32818809Y-73909285D01*
X33056904Y-73909285D01*
X33152142Y-73956904D01*
X33199761Y-74004523D01*
X33247380Y-74099761D01*
X33247380Y-74337857D01*
X33199761Y-74433095D01*
X33152142Y-74480714D01*
X32342619Y-73528333D02*
X32295000Y-73480714D01*
X32247380Y-73385476D01*
X32247380Y-73147380D01*
X32295000Y-73052142D01*
X32342619Y-73004523D01*
X32437857Y-72956904D01*
X32533095Y-72956904D01*
X32675952Y-73004523D01*
X33247380Y-73575952D01*
X33247380Y-72956904D01*
X46930952Y-80607142D02*
X46883333Y-80654761D01*
X46740476Y-80702380D01*
X46645238Y-80702380D01*
X46502380Y-80654761D01*
X46407142Y-80559523D01*
X46359523Y-80464285D01*
X46311904Y-80273809D01*
X46311904Y-80130952D01*
X46359523Y-79940476D01*
X46407142Y-79845238D01*
X46502380Y-79750000D01*
X46645238Y-79702380D01*
X46740476Y-79702380D01*
X46883333Y-79750000D01*
X46930952Y-79797619D01*
X47883333Y-80702380D02*
X47311904Y-80702380D01*
X47597619Y-80702380D02*
X47597619Y-79702380D01*
X47502380Y-79845238D01*
X47407142Y-79940476D01*
X47311904Y-79988095D01*
X48216666Y-79702380D02*
X48835714Y-79702380D01*
X48502380Y-80083333D01*
X48645238Y-80083333D01*
X48740476Y-80130952D01*
X48788095Y-80178571D01*
X48835714Y-80273809D01*
X48835714Y-80511904D01*
X48788095Y-80607142D01*
X48740476Y-80654761D01*
X48645238Y-80702380D01*
X48359523Y-80702380D01*
X48264285Y-80654761D01*
X48216666Y-80607142D01*
X49692857Y-80035714D02*
X49692857Y-80702380D01*
X49454761Y-79654761D02*
X49216666Y-80369047D01*
X49835714Y-80369047D01*
X50060952Y-78757142D02*
X50013333Y-78804761D01*
X49870476Y-78852380D01*
X49775238Y-78852380D01*
X49632380Y-78804761D01*
X49537142Y-78709523D01*
X49489523Y-78614285D01*
X49441904Y-78423809D01*
X49441904Y-78280952D01*
X49489523Y-78090476D01*
X49537142Y-77995238D01*
X49632380Y-77900000D01*
X49775238Y-77852380D01*
X49870476Y-77852380D01*
X50013333Y-77900000D01*
X50060952Y-77947619D01*
X51013333Y-78852380D02*
X50441904Y-78852380D01*
X50727619Y-78852380D02*
X50727619Y-77852380D01*
X50632380Y-77995238D01*
X50537142Y-78090476D01*
X50441904Y-78138095D01*
X51346666Y-77852380D02*
X51965714Y-77852380D01*
X51632380Y-78233333D01*
X51775238Y-78233333D01*
X51870476Y-78280952D01*
X51918095Y-78328571D01*
X51965714Y-78423809D01*
X51965714Y-78661904D01*
X51918095Y-78757142D01*
X51870476Y-78804761D01*
X51775238Y-78852380D01*
X51489523Y-78852380D01*
X51394285Y-78804761D01*
X51346666Y-78757142D01*
X52299047Y-77852380D02*
X52918095Y-77852380D01*
X52584761Y-78233333D01*
X52727619Y-78233333D01*
X52822857Y-78280952D01*
X52870476Y-78328571D01*
X52918095Y-78423809D01*
X52918095Y-78661904D01*
X52870476Y-78757142D01*
X52822857Y-78804761D01*
X52727619Y-78852380D01*
X52441904Y-78852380D01*
X52346666Y-78804761D01*
X52299047Y-78757142D01*
X42200952Y-70557142D02*
X42153333Y-70604761D01*
X42010476Y-70652380D01*
X41915238Y-70652380D01*
X41772380Y-70604761D01*
X41677142Y-70509523D01*
X41629523Y-70414285D01*
X41581904Y-70223809D01*
X41581904Y-70080952D01*
X41629523Y-69890476D01*
X41677142Y-69795238D01*
X41772380Y-69700000D01*
X41915238Y-69652380D01*
X42010476Y-69652380D01*
X42153333Y-69700000D01*
X42200952Y-69747619D01*
X43153333Y-70652380D02*
X42581904Y-70652380D01*
X42867619Y-70652380D02*
X42867619Y-69652380D01*
X42772380Y-69795238D01*
X42677142Y-69890476D01*
X42581904Y-69938095D01*
X43486666Y-69652380D02*
X44105714Y-69652380D01*
X43772380Y-70033333D01*
X43915238Y-70033333D01*
X44010476Y-70080952D01*
X44058095Y-70128571D01*
X44105714Y-70223809D01*
X44105714Y-70461904D01*
X44058095Y-70557142D01*
X44010476Y-70604761D01*
X43915238Y-70652380D01*
X43629523Y-70652380D01*
X43534285Y-70604761D01*
X43486666Y-70557142D01*
X44486666Y-69747619D02*
X44534285Y-69700000D01*
X44629523Y-69652380D01*
X44867619Y-69652380D01*
X44962857Y-69700000D01*
X45010476Y-69747619D01*
X45058095Y-69842857D01*
X45058095Y-69938095D01*
X45010476Y-70080952D01*
X44439047Y-70652380D01*
X45058095Y-70652380D01*
X51227142Y-44969047D02*
X51274761Y-45016666D01*
X51322380Y-45159523D01*
X51322380Y-45254761D01*
X51274761Y-45397619D01*
X51179523Y-45492857D01*
X51084285Y-45540476D01*
X50893809Y-45588095D01*
X50750952Y-45588095D01*
X50560476Y-45540476D01*
X50465238Y-45492857D01*
X50370000Y-45397619D01*
X50322380Y-45254761D01*
X50322380Y-45159523D01*
X50370000Y-45016666D01*
X50417619Y-44969047D01*
X51322380Y-44016666D02*
X51322380Y-44588095D01*
X51322380Y-44302380D02*
X50322380Y-44302380D01*
X50465238Y-44397619D01*
X50560476Y-44492857D01*
X50608095Y-44588095D01*
X50322380Y-43683333D02*
X50322380Y-43064285D01*
X50703333Y-43397619D01*
X50703333Y-43254761D01*
X50750952Y-43159523D01*
X50798571Y-43111904D01*
X50893809Y-43064285D01*
X51131904Y-43064285D01*
X51227142Y-43111904D01*
X51274761Y-43159523D01*
X51322380Y-43254761D01*
X51322380Y-43540476D01*
X51274761Y-43635714D01*
X51227142Y-43683333D01*
X51322380Y-42111904D02*
X51322380Y-42683333D01*
X51322380Y-42397619D02*
X50322380Y-42397619D01*
X50465238Y-42492857D01*
X50560476Y-42588095D01*
X50608095Y-42683333D01*
X45731904Y-39222380D02*
X45731904Y-40031904D01*
X45779523Y-40127142D01*
X45827142Y-40174761D01*
X45922380Y-40222380D01*
X46112857Y-40222380D01*
X46208095Y-40174761D01*
X46255714Y-40127142D01*
X46303333Y-40031904D01*
X46303333Y-39222380D01*
X46684285Y-39222380D02*
X47303333Y-39222380D01*
X46970000Y-39603333D01*
X47112857Y-39603333D01*
X47208095Y-39650952D01*
X47255714Y-39698571D01*
X47303333Y-39793809D01*
X47303333Y-40031904D01*
X47255714Y-40127142D01*
X47208095Y-40174761D01*
X47112857Y-40222380D01*
X46827142Y-40222380D01*
X46731904Y-40174761D01*
X46684285Y-40127142D01*
X48255714Y-40222380D02*
X47684285Y-40222380D01*
X47970000Y-40222380D02*
X47970000Y-39222380D01*
X47874761Y-39365238D01*
X47779523Y-39460476D01*
X47684285Y-39508095D01*
X57511904Y-75577380D02*
X57511904Y-76386904D01*
X57559523Y-76482142D01*
X57607142Y-76529761D01*
X57702380Y-76577380D01*
X57892857Y-76577380D01*
X57988095Y-76529761D01*
X58035714Y-76482142D01*
X58083333Y-76386904D01*
X58083333Y-75577380D01*
X59083333Y-76577380D02*
X58511904Y-76577380D01*
X58797619Y-76577380D02*
X58797619Y-75577380D01*
X58702380Y-75720238D01*
X58607142Y-75815476D01*
X58511904Y-75863095D01*
X59416666Y-75577380D02*
X60035714Y-75577380D01*
X59702380Y-75958333D01*
X59845238Y-75958333D01*
X59940476Y-76005952D01*
X59988095Y-76053571D01*
X60035714Y-76148809D01*
X60035714Y-76386904D01*
X59988095Y-76482142D01*
X59940476Y-76529761D01*
X59845238Y-76577380D01*
X59559523Y-76577380D01*
X59464285Y-76529761D01*
X59416666Y-76482142D01*
X120762380Y-75128095D02*
X121571904Y-75128095D01*
X121667142Y-75080476D01*
X121714761Y-75032857D01*
X121762380Y-74937619D01*
X121762380Y-74747142D01*
X121714761Y-74651904D01*
X121667142Y-74604285D01*
X121571904Y-74556666D01*
X120762380Y-74556666D01*
X121762380Y-74032857D02*
X121762380Y-73842380D01*
X121714761Y-73747142D01*
X121667142Y-73699523D01*
X121524285Y-73604285D01*
X121333809Y-73556666D01*
X120952857Y-73556666D01*
X120857619Y-73604285D01*
X120810000Y-73651904D01*
X120762380Y-73747142D01*
X120762380Y-73937619D01*
X120810000Y-74032857D01*
X120857619Y-74080476D01*
X120952857Y-74128095D01*
X121190952Y-74128095D01*
X121286190Y-74080476D01*
X121333809Y-74032857D01*
X121381428Y-73937619D01*
X121381428Y-73747142D01*
X121333809Y-73651904D01*
X121286190Y-73604285D01*
X121190952Y-73556666D01*
X120762380Y-72651904D02*
X120762380Y-73128095D01*
X121238571Y-73175714D01*
X121190952Y-73128095D01*
X121143333Y-73032857D01*
X121143333Y-72794761D01*
X121190952Y-72699523D01*
X121238571Y-72651904D01*
X121333809Y-72604285D01*
X121571904Y-72604285D01*
X121667142Y-72651904D01*
X121714761Y-72699523D01*
X121762380Y-72794761D01*
X121762380Y-73032857D01*
X121714761Y-73128095D01*
X121667142Y-73175714D01*
X120842380Y-53108095D02*
X121651904Y-53108095D01*
X121747142Y-53060476D01*
X121794761Y-53012857D01*
X121842380Y-52917619D01*
X121842380Y-52727142D01*
X121794761Y-52631904D01*
X121747142Y-52584285D01*
X121651904Y-52536666D01*
X120842380Y-52536666D01*
X121842380Y-52012857D02*
X121842380Y-51822380D01*
X121794761Y-51727142D01*
X121747142Y-51679523D01*
X121604285Y-51584285D01*
X121413809Y-51536666D01*
X121032857Y-51536666D01*
X120937619Y-51584285D01*
X120890000Y-51631904D01*
X120842380Y-51727142D01*
X120842380Y-51917619D01*
X120890000Y-52012857D01*
X120937619Y-52060476D01*
X121032857Y-52108095D01*
X121270952Y-52108095D01*
X121366190Y-52060476D01*
X121413809Y-52012857D01*
X121461428Y-51917619D01*
X121461428Y-51727142D01*
X121413809Y-51631904D01*
X121366190Y-51584285D01*
X121270952Y-51536666D01*
X120842380Y-51203333D02*
X120842380Y-50584285D01*
X121223333Y-50917619D01*
X121223333Y-50774761D01*
X121270952Y-50679523D01*
X121318571Y-50631904D01*
X121413809Y-50584285D01*
X121651904Y-50584285D01*
X121747142Y-50631904D01*
X121794761Y-50679523D01*
X121842380Y-50774761D01*
X121842380Y-51060476D01*
X121794761Y-51155714D01*
X121747142Y-51203333D01*
X120762380Y-64248095D02*
X121571904Y-64248095D01*
X121667142Y-64200476D01*
X121714761Y-64152857D01*
X121762380Y-64057619D01*
X121762380Y-63867142D01*
X121714761Y-63771904D01*
X121667142Y-63724285D01*
X121571904Y-63676666D01*
X120762380Y-63676666D01*
X121762380Y-63152857D02*
X121762380Y-62962380D01*
X121714761Y-62867142D01*
X121667142Y-62819523D01*
X121524285Y-62724285D01*
X121333809Y-62676666D01*
X120952857Y-62676666D01*
X120857619Y-62724285D01*
X120810000Y-62771904D01*
X120762380Y-62867142D01*
X120762380Y-63057619D01*
X120810000Y-63152857D01*
X120857619Y-63200476D01*
X120952857Y-63248095D01*
X121190952Y-63248095D01*
X121286190Y-63200476D01*
X121333809Y-63152857D01*
X121381428Y-63057619D01*
X121381428Y-62867142D01*
X121333809Y-62771904D01*
X121286190Y-62724285D01*
X121190952Y-62676666D01*
X121095714Y-61819523D02*
X121762380Y-61819523D01*
X120714761Y-62057619D02*
X121429047Y-62295714D01*
X121429047Y-61676666D01*
X76261904Y-76702380D02*
X76261904Y-77511904D01*
X76309523Y-77607142D01*
X76357142Y-77654761D01*
X76452380Y-77702380D01*
X76642857Y-77702380D01*
X76738095Y-77654761D01*
X76785714Y-77607142D01*
X76833333Y-77511904D01*
X76833333Y-76702380D01*
X77785714Y-76702380D02*
X77309523Y-76702380D01*
X77261904Y-77178571D01*
X77309523Y-77130952D01*
X77404761Y-77083333D01*
X77642857Y-77083333D01*
X77738095Y-77130952D01*
X77785714Y-77178571D01*
X77833333Y-77273809D01*
X77833333Y-77511904D01*
X77785714Y-77607142D01*
X77738095Y-77654761D01*
X77642857Y-77702380D01*
X77404761Y-77702380D01*
X77309523Y-77654761D01*
X77261904Y-77607142D01*
X78738095Y-76702380D02*
X78261904Y-76702380D01*
X78214285Y-77178571D01*
X78261904Y-77130952D01*
X78357142Y-77083333D01*
X78595238Y-77083333D01*
X78690476Y-77130952D01*
X78738095Y-77178571D01*
X78785714Y-77273809D01*
X78785714Y-77511904D01*
X78738095Y-77607142D01*
X78690476Y-77654761D01*
X78595238Y-77702380D01*
X78357142Y-77702380D01*
X78261904Y-77654761D01*
X78214285Y-77607142D01*
X31681904Y-68962380D02*
X31681904Y-69771904D01*
X31729523Y-69867142D01*
X31777142Y-69914761D01*
X31872380Y-69962380D01*
X32062857Y-69962380D01*
X32158095Y-69914761D01*
X32205714Y-69867142D01*
X32253333Y-69771904D01*
X32253333Y-68962380D01*
X33253333Y-69962380D02*
X32681904Y-69962380D01*
X32967619Y-69962380D02*
X32967619Y-68962380D01*
X32872380Y-69105238D01*
X32777142Y-69200476D01*
X32681904Y-69248095D01*
X33634285Y-69057619D02*
X33681904Y-69010000D01*
X33777142Y-68962380D01*
X34015238Y-68962380D01*
X34110476Y-69010000D01*
X34158095Y-69057619D01*
X34205714Y-69152857D01*
X34205714Y-69248095D01*
X34158095Y-69390952D01*
X33586666Y-69962380D01*
X34205714Y-69962380D01*
X38761904Y-82702380D02*
X38761904Y-83511904D01*
X38809523Y-83607142D01*
X38857142Y-83654761D01*
X38952380Y-83702380D01*
X39142857Y-83702380D01*
X39238095Y-83654761D01*
X39285714Y-83607142D01*
X39333333Y-83511904D01*
X39333333Y-82702380D01*
X40333333Y-83702380D02*
X39761904Y-83702380D01*
X40047619Y-83702380D02*
X40047619Y-82702380D01*
X39952380Y-82845238D01*
X39857142Y-82940476D01*
X39761904Y-82988095D01*
X41190476Y-83035714D02*
X41190476Y-83702380D01*
X40952380Y-82654761D02*
X40714285Y-83369047D01*
X41333333Y-83369047D01*
X38891904Y-43922380D02*
X38891904Y-44731904D01*
X38939523Y-44827142D01*
X38987142Y-44874761D01*
X39082380Y-44922380D01*
X39272857Y-44922380D01*
X39368095Y-44874761D01*
X39415714Y-44827142D01*
X39463333Y-44731904D01*
X39463333Y-43922380D01*
X40463333Y-44922380D02*
X39891904Y-44922380D01*
X40177619Y-44922380D02*
X40177619Y-43922380D01*
X40082380Y-44065238D01*
X39987142Y-44160476D01*
X39891904Y-44208095D01*
X41415714Y-44922380D02*
X40844285Y-44922380D01*
X41130000Y-44922380D02*
X41130000Y-43922380D01*
X41034761Y-44065238D01*
X40939523Y-44160476D01*
X40844285Y-44208095D01*
X59940476Y-96892380D02*
X59940476Y-97606666D01*
X59892857Y-97749523D01*
X59797619Y-97844761D01*
X59654761Y-97892380D01*
X59559523Y-97892380D01*
X60892857Y-96892380D02*
X60416666Y-96892380D01*
X60369047Y-97368571D01*
X60416666Y-97320952D01*
X60511904Y-97273333D01*
X60750000Y-97273333D01*
X60845238Y-97320952D01*
X60892857Y-97368571D01*
X60940476Y-97463809D01*
X60940476Y-97701904D01*
X60892857Y-97797142D01*
X60845238Y-97844761D01*
X60750000Y-97892380D01*
X60511904Y-97892380D01*
X60416666Y-97844761D01*
X60369047Y-97797142D01*
X61797619Y-96892380D02*
X61607142Y-96892380D01*
X61511904Y-96940000D01*
X61464285Y-96987619D01*
X61369047Y-97130476D01*
X61321428Y-97320952D01*
X61321428Y-97701904D01*
X61369047Y-97797142D01*
X61416666Y-97844761D01*
X61511904Y-97892380D01*
X61702380Y-97892380D01*
X61797619Y-97844761D01*
X61845238Y-97797142D01*
X61892857Y-97701904D01*
X61892857Y-97463809D01*
X61845238Y-97368571D01*
X61797619Y-97320952D01*
X61702380Y-97273333D01*
X61511904Y-97273333D01*
X61416666Y-97320952D01*
X61369047Y-97368571D01*
X61321428Y-97463809D01*
X114640476Y-33802380D02*
X114640476Y-34516666D01*
X114592857Y-34659523D01*
X114497619Y-34754761D01*
X114354761Y-34802380D01*
X114259523Y-34802380D01*
X115164285Y-34802380D02*
X115354761Y-34802380D01*
X115450000Y-34754761D01*
X115497619Y-34707142D01*
X115592857Y-34564285D01*
X115640476Y-34373809D01*
X115640476Y-33992857D01*
X115592857Y-33897619D01*
X115545238Y-33850000D01*
X115450000Y-33802380D01*
X115259523Y-33802380D01*
X115164285Y-33850000D01*
X115116666Y-33897619D01*
X115069047Y-33992857D01*
X115069047Y-34230952D01*
X115116666Y-34326190D01*
X115164285Y-34373809D01*
X115259523Y-34421428D01*
X115450000Y-34421428D01*
X115545238Y-34373809D01*
X115592857Y-34326190D01*
X115640476Y-34230952D01*
X116021428Y-33897619D02*
X116069047Y-33850000D01*
X116164285Y-33802380D01*
X116402380Y-33802380D01*
X116497619Y-33850000D01*
X116545238Y-33897619D01*
X116592857Y-33992857D01*
X116592857Y-34088095D01*
X116545238Y-34230952D01*
X115973809Y-34802380D01*
X116592857Y-34802380D01*
X92011904Y-45202380D02*
X92011904Y-46011904D01*
X92059523Y-46107142D01*
X92107142Y-46154761D01*
X92202380Y-46202380D01*
X92392857Y-46202380D01*
X92488095Y-46154761D01*
X92535714Y-46107142D01*
X92583333Y-46011904D01*
X92583333Y-45202380D01*
X93535714Y-45202380D02*
X93059523Y-45202380D01*
X93011904Y-45678571D01*
X93059523Y-45630952D01*
X93154761Y-45583333D01*
X93392857Y-45583333D01*
X93488095Y-45630952D01*
X93535714Y-45678571D01*
X93583333Y-45773809D01*
X93583333Y-46011904D01*
X93535714Y-46107142D01*
X93488095Y-46154761D01*
X93392857Y-46202380D01*
X93154761Y-46202380D01*
X93059523Y-46154761D01*
X93011904Y-46107142D01*
X93916666Y-45202380D02*
X94535714Y-45202380D01*
X94202380Y-45583333D01*
X94345238Y-45583333D01*
X94440476Y-45630952D01*
X94488095Y-45678571D01*
X94535714Y-45773809D01*
X94535714Y-46011904D01*
X94488095Y-46107142D01*
X94440476Y-46154761D01*
X94345238Y-46202380D01*
X94059523Y-46202380D01*
X93964285Y-46154761D01*
X93916666Y-46107142D01*
X79261904Y-32077380D02*
X79261904Y-32886904D01*
X79309523Y-32982142D01*
X79357142Y-33029761D01*
X79452380Y-33077380D01*
X79642857Y-33077380D01*
X79738095Y-33029761D01*
X79785714Y-32982142D01*
X79833333Y-32886904D01*
X79833333Y-32077380D01*
X80738095Y-32410714D02*
X80738095Y-33077380D01*
X80500000Y-32029761D02*
X80261904Y-32744047D01*
X80880952Y-32744047D01*
X81166666Y-32077380D02*
X81785714Y-32077380D01*
X81452380Y-32458333D01*
X81595238Y-32458333D01*
X81690476Y-32505952D01*
X81738095Y-32553571D01*
X81785714Y-32648809D01*
X81785714Y-32886904D01*
X81738095Y-32982142D01*
X81690476Y-33029761D01*
X81595238Y-33077380D01*
X81309523Y-33077380D01*
X81214285Y-33029761D01*
X81166666Y-32982142D01*
X100532380Y-35349523D02*
X101246666Y-35349523D01*
X101389523Y-35397142D01*
X101484761Y-35492380D01*
X101532380Y-35635238D01*
X101532380Y-35730476D01*
X100865714Y-34444761D02*
X101532380Y-34444761D01*
X100484761Y-34682857D02*
X101199047Y-34920952D01*
X101199047Y-34301904D01*
X100865714Y-33492380D02*
X101532380Y-33492380D01*
X100484761Y-33730476D02*
X101199047Y-33968571D01*
X101199047Y-33349523D01*
X88202380Y-36863095D02*
X89011904Y-36863095D01*
X89107142Y-36815476D01*
X89154761Y-36767857D01*
X89202380Y-36672619D01*
X89202380Y-36482142D01*
X89154761Y-36386904D01*
X89107142Y-36339285D01*
X89011904Y-36291666D01*
X88202380Y-36291666D01*
X88535714Y-35386904D02*
X89202380Y-35386904D01*
X88154761Y-35625000D02*
X88869047Y-35863095D01*
X88869047Y-35244047D01*
X88297619Y-34910714D02*
X88250000Y-34863095D01*
X88202380Y-34767857D01*
X88202380Y-34529761D01*
X88250000Y-34434523D01*
X88297619Y-34386904D01*
X88392857Y-34339285D01*
X88488095Y-34339285D01*
X88630952Y-34386904D01*
X89202380Y-34958333D01*
X89202380Y-34339285D01*
X98386904Y-88702380D02*
X98386904Y-89511904D01*
X98434523Y-89607142D01*
X98482142Y-89654761D01*
X98577380Y-89702380D01*
X98767857Y-89702380D01*
X98863095Y-89654761D01*
X98910714Y-89607142D01*
X98958333Y-89511904D01*
X98958333Y-88702380D01*
X99910714Y-88702380D02*
X99434523Y-88702380D01*
X99386904Y-89178571D01*
X99434523Y-89130952D01*
X99529761Y-89083333D01*
X99767857Y-89083333D01*
X99863095Y-89130952D01*
X99910714Y-89178571D01*
X99958333Y-89273809D01*
X99958333Y-89511904D01*
X99910714Y-89607142D01*
X99863095Y-89654761D01*
X99767857Y-89702380D01*
X99529761Y-89702380D01*
X99434523Y-89654761D01*
X99386904Y-89607142D01*
X100339285Y-88797619D02*
X100386904Y-88750000D01*
X100482142Y-88702380D01*
X100720238Y-88702380D01*
X100815476Y-88750000D01*
X100863095Y-88797619D01*
X100910714Y-88892857D01*
X100910714Y-88988095D01*
X100863095Y-89130952D01*
X100291666Y-89702380D01*
X100910714Y-89702380D01*
X108021904Y-88732380D02*
X108021904Y-89541904D01*
X108069523Y-89637142D01*
X108117142Y-89684761D01*
X108212380Y-89732380D01*
X108402857Y-89732380D01*
X108498095Y-89684761D01*
X108545714Y-89637142D01*
X108593333Y-89541904D01*
X108593333Y-88732380D01*
X109545714Y-88732380D02*
X109069523Y-88732380D01*
X109021904Y-89208571D01*
X109069523Y-89160952D01*
X109164761Y-89113333D01*
X109402857Y-89113333D01*
X109498095Y-89160952D01*
X109545714Y-89208571D01*
X109593333Y-89303809D01*
X109593333Y-89541904D01*
X109545714Y-89637142D01*
X109498095Y-89684761D01*
X109402857Y-89732380D01*
X109164761Y-89732380D01*
X109069523Y-89684761D01*
X109021904Y-89637142D01*
X110545714Y-89732380D02*
X109974285Y-89732380D01*
X110260000Y-89732380D02*
X110260000Y-88732380D01*
X110164761Y-88875238D01*
X110069523Y-88970476D01*
X109974285Y-89018095D01*
X111310476Y-32648571D02*
X110977142Y-32648571D01*
X110977142Y-33172380D02*
X110977142Y-32172380D01*
X111453333Y-32172380D01*
X111881904Y-33172380D02*
X112072380Y-33172380D01*
X112167619Y-33124761D01*
X112215238Y-33077142D01*
X112310476Y-32934285D01*
X112358095Y-32743809D01*
X112358095Y-32362857D01*
X112310476Y-32267619D01*
X112262857Y-32220000D01*
X112167619Y-32172380D01*
X111977142Y-32172380D01*
X111881904Y-32220000D01*
X111834285Y-32267619D01*
X111786666Y-32362857D01*
X111786666Y-32600952D01*
X111834285Y-32696190D01*
X111881904Y-32743809D01*
X111977142Y-32791428D01*
X112167619Y-32791428D01*
X112262857Y-32743809D01*
X112310476Y-32696190D01*
X112358095Y-32600952D01*
X113310476Y-33172380D02*
X112739047Y-33172380D01*
X113024761Y-33172380D02*
X113024761Y-32172380D01*
X112929523Y-32315238D01*
X112834285Y-32410476D01*
X112739047Y-32458095D01*
X117097142Y-78217142D02*
X117049523Y-78264761D01*
X116906666Y-78312380D01*
X116811428Y-78312380D01*
X116668571Y-78264761D01*
X116573333Y-78169523D01*
X116525714Y-78074285D01*
X116478095Y-77883809D01*
X116478095Y-77740952D01*
X116525714Y-77550476D01*
X116573333Y-77455238D01*
X116668571Y-77360000D01*
X116811428Y-77312380D01*
X116906666Y-77312380D01*
X117049523Y-77360000D01*
X117097142Y-77407619D01*
X117573333Y-78312380D02*
X117763809Y-78312380D01*
X117859047Y-78264761D01*
X117906666Y-78217142D01*
X118001904Y-78074285D01*
X118049523Y-77883809D01*
X118049523Y-77502857D01*
X118001904Y-77407619D01*
X117954285Y-77360000D01*
X117859047Y-77312380D01*
X117668571Y-77312380D01*
X117573333Y-77360000D01*
X117525714Y-77407619D01*
X117478095Y-77502857D01*
X117478095Y-77740952D01*
X117525714Y-77836190D01*
X117573333Y-77883809D01*
X117668571Y-77931428D01*
X117859047Y-77931428D01*
X117954285Y-77883809D01*
X118001904Y-77836190D01*
X118049523Y-77740952D01*
X118954285Y-77312380D02*
X118478095Y-77312380D01*
X118430476Y-77788571D01*
X118478095Y-77740952D01*
X118573333Y-77693333D01*
X118811428Y-77693333D01*
X118906666Y-77740952D01*
X118954285Y-77788571D01*
X119001904Y-77883809D01*
X119001904Y-78121904D01*
X118954285Y-78217142D01*
X118906666Y-78264761D01*
X118811428Y-78312380D01*
X118573333Y-78312380D01*
X118478095Y-78264761D01*
X118430476Y-78217142D01*
X114477142Y-64907142D02*
X114429523Y-64954761D01*
X114286666Y-65002380D01*
X114191428Y-65002380D01*
X114048571Y-64954761D01*
X113953333Y-64859523D01*
X113905714Y-64764285D01*
X113858095Y-64573809D01*
X113858095Y-64430952D01*
X113905714Y-64240476D01*
X113953333Y-64145238D01*
X114048571Y-64050000D01*
X114191428Y-64002380D01*
X114286666Y-64002380D01*
X114429523Y-64050000D01*
X114477142Y-64097619D01*
X114953333Y-65002380D02*
X115143809Y-65002380D01*
X115239047Y-64954761D01*
X115286666Y-64907142D01*
X115381904Y-64764285D01*
X115429523Y-64573809D01*
X115429523Y-64192857D01*
X115381904Y-64097619D01*
X115334285Y-64050000D01*
X115239047Y-64002380D01*
X115048571Y-64002380D01*
X114953333Y-64050000D01*
X114905714Y-64097619D01*
X114858095Y-64192857D01*
X114858095Y-64430952D01*
X114905714Y-64526190D01*
X114953333Y-64573809D01*
X115048571Y-64621428D01*
X115239047Y-64621428D01*
X115334285Y-64573809D01*
X115381904Y-64526190D01*
X115429523Y-64430952D01*
X116286666Y-64335714D02*
X116286666Y-65002380D01*
X116048571Y-63954761D02*
X115810476Y-64669047D01*
X116429523Y-64669047D01*
X114162380Y-25133095D02*
X114971904Y-25133095D01*
X115067142Y-25085476D01*
X115114761Y-25037857D01*
X115162380Y-24942619D01*
X115162380Y-24752142D01*
X115114761Y-24656904D01*
X115067142Y-24609285D01*
X114971904Y-24561666D01*
X114162380Y-24561666D01*
X115162380Y-24037857D02*
X115162380Y-23847380D01*
X115114761Y-23752142D01*
X115067142Y-23704523D01*
X114924285Y-23609285D01*
X114733809Y-23561666D01*
X114352857Y-23561666D01*
X114257619Y-23609285D01*
X114210000Y-23656904D01*
X114162380Y-23752142D01*
X114162380Y-23942619D01*
X114210000Y-24037857D01*
X114257619Y-24085476D01*
X114352857Y-24133095D01*
X114590952Y-24133095D01*
X114686190Y-24085476D01*
X114733809Y-24037857D01*
X114781428Y-23942619D01*
X114781428Y-23752142D01*
X114733809Y-23656904D01*
X114686190Y-23609285D01*
X114590952Y-23561666D01*
X114257619Y-23180714D02*
X114210000Y-23133095D01*
X114162380Y-23037857D01*
X114162380Y-22799761D01*
X114210000Y-22704523D01*
X114257619Y-22656904D01*
X114352857Y-22609285D01*
X114448095Y-22609285D01*
X114590952Y-22656904D01*
X115162380Y-23228333D01*
X115162380Y-22609285D01*
M02*
