M48
INCH,TZ
T1C0.0118
T2C0.0150
T3C0.0394
T4C0.0400
T5C0.0472
%
G90
G05
T1
X9831Y-17713
X10352Y-17079
X10411Y-19506
X10929Y-19508
X10937Y-18476
X10949Y-18965
X11474Y-17632
X13150Y-30846
X13169Y-28307
X13248Y-16469
X13501Y-23343
X13504Y-27736
X13698Y-23146
X13870Y-17980
X13878Y-25866
X13913Y-35343
X14000Y-32417
X14026Y-15978
X14665Y-30394
X15417Y-27417
X15417Y-29339
X15417Y-33445
X15417Y-34394
X15418Y-35352
X15429Y-26394
X15436Y-28340
X15436Y-30299
X15449Y-23817
X15453Y-31425
X16161Y-36907
X16181Y-17028
X16280Y-32480
X16358Y-30846
X16360Y-28012
X16661Y-20169
X17087Y-17283
X17106Y-34547
X17126Y-35335
X17161Y-34064
X17271Y-34321
X17283Y-34783
X17406Y-21185
X17519Y-24215
X17717Y-24016
X18110Y-13307
X18406Y-17008
X18610Y-11358
X18764Y-14126
X19000Y-22445
X19000Y-26764
X19146Y-15480
X19276Y-30992
X19307Y-11181
X19331Y-31772
X19339Y-31331
X19370Y-14705
X19393Y-32453
X19421Y-19870
X19469Y-35315
X19531Y-17780
X19593Y-31216
X19602Y-31706
X19612Y-14564
X19661Y-22157
X19665Y-29902
X19768Y-11189
X19863Y-14686
X19874Y-15992
X19911Y-22407
X20059Y-27008
X20098Y-17461
X20138Y-14547
X20177Y-30748
X20236Y-11189
X20399Y-14648
X20437Y-31343
X20647Y-15730
X20709Y-11268
X20863Y-12124
X20925Y-15492
X21022Y-12369
X21293Y-12299
X21528Y-29376
X21530Y-27331
X21539Y-28350
X21555Y-30376
X21791Y-12224
X21929Y-27343
X21940Y-26732
X21990Y-23485
X22000Y-24811
X22040Y-26351
X22064Y-31114
X22075Y-30222
X22075Y-30720
X22096Y-24166
X22117Y-20346
X22125Y-20787
X22129Y-22333
X22140Y-23721
X22191Y-21935
X22244Y-26024
X22283Y-12579
X22305Y-24352
X22323Y-20571
X22323Y-20984
X22330Y-22530
X22389Y-22133
X22785Y-13100
X22906Y-9457
X22988Y-25087
X22992Y-13602
X23004Y-17000
X23010Y-15474
X23011Y-14350
X23031Y-14764
X23031Y-15846
X23031Y-16240
X23031Y-16634
X23072Y-15100
X23091Y-23504
X23209Y-23839
X23307Y-10650
X23390Y-20372
X23424Y-23456
X23543Y-21469
X23555Y-12669
X23589Y-23230
X23819Y-28543
X23846Y-28205
X23866Y-23195
X23916Y-21521
X23951Y-26124
X23957Y-26760
X23957Y-27126
X24004Y-25067
X24016Y-19094
X24091Y-26366
X24231Y-11145
X24232Y-11516
X24311Y-9921
X24331Y-32992
X24362Y-26158
X24449Y-33622
X24449Y-35197
X24449Y-35984
X24463Y-15380
X24482Y-16864
X24483Y-16080
X24488Y-36772
X24488Y-34409
X24505Y-26398
X24528Y-36378
X24528Y-34016
X24538Y-14496
X24567Y-34803
X24567Y-35600
X24724Y-10000
X24760Y-26153
X24768Y-20317
X24795Y-24614
X24799Y-23817
X24801Y-23022
X24803Y-23419
X24813Y-21058
X24813Y-24240
X24815Y-21476
X24902Y-26410
X24980Y-38303
X25059Y-36575
X25059Y-37697
X25074Y-35819
X25158Y-26165
X25175Y-23041
X25180Y-22643
X25189Y-21049
X25195Y-23439
X25197Y-19474
X25197Y-20669
X25197Y-24606
X25202Y-21466
X25213Y-24201
X25300Y-26423
X25335Y-10531
X25439Y-17874
X25465Y-16451
X25555Y-26179
X25579Y-21445
X25591Y-19094
X25591Y-20276
X25593Y-23437
X25594Y-24606
X25595Y-19480
X25598Y-23039
X25598Y-22642
X25606Y-21086
X25606Y-22242
X25609Y-24209
X25610Y-9902
X25614Y-21843
X25698Y-26457
X25768Y-35748
X25768Y-36575
X25787Y-37677
X25787Y-38900
X25811Y-17130
X25886Y-18583
X25894Y-30161
X25965Y-23402
X25969Y-23031
X25976Y-22245
X25976Y-22639
X25976Y-21858
X25979Y-19876
X25980Y-19105
X25984Y-20669
X25996Y-21437
X25997Y-23817
X26007Y-24236
X26031Y-21031
X26040Y-18832
X26082Y-10744
X26083Y-9980
X26092Y-26326
X26164Y-27524
X26350Y-19906
X26364Y-21061
X26376Y-23803
X26378Y-24228
X26380Y-20283
X26382Y-21469
X26386Y-26044
X26391Y-23034
X26394Y-23441
X26402Y-21858
X26405Y-22656
X26417Y-35374
X26417Y-37283
X26429Y-16409
X26550Y-19024
X26608Y-26252
X26728Y-27812
X26758Y-20307
X26760Y-23413
X26764Y-24584
X26772Y-19867
X26776Y-20658
X26776Y-22252
X26783Y-21075
X26797Y-21504
X26800Y-18260
X26803Y-23049
X26949Y-27598
X26992Y-38512
X27028Y-37795
X27066Y-18974
X27126Y-27835
X27158Y-24236
X27161Y-23024
X27161Y-22268
X27162Y-21465
X27165Y-21047
X27165Y-23803
X27165Y-28866
X27169Y-23425
X27173Y-19886
X27177Y-20666
X27283Y-10276
X27301Y-18040
X27343Y-18675
X27345Y-32817
X27362Y-27598
X27402Y-35354
X27504Y-30531
X27541Y-19504
X27544Y-21457
X27547Y-19882
X27549Y-22628
X27552Y-20681
X27555Y-22240
X27558Y-24590
X27661Y-9907
X27756Y-38356
X27795Y-32638
X27795Y-37894
X27798Y-18267
X27907Y-30693
X27941Y-22626
X27946Y-18755
X27953Y-20646
X27953Y-22240
X27957Y-23413
X27957Y-23830
X27960Y-24614
X27965Y-24198
X27968Y-21063
X27975Y-21435
X28011Y-14607
X28011Y-15707
X28030Y-32133
X28063Y-27205
X28071Y-10315
X28200Y-30474
X28211Y-12474
X28225Y-18583
X28303Y-12992
X28330Y-21815
X28343Y-19894
X28345Y-20665
X28345Y-24620
X28346Y-23425
X28354Y-23039
X28361Y-22639
X28362Y-22244
X28398Y-30753
X28399Y-18801
X28598Y-30455
X28622Y-18498
X28713Y-21838
X28720Y-22634
X28720Y-22236
X28720Y-20295
X28728Y-24609
X28731Y-20664
X28736Y-19894
X28744Y-23414
X28752Y-21083
X28756Y-23843
X28760Y-15728
X28797Y-18733
X28806Y-30659
X28811Y-14557
X28995Y-30428
X29020Y-18504
X29111Y-14346
X29116Y-24604
X29130Y-20280
X29132Y-19868
X29134Y-21078
X29138Y-23815
X29140Y-22650
X29148Y-20650
X29157Y-22213
X29195Y-18770
X29206Y-30641
X29393Y-30415
X29446Y-18648
X29500Y-21831
X29515Y-23816
X29520Y-21079
X29528Y-19866
X29529Y-20656
X29531Y-22238
X29544Y-22637
X29603Y-18893
X29603Y-30656
X29791Y-30425
X29906Y-21825
X29919Y-24194
X29976Y-14728
X30068Y-30462
X30071Y-15665
X30198Y-27223
X30299Y-25343
X30345Y-30428
X30402Y-21839
X30407Y-26412
X30414Y-19506
X30433Y-33307
X30456Y-22374
X30548Y-22890
X30579Y-20839
X30599Y-27292
X30630Y-32972
X30709Y-11575
X30740Y-10469
X30752Y-15650
X30760Y-13867
X30906Y-24114
X30914Y-27326
X30921Y-14516
X31147Y-31037
X31303Y-19209
X31320Y-27202
X31503Y-27453
X31516Y-33366
X31610Y-31358
X31717Y-27227
X31720Y-24504
X31728Y-24906
X31827Y-25484
X31921Y-27424
X31938Y-24717
X31945Y-24291
X31949Y-15256
X31961Y-25138
X32001Y-25706
X32047Y-34815
X32047Y-37587
X32063Y-17598
X32079Y-16614
X32083Y-36976
X32083Y-38665
X32115Y-27215
X32213Y-31386
X32273Y-13501
X32283Y-19094
X32287Y-26079
X32326Y-27417
X32429Y-32957
X32429Y-33406
X32429Y-35394
X32512Y-27190
X32677Y-20866
X32717Y-36886
X32717Y-37587
X32723Y-27373
X32730Y-17628
X32752Y-32126
X32752Y-38665
X32756Y-16626
X32772Y-34799
X32839Y-23165
X32863Y-18998
X32874Y-23917
X32906Y-14386
X32921Y-24315
X32939Y-27196
X32973Y-24719
X32986Y-31327
X33072Y-20668
X33164Y-23978
X33205Y-24375
X33264Y-31359
X33264Y-13689
X33280Y-13047
X33285Y-24773
X33315Y-21162
X33315Y-25171
X33330Y-23753
X33337Y-27240
X33444Y-30846
X33465Y-9646
X33469Y-20923
X33541Y-31323
X33612Y-27291
X33703Y-12661
X33715Y-21219
X33811Y-31396
X33833Y-31099
X33866Y-20980
X33910Y-27165
X34047Y-13574
X34060Y-20415
X34061Y-27400
X34121Y-21094
X34169Y-39118
X34228Y-11492
X34308Y-27176
X34338Y-20917
X34400Y-21926
X34459Y-12717
X34480Y-27396
X34487Y-28054
X34541Y-19567
X34547Y-20496
X34554Y-19138
X34564Y-19964
X34564Y-24420
X34565Y-23622
X34570Y-23219
X34571Y-24732
X34578Y-24020
X34585Y-22789
X34587Y-27793
X34596Y-22126
X34657Y-12059
X34719Y-27546
X34764Y-23004
X34780Y-18969
X34783Y-23413
X34787Y-24251
X34791Y-19413
X34795Y-28331
X34807Y-23811
X34827Y-11630
X34837Y-19908
X34839Y-20311
X34901Y-22157
X34937Y-10185
X35004Y-14650
X35024Y-15665
X35138Y-21256
X35146Y-18965
X35157Y-22276
X35197Y-28358
X35272Y-22698
X35411Y-22394
X35512Y-39118
X35659Y-23808
X35799Y-14614
X35801Y-15659
X36043Y-31634
X36043Y-33563
X36048Y-29925
X36052Y-24324
X36062Y-34632
X36083Y-32736
X36167Y-30178
X36240Y-28299
X36248Y-37929
X36511Y-22157
X36531Y-21159
X36719Y-35210
X36732Y-32736
X36742Y-31585
X36752Y-33563
X36772Y-34744
X36850Y-37520
X36890Y-39118
X37119Y-37393
X37389Y-37467
X37436Y-22532
X37652Y-37374
X37699Y-22773
X37798Y-25006
X37906Y-25264
X37915Y-37468
X38043Y-14626
X38051Y-15661
X38146Y-37295
X38150Y-22147
X38156Y-26535
X38179Y-26934
X38290Y-25098
X38295Y-39118
X38361Y-18157
X38372Y-19592
X38428Y-37444
X38543Y-20591
X38547Y-22147
X38553Y-26539
X38577Y-26923
X38636Y-22567
X38688Y-25095
X38699Y-37376
X38713Y-23964
X38760Y-15646
X38764Y-12201
X38783Y-14622
X38880Y-16634
X38910Y-20955
X38913Y-37555
X38922Y-19315
X38945Y-22133
X38951Y-26482
X38975Y-26870
X39028Y-23504
X39046Y-22568
X39101Y-25096
X39138Y-36150
X39252Y-20591
X39343Y-22119
X39351Y-26485
X39372Y-26867
X39409Y-23937
X39420Y-19445
X39443Y-22580
X39498Y-25113
X39534Y-19048
X39567Y-20945
X39591Y-35220
X39661Y-23558
X39744Y-22138
X39749Y-26552
X39764Y-38583
X39770Y-26831
X39783Y-17861
X39862Y-22537
X39896Y-25112
X40028Y-20551
X40046Y-26872
X40053Y-19628
X40059Y-22087
X40059Y-16654
X40074Y-23991
X40142Y-38335
X40150Y-17886
X40157Y-29331
X40177Y-23527
X40252Y-19094
X40265Y-26522
X40268Y-36150
X40272Y-37508
X40412Y-25073
X40444Y-26824
X40445Y-22559
X40457Y-22060
X40537Y-37411
X40569Y-19566
X40575Y-23543
X40630Y-20945
X40661Y-20610
X40665Y-17862
X40683Y-26503
X40740Y-16626
X40768Y-18984
X40809Y-25034
X40843Y-22519
X40854Y-22033
X40884Y-26852
X40898Y-37374
X40933Y-28260
X40953Y-23898
X40973Y-23532
X41134Y-30819
X41177Y-20594
X41182Y-25427
X41208Y-37365
X41211Y-17939
X41243Y-26598
X41358Y-25085
X41417Y-21024
X41419Y-26882
X41457Y-23976
X41465Y-29866
X41486Y-37392
X41569Y-23530
X41579Y-9472
X41610Y-22059
X41641Y-26615
X41642Y-9835
X41656Y-22545
X41756Y-25116
X41761Y-37341
X41770Y-19134
X41791Y-38335
X41827Y-26922
X41886Y-20560
X41967Y-23543
X42006Y-19565
X42008Y-22104
X42017Y-37228
X42043Y-15740
X42049Y-26620
X42052Y-22424
X42055Y-14626
X42154Y-25110
X42203Y-21024
X42221Y-37037
X42228Y-26843
X42283Y-24016
X42400Y-19094
X42406Y-22054
X42431Y-36780
X42439Y-22583
X42446Y-26603
X42551Y-25096
X42555Y-38583
X42563Y-36224
X42598Y-20630
X42626Y-26824
X42634Y-23537
X42640Y-19567
X42752Y-14646
X42752Y-15768
X42803Y-22075
X42844Y-26537
X42847Y-22551
X42872Y-24016
X42921Y-36252
X42949Y-25048
X42996Y-20630
X43001Y-19223
X43023Y-26886
X43161Y-12579
X43201Y-22085
X43242Y-26575
X43245Y-22508
X43268Y-23583
X43287Y-9524
X43303Y-9157
X43307Y-39118
X43325Y-9890
X43347Y-24974
X43348Y-21015
X43382Y-19488
X43421Y-26966
X43543Y-24016
X43587Y-19093
X43598Y-22038
X43630Y-36701
X43630Y-20591
X43643Y-22523
X43661Y-26535
X43744Y-24971
X43820Y-26950
X43898Y-36417
X43898Y-38976
X43976Y-23661
X43996Y-22020
X44016Y-20945
X44040Y-22504
X44124Y-26569
X44140Y-19474
X44142Y-25000
X44291Y-20630
X44394Y-22011
X44409Y-26890
X44647Y-22430
X45669Y-39118
X45846Y-37224
X46260Y-36417
X46260Y-38780
T2
X15630Y-24843
X23098Y-21484
X28911Y-27907
X33420Y-18205
X33882Y-14807
X36937Y-30870
X37024Y-23961
X37024Y-28638
X37924Y-23851
X44382Y-16150
X44657Y-23886
X45917Y-29571
X46122Y-20787
X46161Y-23547
X46197Y-25118
X46315Y-16555
X46366Y-34972
X46850Y-31614
X46850Y-37402
X46933Y-27185
X46965Y-18654
X46965Y-22760
T3
X18100Y-9469
X18100Y-11240
X22372Y-9469
X22372Y-11240
X29411Y-9907
X29411Y-10907
X29411Y-11907
X14661Y-38407
X14661Y-39407
X15661Y-38407
X15661Y-39407
X16661Y-38407
X16661Y-39407
X17661Y-38407
X17661Y-39407
X18661Y-38407
X18661Y-39407
X19661Y-38407
X19661Y-39407
X20661Y-38407
X20661Y-39407
X21661Y-38407
X21661Y-39407
X22661Y-38407
X22661Y-39407
X9411Y-20657
X9411Y-21657
X9411Y-22657
X13161Y-24657
X13161Y-25657
X13161Y-26657
X47244Y-14142
X47244Y-15142
X47244Y-16142
X9411Y-24657
X9411Y-25657
X9411Y-26657
X35827Y-13583
X36827Y-13583
X37827Y-13583
X38827Y-13583
X41535Y-13583
X42535Y-13583
X13161Y-20657
X13161Y-21657
X9411Y-29407
X9411Y-30407
X9411Y-31407
X9411Y-32407
X9411Y-33407
X9411Y-34407
X9411Y-35407
X9411Y-36407
X9411Y-37407
X9411Y-38407
X9411Y-39407
X10411Y-29407
X10411Y-30407
X10411Y-31407
X10411Y-32407
X10411Y-33407
X10411Y-34407
X10411Y-35407
X10411Y-36407
X10411Y-37407
X10411Y-38407
X10411Y-39407
X32161Y-9907
X32161Y-10907
X32161Y-11907
T4
X35764Y-10407
X35764Y-11407
X36764Y-10407
X36764Y-11407
X37764Y-10407
X37764Y-11407
X38764Y-10407
X38764Y-11407
X39764Y-10407
X39764Y-11407
T5
X9498Y-13022
X12057Y-13022
X14026Y-13022
X46457Y-9449
X46457Y-10449
X46457Y-11449
X46457Y-12449
T0
M30
