M48
METRIC
T1C0.300
T2C0.381
T3C1.000
T4C1.016
T5C1.200
%
G90
G05
T1
X24.97Y-44.99
X26.295Y-43.38
X26.445Y-49.545
X27.76Y-49.55
X27.78Y-46.93
X27.81Y-48.17
X28.848Y-37.022
X29.145Y-44.785
X33.35Y-80.95
X33.4Y-78.35
X33.45Y-71.9
X33.65Y-41.83
X34.278Y-59.318
X34.3Y-85.25
X34.5Y-70.25
X34.513Y-58.753
X34.85Y-93.15
X34.87Y-83.461
X34.873Y-46.023
X34.941Y-66.206
X35.335Y-98.19
X35.34Y-89.77
X35.625Y-40.585
X37.25Y-77.2
X37.5Y-67.04
X37.5Y-69.5
X39.16Y-74.52
X39.16Y-84.95
X39.16Y-87.36
X39.163Y-89.795
X39.208Y-71.984
X39.208Y-76.96
X39.24Y-60.495
X39.25Y-79.82
X41.034Y-71.671
X41.05Y-93.745
X41.1Y-43.25
X41.35Y-82.525
X41.55Y-78.35
X42.32Y-51.23
X43.45Y-87.75
X43.5Y-89.75
X43.589Y-86.523
X43.868Y-87.176
X43.9Y-88.35
X44.21Y-53.81
X44.498Y-61.505
X45.0Y-43.9
X45.0Y-61.0
X46.0Y-33.8
X46.75Y-43.2
X47.27Y-28.85
X47.66Y-35.88
X48.26Y-57.01
X48.26Y-67.98
X48.476Y-79.284
X48.5Y-77.0
X48.5Y-77.75
X48.5Y-78.5
X48.5Y-80.0
X48.686Y-39.264
X49.04Y-28.4
X49.145Y-89.395
X49.2Y-37.35
X49.25Y-44.5
X49.259Y-82.43
X49.33Y-50.47
X49.813Y-36.992
X49.94Y-56.28
X49.95Y-75.95
X50.21Y-28.42
X50.453Y-37.301
X50.48Y-40.62
X50.575Y-56.915
X50.95Y-68.6
X51.05Y-44.35
X51.15Y-36.95
X51.25Y-78.1
X51.4Y-28.42
X51.813Y-37.205
X51.91Y-79.61
X52.6Y-28.62
X52.75Y-40.25
X52.992Y-30.796
X53.15Y-39.35
X53.397Y-31.418
X53.75Y-74.616
X53.75Y-77.156
X53.75Y-79.75
X54.084Y-31.24
X54.686Y-69.42
X54.71Y-72.01
X55.35Y-31.05
X55.7Y-69.45
X56.003Y-59.308
X56.171Y-77.098
X56.178Y-51.679
X56.208Y-56.725
X56.323Y-52.798
X56.365Y-55.715
X56.366Y-62.536
X56.455Y-59.999
X56.508Y-60.923
X56.533Y-61.733
X56.6Y-31.95
X56.605Y-67.405
X56.651Y-66.57
X56.652Y-65.952
X56.7Y-53.3
X56.719Y-57.227
X56.747Y-52.173
X56.867Y-56.217
X57.875Y-33.28
X58.18Y-24.02
X58.4Y-34.55
X58.505Y-28.0
X58.65Y-59.7
X58.75Y-36.5
X58.75Y-37.75
X58.75Y-39.25
X58.75Y-40.5
X58.75Y-42.0
X58.75Y-43.25
X58.75Y-44.75
X58.75Y-46.0
X58.766Y-63.749
X58.95Y-60.55
X59.0Y-73.25
X59.3Y-84.8
X59.3Y-86.15
X59.498Y-59.579
X59.727Y-52.048
X59.8Y-54.53
X59.83Y-32.75
X59.916Y-59.005
X60.5Y-25.5
X60.5Y-54.5
X60.5Y-72.5
X60.57Y-71.64
X60.62Y-58.915
X60.837Y-66.355
X60.85Y-67.97
X60.85Y-68.9
X60.97Y-63.67
X61.0Y-48.5
X61.1Y-73.15
X61.191Y-66.97
X61.75Y-92.75
X61.75Y-81.75
X61.75Y-83.5
X61.75Y-85.5
X61.75Y-87.25
X61.75Y-89.0
X61.75Y-90.75
X61.75Y-94.5
X61.85Y-73.1
X61.88Y-66.44
X62.032Y-45.418
X62.075Y-42.625
X62.1Y-37.15
X62.115Y-39.835
X62.242Y-67.052
X62.5Y-29.25
X62.5Y-31.25
X62.8Y-25.4
X62.89Y-66.429
X62.993Y-54.575
X62.995Y-60.495
X62.995Y-58.505
X63.0Y-51.5
X63.0Y-61.5
X63.0Y-62.5
X63.0Y-59.5
X63.025Y-53.5
X63.252Y-99.051
X63.252Y-67.081
X63.65Y-95.75
X63.75Y-26.75
X63.75Y-79.75
X63.75Y-98.25
X63.829Y-90.98
X63.829Y-92.9
X63.9Y-66.46
X63.995Y-59.5
X64.0Y-61.5
X64.0Y-52.5
X64.0Y-53.5
X64.0Y-54.5
X64.0Y-57.5
X64.0Y-58.5
X64.0Y-62.5
X64.036Y-49.519
X64.262Y-67.114
X64.631Y-45.929
X64.671Y-41.797
X64.75Y-48.25
X64.91Y-66.496
X64.997Y-49.519
X65.0Y-54.5
X65.0Y-51.5
X65.0Y-53.5
X65.0Y-55.5
X65.0Y-56.5
X65.0Y-57.5
X65.0Y-58.5
X65.0Y-61.5
X65.005Y-59.505
X65.01Y-62.5
X65.05Y-25.15
X65.272Y-67.202
X65.411Y-42.949
X65.45Y-90.8
X65.45Y-92.9
X65.5Y-95.7
X65.5Y-98.805
X65.75Y-27.0
X65.75Y-47.2
X65.77Y-76.61
X65.999Y-56.501
X66.0Y-58.5
X66.0Y-48.527
X66.0Y-50.5
X66.0Y-54.5
X66.0Y-55.5
X66.0Y-57.504
X66.0Y-59.49
X66.0Y-60.5
X66.0Y-61.5
X66.0Y-52.5
X66.023Y-53.495
X66.142Y-47.833
X66.25Y-25.35
X66.274Y-66.868
X66.457Y-69.91
X66.6Y-65.9
X66.994Y-58.506
X67.0Y-60.5
X67.0Y-57.49
X67.0Y-41.68
X67.0Y-50.5
X67.0Y-55.5
X67.0Y-59.5
X67.003Y-53.503
X67.003Y-51.497
X67.01Y-54.5
X67.015Y-61.513
X67.437Y-48.32
X67.557Y-47.464
X67.584Y-66.68
X67.758Y-89.45
X67.89Y-70.45
X68.0Y-52.5
X68.0Y-53.5
X68.0Y-54.5
X68.0Y-56.5
X68.0Y-58.545
X68.0Y-59.5
X68.0Y-62.5
X68.001Y-50.501
X68.072Y-46.38
X68.426Y-70.082
X68.75Y-95.75
X68.75Y-98.0
X68.751Y-48.195
X68.842Y-80.002
X68.877Y-47.445
X68.9Y-70.45
X68.927Y-73.045
X68.99Y-56.5
X68.999Y-53.5
X69.0Y-60.5
X69.0Y-52.5
X69.0Y-59.5
X69.0Y-50.5
X69.0Y-54.5
X69.0Y-61.5
X69.0Y-58.5
X69.18Y-89.43
X69.2Y-27.8
X69.376Y-46.092
X69.376Y-83.727
X69.488Y-47.419
X69.5Y-70.1
X69.86Y-77.55
X69.995Y-58.5
X70.0Y-54.5
X70.0Y-49.5
X70.0Y-50.5
X70.0Y-52.5
X70.0Y-56.5
X70.0Y-57.5
X70.0Y-59.5
X70.0Y-60.5
X70.0Y-62.5
X70.26Y-25.165
X70.5Y-95.75
X70.5Y-98.0
X70.6Y-82.9
X70.63Y-46.399
X70.883Y-77.961
X70.982Y-47.637
X71.0Y-52.5
X71.0Y-54.5
X71.0Y-56.5
X71.0Y-57.5
X71.0Y-58.5
X71.0Y-60.5
X71.0Y-61.5
X71.149Y-37.103
X71.149Y-39.897
X71.28Y-69.1
X71.3Y-28.3
X71.628Y-77.404
X71.691Y-47.201
X71.8Y-32.0
X71.823Y-32.906
X71.996Y-52.504
X71.996Y-62.496
X72.0Y-50.5
X72.0Y-53.5
X72.0Y-55.5
X72.0Y-59.5
X72.0Y-61.5
X72.0Y-58.5
X72.0Y-56.5
X72.002Y-57.502
X72.131Y-78.113
X72.135Y-47.755
X72.638Y-77.355
X72.701Y-46.984
X72.8Y-33.6
X73.0Y-50.5
X73.0Y-51.5
X73.0Y-52.487
X73.0Y-53.5
X73.0Y-55.5
X73.0Y-56.5
X73.0Y-57.5
X73.0Y-62.5
X73.0Y-61.5
X73.01Y-59.5
X73.05Y-39.95
X73.145Y-47.582
X73.167Y-77.875
X73.181Y-36.976
X73.648Y-77.286
X73.711Y-47.0
X73.987Y-60.513
X74.0Y-53.5
X74.0Y-50.5
X74.0Y-51.5
X74.0Y-52.5
X74.0Y-56.5
X74.0Y-57.5
X74.0Y-62.5
X74.155Y-47.676
X74.182Y-77.828
X74.658Y-77.254
X74.793Y-47.365
X75.0Y-52.5
X75.0Y-53.5
X75.0Y-55.5
X75.0Y-57.5
X75.0Y-60.5
X75.0Y-50.5
X75.008Y-56.5
X75.191Y-47.989
X75.192Y-77.865
X75.482Y-65.768
X75.668Y-77.28
X75.75Y-66.5
X75.961Y-55.5
X76.0Y-61.5
X76.25Y-39.818
X76.25Y-37.0
X76.372Y-77.373
X76.6Y-26.0
X76.6Y-29.8
X76.616Y-68.25
X76.703Y-69.147
X77.077Y-77.288
X77.25Y-49.5
X77.25Y-55.5
X77.25Y-64.5
X77.252Y-56.773
X77.266Y-84.915
X77.476Y-58.047
X77.67Y-52.93
X77.721Y-69.321
X77.74Y-83.66
X78.25Y-37.0
X78.25Y-39.75
X78.5Y-35.94
X78.5Y-61.25
X78.521Y-69.407
X78.538Y-48.725
X79.0Y-88.75
X79.02Y-41.612
X79.114Y-78.725
X79.51Y-48.79
X79.552Y-69.092
X79.75Y-83.75
X79.82Y-32.983
X80.018Y-69.732
X80.562Y-69.157
X80.57Y-62.24
X80.59Y-63.26
X80.75Y-33.0
X80.84Y-64.73
X81.078Y-69.658
X81.121Y-62.78
X81.14Y-61.7
X81.15Y-38.75
X81.18Y-63.85
X81.284Y-65.294
X81.315Y-88.5
X81.4Y-95.47
X81.44Y-44.7
X81.48Y-42.2
X81.49Y-93.92
X81.49Y-98.21
X81.5Y-86.0
X81.572Y-69.127
X81.82Y-79.72
X82.0Y-83.75
X82.107Y-69.64
X82.414Y-89.531
X82.582Y-69.062
X82.656Y-83.766
X82.945Y-88.39
X83.0Y-53.0
X83.1Y-93.69
X83.1Y-95.47
X83.117Y-69.528
X83.135Y-44.775
X83.19Y-98.21
X83.2Y-42.23
X83.25Y-66.5
X83.323Y-49.115
X83.41Y-58.84
X83.479Y-48.236
X83.501Y-60.75
X83.597Y-83.872
X83.62Y-61.76
X83.666Y-69.079
X83.75Y-52.5
X83.751Y-62.785
X84.118Y-84.19
X84.236Y-60.903
X84.34Y-61.913
X84.432Y-35.792
X84.544Y-62.923
X84.62Y-53.751
X84.62Y-63.933
X84.658Y-60.332
X84.676Y-69.189
X84.746Y-32.305
X84.842Y-24.82
X84.949Y-78.35
X84.959Y-34.236
X85.01Y-53.144
X85.035Y-34.97
X85.274Y-79.318
X85.374Y-69.32
X85.637Y-53.895
X85.83Y-78.885
X85.88Y-79.747
X86.0Y-28.75
X86.02Y-53.288
X86.132Y-69.0
X86.414Y-40.54
X86.478Y-34.478
X86.5Y-32.75
X86.516Y-69.597
X86.668Y-53.578
X86.698Y-51.839
X87.142Y-69.026
X87.219Y-53.13
X87.25Y-26.0
X87.377Y-55.692
X87.397Y-48.627
X87.58Y-69.585
X87.597Y-71.257
X87.733Y-49.7
X87.749Y-52.059
X87.791Y-50.71
X87.792Y-62.048
X87.796Y-60.0
X87.809Y-58.976
X87.81Y-62.82
X87.828Y-61.01
X87.845Y-57.885
X87.851Y-70.594
X87.873Y-56.2
X87.992Y-48.403
X88.0Y-32.5
X88.0Y-97.75
X88.187Y-69.967
X88.25Y-100.055
X88.25Y-30.0
X88.264Y-49.416
X88.3Y-58.43
X88.35Y-59.47
X88.358Y-61.598
X88.38Y-71.96
X88.41Y-60.48
X88.487Y-50.567
X88.49Y-51.59
X88.648Y-56.28
X88.845Y-48.19
X88.85Y-28.182
X88.91Y-37.21
X88.96Y-39.79
X89.251Y-53.99
X89.298Y-56.58
X89.4Y-72.03
X89.591Y-57.652
X89.943Y-56.88
X90.318Y-48.271
X90.573Y-60.473
X90.923Y-42.788
X90.93Y-37.12
X90.934Y-39.775
X91.538Y-76.032
X91.55Y-80.35
X91.55Y-85.25
X91.573Y-61.783
X91.599Y-87.964
X91.65Y-83.15
X91.662Y-48.378
X91.75Y-97.75
X91.869Y-76.66
X92.0Y-100.055
X92.05Y-71.88
X92.07Y-96.34
X92.739Y-56.28
X92.789Y-53.743
X93.267Y-89.433
X93.3Y-83.15
X93.325Y-80.225
X93.35Y-85.25
X93.4Y-88.25
X93.6Y-95.3
X94.283Y-94.978
X94.967Y-95.167
X95.088Y-57.232
X95.636Y-94.929
X95.75Y-97.75
X95.75Y-100.055
X95.755Y-57.844
X95.924Y-41.741
X96.008Y-63.514
X96.28Y-64.17
X96.305Y-95.168
X96.397Y-67.786
X96.63Y-37.15
X96.65Y-39.78
X96.89Y-94.73
X96.896Y-68.465
X96.9Y-56.253
X97.258Y-63.75
X97.336Y-67.786
X97.438Y-46.235
X97.465Y-49.763
X97.608Y-95.109
X97.9Y-52.3
X97.91Y-56.253
X97.961Y-68.409
X98.134Y-57.319
X98.268Y-63.742
X98.296Y-94.934
X98.332Y-60.868
X98.361Y-67.728
X98.45Y-39.74
X98.46Y-30.99
X98.51Y-37.14
X98.729Y-49.193
X98.756Y-42.25
X98.832Y-53.225
X98.84Y-95.39
X98.92Y-56.219
X98.99Y-68.254
X99.13Y-59.7
X99.176Y-57.322
X99.315Y-63.743
X99.41Y-91.82
X99.47Y-67.583
X99.544Y-97.935
X99.682Y-100.818
X99.7Y-52.3
X99.83Y-49.5
X99.93Y-56.183
X99.946Y-68.29
X100.1Y-60.8
X100.186Y-57.352
X100.325Y-63.788
X100.417Y-48.405
X100.435Y-67.634
X100.486Y-74.517
X100.5Y-53.2
X100.74Y-59.837
X100.95Y-56.23
X101.0Y-95.4
X101.048Y-68.224
X101.05Y-45.366
X101.25Y-57.245
X101.335Y-63.784
X101.44Y-49.506
X101.639Y-52.199
X101.718Y-68.256
X101.75Y-56.1
X101.75Y-42.3
X101.75Y-48.405
X101.789Y-60.938
X101.8Y-97.8
X101.98Y-45.43
X102.05Y-59.759
X102.14Y-64.488
X102.273Y-67.365
X102.28Y-91.82
X102.29Y-95.27
X102.543Y-53.18
X102.645Y-63.686
X102.714Y-89.32
X102.728Y-68.132
X102.73Y-57.3
X102.75Y-49.5
X102.76Y-56.033
X102.965Y-95.025
X103.06Y-59.8
X103.25Y-53.25
X103.29Y-45.37
X103.335Y-67.317
X103.48Y-42.23
X103.656Y-63.586
X103.74Y-57.197
X103.75Y-24.75
X103.77Y-55.963
X103.845Y-68.205
X103.88Y-94.93
X103.97Y-72.75
X104.0Y-53.25
X104.02Y-60.7
X104.072Y-59.771
X104.304Y-46.112
X104.48Y-78.28
X104.583Y-64.605
X104.59Y-52.31
X104.669Y-94.907
X104.757Y-67.559
X105.057Y-63.709
X105.2Y-53.4
X105.205Y-68.28
X105.25Y-97.33
X105.3Y-60.9
X105.32Y-75.86
X105.375Y-94.975
X105.585Y-59.767
X105.69Y-56.03
X105.767Y-67.602
X105.77Y-24.98
X105.805Y-57.264
X105.995Y-52.5
X106.06Y-63.795
X106.074Y-94.847
X106.24Y-68.381
X106.595Y-59.8
X106.7Y-56.143
X106.723Y-94.56
X106.75Y-53.25
X106.79Y-39.98
X106.804Y-67.615
X106.811Y-56.957
X106.82Y-37.15
X107.005Y-49.695
X107.07Y-63.78
X107.166Y-68.447
X107.242Y-94.075
X107.4Y-61.0
X107.695Y-48.5
X107.71Y-56.017
X107.76Y-53.399
X107.775Y-93.42
X107.795Y-57.361
X107.877Y-67.888
X108.08Y-63.744
X108.11Y-92.01
X108.205Y-52.395
X108.291Y-59.783
X108.363Y-68.569
X108.59Y-37.2
X108.59Y-40.05
X108.6Y-98.0
X108.615Y-49.7
X108.72Y-56.071
X108.832Y-57.279
X108.843Y-67.888
X108.895Y-61.0
X109.02Y-92.08
X109.09Y-63.622
X109.215Y-52.4
X109.224Y-48.825
X109.314Y-68.565
X109.63Y-31.95
X109.73Y-56.097
X109.842Y-57.171
X109.901Y-59.9
X109.95Y-24.19
X109.99Y-23.26
X110.0Y-99.36
X110.045Y-25.12
X110.051Y-67.894
X110.1Y-63.434
X110.105Y-53.378
X110.214Y-68.548
X110.225Y-49.5
X110.6Y-61.0
X110.711Y-48.496
X110.74Y-55.976
X110.825Y-52.301
X110.852Y-57.208
X110.976Y-67.837
X111.11Y-63.428
X111.388Y-68.556
X111.4Y-93.4
X111.5Y-99.0
X111.7Y-60.1
X111.75Y-55.931
X111.8Y-53.2
X111.862Y-57.161
X112.043Y-67.837
X112.115Y-49.464
X112.12Y-63.5
X112.25Y-26.0
X112.5Y-52.4
X112.76Y-55.909
X112.8Y-68.3
X112.8Y-91.6
X113.404Y-56.972
X115.0Y-24.25
X116.0Y-99.36
X116.45Y-94.55
X117.5Y-92.75
X117.5Y-98.5
T2
X39.7Y-63.1
X58.67Y-54.57
X73.435Y-70.885
X85.896Y-37.977
X93.797Y-78.433
X94.04Y-60.86
X94.04Y-72.74
X96.328Y-60.582
X112.73Y-41.02
X113.43Y-60.67
X116.63Y-75.11
X117.151Y-52.8
X117.25Y-59.81
X117.34Y-63.8
X117.64Y-42.05
X117.77Y-88.83
X119.0Y-80.3
X119.0Y-95.0
X119.21Y-69.05
X119.29Y-47.38
X119.29Y-57.81
T3
X23.905Y-52.47
X23.905Y-55.01
X23.905Y-57.55
X23.905Y-62.63
X23.905Y-65.17
X23.905Y-67.71
X23.905Y-74.695
X23.905Y-77.235
X23.905Y-79.775
X23.905Y-82.315
X23.905Y-84.855
X23.905Y-87.395
X23.905Y-89.935
X23.905Y-92.475
X23.905Y-95.015
X23.905Y-97.555
X23.905Y-100.095
X26.445Y-74.695
X26.445Y-77.235
X26.445Y-79.775
X26.445Y-82.315
X26.445Y-84.855
X26.445Y-87.395
X26.445Y-89.935
X26.445Y-92.475
X26.445Y-95.015
X26.445Y-97.555
X26.445Y-100.095
X32.85Y-97.5
X32.85Y-100.04
X33.43Y-52.47
X33.43Y-55.01
X33.43Y-62.63
X33.43Y-65.17
X33.43Y-67.71
X37.24Y-97.555
X37.24Y-100.095
X39.78Y-97.555
X39.78Y-100.095
X42.32Y-97.555
X42.32Y-100.095
X44.86Y-97.555
X44.86Y-100.095
X45.975Y-24.05
X45.975Y-28.55
X47.4Y-97.555
X47.4Y-100.095
X49.94Y-97.555
X49.94Y-100.095
X52.48Y-97.555
X52.48Y-100.095
X55.02Y-97.555
X55.02Y-100.095
X56.825Y-24.05
X56.825Y-28.55
X57.56Y-97.555
X57.56Y-100.095
X74.705Y-25.165
X74.705Y-27.705
X74.705Y-30.245
X81.69Y-25.165
X81.69Y-27.705
X81.69Y-30.245
X91.0Y-34.5
X93.54Y-34.5
X96.08Y-34.5
X98.62Y-34.5
X105.5Y-34.5
X108.04Y-34.5
X120.0Y-35.92
X120.0Y-38.46
X120.0Y-41.0
T4
X90.84Y-26.435
X90.84Y-28.975
X93.38Y-26.435
X93.38Y-28.975
X95.92Y-26.435
X95.92Y-28.975
X98.46Y-26.435
X98.46Y-28.975
X101.0Y-26.435
X101.0Y-28.975
T5
X24.125Y-33.075
X30.625Y-33.075
X35.625Y-33.075
X118.0Y-24.0
X118.0Y-26.54
X118.0Y-29.08
X118.0Y-31.62
T0
M30
