%TF.GenerationSoftware,KiCad,Pcbnew,(5.1.10)-1*%
%TF.CreationDate,2021-08-17T18:14:56+01:00*%
%TF.ProjectId,blit-cpu-mk3,626c6974-2d63-4707-952d-6d6b332e6b69,3.03*%
%TF.SameCoordinates,Original*%
%TF.FileFunction,Paste,Top*%
%TF.FilePolarity,Positive*%
%FSLAX46Y46*%
G04 Gerber Fmt 4.6, Leading zero omitted, Abs format (unit mm)*
G04 Created by KiCad (PCBNEW (5.1.10)-1) date 2021-08-17 18:14:56*
%MOMM*%
%LPD*%
G01*
G04 APERTURE LIST*
%ADD10R,1.000000X3.500000*%
%ADD11R,0.700000X1.750000*%
%ADD12R,1.450000X1.000000*%
%ADD13R,1.000000X1.550000*%
%ADD14R,1.300000X1.500000*%
%ADD15R,1.500000X1.500000*%
%ADD16R,0.800000X1.500000*%
%ADD17R,0.800000X1.400000*%
%ADD18R,0.600000X0.500000*%
%ADD19R,0.400000X0.600000*%
%ADD20R,1.300000X0.700000*%
%ADD21R,1.000000X1.250000*%
%ADD22R,1.250000X1.000000*%
%ADD23C,0.380000*%
%ADD24R,0.230000X1.200000*%
%ADD25R,1.550000X0.600000*%
%ADD26R,1.400000X1.200000*%
%ADD27R,1.500000X1.300000*%
%ADD28R,1.100000X0.250000*%
%ADD29R,0.285000X1.000000*%
%ADD30R,1.200000X1.200000*%
%ADD31R,0.400000X1.100000*%
%ADD32R,1.100000X0.400000*%
%ADD33R,1.500000X2.000000*%
%ADD34R,3.800000X2.000000*%
%ADD35R,0.800000X0.500000*%
%ADD36R,0.650000X1.060000*%
%ADD37R,1.600000X3.500000*%
%ADD38R,1.060000X0.650000*%
G04 APERTURE END LIST*
G36*
G01*
X96635700Y-66770700D02*
X96360700Y-66770700D01*
G75*
G02*
X96223200Y-66633200I0J137500D01*
G01*
X96223200Y-65383200D01*
G75*
G02*
X96360700Y-65245700I137500J0D01*
G01*
X96635700Y-65245700D01*
G75*
G02*
X96773200Y-65383200I0J-137500D01*
G01*
X96773200Y-66633200D01*
G75*
G02*
X96635700Y-66770700I-137500J0D01*
G01*
G37*
G36*
G01*
X97435700Y-66770700D02*
X97160700Y-66770700D01*
G75*
G02*
X97023200Y-66633200I0J137500D01*
G01*
X97023200Y-65383200D01*
G75*
G02*
X97160700Y-65245700I137500J0D01*
G01*
X97435700Y-65245700D01*
G75*
G02*
X97573200Y-65383200I0J-137500D01*
G01*
X97573200Y-66633200D01*
G75*
G02*
X97435700Y-66770700I-137500J0D01*
G01*
G37*
G36*
G01*
X98235700Y-66770700D02*
X97960700Y-66770700D01*
G75*
G02*
X97823200Y-66633200I0J137500D01*
G01*
X97823200Y-65383200D01*
G75*
G02*
X97960700Y-65245700I137500J0D01*
G01*
X98235700Y-65245700D01*
G75*
G02*
X98373200Y-65383200I0J-137500D01*
G01*
X98373200Y-66633200D01*
G75*
G02*
X98235700Y-66770700I-137500J0D01*
G01*
G37*
G36*
G01*
X99035700Y-66770700D02*
X98760700Y-66770700D01*
G75*
G02*
X98623200Y-66633200I0J137500D01*
G01*
X98623200Y-65383200D01*
G75*
G02*
X98760700Y-65245700I137500J0D01*
G01*
X99035700Y-65245700D01*
G75*
G02*
X99173200Y-65383200I0J-137500D01*
G01*
X99173200Y-66633200D01*
G75*
G02*
X99035700Y-66770700I-137500J0D01*
G01*
G37*
G36*
G01*
X99835700Y-66770700D02*
X99560700Y-66770700D01*
G75*
G02*
X99423200Y-66633200I0J137500D01*
G01*
X99423200Y-65383200D01*
G75*
G02*
X99560700Y-65245700I137500J0D01*
G01*
X99835700Y-65245700D01*
G75*
G02*
X99973200Y-65383200I0J-137500D01*
G01*
X99973200Y-66633200D01*
G75*
G02*
X99835700Y-66770700I-137500J0D01*
G01*
G37*
G36*
G01*
X100635700Y-66770700D02*
X100360700Y-66770700D01*
G75*
G02*
X100223200Y-66633200I0J137500D01*
G01*
X100223200Y-65383200D01*
G75*
G02*
X100360700Y-65245700I137500J0D01*
G01*
X100635700Y-65245700D01*
G75*
G02*
X100773200Y-65383200I0J-137500D01*
G01*
X100773200Y-66633200D01*
G75*
G02*
X100635700Y-66770700I-137500J0D01*
G01*
G37*
G36*
G01*
X101435700Y-66770700D02*
X101160700Y-66770700D01*
G75*
G02*
X101023200Y-66633200I0J137500D01*
G01*
X101023200Y-65383200D01*
G75*
G02*
X101160700Y-65245700I137500J0D01*
G01*
X101435700Y-65245700D01*
G75*
G02*
X101573200Y-65383200I0J-137500D01*
G01*
X101573200Y-66633200D01*
G75*
G02*
X101435700Y-66770700I-137500J0D01*
G01*
G37*
G36*
G01*
X102235700Y-66770700D02*
X101960700Y-66770700D01*
G75*
G02*
X101823200Y-66633200I0J137500D01*
G01*
X101823200Y-65383200D01*
G75*
G02*
X101960700Y-65245700I137500J0D01*
G01*
X102235700Y-65245700D01*
G75*
G02*
X102373200Y-65383200I0J-137500D01*
G01*
X102373200Y-66633200D01*
G75*
G02*
X102235700Y-66770700I-137500J0D01*
G01*
G37*
G36*
G01*
X103035700Y-66770700D02*
X102760700Y-66770700D01*
G75*
G02*
X102623200Y-66633200I0J137500D01*
G01*
X102623200Y-65383200D01*
G75*
G02*
X102760700Y-65245700I137500J0D01*
G01*
X103035700Y-65245700D01*
G75*
G02*
X103173200Y-65383200I0J-137500D01*
G01*
X103173200Y-66633200D01*
G75*
G02*
X103035700Y-66770700I-137500J0D01*
G01*
G37*
G36*
G01*
X103835700Y-66770700D02*
X103560700Y-66770700D01*
G75*
G02*
X103423200Y-66633200I0J137500D01*
G01*
X103423200Y-65383200D01*
G75*
G02*
X103560700Y-65245700I137500J0D01*
G01*
X103835700Y-65245700D01*
G75*
G02*
X103973200Y-65383200I0J-137500D01*
G01*
X103973200Y-66633200D01*
G75*
G02*
X103835700Y-66770700I-137500J0D01*
G01*
G37*
G36*
G01*
X104635700Y-66770700D02*
X104360700Y-66770700D01*
G75*
G02*
X104223200Y-66633200I0J137500D01*
G01*
X104223200Y-65383200D01*
G75*
G02*
X104360700Y-65245700I137500J0D01*
G01*
X104635700Y-65245700D01*
G75*
G02*
X104773200Y-65383200I0J-137500D01*
G01*
X104773200Y-66633200D01*
G75*
G02*
X104635700Y-66770700I-137500J0D01*
G01*
G37*
G36*
G01*
X105435700Y-66770700D02*
X105160700Y-66770700D01*
G75*
G02*
X105023200Y-66633200I0J137500D01*
G01*
X105023200Y-65383200D01*
G75*
G02*
X105160700Y-65245700I137500J0D01*
G01*
X105435700Y-65245700D01*
G75*
G02*
X105573200Y-65383200I0J-137500D01*
G01*
X105573200Y-66633200D01*
G75*
G02*
X105435700Y-66770700I-137500J0D01*
G01*
G37*
G36*
G01*
X106235700Y-66770700D02*
X105960700Y-66770700D01*
G75*
G02*
X105823200Y-66633200I0J137500D01*
G01*
X105823200Y-65383200D01*
G75*
G02*
X105960700Y-65245700I137500J0D01*
G01*
X106235700Y-65245700D01*
G75*
G02*
X106373200Y-65383200I0J-137500D01*
G01*
X106373200Y-66633200D01*
G75*
G02*
X106235700Y-66770700I-137500J0D01*
G01*
G37*
G36*
G01*
X107035700Y-66770700D02*
X106760700Y-66770700D01*
G75*
G02*
X106623200Y-66633200I0J137500D01*
G01*
X106623200Y-65383200D01*
G75*
G02*
X106760700Y-65245700I137500J0D01*
G01*
X107035700Y-65245700D01*
G75*
G02*
X107173200Y-65383200I0J-137500D01*
G01*
X107173200Y-66633200D01*
G75*
G02*
X107035700Y-66770700I-137500J0D01*
G01*
G37*
G36*
G01*
X107835700Y-66770700D02*
X107560700Y-66770700D01*
G75*
G02*
X107423200Y-66633200I0J137500D01*
G01*
X107423200Y-65383200D01*
G75*
G02*
X107560700Y-65245700I137500J0D01*
G01*
X107835700Y-65245700D01*
G75*
G02*
X107973200Y-65383200I0J-137500D01*
G01*
X107973200Y-66633200D01*
G75*
G02*
X107835700Y-66770700I-137500J0D01*
G01*
G37*
G36*
G01*
X108635700Y-66770700D02*
X108360700Y-66770700D01*
G75*
G02*
X108223200Y-66633200I0J137500D01*
G01*
X108223200Y-65383200D01*
G75*
G02*
X108360700Y-65245700I137500J0D01*
G01*
X108635700Y-65245700D01*
G75*
G02*
X108773200Y-65383200I0J-137500D01*
G01*
X108773200Y-66633200D01*
G75*
G02*
X108635700Y-66770700I-137500J0D01*
G01*
G37*
G36*
G01*
X109435700Y-66770700D02*
X109160700Y-66770700D01*
G75*
G02*
X109023200Y-66633200I0J137500D01*
G01*
X109023200Y-65383200D01*
G75*
G02*
X109160700Y-65245700I137500J0D01*
G01*
X109435700Y-65245700D01*
G75*
G02*
X109573200Y-65383200I0J-137500D01*
G01*
X109573200Y-66633200D01*
G75*
G02*
X109435700Y-66770700I-137500J0D01*
G01*
G37*
G36*
G01*
X110235700Y-66770700D02*
X109960700Y-66770700D01*
G75*
G02*
X109823200Y-66633200I0J137500D01*
G01*
X109823200Y-65383200D01*
G75*
G02*
X109960700Y-65245700I137500J0D01*
G01*
X110235700Y-65245700D01*
G75*
G02*
X110373200Y-65383200I0J-137500D01*
G01*
X110373200Y-66633200D01*
G75*
G02*
X110235700Y-66770700I-137500J0D01*
G01*
G37*
G36*
G01*
X111035700Y-66770700D02*
X110760700Y-66770700D01*
G75*
G02*
X110623200Y-66633200I0J137500D01*
G01*
X110623200Y-65383200D01*
G75*
G02*
X110760700Y-65245700I137500J0D01*
G01*
X111035700Y-65245700D01*
G75*
G02*
X111173200Y-65383200I0J-137500D01*
G01*
X111173200Y-66633200D01*
G75*
G02*
X111035700Y-66770700I-137500J0D01*
G01*
G37*
G36*
G01*
X111835700Y-66770700D02*
X111560700Y-66770700D01*
G75*
G02*
X111423200Y-66633200I0J137500D01*
G01*
X111423200Y-65383200D01*
G75*
G02*
X111560700Y-65245700I137500J0D01*
G01*
X111835700Y-65245700D01*
G75*
G02*
X111973200Y-65383200I0J-137500D01*
G01*
X111973200Y-66633200D01*
G75*
G02*
X111835700Y-66770700I-137500J0D01*
G01*
G37*
G36*
G01*
X112635700Y-66770700D02*
X112360700Y-66770700D01*
G75*
G02*
X112223200Y-66633200I0J137500D01*
G01*
X112223200Y-65383200D01*
G75*
G02*
X112360700Y-65245700I137500J0D01*
G01*
X112635700Y-65245700D01*
G75*
G02*
X112773200Y-65383200I0J-137500D01*
G01*
X112773200Y-66633200D01*
G75*
G02*
X112635700Y-66770700I-137500J0D01*
G01*
G37*
G36*
G01*
X113435700Y-66770700D02*
X113160700Y-66770700D01*
G75*
G02*
X113023200Y-66633200I0J137500D01*
G01*
X113023200Y-65383200D01*
G75*
G02*
X113160700Y-65245700I137500J0D01*
G01*
X113435700Y-65245700D01*
G75*
G02*
X113573200Y-65383200I0J-137500D01*
G01*
X113573200Y-66633200D01*
G75*
G02*
X113435700Y-66770700I-137500J0D01*
G01*
G37*
G36*
G01*
X113435700Y-77945700D02*
X113160700Y-77945700D01*
G75*
G02*
X113023200Y-77808200I0J137500D01*
G01*
X113023200Y-76558200D01*
G75*
G02*
X113160700Y-76420700I137500J0D01*
G01*
X113435700Y-76420700D01*
G75*
G02*
X113573200Y-76558200I0J-137500D01*
G01*
X113573200Y-77808200D01*
G75*
G02*
X113435700Y-77945700I-137500J0D01*
G01*
G37*
G36*
G01*
X112635700Y-77945700D02*
X112360700Y-77945700D01*
G75*
G02*
X112223200Y-77808200I0J137500D01*
G01*
X112223200Y-76558200D01*
G75*
G02*
X112360700Y-76420700I137500J0D01*
G01*
X112635700Y-76420700D01*
G75*
G02*
X112773200Y-76558200I0J-137500D01*
G01*
X112773200Y-77808200D01*
G75*
G02*
X112635700Y-77945700I-137500J0D01*
G01*
G37*
G36*
G01*
X111835700Y-77945700D02*
X111560700Y-77945700D01*
G75*
G02*
X111423200Y-77808200I0J137500D01*
G01*
X111423200Y-76558200D01*
G75*
G02*
X111560700Y-76420700I137500J0D01*
G01*
X111835700Y-76420700D01*
G75*
G02*
X111973200Y-76558200I0J-137500D01*
G01*
X111973200Y-77808200D01*
G75*
G02*
X111835700Y-77945700I-137500J0D01*
G01*
G37*
G36*
G01*
X111035700Y-77945700D02*
X110760700Y-77945700D01*
G75*
G02*
X110623200Y-77808200I0J137500D01*
G01*
X110623200Y-76558200D01*
G75*
G02*
X110760700Y-76420700I137500J0D01*
G01*
X111035700Y-76420700D01*
G75*
G02*
X111173200Y-76558200I0J-137500D01*
G01*
X111173200Y-77808200D01*
G75*
G02*
X111035700Y-77945700I-137500J0D01*
G01*
G37*
G36*
G01*
X110235700Y-77945700D02*
X109960700Y-77945700D01*
G75*
G02*
X109823200Y-77808200I0J137500D01*
G01*
X109823200Y-76558200D01*
G75*
G02*
X109960700Y-76420700I137500J0D01*
G01*
X110235700Y-76420700D01*
G75*
G02*
X110373200Y-76558200I0J-137500D01*
G01*
X110373200Y-77808200D01*
G75*
G02*
X110235700Y-77945700I-137500J0D01*
G01*
G37*
G36*
G01*
X109435700Y-77945700D02*
X109160700Y-77945700D01*
G75*
G02*
X109023200Y-77808200I0J137500D01*
G01*
X109023200Y-76558200D01*
G75*
G02*
X109160700Y-76420700I137500J0D01*
G01*
X109435700Y-76420700D01*
G75*
G02*
X109573200Y-76558200I0J-137500D01*
G01*
X109573200Y-77808200D01*
G75*
G02*
X109435700Y-77945700I-137500J0D01*
G01*
G37*
G36*
G01*
X108635700Y-77945700D02*
X108360700Y-77945700D01*
G75*
G02*
X108223200Y-77808200I0J137500D01*
G01*
X108223200Y-76558200D01*
G75*
G02*
X108360700Y-76420700I137500J0D01*
G01*
X108635700Y-76420700D01*
G75*
G02*
X108773200Y-76558200I0J-137500D01*
G01*
X108773200Y-77808200D01*
G75*
G02*
X108635700Y-77945700I-137500J0D01*
G01*
G37*
G36*
G01*
X107835700Y-77945700D02*
X107560700Y-77945700D01*
G75*
G02*
X107423200Y-77808200I0J137500D01*
G01*
X107423200Y-76558200D01*
G75*
G02*
X107560700Y-76420700I137500J0D01*
G01*
X107835700Y-76420700D01*
G75*
G02*
X107973200Y-76558200I0J-137500D01*
G01*
X107973200Y-77808200D01*
G75*
G02*
X107835700Y-77945700I-137500J0D01*
G01*
G37*
G36*
G01*
X107035700Y-77945700D02*
X106760700Y-77945700D01*
G75*
G02*
X106623200Y-77808200I0J137500D01*
G01*
X106623200Y-76558200D01*
G75*
G02*
X106760700Y-76420700I137500J0D01*
G01*
X107035700Y-76420700D01*
G75*
G02*
X107173200Y-76558200I0J-137500D01*
G01*
X107173200Y-77808200D01*
G75*
G02*
X107035700Y-77945700I-137500J0D01*
G01*
G37*
G36*
G01*
X106235700Y-77945700D02*
X105960700Y-77945700D01*
G75*
G02*
X105823200Y-77808200I0J137500D01*
G01*
X105823200Y-76558200D01*
G75*
G02*
X105960700Y-76420700I137500J0D01*
G01*
X106235700Y-76420700D01*
G75*
G02*
X106373200Y-76558200I0J-137500D01*
G01*
X106373200Y-77808200D01*
G75*
G02*
X106235700Y-77945700I-137500J0D01*
G01*
G37*
G36*
G01*
X105435700Y-77945700D02*
X105160700Y-77945700D01*
G75*
G02*
X105023200Y-77808200I0J137500D01*
G01*
X105023200Y-76558200D01*
G75*
G02*
X105160700Y-76420700I137500J0D01*
G01*
X105435700Y-76420700D01*
G75*
G02*
X105573200Y-76558200I0J-137500D01*
G01*
X105573200Y-77808200D01*
G75*
G02*
X105435700Y-77945700I-137500J0D01*
G01*
G37*
G36*
G01*
X104635700Y-77945700D02*
X104360700Y-77945700D01*
G75*
G02*
X104223200Y-77808200I0J137500D01*
G01*
X104223200Y-76558200D01*
G75*
G02*
X104360700Y-76420700I137500J0D01*
G01*
X104635700Y-76420700D01*
G75*
G02*
X104773200Y-76558200I0J-137500D01*
G01*
X104773200Y-77808200D01*
G75*
G02*
X104635700Y-77945700I-137500J0D01*
G01*
G37*
G36*
G01*
X103835700Y-77945700D02*
X103560700Y-77945700D01*
G75*
G02*
X103423200Y-77808200I0J137500D01*
G01*
X103423200Y-76558200D01*
G75*
G02*
X103560700Y-76420700I137500J0D01*
G01*
X103835700Y-76420700D01*
G75*
G02*
X103973200Y-76558200I0J-137500D01*
G01*
X103973200Y-77808200D01*
G75*
G02*
X103835700Y-77945700I-137500J0D01*
G01*
G37*
G36*
G01*
X103035700Y-77945700D02*
X102760700Y-77945700D01*
G75*
G02*
X102623200Y-77808200I0J137500D01*
G01*
X102623200Y-76558200D01*
G75*
G02*
X102760700Y-76420700I137500J0D01*
G01*
X103035700Y-76420700D01*
G75*
G02*
X103173200Y-76558200I0J-137500D01*
G01*
X103173200Y-77808200D01*
G75*
G02*
X103035700Y-77945700I-137500J0D01*
G01*
G37*
G36*
G01*
X102235700Y-77945700D02*
X101960700Y-77945700D01*
G75*
G02*
X101823200Y-77808200I0J137500D01*
G01*
X101823200Y-76558200D01*
G75*
G02*
X101960700Y-76420700I137500J0D01*
G01*
X102235700Y-76420700D01*
G75*
G02*
X102373200Y-76558200I0J-137500D01*
G01*
X102373200Y-77808200D01*
G75*
G02*
X102235700Y-77945700I-137500J0D01*
G01*
G37*
G36*
G01*
X101435700Y-77945700D02*
X101160700Y-77945700D01*
G75*
G02*
X101023200Y-77808200I0J137500D01*
G01*
X101023200Y-76558200D01*
G75*
G02*
X101160700Y-76420700I137500J0D01*
G01*
X101435700Y-76420700D01*
G75*
G02*
X101573200Y-76558200I0J-137500D01*
G01*
X101573200Y-77808200D01*
G75*
G02*
X101435700Y-77945700I-137500J0D01*
G01*
G37*
G36*
G01*
X100635700Y-77945700D02*
X100360700Y-77945700D01*
G75*
G02*
X100223200Y-77808200I0J137500D01*
G01*
X100223200Y-76558200D01*
G75*
G02*
X100360700Y-76420700I137500J0D01*
G01*
X100635700Y-76420700D01*
G75*
G02*
X100773200Y-76558200I0J-137500D01*
G01*
X100773200Y-77808200D01*
G75*
G02*
X100635700Y-77945700I-137500J0D01*
G01*
G37*
G36*
G01*
X99835700Y-77945700D02*
X99560700Y-77945700D01*
G75*
G02*
X99423200Y-77808200I0J137500D01*
G01*
X99423200Y-76558200D01*
G75*
G02*
X99560700Y-76420700I137500J0D01*
G01*
X99835700Y-76420700D01*
G75*
G02*
X99973200Y-76558200I0J-137500D01*
G01*
X99973200Y-77808200D01*
G75*
G02*
X99835700Y-77945700I-137500J0D01*
G01*
G37*
G36*
G01*
X99035700Y-77945700D02*
X98760700Y-77945700D01*
G75*
G02*
X98623200Y-77808200I0J137500D01*
G01*
X98623200Y-76558200D01*
G75*
G02*
X98760700Y-76420700I137500J0D01*
G01*
X99035700Y-76420700D01*
G75*
G02*
X99173200Y-76558200I0J-137500D01*
G01*
X99173200Y-77808200D01*
G75*
G02*
X99035700Y-77945700I-137500J0D01*
G01*
G37*
G36*
G01*
X98235700Y-77945700D02*
X97960700Y-77945700D01*
G75*
G02*
X97823200Y-77808200I0J137500D01*
G01*
X97823200Y-76558200D01*
G75*
G02*
X97960700Y-76420700I137500J0D01*
G01*
X98235700Y-76420700D01*
G75*
G02*
X98373200Y-76558200I0J-137500D01*
G01*
X98373200Y-77808200D01*
G75*
G02*
X98235700Y-77945700I-137500J0D01*
G01*
G37*
G36*
G01*
X97435700Y-77945700D02*
X97160700Y-77945700D01*
G75*
G02*
X97023200Y-77808200I0J137500D01*
G01*
X97023200Y-76558200D01*
G75*
G02*
X97160700Y-76420700I137500J0D01*
G01*
X97435700Y-76420700D01*
G75*
G02*
X97573200Y-76558200I0J-137500D01*
G01*
X97573200Y-77808200D01*
G75*
G02*
X97435700Y-77945700I-137500J0D01*
G01*
G37*
G36*
G01*
X96635700Y-77945700D02*
X96360700Y-77945700D01*
G75*
G02*
X96223200Y-77808200I0J137500D01*
G01*
X96223200Y-76558200D01*
G75*
G02*
X96360700Y-76420700I137500J0D01*
G01*
X96635700Y-76420700D01*
G75*
G02*
X96773200Y-76558200I0J-137500D01*
G01*
X96773200Y-77808200D01*
G75*
G02*
X96635700Y-77945700I-137500J0D01*
G01*
G37*
D10*
X82325000Y-91595000D03*
X82325000Y-97135000D03*
X79785000Y-91595000D03*
X79785000Y-97135000D03*
X77245000Y-91595000D03*
X77245000Y-97135000D03*
X74705000Y-91595000D03*
X74705000Y-97135000D03*
X72165000Y-91595000D03*
X72165000Y-97135000D03*
X69625000Y-91595000D03*
X69625000Y-97135000D03*
X67085000Y-91595000D03*
X67085000Y-97135000D03*
X64545000Y-91595000D03*
X64545000Y-97135000D03*
X67085000Y-86990000D03*
X67085000Y-81450000D03*
X69625000Y-86990000D03*
X69625000Y-81450000D03*
X72165000Y-86990000D03*
X72165000Y-81450000D03*
X74705000Y-86990000D03*
X74705000Y-81450000D03*
X77245000Y-86990000D03*
X77245000Y-81450000D03*
X79785000Y-86990000D03*
X79785000Y-81450000D03*
X82325000Y-86990000D03*
X82325000Y-81450000D03*
X84865000Y-86990000D03*
X84865000Y-81450000D03*
X87405000Y-86990000D03*
X87405000Y-81450000D03*
X89945000Y-86990000D03*
X89945000Y-81450000D03*
X92485000Y-86990000D03*
X92485000Y-81450000D03*
X95025000Y-86990000D03*
X95025000Y-81450000D03*
X97565000Y-86990000D03*
X97565000Y-81450000D03*
X100105000Y-86990000D03*
X100105000Y-81450000D03*
X102645000Y-86990000D03*
X102645000Y-81450000D03*
X105185000Y-86990000D03*
X105185000Y-81450000D03*
X107725000Y-86990000D03*
X107725000Y-81450000D03*
X110265000Y-86990000D03*
X110265000Y-81450000D03*
X112805000Y-86990000D03*
X112805000Y-81450000D03*
X115345000Y-86990000D03*
X115345000Y-81450000D03*
X64545000Y-38270000D03*
X64545000Y-43810000D03*
X67085000Y-38270000D03*
X67085000Y-43810000D03*
X69625000Y-38270000D03*
X69625000Y-43810000D03*
X72165000Y-38270000D03*
X72165000Y-43810000D03*
X74705000Y-38270000D03*
X74705000Y-43810000D03*
X77245000Y-38270000D03*
X77245000Y-43810000D03*
X79785000Y-38270000D03*
X79785000Y-43810000D03*
X82325000Y-38270000D03*
X82325000Y-43810000D03*
X84865000Y-38270000D03*
X84865000Y-43810000D03*
X87405000Y-38270000D03*
X87405000Y-43810000D03*
X89945000Y-38270000D03*
X89945000Y-43810000D03*
X92485000Y-38270000D03*
X92485000Y-43810000D03*
X95025000Y-38270000D03*
X95025000Y-43810000D03*
X97565000Y-38270000D03*
X97565000Y-43810000D03*
X100105000Y-38270000D03*
X100105000Y-43810000D03*
X102645000Y-38270000D03*
X102645000Y-43810000D03*
X105185000Y-38270000D03*
X105185000Y-43810000D03*
X107725000Y-38270000D03*
X107725000Y-43810000D03*
X110265000Y-38270000D03*
X110265000Y-43810000D03*
X112805000Y-38270000D03*
X112805000Y-43810000D03*
D11*
X69422000Y-23786500D03*
X68322000Y-23786500D03*
X67222000Y-23786500D03*
X66122000Y-23786500D03*
X65022000Y-23786500D03*
X63922000Y-23786500D03*
X62822000Y-23786500D03*
X61722000Y-23786500D03*
D12*
X70547000Y-33011500D03*
D13*
X59322000Y-34586500D03*
D14*
X70622000Y-23911500D03*
D15*
X59272000Y-23911500D03*
D16*
X70872000Y-31511500D03*
D17*
X58922000Y-32161500D03*
D18*
X57800000Y-44750000D03*
X56700000Y-44750000D03*
D14*
X36250000Y-82250000D03*
X36250000Y-88250000D03*
X33250000Y-88250000D03*
X33250000Y-82250000D03*
D19*
X61450000Y-36500000D03*
X60550000Y-36500000D03*
X61450000Y-37750000D03*
X60550000Y-37750000D03*
X61450000Y-39250000D03*
X60550000Y-39250000D03*
X61450000Y-40500000D03*
X60550000Y-40500000D03*
X60550000Y-42000000D03*
X61450000Y-42000000D03*
X60550000Y-43250000D03*
X61450000Y-43250000D03*
X60550000Y-44750000D03*
X61450000Y-44750000D03*
X60550000Y-46000000D03*
X61450000Y-46000000D03*
D20*
X31120000Y-47050000D03*
X31120000Y-48950000D03*
X120500000Y-96550000D03*
X120500000Y-94650000D03*
D18*
X57763500Y-36500000D03*
X56663500Y-36500000D03*
X57800000Y-37750000D03*
X56700000Y-37750000D03*
X57800000Y-39250000D03*
X56700000Y-39250000D03*
X57800000Y-40500000D03*
X56700000Y-40500000D03*
X57800000Y-42000000D03*
X56700000Y-42000000D03*
X57800000Y-43250000D03*
X56700000Y-43250000D03*
X57800000Y-46000000D03*
X56700000Y-46000000D03*
D21*
X56750000Y-33000000D03*
X54750000Y-33000000D03*
X43500000Y-80750000D03*
X41500000Y-80750000D03*
D22*
X59000000Y-74250000D03*
X59000000Y-76250000D03*
X32500000Y-72850000D03*
X32500000Y-70850000D03*
X50500000Y-84750000D03*
X50500000Y-82750000D03*
D21*
X52250000Y-78000000D03*
X50250000Y-78000000D03*
X39250000Y-69500000D03*
X41250000Y-69500000D03*
X103920000Y-48750000D03*
X105920000Y-48750000D03*
D23*
X76500000Y-64000000D03*
X76500000Y-63000000D03*
X76500000Y-62000000D03*
X76500000Y-61000000D03*
X76500000Y-60000000D03*
X76500000Y-59000000D03*
X76500000Y-58000000D03*
X76500000Y-57000000D03*
X76500000Y-56000000D03*
X76500000Y-55000000D03*
X76500000Y-54000000D03*
X76500000Y-53000000D03*
X76500000Y-52000000D03*
X76500000Y-51000000D03*
X76500000Y-50000000D03*
X76500000Y-49000000D03*
X75500000Y-64000000D03*
X75500000Y-63000000D03*
X75500000Y-62000000D03*
X75500000Y-61000000D03*
X75500000Y-60000000D03*
X75500000Y-59000000D03*
X75500000Y-58000000D03*
X75500000Y-57000000D03*
X75500000Y-56000000D03*
X75500000Y-55000000D03*
X75500000Y-54000000D03*
X75500000Y-53000000D03*
X75500000Y-52000000D03*
X75500000Y-51000000D03*
X75500000Y-50000000D03*
X75500000Y-49000000D03*
X74500000Y-64000000D03*
X74500000Y-63000000D03*
X74500000Y-62000000D03*
X74500000Y-61000000D03*
X74500000Y-60000000D03*
X74500000Y-59000000D03*
X74500000Y-58000000D03*
X74500000Y-57000000D03*
X74500000Y-56000000D03*
X74500000Y-55000000D03*
X74500000Y-54000000D03*
X74500000Y-53000000D03*
X74500000Y-52000000D03*
X74500000Y-51000000D03*
X74500000Y-50000000D03*
X74500000Y-49000000D03*
X73500000Y-64000000D03*
X73500000Y-63000000D03*
X73500000Y-62000000D03*
X73500000Y-61000000D03*
X73500000Y-60000000D03*
X73500000Y-59000000D03*
X73500000Y-58000000D03*
X73500000Y-57000000D03*
X73500000Y-56000000D03*
X73500000Y-55000000D03*
X73500000Y-54000000D03*
X73500000Y-53000000D03*
X73500000Y-52000000D03*
X73500000Y-51000000D03*
X73500000Y-50000000D03*
X73500000Y-49000000D03*
X72500000Y-64000000D03*
X72500000Y-63000000D03*
X72500000Y-62000000D03*
X72500000Y-61000000D03*
X72500000Y-60000000D03*
X72500000Y-59000000D03*
X72500000Y-58000000D03*
X72500000Y-57000000D03*
X72500000Y-56000000D03*
X72500000Y-55000000D03*
X72500000Y-54000000D03*
X72500000Y-53000000D03*
X72500000Y-52000000D03*
X72500000Y-51000000D03*
X72500000Y-50000000D03*
X72500000Y-49000000D03*
X71500000Y-64000000D03*
X71500000Y-63000000D03*
X71500000Y-62000000D03*
X71500000Y-61000000D03*
X71500000Y-60000000D03*
X71500000Y-59000000D03*
X71500000Y-58000000D03*
X71500000Y-57000000D03*
X71500000Y-56000000D03*
X71500000Y-55000000D03*
X71500000Y-54000000D03*
X71500000Y-53000000D03*
X71500000Y-52000000D03*
X71500000Y-51000000D03*
X71500000Y-50000000D03*
X71500000Y-49000000D03*
X70500000Y-64000000D03*
X70500000Y-63000000D03*
X70500000Y-62000000D03*
X70500000Y-61000000D03*
X70500000Y-60000000D03*
X70500000Y-59000000D03*
X70500000Y-58000000D03*
X70500000Y-57000000D03*
X70500000Y-56000000D03*
X70500000Y-55000000D03*
X70500000Y-54000000D03*
X70500000Y-53000000D03*
X70500000Y-52000000D03*
X70500000Y-51000000D03*
X70500000Y-50000000D03*
X70500000Y-49000000D03*
X69500000Y-64000000D03*
X69500000Y-63000000D03*
X69500000Y-62000000D03*
X69500000Y-61000000D03*
X69500000Y-60000000D03*
X69500000Y-59000000D03*
X69500000Y-58000000D03*
X69500000Y-57000000D03*
X69500000Y-56000000D03*
X69500000Y-55000000D03*
X69500000Y-54000000D03*
X69500000Y-53000000D03*
X69500000Y-52000000D03*
X69500000Y-51000000D03*
X69500000Y-50000000D03*
X69500000Y-49000000D03*
X68500000Y-64000000D03*
X68500000Y-63000000D03*
X68500000Y-62000000D03*
X68500000Y-61000000D03*
X68500000Y-60000000D03*
X68500000Y-59000000D03*
X68500000Y-58000000D03*
X68500000Y-57000000D03*
X68500000Y-56000000D03*
X68500000Y-55000000D03*
X68500000Y-54000000D03*
X68500000Y-53000000D03*
X68500000Y-52000000D03*
X68500000Y-51000000D03*
X68500000Y-50000000D03*
X68500000Y-49000000D03*
X67500000Y-64000000D03*
X67500000Y-63000000D03*
X67500000Y-62000000D03*
X67500000Y-61000000D03*
X67500000Y-60000000D03*
X67500000Y-59000000D03*
X67500000Y-58000000D03*
X67500000Y-57000000D03*
X67500000Y-56000000D03*
X67500000Y-55000000D03*
X67500000Y-54000000D03*
X67500000Y-53000000D03*
X67500000Y-52000000D03*
X67500000Y-51000000D03*
X67500000Y-50000000D03*
X67500000Y-49000000D03*
X66500000Y-64000000D03*
X66500000Y-63000000D03*
X66500000Y-62000000D03*
X66500000Y-61000000D03*
X66500000Y-60000000D03*
X66500000Y-59000000D03*
X66500000Y-58000000D03*
X66500000Y-57000000D03*
X66500000Y-56000000D03*
X66500000Y-55000000D03*
X66500000Y-54000000D03*
X66500000Y-53000000D03*
X66500000Y-52000000D03*
X66500000Y-51000000D03*
X66500000Y-50000000D03*
X66500000Y-49000000D03*
X65500000Y-64000000D03*
X65500000Y-63000000D03*
X65500000Y-62000000D03*
X65500000Y-61000000D03*
X65500000Y-60000000D03*
X65500000Y-59000000D03*
X65500000Y-58000000D03*
X65500000Y-57000000D03*
X65500000Y-56000000D03*
X65500000Y-55000000D03*
X65500000Y-54000000D03*
X65500000Y-53000000D03*
X65500000Y-52000000D03*
X65500000Y-51000000D03*
X65500000Y-50000000D03*
X65500000Y-49000000D03*
X64500000Y-64000000D03*
X64500000Y-63000000D03*
X64500000Y-62000000D03*
X64500000Y-61000000D03*
X64500000Y-60000000D03*
X64500000Y-59000000D03*
X64500000Y-58000000D03*
X64500000Y-57000000D03*
X64500000Y-56000000D03*
X64500000Y-55000000D03*
X64500000Y-54000000D03*
X64500000Y-53000000D03*
X64500000Y-52000000D03*
X64500000Y-51000000D03*
X64500000Y-50000000D03*
X64500000Y-49000000D03*
X63500000Y-64000000D03*
X63500000Y-63000000D03*
X63500000Y-62000000D03*
X63500000Y-61000000D03*
X63500000Y-60000000D03*
X63500000Y-59000000D03*
X63500000Y-58000000D03*
X63500000Y-57000000D03*
X63500000Y-56000000D03*
X63500000Y-55000000D03*
X63500000Y-54000000D03*
X63500000Y-53000000D03*
X63500000Y-52000000D03*
X63500000Y-51000000D03*
X63500000Y-50000000D03*
X63500000Y-49000000D03*
X62500000Y-64000000D03*
X62500000Y-63000000D03*
X62500000Y-62000000D03*
X62500000Y-61000000D03*
X62500000Y-60000000D03*
X62500000Y-59000000D03*
X62500000Y-58000000D03*
X62500000Y-57000000D03*
X62500000Y-56000000D03*
X62500000Y-55000000D03*
X62500000Y-54000000D03*
X62500000Y-53000000D03*
X62500000Y-52000000D03*
X62500000Y-51000000D03*
X62500000Y-50000000D03*
X62500000Y-49000000D03*
X61500000Y-64000000D03*
X61500000Y-63000000D03*
X61500000Y-62000000D03*
X61500000Y-61000000D03*
X61500000Y-60000000D03*
X61500000Y-59000000D03*
X61500000Y-58000000D03*
X61500000Y-57000000D03*
X61500000Y-56000000D03*
X61500000Y-55000000D03*
X61500000Y-54000000D03*
X61500000Y-53000000D03*
X61500000Y-52000000D03*
X61500000Y-51000000D03*
X61500000Y-50000000D03*
X61500000Y-49000000D03*
D24*
X55000000Y-29700000D03*
X54600000Y-29700000D03*
X54200000Y-29700000D03*
X53800000Y-29700000D03*
X53400000Y-29700000D03*
X53000000Y-29700000D03*
X52600000Y-29700000D03*
X52200000Y-29700000D03*
X51800000Y-29700000D03*
X47800000Y-29700000D03*
X48200000Y-29700000D03*
X48600000Y-29700000D03*
X49000000Y-29700000D03*
X49400000Y-29700000D03*
X49800000Y-29700000D03*
X50200000Y-29700000D03*
X50600000Y-29700000D03*
X51000000Y-29700000D03*
X51400000Y-29700000D03*
D25*
X29140000Y-45645000D03*
X29140000Y-46915000D03*
X29140000Y-48185000D03*
X29140000Y-49455000D03*
X23740000Y-49455000D03*
X23740000Y-48185000D03*
X23740000Y-46915000D03*
X23740000Y-45645000D03*
D21*
X116740000Y-53710000D03*
X118740000Y-53710000D03*
D26*
X76650000Y-33520000D03*
X74450000Y-33520000D03*
X74450000Y-35420000D03*
X76650000Y-35420000D03*
G36*
G01*
X96637500Y-51775000D02*
X96362500Y-51775000D01*
G75*
G02*
X96225000Y-51637500I0J137500D01*
G01*
X96225000Y-50387500D01*
G75*
G02*
X96362500Y-50250000I137500J0D01*
G01*
X96637500Y-50250000D01*
G75*
G02*
X96775000Y-50387500I0J-137500D01*
G01*
X96775000Y-51637500D01*
G75*
G02*
X96637500Y-51775000I-137500J0D01*
G01*
G37*
G36*
G01*
X97437500Y-51775000D02*
X97162500Y-51775000D01*
G75*
G02*
X97025000Y-51637500I0J137500D01*
G01*
X97025000Y-50387500D01*
G75*
G02*
X97162500Y-50250000I137500J0D01*
G01*
X97437500Y-50250000D01*
G75*
G02*
X97575000Y-50387500I0J-137500D01*
G01*
X97575000Y-51637500D01*
G75*
G02*
X97437500Y-51775000I-137500J0D01*
G01*
G37*
G36*
G01*
X98237500Y-51775000D02*
X97962500Y-51775000D01*
G75*
G02*
X97825000Y-51637500I0J137500D01*
G01*
X97825000Y-50387500D01*
G75*
G02*
X97962500Y-50250000I137500J0D01*
G01*
X98237500Y-50250000D01*
G75*
G02*
X98375000Y-50387500I0J-137500D01*
G01*
X98375000Y-51637500D01*
G75*
G02*
X98237500Y-51775000I-137500J0D01*
G01*
G37*
G36*
G01*
X99037500Y-51775000D02*
X98762500Y-51775000D01*
G75*
G02*
X98625000Y-51637500I0J137500D01*
G01*
X98625000Y-50387500D01*
G75*
G02*
X98762500Y-50250000I137500J0D01*
G01*
X99037500Y-50250000D01*
G75*
G02*
X99175000Y-50387500I0J-137500D01*
G01*
X99175000Y-51637500D01*
G75*
G02*
X99037500Y-51775000I-137500J0D01*
G01*
G37*
G36*
G01*
X99837500Y-51775000D02*
X99562500Y-51775000D01*
G75*
G02*
X99425000Y-51637500I0J137500D01*
G01*
X99425000Y-50387500D01*
G75*
G02*
X99562500Y-50250000I137500J0D01*
G01*
X99837500Y-50250000D01*
G75*
G02*
X99975000Y-50387500I0J-137500D01*
G01*
X99975000Y-51637500D01*
G75*
G02*
X99837500Y-51775000I-137500J0D01*
G01*
G37*
G36*
G01*
X100637500Y-51775000D02*
X100362500Y-51775000D01*
G75*
G02*
X100225000Y-51637500I0J137500D01*
G01*
X100225000Y-50387500D01*
G75*
G02*
X100362500Y-50250000I137500J0D01*
G01*
X100637500Y-50250000D01*
G75*
G02*
X100775000Y-50387500I0J-137500D01*
G01*
X100775000Y-51637500D01*
G75*
G02*
X100637500Y-51775000I-137500J0D01*
G01*
G37*
G36*
G01*
X101437500Y-51775000D02*
X101162500Y-51775000D01*
G75*
G02*
X101025000Y-51637500I0J137500D01*
G01*
X101025000Y-50387500D01*
G75*
G02*
X101162500Y-50250000I137500J0D01*
G01*
X101437500Y-50250000D01*
G75*
G02*
X101575000Y-50387500I0J-137500D01*
G01*
X101575000Y-51637500D01*
G75*
G02*
X101437500Y-51775000I-137500J0D01*
G01*
G37*
G36*
G01*
X102237500Y-51775000D02*
X101962500Y-51775000D01*
G75*
G02*
X101825000Y-51637500I0J137500D01*
G01*
X101825000Y-50387500D01*
G75*
G02*
X101962500Y-50250000I137500J0D01*
G01*
X102237500Y-50250000D01*
G75*
G02*
X102375000Y-50387500I0J-137500D01*
G01*
X102375000Y-51637500D01*
G75*
G02*
X102237500Y-51775000I-137500J0D01*
G01*
G37*
G36*
G01*
X103037500Y-51775000D02*
X102762500Y-51775000D01*
G75*
G02*
X102625000Y-51637500I0J137500D01*
G01*
X102625000Y-50387500D01*
G75*
G02*
X102762500Y-50250000I137500J0D01*
G01*
X103037500Y-50250000D01*
G75*
G02*
X103175000Y-50387500I0J-137500D01*
G01*
X103175000Y-51637500D01*
G75*
G02*
X103037500Y-51775000I-137500J0D01*
G01*
G37*
G36*
G01*
X103837500Y-51775000D02*
X103562500Y-51775000D01*
G75*
G02*
X103425000Y-51637500I0J137500D01*
G01*
X103425000Y-50387500D01*
G75*
G02*
X103562500Y-50250000I137500J0D01*
G01*
X103837500Y-50250000D01*
G75*
G02*
X103975000Y-50387500I0J-137500D01*
G01*
X103975000Y-51637500D01*
G75*
G02*
X103837500Y-51775000I-137500J0D01*
G01*
G37*
G36*
G01*
X104637500Y-51775000D02*
X104362500Y-51775000D01*
G75*
G02*
X104225000Y-51637500I0J137500D01*
G01*
X104225000Y-50387500D01*
G75*
G02*
X104362500Y-50250000I137500J0D01*
G01*
X104637500Y-50250000D01*
G75*
G02*
X104775000Y-50387500I0J-137500D01*
G01*
X104775000Y-51637500D01*
G75*
G02*
X104637500Y-51775000I-137500J0D01*
G01*
G37*
G36*
G01*
X105437500Y-51775000D02*
X105162500Y-51775000D01*
G75*
G02*
X105025000Y-51637500I0J137500D01*
G01*
X105025000Y-50387500D01*
G75*
G02*
X105162500Y-50250000I137500J0D01*
G01*
X105437500Y-50250000D01*
G75*
G02*
X105575000Y-50387500I0J-137500D01*
G01*
X105575000Y-51637500D01*
G75*
G02*
X105437500Y-51775000I-137500J0D01*
G01*
G37*
G36*
G01*
X106237500Y-51775000D02*
X105962500Y-51775000D01*
G75*
G02*
X105825000Y-51637500I0J137500D01*
G01*
X105825000Y-50387500D01*
G75*
G02*
X105962500Y-50250000I137500J0D01*
G01*
X106237500Y-50250000D01*
G75*
G02*
X106375000Y-50387500I0J-137500D01*
G01*
X106375000Y-51637500D01*
G75*
G02*
X106237500Y-51775000I-137500J0D01*
G01*
G37*
G36*
G01*
X107037500Y-51775000D02*
X106762500Y-51775000D01*
G75*
G02*
X106625000Y-51637500I0J137500D01*
G01*
X106625000Y-50387500D01*
G75*
G02*
X106762500Y-50250000I137500J0D01*
G01*
X107037500Y-50250000D01*
G75*
G02*
X107175000Y-50387500I0J-137500D01*
G01*
X107175000Y-51637500D01*
G75*
G02*
X107037500Y-51775000I-137500J0D01*
G01*
G37*
G36*
G01*
X107837500Y-51775000D02*
X107562500Y-51775000D01*
G75*
G02*
X107425000Y-51637500I0J137500D01*
G01*
X107425000Y-50387500D01*
G75*
G02*
X107562500Y-50250000I137500J0D01*
G01*
X107837500Y-50250000D01*
G75*
G02*
X107975000Y-50387500I0J-137500D01*
G01*
X107975000Y-51637500D01*
G75*
G02*
X107837500Y-51775000I-137500J0D01*
G01*
G37*
G36*
G01*
X108637500Y-51775000D02*
X108362500Y-51775000D01*
G75*
G02*
X108225000Y-51637500I0J137500D01*
G01*
X108225000Y-50387500D01*
G75*
G02*
X108362500Y-50250000I137500J0D01*
G01*
X108637500Y-50250000D01*
G75*
G02*
X108775000Y-50387500I0J-137500D01*
G01*
X108775000Y-51637500D01*
G75*
G02*
X108637500Y-51775000I-137500J0D01*
G01*
G37*
G36*
G01*
X109437500Y-51775000D02*
X109162500Y-51775000D01*
G75*
G02*
X109025000Y-51637500I0J137500D01*
G01*
X109025000Y-50387500D01*
G75*
G02*
X109162500Y-50250000I137500J0D01*
G01*
X109437500Y-50250000D01*
G75*
G02*
X109575000Y-50387500I0J-137500D01*
G01*
X109575000Y-51637500D01*
G75*
G02*
X109437500Y-51775000I-137500J0D01*
G01*
G37*
G36*
G01*
X110237500Y-51775000D02*
X109962500Y-51775000D01*
G75*
G02*
X109825000Y-51637500I0J137500D01*
G01*
X109825000Y-50387500D01*
G75*
G02*
X109962500Y-50250000I137500J0D01*
G01*
X110237500Y-50250000D01*
G75*
G02*
X110375000Y-50387500I0J-137500D01*
G01*
X110375000Y-51637500D01*
G75*
G02*
X110237500Y-51775000I-137500J0D01*
G01*
G37*
G36*
G01*
X111037500Y-51775000D02*
X110762500Y-51775000D01*
G75*
G02*
X110625000Y-51637500I0J137500D01*
G01*
X110625000Y-50387500D01*
G75*
G02*
X110762500Y-50250000I137500J0D01*
G01*
X111037500Y-50250000D01*
G75*
G02*
X111175000Y-50387500I0J-137500D01*
G01*
X111175000Y-51637500D01*
G75*
G02*
X111037500Y-51775000I-137500J0D01*
G01*
G37*
G36*
G01*
X111837500Y-51775000D02*
X111562500Y-51775000D01*
G75*
G02*
X111425000Y-51637500I0J137500D01*
G01*
X111425000Y-50387500D01*
G75*
G02*
X111562500Y-50250000I137500J0D01*
G01*
X111837500Y-50250000D01*
G75*
G02*
X111975000Y-50387500I0J-137500D01*
G01*
X111975000Y-51637500D01*
G75*
G02*
X111837500Y-51775000I-137500J0D01*
G01*
G37*
G36*
G01*
X112637500Y-51775000D02*
X112362500Y-51775000D01*
G75*
G02*
X112225000Y-51637500I0J137500D01*
G01*
X112225000Y-50387500D01*
G75*
G02*
X112362500Y-50250000I137500J0D01*
G01*
X112637500Y-50250000D01*
G75*
G02*
X112775000Y-50387500I0J-137500D01*
G01*
X112775000Y-51637500D01*
G75*
G02*
X112637500Y-51775000I-137500J0D01*
G01*
G37*
G36*
G01*
X113437500Y-51775000D02*
X113162500Y-51775000D01*
G75*
G02*
X113025000Y-51637500I0J137500D01*
G01*
X113025000Y-50387500D01*
G75*
G02*
X113162500Y-50250000I137500J0D01*
G01*
X113437500Y-50250000D01*
G75*
G02*
X113575000Y-50387500I0J-137500D01*
G01*
X113575000Y-51637500D01*
G75*
G02*
X113437500Y-51775000I-137500J0D01*
G01*
G37*
G36*
G01*
X113437500Y-62950000D02*
X113162500Y-62950000D01*
G75*
G02*
X113025000Y-62812500I0J137500D01*
G01*
X113025000Y-61562500D01*
G75*
G02*
X113162500Y-61425000I137500J0D01*
G01*
X113437500Y-61425000D01*
G75*
G02*
X113575000Y-61562500I0J-137500D01*
G01*
X113575000Y-62812500D01*
G75*
G02*
X113437500Y-62950000I-137500J0D01*
G01*
G37*
G36*
G01*
X112637500Y-62950000D02*
X112362500Y-62950000D01*
G75*
G02*
X112225000Y-62812500I0J137500D01*
G01*
X112225000Y-61562500D01*
G75*
G02*
X112362500Y-61425000I137500J0D01*
G01*
X112637500Y-61425000D01*
G75*
G02*
X112775000Y-61562500I0J-137500D01*
G01*
X112775000Y-62812500D01*
G75*
G02*
X112637500Y-62950000I-137500J0D01*
G01*
G37*
G36*
G01*
X111837500Y-62950000D02*
X111562500Y-62950000D01*
G75*
G02*
X111425000Y-62812500I0J137500D01*
G01*
X111425000Y-61562500D01*
G75*
G02*
X111562500Y-61425000I137500J0D01*
G01*
X111837500Y-61425000D01*
G75*
G02*
X111975000Y-61562500I0J-137500D01*
G01*
X111975000Y-62812500D01*
G75*
G02*
X111837500Y-62950000I-137500J0D01*
G01*
G37*
G36*
G01*
X111037500Y-62950000D02*
X110762500Y-62950000D01*
G75*
G02*
X110625000Y-62812500I0J137500D01*
G01*
X110625000Y-61562500D01*
G75*
G02*
X110762500Y-61425000I137500J0D01*
G01*
X111037500Y-61425000D01*
G75*
G02*
X111175000Y-61562500I0J-137500D01*
G01*
X111175000Y-62812500D01*
G75*
G02*
X111037500Y-62950000I-137500J0D01*
G01*
G37*
G36*
G01*
X110237500Y-62950000D02*
X109962500Y-62950000D01*
G75*
G02*
X109825000Y-62812500I0J137500D01*
G01*
X109825000Y-61562500D01*
G75*
G02*
X109962500Y-61425000I137500J0D01*
G01*
X110237500Y-61425000D01*
G75*
G02*
X110375000Y-61562500I0J-137500D01*
G01*
X110375000Y-62812500D01*
G75*
G02*
X110237500Y-62950000I-137500J0D01*
G01*
G37*
G36*
G01*
X109437500Y-62950000D02*
X109162500Y-62950000D01*
G75*
G02*
X109025000Y-62812500I0J137500D01*
G01*
X109025000Y-61562500D01*
G75*
G02*
X109162500Y-61425000I137500J0D01*
G01*
X109437500Y-61425000D01*
G75*
G02*
X109575000Y-61562500I0J-137500D01*
G01*
X109575000Y-62812500D01*
G75*
G02*
X109437500Y-62950000I-137500J0D01*
G01*
G37*
G36*
G01*
X108637500Y-62950000D02*
X108362500Y-62950000D01*
G75*
G02*
X108225000Y-62812500I0J137500D01*
G01*
X108225000Y-61562500D01*
G75*
G02*
X108362500Y-61425000I137500J0D01*
G01*
X108637500Y-61425000D01*
G75*
G02*
X108775000Y-61562500I0J-137500D01*
G01*
X108775000Y-62812500D01*
G75*
G02*
X108637500Y-62950000I-137500J0D01*
G01*
G37*
G36*
G01*
X107837500Y-62950000D02*
X107562500Y-62950000D01*
G75*
G02*
X107425000Y-62812500I0J137500D01*
G01*
X107425000Y-61562500D01*
G75*
G02*
X107562500Y-61425000I137500J0D01*
G01*
X107837500Y-61425000D01*
G75*
G02*
X107975000Y-61562500I0J-137500D01*
G01*
X107975000Y-62812500D01*
G75*
G02*
X107837500Y-62950000I-137500J0D01*
G01*
G37*
G36*
G01*
X107037500Y-62950000D02*
X106762500Y-62950000D01*
G75*
G02*
X106625000Y-62812500I0J137500D01*
G01*
X106625000Y-61562500D01*
G75*
G02*
X106762500Y-61425000I137500J0D01*
G01*
X107037500Y-61425000D01*
G75*
G02*
X107175000Y-61562500I0J-137500D01*
G01*
X107175000Y-62812500D01*
G75*
G02*
X107037500Y-62950000I-137500J0D01*
G01*
G37*
G36*
G01*
X106237500Y-62950000D02*
X105962500Y-62950000D01*
G75*
G02*
X105825000Y-62812500I0J137500D01*
G01*
X105825000Y-61562500D01*
G75*
G02*
X105962500Y-61425000I137500J0D01*
G01*
X106237500Y-61425000D01*
G75*
G02*
X106375000Y-61562500I0J-137500D01*
G01*
X106375000Y-62812500D01*
G75*
G02*
X106237500Y-62950000I-137500J0D01*
G01*
G37*
G36*
G01*
X105437500Y-62950000D02*
X105162500Y-62950000D01*
G75*
G02*
X105025000Y-62812500I0J137500D01*
G01*
X105025000Y-61562500D01*
G75*
G02*
X105162500Y-61425000I137500J0D01*
G01*
X105437500Y-61425000D01*
G75*
G02*
X105575000Y-61562500I0J-137500D01*
G01*
X105575000Y-62812500D01*
G75*
G02*
X105437500Y-62950000I-137500J0D01*
G01*
G37*
G36*
G01*
X104637500Y-62950000D02*
X104362500Y-62950000D01*
G75*
G02*
X104225000Y-62812500I0J137500D01*
G01*
X104225000Y-61562500D01*
G75*
G02*
X104362500Y-61425000I137500J0D01*
G01*
X104637500Y-61425000D01*
G75*
G02*
X104775000Y-61562500I0J-137500D01*
G01*
X104775000Y-62812500D01*
G75*
G02*
X104637500Y-62950000I-137500J0D01*
G01*
G37*
G36*
G01*
X103837500Y-62950000D02*
X103562500Y-62950000D01*
G75*
G02*
X103425000Y-62812500I0J137500D01*
G01*
X103425000Y-61562500D01*
G75*
G02*
X103562500Y-61425000I137500J0D01*
G01*
X103837500Y-61425000D01*
G75*
G02*
X103975000Y-61562500I0J-137500D01*
G01*
X103975000Y-62812500D01*
G75*
G02*
X103837500Y-62950000I-137500J0D01*
G01*
G37*
G36*
G01*
X103037500Y-62950000D02*
X102762500Y-62950000D01*
G75*
G02*
X102625000Y-62812500I0J137500D01*
G01*
X102625000Y-61562500D01*
G75*
G02*
X102762500Y-61425000I137500J0D01*
G01*
X103037500Y-61425000D01*
G75*
G02*
X103175000Y-61562500I0J-137500D01*
G01*
X103175000Y-62812500D01*
G75*
G02*
X103037500Y-62950000I-137500J0D01*
G01*
G37*
G36*
G01*
X102237500Y-62950000D02*
X101962500Y-62950000D01*
G75*
G02*
X101825000Y-62812500I0J137500D01*
G01*
X101825000Y-61562500D01*
G75*
G02*
X101962500Y-61425000I137500J0D01*
G01*
X102237500Y-61425000D01*
G75*
G02*
X102375000Y-61562500I0J-137500D01*
G01*
X102375000Y-62812500D01*
G75*
G02*
X102237500Y-62950000I-137500J0D01*
G01*
G37*
G36*
G01*
X101437500Y-62950000D02*
X101162500Y-62950000D01*
G75*
G02*
X101025000Y-62812500I0J137500D01*
G01*
X101025000Y-61562500D01*
G75*
G02*
X101162500Y-61425000I137500J0D01*
G01*
X101437500Y-61425000D01*
G75*
G02*
X101575000Y-61562500I0J-137500D01*
G01*
X101575000Y-62812500D01*
G75*
G02*
X101437500Y-62950000I-137500J0D01*
G01*
G37*
G36*
G01*
X100637500Y-62950000D02*
X100362500Y-62950000D01*
G75*
G02*
X100225000Y-62812500I0J137500D01*
G01*
X100225000Y-61562500D01*
G75*
G02*
X100362500Y-61425000I137500J0D01*
G01*
X100637500Y-61425000D01*
G75*
G02*
X100775000Y-61562500I0J-137500D01*
G01*
X100775000Y-62812500D01*
G75*
G02*
X100637500Y-62950000I-137500J0D01*
G01*
G37*
G36*
G01*
X99837500Y-62950000D02*
X99562500Y-62950000D01*
G75*
G02*
X99425000Y-62812500I0J137500D01*
G01*
X99425000Y-61562500D01*
G75*
G02*
X99562500Y-61425000I137500J0D01*
G01*
X99837500Y-61425000D01*
G75*
G02*
X99975000Y-61562500I0J-137500D01*
G01*
X99975000Y-62812500D01*
G75*
G02*
X99837500Y-62950000I-137500J0D01*
G01*
G37*
G36*
G01*
X99037500Y-62950000D02*
X98762500Y-62950000D01*
G75*
G02*
X98625000Y-62812500I0J137500D01*
G01*
X98625000Y-61562500D01*
G75*
G02*
X98762500Y-61425000I137500J0D01*
G01*
X99037500Y-61425000D01*
G75*
G02*
X99175000Y-61562500I0J-137500D01*
G01*
X99175000Y-62812500D01*
G75*
G02*
X99037500Y-62950000I-137500J0D01*
G01*
G37*
G36*
G01*
X98237500Y-62950000D02*
X97962500Y-62950000D01*
G75*
G02*
X97825000Y-62812500I0J137500D01*
G01*
X97825000Y-61562500D01*
G75*
G02*
X97962500Y-61425000I137500J0D01*
G01*
X98237500Y-61425000D01*
G75*
G02*
X98375000Y-61562500I0J-137500D01*
G01*
X98375000Y-62812500D01*
G75*
G02*
X98237500Y-62950000I-137500J0D01*
G01*
G37*
G36*
G01*
X97437500Y-62950000D02*
X97162500Y-62950000D01*
G75*
G02*
X97025000Y-62812500I0J137500D01*
G01*
X97025000Y-61562500D01*
G75*
G02*
X97162500Y-61425000I137500J0D01*
G01*
X97437500Y-61425000D01*
G75*
G02*
X97575000Y-61562500I0J-137500D01*
G01*
X97575000Y-62812500D01*
G75*
G02*
X97437500Y-62950000I-137500J0D01*
G01*
G37*
G36*
G01*
X96637500Y-62950000D02*
X96362500Y-62950000D01*
G75*
G02*
X96225000Y-62812500I0J137500D01*
G01*
X96225000Y-61562500D01*
G75*
G02*
X96362500Y-61425000I137500J0D01*
G01*
X96637500Y-61425000D01*
G75*
G02*
X96775000Y-61562500I0J-137500D01*
G01*
X96775000Y-62812500D01*
G75*
G02*
X96637500Y-62950000I-137500J0D01*
G01*
G37*
D27*
X117500000Y-100500000D03*
X111500000Y-100500000D03*
X111500000Y-97500000D03*
X117500000Y-97500000D03*
X117500000Y-94500000D03*
X111500000Y-94500000D03*
X111500000Y-91500000D03*
X117500000Y-91500000D03*
D28*
X92550000Y-65250000D03*
X79450000Y-57750000D03*
X92550000Y-64750000D03*
X92550000Y-64250000D03*
X92550000Y-63750000D03*
X92550000Y-63250000D03*
X92550000Y-62750000D03*
X92550000Y-62250000D03*
X92550000Y-61750000D03*
X92550000Y-61250000D03*
X92550000Y-60750000D03*
X92550000Y-60250000D03*
X92550000Y-59750000D03*
X92550000Y-59250000D03*
X92550000Y-58750000D03*
X92550000Y-58250000D03*
X92550000Y-57750000D03*
X79450000Y-58250000D03*
X79450000Y-58750000D03*
X79450000Y-59250000D03*
X79450000Y-59750000D03*
X79450000Y-60250000D03*
X79450000Y-60750000D03*
X79450000Y-61250000D03*
X79450000Y-61750000D03*
X79450000Y-62250000D03*
X79450000Y-62750000D03*
X79450000Y-63250000D03*
X79450000Y-63750000D03*
X79450000Y-64250000D03*
X79450000Y-64750000D03*
X79450000Y-65250000D03*
D29*
X62274500Y-68132000D03*
X62774500Y-68132000D03*
X63274500Y-68132000D03*
X63774500Y-68132000D03*
X64274500Y-68132000D03*
X64774500Y-68132000D03*
X65274500Y-68132000D03*
X65774500Y-68132000D03*
X66274500Y-68132000D03*
X66774500Y-68132000D03*
X67274500Y-68132000D03*
X67774500Y-68132000D03*
X68274500Y-68132000D03*
X68774500Y-68132000D03*
X69274500Y-68132000D03*
X69774500Y-68132000D03*
X70274500Y-68132000D03*
X70774500Y-68132000D03*
X71274500Y-68132000D03*
X71774500Y-68132000D03*
X72274500Y-68132000D03*
X72774500Y-68132000D03*
X73274500Y-68132000D03*
X73774500Y-68132000D03*
X74274500Y-68132000D03*
X74774500Y-68132000D03*
X75274500Y-68132000D03*
X75774500Y-68132000D03*
X75774500Y-75632000D03*
X75274500Y-75632000D03*
X74774500Y-75632000D03*
X74274500Y-75632000D03*
X73774500Y-75632000D03*
X73274500Y-75632000D03*
X72774500Y-75632000D03*
X72274500Y-75632000D03*
X71774500Y-75632000D03*
X71274500Y-75632000D03*
X70774500Y-75632000D03*
X70274500Y-75632000D03*
X69774500Y-75632000D03*
X69274500Y-75632000D03*
X68774500Y-75632000D03*
X68274500Y-75632000D03*
X67774500Y-75632000D03*
X67274500Y-75632000D03*
X66774500Y-75632000D03*
X66274500Y-75632000D03*
X65774500Y-75632000D03*
X65274500Y-75632000D03*
X64774500Y-75632000D03*
X64274500Y-75632000D03*
X63774500Y-75632000D03*
X63274500Y-75632000D03*
X62774500Y-75632000D03*
X62274500Y-75632000D03*
D30*
X120500000Y-100600000D03*
X120500000Y-98400000D03*
D31*
X45955000Y-32583000D03*
X46605000Y-32583000D03*
X47255000Y-32583000D03*
X47905000Y-32583000D03*
X48555000Y-32583000D03*
X49205000Y-32583000D03*
X49855000Y-32583000D03*
X50505000Y-32583000D03*
X51155000Y-32583000D03*
X51805000Y-32583000D03*
X52455000Y-32583000D03*
X53105000Y-32583000D03*
X53105000Y-38283000D03*
X52455000Y-38283000D03*
X51805000Y-38283000D03*
X51155000Y-38283000D03*
X50505000Y-38283000D03*
X49855000Y-38283000D03*
X49205000Y-38283000D03*
X48555000Y-38283000D03*
X47905000Y-38283000D03*
X47255000Y-38283000D03*
X46605000Y-38283000D03*
X45955000Y-38283000D03*
D32*
X50934500Y-76219000D03*
X50934500Y-75569000D03*
X50934500Y-74919000D03*
X50934500Y-74269000D03*
X50934500Y-73619000D03*
X50934500Y-72969000D03*
X50934500Y-72319000D03*
X50934500Y-71669000D03*
X50934500Y-71019000D03*
X50934500Y-70369000D03*
X50934500Y-69719000D03*
X50934500Y-69069000D03*
X56634500Y-69069000D03*
X56634500Y-69719000D03*
X56634500Y-70369000D03*
X56634500Y-71019000D03*
X56634500Y-71669000D03*
X56634500Y-72319000D03*
X56634500Y-72969000D03*
X56634500Y-73619000D03*
X56634500Y-74269000D03*
X56634500Y-74919000D03*
X56634500Y-75569000D03*
X56634500Y-76219000D03*
D33*
X120300000Y-66850000D03*
X115700000Y-66850000D03*
X118000000Y-66850000D03*
D34*
X118000000Y-73150000D03*
D33*
X120300000Y-44850000D03*
X115700000Y-44850000D03*
X118000000Y-44850000D03*
D34*
X118000000Y-51150000D03*
D33*
X120300000Y-55850000D03*
X115700000Y-55850000D03*
X118000000Y-55850000D03*
D34*
X118000000Y-62150000D03*
D29*
X77133500Y-68259000D03*
X77633500Y-68259000D03*
X78133500Y-68259000D03*
X78633500Y-68259000D03*
X79133500Y-68259000D03*
X79633500Y-68259000D03*
X80133500Y-68259000D03*
X80633500Y-68259000D03*
X81133500Y-68259000D03*
X81633500Y-68259000D03*
X82133500Y-68259000D03*
X82633500Y-68259000D03*
X83133500Y-68259000D03*
X83633500Y-68259000D03*
X84133500Y-68259000D03*
X84633500Y-68259000D03*
X85133500Y-68259000D03*
X85633500Y-68259000D03*
X86133500Y-68259000D03*
X86633500Y-68259000D03*
X87133500Y-68259000D03*
X87633500Y-68259000D03*
X88133500Y-68259000D03*
X88633500Y-68259000D03*
X89133500Y-68259000D03*
X89633500Y-68259000D03*
X90133500Y-68259000D03*
X90633500Y-68259000D03*
X90633500Y-75759000D03*
X90133500Y-75759000D03*
X89633500Y-75759000D03*
X89133500Y-75759000D03*
X88633500Y-75759000D03*
X88133500Y-75759000D03*
X87633500Y-75759000D03*
X87133500Y-75759000D03*
X86633500Y-75759000D03*
X86133500Y-75759000D03*
X85633500Y-75759000D03*
X85133500Y-75759000D03*
X84633500Y-75759000D03*
X84133500Y-75759000D03*
X83633500Y-75759000D03*
X83133500Y-75759000D03*
X82633500Y-75759000D03*
X82133500Y-75759000D03*
X81633500Y-75759000D03*
X81133500Y-75759000D03*
X80633500Y-75759000D03*
X80133500Y-75759000D03*
X79633500Y-75759000D03*
X79133500Y-75759000D03*
X78633500Y-75759000D03*
X78133500Y-75759000D03*
X77633500Y-75759000D03*
X77133500Y-75759000D03*
D32*
X40188000Y-71228000D03*
X40188000Y-71878000D03*
X40188000Y-72528000D03*
X40188000Y-73178000D03*
X40188000Y-73828000D03*
X40188000Y-74478000D03*
X40188000Y-75128000D03*
X40188000Y-75778000D03*
X40188000Y-76428000D03*
X40188000Y-77078000D03*
X40188000Y-77728000D03*
X40188000Y-78378000D03*
X34488000Y-78378000D03*
X34488000Y-77728000D03*
X34488000Y-77078000D03*
X34488000Y-76428000D03*
X34488000Y-75778000D03*
X34488000Y-75128000D03*
X34488000Y-74478000D03*
X34488000Y-73828000D03*
X34488000Y-73178000D03*
X34488000Y-72528000D03*
X34488000Y-71878000D03*
X34488000Y-71228000D03*
X48189000Y-82531000D03*
X48189000Y-83181000D03*
X48189000Y-83831000D03*
X48189000Y-84481000D03*
X48189000Y-85131000D03*
X48189000Y-85781000D03*
X48189000Y-86431000D03*
X48189000Y-87081000D03*
X48189000Y-87731000D03*
X48189000Y-88381000D03*
X48189000Y-89031000D03*
X48189000Y-89681000D03*
X42489000Y-89681000D03*
X42489000Y-89031000D03*
X42489000Y-88381000D03*
X42489000Y-87731000D03*
X42489000Y-87081000D03*
X42489000Y-86431000D03*
X42489000Y-85781000D03*
X42489000Y-85131000D03*
X42489000Y-84481000D03*
X42489000Y-83831000D03*
X42489000Y-83181000D03*
X42489000Y-82531000D03*
X42298500Y-43224500D03*
X42298500Y-43874500D03*
X42298500Y-44524500D03*
X42298500Y-45174500D03*
X42298500Y-45824500D03*
X42298500Y-46474500D03*
X42298500Y-47124500D03*
X42298500Y-47774500D03*
X42298500Y-48424500D03*
X42298500Y-49074500D03*
X42298500Y-49724500D03*
X42298500Y-50374500D03*
X47998500Y-50374500D03*
X47998500Y-49724500D03*
X47998500Y-49074500D03*
X47998500Y-48424500D03*
X47998500Y-47774500D03*
X47998500Y-47124500D03*
X47998500Y-46474500D03*
X47998500Y-45824500D03*
X47998500Y-45174500D03*
X47998500Y-44524500D03*
X47998500Y-43874500D03*
X47998500Y-43224500D03*
D29*
X92750000Y-54750000D03*
X92250000Y-54750000D03*
X91750000Y-54750000D03*
X91250000Y-54750000D03*
X90750000Y-54750000D03*
X90250000Y-54750000D03*
X89750000Y-54750000D03*
X89250000Y-54750000D03*
X88750000Y-54750000D03*
X88250000Y-54750000D03*
X87750000Y-54750000D03*
X87250000Y-54750000D03*
X86750000Y-54750000D03*
X86250000Y-54750000D03*
X85750000Y-54750000D03*
X85250000Y-54750000D03*
X84750000Y-54750000D03*
X84250000Y-54750000D03*
X83750000Y-54750000D03*
X83250000Y-54750000D03*
X82750000Y-54750000D03*
X82250000Y-54750000D03*
X81750000Y-54750000D03*
X81250000Y-54750000D03*
X80750000Y-54750000D03*
X80250000Y-54750000D03*
X79750000Y-54750000D03*
X79250000Y-54750000D03*
X79250000Y-47250000D03*
X79750000Y-47250000D03*
X80250000Y-47250000D03*
X80750000Y-47250000D03*
X81250000Y-47250000D03*
X81750000Y-47250000D03*
X82250000Y-47250000D03*
X82750000Y-47250000D03*
X83250000Y-47250000D03*
X83750000Y-47250000D03*
X84250000Y-47250000D03*
X84750000Y-47250000D03*
X85250000Y-47250000D03*
X85750000Y-47250000D03*
X86250000Y-47250000D03*
X86750000Y-47250000D03*
X87250000Y-47250000D03*
X87750000Y-47250000D03*
X88250000Y-47250000D03*
X88750000Y-47250000D03*
X89250000Y-47250000D03*
X89750000Y-47250000D03*
X90250000Y-47250000D03*
X90750000Y-47250000D03*
X91250000Y-47250000D03*
X91750000Y-47250000D03*
X92250000Y-47250000D03*
X92750000Y-47250000D03*
D35*
X81650000Y-33150000D03*
X81650000Y-34050000D03*
X81650000Y-34950000D03*
X81650000Y-35850000D03*
X82850000Y-33150000D03*
X82850000Y-34050000D03*
X82850000Y-34950000D03*
X82850000Y-35850000D03*
D36*
X85550000Y-35600000D03*
X86500000Y-35600000D03*
X87450000Y-35600000D03*
X87450000Y-33400000D03*
X85550000Y-33400000D03*
D31*
X100075000Y-96350000D03*
X99425000Y-96350000D03*
X98775000Y-96350000D03*
X98125000Y-96350000D03*
X97475000Y-96350000D03*
X96825000Y-96350000D03*
X96175000Y-96350000D03*
X95525000Y-96350000D03*
X94875000Y-96350000D03*
X94225000Y-96350000D03*
X93575000Y-96350000D03*
X92925000Y-96350000D03*
X92925000Y-90650000D03*
X93575000Y-90650000D03*
X94225000Y-90650000D03*
X94875000Y-90650000D03*
X95525000Y-90650000D03*
X96175000Y-90650000D03*
X96825000Y-90650000D03*
X97475000Y-90650000D03*
X98125000Y-90650000D03*
X98775000Y-90650000D03*
X99425000Y-90650000D03*
X100075000Y-90650000D03*
X109075000Y-96350000D03*
X108425000Y-96350000D03*
X107775000Y-96350000D03*
X107125000Y-96350000D03*
X106475000Y-96350000D03*
X105825000Y-96350000D03*
X105175000Y-96350000D03*
X104525000Y-96350000D03*
X103875000Y-96350000D03*
X103225000Y-96350000D03*
X102575000Y-96350000D03*
X101925000Y-96350000D03*
X101925000Y-90650000D03*
X102575000Y-90650000D03*
X103225000Y-90650000D03*
X103875000Y-90650000D03*
X104525000Y-90650000D03*
X105175000Y-90650000D03*
X105825000Y-90650000D03*
X106475000Y-90650000D03*
X107125000Y-90650000D03*
X107775000Y-90650000D03*
X108425000Y-90650000D03*
X109075000Y-90650000D03*
D37*
X112940000Y-29610000D03*
X108060000Y-29610000D03*
D30*
X98500000Y-100600000D03*
X98500000Y-98400000D03*
X94600000Y-100600000D03*
X94600000Y-98400000D03*
X90800000Y-100600000D03*
X90800000Y-98400000D03*
X87000000Y-100570000D03*
X87000000Y-98370000D03*
D21*
X116760000Y-76290000D03*
X118760000Y-76290000D03*
X117340000Y-64640000D03*
X119340000Y-64640000D03*
D38*
X113350000Y-24120000D03*
X113350000Y-23170000D03*
X113350000Y-25070000D03*
X111150000Y-25070000D03*
X111150000Y-24120000D03*
X111150000Y-23170000D03*
M02*
