G04 #@! TF.GenerationSoftware,KiCad,Pcbnew,(5.1.6)-1*
G04 #@! TF.CreationDate,2021-06-05T12:15:53+01:00*
G04 #@! TF.ProjectId,blit-cpu-mk3,626c6974-2d63-4707-952d-6d6b332e6b69,3.00*
G04 #@! TF.SameCoordinates,Original*
G04 #@! TF.FileFunction,Legend,Bot*
G04 #@! TF.FilePolarity,Positive*
%FSLAX46Y46*%
G04 Gerber Fmt 4.6, Leading zero omitted, Abs format (unit mm)*
G04 Created by KiCad (PCBNEW (5.1.6)-1) date 2021-06-05 12:15:53*
%MOMM*%
%LPD*%
G01*
G04 APERTURE LIST*
%ADD10C,0.120000*%
G04 #@! TA.AperFunction,Profile*
%ADD11C,0.050000*%
G04 #@! TD*
%ADD12C,0.150000*%
%ADD13C,0.100000*%
G04 APERTURE END LIST*
D10*
X73750000Y-29000000D02*
X76750000Y-29250000D01*
X82500000Y-29000000D02*
X80000000Y-28500000D01*
X75750000Y-24000000D02*
X76500000Y-25250000D01*
D11*
X122000000Y-102000000D02*
X87000000Y-102000000D01*
X122000000Y-22000000D02*
X122000000Y-102000000D01*
X33200000Y-22000000D02*
X122000000Y-22000000D01*
X22000000Y-102000000D02*
X22000000Y-33200000D01*
X22000000Y-33200000D02*
G75*
G02*
X33200000Y-22000000I11200000J0D01*
G01*
X22000000Y-102000000D02*
X87000000Y-102000000D01*
D10*
X78650000Y-65620000D02*
X77450000Y-65620000D01*
X77450000Y-67380000D02*
X78650000Y-67380000D01*
X29170000Y-96650000D02*
X29170000Y-97850000D01*
X30930000Y-97850000D02*
X30930000Y-96650000D01*
X34230000Y-81700000D02*
X34230000Y-80500000D01*
X32470000Y-80500000D02*
X32470000Y-81700000D01*
X80550000Y-67380000D02*
X81750000Y-67380000D01*
X81750000Y-65620000D02*
X80550000Y-65620000D01*
X80000000Y-32100000D02*
X80000000Y-31500000D01*
X77900000Y-32800000D02*
X79300000Y-32800000D01*
X77200000Y-31500000D02*
X77200000Y-32100000D01*
X79300000Y-30800000D02*
X77900000Y-30800000D01*
X80000000Y-31500000D02*
G75*
G03*
X79300000Y-30800000I-700000J0D01*
G01*
X79300000Y-32800000D02*
G75*
G03*
X80000000Y-32100000I0J700000D01*
G01*
X77200000Y-32100000D02*
G75*
G03*
X77900000Y-32800000I700000J0D01*
G01*
X77900000Y-30800000D02*
G75*
G03*
X77200000Y-31500000I0J-700000D01*
G01*
X71730000Y-59200000D02*
X71730000Y-59700000D01*
X70670000Y-59700000D02*
X70670000Y-59200000D01*
X81500000Y-77900000D02*
X82500000Y-77900000D01*
X82500000Y-79600000D02*
X81500000Y-79600000D01*
X118120000Y-96900000D02*
X118120000Y-98100000D01*
X119880000Y-98100000D02*
X119880000Y-96900000D01*
X118120000Y-90850000D02*
X118120000Y-92050000D01*
X119880000Y-92050000D02*
X119880000Y-90850000D01*
X93900000Y-38380000D02*
X95100000Y-38380000D01*
X95100000Y-36620000D02*
X93900000Y-36620000D01*
X91650000Y-32380000D02*
X92850000Y-32380000D01*
X92850000Y-30620000D02*
X91650000Y-30620000D01*
X61025000Y-24370000D02*
X59825000Y-24370000D01*
X59825000Y-26130000D02*
X61025000Y-26130000D01*
X69600000Y-27480000D02*
X70800000Y-27480000D01*
X70800000Y-25720000D02*
X69600000Y-25720000D01*
X61025000Y-26370000D02*
X59825000Y-26370000D01*
X59825000Y-28130000D02*
X61025000Y-28130000D01*
X61025000Y-28370000D02*
X59825000Y-28370000D01*
X59825000Y-30130000D02*
X61025000Y-30130000D01*
X59850000Y-32130000D02*
X61050000Y-32130000D01*
X61050000Y-30370000D02*
X59850000Y-30370000D01*
X61930000Y-34600000D02*
X61930000Y-33400000D01*
X60170000Y-33400000D02*
X60170000Y-34600000D01*
X78000000Y-28680000D02*
X79200000Y-28680000D01*
X79200000Y-26920000D02*
X78000000Y-26920000D01*
X77999500Y-25080000D02*
X79199500Y-25080000D01*
X79199500Y-23320000D02*
X77999500Y-23320000D01*
X77870000Y-33650000D02*
X77870000Y-34850000D01*
X79630000Y-34850000D02*
X79630000Y-33650000D01*
X104650000Y-24630000D02*
X105850000Y-24630000D01*
X105850000Y-22870000D02*
X104650000Y-22870000D01*
X114370000Y-25650000D02*
X114370000Y-26850000D01*
X116130000Y-26850000D02*
X116130000Y-25650000D01*
X111650000Y-27880000D02*
X112850000Y-27880000D01*
X112850000Y-26120000D02*
X111650000Y-26120000D01*
X87870000Y-25400000D02*
X87870000Y-26600000D01*
X89630000Y-26600000D02*
X89630000Y-25400000D01*
X96600000Y-30620000D02*
X95400000Y-30620000D01*
X95400000Y-32380000D02*
X96600000Y-32380000D01*
X100150000Y-32380000D02*
X101350000Y-32380000D01*
X101350000Y-30620000D02*
X100150000Y-30620000D01*
X98350000Y-97370000D02*
X97150000Y-97370000D01*
X97150000Y-99130000D02*
X98350000Y-99130000D01*
X94350000Y-97370000D02*
X93150000Y-97370000D01*
X93150000Y-99130000D02*
X94350000Y-99130000D01*
X90600000Y-97370000D02*
X89400000Y-97370000D01*
X89400000Y-99130000D02*
X90600000Y-99130000D01*
X86600000Y-97370000D02*
X85400000Y-97370000D01*
X85400000Y-99130000D02*
X86600000Y-99130000D01*
X62198600Y-78945800D02*
X60998600Y-78945800D01*
X60998600Y-80705800D02*
X62198600Y-80705800D01*
X62198600Y-80800000D02*
X60998600Y-80800000D01*
X60998600Y-82560000D02*
X62198600Y-82560000D01*
X62198600Y-82654200D02*
X60998600Y-82654200D01*
X60998600Y-84414200D02*
X62198600Y-84414200D01*
X62198600Y-84508400D02*
X60998600Y-84508400D01*
X60998600Y-86268400D02*
X62198600Y-86268400D01*
X62198600Y-86337200D02*
X60998600Y-86337200D01*
X60998600Y-88097200D02*
X62198600Y-88097200D01*
X62198600Y-88166000D02*
X60998600Y-88166000D01*
X60998600Y-89926000D02*
X62198600Y-89926000D01*
X62198600Y-89994800D02*
X60998600Y-89994800D01*
X60998600Y-91754800D02*
X62198600Y-91754800D01*
X62198600Y-91823600D02*
X60998600Y-91823600D01*
X60998600Y-93583600D02*
X62198600Y-93583600D01*
X62224000Y-93652400D02*
X61024000Y-93652400D01*
X61024000Y-95412400D02*
X62224000Y-95412400D01*
X44493000Y-44036000D02*
X39148000Y-44036000D01*
X39148000Y-44036000D02*
X39148000Y-94956000D01*
X39148000Y-94956000D02*
X51838000Y-94956000D01*
X51838000Y-94956000D02*
X51838000Y-44036000D01*
X51838000Y-44036000D02*
X46493000Y-44036000D01*
X35448000Y-43976000D02*
X35448000Y-95016000D01*
X35448000Y-95016000D02*
X55538000Y-95016000D01*
X55538000Y-95016000D02*
X55538000Y-43976000D01*
X55538000Y-43976000D02*
X35448000Y-43976000D01*
X46493000Y-44036000D02*
G75*
G02*
X44493000Y-44036000I-1000000J0D01*
G01*
X100150000Y-91300000D02*
X100150000Y-90300000D01*
X101850000Y-90300000D02*
X101850000Y-91300000D01*
X107100000Y-95750000D02*
X108100000Y-95750000D01*
X108100000Y-97450000D02*
X107100000Y-97450000D01*
X115700000Y-95750000D02*
X116700000Y-95750000D01*
X116700000Y-97450000D02*
X115700000Y-97450000D01*
X115750000Y-89650000D02*
X116750000Y-89650000D01*
X116750000Y-91350000D02*
X115750000Y-91350000D01*
X67250000Y-76400000D02*
X68250000Y-76400000D01*
X68250000Y-78100000D02*
X67250000Y-78100000D01*
X85000000Y-47720000D02*
X86000000Y-47720000D01*
X86000000Y-49420000D02*
X85000000Y-49420000D01*
X101300000Y-97250000D02*
X100300000Y-97250000D01*
X100300000Y-95550000D02*
X101300000Y-95550000D01*
X110850000Y-91500000D02*
X110850000Y-92500000D01*
X109150000Y-92500000D02*
X109150000Y-91500000D01*
X81820000Y-33750000D02*
X81820000Y-32750000D01*
X83520000Y-32750000D02*
X83520000Y-33750000D01*
X86230000Y-30590000D02*
X87230000Y-30590000D01*
X87230000Y-32290000D02*
X86230000Y-32290000D01*
X66300000Y-27450000D02*
X65300000Y-27450000D01*
X65300000Y-25750000D02*
X66300000Y-25750000D01*
X78100000Y-28750000D02*
X79100000Y-28750000D01*
X79100000Y-30450000D02*
X78100000Y-30450000D01*
X78100000Y-25150000D02*
X79100000Y-25150000D01*
X79100000Y-26850000D02*
X78100000Y-26850000D01*
X47100000Y-35840000D02*
X46100000Y-35840000D01*
X46100000Y-34140000D02*
X47100000Y-34140000D01*
X50870000Y-41020000D02*
X50870000Y-40020000D01*
X52570000Y-40020000D02*
X52570000Y-41020000D01*
X44500000Y-42850000D02*
X43500000Y-42850000D01*
X43500000Y-41150000D02*
X44500000Y-41150000D01*
X47250000Y-41150000D02*
X48250000Y-41150000D01*
X48250000Y-42850000D02*
X47250000Y-42850000D01*
X81600000Y-34750000D02*
X81600000Y-35750000D01*
X79900000Y-35750000D02*
X79900000Y-34750000D01*
X106250000Y-42350000D02*
X105250000Y-42350000D01*
X105250000Y-40650000D02*
X106250000Y-40650000D01*
X104570000Y-70900000D02*
X105570000Y-70900000D01*
X105570000Y-72600000D02*
X104570000Y-72600000D01*
X105530000Y-79780000D02*
X104530000Y-79780000D01*
X104530000Y-78080000D02*
X105530000Y-78080000D01*
X91430000Y-61220000D02*
X91430000Y-62220000D01*
X89730000Y-62220000D02*
X89730000Y-61220000D01*
X77300000Y-63650000D02*
X76300000Y-63650000D01*
X76300000Y-61950000D02*
X77300000Y-61950000D01*
D12*
X81143034Y-83665000D02*
G75*
G03*
X81143034Y-83665000I-1118034J0D01*
G01*
X91643034Y-83665000D02*
G75*
G03*
X91643034Y-83665000I-1118034J0D01*
G01*
X101143034Y-83665000D02*
G75*
G03*
X101143034Y-83665000I-1118034J0D01*
G01*
X70525000Y-88665000D02*
X72525000Y-88665000D01*
X112025000Y-83665000D02*
X113025000Y-83665000D01*
X112025000Y-81665000D02*
X112025000Y-83665000D01*
X114025000Y-81665000D02*
X112025000Y-81665000D01*
X110025000Y-83665000D02*
X108025000Y-83665000D01*
X110025000Y-81665000D02*
X110025000Y-83665000D01*
X108025000Y-81665000D02*
X110025000Y-81665000D01*
D13*
G36*
X110025000Y-83165000D02*
G01*
X108025000Y-83165000D01*
X108025000Y-83665000D01*
X110025000Y-83665000D01*
X110025000Y-83165000D01*
G37*
X110025000Y-83165000D02*
X108025000Y-83165000D01*
X108025000Y-83665000D01*
X110025000Y-83665000D01*
X110025000Y-83165000D01*
G36*
X110025000Y-82165000D02*
G01*
X110025000Y-83165000D01*
X109025000Y-83165000D01*
X109025000Y-82165000D01*
X110025000Y-82165000D01*
G37*
X110025000Y-82165000D02*
X110025000Y-83165000D01*
X109025000Y-83165000D01*
X109025000Y-82165000D01*
X110025000Y-82165000D01*
G36*
X110025000Y-81665000D02*
G01*
X108025000Y-81665000D01*
X108025000Y-82165000D01*
X110025000Y-82165000D01*
X110025000Y-81665000D01*
G37*
X110025000Y-81665000D02*
X108025000Y-81665000D01*
X108025000Y-82165000D01*
X110025000Y-82165000D01*
X110025000Y-81665000D01*
G36*
X114025000Y-83165000D02*
G01*
X112025000Y-83165000D01*
X112025000Y-83665000D01*
X114025000Y-83665000D01*
X114025000Y-83165000D01*
G37*
X114025000Y-83165000D02*
X112025000Y-83165000D01*
X112025000Y-83665000D01*
X114025000Y-83665000D01*
X114025000Y-83165000D01*
G36*
X113025000Y-82165000D02*
G01*
X113025000Y-83165000D01*
X114025000Y-83165000D01*
X114025000Y-82165000D01*
X113025000Y-82165000D01*
G37*
X113025000Y-82165000D02*
X113025000Y-83165000D01*
X114025000Y-83165000D01*
X114025000Y-82165000D01*
X113025000Y-82165000D01*
G36*
X114025000Y-81665000D02*
G01*
X112025000Y-81665000D01*
X112025000Y-82165000D01*
X114025000Y-82165000D01*
X114025000Y-81665000D01*
G37*
X114025000Y-81665000D02*
X112025000Y-81665000D01*
X112025000Y-82165000D01*
X114025000Y-82165000D01*
X114025000Y-81665000D01*
D12*
X112025000Y-84665000D02*
X112025000Y-84165000D01*
X110025000Y-84665000D02*
X112025000Y-84665000D01*
X110025000Y-84165000D02*
X110025000Y-84665000D01*
X112025000Y-84165000D02*
X110025000Y-84165000D01*
X113025000Y-85165000D02*
X113025000Y-88165000D01*
X114025000Y-85165000D02*
X113025000Y-85165000D01*
X114025000Y-87165000D02*
X114025000Y-85165000D01*
X115025000Y-87165000D02*
X114025000Y-87165000D01*
X115025000Y-84165000D02*
X115025000Y-87165000D01*
X113025000Y-84165000D02*
X115025000Y-84165000D01*
X113025000Y-83665000D02*
X113025000Y-84165000D01*
X114025000Y-83665000D02*
X113025000Y-83665000D01*
X114025000Y-81165000D02*
X114025000Y-83665000D01*
X113025000Y-81165000D02*
X114025000Y-81165000D01*
X113025000Y-80665000D02*
X113025000Y-81165000D01*
X109025000Y-80665000D02*
X113025000Y-80665000D01*
X109025000Y-81165000D02*
X109025000Y-80665000D01*
X108025000Y-81165000D02*
X109025000Y-81165000D01*
X108025000Y-83665000D02*
X108025000Y-81165000D01*
X107025000Y-83665000D02*
X108025000Y-83665000D01*
X107025000Y-86665000D02*
X107025000Y-83665000D01*
X108025000Y-86665000D02*
X107025000Y-86665000D01*
X108025000Y-84665000D02*
X108025000Y-86665000D01*
X109025000Y-84665000D02*
X108025000Y-84665000D01*
X109025000Y-87665000D02*
X109025000Y-84665000D01*
X108025000Y-87665000D02*
X109025000Y-87665000D01*
X108025000Y-88165000D02*
X108025000Y-87665000D01*
X110025000Y-88165000D02*
X108025000Y-88165000D01*
X110025000Y-86665000D02*
X110025000Y-88165000D01*
X112025000Y-86665000D02*
X110025000Y-86665000D01*
X112025000Y-88665000D02*
X112025000Y-86665000D01*
X114025000Y-88665000D02*
X112025000Y-88665000D01*
X114025000Y-88165000D02*
X113025000Y-88165000D01*
X114025000Y-88665000D02*
X114025000Y-88165000D01*
D13*
G36*
X71525000Y-86665000D02*
G01*
X71525000Y-86165000D01*
X72525000Y-86165000D01*
X72525000Y-86665000D01*
X71525000Y-86665000D01*
G37*
X71525000Y-86665000D02*
X71525000Y-86165000D01*
X72525000Y-86165000D01*
X72525000Y-86665000D01*
X71525000Y-86665000D01*
G36*
X71525000Y-86665000D02*
G01*
X69525000Y-86665000D01*
X69525000Y-87165000D01*
X71525000Y-87165000D01*
X71525000Y-86665000D01*
G37*
X71525000Y-86665000D02*
X69525000Y-86665000D01*
X69525000Y-87165000D01*
X71525000Y-87165000D01*
X71525000Y-86665000D01*
G36*
X69525000Y-86165000D02*
G01*
X69525000Y-86665000D01*
X68525000Y-86665000D01*
X68525000Y-86165000D01*
X69525000Y-86165000D01*
G37*
X69525000Y-86165000D02*
X69525000Y-86665000D01*
X68525000Y-86665000D01*
X68525000Y-86165000D01*
X69525000Y-86165000D01*
G36*
X69525000Y-85165000D02*
G01*
X69525000Y-85665000D01*
X68525000Y-85665000D01*
X68525000Y-85165000D01*
X69525000Y-85165000D01*
G37*
X69525000Y-85165000D02*
X69525000Y-85665000D01*
X68525000Y-85665000D01*
X68525000Y-85165000D01*
X69525000Y-85165000D01*
G36*
X71525000Y-84665000D02*
G01*
X71525000Y-85165000D01*
X69525000Y-85165000D01*
X69525000Y-84665000D01*
X71525000Y-84665000D01*
G37*
X71525000Y-84665000D02*
X71525000Y-85165000D01*
X69525000Y-85165000D01*
X69525000Y-84665000D01*
X71525000Y-84665000D01*
G36*
X72525000Y-85165000D02*
G01*
X72525000Y-85665000D01*
X71525000Y-85665000D01*
X71525000Y-85165000D01*
X72525000Y-85165000D01*
G37*
X72525000Y-85165000D02*
X72525000Y-85665000D01*
X71525000Y-85665000D01*
X71525000Y-85165000D01*
X72525000Y-85165000D01*
D12*
X71525000Y-85165000D02*
X71525000Y-84665000D01*
X72525000Y-85165000D02*
X71525000Y-85165000D01*
X72525000Y-86665000D02*
X72525000Y-85165000D01*
X71525000Y-86665000D02*
X72525000Y-86665000D01*
X71525000Y-87165000D02*
X71525000Y-86665000D01*
X69525000Y-87165000D02*
X71525000Y-87165000D01*
X69525000Y-86665000D02*
X69525000Y-87165000D01*
X68525000Y-86665000D02*
X69525000Y-86665000D01*
X68525000Y-85165000D02*
X68525000Y-86665000D01*
X69525000Y-85165000D02*
X68525000Y-85165000D01*
X69525000Y-84665000D02*
X69525000Y-85165000D01*
X69525000Y-85165000D02*
X69525000Y-84665000D01*
X71525000Y-84665000D02*
X69525000Y-84665000D01*
X67525000Y-84665000D02*
X67525000Y-82665000D01*
X69525000Y-84665000D02*
X67525000Y-84665000D01*
X73525000Y-82665000D02*
X71525000Y-82665000D01*
X73525000Y-83165000D02*
X73525000Y-82665000D01*
X69525000Y-82665000D02*
X69525000Y-84665000D01*
X73525000Y-83165000D02*
X73525000Y-84665000D01*
X67525000Y-82665000D02*
X67525000Y-82165000D01*
X66525000Y-82665000D02*
X67525000Y-82665000D01*
X66525000Y-83165000D02*
X66525000Y-82665000D01*
X65525000Y-83165000D02*
X66525000Y-83165000D01*
X65525000Y-86665000D02*
X65525000Y-83165000D01*
X66525000Y-86665000D02*
X65525000Y-86665000D01*
X66525000Y-87165000D02*
X66525000Y-86665000D01*
X67525000Y-87165000D02*
X66525000Y-87165000D01*
X67525000Y-87665000D02*
X67525000Y-87165000D01*
X66525000Y-87665000D02*
X67525000Y-87665000D01*
X66525000Y-88165000D02*
X66525000Y-87665000D01*
X68525000Y-88165000D02*
X66525000Y-88165000D01*
X68525000Y-87665000D02*
X68525000Y-88165000D01*
X70525000Y-87665000D02*
X68525000Y-87665000D01*
X70525000Y-88665000D02*
X70525000Y-87665000D01*
X72525000Y-88165000D02*
X72525000Y-88665000D01*
X71525000Y-88165000D02*
X72525000Y-88165000D01*
X71525000Y-87165000D02*
X71525000Y-88165000D01*
X72525000Y-87165000D02*
X71525000Y-87165000D01*
X72525000Y-86665000D02*
X72525000Y-87165000D01*
X73525000Y-86665000D02*
X72525000Y-86665000D01*
X73525000Y-84665000D02*
X73525000Y-86665000D01*
X71525000Y-82665000D02*
X71525000Y-82165000D01*
D13*
G36*
X69525000Y-84165000D02*
G01*
X69525000Y-84665000D01*
X67525000Y-84665000D01*
X67525000Y-84165000D01*
X69525000Y-84165000D01*
G37*
X69525000Y-84165000D02*
X69525000Y-84665000D01*
X67525000Y-84665000D01*
X67525000Y-84165000D01*
X69525000Y-84165000D01*
G36*
X68525000Y-83165000D02*
G01*
X68525000Y-84165000D01*
X67525000Y-84165000D01*
X67525000Y-83165000D01*
X68525000Y-83165000D01*
G37*
X68525000Y-83165000D02*
X68525000Y-84165000D01*
X67525000Y-84165000D01*
X67525000Y-83165000D01*
X68525000Y-83165000D01*
G36*
X69525000Y-82665000D02*
G01*
X69525000Y-83165000D01*
X67525000Y-83165000D01*
X67525000Y-82665000D01*
X69525000Y-82665000D01*
G37*
X69525000Y-82665000D02*
X69525000Y-83165000D01*
X67525000Y-83165000D01*
X67525000Y-82665000D01*
X69525000Y-82665000D01*
G36*
X73525000Y-84165000D02*
G01*
X73525000Y-84665000D01*
X71525000Y-84665000D01*
X71525000Y-84165000D01*
X73525000Y-84165000D01*
G37*
X73525000Y-84165000D02*
X73525000Y-84665000D01*
X71525000Y-84665000D01*
X71525000Y-84165000D01*
X73525000Y-84165000D01*
G36*
X72525000Y-83165000D02*
G01*
X72525000Y-84165000D01*
X71525000Y-84165000D01*
X71525000Y-83165000D01*
X72525000Y-83165000D01*
G37*
X72525000Y-83165000D02*
X72525000Y-84165000D01*
X71525000Y-84165000D01*
X71525000Y-83165000D01*
X72525000Y-83165000D01*
G36*
X73525000Y-82665000D02*
G01*
X73525000Y-83165000D01*
X71525000Y-83165000D01*
X71525000Y-82665000D01*
X73525000Y-82665000D01*
G37*
X73525000Y-82665000D02*
X73525000Y-83165000D01*
X71525000Y-83165000D01*
X71525000Y-82665000D01*
X73525000Y-82665000D01*
G36*
X70525000Y-80665000D02*
G01*
X68525000Y-80665000D01*
X68525000Y-81665000D01*
X70525000Y-81665000D01*
X70525000Y-80665000D01*
G37*
X70525000Y-80665000D02*
X68525000Y-80665000D01*
X68525000Y-81665000D01*
X70525000Y-81665000D01*
X70525000Y-80665000D01*
G36*
X72525000Y-81665000D02*
G01*
X65525000Y-81665000D01*
X65525000Y-82165000D01*
X72525000Y-82165000D01*
X72525000Y-81665000D01*
G37*
X72525000Y-81665000D02*
X65525000Y-81665000D01*
X65525000Y-82165000D01*
X72525000Y-82165000D01*
X72525000Y-81665000D01*
G36*
X73525000Y-80665000D02*
G01*
X72525000Y-80665000D01*
X72525000Y-81665000D01*
X73525000Y-81665000D01*
X73525000Y-80665000D01*
G37*
X73525000Y-80665000D02*
X72525000Y-80665000D01*
X72525000Y-81665000D01*
X73525000Y-81665000D01*
X73525000Y-80665000D01*
D10*
X30740000Y-47080000D02*
X32200000Y-47080000D01*
X30740000Y-43920000D02*
X32900000Y-43920000D01*
X30740000Y-43920000D02*
X30740000Y-44850000D01*
X30740000Y-47080000D02*
X30740000Y-46150000D01*
X68220000Y-57080000D02*
X68720000Y-57080000D01*
X68720000Y-58020000D02*
X68220000Y-58020000D01*
X68760000Y-55930000D02*
X68260000Y-55930000D01*
X68260000Y-54990000D02*
X68760000Y-54990000D01*
X87200000Y-24820000D02*
X87500000Y-25120000D01*
X87500000Y-24520000D02*
X87500000Y-25120000D01*
X87200000Y-24820000D02*
X87500000Y-24520000D01*
X86300000Y-23970000D02*
X85700000Y-23970000D01*
X87000000Y-27420000D02*
X87000000Y-24620000D01*
X85700000Y-28070000D02*
X86300000Y-28070000D01*
X85000000Y-24620000D02*
X85000000Y-27420000D01*
X85700000Y-23970000D02*
G75*
G03*
X85000000Y-24670000I0J-700000D01*
G01*
X87000000Y-24670000D02*
G75*
G03*
X86300000Y-23970000I-700000J0D01*
G01*
X86300000Y-28070000D02*
G75*
G03*
X87000000Y-27370000I0J700000D01*
G01*
X85000000Y-27370000D02*
G75*
G03*
X85700000Y-28070000I700000J0D01*
G01*
X96055000Y-43910000D02*
X96055000Y-42750000D01*
X95675000Y-43910000D02*
X96055000Y-43910000D01*
X95675000Y-49100000D02*
X95675000Y-43910000D01*
X95675000Y-54290000D02*
X96055000Y-54290000D01*
X95675000Y-49100000D02*
X95675000Y-54290000D01*
X114305000Y-43910000D02*
X113925000Y-43910000D01*
X114305000Y-49100000D02*
X114305000Y-43910000D01*
X114305000Y-54290000D02*
X113925000Y-54290000D01*
X114305000Y-49100000D02*
X114305000Y-54290000D01*
X95965000Y-58910000D02*
X95965000Y-57750000D01*
X95585000Y-58910000D02*
X95965000Y-58910000D01*
X95585000Y-64100000D02*
X95585000Y-58910000D01*
X95585000Y-69290000D02*
X95965000Y-69290000D01*
X95585000Y-64100000D02*
X95585000Y-69290000D01*
X114215000Y-58910000D02*
X113835000Y-58910000D01*
X114215000Y-64100000D02*
X114215000Y-58910000D01*
X114215000Y-69290000D02*
X113835000Y-69290000D01*
X114215000Y-64100000D02*
X114215000Y-69290000D01*
X76170000Y-53600000D02*
X76670000Y-53600000D01*
X76670000Y-54540000D02*
X76170000Y-54540000D01*
X63870000Y-57070000D02*
X63370000Y-57070000D01*
X63370000Y-56130000D02*
X63870000Y-56130000D01*
X69420000Y-63000000D02*
X69420000Y-63500000D01*
X68480000Y-63500000D02*
X68480000Y-63000000D01*
X69530000Y-52180000D02*
X69030000Y-52180000D01*
X69030000Y-51240000D02*
X69530000Y-51240000D01*
X64730000Y-60780000D02*
X64230000Y-60780000D01*
X64230000Y-59840000D02*
X64730000Y-59840000D01*
X73810000Y-54420000D02*
X74310000Y-54420000D01*
X74310000Y-55360000D02*
X73810000Y-55360000D01*
X74280000Y-60770000D02*
X74780000Y-60770000D01*
X74780000Y-61710000D02*
X74280000Y-61710000D01*
X65030000Y-52500000D02*
X65030000Y-52000000D01*
X65970000Y-52000000D02*
X65970000Y-52500000D01*
X63030000Y-52500000D02*
X63030000Y-52000000D01*
X63970000Y-52000000D02*
X63970000Y-52500000D01*
X72750000Y-61220000D02*
X72250000Y-61220000D01*
X72250000Y-60280000D02*
X72750000Y-60280000D01*
X62700000Y-61240000D02*
X62700000Y-61740000D01*
X61760000Y-61740000D02*
X61760000Y-61240000D01*
X70500000Y-50750000D02*
X70500000Y-50250000D01*
X71440000Y-50250000D02*
X71440000Y-50750000D01*
X107800000Y-28980000D02*
X109260000Y-28980000D01*
X107800000Y-25820000D02*
X109960000Y-25820000D01*
X107800000Y-25820000D02*
X107800000Y-26750000D01*
X107800000Y-28980000D02*
X107800000Y-28050000D01*
X104080000Y-28830000D02*
X105540000Y-28830000D01*
X104080000Y-25670000D02*
X106240000Y-25670000D01*
X104080000Y-25670000D02*
X104080000Y-26600000D01*
X104080000Y-28830000D02*
X104080000Y-27900000D01*
X65240000Y-27750000D02*
X66240000Y-27750000D01*
X66240000Y-29450000D02*
X65240000Y-29450000D01*
X106840000Y-31260000D02*
X107840000Y-31260000D01*
X107840000Y-32960000D02*
X106840000Y-32960000D01*
X32700000Y-29550000D02*
X33700000Y-29550000D01*
X33700000Y-31250000D02*
X32700000Y-31250000D01*
D12*
X78642857Y-68702380D02*
X78976190Y-68226190D01*
X79214285Y-68702380D02*
X79214285Y-67702380D01*
X78833333Y-67702380D01*
X78738095Y-67750000D01*
X78690476Y-67797619D01*
X78642857Y-67892857D01*
X78642857Y-68035714D01*
X78690476Y-68130952D01*
X78738095Y-68178571D01*
X78833333Y-68226190D01*
X79214285Y-68226190D01*
X78071428Y-68130952D02*
X78166666Y-68083333D01*
X78214285Y-68035714D01*
X78261904Y-67940476D01*
X78261904Y-67892857D01*
X78214285Y-67797619D01*
X78166666Y-67750000D01*
X78071428Y-67702380D01*
X77880952Y-67702380D01*
X77785714Y-67750000D01*
X77738095Y-67797619D01*
X77690476Y-67892857D01*
X77690476Y-67940476D01*
X77738095Y-68035714D01*
X77785714Y-68083333D01*
X77880952Y-68130952D01*
X78071428Y-68130952D01*
X78166666Y-68178571D01*
X78214285Y-68226190D01*
X78261904Y-68321428D01*
X78261904Y-68511904D01*
X78214285Y-68607142D01*
X78166666Y-68654761D01*
X78071428Y-68702380D01*
X77880952Y-68702380D01*
X77785714Y-68654761D01*
X77738095Y-68607142D01*
X77690476Y-68511904D01*
X77690476Y-68321428D01*
X77738095Y-68226190D01*
X77785714Y-68178571D01*
X77880952Y-68130952D01*
X76785714Y-67702380D02*
X77261904Y-67702380D01*
X77309523Y-68178571D01*
X77261904Y-68130952D01*
X77166666Y-68083333D01*
X76928571Y-68083333D01*
X76833333Y-68130952D01*
X76785714Y-68178571D01*
X76738095Y-68273809D01*
X76738095Y-68511904D01*
X76785714Y-68607142D01*
X76833333Y-68654761D01*
X76928571Y-68702380D01*
X77166666Y-68702380D01*
X77261904Y-68654761D01*
X77309523Y-68607142D01*
X30742857Y-95452380D02*
X31076190Y-94976190D01*
X31314285Y-95452380D02*
X31314285Y-94452380D01*
X30933333Y-94452380D01*
X30838095Y-94500000D01*
X30790476Y-94547619D01*
X30742857Y-94642857D01*
X30742857Y-94785714D01*
X30790476Y-94880952D01*
X30838095Y-94928571D01*
X30933333Y-94976190D01*
X31314285Y-94976190D01*
X30171428Y-94880952D02*
X30266666Y-94833333D01*
X30314285Y-94785714D01*
X30361904Y-94690476D01*
X30361904Y-94642857D01*
X30314285Y-94547619D01*
X30266666Y-94500000D01*
X30171428Y-94452380D01*
X29980952Y-94452380D01*
X29885714Y-94500000D01*
X29838095Y-94547619D01*
X29790476Y-94642857D01*
X29790476Y-94690476D01*
X29838095Y-94785714D01*
X29885714Y-94833333D01*
X29980952Y-94880952D01*
X30171428Y-94880952D01*
X30266666Y-94928571D01*
X30314285Y-94976190D01*
X30361904Y-95071428D01*
X30361904Y-95261904D01*
X30314285Y-95357142D01*
X30266666Y-95404761D01*
X30171428Y-95452380D01*
X29980952Y-95452380D01*
X29885714Y-95404761D01*
X29838095Y-95357142D01*
X29790476Y-95261904D01*
X29790476Y-95071428D01*
X29838095Y-94976190D01*
X29885714Y-94928571D01*
X29980952Y-94880952D01*
X29457142Y-94452380D02*
X28790476Y-94452380D01*
X29219047Y-95452380D01*
X32152380Y-80457142D02*
X31676190Y-80123809D01*
X32152380Y-79885714D02*
X31152380Y-79885714D01*
X31152380Y-80266666D01*
X31200000Y-80361904D01*
X31247619Y-80409523D01*
X31342857Y-80457142D01*
X31485714Y-80457142D01*
X31580952Y-80409523D01*
X31628571Y-80361904D01*
X31676190Y-80266666D01*
X31676190Y-79885714D01*
X31580952Y-81028571D02*
X31533333Y-80933333D01*
X31485714Y-80885714D01*
X31390476Y-80838095D01*
X31342857Y-80838095D01*
X31247619Y-80885714D01*
X31200000Y-80933333D01*
X31152380Y-81028571D01*
X31152380Y-81219047D01*
X31200000Y-81314285D01*
X31247619Y-81361904D01*
X31342857Y-81409523D01*
X31390476Y-81409523D01*
X31485714Y-81361904D01*
X31533333Y-81314285D01*
X31580952Y-81219047D01*
X31580952Y-81028571D01*
X31628571Y-80933333D01*
X31676190Y-80885714D01*
X31771428Y-80838095D01*
X31961904Y-80838095D01*
X32057142Y-80885714D01*
X32104761Y-80933333D01*
X32152380Y-81028571D01*
X32152380Y-81219047D01*
X32104761Y-81314285D01*
X32057142Y-81361904D01*
X31961904Y-81409523D01*
X31771428Y-81409523D01*
X31676190Y-81361904D01*
X31628571Y-81314285D01*
X31580952Y-81219047D01*
X31152380Y-82266666D02*
X31152380Y-82076190D01*
X31200000Y-81980952D01*
X31247619Y-81933333D01*
X31390476Y-81838095D01*
X31580952Y-81790476D01*
X31961904Y-81790476D01*
X32057142Y-81838095D01*
X32104761Y-81885714D01*
X32152380Y-81980952D01*
X32152380Y-82171428D01*
X32104761Y-82266666D01*
X32057142Y-82314285D01*
X31961904Y-82361904D01*
X31723809Y-82361904D01*
X31628571Y-82314285D01*
X31580952Y-82266666D01*
X31533333Y-82171428D01*
X31533333Y-81980952D01*
X31580952Y-81885714D01*
X31628571Y-81838095D01*
X31723809Y-81790476D01*
X81792857Y-68702380D02*
X82126190Y-68226190D01*
X82364285Y-68702380D02*
X82364285Y-67702380D01*
X81983333Y-67702380D01*
X81888095Y-67750000D01*
X81840476Y-67797619D01*
X81792857Y-67892857D01*
X81792857Y-68035714D01*
X81840476Y-68130952D01*
X81888095Y-68178571D01*
X81983333Y-68226190D01*
X82364285Y-68226190D01*
X81221428Y-68130952D02*
X81316666Y-68083333D01*
X81364285Y-68035714D01*
X81411904Y-67940476D01*
X81411904Y-67892857D01*
X81364285Y-67797619D01*
X81316666Y-67750000D01*
X81221428Y-67702380D01*
X81030952Y-67702380D01*
X80935714Y-67750000D01*
X80888095Y-67797619D01*
X80840476Y-67892857D01*
X80840476Y-67940476D01*
X80888095Y-68035714D01*
X80935714Y-68083333D01*
X81030952Y-68130952D01*
X81221428Y-68130952D01*
X81316666Y-68178571D01*
X81364285Y-68226190D01*
X81411904Y-68321428D01*
X81411904Y-68511904D01*
X81364285Y-68607142D01*
X81316666Y-68654761D01*
X81221428Y-68702380D01*
X81030952Y-68702380D01*
X80935714Y-68654761D01*
X80888095Y-68607142D01*
X80840476Y-68511904D01*
X80840476Y-68321428D01*
X80888095Y-68226190D01*
X80935714Y-68178571D01*
X81030952Y-68130952D01*
X79983333Y-68035714D02*
X79983333Y-68702380D01*
X80221428Y-67654761D02*
X80459523Y-68369047D01*
X79840476Y-68369047D01*
X76392857Y-32452380D02*
X76869047Y-32452380D01*
X76869047Y-31452380D01*
X76059523Y-32452380D02*
X76059523Y-31452380D01*
X75488095Y-32452380D02*
X75916666Y-31880952D01*
X75488095Y-31452380D02*
X76059523Y-32023809D01*
X75154761Y-31452380D02*
X74535714Y-31452380D01*
X74869047Y-31833333D01*
X74726190Y-31833333D01*
X74630952Y-31880952D01*
X74583333Y-31928571D01*
X74535714Y-32023809D01*
X74535714Y-32261904D01*
X74583333Y-32357142D01*
X74630952Y-32404761D01*
X74726190Y-32452380D01*
X75011904Y-32452380D01*
X75107142Y-32404761D01*
X75154761Y-32357142D01*
X73678571Y-31785714D02*
X73678571Y-32452380D01*
X73916666Y-31404761D02*
X74154761Y-32119047D01*
X73535714Y-32119047D01*
X72428571Y-56940476D02*
X72428571Y-56607142D01*
X72952380Y-56607142D02*
X71952380Y-56607142D01*
X71952380Y-57083333D01*
X72428571Y-57797619D02*
X72476190Y-57940476D01*
X72523809Y-57988095D01*
X72619047Y-58035714D01*
X72761904Y-58035714D01*
X72857142Y-57988095D01*
X72904761Y-57940476D01*
X72952380Y-57845238D01*
X72952380Y-57464285D01*
X71952380Y-57464285D01*
X71952380Y-57797619D01*
X72000000Y-57892857D01*
X72047619Y-57940476D01*
X72142857Y-57988095D01*
X72238095Y-57988095D01*
X72333333Y-57940476D01*
X72380952Y-57892857D01*
X72428571Y-57797619D01*
X72428571Y-57464285D01*
X72952380Y-58511904D02*
X72952380Y-58702380D01*
X72904761Y-58797619D01*
X72857142Y-58845238D01*
X72714285Y-58940476D01*
X72523809Y-58988095D01*
X72142857Y-58988095D01*
X72047619Y-58940476D01*
X72000000Y-58892857D01*
X71952380Y-58797619D01*
X71952380Y-58607142D01*
X72000000Y-58511904D01*
X72047619Y-58464285D01*
X72142857Y-58416666D01*
X72380952Y-58416666D01*
X72476190Y-58464285D01*
X72523809Y-58511904D01*
X72571428Y-58607142D01*
X72571428Y-58797619D01*
X72523809Y-58892857D01*
X72476190Y-58940476D01*
X72380952Y-58988095D01*
X72952380Y-59940476D02*
X72952380Y-59369047D01*
X72952380Y-59654761D02*
X71952380Y-59654761D01*
X72095238Y-59559523D01*
X72190476Y-59464285D01*
X72238095Y-59369047D01*
X83119047Y-77607142D02*
X83166666Y-77654761D01*
X83309523Y-77702380D01*
X83404761Y-77702380D01*
X83547619Y-77654761D01*
X83642857Y-77559523D01*
X83690476Y-77464285D01*
X83738095Y-77273809D01*
X83738095Y-77130952D01*
X83690476Y-76940476D01*
X83642857Y-76845238D01*
X83547619Y-76750000D01*
X83404761Y-76702380D01*
X83309523Y-76702380D01*
X83166666Y-76750000D01*
X83119047Y-76797619D01*
X82214285Y-76702380D02*
X82690476Y-76702380D01*
X82738095Y-77178571D01*
X82690476Y-77130952D01*
X82595238Y-77083333D01*
X82357142Y-77083333D01*
X82261904Y-77130952D01*
X82214285Y-77178571D01*
X82166666Y-77273809D01*
X82166666Y-77511904D01*
X82214285Y-77607142D01*
X82261904Y-77654761D01*
X82357142Y-77702380D01*
X82595238Y-77702380D01*
X82690476Y-77654761D01*
X82738095Y-77607142D01*
X81261904Y-76702380D02*
X81738095Y-76702380D01*
X81785714Y-77178571D01*
X81738095Y-77130952D01*
X81642857Y-77083333D01*
X81404761Y-77083333D01*
X81309523Y-77130952D01*
X81261904Y-77178571D01*
X81214285Y-77273809D01*
X81214285Y-77511904D01*
X81261904Y-77607142D01*
X81309523Y-77654761D01*
X81404761Y-77702380D01*
X81642857Y-77702380D01*
X81738095Y-77654761D01*
X81785714Y-77607142D01*
X80261904Y-77702380D02*
X80833333Y-77702380D01*
X80547619Y-77702380D02*
X80547619Y-76702380D01*
X80642857Y-76845238D01*
X80738095Y-76940476D01*
X80833333Y-76988095D01*
X121102380Y-96380952D02*
X120626190Y-96047619D01*
X121102380Y-95809523D02*
X120102380Y-95809523D01*
X120102380Y-96190476D01*
X120150000Y-96285714D01*
X120197619Y-96333333D01*
X120292857Y-96380952D01*
X120435714Y-96380952D01*
X120530952Y-96333333D01*
X120578571Y-96285714D01*
X120626190Y-96190476D01*
X120626190Y-95809523D01*
X120102380Y-97238095D02*
X120102380Y-97047619D01*
X120150000Y-96952380D01*
X120197619Y-96904761D01*
X120340476Y-96809523D01*
X120530952Y-96761904D01*
X120911904Y-96761904D01*
X121007142Y-96809523D01*
X121054761Y-96857142D01*
X121102380Y-96952380D01*
X121102380Y-97142857D01*
X121054761Y-97238095D01*
X121007142Y-97285714D01*
X120911904Y-97333333D01*
X120673809Y-97333333D01*
X120578571Y-97285714D01*
X120530952Y-97238095D01*
X120483333Y-97142857D01*
X120483333Y-96952380D01*
X120530952Y-96857142D01*
X120578571Y-96809523D01*
X120673809Y-96761904D01*
X121102380Y-98285714D02*
X121102380Y-97714285D01*
X121102380Y-98000000D02*
X120102380Y-98000000D01*
X120245238Y-97904761D01*
X120340476Y-97809523D01*
X120388095Y-97714285D01*
X120197619Y-98666666D02*
X120150000Y-98714285D01*
X120102380Y-98809523D01*
X120102380Y-99047619D01*
X120150000Y-99142857D01*
X120197619Y-99190476D01*
X120292857Y-99238095D01*
X120388095Y-99238095D01*
X120530952Y-99190476D01*
X121102380Y-98619047D01*
X121102380Y-99238095D01*
X121102380Y-90330952D02*
X120626190Y-89997619D01*
X121102380Y-89759523D02*
X120102380Y-89759523D01*
X120102380Y-90140476D01*
X120150000Y-90235714D01*
X120197619Y-90283333D01*
X120292857Y-90330952D01*
X120435714Y-90330952D01*
X120530952Y-90283333D01*
X120578571Y-90235714D01*
X120626190Y-90140476D01*
X120626190Y-89759523D01*
X120102380Y-91188095D02*
X120102380Y-90997619D01*
X120150000Y-90902380D01*
X120197619Y-90854761D01*
X120340476Y-90759523D01*
X120530952Y-90711904D01*
X120911904Y-90711904D01*
X121007142Y-90759523D01*
X121054761Y-90807142D01*
X121102380Y-90902380D01*
X121102380Y-91092857D01*
X121054761Y-91188095D01*
X121007142Y-91235714D01*
X120911904Y-91283333D01*
X120673809Y-91283333D01*
X120578571Y-91235714D01*
X120530952Y-91188095D01*
X120483333Y-91092857D01*
X120483333Y-90902380D01*
X120530952Y-90807142D01*
X120578571Y-90759523D01*
X120673809Y-90711904D01*
X121102380Y-92235714D02*
X121102380Y-91664285D01*
X121102380Y-91950000D02*
X120102380Y-91950000D01*
X120245238Y-91854761D01*
X120340476Y-91759523D01*
X120388095Y-91664285D01*
X121102380Y-93188095D02*
X121102380Y-92616666D01*
X121102380Y-92902380D02*
X120102380Y-92902380D01*
X120245238Y-92807142D01*
X120340476Y-92711904D01*
X120388095Y-92616666D01*
X95619047Y-39702380D02*
X95952380Y-39226190D01*
X96190476Y-39702380D02*
X96190476Y-38702380D01*
X95809523Y-38702380D01*
X95714285Y-38750000D01*
X95666666Y-38797619D01*
X95619047Y-38892857D01*
X95619047Y-39035714D01*
X95666666Y-39130952D01*
X95714285Y-39178571D01*
X95809523Y-39226190D01*
X96190476Y-39226190D01*
X94761904Y-39035714D02*
X94761904Y-39702380D01*
X95000000Y-38654761D02*
X95238095Y-39369047D01*
X94619047Y-39369047D01*
X94285714Y-38797619D02*
X94238095Y-38750000D01*
X94142857Y-38702380D01*
X93904761Y-38702380D01*
X93809523Y-38750000D01*
X93761904Y-38797619D01*
X93714285Y-38892857D01*
X93714285Y-38988095D01*
X93761904Y-39130952D01*
X94333333Y-39702380D01*
X93714285Y-39702380D01*
X93333333Y-38797619D02*
X93285714Y-38750000D01*
X93190476Y-38702380D01*
X92952380Y-38702380D01*
X92857142Y-38750000D01*
X92809523Y-38797619D01*
X92761904Y-38892857D01*
X92761904Y-38988095D01*
X92809523Y-39130952D01*
X93380952Y-39702380D01*
X92761904Y-39702380D01*
X90452380Y-30630952D02*
X89976190Y-30297619D01*
X90452380Y-30059523D02*
X89452380Y-30059523D01*
X89452380Y-30440476D01*
X89500000Y-30535714D01*
X89547619Y-30583333D01*
X89642857Y-30630952D01*
X89785714Y-30630952D01*
X89880952Y-30583333D01*
X89928571Y-30535714D01*
X89976190Y-30440476D01*
X89976190Y-30059523D01*
X89785714Y-31488095D02*
X90452380Y-31488095D01*
X89404761Y-31250000D02*
X90119047Y-31011904D01*
X90119047Y-31630952D01*
X89547619Y-31964285D02*
X89500000Y-32011904D01*
X89452380Y-32107142D01*
X89452380Y-32345238D01*
X89500000Y-32440476D01*
X89547619Y-32488095D01*
X89642857Y-32535714D01*
X89738095Y-32535714D01*
X89880952Y-32488095D01*
X90452380Y-31916666D01*
X90452380Y-32535714D01*
X90452380Y-33488095D02*
X90452380Y-32916666D01*
X90452380Y-33202380D02*
X89452380Y-33202380D01*
X89595238Y-33107142D01*
X89690476Y-33011904D01*
X89738095Y-32916666D01*
X61619047Y-23952380D02*
X61952380Y-23476190D01*
X62190476Y-23952380D02*
X62190476Y-22952380D01*
X61809523Y-22952380D01*
X61714285Y-23000000D01*
X61666666Y-23047619D01*
X61619047Y-23142857D01*
X61619047Y-23285714D01*
X61666666Y-23380952D01*
X61714285Y-23428571D01*
X61809523Y-23476190D01*
X62190476Y-23476190D01*
X60761904Y-23285714D02*
X60761904Y-23952380D01*
X61000000Y-22904761D02*
X61238095Y-23619047D01*
X60619047Y-23619047D01*
X59714285Y-23952380D02*
X60285714Y-23952380D01*
X60000000Y-23952380D02*
X60000000Y-22952380D01*
X60095238Y-23095238D01*
X60190476Y-23190476D01*
X60285714Y-23238095D01*
X58857142Y-22952380D02*
X59047619Y-22952380D01*
X59142857Y-23000000D01*
X59190476Y-23047619D01*
X59285714Y-23190476D01*
X59333333Y-23380952D01*
X59333333Y-23761904D01*
X59285714Y-23857142D01*
X59238095Y-23904761D01*
X59142857Y-23952380D01*
X58952380Y-23952380D01*
X58857142Y-23904761D01*
X58809523Y-23857142D01*
X58761904Y-23761904D01*
X58761904Y-23523809D01*
X58809523Y-23428571D01*
X58857142Y-23380952D01*
X58952380Y-23333333D01*
X59142857Y-23333333D01*
X59238095Y-23380952D01*
X59285714Y-23428571D01*
X59333333Y-23523809D01*
X71319047Y-25402380D02*
X71652380Y-24926190D01*
X71890476Y-25402380D02*
X71890476Y-24402380D01*
X71509523Y-24402380D01*
X71414285Y-24450000D01*
X71366666Y-24497619D01*
X71319047Y-24592857D01*
X71319047Y-24735714D01*
X71366666Y-24830952D01*
X71414285Y-24878571D01*
X71509523Y-24926190D01*
X71890476Y-24926190D01*
X70461904Y-24735714D02*
X70461904Y-25402380D01*
X70700000Y-24354761D02*
X70938095Y-25069047D01*
X70319047Y-25069047D01*
X69414285Y-25402380D02*
X69985714Y-25402380D01*
X69700000Y-25402380D02*
X69700000Y-24402380D01*
X69795238Y-24545238D01*
X69890476Y-24640476D01*
X69985714Y-24688095D01*
X68509523Y-24402380D02*
X68985714Y-24402380D01*
X69033333Y-24878571D01*
X68985714Y-24830952D01*
X68890476Y-24783333D01*
X68652380Y-24783333D01*
X68557142Y-24830952D01*
X68509523Y-24878571D01*
X68461904Y-24973809D01*
X68461904Y-25211904D01*
X68509523Y-25307142D01*
X68557142Y-25354761D01*
X68652380Y-25402380D01*
X68890476Y-25402380D01*
X68985714Y-25354761D01*
X69033333Y-25307142D01*
X57869047Y-27202380D02*
X58202380Y-26726190D01*
X58440476Y-27202380D02*
X58440476Y-26202380D01*
X58059523Y-26202380D01*
X57964285Y-26250000D01*
X57916666Y-26297619D01*
X57869047Y-26392857D01*
X57869047Y-26535714D01*
X57916666Y-26630952D01*
X57964285Y-26678571D01*
X58059523Y-26726190D01*
X58440476Y-26726190D01*
X57011904Y-26535714D02*
X57011904Y-27202380D01*
X57250000Y-26154761D02*
X57488095Y-26869047D01*
X56869047Y-26869047D01*
X55964285Y-27202380D02*
X56535714Y-27202380D01*
X56250000Y-27202380D02*
X56250000Y-26202380D01*
X56345238Y-26345238D01*
X56440476Y-26440476D01*
X56535714Y-26488095D01*
X55107142Y-26535714D02*
X55107142Y-27202380D01*
X55345238Y-26154761D02*
X55583333Y-26869047D01*
X54964285Y-26869047D01*
X57869047Y-30952380D02*
X58202380Y-30476190D01*
X58440476Y-30952380D02*
X58440476Y-29952380D01*
X58059523Y-29952380D01*
X57964285Y-30000000D01*
X57916666Y-30047619D01*
X57869047Y-30142857D01*
X57869047Y-30285714D01*
X57916666Y-30380952D01*
X57964285Y-30428571D01*
X58059523Y-30476190D01*
X58440476Y-30476190D01*
X57011904Y-30285714D02*
X57011904Y-30952380D01*
X57250000Y-29904761D02*
X57488095Y-30619047D01*
X56869047Y-30619047D01*
X55964285Y-30952380D02*
X56535714Y-30952380D01*
X56250000Y-30952380D02*
X56250000Y-29952380D01*
X56345238Y-30095238D01*
X56440476Y-30190476D01*
X56535714Y-30238095D01*
X55630952Y-29952380D02*
X55011904Y-29952380D01*
X55345238Y-30333333D01*
X55202380Y-30333333D01*
X55107142Y-30380952D01*
X55059523Y-30428571D01*
X55011904Y-30523809D01*
X55011904Y-30761904D01*
X55059523Y-30857142D01*
X55107142Y-30904761D01*
X55202380Y-30952380D01*
X55488095Y-30952380D01*
X55583333Y-30904761D01*
X55630952Y-30857142D01*
X57869047Y-32452380D02*
X58202380Y-31976190D01*
X58440476Y-32452380D02*
X58440476Y-31452380D01*
X58059523Y-31452380D01*
X57964285Y-31500000D01*
X57916666Y-31547619D01*
X57869047Y-31642857D01*
X57869047Y-31785714D01*
X57916666Y-31880952D01*
X57964285Y-31928571D01*
X58059523Y-31976190D01*
X58440476Y-31976190D01*
X57011904Y-31785714D02*
X57011904Y-32452380D01*
X57250000Y-31404761D02*
X57488095Y-32119047D01*
X56869047Y-32119047D01*
X55964285Y-32452380D02*
X56535714Y-32452380D01*
X56250000Y-32452380D02*
X56250000Y-31452380D01*
X56345238Y-31595238D01*
X56440476Y-31690476D01*
X56535714Y-31738095D01*
X55583333Y-31547619D02*
X55535714Y-31500000D01*
X55440476Y-31452380D01*
X55202380Y-31452380D01*
X55107142Y-31500000D01*
X55059523Y-31547619D01*
X55011904Y-31642857D01*
X55011904Y-31738095D01*
X55059523Y-31880952D01*
X55630952Y-32452380D01*
X55011904Y-32452380D01*
X62119047Y-36952380D02*
X62452380Y-36476190D01*
X62690476Y-36952380D02*
X62690476Y-35952380D01*
X62309523Y-35952380D01*
X62214285Y-36000000D01*
X62166666Y-36047619D01*
X62119047Y-36142857D01*
X62119047Y-36285714D01*
X62166666Y-36380952D01*
X62214285Y-36428571D01*
X62309523Y-36476190D01*
X62690476Y-36476190D01*
X61261904Y-36285714D02*
X61261904Y-36952380D01*
X61500000Y-35904761D02*
X61738095Y-36619047D01*
X61119047Y-36619047D01*
X60214285Y-36952380D02*
X60785714Y-36952380D01*
X60500000Y-36952380D02*
X60500000Y-35952380D01*
X60595238Y-36095238D01*
X60690476Y-36190476D01*
X60785714Y-36238095D01*
X59261904Y-36952380D02*
X59833333Y-36952380D01*
X59547619Y-36952380D02*
X59547619Y-35952380D01*
X59642857Y-36095238D01*
X59738095Y-36190476D01*
X59833333Y-36238095D01*
X83952380Y-28380952D02*
X83476190Y-28047619D01*
X83952380Y-27809523D02*
X82952380Y-27809523D01*
X82952380Y-28190476D01*
X83000000Y-28285714D01*
X83047619Y-28333333D01*
X83142857Y-28380952D01*
X83285714Y-28380952D01*
X83380952Y-28333333D01*
X83428571Y-28285714D01*
X83476190Y-28190476D01*
X83476190Y-27809523D01*
X82952380Y-28714285D02*
X82952380Y-29333333D01*
X83333333Y-29000000D01*
X83333333Y-29142857D01*
X83380952Y-29238095D01*
X83428571Y-29285714D01*
X83523809Y-29333333D01*
X83761904Y-29333333D01*
X83857142Y-29285714D01*
X83904761Y-29238095D01*
X83952380Y-29142857D01*
X83952380Y-28857142D01*
X83904761Y-28761904D01*
X83857142Y-28714285D01*
X83047619Y-29714285D02*
X83000000Y-29761904D01*
X82952380Y-29857142D01*
X82952380Y-30095238D01*
X83000000Y-30190476D01*
X83047619Y-30238095D01*
X83142857Y-30285714D01*
X83238095Y-30285714D01*
X83380952Y-30238095D01*
X83952380Y-29666666D01*
X83952380Y-30285714D01*
X83047619Y-30666666D02*
X83000000Y-30714285D01*
X82952380Y-30809523D01*
X82952380Y-31047619D01*
X83000000Y-31142857D01*
X83047619Y-31190476D01*
X83142857Y-31238095D01*
X83238095Y-31238095D01*
X83380952Y-31190476D01*
X83952380Y-30619047D01*
X83952380Y-31238095D01*
X82869047Y-23702380D02*
X83202380Y-23226190D01*
X83440476Y-23702380D02*
X83440476Y-22702380D01*
X83059523Y-22702380D01*
X82964285Y-22750000D01*
X82916666Y-22797619D01*
X82869047Y-22892857D01*
X82869047Y-23035714D01*
X82916666Y-23130952D01*
X82964285Y-23178571D01*
X83059523Y-23226190D01*
X83440476Y-23226190D01*
X82535714Y-22702380D02*
X81916666Y-22702380D01*
X82250000Y-23083333D01*
X82107142Y-23083333D01*
X82011904Y-23130952D01*
X81964285Y-23178571D01*
X81916666Y-23273809D01*
X81916666Y-23511904D01*
X81964285Y-23607142D01*
X82011904Y-23654761D01*
X82107142Y-23702380D01*
X82392857Y-23702380D01*
X82488095Y-23654761D01*
X82535714Y-23607142D01*
X81535714Y-22797619D02*
X81488095Y-22750000D01*
X81392857Y-22702380D01*
X81154761Y-22702380D01*
X81059523Y-22750000D01*
X81011904Y-22797619D01*
X80964285Y-22892857D01*
X80964285Y-22988095D01*
X81011904Y-23130952D01*
X81583333Y-23702380D01*
X80964285Y-23702380D01*
X80011904Y-23702380D02*
X80583333Y-23702380D01*
X80297619Y-23702380D02*
X80297619Y-22702380D01*
X80392857Y-22845238D01*
X80488095Y-22940476D01*
X80583333Y-22988095D01*
X77452380Y-33607142D02*
X76976190Y-33273809D01*
X77452380Y-33035714D02*
X76452380Y-33035714D01*
X76452380Y-33416666D01*
X76500000Y-33511904D01*
X76547619Y-33559523D01*
X76642857Y-33607142D01*
X76785714Y-33607142D01*
X76880952Y-33559523D01*
X76928571Y-33511904D01*
X76976190Y-33416666D01*
X76976190Y-33035714D01*
X77452380Y-34083333D02*
X77452380Y-34273809D01*
X77404761Y-34369047D01*
X77357142Y-34416666D01*
X77214285Y-34511904D01*
X77023809Y-34559523D01*
X76642857Y-34559523D01*
X76547619Y-34511904D01*
X76500000Y-34464285D01*
X76452380Y-34369047D01*
X76452380Y-34178571D01*
X76500000Y-34083333D01*
X76547619Y-34035714D01*
X76642857Y-33988095D01*
X76880952Y-33988095D01*
X76976190Y-34035714D01*
X77023809Y-34083333D01*
X77071428Y-34178571D01*
X77071428Y-34369047D01*
X77023809Y-34464285D01*
X76976190Y-34511904D01*
X76880952Y-34559523D01*
X76785714Y-35416666D02*
X77452380Y-35416666D01*
X76404761Y-35178571D02*
X77119047Y-34940476D01*
X77119047Y-35559523D01*
X102892857Y-24452380D02*
X103226190Y-23976190D01*
X103464285Y-24452380D02*
X103464285Y-23452380D01*
X103083333Y-23452380D01*
X102988095Y-23500000D01*
X102940476Y-23547619D01*
X102892857Y-23642857D01*
X102892857Y-23785714D01*
X102940476Y-23880952D01*
X102988095Y-23928571D01*
X103083333Y-23976190D01*
X103464285Y-23976190D01*
X102416666Y-24452380D02*
X102226190Y-24452380D01*
X102130952Y-24404761D01*
X102083333Y-24357142D01*
X101988095Y-24214285D01*
X101940476Y-24023809D01*
X101940476Y-23642857D01*
X101988095Y-23547619D01*
X102035714Y-23500000D01*
X102130952Y-23452380D01*
X102321428Y-23452380D01*
X102416666Y-23500000D01*
X102464285Y-23547619D01*
X102511904Y-23642857D01*
X102511904Y-23880952D01*
X102464285Y-23976190D01*
X102416666Y-24023809D01*
X102321428Y-24071428D01*
X102130952Y-24071428D01*
X102035714Y-24023809D01*
X101988095Y-23976190D01*
X101940476Y-23880952D01*
X101607142Y-23452380D02*
X100988095Y-23452380D01*
X101321428Y-23833333D01*
X101178571Y-23833333D01*
X101083333Y-23880952D01*
X101035714Y-23928571D01*
X100988095Y-24023809D01*
X100988095Y-24261904D01*
X101035714Y-24357142D01*
X101083333Y-24404761D01*
X101178571Y-24452380D01*
X101464285Y-24452380D01*
X101559523Y-24404761D01*
X101607142Y-24357142D01*
X115642857Y-24202380D02*
X115976190Y-23726190D01*
X116214285Y-24202380D02*
X116214285Y-23202380D01*
X115833333Y-23202380D01*
X115738095Y-23250000D01*
X115690476Y-23297619D01*
X115642857Y-23392857D01*
X115642857Y-23535714D01*
X115690476Y-23630952D01*
X115738095Y-23678571D01*
X115833333Y-23726190D01*
X116214285Y-23726190D01*
X115166666Y-24202380D02*
X114976190Y-24202380D01*
X114880952Y-24154761D01*
X114833333Y-24107142D01*
X114738095Y-23964285D01*
X114690476Y-23773809D01*
X114690476Y-23392857D01*
X114738095Y-23297619D01*
X114785714Y-23250000D01*
X114880952Y-23202380D01*
X115071428Y-23202380D01*
X115166666Y-23250000D01*
X115214285Y-23297619D01*
X115261904Y-23392857D01*
X115261904Y-23630952D01*
X115214285Y-23726190D01*
X115166666Y-23773809D01*
X115071428Y-23821428D01*
X114880952Y-23821428D01*
X114785714Y-23773809D01*
X114738095Y-23726190D01*
X114690476Y-23630952D01*
X114309523Y-23297619D02*
X114261904Y-23250000D01*
X114166666Y-23202380D01*
X113928571Y-23202380D01*
X113833333Y-23250000D01*
X113785714Y-23297619D01*
X113738095Y-23392857D01*
X113738095Y-23488095D01*
X113785714Y-23630952D01*
X114357142Y-24202380D01*
X113738095Y-24202380D01*
X112892857Y-25802380D02*
X113226190Y-25326190D01*
X113464285Y-25802380D02*
X113464285Y-24802380D01*
X113083333Y-24802380D01*
X112988095Y-24850000D01*
X112940476Y-24897619D01*
X112892857Y-24992857D01*
X112892857Y-25135714D01*
X112940476Y-25230952D01*
X112988095Y-25278571D01*
X113083333Y-25326190D01*
X113464285Y-25326190D01*
X112416666Y-25802380D02*
X112226190Y-25802380D01*
X112130952Y-25754761D01*
X112083333Y-25707142D01*
X111988095Y-25564285D01*
X111940476Y-25373809D01*
X111940476Y-24992857D01*
X111988095Y-24897619D01*
X112035714Y-24850000D01*
X112130952Y-24802380D01*
X112321428Y-24802380D01*
X112416666Y-24850000D01*
X112464285Y-24897619D01*
X112511904Y-24992857D01*
X112511904Y-25230952D01*
X112464285Y-25326190D01*
X112416666Y-25373809D01*
X112321428Y-25421428D01*
X112130952Y-25421428D01*
X112035714Y-25373809D01*
X111988095Y-25326190D01*
X111940476Y-25230952D01*
X110988095Y-25802380D02*
X111559523Y-25802380D01*
X111273809Y-25802380D02*
X111273809Y-24802380D01*
X111369047Y-24945238D01*
X111464285Y-25040476D01*
X111559523Y-25088095D01*
X91892857Y-24952380D02*
X92226190Y-24476190D01*
X92464285Y-24952380D02*
X92464285Y-23952380D01*
X92083333Y-23952380D01*
X91988095Y-24000000D01*
X91940476Y-24047619D01*
X91892857Y-24142857D01*
X91892857Y-24285714D01*
X91940476Y-24380952D01*
X91988095Y-24428571D01*
X92083333Y-24476190D01*
X92464285Y-24476190D01*
X91321428Y-24380952D02*
X91416666Y-24333333D01*
X91464285Y-24285714D01*
X91511904Y-24190476D01*
X91511904Y-24142857D01*
X91464285Y-24047619D01*
X91416666Y-24000000D01*
X91321428Y-23952380D01*
X91130952Y-23952380D01*
X91035714Y-24000000D01*
X90988095Y-24047619D01*
X90940476Y-24142857D01*
X90940476Y-24190476D01*
X90988095Y-24285714D01*
X91035714Y-24333333D01*
X91130952Y-24380952D01*
X91321428Y-24380952D01*
X91416666Y-24428571D01*
X91464285Y-24476190D01*
X91511904Y-24571428D01*
X91511904Y-24761904D01*
X91464285Y-24857142D01*
X91416666Y-24904761D01*
X91321428Y-24952380D01*
X91130952Y-24952380D01*
X91035714Y-24904761D01*
X90988095Y-24857142D01*
X90940476Y-24761904D01*
X90940476Y-24571428D01*
X90988095Y-24476190D01*
X91035714Y-24428571D01*
X91130952Y-24380952D01*
X90607142Y-23952380D02*
X89988095Y-23952380D01*
X90321428Y-24333333D01*
X90178571Y-24333333D01*
X90083333Y-24380952D01*
X90035714Y-24428571D01*
X89988095Y-24523809D01*
X89988095Y-24761904D01*
X90035714Y-24857142D01*
X90083333Y-24904761D01*
X90178571Y-24952380D01*
X90464285Y-24952380D01*
X90559523Y-24904761D01*
X90607142Y-24857142D01*
X98392857Y-33452380D02*
X98726190Y-32976190D01*
X98964285Y-33452380D02*
X98964285Y-32452380D01*
X98583333Y-32452380D01*
X98488095Y-32500000D01*
X98440476Y-32547619D01*
X98392857Y-32642857D01*
X98392857Y-32785714D01*
X98440476Y-32880952D01*
X98488095Y-32928571D01*
X98583333Y-32976190D01*
X98964285Y-32976190D01*
X97821428Y-32880952D02*
X97916666Y-32833333D01*
X97964285Y-32785714D01*
X98011904Y-32690476D01*
X98011904Y-32642857D01*
X97964285Y-32547619D01*
X97916666Y-32500000D01*
X97821428Y-32452380D01*
X97630952Y-32452380D01*
X97535714Y-32500000D01*
X97488095Y-32547619D01*
X97440476Y-32642857D01*
X97440476Y-32690476D01*
X97488095Y-32785714D01*
X97535714Y-32833333D01*
X97630952Y-32880952D01*
X97821428Y-32880952D01*
X97916666Y-32928571D01*
X97964285Y-32976190D01*
X98011904Y-33071428D01*
X98011904Y-33261904D01*
X97964285Y-33357142D01*
X97916666Y-33404761D01*
X97821428Y-33452380D01*
X97630952Y-33452380D01*
X97535714Y-33404761D01*
X97488095Y-33357142D01*
X97440476Y-33261904D01*
X97440476Y-33071428D01*
X97488095Y-32976190D01*
X97535714Y-32928571D01*
X97630952Y-32880952D01*
X97059523Y-32547619D02*
X97011904Y-32500000D01*
X96916666Y-32452380D01*
X96678571Y-32452380D01*
X96583333Y-32500000D01*
X96535714Y-32547619D01*
X96488095Y-32642857D01*
X96488095Y-32738095D01*
X96535714Y-32880952D01*
X97107142Y-33452380D01*
X96488095Y-33452380D01*
X101642857Y-33702380D02*
X101976190Y-33226190D01*
X102214285Y-33702380D02*
X102214285Y-32702380D01*
X101833333Y-32702380D01*
X101738095Y-32750000D01*
X101690476Y-32797619D01*
X101642857Y-32892857D01*
X101642857Y-33035714D01*
X101690476Y-33130952D01*
X101738095Y-33178571D01*
X101833333Y-33226190D01*
X102214285Y-33226190D01*
X101071428Y-33130952D02*
X101166666Y-33083333D01*
X101214285Y-33035714D01*
X101261904Y-32940476D01*
X101261904Y-32892857D01*
X101214285Y-32797619D01*
X101166666Y-32750000D01*
X101071428Y-32702380D01*
X100880952Y-32702380D01*
X100785714Y-32750000D01*
X100738095Y-32797619D01*
X100690476Y-32892857D01*
X100690476Y-32940476D01*
X100738095Y-33035714D01*
X100785714Y-33083333D01*
X100880952Y-33130952D01*
X101071428Y-33130952D01*
X101166666Y-33178571D01*
X101214285Y-33226190D01*
X101261904Y-33321428D01*
X101261904Y-33511904D01*
X101214285Y-33607142D01*
X101166666Y-33654761D01*
X101071428Y-33702380D01*
X100880952Y-33702380D01*
X100785714Y-33654761D01*
X100738095Y-33607142D01*
X100690476Y-33511904D01*
X100690476Y-33321428D01*
X100738095Y-33226190D01*
X100785714Y-33178571D01*
X100880952Y-33130952D01*
X99738095Y-33702380D02*
X100309523Y-33702380D01*
X100023809Y-33702380D02*
X100023809Y-32702380D01*
X100119047Y-32845238D01*
X100214285Y-32940476D01*
X100309523Y-32988095D01*
X98392857Y-100352380D02*
X98726190Y-99876190D01*
X98964285Y-100352380D02*
X98964285Y-99352380D01*
X98583333Y-99352380D01*
X98488095Y-99400000D01*
X98440476Y-99447619D01*
X98392857Y-99542857D01*
X98392857Y-99685714D01*
X98440476Y-99780952D01*
X98488095Y-99828571D01*
X98583333Y-99876190D01*
X98964285Y-99876190D01*
X97535714Y-99352380D02*
X97726190Y-99352380D01*
X97821428Y-99400000D01*
X97869047Y-99447619D01*
X97964285Y-99590476D01*
X98011904Y-99780952D01*
X98011904Y-100161904D01*
X97964285Y-100257142D01*
X97916666Y-100304761D01*
X97821428Y-100352380D01*
X97630952Y-100352380D01*
X97535714Y-100304761D01*
X97488095Y-100257142D01*
X97440476Y-100161904D01*
X97440476Y-99923809D01*
X97488095Y-99828571D01*
X97535714Y-99780952D01*
X97630952Y-99733333D01*
X97821428Y-99733333D01*
X97916666Y-99780952D01*
X97964285Y-99828571D01*
X98011904Y-99923809D01*
X96583333Y-99352380D02*
X96773809Y-99352380D01*
X96869047Y-99400000D01*
X96916666Y-99447619D01*
X97011904Y-99590476D01*
X97059523Y-99780952D01*
X97059523Y-100161904D01*
X97011904Y-100257142D01*
X96964285Y-100304761D01*
X96869047Y-100352380D01*
X96678571Y-100352380D01*
X96583333Y-100304761D01*
X96535714Y-100257142D01*
X96488095Y-100161904D01*
X96488095Y-99923809D01*
X96535714Y-99828571D01*
X96583333Y-99780952D01*
X96678571Y-99733333D01*
X96869047Y-99733333D01*
X96964285Y-99780952D01*
X97011904Y-99828571D01*
X97059523Y-99923809D01*
X94392857Y-100352380D02*
X94726190Y-99876190D01*
X94964285Y-100352380D02*
X94964285Y-99352380D01*
X94583333Y-99352380D01*
X94488095Y-99400000D01*
X94440476Y-99447619D01*
X94392857Y-99542857D01*
X94392857Y-99685714D01*
X94440476Y-99780952D01*
X94488095Y-99828571D01*
X94583333Y-99876190D01*
X94964285Y-99876190D01*
X93535714Y-99352380D02*
X93726190Y-99352380D01*
X93821428Y-99400000D01*
X93869047Y-99447619D01*
X93964285Y-99590476D01*
X94011904Y-99780952D01*
X94011904Y-100161904D01*
X93964285Y-100257142D01*
X93916666Y-100304761D01*
X93821428Y-100352380D01*
X93630952Y-100352380D01*
X93535714Y-100304761D01*
X93488095Y-100257142D01*
X93440476Y-100161904D01*
X93440476Y-99923809D01*
X93488095Y-99828571D01*
X93535714Y-99780952D01*
X93630952Y-99733333D01*
X93821428Y-99733333D01*
X93916666Y-99780952D01*
X93964285Y-99828571D01*
X94011904Y-99923809D01*
X92535714Y-99352380D02*
X93011904Y-99352380D01*
X93059523Y-99828571D01*
X93011904Y-99780952D01*
X92916666Y-99733333D01*
X92678571Y-99733333D01*
X92583333Y-99780952D01*
X92535714Y-99828571D01*
X92488095Y-99923809D01*
X92488095Y-100161904D01*
X92535714Y-100257142D01*
X92583333Y-100304761D01*
X92678571Y-100352380D01*
X92916666Y-100352380D01*
X93011904Y-100304761D01*
X93059523Y-100257142D01*
X90642857Y-100352380D02*
X90976190Y-99876190D01*
X91214285Y-100352380D02*
X91214285Y-99352380D01*
X90833333Y-99352380D01*
X90738095Y-99400000D01*
X90690476Y-99447619D01*
X90642857Y-99542857D01*
X90642857Y-99685714D01*
X90690476Y-99780952D01*
X90738095Y-99828571D01*
X90833333Y-99876190D01*
X91214285Y-99876190D01*
X89785714Y-99352380D02*
X89976190Y-99352380D01*
X90071428Y-99400000D01*
X90119047Y-99447619D01*
X90214285Y-99590476D01*
X90261904Y-99780952D01*
X90261904Y-100161904D01*
X90214285Y-100257142D01*
X90166666Y-100304761D01*
X90071428Y-100352380D01*
X89880952Y-100352380D01*
X89785714Y-100304761D01*
X89738095Y-100257142D01*
X89690476Y-100161904D01*
X89690476Y-99923809D01*
X89738095Y-99828571D01*
X89785714Y-99780952D01*
X89880952Y-99733333D01*
X90071428Y-99733333D01*
X90166666Y-99780952D01*
X90214285Y-99828571D01*
X90261904Y-99923809D01*
X88833333Y-99685714D02*
X88833333Y-100352380D01*
X89071428Y-99304761D02*
X89309523Y-100019047D01*
X88690476Y-100019047D01*
X86642857Y-100352380D02*
X86976190Y-99876190D01*
X87214285Y-100352380D02*
X87214285Y-99352380D01*
X86833333Y-99352380D01*
X86738095Y-99400000D01*
X86690476Y-99447619D01*
X86642857Y-99542857D01*
X86642857Y-99685714D01*
X86690476Y-99780952D01*
X86738095Y-99828571D01*
X86833333Y-99876190D01*
X87214285Y-99876190D01*
X85785714Y-99352380D02*
X85976190Y-99352380D01*
X86071428Y-99400000D01*
X86119047Y-99447619D01*
X86214285Y-99590476D01*
X86261904Y-99780952D01*
X86261904Y-100161904D01*
X86214285Y-100257142D01*
X86166666Y-100304761D01*
X86071428Y-100352380D01*
X85880952Y-100352380D01*
X85785714Y-100304761D01*
X85738095Y-100257142D01*
X85690476Y-100161904D01*
X85690476Y-99923809D01*
X85738095Y-99828571D01*
X85785714Y-99780952D01*
X85880952Y-99733333D01*
X86071428Y-99733333D01*
X86166666Y-99780952D01*
X86214285Y-99828571D01*
X86261904Y-99923809D01*
X85357142Y-99352380D02*
X84738095Y-99352380D01*
X85071428Y-99733333D01*
X84928571Y-99733333D01*
X84833333Y-99780952D01*
X84785714Y-99828571D01*
X84738095Y-99923809D01*
X84738095Y-100161904D01*
X84785714Y-100257142D01*
X84833333Y-100304761D01*
X84928571Y-100352380D01*
X85214285Y-100352380D01*
X85309523Y-100304761D01*
X85357142Y-100257142D01*
X59142857Y-80202380D02*
X59476190Y-79726190D01*
X59714285Y-80202380D02*
X59714285Y-79202380D01*
X59333333Y-79202380D01*
X59238095Y-79250000D01*
X59190476Y-79297619D01*
X59142857Y-79392857D01*
X59142857Y-79535714D01*
X59190476Y-79630952D01*
X59238095Y-79678571D01*
X59333333Y-79726190D01*
X59714285Y-79726190D01*
X58238095Y-79202380D02*
X58714285Y-79202380D01*
X58761904Y-79678571D01*
X58714285Y-79630952D01*
X58619047Y-79583333D01*
X58380952Y-79583333D01*
X58285714Y-79630952D01*
X58238095Y-79678571D01*
X58190476Y-79773809D01*
X58190476Y-80011904D01*
X58238095Y-80107142D01*
X58285714Y-80154761D01*
X58380952Y-80202380D01*
X58619047Y-80202380D01*
X58714285Y-80154761D01*
X58761904Y-80107142D01*
X57619047Y-79630952D02*
X57714285Y-79583333D01*
X57761904Y-79535714D01*
X57809523Y-79440476D01*
X57809523Y-79392857D01*
X57761904Y-79297619D01*
X57714285Y-79250000D01*
X57619047Y-79202380D01*
X57428571Y-79202380D01*
X57333333Y-79250000D01*
X57285714Y-79297619D01*
X57238095Y-79392857D01*
X57238095Y-79440476D01*
X57285714Y-79535714D01*
X57333333Y-79583333D01*
X57428571Y-79630952D01*
X57619047Y-79630952D01*
X57714285Y-79678571D01*
X57761904Y-79726190D01*
X57809523Y-79821428D01*
X57809523Y-80011904D01*
X57761904Y-80107142D01*
X57714285Y-80154761D01*
X57619047Y-80202380D01*
X57428571Y-80202380D01*
X57333333Y-80154761D01*
X57285714Y-80107142D01*
X57238095Y-80011904D01*
X57238095Y-79821428D01*
X57285714Y-79726190D01*
X57333333Y-79678571D01*
X57428571Y-79630952D01*
X59142857Y-82202380D02*
X59476190Y-81726190D01*
X59714285Y-82202380D02*
X59714285Y-81202380D01*
X59333333Y-81202380D01*
X59238095Y-81250000D01*
X59190476Y-81297619D01*
X59142857Y-81392857D01*
X59142857Y-81535714D01*
X59190476Y-81630952D01*
X59238095Y-81678571D01*
X59333333Y-81726190D01*
X59714285Y-81726190D01*
X58238095Y-81202380D02*
X58714285Y-81202380D01*
X58761904Y-81678571D01*
X58714285Y-81630952D01*
X58619047Y-81583333D01*
X58380952Y-81583333D01*
X58285714Y-81630952D01*
X58238095Y-81678571D01*
X58190476Y-81773809D01*
X58190476Y-82011904D01*
X58238095Y-82107142D01*
X58285714Y-82154761D01*
X58380952Y-82202380D01*
X58619047Y-82202380D01*
X58714285Y-82154761D01*
X58761904Y-82107142D01*
X57857142Y-81202380D02*
X57190476Y-81202380D01*
X57619047Y-82202380D01*
X59142857Y-83952380D02*
X59476190Y-83476190D01*
X59714285Y-83952380D02*
X59714285Y-82952380D01*
X59333333Y-82952380D01*
X59238095Y-83000000D01*
X59190476Y-83047619D01*
X59142857Y-83142857D01*
X59142857Y-83285714D01*
X59190476Y-83380952D01*
X59238095Y-83428571D01*
X59333333Y-83476190D01*
X59714285Y-83476190D01*
X58238095Y-82952380D02*
X58714285Y-82952380D01*
X58761904Y-83428571D01*
X58714285Y-83380952D01*
X58619047Y-83333333D01*
X58380952Y-83333333D01*
X58285714Y-83380952D01*
X58238095Y-83428571D01*
X58190476Y-83523809D01*
X58190476Y-83761904D01*
X58238095Y-83857142D01*
X58285714Y-83904761D01*
X58380952Y-83952380D01*
X58619047Y-83952380D01*
X58714285Y-83904761D01*
X58761904Y-83857142D01*
X57333333Y-82952380D02*
X57523809Y-82952380D01*
X57619047Y-83000000D01*
X57666666Y-83047619D01*
X57761904Y-83190476D01*
X57809523Y-83380952D01*
X57809523Y-83761904D01*
X57761904Y-83857142D01*
X57714285Y-83904761D01*
X57619047Y-83952380D01*
X57428571Y-83952380D01*
X57333333Y-83904761D01*
X57285714Y-83857142D01*
X57238095Y-83761904D01*
X57238095Y-83523809D01*
X57285714Y-83428571D01*
X57333333Y-83380952D01*
X57428571Y-83333333D01*
X57619047Y-83333333D01*
X57714285Y-83380952D01*
X57761904Y-83428571D01*
X57809523Y-83523809D01*
X59142857Y-85952380D02*
X59476190Y-85476190D01*
X59714285Y-85952380D02*
X59714285Y-84952380D01*
X59333333Y-84952380D01*
X59238095Y-85000000D01*
X59190476Y-85047619D01*
X59142857Y-85142857D01*
X59142857Y-85285714D01*
X59190476Y-85380952D01*
X59238095Y-85428571D01*
X59333333Y-85476190D01*
X59714285Y-85476190D01*
X58238095Y-84952380D02*
X58714285Y-84952380D01*
X58761904Y-85428571D01*
X58714285Y-85380952D01*
X58619047Y-85333333D01*
X58380952Y-85333333D01*
X58285714Y-85380952D01*
X58238095Y-85428571D01*
X58190476Y-85523809D01*
X58190476Y-85761904D01*
X58238095Y-85857142D01*
X58285714Y-85904761D01*
X58380952Y-85952380D01*
X58619047Y-85952380D01*
X58714285Y-85904761D01*
X58761904Y-85857142D01*
X57285714Y-84952380D02*
X57761904Y-84952380D01*
X57809523Y-85428571D01*
X57761904Y-85380952D01*
X57666666Y-85333333D01*
X57428571Y-85333333D01*
X57333333Y-85380952D01*
X57285714Y-85428571D01*
X57238095Y-85523809D01*
X57238095Y-85761904D01*
X57285714Y-85857142D01*
X57333333Y-85904761D01*
X57428571Y-85952380D01*
X57666666Y-85952380D01*
X57761904Y-85904761D01*
X57809523Y-85857142D01*
X59142857Y-87702380D02*
X59476190Y-87226190D01*
X59714285Y-87702380D02*
X59714285Y-86702380D01*
X59333333Y-86702380D01*
X59238095Y-86750000D01*
X59190476Y-86797619D01*
X59142857Y-86892857D01*
X59142857Y-87035714D01*
X59190476Y-87130952D01*
X59238095Y-87178571D01*
X59333333Y-87226190D01*
X59714285Y-87226190D01*
X58238095Y-86702380D02*
X58714285Y-86702380D01*
X58761904Y-87178571D01*
X58714285Y-87130952D01*
X58619047Y-87083333D01*
X58380952Y-87083333D01*
X58285714Y-87130952D01*
X58238095Y-87178571D01*
X58190476Y-87273809D01*
X58190476Y-87511904D01*
X58238095Y-87607142D01*
X58285714Y-87654761D01*
X58380952Y-87702380D01*
X58619047Y-87702380D01*
X58714285Y-87654761D01*
X58761904Y-87607142D01*
X57333333Y-87035714D02*
X57333333Y-87702380D01*
X57571428Y-86654761D02*
X57809523Y-87369047D01*
X57190476Y-87369047D01*
X59142857Y-89452380D02*
X59476190Y-88976190D01*
X59714285Y-89452380D02*
X59714285Y-88452380D01*
X59333333Y-88452380D01*
X59238095Y-88500000D01*
X59190476Y-88547619D01*
X59142857Y-88642857D01*
X59142857Y-88785714D01*
X59190476Y-88880952D01*
X59238095Y-88928571D01*
X59333333Y-88976190D01*
X59714285Y-88976190D01*
X58238095Y-88452380D02*
X58714285Y-88452380D01*
X58761904Y-88928571D01*
X58714285Y-88880952D01*
X58619047Y-88833333D01*
X58380952Y-88833333D01*
X58285714Y-88880952D01*
X58238095Y-88928571D01*
X58190476Y-89023809D01*
X58190476Y-89261904D01*
X58238095Y-89357142D01*
X58285714Y-89404761D01*
X58380952Y-89452380D01*
X58619047Y-89452380D01*
X58714285Y-89404761D01*
X58761904Y-89357142D01*
X57857142Y-88452380D02*
X57238095Y-88452380D01*
X57571428Y-88833333D01*
X57428571Y-88833333D01*
X57333333Y-88880952D01*
X57285714Y-88928571D01*
X57238095Y-89023809D01*
X57238095Y-89261904D01*
X57285714Y-89357142D01*
X57333333Y-89404761D01*
X57428571Y-89452380D01*
X57714285Y-89452380D01*
X57809523Y-89404761D01*
X57857142Y-89357142D01*
X59142857Y-91202380D02*
X59476190Y-90726190D01*
X59714285Y-91202380D02*
X59714285Y-90202380D01*
X59333333Y-90202380D01*
X59238095Y-90250000D01*
X59190476Y-90297619D01*
X59142857Y-90392857D01*
X59142857Y-90535714D01*
X59190476Y-90630952D01*
X59238095Y-90678571D01*
X59333333Y-90726190D01*
X59714285Y-90726190D01*
X58238095Y-90202380D02*
X58714285Y-90202380D01*
X58761904Y-90678571D01*
X58714285Y-90630952D01*
X58619047Y-90583333D01*
X58380952Y-90583333D01*
X58285714Y-90630952D01*
X58238095Y-90678571D01*
X58190476Y-90773809D01*
X58190476Y-91011904D01*
X58238095Y-91107142D01*
X58285714Y-91154761D01*
X58380952Y-91202380D01*
X58619047Y-91202380D01*
X58714285Y-91154761D01*
X58761904Y-91107142D01*
X57809523Y-90297619D02*
X57761904Y-90250000D01*
X57666666Y-90202380D01*
X57428571Y-90202380D01*
X57333333Y-90250000D01*
X57285714Y-90297619D01*
X57238095Y-90392857D01*
X57238095Y-90488095D01*
X57285714Y-90630952D01*
X57857142Y-91202380D01*
X57238095Y-91202380D01*
X59142857Y-93202380D02*
X59476190Y-92726190D01*
X59714285Y-93202380D02*
X59714285Y-92202380D01*
X59333333Y-92202380D01*
X59238095Y-92250000D01*
X59190476Y-92297619D01*
X59142857Y-92392857D01*
X59142857Y-92535714D01*
X59190476Y-92630952D01*
X59238095Y-92678571D01*
X59333333Y-92726190D01*
X59714285Y-92726190D01*
X58238095Y-92202380D02*
X58714285Y-92202380D01*
X58761904Y-92678571D01*
X58714285Y-92630952D01*
X58619047Y-92583333D01*
X58380952Y-92583333D01*
X58285714Y-92630952D01*
X58238095Y-92678571D01*
X58190476Y-92773809D01*
X58190476Y-93011904D01*
X58238095Y-93107142D01*
X58285714Y-93154761D01*
X58380952Y-93202380D01*
X58619047Y-93202380D01*
X58714285Y-93154761D01*
X58761904Y-93107142D01*
X57238095Y-93202380D02*
X57809523Y-93202380D01*
X57523809Y-93202380D02*
X57523809Y-92202380D01*
X57619047Y-92345238D01*
X57714285Y-92440476D01*
X57809523Y-92488095D01*
X59142857Y-94952380D02*
X59476190Y-94476190D01*
X59714285Y-94952380D02*
X59714285Y-93952380D01*
X59333333Y-93952380D01*
X59238095Y-94000000D01*
X59190476Y-94047619D01*
X59142857Y-94142857D01*
X59142857Y-94285714D01*
X59190476Y-94380952D01*
X59238095Y-94428571D01*
X59333333Y-94476190D01*
X59714285Y-94476190D01*
X58238095Y-93952380D02*
X58714285Y-93952380D01*
X58761904Y-94428571D01*
X58714285Y-94380952D01*
X58619047Y-94333333D01*
X58380952Y-94333333D01*
X58285714Y-94380952D01*
X58238095Y-94428571D01*
X58190476Y-94523809D01*
X58190476Y-94761904D01*
X58238095Y-94857142D01*
X58285714Y-94904761D01*
X58380952Y-94952380D01*
X58619047Y-94952380D01*
X58714285Y-94904761D01*
X58761904Y-94857142D01*
X57571428Y-93952380D02*
X57476190Y-93952380D01*
X57380952Y-94000000D01*
X57333333Y-94047619D01*
X57285714Y-94142857D01*
X57238095Y-94333333D01*
X57238095Y-94571428D01*
X57285714Y-94761904D01*
X57333333Y-94857142D01*
X57380952Y-94904761D01*
X57476190Y-94952380D01*
X57571428Y-94952380D01*
X57666666Y-94904761D01*
X57714285Y-94857142D01*
X57761904Y-94761904D01*
X57809523Y-94571428D01*
X57809523Y-94333333D01*
X57761904Y-94142857D01*
X57714285Y-94047619D01*
X57666666Y-94000000D01*
X57571428Y-93952380D01*
X37583333Y-42452380D02*
X37583333Y-43166666D01*
X37630952Y-43309523D01*
X37726190Y-43404761D01*
X37869047Y-43452380D01*
X37964285Y-43452380D01*
X36583333Y-43452380D02*
X37154761Y-43452380D01*
X36869047Y-43452380D02*
X36869047Y-42452380D01*
X36964285Y-42595238D01*
X37059523Y-42690476D01*
X37154761Y-42738095D01*
X99857142Y-89680952D02*
X99904761Y-89633333D01*
X99952380Y-89490476D01*
X99952380Y-89395238D01*
X99904761Y-89252380D01*
X99809523Y-89157142D01*
X99714285Y-89109523D01*
X99523809Y-89061904D01*
X99380952Y-89061904D01*
X99190476Y-89109523D01*
X99095238Y-89157142D01*
X99000000Y-89252380D01*
X98952380Y-89395238D01*
X98952380Y-89490476D01*
X99000000Y-89633333D01*
X99047619Y-89680952D01*
X98952380Y-90585714D02*
X98952380Y-90109523D01*
X99428571Y-90061904D01*
X99380952Y-90109523D01*
X99333333Y-90204761D01*
X99333333Y-90442857D01*
X99380952Y-90538095D01*
X99428571Y-90585714D01*
X99523809Y-90633333D01*
X99761904Y-90633333D01*
X99857142Y-90585714D01*
X99904761Y-90538095D01*
X99952380Y-90442857D01*
X99952380Y-90204761D01*
X99904761Y-90109523D01*
X99857142Y-90061904D01*
X99047619Y-91014285D02*
X99000000Y-91061904D01*
X98952380Y-91157142D01*
X98952380Y-91395238D01*
X99000000Y-91490476D01*
X99047619Y-91538095D01*
X99142857Y-91585714D01*
X99238095Y-91585714D01*
X99380952Y-91538095D01*
X99952380Y-90966666D01*
X99952380Y-91585714D01*
X99952380Y-92538095D02*
X99952380Y-91966666D01*
X99952380Y-92252380D02*
X98952380Y-92252380D01*
X99095238Y-92157142D01*
X99190476Y-92061904D01*
X99238095Y-91966666D01*
X108719047Y-95457142D02*
X108766666Y-95504761D01*
X108909523Y-95552380D01*
X109004761Y-95552380D01*
X109147619Y-95504761D01*
X109242857Y-95409523D01*
X109290476Y-95314285D01*
X109338095Y-95123809D01*
X109338095Y-94980952D01*
X109290476Y-94790476D01*
X109242857Y-94695238D01*
X109147619Y-94600000D01*
X109004761Y-94552380D01*
X108909523Y-94552380D01*
X108766666Y-94600000D01*
X108719047Y-94647619D01*
X107814285Y-94552380D02*
X108290476Y-94552380D01*
X108338095Y-95028571D01*
X108290476Y-94980952D01*
X108195238Y-94933333D01*
X107957142Y-94933333D01*
X107861904Y-94980952D01*
X107814285Y-95028571D01*
X107766666Y-95123809D01*
X107766666Y-95361904D01*
X107814285Y-95457142D01*
X107861904Y-95504761D01*
X107957142Y-95552380D01*
X108195238Y-95552380D01*
X108290476Y-95504761D01*
X108338095Y-95457142D01*
X106814285Y-95552380D02*
X107385714Y-95552380D01*
X107100000Y-95552380D02*
X107100000Y-94552380D01*
X107195238Y-94695238D01*
X107290476Y-94790476D01*
X107385714Y-94838095D01*
X106433333Y-94647619D02*
X106385714Y-94600000D01*
X106290476Y-94552380D01*
X106052380Y-94552380D01*
X105957142Y-94600000D01*
X105909523Y-94647619D01*
X105861904Y-94742857D01*
X105861904Y-94838095D01*
X105909523Y-94980952D01*
X106480952Y-95552380D01*
X105861904Y-95552380D01*
X117319047Y-95457142D02*
X117366666Y-95504761D01*
X117509523Y-95552380D01*
X117604761Y-95552380D01*
X117747619Y-95504761D01*
X117842857Y-95409523D01*
X117890476Y-95314285D01*
X117938095Y-95123809D01*
X117938095Y-94980952D01*
X117890476Y-94790476D01*
X117842857Y-94695238D01*
X117747619Y-94600000D01*
X117604761Y-94552380D01*
X117509523Y-94552380D01*
X117366666Y-94600000D01*
X117319047Y-94647619D01*
X116461904Y-94552380D02*
X116652380Y-94552380D01*
X116747619Y-94600000D01*
X116795238Y-94647619D01*
X116890476Y-94790476D01*
X116938095Y-94980952D01*
X116938095Y-95361904D01*
X116890476Y-95457142D01*
X116842857Y-95504761D01*
X116747619Y-95552380D01*
X116557142Y-95552380D01*
X116461904Y-95504761D01*
X116414285Y-95457142D01*
X116366666Y-95361904D01*
X116366666Y-95123809D01*
X116414285Y-95028571D01*
X116461904Y-94980952D01*
X116557142Y-94933333D01*
X116747619Y-94933333D01*
X116842857Y-94980952D01*
X116890476Y-95028571D01*
X116938095Y-95123809D01*
X115414285Y-95552380D02*
X115985714Y-95552380D01*
X115700000Y-95552380D02*
X115700000Y-94552380D01*
X115795238Y-94695238D01*
X115890476Y-94790476D01*
X115985714Y-94838095D01*
X115033333Y-94647619D02*
X114985714Y-94600000D01*
X114890476Y-94552380D01*
X114652380Y-94552380D01*
X114557142Y-94600000D01*
X114509523Y-94647619D01*
X114461904Y-94742857D01*
X114461904Y-94838095D01*
X114509523Y-94980952D01*
X115080952Y-95552380D01*
X114461904Y-95552380D01*
X117119047Y-92607142D02*
X117166666Y-92654761D01*
X117309523Y-92702380D01*
X117404761Y-92702380D01*
X117547619Y-92654761D01*
X117642857Y-92559523D01*
X117690476Y-92464285D01*
X117738095Y-92273809D01*
X117738095Y-92130952D01*
X117690476Y-91940476D01*
X117642857Y-91845238D01*
X117547619Y-91750000D01*
X117404761Y-91702380D01*
X117309523Y-91702380D01*
X117166666Y-91750000D01*
X117119047Y-91797619D01*
X116261904Y-91702380D02*
X116452380Y-91702380D01*
X116547619Y-91750000D01*
X116595238Y-91797619D01*
X116690476Y-91940476D01*
X116738095Y-92130952D01*
X116738095Y-92511904D01*
X116690476Y-92607142D01*
X116642857Y-92654761D01*
X116547619Y-92702380D01*
X116357142Y-92702380D01*
X116261904Y-92654761D01*
X116214285Y-92607142D01*
X116166666Y-92511904D01*
X116166666Y-92273809D01*
X116214285Y-92178571D01*
X116261904Y-92130952D01*
X116357142Y-92083333D01*
X116547619Y-92083333D01*
X116642857Y-92130952D01*
X116690476Y-92178571D01*
X116738095Y-92273809D01*
X115214285Y-92702380D02*
X115785714Y-92702380D01*
X115500000Y-92702380D02*
X115500000Y-91702380D01*
X115595238Y-91845238D01*
X115690476Y-91940476D01*
X115785714Y-91988095D01*
X114261904Y-92702380D02*
X114833333Y-92702380D01*
X114547619Y-92702380D02*
X114547619Y-91702380D01*
X114642857Y-91845238D01*
X114738095Y-91940476D01*
X114833333Y-91988095D01*
X68869047Y-76107142D02*
X68916666Y-76154761D01*
X69059523Y-76202380D01*
X69154761Y-76202380D01*
X69297619Y-76154761D01*
X69392857Y-76059523D01*
X69440476Y-75964285D01*
X69488095Y-75773809D01*
X69488095Y-75630952D01*
X69440476Y-75440476D01*
X69392857Y-75345238D01*
X69297619Y-75250000D01*
X69154761Y-75202380D01*
X69059523Y-75202380D01*
X68916666Y-75250000D01*
X68869047Y-75297619D01*
X67964285Y-75202380D02*
X68440476Y-75202380D01*
X68488095Y-75678571D01*
X68440476Y-75630952D01*
X68345238Y-75583333D01*
X68107142Y-75583333D01*
X68011904Y-75630952D01*
X67964285Y-75678571D01*
X67916666Y-75773809D01*
X67916666Y-76011904D01*
X67964285Y-76107142D01*
X68011904Y-76154761D01*
X68107142Y-76202380D01*
X68345238Y-76202380D01*
X68440476Y-76154761D01*
X68488095Y-76107142D01*
X67059523Y-75535714D02*
X67059523Y-76202380D01*
X67297619Y-75154761D02*
X67535714Y-75869047D01*
X66916666Y-75869047D01*
X66011904Y-76202380D02*
X66583333Y-76202380D01*
X66297619Y-76202380D02*
X66297619Y-75202380D01*
X66392857Y-75345238D01*
X66488095Y-75440476D01*
X66583333Y-75488095D01*
X86619047Y-47427142D02*
X86666666Y-47474761D01*
X86809523Y-47522380D01*
X86904761Y-47522380D01*
X87047619Y-47474761D01*
X87142857Y-47379523D01*
X87190476Y-47284285D01*
X87238095Y-47093809D01*
X87238095Y-46950952D01*
X87190476Y-46760476D01*
X87142857Y-46665238D01*
X87047619Y-46570000D01*
X86904761Y-46522380D01*
X86809523Y-46522380D01*
X86666666Y-46570000D01*
X86619047Y-46617619D01*
X85714285Y-46522380D02*
X86190476Y-46522380D01*
X86238095Y-46998571D01*
X86190476Y-46950952D01*
X86095238Y-46903333D01*
X85857142Y-46903333D01*
X85761904Y-46950952D01*
X85714285Y-46998571D01*
X85666666Y-47093809D01*
X85666666Y-47331904D01*
X85714285Y-47427142D01*
X85761904Y-47474761D01*
X85857142Y-47522380D01*
X86095238Y-47522380D01*
X86190476Y-47474761D01*
X86238095Y-47427142D01*
X85333333Y-46522380D02*
X84714285Y-46522380D01*
X85047619Y-46903333D01*
X84904761Y-46903333D01*
X84809523Y-46950952D01*
X84761904Y-46998571D01*
X84714285Y-47093809D01*
X84714285Y-47331904D01*
X84761904Y-47427142D01*
X84809523Y-47474761D01*
X84904761Y-47522380D01*
X85190476Y-47522380D01*
X85285714Y-47474761D01*
X85333333Y-47427142D01*
X83761904Y-47522380D02*
X84333333Y-47522380D01*
X84047619Y-47522380D02*
X84047619Y-46522380D01*
X84142857Y-46665238D01*
X84238095Y-46760476D01*
X84333333Y-46808095D01*
X102369047Y-98357142D02*
X102416666Y-98404761D01*
X102559523Y-98452380D01*
X102654761Y-98452380D01*
X102797619Y-98404761D01*
X102892857Y-98309523D01*
X102940476Y-98214285D01*
X102988095Y-98023809D01*
X102988095Y-97880952D01*
X102940476Y-97690476D01*
X102892857Y-97595238D01*
X102797619Y-97500000D01*
X102654761Y-97452380D01*
X102559523Y-97452380D01*
X102416666Y-97500000D01*
X102369047Y-97547619D01*
X101464285Y-97452380D02*
X101940476Y-97452380D01*
X101988095Y-97928571D01*
X101940476Y-97880952D01*
X101845238Y-97833333D01*
X101607142Y-97833333D01*
X101511904Y-97880952D01*
X101464285Y-97928571D01*
X101416666Y-98023809D01*
X101416666Y-98261904D01*
X101464285Y-98357142D01*
X101511904Y-98404761D01*
X101607142Y-98452380D01*
X101845238Y-98452380D01*
X101940476Y-98404761D01*
X101988095Y-98357142D01*
X101035714Y-97547619D02*
X100988095Y-97500000D01*
X100892857Y-97452380D01*
X100654761Y-97452380D01*
X100559523Y-97500000D01*
X100511904Y-97547619D01*
X100464285Y-97642857D01*
X100464285Y-97738095D01*
X100511904Y-97880952D01*
X101083333Y-98452380D01*
X100464285Y-98452380D01*
X100083333Y-97547619D02*
X100035714Y-97500000D01*
X99940476Y-97452380D01*
X99702380Y-97452380D01*
X99607142Y-97500000D01*
X99559523Y-97547619D01*
X99511904Y-97642857D01*
X99511904Y-97738095D01*
X99559523Y-97880952D01*
X100130952Y-98452380D01*
X99511904Y-98452380D01*
X111857142Y-90880952D02*
X111904761Y-90833333D01*
X111952380Y-90690476D01*
X111952380Y-90595238D01*
X111904761Y-90452380D01*
X111809523Y-90357142D01*
X111714285Y-90309523D01*
X111523809Y-90261904D01*
X111380952Y-90261904D01*
X111190476Y-90309523D01*
X111095238Y-90357142D01*
X111000000Y-90452380D01*
X110952380Y-90595238D01*
X110952380Y-90690476D01*
X111000000Y-90833333D01*
X111047619Y-90880952D01*
X110952380Y-91785714D02*
X110952380Y-91309523D01*
X111428571Y-91261904D01*
X111380952Y-91309523D01*
X111333333Y-91404761D01*
X111333333Y-91642857D01*
X111380952Y-91738095D01*
X111428571Y-91785714D01*
X111523809Y-91833333D01*
X111761904Y-91833333D01*
X111857142Y-91785714D01*
X111904761Y-91738095D01*
X111952380Y-91642857D01*
X111952380Y-91404761D01*
X111904761Y-91309523D01*
X111857142Y-91261904D01*
X111952380Y-92785714D02*
X111952380Y-92214285D01*
X111952380Y-92500000D02*
X110952380Y-92500000D01*
X111095238Y-92404761D01*
X111190476Y-92309523D01*
X111238095Y-92214285D01*
X111952380Y-93738095D02*
X111952380Y-93166666D01*
X111952380Y-93452380D02*
X110952380Y-93452380D01*
X111095238Y-93357142D01*
X111190476Y-93261904D01*
X111238095Y-93166666D01*
X84607142Y-32130952D02*
X84654761Y-32083333D01*
X84702380Y-31940476D01*
X84702380Y-31845238D01*
X84654761Y-31702380D01*
X84559523Y-31607142D01*
X84464285Y-31559523D01*
X84273809Y-31511904D01*
X84130952Y-31511904D01*
X83940476Y-31559523D01*
X83845238Y-31607142D01*
X83750000Y-31702380D01*
X83702380Y-31845238D01*
X83702380Y-31940476D01*
X83750000Y-32083333D01*
X83797619Y-32130952D01*
X84035714Y-32988095D02*
X84702380Y-32988095D01*
X83654761Y-32750000D02*
X84369047Y-32511904D01*
X84369047Y-33130952D01*
X83702380Y-33416666D02*
X83702380Y-34035714D01*
X84083333Y-33702380D01*
X84083333Y-33845238D01*
X84130952Y-33940476D01*
X84178571Y-33988095D01*
X84273809Y-34035714D01*
X84511904Y-34035714D01*
X84607142Y-33988095D01*
X84654761Y-33940476D01*
X84702380Y-33845238D01*
X84702380Y-33559523D01*
X84654761Y-33464285D01*
X84607142Y-33416666D01*
X84702380Y-34988095D02*
X84702380Y-34416666D01*
X84702380Y-34702380D02*
X83702380Y-34702380D01*
X83845238Y-34607142D01*
X83940476Y-34511904D01*
X83988095Y-34416666D01*
X87849047Y-30297142D02*
X87896666Y-30344761D01*
X88039523Y-30392380D01*
X88134761Y-30392380D01*
X88277619Y-30344761D01*
X88372857Y-30249523D01*
X88420476Y-30154285D01*
X88468095Y-29963809D01*
X88468095Y-29820952D01*
X88420476Y-29630476D01*
X88372857Y-29535238D01*
X88277619Y-29440000D01*
X88134761Y-29392380D01*
X88039523Y-29392380D01*
X87896666Y-29440000D01*
X87849047Y-29487619D01*
X86991904Y-29725714D02*
X86991904Y-30392380D01*
X87230000Y-29344761D02*
X87468095Y-30059047D01*
X86849047Y-30059047D01*
X86515714Y-29487619D02*
X86468095Y-29440000D01*
X86372857Y-29392380D01*
X86134761Y-29392380D01*
X86039523Y-29440000D01*
X85991904Y-29487619D01*
X85944285Y-29582857D01*
X85944285Y-29678095D01*
X85991904Y-29820952D01*
X86563333Y-30392380D01*
X85944285Y-30392380D01*
X84991904Y-30392380D02*
X85563333Y-30392380D01*
X85277619Y-30392380D02*
X85277619Y-29392380D01*
X85372857Y-29535238D01*
X85468095Y-29630476D01*
X85563333Y-29678095D01*
X66919047Y-25607142D02*
X66966666Y-25654761D01*
X67109523Y-25702380D01*
X67204761Y-25702380D01*
X67347619Y-25654761D01*
X67442857Y-25559523D01*
X67490476Y-25464285D01*
X67538095Y-25273809D01*
X67538095Y-25130952D01*
X67490476Y-24940476D01*
X67442857Y-24845238D01*
X67347619Y-24750000D01*
X67204761Y-24702380D01*
X67109523Y-24702380D01*
X66966666Y-24750000D01*
X66919047Y-24797619D01*
X66061904Y-25035714D02*
X66061904Y-25702380D01*
X66300000Y-24654761D02*
X66538095Y-25369047D01*
X65919047Y-25369047D01*
X65014285Y-25702380D02*
X65585714Y-25702380D01*
X65300000Y-25702380D02*
X65300000Y-24702380D01*
X65395238Y-24845238D01*
X65490476Y-24940476D01*
X65585714Y-24988095D01*
X64061904Y-25702380D02*
X64633333Y-25702380D01*
X64347619Y-25702380D02*
X64347619Y-24702380D01*
X64442857Y-24845238D01*
X64538095Y-24940476D01*
X64633333Y-24988095D01*
X73357142Y-27880952D02*
X73404761Y-27833333D01*
X73452380Y-27690476D01*
X73452380Y-27595238D01*
X73404761Y-27452380D01*
X73309523Y-27357142D01*
X73214285Y-27309523D01*
X73023809Y-27261904D01*
X72880952Y-27261904D01*
X72690476Y-27309523D01*
X72595238Y-27357142D01*
X72500000Y-27452380D01*
X72452380Y-27595238D01*
X72452380Y-27690476D01*
X72500000Y-27833333D01*
X72547619Y-27880952D01*
X72452380Y-28214285D02*
X72452380Y-28833333D01*
X72833333Y-28500000D01*
X72833333Y-28642857D01*
X72880952Y-28738095D01*
X72928571Y-28785714D01*
X73023809Y-28833333D01*
X73261904Y-28833333D01*
X73357142Y-28785714D01*
X73404761Y-28738095D01*
X73452380Y-28642857D01*
X73452380Y-28357142D01*
X73404761Y-28261904D01*
X73357142Y-28214285D01*
X72547619Y-29214285D02*
X72500000Y-29261904D01*
X72452380Y-29357142D01*
X72452380Y-29595238D01*
X72500000Y-29690476D01*
X72547619Y-29738095D01*
X72642857Y-29785714D01*
X72738095Y-29785714D01*
X72880952Y-29738095D01*
X73452380Y-29166666D01*
X73452380Y-29785714D01*
X72547619Y-30166666D02*
X72500000Y-30214285D01*
X72452380Y-30309523D01*
X72452380Y-30547619D01*
X72500000Y-30642857D01*
X72547619Y-30690476D01*
X72642857Y-30738095D01*
X72738095Y-30738095D01*
X72880952Y-30690476D01*
X73452380Y-30119047D01*
X73452380Y-30738095D01*
X76369047Y-23607142D02*
X76416666Y-23654761D01*
X76559523Y-23702380D01*
X76654761Y-23702380D01*
X76797619Y-23654761D01*
X76892857Y-23559523D01*
X76940476Y-23464285D01*
X76988095Y-23273809D01*
X76988095Y-23130952D01*
X76940476Y-22940476D01*
X76892857Y-22845238D01*
X76797619Y-22750000D01*
X76654761Y-22702380D01*
X76559523Y-22702380D01*
X76416666Y-22750000D01*
X76369047Y-22797619D01*
X76035714Y-22702380D02*
X75416666Y-22702380D01*
X75750000Y-23083333D01*
X75607142Y-23083333D01*
X75511904Y-23130952D01*
X75464285Y-23178571D01*
X75416666Y-23273809D01*
X75416666Y-23511904D01*
X75464285Y-23607142D01*
X75511904Y-23654761D01*
X75607142Y-23702380D01*
X75892857Y-23702380D01*
X75988095Y-23654761D01*
X76035714Y-23607142D01*
X75035714Y-22797619D02*
X74988095Y-22750000D01*
X74892857Y-22702380D01*
X74654761Y-22702380D01*
X74559523Y-22750000D01*
X74511904Y-22797619D01*
X74464285Y-22892857D01*
X74464285Y-22988095D01*
X74511904Y-23130952D01*
X75083333Y-23702380D01*
X74464285Y-23702380D01*
X73511904Y-23702380D02*
X74083333Y-23702380D01*
X73797619Y-23702380D02*
X73797619Y-22702380D01*
X73892857Y-22845238D01*
X73988095Y-22940476D01*
X74083333Y-22988095D01*
X47619047Y-37107142D02*
X47666666Y-37154761D01*
X47809523Y-37202380D01*
X47904761Y-37202380D01*
X48047619Y-37154761D01*
X48142857Y-37059523D01*
X48190476Y-36964285D01*
X48238095Y-36773809D01*
X48238095Y-36630952D01*
X48190476Y-36440476D01*
X48142857Y-36345238D01*
X48047619Y-36250000D01*
X47904761Y-36202380D01*
X47809523Y-36202380D01*
X47666666Y-36250000D01*
X47619047Y-36297619D01*
X47285714Y-36202380D02*
X46666666Y-36202380D01*
X47000000Y-36583333D01*
X46857142Y-36583333D01*
X46761904Y-36630952D01*
X46714285Y-36678571D01*
X46666666Y-36773809D01*
X46666666Y-37011904D01*
X46714285Y-37107142D01*
X46761904Y-37154761D01*
X46857142Y-37202380D01*
X47142857Y-37202380D01*
X47238095Y-37154761D01*
X47285714Y-37107142D01*
X45714285Y-37202380D02*
X46285714Y-37202380D01*
X46000000Y-37202380D02*
X46000000Y-36202380D01*
X46095238Y-36345238D01*
X46190476Y-36440476D01*
X46285714Y-36488095D01*
X45333333Y-36297619D02*
X45285714Y-36250000D01*
X45190476Y-36202380D01*
X44952380Y-36202380D01*
X44857142Y-36250000D01*
X44809523Y-36297619D01*
X44761904Y-36392857D01*
X44761904Y-36488095D01*
X44809523Y-36630952D01*
X45380952Y-37202380D01*
X44761904Y-37202380D01*
X53857142Y-39630952D02*
X53904761Y-39583333D01*
X53952380Y-39440476D01*
X53952380Y-39345238D01*
X53904761Y-39202380D01*
X53809523Y-39107142D01*
X53714285Y-39059523D01*
X53523809Y-39011904D01*
X53380952Y-39011904D01*
X53190476Y-39059523D01*
X53095238Y-39107142D01*
X53000000Y-39202380D01*
X52952380Y-39345238D01*
X52952380Y-39440476D01*
X53000000Y-39583333D01*
X53047619Y-39630952D01*
X52952380Y-39964285D02*
X52952380Y-40583333D01*
X53333333Y-40250000D01*
X53333333Y-40392857D01*
X53380952Y-40488095D01*
X53428571Y-40535714D01*
X53523809Y-40583333D01*
X53761904Y-40583333D01*
X53857142Y-40535714D01*
X53904761Y-40488095D01*
X53952380Y-40392857D01*
X53952380Y-40107142D01*
X53904761Y-40011904D01*
X53857142Y-39964285D01*
X53952380Y-41535714D02*
X53952380Y-40964285D01*
X53952380Y-41250000D02*
X52952380Y-41250000D01*
X53095238Y-41154761D01*
X53190476Y-41059523D01*
X53238095Y-40964285D01*
X53952380Y-42488095D02*
X53952380Y-41916666D01*
X53952380Y-42202380D02*
X52952380Y-42202380D01*
X53095238Y-42107142D01*
X53190476Y-42011904D01*
X53238095Y-41916666D01*
X45119047Y-40357142D02*
X45166666Y-40404761D01*
X45309523Y-40452380D01*
X45404761Y-40452380D01*
X45547619Y-40404761D01*
X45642857Y-40309523D01*
X45690476Y-40214285D01*
X45738095Y-40023809D01*
X45738095Y-39880952D01*
X45690476Y-39690476D01*
X45642857Y-39595238D01*
X45547619Y-39500000D01*
X45404761Y-39452380D01*
X45309523Y-39452380D01*
X45166666Y-39500000D01*
X45119047Y-39547619D01*
X44166666Y-40452380D02*
X44738095Y-40452380D01*
X44452380Y-40452380D02*
X44452380Y-39452380D01*
X44547619Y-39595238D01*
X44642857Y-39690476D01*
X44738095Y-39738095D01*
X43261904Y-39452380D02*
X43738095Y-39452380D01*
X43785714Y-39928571D01*
X43738095Y-39880952D01*
X43642857Y-39833333D01*
X43404761Y-39833333D01*
X43309523Y-39880952D01*
X43261904Y-39928571D01*
X43214285Y-40023809D01*
X43214285Y-40261904D01*
X43261904Y-40357142D01*
X43309523Y-40404761D01*
X43404761Y-40452380D01*
X43642857Y-40452380D01*
X43738095Y-40404761D01*
X43785714Y-40357142D01*
X42261904Y-40452380D02*
X42833333Y-40452380D01*
X42547619Y-40452380D02*
X42547619Y-39452380D01*
X42642857Y-39595238D01*
X42738095Y-39690476D01*
X42833333Y-39738095D01*
X48869047Y-40857142D02*
X48916666Y-40904761D01*
X49059523Y-40952380D01*
X49154761Y-40952380D01*
X49297619Y-40904761D01*
X49392857Y-40809523D01*
X49440476Y-40714285D01*
X49488095Y-40523809D01*
X49488095Y-40380952D01*
X49440476Y-40190476D01*
X49392857Y-40095238D01*
X49297619Y-40000000D01*
X49154761Y-39952380D01*
X49059523Y-39952380D01*
X48916666Y-40000000D01*
X48869047Y-40047619D01*
X47916666Y-40952380D02*
X48488095Y-40952380D01*
X48202380Y-40952380D02*
X48202380Y-39952380D01*
X48297619Y-40095238D01*
X48392857Y-40190476D01*
X48488095Y-40238095D01*
X47583333Y-39952380D02*
X46964285Y-39952380D01*
X47297619Y-40333333D01*
X47154761Y-40333333D01*
X47059523Y-40380952D01*
X47011904Y-40428571D01*
X46964285Y-40523809D01*
X46964285Y-40761904D01*
X47011904Y-40857142D01*
X47059523Y-40904761D01*
X47154761Y-40952380D01*
X47440476Y-40952380D01*
X47535714Y-40904761D01*
X47583333Y-40857142D01*
X46011904Y-40952380D02*
X46583333Y-40952380D01*
X46297619Y-40952380D02*
X46297619Y-39952380D01*
X46392857Y-40095238D01*
X46488095Y-40190476D01*
X46583333Y-40238095D01*
X81392857Y-38107142D02*
X81440476Y-38154761D01*
X81583333Y-38202380D01*
X81678571Y-38202380D01*
X81821428Y-38154761D01*
X81916666Y-38059523D01*
X81964285Y-37964285D01*
X82011904Y-37773809D01*
X82011904Y-37630952D01*
X81964285Y-37440476D01*
X81916666Y-37345238D01*
X81821428Y-37250000D01*
X81678571Y-37202380D01*
X81583333Y-37202380D01*
X81440476Y-37250000D01*
X81392857Y-37297619D01*
X80916666Y-38202380D02*
X80726190Y-38202380D01*
X80630952Y-38154761D01*
X80583333Y-38107142D01*
X80488095Y-37964285D01*
X80440476Y-37773809D01*
X80440476Y-37392857D01*
X80488095Y-37297619D01*
X80535714Y-37250000D01*
X80630952Y-37202380D01*
X80821428Y-37202380D01*
X80916666Y-37250000D01*
X80964285Y-37297619D01*
X81011904Y-37392857D01*
X81011904Y-37630952D01*
X80964285Y-37726190D01*
X80916666Y-37773809D01*
X80821428Y-37821428D01*
X80630952Y-37821428D01*
X80535714Y-37773809D01*
X80488095Y-37726190D01*
X80440476Y-37630952D01*
X79583333Y-37202380D02*
X79773809Y-37202380D01*
X79869047Y-37250000D01*
X79916666Y-37297619D01*
X80011904Y-37440476D01*
X80059523Y-37630952D01*
X80059523Y-38011904D01*
X80011904Y-38107142D01*
X79964285Y-38154761D01*
X79869047Y-38202380D01*
X79678571Y-38202380D01*
X79583333Y-38154761D01*
X79535714Y-38107142D01*
X79488095Y-38011904D01*
X79488095Y-37773809D01*
X79535714Y-37678571D01*
X79583333Y-37630952D01*
X79678571Y-37583333D01*
X79869047Y-37583333D01*
X79964285Y-37630952D01*
X80011904Y-37678571D01*
X80059523Y-37773809D01*
X106392857Y-40107142D02*
X106440476Y-40154761D01*
X106583333Y-40202380D01*
X106678571Y-40202380D01*
X106821428Y-40154761D01*
X106916666Y-40059523D01*
X106964285Y-39964285D01*
X107011904Y-39773809D01*
X107011904Y-39630952D01*
X106964285Y-39440476D01*
X106916666Y-39345238D01*
X106821428Y-39250000D01*
X106678571Y-39202380D01*
X106583333Y-39202380D01*
X106440476Y-39250000D01*
X106392857Y-39297619D01*
X106011904Y-39297619D02*
X105964285Y-39250000D01*
X105869047Y-39202380D01*
X105630952Y-39202380D01*
X105535714Y-39250000D01*
X105488095Y-39297619D01*
X105440476Y-39392857D01*
X105440476Y-39488095D01*
X105488095Y-39630952D01*
X106059523Y-40202380D01*
X105440476Y-40202380D01*
X104535714Y-39202380D02*
X105011904Y-39202380D01*
X105059523Y-39678571D01*
X105011904Y-39630952D01*
X104916666Y-39583333D01*
X104678571Y-39583333D01*
X104583333Y-39630952D01*
X104535714Y-39678571D01*
X104488095Y-39773809D01*
X104488095Y-40011904D01*
X104535714Y-40107142D01*
X104583333Y-40154761D01*
X104678571Y-40202380D01*
X104916666Y-40202380D01*
X105011904Y-40154761D01*
X105059523Y-40107142D01*
X105892857Y-73857142D02*
X105940476Y-73904761D01*
X106083333Y-73952380D01*
X106178571Y-73952380D01*
X106321428Y-73904761D01*
X106416666Y-73809523D01*
X106464285Y-73714285D01*
X106511904Y-73523809D01*
X106511904Y-73380952D01*
X106464285Y-73190476D01*
X106416666Y-73095238D01*
X106321428Y-73000000D01*
X106178571Y-72952380D01*
X106083333Y-72952380D01*
X105940476Y-73000000D01*
X105892857Y-73047619D01*
X105511904Y-73047619D02*
X105464285Y-73000000D01*
X105369047Y-72952380D01*
X105130952Y-72952380D01*
X105035714Y-73000000D01*
X104988095Y-73047619D01*
X104940476Y-73142857D01*
X104940476Y-73238095D01*
X104988095Y-73380952D01*
X105559523Y-73952380D01*
X104940476Y-73952380D01*
X104083333Y-73285714D02*
X104083333Y-73952380D01*
X104321428Y-72904761D02*
X104559523Y-73619047D01*
X103940476Y-73619047D01*
X105672857Y-80787142D02*
X105720476Y-80834761D01*
X105863333Y-80882380D01*
X105958571Y-80882380D01*
X106101428Y-80834761D01*
X106196666Y-80739523D01*
X106244285Y-80644285D01*
X106291904Y-80453809D01*
X106291904Y-80310952D01*
X106244285Y-80120476D01*
X106196666Y-80025238D01*
X106101428Y-79930000D01*
X105958571Y-79882380D01*
X105863333Y-79882380D01*
X105720476Y-79930000D01*
X105672857Y-79977619D01*
X105291904Y-79977619D02*
X105244285Y-79930000D01*
X105149047Y-79882380D01*
X104910952Y-79882380D01*
X104815714Y-79930000D01*
X104768095Y-79977619D01*
X104720476Y-80072857D01*
X104720476Y-80168095D01*
X104768095Y-80310952D01*
X105339523Y-80882380D01*
X104720476Y-80882380D01*
X104339523Y-79977619D02*
X104291904Y-79930000D01*
X104196666Y-79882380D01*
X103958571Y-79882380D01*
X103863333Y-79930000D01*
X103815714Y-79977619D01*
X103768095Y-80072857D01*
X103768095Y-80168095D01*
X103815714Y-80310952D01*
X104387142Y-80882380D01*
X103768095Y-80882380D01*
X92437142Y-61077142D02*
X92484761Y-61029523D01*
X92532380Y-60886666D01*
X92532380Y-60791428D01*
X92484761Y-60648571D01*
X92389523Y-60553333D01*
X92294285Y-60505714D01*
X92103809Y-60458095D01*
X91960952Y-60458095D01*
X91770476Y-60505714D01*
X91675238Y-60553333D01*
X91580000Y-60648571D01*
X91532380Y-60791428D01*
X91532380Y-60886666D01*
X91580000Y-61029523D01*
X91627619Y-61077142D01*
X91627619Y-61458095D02*
X91580000Y-61505714D01*
X91532380Y-61600952D01*
X91532380Y-61839047D01*
X91580000Y-61934285D01*
X91627619Y-61981904D01*
X91722857Y-62029523D01*
X91818095Y-62029523D01*
X91960952Y-61981904D01*
X92532380Y-61410476D01*
X92532380Y-62029523D01*
X92532380Y-62981904D02*
X92532380Y-62410476D01*
X92532380Y-62696190D02*
X91532380Y-62696190D01*
X91675238Y-62600952D01*
X91770476Y-62505714D01*
X91818095Y-62410476D01*
X80642857Y-63357142D02*
X80690476Y-63404761D01*
X80833333Y-63452380D01*
X80928571Y-63452380D01*
X81071428Y-63404761D01*
X81166666Y-63309523D01*
X81214285Y-63214285D01*
X81261904Y-63023809D01*
X81261904Y-62880952D01*
X81214285Y-62690476D01*
X81166666Y-62595238D01*
X81071428Y-62500000D01*
X80928571Y-62452380D01*
X80833333Y-62452380D01*
X80690476Y-62500000D01*
X80642857Y-62547619D01*
X80166666Y-63452380D02*
X79976190Y-63452380D01*
X79880952Y-63404761D01*
X79833333Y-63357142D01*
X79738095Y-63214285D01*
X79690476Y-63023809D01*
X79690476Y-62642857D01*
X79738095Y-62547619D01*
X79785714Y-62500000D01*
X79880952Y-62452380D01*
X80071428Y-62452380D01*
X80166666Y-62500000D01*
X80214285Y-62547619D01*
X80261904Y-62642857D01*
X80261904Y-62880952D01*
X80214285Y-62976190D01*
X80166666Y-63023809D01*
X80071428Y-63071428D01*
X79880952Y-63071428D01*
X79785714Y-63023809D01*
X79738095Y-62976190D01*
X79690476Y-62880952D01*
X79357142Y-62452380D02*
X78690476Y-62452380D01*
X79119047Y-63452380D01*
X34367380Y-43265714D02*
X33367380Y-43265714D01*
X33367380Y-43503809D01*
X33415000Y-43646666D01*
X33510238Y-43741904D01*
X33605476Y-43789523D01*
X33795952Y-43837142D01*
X33938809Y-43837142D01*
X34129285Y-43789523D01*
X34224523Y-43741904D01*
X34319761Y-43646666D01*
X34367380Y-43503809D01*
X34367380Y-43265714D01*
X34367380Y-44313333D02*
X34367380Y-44503809D01*
X34319761Y-44599047D01*
X34272142Y-44646666D01*
X34129285Y-44741904D01*
X33938809Y-44789523D01*
X33557857Y-44789523D01*
X33462619Y-44741904D01*
X33415000Y-44694285D01*
X33367380Y-44599047D01*
X33367380Y-44408571D01*
X33415000Y-44313333D01*
X33462619Y-44265714D01*
X33557857Y-44218095D01*
X33795952Y-44218095D01*
X33891190Y-44265714D01*
X33938809Y-44313333D01*
X33986428Y-44408571D01*
X33986428Y-44599047D01*
X33938809Y-44694285D01*
X33891190Y-44741904D01*
X33795952Y-44789523D01*
X33367380Y-45408571D02*
X33367380Y-45503809D01*
X33415000Y-45599047D01*
X33462619Y-45646666D01*
X33557857Y-45694285D01*
X33748333Y-45741904D01*
X33986428Y-45741904D01*
X34176904Y-45694285D01*
X34272142Y-45646666D01*
X34319761Y-45599047D01*
X34367380Y-45503809D01*
X34367380Y-45408571D01*
X34319761Y-45313333D01*
X34272142Y-45265714D01*
X34176904Y-45218095D01*
X33986428Y-45170476D01*
X33748333Y-45170476D01*
X33557857Y-45218095D01*
X33462619Y-45265714D01*
X33415000Y-45313333D01*
X33367380Y-45408571D01*
X68869047Y-59177142D02*
X68916666Y-59224761D01*
X69059523Y-59272380D01*
X69154761Y-59272380D01*
X69297619Y-59224761D01*
X69392857Y-59129523D01*
X69440476Y-59034285D01*
X69488095Y-58843809D01*
X69488095Y-58700952D01*
X69440476Y-58510476D01*
X69392857Y-58415238D01*
X69297619Y-58320000D01*
X69154761Y-58272380D01*
X69059523Y-58272380D01*
X68916666Y-58320000D01*
X68869047Y-58367619D01*
X68297619Y-58700952D02*
X68392857Y-58653333D01*
X68440476Y-58605714D01*
X68488095Y-58510476D01*
X68488095Y-58462857D01*
X68440476Y-58367619D01*
X68392857Y-58320000D01*
X68297619Y-58272380D01*
X68107142Y-58272380D01*
X68011904Y-58320000D01*
X67964285Y-58367619D01*
X67916666Y-58462857D01*
X67916666Y-58510476D01*
X67964285Y-58605714D01*
X68011904Y-58653333D01*
X68107142Y-58700952D01*
X68297619Y-58700952D01*
X68392857Y-58748571D01*
X68440476Y-58796190D01*
X68488095Y-58891428D01*
X68488095Y-59081904D01*
X68440476Y-59177142D01*
X68392857Y-59224761D01*
X68297619Y-59272380D01*
X68107142Y-59272380D01*
X68011904Y-59224761D01*
X67964285Y-59177142D01*
X67916666Y-59081904D01*
X67916666Y-58891428D01*
X67964285Y-58796190D01*
X68011904Y-58748571D01*
X68107142Y-58700952D01*
X66964285Y-59272380D02*
X67535714Y-59272380D01*
X67250000Y-59272380D02*
X67250000Y-58272380D01*
X67345238Y-58415238D01*
X67440476Y-58510476D01*
X67535714Y-58558095D01*
X66059523Y-58272380D02*
X66535714Y-58272380D01*
X66583333Y-58748571D01*
X66535714Y-58700952D01*
X66440476Y-58653333D01*
X66202380Y-58653333D01*
X66107142Y-58700952D01*
X66059523Y-58748571D01*
X66011904Y-58843809D01*
X66011904Y-59081904D01*
X66059523Y-59177142D01*
X66107142Y-59224761D01*
X66202380Y-59272380D01*
X66440476Y-59272380D01*
X66535714Y-59224761D01*
X66583333Y-59177142D01*
X69629047Y-54547142D02*
X69676666Y-54594761D01*
X69819523Y-54642380D01*
X69914761Y-54642380D01*
X70057619Y-54594761D01*
X70152857Y-54499523D01*
X70200476Y-54404285D01*
X70248095Y-54213809D01*
X70248095Y-54070952D01*
X70200476Y-53880476D01*
X70152857Y-53785238D01*
X70057619Y-53690000D01*
X69914761Y-53642380D01*
X69819523Y-53642380D01*
X69676666Y-53690000D01*
X69629047Y-53737619D01*
X69057619Y-54070952D02*
X69152857Y-54023333D01*
X69200476Y-53975714D01*
X69248095Y-53880476D01*
X69248095Y-53832857D01*
X69200476Y-53737619D01*
X69152857Y-53690000D01*
X69057619Y-53642380D01*
X68867142Y-53642380D01*
X68771904Y-53690000D01*
X68724285Y-53737619D01*
X68676666Y-53832857D01*
X68676666Y-53880476D01*
X68724285Y-53975714D01*
X68771904Y-54023333D01*
X68867142Y-54070952D01*
X69057619Y-54070952D01*
X69152857Y-54118571D01*
X69200476Y-54166190D01*
X69248095Y-54261428D01*
X69248095Y-54451904D01*
X69200476Y-54547142D01*
X69152857Y-54594761D01*
X69057619Y-54642380D01*
X68867142Y-54642380D01*
X68771904Y-54594761D01*
X68724285Y-54547142D01*
X68676666Y-54451904D01*
X68676666Y-54261428D01*
X68724285Y-54166190D01*
X68771904Y-54118571D01*
X68867142Y-54070952D01*
X67724285Y-54642380D02*
X68295714Y-54642380D01*
X68010000Y-54642380D02*
X68010000Y-53642380D01*
X68105238Y-53785238D01*
X68200476Y-53880476D01*
X68295714Y-53928095D01*
X66867142Y-53975714D02*
X66867142Y-54642380D01*
X67105238Y-53594761D02*
X67343333Y-54309047D01*
X66724285Y-54309047D01*
X84652380Y-24877142D02*
X84652380Y-24400952D01*
X83652380Y-24400952D01*
X84652380Y-25210476D02*
X83652380Y-25210476D01*
X84652380Y-25781904D02*
X84080952Y-25353333D01*
X83652380Y-25781904D02*
X84223809Y-25210476D01*
X83747619Y-26162857D02*
X83700000Y-26210476D01*
X83652380Y-26305714D01*
X83652380Y-26543809D01*
X83700000Y-26639047D01*
X83747619Y-26686666D01*
X83842857Y-26734285D01*
X83938095Y-26734285D01*
X84080952Y-26686666D01*
X84652380Y-26115238D01*
X84652380Y-26734285D01*
X84652380Y-27686666D02*
X84652380Y-27115238D01*
X84652380Y-27400952D02*
X83652380Y-27400952D01*
X83795238Y-27305714D01*
X83890476Y-27210476D01*
X83938095Y-27115238D01*
X94202380Y-42261904D02*
X95011904Y-42261904D01*
X95107142Y-42309523D01*
X95154761Y-42357142D01*
X95202380Y-42452380D01*
X95202380Y-42642857D01*
X95154761Y-42738095D01*
X95107142Y-42785714D01*
X95011904Y-42833333D01*
X94202380Y-42833333D01*
X94297619Y-43261904D02*
X94250000Y-43309523D01*
X94202380Y-43404761D01*
X94202380Y-43642857D01*
X94250000Y-43738095D01*
X94297619Y-43785714D01*
X94392857Y-43833333D01*
X94488095Y-43833333D01*
X94630952Y-43785714D01*
X95202380Y-43214285D01*
X95202380Y-43833333D01*
X94202380Y-44738095D02*
X94202380Y-44261904D01*
X94678571Y-44214285D01*
X94630952Y-44261904D01*
X94583333Y-44357142D01*
X94583333Y-44595238D01*
X94630952Y-44690476D01*
X94678571Y-44738095D01*
X94773809Y-44785714D01*
X95011904Y-44785714D01*
X95107142Y-44738095D01*
X95154761Y-44690476D01*
X95202380Y-44595238D01*
X95202380Y-44357142D01*
X95154761Y-44261904D01*
X95107142Y-44214285D01*
X94192380Y-56886904D02*
X95001904Y-56886904D01*
X95097142Y-56934523D01*
X95144761Y-56982142D01*
X95192380Y-57077380D01*
X95192380Y-57267857D01*
X95144761Y-57363095D01*
X95097142Y-57410714D01*
X95001904Y-57458333D01*
X94192380Y-57458333D01*
X94287619Y-57886904D02*
X94240000Y-57934523D01*
X94192380Y-58029761D01*
X94192380Y-58267857D01*
X94240000Y-58363095D01*
X94287619Y-58410714D01*
X94382857Y-58458333D01*
X94478095Y-58458333D01*
X94620952Y-58410714D01*
X95192380Y-57839285D01*
X95192380Y-58458333D01*
X94525714Y-59315476D02*
X95192380Y-59315476D01*
X94144761Y-59077380D02*
X94859047Y-58839285D01*
X94859047Y-59458333D01*
X78244047Y-55697142D02*
X78291666Y-55744761D01*
X78434523Y-55792380D01*
X78529761Y-55792380D01*
X78672619Y-55744761D01*
X78767857Y-55649523D01*
X78815476Y-55554285D01*
X78863095Y-55363809D01*
X78863095Y-55220952D01*
X78815476Y-55030476D01*
X78767857Y-54935238D01*
X78672619Y-54840000D01*
X78529761Y-54792380D01*
X78434523Y-54792380D01*
X78291666Y-54840000D01*
X78244047Y-54887619D01*
X77672619Y-55220952D02*
X77767857Y-55173333D01*
X77815476Y-55125714D01*
X77863095Y-55030476D01*
X77863095Y-54982857D01*
X77815476Y-54887619D01*
X77767857Y-54840000D01*
X77672619Y-54792380D01*
X77482142Y-54792380D01*
X77386904Y-54840000D01*
X77339285Y-54887619D01*
X77291666Y-54982857D01*
X77291666Y-55030476D01*
X77339285Y-55125714D01*
X77386904Y-55173333D01*
X77482142Y-55220952D01*
X77672619Y-55220952D01*
X77767857Y-55268571D01*
X77815476Y-55316190D01*
X77863095Y-55411428D01*
X77863095Y-55601904D01*
X77815476Y-55697142D01*
X77767857Y-55744761D01*
X77672619Y-55792380D01*
X77482142Y-55792380D01*
X77386904Y-55744761D01*
X77339285Y-55697142D01*
X77291666Y-55601904D01*
X77291666Y-55411428D01*
X77339285Y-55316190D01*
X77386904Y-55268571D01*
X77482142Y-55220952D01*
X76339285Y-55792380D02*
X76910714Y-55792380D01*
X76625000Y-55792380D02*
X76625000Y-54792380D01*
X76720238Y-54935238D01*
X76815476Y-55030476D01*
X76910714Y-55078095D01*
X75958333Y-54887619D02*
X75910714Y-54840000D01*
X75815476Y-54792380D01*
X75577380Y-54792380D01*
X75482142Y-54840000D01*
X75434523Y-54887619D01*
X75386904Y-54982857D01*
X75386904Y-55078095D01*
X75434523Y-55220952D01*
X76005952Y-55792380D01*
X75386904Y-55792380D01*
X64739047Y-55687142D02*
X64786666Y-55734761D01*
X64929523Y-55782380D01*
X65024761Y-55782380D01*
X65167619Y-55734761D01*
X65262857Y-55639523D01*
X65310476Y-55544285D01*
X65358095Y-55353809D01*
X65358095Y-55210952D01*
X65310476Y-55020476D01*
X65262857Y-54925238D01*
X65167619Y-54830000D01*
X65024761Y-54782380D01*
X64929523Y-54782380D01*
X64786666Y-54830000D01*
X64739047Y-54877619D01*
X64167619Y-55210952D02*
X64262857Y-55163333D01*
X64310476Y-55115714D01*
X64358095Y-55020476D01*
X64358095Y-54972857D01*
X64310476Y-54877619D01*
X64262857Y-54830000D01*
X64167619Y-54782380D01*
X63977142Y-54782380D01*
X63881904Y-54830000D01*
X63834285Y-54877619D01*
X63786666Y-54972857D01*
X63786666Y-55020476D01*
X63834285Y-55115714D01*
X63881904Y-55163333D01*
X63977142Y-55210952D01*
X64167619Y-55210952D01*
X64262857Y-55258571D01*
X64310476Y-55306190D01*
X64358095Y-55401428D01*
X64358095Y-55591904D01*
X64310476Y-55687142D01*
X64262857Y-55734761D01*
X64167619Y-55782380D01*
X63977142Y-55782380D01*
X63881904Y-55734761D01*
X63834285Y-55687142D01*
X63786666Y-55591904D01*
X63786666Y-55401428D01*
X63834285Y-55306190D01*
X63881904Y-55258571D01*
X63977142Y-55210952D01*
X62834285Y-55782380D02*
X63405714Y-55782380D01*
X63120000Y-55782380D02*
X63120000Y-54782380D01*
X63215238Y-54925238D01*
X63310476Y-55020476D01*
X63405714Y-55068095D01*
X61881904Y-55782380D02*
X62453333Y-55782380D01*
X62167619Y-55782380D02*
X62167619Y-54782380D01*
X62262857Y-54925238D01*
X62358095Y-55020476D01*
X62453333Y-55068095D01*
X68037142Y-62130952D02*
X68084761Y-62083333D01*
X68132380Y-61940476D01*
X68132380Y-61845238D01*
X68084761Y-61702380D01*
X67989523Y-61607142D01*
X67894285Y-61559523D01*
X67703809Y-61511904D01*
X67560952Y-61511904D01*
X67370476Y-61559523D01*
X67275238Y-61607142D01*
X67180000Y-61702380D01*
X67132380Y-61845238D01*
X67132380Y-61940476D01*
X67180000Y-62083333D01*
X67227619Y-62130952D01*
X67560952Y-62702380D02*
X67513333Y-62607142D01*
X67465714Y-62559523D01*
X67370476Y-62511904D01*
X67322857Y-62511904D01*
X67227619Y-62559523D01*
X67180000Y-62607142D01*
X67132380Y-62702380D01*
X67132380Y-62892857D01*
X67180000Y-62988095D01*
X67227619Y-63035714D01*
X67322857Y-63083333D01*
X67370476Y-63083333D01*
X67465714Y-63035714D01*
X67513333Y-62988095D01*
X67560952Y-62892857D01*
X67560952Y-62702380D01*
X67608571Y-62607142D01*
X67656190Y-62559523D01*
X67751428Y-62511904D01*
X67941904Y-62511904D01*
X68037142Y-62559523D01*
X68084761Y-62607142D01*
X68132380Y-62702380D01*
X68132380Y-62892857D01*
X68084761Y-62988095D01*
X68037142Y-63035714D01*
X67941904Y-63083333D01*
X67751428Y-63083333D01*
X67656190Y-63035714D01*
X67608571Y-62988095D01*
X67560952Y-62892857D01*
X68132380Y-64035714D02*
X68132380Y-63464285D01*
X68132380Y-63750000D02*
X67132380Y-63750000D01*
X67275238Y-63654761D01*
X67370476Y-63559523D01*
X67418095Y-63464285D01*
X67132380Y-64654761D02*
X67132380Y-64750000D01*
X67180000Y-64845238D01*
X67227619Y-64892857D01*
X67322857Y-64940476D01*
X67513333Y-64988095D01*
X67751428Y-64988095D01*
X67941904Y-64940476D01*
X68037142Y-64892857D01*
X68084761Y-64845238D01*
X68132380Y-64750000D01*
X68132380Y-64654761D01*
X68084761Y-64559523D01*
X68037142Y-64511904D01*
X67941904Y-64464285D01*
X67751428Y-64416666D01*
X67513333Y-64416666D01*
X67322857Y-64464285D01*
X67227619Y-64511904D01*
X67180000Y-64559523D01*
X67132380Y-64654761D01*
X69922857Y-50797142D02*
X69970476Y-50844761D01*
X70113333Y-50892380D01*
X70208571Y-50892380D01*
X70351428Y-50844761D01*
X70446666Y-50749523D01*
X70494285Y-50654285D01*
X70541904Y-50463809D01*
X70541904Y-50320952D01*
X70494285Y-50130476D01*
X70446666Y-50035238D01*
X70351428Y-49940000D01*
X70208571Y-49892380D01*
X70113333Y-49892380D01*
X69970476Y-49940000D01*
X69922857Y-49987619D01*
X69351428Y-50320952D02*
X69446666Y-50273333D01*
X69494285Y-50225714D01*
X69541904Y-50130476D01*
X69541904Y-50082857D01*
X69494285Y-49987619D01*
X69446666Y-49940000D01*
X69351428Y-49892380D01*
X69160952Y-49892380D01*
X69065714Y-49940000D01*
X69018095Y-49987619D01*
X68970476Y-50082857D01*
X68970476Y-50130476D01*
X69018095Y-50225714D01*
X69065714Y-50273333D01*
X69160952Y-50320952D01*
X69351428Y-50320952D01*
X69446666Y-50368571D01*
X69494285Y-50416190D01*
X69541904Y-50511428D01*
X69541904Y-50701904D01*
X69494285Y-50797142D01*
X69446666Y-50844761D01*
X69351428Y-50892380D01*
X69160952Y-50892380D01*
X69065714Y-50844761D01*
X69018095Y-50797142D01*
X68970476Y-50701904D01*
X68970476Y-50511428D01*
X69018095Y-50416190D01*
X69065714Y-50368571D01*
X69160952Y-50320952D01*
X68494285Y-50892380D02*
X68303809Y-50892380D01*
X68208571Y-50844761D01*
X68160952Y-50797142D01*
X68065714Y-50654285D01*
X68018095Y-50463809D01*
X68018095Y-50082857D01*
X68065714Y-49987619D01*
X68113333Y-49940000D01*
X68208571Y-49892380D01*
X68399047Y-49892380D01*
X68494285Y-49940000D01*
X68541904Y-49987619D01*
X68589523Y-50082857D01*
X68589523Y-50320952D01*
X68541904Y-50416190D01*
X68494285Y-50463809D01*
X68399047Y-50511428D01*
X68208571Y-50511428D01*
X68113333Y-50463809D01*
X68065714Y-50416190D01*
X68018095Y-50320952D01*
X65392857Y-61857142D02*
X65440476Y-61904761D01*
X65583333Y-61952380D01*
X65678571Y-61952380D01*
X65821428Y-61904761D01*
X65916666Y-61809523D01*
X65964285Y-61714285D01*
X66011904Y-61523809D01*
X66011904Y-61380952D01*
X65964285Y-61190476D01*
X65916666Y-61095238D01*
X65821428Y-61000000D01*
X65678571Y-60952380D01*
X65583333Y-60952380D01*
X65440476Y-61000000D01*
X65392857Y-61047619D01*
X64821428Y-61380952D02*
X64916666Y-61333333D01*
X64964285Y-61285714D01*
X65011904Y-61190476D01*
X65011904Y-61142857D01*
X64964285Y-61047619D01*
X64916666Y-61000000D01*
X64821428Y-60952380D01*
X64630952Y-60952380D01*
X64535714Y-61000000D01*
X64488095Y-61047619D01*
X64440476Y-61142857D01*
X64440476Y-61190476D01*
X64488095Y-61285714D01*
X64535714Y-61333333D01*
X64630952Y-61380952D01*
X64821428Y-61380952D01*
X64916666Y-61428571D01*
X64964285Y-61476190D01*
X65011904Y-61571428D01*
X65011904Y-61761904D01*
X64964285Y-61857142D01*
X64916666Y-61904761D01*
X64821428Y-61952380D01*
X64630952Y-61952380D01*
X64535714Y-61904761D01*
X64488095Y-61857142D01*
X64440476Y-61761904D01*
X64440476Y-61571428D01*
X64488095Y-61476190D01*
X64535714Y-61428571D01*
X64630952Y-61380952D01*
X63869047Y-61380952D02*
X63964285Y-61333333D01*
X64011904Y-61285714D01*
X64059523Y-61190476D01*
X64059523Y-61142857D01*
X64011904Y-61047619D01*
X63964285Y-61000000D01*
X63869047Y-60952380D01*
X63678571Y-60952380D01*
X63583333Y-61000000D01*
X63535714Y-61047619D01*
X63488095Y-61142857D01*
X63488095Y-61190476D01*
X63535714Y-61285714D01*
X63583333Y-61333333D01*
X63678571Y-61380952D01*
X63869047Y-61380952D01*
X63964285Y-61428571D01*
X64011904Y-61476190D01*
X64059523Y-61571428D01*
X64059523Y-61761904D01*
X64011904Y-61857142D01*
X63964285Y-61904761D01*
X63869047Y-61952380D01*
X63678571Y-61952380D01*
X63583333Y-61904761D01*
X63535714Y-61857142D01*
X63488095Y-61761904D01*
X63488095Y-61571428D01*
X63535714Y-61476190D01*
X63583333Y-61428571D01*
X63678571Y-61380952D01*
X74702857Y-53982142D02*
X74750476Y-54029761D01*
X74893333Y-54077380D01*
X74988571Y-54077380D01*
X75131428Y-54029761D01*
X75226666Y-53934523D01*
X75274285Y-53839285D01*
X75321904Y-53648809D01*
X75321904Y-53505952D01*
X75274285Y-53315476D01*
X75226666Y-53220238D01*
X75131428Y-53125000D01*
X74988571Y-53077380D01*
X74893333Y-53077380D01*
X74750476Y-53125000D01*
X74702857Y-53172619D01*
X74131428Y-53505952D02*
X74226666Y-53458333D01*
X74274285Y-53410714D01*
X74321904Y-53315476D01*
X74321904Y-53267857D01*
X74274285Y-53172619D01*
X74226666Y-53125000D01*
X74131428Y-53077380D01*
X73940952Y-53077380D01*
X73845714Y-53125000D01*
X73798095Y-53172619D01*
X73750476Y-53267857D01*
X73750476Y-53315476D01*
X73798095Y-53410714D01*
X73845714Y-53458333D01*
X73940952Y-53505952D01*
X74131428Y-53505952D01*
X74226666Y-53553571D01*
X74274285Y-53601190D01*
X74321904Y-53696428D01*
X74321904Y-53886904D01*
X74274285Y-53982142D01*
X74226666Y-54029761D01*
X74131428Y-54077380D01*
X73940952Y-54077380D01*
X73845714Y-54029761D01*
X73798095Y-53982142D01*
X73750476Y-53886904D01*
X73750476Y-53696428D01*
X73798095Y-53601190D01*
X73845714Y-53553571D01*
X73940952Y-53505952D01*
X73417142Y-53077380D02*
X72750476Y-53077380D01*
X73179047Y-54077380D01*
X76142857Y-60357142D02*
X76190476Y-60404761D01*
X76333333Y-60452380D01*
X76428571Y-60452380D01*
X76571428Y-60404761D01*
X76666666Y-60309523D01*
X76714285Y-60214285D01*
X76761904Y-60023809D01*
X76761904Y-59880952D01*
X76714285Y-59690476D01*
X76666666Y-59595238D01*
X76571428Y-59500000D01*
X76428571Y-59452380D01*
X76333333Y-59452380D01*
X76190476Y-59500000D01*
X76142857Y-59547619D01*
X75571428Y-59880952D02*
X75666666Y-59833333D01*
X75714285Y-59785714D01*
X75761904Y-59690476D01*
X75761904Y-59642857D01*
X75714285Y-59547619D01*
X75666666Y-59500000D01*
X75571428Y-59452380D01*
X75380952Y-59452380D01*
X75285714Y-59500000D01*
X75238095Y-59547619D01*
X75190476Y-59642857D01*
X75190476Y-59690476D01*
X75238095Y-59785714D01*
X75285714Y-59833333D01*
X75380952Y-59880952D01*
X75571428Y-59880952D01*
X75666666Y-59928571D01*
X75714285Y-59976190D01*
X75761904Y-60071428D01*
X75761904Y-60261904D01*
X75714285Y-60357142D01*
X75666666Y-60404761D01*
X75571428Y-60452380D01*
X75380952Y-60452380D01*
X75285714Y-60404761D01*
X75238095Y-60357142D01*
X75190476Y-60261904D01*
X75190476Y-60071428D01*
X75238095Y-59976190D01*
X75285714Y-59928571D01*
X75380952Y-59880952D01*
X74333333Y-59452380D02*
X74523809Y-59452380D01*
X74619047Y-59500000D01*
X74666666Y-59547619D01*
X74761904Y-59690476D01*
X74809523Y-59880952D01*
X74809523Y-60261904D01*
X74761904Y-60357142D01*
X74714285Y-60404761D01*
X74619047Y-60452380D01*
X74428571Y-60452380D01*
X74333333Y-60404761D01*
X74285714Y-60357142D01*
X74238095Y-60261904D01*
X74238095Y-60023809D01*
X74285714Y-59928571D01*
X74333333Y-59880952D01*
X74428571Y-59833333D01*
X74619047Y-59833333D01*
X74714285Y-59880952D01*
X74761904Y-59928571D01*
X74809523Y-60023809D01*
X65857142Y-48857142D02*
X65904761Y-48809523D01*
X65952380Y-48666666D01*
X65952380Y-48571428D01*
X65904761Y-48428571D01*
X65809523Y-48333333D01*
X65714285Y-48285714D01*
X65523809Y-48238095D01*
X65380952Y-48238095D01*
X65190476Y-48285714D01*
X65095238Y-48333333D01*
X65000000Y-48428571D01*
X64952380Y-48571428D01*
X64952380Y-48666666D01*
X65000000Y-48809523D01*
X65047619Y-48857142D01*
X65380952Y-49428571D02*
X65333333Y-49333333D01*
X65285714Y-49285714D01*
X65190476Y-49238095D01*
X65142857Y-49238095D01*
X65047619Y-49285714D01*
X65000000Y-49333333D01*
X64952380Y-49428571D01*
X64952380Y-49619047D01*
X65000000Y-49714285D01*
X65047619Y-49761904D01*
X65142857Y-49809523D01*
X65190476Y-49809523D01*
X65285714Y-49761904D01*
X65333333Y-49714285D01*
X65380952Y-49619047D01*
X65380952Y-49428571D01*
X65428571Y-49333333D01*
X65476190Y-49285714D01*
X65571428Y-49238095D01*
X65761904Y-49238095D01*
X65857142Y-49285714D01*
X65904761Y-49333333D01*
X65952380Y-49428571D01*
X65952380Y-49619047D01*
X65904761Y-49714285D01*
X65857142Y-49761904D01*
X65761904Y-49809523D01*
X65571428Y-49809523D01*
X65476190Y-49761904D01*
X65428571Y-49714285D01*
X65380952Y-49619047D01*
X64952380Y-50714285D02*
X64952380Y-50238095D01*
X65428571Y-50190476D01*
X65380952Y-50238095D01*
X65333333Y-50333333D01*
X65333333Y-50571428D01*
X65380952Y-50666666D01*
X65428571Y-50714285D01*
X65523809Y-50761904D01*
X65761904Y-50761904D01*
X65857142Y-50714285D01*
X65904761Y-50666666D01*
X65952380Y-50571428D01*
X65952380Y-50333333D01*
X65904761Y-50238095D01*
X65857142Y-50190476D01*
X62482142Y-51607142D02*
X62529761Y-51559523D01*
X62577380Y-51416666D01*
X62577380Y-51321428D01*
X62529761Y-51178571D01*
X62434523Y-51083333D01*
X62339285Y-51035714D01*
X62148809Y-50988095D01*
X62005952Y-50988095D01*
X61815476Y-51035714D01*
X61720238Y-51083333D01*
X61625000Y-51178571D01*
X61577380Y-51321428D01*
X61577380Y-51416666D01*
X61625000Y-51559523D01*
X61672619Y-51607142D01*
X62005952Y-52178571D02*
X61958333Y-52083333D01*
X61910714Y-52035714D01*
X61815476Y-51988095D01*
X61767857Y-51988095D01*
X61672619Y-52035714D01*
X61625000Y-52083333D01*
X61577380Y-52178571D01*
X61577380Y-52369047D01*
X61625000Y-52464285D01*
X61672619Y-52511904D01*
X61767857Y-52559523D01*
X61815476Y-52559523D01*
X61910714Y-52511904D01*
X61958333Y-52464285D01*
X62005952Y-52369047D01*
X62005952Y-52178571D01*
X62053571Y-52083333D01*
X62101190Y-52035714D01*
X62196428Y-51988095D01*
X62386904Y-51988095D01*
X62482142Y-52035714D01*
X62529761Y-52083333D01*
X62577380Y-52178571D01*
X62577380Y-52369047D01*
X62529761Y-52464285D01*
X62482142Y-52511904D01*
X62386904Y-52559523D01*
X62196428Y-52559523D01*
X62101190Y-52511904D01*
X62053571Y-52464285D01*
X62005952Y-52369047D01*
X62577380Y-53511904D02*
X62577380Y-52940476D01*
X62577380Y-53226190D02*
X61577380Y-53226190D01*
X61720238Y-53130952D01*
X61815476Y-53035714D01*
X61863095Y-52940476D01*
X72212857Y-62502142D02*
X72260476Y-62549761D01*
X72403333Y-62597380D01*
X72498571Y-62597380D01*
X72641428Y-62549761D01*
X72736666Y-62454523D01*
X72784285Y-62359285D01*
X72831904Y-62168809D01*
X72831904Y-62025952D01*
X72784285Y-61835476D01*
X72736666Y-61740238D01*
X72641428Y-61645000D01*
X72498571Y-61597380D01*
X72403333Y-61597380D01*
X72260476Y-61645000D01*
X72212857Y-61692619D01*
X71641428Y-62025952D02*
X71736666Y-61978333D01*
X71784285Y-61930714D01*
X71831904Y-61835476D01*
X71831904Y-61787857D01*
X71784285Y-61692619D01*
X71736666Y-61645000D01*
X71641428Y-61597380D01*
X71450952Y-61597380D01*
X71355714Y-61645000D01*
X71308095Y-61692619D01*
X71260476Y-61787857D01*
X71260476Y-61835476D01*
X71308095Y-61930714D01*
X71355714Y-61978333D01*
X71450952Y-62025952D01*
X71641428Y-62025952D01*
X71736666Y-62073571D01*
X71784285Y-62121190D01*
X71831904Y-62216428D01*
X71831904Y-62406904D01*
X71784285Y-62502142D01*
X71736666Y-62549761D01*
X71641428Y-62597380D01*
X71450952Y-62597380D01*
X71355714Y-62549761D01*
X71308095Y-62502142D01*
X71260476Y-62406904D01*
X71260476Y-62216428D01*
X71308095Y-62121190D01*
X71355714Y-62073571D01*
X71450952Y-62025952D01*
X70403333Y-61930714D02*
X70403333Y-62597380D01*
X70641428Y-61549761D02*
X70879523Y-62264047D01*
X70260476Y-62264047D01*
X61317142Y-60847142D02*
X61364761Y-60799523D01*
X61412380Y-60656666D01*
X61412380Y-60561428D01*
X61364761Y-60418571D01*
X61269523Y-60323333D01*
X61174285Y-60275714D01*
X60983809Y-60228095D01*
X60840952Y-60228095D01*
X60650476Y-60275714D01*
X60555238Y-60323333D01*
X60460000Y-60418571D01*
X60412380Y-60561428D01*
X60412380Y-60656666D01*
X60460000Y-60799523D01*
X60507619Y-60847142D01*
X60840952Y-61418571D02*
X60793333Y-61323333D01*
X60745714Y-61275714D01*
X60650476Y-61228095D01*
X60602857Y-61228095D01*
X60507619Y-61275714D01*
X60460000Y-61323333D01*
X60412380Y-61418571D01*
X60412380Y-61609047D01*
X60460000Y-61704285D01*
X60507619Y-61751904D01*
X60602857Y-61799523D01*
X60650476Y-61799523D01*
X60745714Y-61751904D01*
X60793333Y-61704285D01*
X60840952Y-61609047D01*
X60840952Y-61418571D01*
X60888571Y-61323333D01*
X60936190Y-61275714D01*
X61031428Y-61228095D01*
X61221904Y-61228095D01*
X61317142Y-61275714D01*
X61364761Y-61323333D01*
X61412380Y-61418571D01*
X61412380Y-61609047D01*
X61364761Y-61704285D01*
X61317142Y-61751904D01*
X61221904Y-61799523D01*
X61031428Y-61799523D01*
X60936190Y-61751904D01*
X60888571Y-61704285D01*
X60840952Y-61609047D01*
X60412380Y-62132857D02*
X60412380Y-62751904D01*
X60793333Y-62418571D01*
X60793333Y-62561428D01*
X60840952Y-62656666D01*
X60888571Y-62704285D01*
X60983809Y-62751904D01*
X61221904Y-62751904D01*
X61317142Y-62704285D01*
X61364761Y-62656666D01*
X61412380Y-62561428D01*
X61412380Y-62275714D01*
X61364761Y-62180476D01*
X61317142Y-62132857D01*
X72597142Y-49857142D02*
X72644761Y-49809523D01*
X72692380Y-49666666D01*
X72692380Y-49571428D01*
X72644761Y-49428571D01*
X72549523Y-49333333D01*
X72454285Y-49285714D01*
X72263809Y-49238095D01*
X72120952Y-49238095D01*
X71930476Y-49285714D01*
X71835238Y-49333333D01*
X71740000Y-49428571D01*
X71692380Y-49571428D01*
X71692380Y-49666666D01*
X71740000Y-49809523D01*
X71787619Y-49857142D01*
X72120952Y-50428571D02*
X72073333Y-50333333D01*
X72025714Y-50285714D01*
X71930476Y-50238095D01*
X71882857Y-50238095D01*
X71787619Y-50285714D01*
X71740000Y-50333333D01*
X71692380Y-50428571D01*
X71692380Y-50619047D01*
X71740000Y-50714285D01*
X71787619Y-50761904D01*
X71882857Y-50809523D01*
X71930476Y-50809523D01*
X72025714Y-50761904D01*
X72073333Y-50714285D01*
X72120952Y-50619047D01*
X72120952Y-50428571D01*
X72168571Y-50333333D01*
X72216190Y-50285714D01*
X72311428Y-50238095D01*
X72501904Y-50238095D01*
X72597142Y-50285714D01*
X72644761Y-50333333D01*
X72692380Y-50428571D01*
X72692380Y-50619047D01*
X72644761Y-50714285D01*
X72597142Y-50761904D01*
X72501904Y-50809523D01*
X72311428Y-50809523D01*
X72216190Y-50761904D01*
X72168571Y-50714285D01*
X72120952Y-50619047D01*
X71787619Y-51190476D02*
X71740000Y-51238095D01*
X71692380Y-51333333D01*
X71692380Y-51571428D01*
X71740000Y-51666666D01*
X71787619Y-51714285D01*
X71882857Y-51761904D01*
X71978095Y-51761904D01*
X72120952Y-51714285D01*
X72692380Y-51142857D01*
X72692380Y-51761904D01*
X110214285Y-30452380D02*
X110214285Y-29452380D01*
X109976190Y-29452380D01*
X109833333Y-29500000D01*
X109738095Y-29595238D01*
X109690476Y-29690476D01*
X109642857Y-29880952D01*
X109642857Y-30023809D01*
X109690476Y-30214285D01*
X109738095Y-30309523D01*
X109833333Y-30404761D01*
X109976190Y-30452380D01*
X110214285Y-30452380D01*
X109166666Y-30452380D02*
X108976190Y-30452380D01*
X108880952Y-30404761D01*
X108833333Y-30357142D01*
X108738095Y-30214285D01*
X108690476Y-30023809D01*
X108690476Y-29642857D01*
X108738095Y-29547619D01*
X108785714Y-29500000D01*
X108880952Y-29452380D01*
X109071428Y-29452380D01*
X109166666Y-29500000D01*
X109214285Y-29547619D01*
X109261904Y-29642857D01*
X109261904Y-29880952D01*
X109214285Y-29976190D01*
X109166666Y-30023809D01*
X109071428Y-30071428D01*
X108880952Y-30071428D01*
X108785714Y-30023809D01*
X108738095Y-29976190D01*
X108690476Y-29880952D01*
X108309523Y-29547619D02*
X108261904Y-29500000D01*
X108166666Y-29452380D01*
X107928571Y-29452380D01*
X107833333Y-29500000D01*
X107785714Y-29547619D01*
X107738095Y-29642857D01*
X107738095Y-29738095D01*
X107785714Y-29880952D01*
X108357142Y-30452380D01*
X107738095Y-30452380D01*
X105714285Y-30077380D02*
X105714285Y-29077380D01*
X105476190Y-29077380D01*
X105333333Y-29125000D01*
X105238095Y-29220238D01*
X105190476Y-29315476D01*
X105142857Y-29505952D01*
X105142857Y-29648809D01*
X105190476Y-29839285D01*
X105238095Y-29934523D01*
X105333333Y-30029761D01*
X105476190Y-30077380D01*
X105714285Y-30077380D01*
X104666666Y-30077380D02*
X104476190Y-30077380D01*
X104380952Y-30029761D01*
X104333333Y-29982142D01*
X104238095Y-29839285D01*
X104190476Y-29648809D01*
X104190476Y-29267857D01*
X104238095Y-29172619D01*
X104285714Y-29125000D01*
X104380952Y-29077380D01*
X104571428Y-29077380D01*
X104666666Y-29125000D01*
X104714285Y-29172619D01*
X104761904Y-29267857D01*
X104761904Y-29505952D01*
X104714285Y-29601190D01*
X104666666Y-29648809D01*
X104571428Y-29696428D01*
X104380952Y-29696428D01*
X104285714Y-29648809D01*
X104238095Y-29601190D01*
X104190476Y-29505952D01*
X103238095Y-30077380D02*
X103809523Y-30077380D01*
X103523809Y-30077380D02*
X103523809Y-29077380D01*
X103619047Y-29220238D01*
X103714285Y-29315476D01*
X103809523Y-29363095D01*
X66859047Y-30457142D02*
X66906666Y-30504761D01*
X67049523Y-30552380D01*
X67144761Y-30552380D01*
X67287619Y-30504761D01*
X67382857Y-30409523D01*
X67430476Y-30314285D01*
X67478095Y-30123809D01*
X67478095Y-29980952D01*
X67430476Y-29790476D01*
X67382857Y-29695238D01*
X67287619Y-29600000D01*
X67144761Y-29552380D01*
X67049523Y-29552380D01*
X66906666Y-29600000D01*
X66859047Y-29647619D01*
X66001904Y-29885714D02*
X66001904Y-30552380D01*
X66240000Y-29504761D02*
X66478095Y-30219047D01*
X65859047Y-30219047D01*
X64954285Y-30552380D02*
X65525714Y-30552380D01*
X65240000Y-30552380D02*
X65240000Y-29552380D01*
X65335238Y-29695238D01*
X65430476Y-29790476D01*
X65525714Y-29838095D01*
X64573333Y-29647619D02*
X64525714Y-29600000D01*
X64430476Y-29552380D01*
X64192380Y-29552380D01*
X64097142Y-29600000D01*
X64049523Y-29647619D01*
X64001904Y-29742857D01*
X64001904Y-29838095D01*
X64049523Y-29980952D01*
X64620952Y-30552380D01*
X64001904Y-30552380D01*
X111142857Y-33967142D02*
X111190476Y-34014761D01*
X111333333Y-34062380D01*
X111428571Y-34062380D01*
X111571428Y-34014761D01*
X111666666Y-33919523D01*
X111714285Y-33824285D01*
X111761904Y-33633809D01*
X111761904Y-33490952D01*
X111714285Y-33300476D01*
X111666666Y-33205238D01*
X111571428Y-33110000D01*
X111428571Y-33062380D01*
X111333333Y-33062380D01*
X111190476Y-33110000D01*
X111142857Y-33157619D01*
X110666666Y-34062380D02*
X110476190Y-34062380D01*
X110380952Y-34014761D01*
X110333333Y-33967142D01*
X110238095Y-33824285D01*
X110190476Y-33633809D01*
X110190476Y-33252857D01*
X110238095Y-33157619D01*
X110285714Y-33110000D01*
X110380952Y-33062380D01*
X110571428Y-33062380D01*
X110666666Y-33110000D01*
X110714285Y-33157619D01*
X110761904Y-33252857D01*
X110761904Y-33490952D01*
X110714285Y-33586190D01*
X110666666Y-33633809D01*
X110571428Y-33681428D01*
X110380952Y-33681428D01*
X110285714Y-33633809D01*
X110238095Y-33586190D01*
X110190476Y-33490952D01*
X109714285Y-34062380D02*
X109523809Y-34062380D01*
X109428571Y-34014761D01*
X109380952Y-33967142D01*
X109285714Y-33824285D01*
X109238095Y-33633809D01*
X109238095Y-33252857D01*
X109285714Y-33157619D01*
X109333333Y-33110000D01*
X109428571Y-33062380D01*
X109619047Y-33062380D01*
X109714285Y-33110000D01*
X109761904Y-33157619D01*
X109809523Y-33252857D01*
X109809523Y-33490952D01*
X109761904Y-33586190D01*
X109714285Y-33633809D01*
X109619047Y-33681428D01*
X109428571Y-33681428D01*
X109333333Y-33633809D01*
X109285714Y-33586190D01*
X109238095Y-33490952D01*
X33842857Y-28857142D02*
X33890476Y-28904761D01*
X34033333Y-28952380D01*
X34128571Y-28952380D01*
X34271428Y-28904761D01*
X34366666Y-28809523D01*
X34414285Y-28714285D01*
X34461904Y-28523809D01*
X34461904Y-28380952D01*
X34414285Y-28190476D01*
X34366666Y-28095238D01*
X34271428Y-28000000D01*
X34128571Y-27952380D01*
X34033333Y-27952380D01*
X33890476Y-28000000D01*
X33842857Y-28047619D01*
X33366666Y-28952380D02*
X33176190Y-28952380D01*
X33080952Y-28904761D01*
X33033333Y-28857142D01*
X32938095Y-28714285D01*
X32890476Y-28523809D01*
X32890476Y-28142857D01*
X32938095Y-28047619D01*
X32985714Y-28000000D01*
X33080952Y-27952380D01*
X33271428Y-27952380D01*
X33366666Y-28000000D01*
X33414285Y-28047619D01*
X33461904Y-28142857D01*
X33461904Y-28380952D01*
X33414285Y-28476190D01*
X33366666Y-28523809D01*
X33271428Y-28571428D01*
X33080952Y-28571428D01*
X32985714Y-28523809D01*
X32938095Y-28476190D01*
X32890476Y-28380952D01*
X31938095Y-28952380D02*
X32509523Y-28952380D01*
X32223809Y-28952380D02*
X32223809Y-27952380D01*
X32319047Y-28095238D01*
X32414285Y-28190476D01*
X32509523Y-28238095D01*
M02*
