G04 #@! TF.GenerationSoftware,KiCad,Pcbnew,(5.1.6)-1*
G04 #@! TF.CreationDate,2021-06-05T12:15:54+01:00*
G04 #@! TF.ProjectId,blit-cpu-mk3,626c6974-2d63-4707-952d-6d6b332e6b69,3.00*
G04 #@! TF.SameCoordinates,Original*
G04 #@! TF.FileFunction,Soldermask,Bot*
G04 #@! TF.FilePolarity,Negative*
%FSLAX46Y46*%
G04 Gerber Fmt 4.6, Leading zero omitted, Abs format (unit mm)*
G04 Created by KiCad (PCBNEW (5.1.6)-1) date 2021-06-05 12:15:54*
%MOMM*%
%LPD*%
G01*
G04 APERTURE LIST*
G04 #@! TA.AperFunction,Profile*
%ADD10C,0.050000*%
G04 #@! TD*
%ADD11C,0.100000*%
G04 APERTURE END LIST*
D10*
X122000000Y-102000000D02*
X87000000Y-102000000D01*
X122000000Y-22000000D02*
X122000000Y-102000000D01*
X33200000Y-22000000D02*
X122000000Y-22000000D01*
X22000000Y-102000000D02*
X22000000Y-33200000D01*
X22000000Y-33200000D02*
G75*
G02*
X33200000Y-22000000I11200000J0D01*
G01*
X22000000Y-102000000D02*
X87000000Y-102000000D01*
D11*
G36*
X57673512Y-99198927D02*
G01*
X57822812Y-99228624D01*
X57986784Y-99296544D01*
X58134354Y-99395147D01*
X58259853Y-99520646D01*
X58358456Y-99668216D01*
X58426376Y-99832188D01*
X58461000Y-100006259D01*
X58461000Y-100183741D01*
X58426376Y-100357812D01*
X58358456Y-100521784D01*
X58259853Y-100669354D01*
X58134354Y-100794853D01*
X57986784Y-100893456D01*
X57822812Y-100961376D01*
X57673512Y-100991073D01*
X57648742Y-100996000D01*
X57471258Y-100996000D01*
X57446488Y-100991073D01*
X57297188Y-100961376D01*
X57133216Y-100893456D01*
X56985646Y-100794853D01*
X56860147Y-100669354D01*
X56761544Y-100521784D01*
X56693624Y-100357812D01*
X56659000Y-100183741D01*
X56659000Y-100006259D01*
X56693624Y-99832188D01*
X56761544Y-99668216D01*
X56860147Y-99520646D01*
X56985646Y-99395147D01*
X57133216Y-99296544D01*
X57297188Y-99228624D01*
X57446488Y-99198927D01*
X57471258Y-99194000D01*
X57648742Y-99194000D01*
X57673512Y-99198927D01*
G37*
G36*
X55133512Y-99198927D02*
G01*
X55282812Y-99228624D01*
X55446784Y-99296544D01*
X55594354Y-99395147D01*
X55719853Y-99520646D01*
X55818456Y-99668216D01*
X55886376Y-99832188D01*
X55921000Y-100006259D01*
X55921000Y-100183741D01*
X55886376Y-100357812D01*
X55818456Y-100521784D01*
X55719853Y-100669354D01*
X55594354Y-100794853D01*
X55446784Y-100893456D01*
X55282812Y-100961376D01*
X55133512Y-100991073D01*
X55108742Y-100996000D01*
X54931258Y-100996000D01*
X54906488Y-100991073D01*
X54757188Y-100961376D01*
X54593216Y-100893456D01*
X54445646Y-100794853D01*
X54320147Y-100669354D01*
X54221544Y-100521784D01*
X54153624Y-100357812D01*
X54119000Y-100183741D01*
X54119000Y-100006259D01*
X54153624Y-99832188D01*
X54221544Y-99668216D01*
X54320147Y-99520646D01*
X54445646Y-99395147D01*
X54593216Y-99296544D01*
X54757188Y-99228624D01*
X54906488Y-99198927D01*
X54931258Y-99194000D01*
X55108742Y-99194000D01*
X55133512Y-99198927D01*
G37*
G36*
X24018512Y-99198927D02*
G01*
X24167812Y-99228624D01*
X24331784Y-99296544D01*
X24479354Y-99395147D01*
X24604853Y-99520646D01*
X24703456Y-99668216D01*
X24771376Y-99832188D01*
X24806000Y-100006259D01*
X24806000Y-100183741D01*
X24771376Y-100357812D01*
X24703456Y-100521784D01*
X24604853Y-100669354D01*
X24479354Y-100794853D01*
X24331784Y-100893456D01*
X24167812Y-100961376D01*
X24018512Y-100991073D01*
X23993742Y-100996000D01*
X23816258Y-100996000D01*
X23791488Y-100991073D01*
X23642188Y-100961376D01*
X23478216Y-100893456D01*
X23330646Y-100794853D01*
X23205147Y-100669354D01*
X23106544Y-100521784D01*
X23038624Y-100357812D01*
X23004000Y-100183741D01*
X23004000Y-100006259D01*
X23038624Y-99832188D01*
X23106544Y-99668216D01*
X23205147Y-99520646D01*
X23330646Y-99395147D01*
X23478216Y-99296544D01*
X23642188Y-99228624D01*
X23791488Y-99198927D01*
X23816258Y-99194000D01*
X23993742Y-99194000D01*
X24018512Y-99198927D01*
G37*
G36*
X26558512Y-99198927D02*
G01*
X26707812Y-99228624D01*
X26871784Y-99296544D01*
X27019354Y-99395147D01*
X27144853Y-99520646D01*
X27243456Y-99668216D01*
X27311376Y-99832188D01*
X27346000Y-100006259D01*
X27346000Y-100183741D01*
X27311376Y-100357812D01*
X27243456Y-100521784D01*
X27144853Y-100669354D01*
X27019354Y-100794853D01*
X26871784Y-100893456D01*
X26707812Y-100961376D01*
X26558512Y-100991073D01*
X26533742Y-100996000D01*
X26356258Y-100996000D01*
X26331488Y-100991073D01*
X26182188Y-100961376D01*
X26018216Y-100893456D01*
X25870646Y-100794853D01*
X25745147Y-100669354D01*
X25646544Y-100521784D01*
X25578624Y-100357812D01*
X25544000Y-100183741D01*
X25544000Y-100006259D01*
X25578624Y-99832188D01*
X25646544Y-99668216D01*
X25745147Y-99520646D01*
X25870646Y-99395147D01*
X26018216Y-99296544D01*
X26182188Y-99228624D01*
X26331488Y-99198927D01*
X26356258Y-99194000D01*
X26533742Y-99194000D01*
X26558512Y-99198927D01*
G37*
G36*
X52593512Y-99198927D02*
G01*
X52742812Y-99228624D01*
X52906784Y-99296544D01*
X53054354Y-99395147D01*
X53179853Y-99520646D01*
X53278456Y-99668216D01*
X53346376Y-99832188D01*
X53381000Y-100006259D01*
X53381000Y-100183741D01*
X53346376Y-100357812D01*
X53278456Y-100521784D01*
X53179853Y-100669354D01*
X53054354Y-100794853D01*
X52906784Y-100893456D01*
X52742812Y-100961376D01*
X52593512Y-100991073D01*
X52568742Y-100996000D01*
X52391258Y-100996000D01*
X52366488Y-100991073D01*
X52217188Y-100961376D01*
X52053216Y-100893456D01*
X51905646Y-100794853D01*
X51780147Y-100669354D01*
X51681544Y-100521784D01*
X51613624Y-100357812D01*
X51579000Y-100183741D01*
X51579000Y-100006259D01*
X51613624Y-99832188D01*
X51681544Y-99668216D01*
X51780147Y-99520646D01*
X51905646Y-99395147D01*
X52053216Y-99296544D01*
X52217188Y-99228624D01*
X52366488Y-99198927D01*
X52391258Y-99194000D01*
X52568742Y-99194000D01*
X52593512Y-99198927D01*
G37*
G36*
X50053512Y-99198927D02*
G01*
X50202812Y-99228624D01*
X50366784Y-99296544D01*
X50514354Y-99395147D01*
X50639853Y-99520646D01*
X50738456Y-99668216D01*
X50806376Y-99832188D01*
X50841000Y-100006259D01*
X50841000Y-100183741D01*
X50806376Y-100357812D01*
X50738456Y-100521784D01*
X50639853Y-100669354D01*
X50514354Y-100794853D01*
X50366784Y-100893456D01*
X50202812Y-100961376D01*
X50053512Y-100991073D01*
X50028742Y-100996000D01*
X49851258Y-100996000D01*
X49826488Y-100991073D01*
X49677188Y-100961376D01*
X49513216Y-100893456D01*
X49365646Y-100794853D01*
X49240147Y-100669354D01*
X49141544Y-100521784D01*
X49073624Y-100357812D01*
X49039000Y-100183741D01*
X49039000Y-100006259D01*
X49073624Y-99832188D01*
X49141544Y-99668216D01*
X49240147Y-99520646D01*
X49365646Y-99395147D01*
X49513216Y-99296544D01*
X49677188Y-99228624D01*
X49826488Y-99198927D01*
X49851258Y-99194000D01*
X50028742Y-99194000D01*
X50053512Y-99198927D01*
G37*
G36*
X44973512Y-99198927D02*
G01*
X45122812Y-99228624D01*
X45286784Y-99296544D01*
X45434354Y-99395147D01*
X45559853Y-99520646D01*
X45658456Y-99668216D01*
X45726376Y-99832188D01*
X45761000Y-100006259D01*
X45761000Y-100183741D01*
X45726376Y-100357812D01*
X45658456Y-100521784D01*
X45559853Y-100669354D01*
X45434354Y-100794853D01*
X45286784Y-100893456D01*
X45122812Y-100961376D01*
X44973512Y-100991073D01*
X44948742Y-100996000D01*
X44771258Y-100996000D01*
X44746488Y-100991073D01*
X44597188Y-100961376D01*
X44433216Y-100893456D01*
X44285646Y-100794853D01*
X44160147Y-100669354D01*
X44061544Y-100521784D01*
X43993624Y-100357812D01*
X43959000Y-100183741D01*
X43959000Y-100006259D01*
X43993624Y-99832188D01*
X44061544Y-99668216D01*
X44160147Y-99520646D01*
X44285646Y-99395147D01*
X44433216Y-99296544D01*
X44597188Y-99228624D01*
X44746488Y-99198927D01*
X44771258Y-99194000D01*
X44948742Y-99194000D01*
X44973512Y-99198927D01*
G37*
G36*
X47513512Y-99198927D02*
G01*
X47662812Y-99228624D01*
X47826784Y-99296544D01*
X47974354Y-99395147D01*
X48099853Y-99520646D01*
X48198456Y-99668216D01*
X48266376Y-99832188D01*
X48301000Y-100006259D01*
X48301000Y-100183741D01*
X48266376Y-100357812D01*
X48198456Y-100521784D01*
X48099853Y-100669354D01*
X47974354Y-100794853D01*
X47826784Y-100893456D01*
X47662812Y-100961376D01*
X47513512Y-100991073D01*
X47488742Y-100996000D01*
X47311258Y-100996000D01*
X47286488Y-100991073D01*
X47137188Y-100961376D01*
X46973216Y-100893456D01*
X46825646Y-100794853D01*
X46700147Y-100669354D01*
X46601544Y-100521784D01*
X46533624Y-100357812D01*
X46499000Y-100183741D01*
X46499000Y-100006259D01*
X46533624Y-99832188D01*
X46601544Y-99668216D01*
X46700147Y-99520646D01*
X46825646Y-99395147D01*
X46973216Y-99296544D01*
X47137188Y-99228624D01*
X47286488Y-99198927D01*
X47311258Y-99194000D01*
X47488742Y-99194000D01*
X47513512Y-99198927D01*
G37*
G36*
X37353512Y-99198927D02*
G01*
X37502812Y-99228624D01*
X37666784Y-99296544D01*
X37814354Y-99395147D01*
X37939853Y-99520646D01*
X38038456Y-99668216D01*
X38106376Y-99832188D01*
X38141000Y-100006259D01*
X38141000Y-100183741D01*
X38106376Y-100357812D01*
X38038456Y-100521784D01*
X37939853Y-100669354D01*
X37814354Y-100794853D01*
X37666784Y-100893456D01*
X37502812Y-100961376D01*
X37353512Y-100991073D01*
X37328742Y-100996000D01*
X37151258Y-100996000D01*
X37126488Y-100991073D01*
X36977188Y-100961376D01*
X36813216Y-100893456D01*
X36665646Y-100794853D01*
X36540147Y-100669354D01*
X36441544Y-100521784D01*
X36373624Y-100357812D01*
X36339000Y-100183741D01*
X36339000Y-100006259D01*
X36373624Y-99832188D01*
X36441544Y-99668216D01*
X36540147Y-99520646D01*
X36665646Y-99395147D01*
X36813216Y-99296544D01*
X36977188Y-99228624D01*
X37126488Y-99198927D01*
X37151258Y-99194000D01*
X37328742Y-99194000D01*
X37353512Y-99198927D01*
G37*
G36*
X42433512Y-99198927D02*
G01*
X42582812Y-99228624D01*
X42746784Y-99296544D01*
X42894354Y-99395147D01*
X43019853Y-99520646D01*
X43118456Y-99668216D01*
X43186376Y-99832188D01*
X43221000Y-100006259D01*
X43221000Y-100183741D01*
X43186376Y-100357812D01*
X43118456Y-100521784D01*
X43019853Y-100669354D01*
X42894354Y-100794853D01*
X42746784Y-100893456D01*
X42582812Y-100961376D01*
X42433512Y-100991073D01*
X42408742Y-100996000D01*
X42231258Y-100996000D01*
X42206488Y-100991073D01*
X42057188Y-100961376D01*
X41893216Y-100893456D01*
X41745646Y-100794853D01*
X41620147Y-100669354D01*
X41521544Y-100521784D01*
X41453624Y-100357812D01*
X41419000Y-100183741D01*
X41419000Y-100006259D01*
X41453624Y-99832188D01*
X41521544Y-99668216D01*
X41620147Y-99520646D01*
X41745646Y-99395147D01*
X41893216Y-99296544D01*
X42057188Y-99228624D01*
X42206488Y-99198927D01*
X42231258Y-99194000D01*
X42408742Y-99194000D01*
X42433512Y-99198927D01*
G37*
G36*
X39893512Y-99198927D02*
G01*
X40042812Y-99228624D01*
X40206784Y-99296544D01*
X40354354Y-99395147D01*
X40479853Y-99520646D01*
X40578456Y-99668216D01*
X40646376Y-99832188D01*
X40681000Y-100006259D01*
X40681000Y-100183741D01*
X40646376Y-100357812D01*
X40578456Y-100521784D01*
X40479853Y-100669354D01*
X40354354Y-100794853D01*
X40206784Y-100893456D01*
X40042812Y-100961376D01*
X39893512Y-100991073D01*
X39868742Y-100996000D01*
X39691258Y-100996000D01*
X39666488Y-100991073D01*
X39517188Y-100961376D01*
X39353216Y-100893456D01*
X39205646Y-100794853D01*
X39080147Y-100669354D01*
X38981544Y-100521784D01*
X38913624Y-100357812D01*
X38879000Y-100183741D01*
X38879000Y-100006259D01*
X38913624Y-99832188D01*
X38981544Y-99668216D01*
X39080147Y-99520646D01*
X39205646Y-99395147D01*
X39353216Y-99296544D01*
X39517188Y-99228624D01*
X39666488Y-99198927D01*
X39691258Y-99194000D01*
X39868742Y-99194000D01*
X39893512Y-99198927D01*
G37*
G36*
X32963512Y-99143927D02*
G01*
X33112812Y-99173624D01*
X33276784Y-99241544D01*
X33424354Y-99340147D01*
X33549853Y-99465646D01*
X33648456Y-99613216D01*
X33716376Y-99777188D01*
X33751000Y-99951259D01*
X33751000Y-100128741D01*
X33716376Y-100302812D01*
X33648456Y-100466784D01*
X33549853Y-100614354D01*
X33424354Y-100739853D01*
X33276784Y-100838456D01*
X33112812Y-100906376D01*
X32963512Y-100936073D01*
X32938742Y-100941000D01*
X32761258Y-100941000D01*
X32736488Y-100936073D01*
X32587188Y-100906376D01*
X32423216Y-100838456D01*
X32275646Y-100739853D01*
X32150147Y-100614354D01*
X32051544Y-100466784D01*
X31983624Y-100302812D01*
X31949000Y-100128741D01*
X31949000Y-99951259D01*
X31983624Y-99777188D01*
X32051544Y-99613216D01*
X32150147Y-99465646D01*
X32275646Y-99340147D01*
X32423216Y-99241544D01*
X32587188Y-99173624D01*
X32736488Y-99143927D01*
X32761258Y-99139000D01*
X32938742Y-99139000D01*
X32963512Y-99143927D01*
G37*
G36*
X99101000Y-98951000D02*
G01*
X98299000Y-98951000D01*
X98299000Y-97549000D01*
X99101000Y-97549000D01*
X99101000Y-98951000D01*
G37*
G36*
X97201000Y-98951000D02*
G01*
X96399000Y-98951000D01*
X96399000Y-97549000D01*
X97201000Y-97549000D01*
X97201000Y-98951000D01*
G37*
G36*
X93201000Y-98951000D02*
G01*
X92399000Y-98951000D01*
X92399000Y-97549000D01*
X93201000Y-97549000D01*
X93201000Y-98951000D01*
G37*
G36*
X95101000Y-98951000D02*
G01*
X94299000Y-98951000D01*
X94299000Y-97549000D01*
X95101000Y-97549000D01*
X95101000Y-98951000D01*
G37*
G36*
X89451000Y-98951000D02*
G01*
X88649000Y-98951000D01*
X88649000Y-97549000D01*
X89451000Y-97549000D01*
X89451000Y-98951000D01*
G37*
G36*
X91351000Y-98951000D02*
G01*
X90549000Y-98951000D01*
X90549000Y-97549000D01*
X91351000Y-97549000D01*
X91351000Y-98951000D01*
G37*
G36*
X85451000Y-98951000D02*
G01*
X84649000Y-98951000D01*
X84649000Y-97549000D01*
X85451000Y-97549000D01*
X85451000Y-98951000D01*
G37*
G36*
X87351000Y-98951000D02*
G01*
X86549000Y-98951000D01*
X86549000Y-97549000D01*
X87351000Y-97549000D01*
X87351000Y-98951000D01*
G37*
G36*
X119701000Y-98851000D02*
G01*
X118299000Y-98851000D01*
X118299000Y-98049000D01*
X119701000Y-98049000D01*
X119701000Y-98851000D01*
G37*
G36*
X30751000Y-98601000D02*
G01*
X29349000Y-98601000D01*
X29349000Y-97799000D01*
X30751000Y-97799000D01*
X30751000Y-98601000D01*
G37*
G36*
X42433512Y-96658927D02*
G01*
X42582812Y-96688624D01*
X42746784Y-96756544D01*
X42894354Y-96855147D01*
X43019853Y-96980646D01*
X43118456Y-97128216D01*
X43186376Y-97292188D01*
X43221000Y-97466259D01*
X43221000Y-97643741D01*
X43186376Y-97817812D01*
X43118456Y-97981784D01*
X43019853Y-98129354D01*
X42894354Y-98254853D01*
X42746784Y-98353456D01*
X42582812Y-98421376D01*
X42433512Y-98451073D01*
X42408742Y-98456000D01*
X42231258Y-98456000D01*
X42206488Y-98451073D01*
X42057188Y-98421376D01*
X41893216Y-98353456D01*
X41745646Y-98254853D01*
X41620147Y-98129354D01*
X41521544Y-97981784D01*
X41453624Y-97817812D01*
X41419000Y-97643741D01*
X41419000Y-97466259D01*
X41453624Y-97292188D01*
X41521544Y-97128216D01*
X41620147Y-96980646D01*
X41745646Y-96855147D01*
X41893216Y-96756544D01*
X42057188Y-96688624D01*
X42206488Y-96658927D01*
X42231258Y-96654000D01*
X42408742Y-96654000D01*
X42433512Y-96658927D01*
G37*
G36*
X58461000Y-98456000D02*
G01*
X56659000Y-98456000D01*
X56659000Y-96654000D01*
X58461000Y-96654000D01*
X58461000Y-98456000D01*
G37*
G36*
X55133512Y-96658927D02*
G01*
X55282812Y-96688624D01*
X55446784Y-96756544D01*
X55594354Y-96855147D01*
X55719853Y-96980646D01*
X55818456Y-97128216D01*
X55886376Y-97292188D01*
X55921000Y-97466259D01*
X55921000Y-97643741D01*
X55886376Y-97817812D01*
X55818456Y-97981784D01*
X55719853Y-98129354D01*
X55594354Y-98254853D01*
X55446784Y-98353456D01*
X55282812Y-98421376D01*
X55133512Y-98451073D01*
X55108742Y-98456000D01*
X54931258Y-98456000D01*
X54906488Y-98451073D01*
X54757188Y-98421376D01*
X54593216Y-98353456D01*
X54445646Y-98254853D01*
X54320147Y-98129354D01*
X54221544Y-97981784D01*
X54153624Y-97817812D01*
X54119000Y-97643741D01*
X54119000Y-97466259D01*
X54153624Y-97292188D01*
X54221544Y-97128216D01*
X54320147Y-96980646D01*
X54445646Y-96855147D01*
X54593216Y-96756544D01*
X54757188Y-96688624D01*
X54906488Y-96658927D01*
X54931258Y-96654000D01*
X55108742Y-96654000D01*
X55133512Y-96658927D01*
G37*
G36*
X52593512Y-96658927D02*
G01*
X52742812Y-96688624D01*
X52906784Y-96756544D01*
X53054354Y-96855147D01*
X53179853Y-96980646D01*
X53278456Y-97128216D01*
X53346376Y-97292188D01*
X53381000Y-97466259D01*
X53381000Y-97643741D01*
X53346376Y-97817812D01*
X53278456Y-97981784D01*
X53179853Y-98129354D01*
X53054354Y-98254853D01*
X52906784Y-98353456D01*
X52742812Y-98421376D01*
X52593512Y-98451073D01*
X52568742Y-98456000D01*
X52391258Y-98456000D01*
X52366488Y-98451073D01*
X52217188Y-98421376D01*
X52053216Y-98353456D01*
X51905646Y-98254853D01*
X51780147Y-98129354D01*
X51681544Y-97981784D01*
X51613624Y-97817812D01*
X51579000Y-97643741D01*
X51579000Y-97466259D01*
X51613624Y-97292188D01*
X51681544Y-97128216D01*
X51780147Y-96980646D01*
X51905646Y-96855147D01*
X52053216Y-96756544D01*
X52217188Y-96688624D01*
X52366488Y-96658927D01*
X52391258Y-96654000D01*
X52568742Y-96654000D01*
X52593512Y-96658927D01*
G37*
G36*
X24018512Y-96658927D02*
G01*
X24167812Y-96688624D01*
X24331784Y-96756544D01*
X24479354Y-96855147D01*
X24604853Y-96980646D01*
X24703456Y-97128216D01*
X24771376Y-97292188D01*
X24806000Y-97466259D01*
X24806000Y-97643741D01*
X24771376Y-97817812D01*
X24703456Y-97981784D01*
X24604853Y-98129354D01*
X24479354Y-98254853D01*
X24331784Y-98353456D01*
X24167812Y-98421376D01*
X24018512Y-98451073D01*
X23993742Y-98456000D01*
X23816258Y-98456000D01*
X23791488Y-98451073D01*
X23642188Y-98421376D01*
X23478216Y-98353456D01*
X23330646Y-98254853D01*
X23205147Y-98129354D01*
X23106544Y-97981784D01*
X23038624Y-97817812D01*
X23004000Y-97643741D01*
X23004000Y-97466259D01*
X23038624Y-97292188D01*
X23106544Y-97128216D01*
X23205147Y-96980646D01*
X23330646Y-96855147D01*
X23478216Y-96756544D01*
X23642188Y-96688624D01*
X23791488Y-96658927D01*
X23816258Y-96654000D01*
X23993742Y-96654000D01*
X24018512Y-96658927D01*
G37*
G36*
X26558512Y-96658927D02*
G01*
X26707812Y-96688624D01*
X26871784Y-96756544D01*
X27019354Y-96855147D01*
X27144853Y-96980646D01*
X27243456Y-97128216D01*
X27311376Y-97292188D01*
X27346000Y-97466259D01*
X27346000Y-97643741D01*
X27311376Y-97817812D01*
X27243456Y-97981784D01*
X27144853Y-98129354D01*
X27019354Y-98254853D01*
X26871784Y-98353456D01*
X26707812Y-98421376D01*
X26558512Y-98451073D01*
X26533742Y-98456000D01*
X26356258Y-98456000D01*
X26331488Y-98451073D01*
X26182188Y-98421376D01*
X26018216Y-98353456D01*
X25870646Y-98254853D01*
X25745147Y-98129354D01*
X25646544Y-97981784D01*
X25578624Y-97817812D01*
X25544000Y-97643741D01*
X25544000Y-97466259D01*
X25578624Y-97292188D01*
X25646544Y-97128216D01*
X25745147Y-96980646D01*
X25870646Y-96855147D01*
X26018216Y-96756544D01*
X26182188Y-96688624D01*
X26331488Y-96658927D01*
X26356258Y-96654000D01*
X26533742Y-96654000D01*
X26558512Y-96658927D01*
G37*
G36*
X37353512Y-96658927D02*
G01*
X37502812Y-96688624D01*
X37666784Y-96756544D01*
X37814354Y-96855147D01*
X37939853Y-96980646D01*
X38038456Y-97128216D01*
X38106376Y-97292188D01*
X38141000Y-97466259D01*
X38141000Y-97643741D01*
X38106376Y-97817812D01*
X38038456Y-97981784D01*
X37939853Y-98129354D01*
X37814354Y-98254853D01*
X37666784Y-98353456D01*
X37502812Y-98421376D01*
X37353512Y-98451073D01*
X37328742Y-98456000D01*
X37151258Y-98456000D01*
X37126488Y-98451073D01*
X36977188Y-98421376D01*
X36813216Y-98353456D01*
X36665646Y-98254853D01*
X36540147Y-98129354D01*
X36441544Y-97981784D01*
X36373624Y-97817812D01*
X36339000Y-97643741D01*
X36339000Y-97466259D01*
X36373624Y-97292188D01*
X36441544Y-97128216D01*
X36540147Y-96980646D01*
X36665646Y-96855147D01*
X36813216Y-96756544D01*
X36977188Y-96688624D01*
X37126488Y-96658927D01*
X37151258Y-96654000D01*
X37328742Y-96654000D01*
X37353512Y-96658927D01*
G37*
G36*
X44973512Y-96658927D02*
G01*
X45122812Y-96688624D01*
X45286784Y-96756544D01*
X45434354Y-96855147D01*
X45559853Y-96980646D01*
X45658456Y-97128216D01*
X45726376Y-97292188D01*
X45761000Y-97466259D01*
X45761000Y-97643741D01*
X45726376Y-97817812D01*
X45658456Y-97981784D01*
X45559853Y-98129354D01*
X45434354Y-98254853D01*
X45286784Y-98353456D01*
X45122812Y-98421376D01*
X44973512Y-98451073D01*
X44948742Y-98456000D01*
X44771258Y-98456000D01*
X44746488Y-98451073D01*
X44597188Y-98421376D01*
X44433216Y-98353456D01*
X44285646Y-98254853D01*
X44160147Y-98129354D01*
X44061544Y-97981784D01*
X43993624Y-97817812D01*
X43959000Y-97643741D01*
X43959000Y-97466259D01*
X43993624Y-97292188D01*
X44061544Y-97128216D01*
X44160147Y-96980646D01*
X44285646Y-96855147D01*
X44433216Y-96756544D01*
X44597188Y-96688624D01*
X44746488Y-96658927D01*
X44771258Y-96654000D01*
X44948742Y-96654000D01*
X44973512Y-96658927D01*
G37*
G36*
X39893512Y-96658927D02*
G01*
X40042812Y-96688624D01*
X40206784Y-96756544D01*
X40354354Y-96855147D01*
X40479853Y-96980646D01*
X40578456Y-97128216D01*
X40646376Y-97292188D01*
X40681000Y-97466259D01*
X40681000Y-97643741D01*
X40646376Y-97817812D01*
X40578456Y-97981784D01*
X40479853Y-98129354D01*
X40354354Y-98254853D01*
X40206784Y-98353456D01*
X40042812Y-98421376D01*
X39893512Y-98451073D01*
X39868742Y-98456000D01*
X39691258Y-98456000D01*
X39666488Y-98451073D01*
X39517188Y-98421376D01*
X39353216Y-98353456D01*
X39205646Y-98254853D01*
X39080147Y-98129354D01*
X38981544Y-97981784D01*
X38913624Y-97817812D01*
X38879000Y-97643741D01*
X38879000Y-97466259D01*
X38913624Y-97292188D01*
X38981544Y-97128216D01*
X39080147Y-96980646D01*
X39205646Y-96855147D01*
X39353216Y-96756544D01*
X39517188Y-96688624D01*
X39666488Y-96658927D01*
X39691258Y-96654000D01*
X39868742Y-96654000D01*
X39893512Y-96658927D01*
G37*
G36*
X47513512Y-96658927D02*
G01*
X47662812Y-96688624D01*
X47826784Y-96756544D01*
X47974354Y-96855147D01*
X48099853Y-96980646D01*
X48198456Y-97128216D01*
X48266376Y-97292188D01*
X48301000Y-97466259D01*
X48301000Y-97643741D01*
X48266376Y-97817812D01*
X48198456Y-97981784D01*
X48099853Y-98129354D01*
X47974354Y-98254853D01*
X47826784Y-98353456D01*
X47662812Y-98421376D01*
X47513512Y-98451073D01*
X47488742Y-98456000D01*
X47311258Y-98456000D01*
X47286488Y-98451073D01*
X47137188Y-98421376D01*
X46973216Y-98353456D01*
X46825646Y-98254853D01*
X46700147Y-98129354D01*
X46601544Y-97981784D01*
X46533624Y-97817812D01*
X46499000Y-97643741D01*
X46499000Y-97466259D01*
X46533624Y-97292188D01*
X46601544Y-97128216D01*
X46700147Y-96980646D01*
X46825646Y-96855147D01*
X46973216Y-96756544D01*
X47137188Y-96688624D01*
X47286488Y-96658927D01*
X47311258Y-96654000D01*
X47488742Y-96654000D01*
X47513512Y-96658927D01*
G37*
G36*
X50053512Y-96658927D02*
G01*
X50202812Y-96688624D01*
X50366784Y-96756544D01*
X50514354Y-96855147D01*
X50639853Y-96980646D01*
X50738456Y-97128216D01*
X50806376Y-97292188D01*
X50841000Y-97466259D01*
X50841000Y-97643741D01*
X50806376Y-97817812D01*
X50738456Y-97981784D01*
X50639853Y-98129354D01*
X50514354Y-98254853D01*
X50366784Y-98353456D01*
X50202812Y-98421376D01*
X50053512Y-98451073D01*
X50028742Y-98456000D01*
X49851258Y-98456000D01*
X49826488Y-98451073D01*
X49677188Y-98421376D01*
X49513216Y-98353456D01*
X49365646Y-98254853D01*
X49240147Y-98129354D01*
X49141544Y-97981784D01*
X49073624Y-97817812D01*
X49039000Y-97643741D01*
X49039000Y-97466259D01*
X49073624Y-97292188D01*
X49141544Y-97128216D01*
X49240147Y-96980646D01*
X49365646Y-96855147D01*
X49513216Y-96756544D01*
X49677188Y-96688624D01*
X49826488Y-96658927D01*
X49851258Y-96654000D01*
X50028742Y-96654000D01*
X50053512Y-96658927D01*
G37*
G36*
X33751000Y-98401000D02*
G01*
X31949000Y-98401000D01*
X31949000Y-96599000D01*
X33751000Y-96599000D01*
X33751000Y-98401000D01*
G37*
G36*
X109151000Y-97276000D02*
G01*
X108049000Y-97276000D01*
X108049000Y-95924000D01*
X109151000Y-95924000D01*
X109151000Y-97276000D01*
G37*
G36*
X107151000Y-97276000D02*
G01*
X106049000Y-97276000D01*
X106049000Y-95924000D01*
X107151000Y-95924000D01*
X107151000Y-97276000D01*
G37*
G36*
X117751000Y-97276000D02*
G01*
X116649000Y-97276000D01*
X116649000Y-95924000D01*
X117751000Y-95924000D01*
X117751000Y-97276000D01*
G37*
G36*
X115751000Y-97276000D02*
G01*
X114649000Y-97276000D01*
X114649000Y-95924000D01*
X115751000Y-95924000D01*
X115751000Y-97276000D01*
G37*
G36*
X100351000Y-97076000D02*
G01*
X99249000Y-97076000D01*
X99249000Y-95724000D01*
X100351000Y-95724000D01*
X100351000Y-97076000D01*
G37*
G36*
X102351000Y-97076000D02*
G01*
X101249000Y-97076000D01*
X101249000Y-95724000D01*
X102351000Y-95724000D01*
X102351000Y-97076000D01*
G37*
G36*
X119701000Y-96951000D02*
G01*
X118299000Y-96951000D01*
X118299000Y-96149000D01*
X119701000Y-96149000D01*
X119701000Y-96951000D01*
G37*
G36*
X30751000Y-96701000D02*
G01*
X29349000Y-96701000D01*
X29349000Y-95899000D01*
X30751000Y-95899000D01*
X30751000Y-96701000D01*
G37*
G36*
X26558512Y-94118927D02*
G01*
X26707812Y-94148624D01*
X26871784Y-94216544D01*
X27019354Y-94315147D01*
X27144853Y-94440646D01*
X27243456Y-94588216D01*
X27311376Y-94752188D01*
X27346000Y-94926259D01*
X27346000Y-95103741D01*
X27311376Y-95277812D01*
X27243456Y-95441784D01*
X27144853Y-95589354D01*
X27019354Y-95714853D01*
X26871784Y-95813456D01*
X26707812Y-95881376D01*
X26558512Y-95911073D01*
X26533742Y-95916000D01*
X26356258Y-95916000D01*
X26331488Y-95911073D01*
X26182188Y-95881376D01*
X26018216Y-95813456D01*
X25870646Y-95714853D01*
X25745147Y-95589354D01*
X25646544Y-95441784D01*
X25578624Y-95277812D01*
X25544000Y-95103741D01*
X25544000Y-94926259D01*
X25578624Y-94752188D01*
X25646544Y-94588216D01*
X25745147Y-94440646D01*
X25870646Y-94315147D01*
X26018216Y-94216544D01*
X26182188Y-94148624D01*
X26331488Y-94118927D01*
X26356258Y-94114000D01*
X26533742Y-94114000D01*
X26558512Y-94118927D01*
G37*
G36*
X24018512Y-94118927D02*
G01*
X24167812Y-94148624D01*
X24331784Y-94216544D01*
X24479354Y-94315147D01*
X24604853Y-94440646D01*
X24703456Y-94588216D01*
X24771376Y-94752188D01*
X24806000Y-94926259D01*
X24806000Y-95103741D01*
X24771376Y-95277812D01*
X24703456Y-95441784D01*
X24604853Y-95589354D01*
X24479354Y-95714853D01*
X24331784Y-95813456D01*
X24167812Y-95881376D01*
X24018512Y-95911073D01*
X23993742Y-95916000D01*
X23816258Y-95916000D01*
X23791488Y-95911073D01*
X23642188Y-95881376D01*
X23478216Y-95813456D01*
X23330646Y-95714853D01*
X23205147Y-95589354D01*
X23106544Y-95441784D01*
X23038624Y-95277812D01*
X23004000Y-95103741D01*
X23004000Y-94926259D01*
X23038624Y-94752188D01*
X23106544Y-94588216D01*
X23205147Y-94440646D01*
X23330646Y-94315147D01*
X23478216Y-94216544D01*
X23642188Y-94148624D01*
X23791488Y-94118927D01*
X23816258Y-94114000D01*
X23993742Y-94114000D01*
X24018512Y-94118927D01*
G37*
G36*
X62975000Y-95233400D02*
G01*
X62173000Y-95233400D01*
X62173000Y-93831400D01*
X62975000Y-93831400D01*
X62975000Y-95233400D01*
G37*
G36*
X61075000Y-95233400D02*
G01*
X60273000Y-95233400D01*
X60273000Y-93831400D01*
X61075000Y-93831400D01*
X61075000Y-95233400D01*
G37*
G36*
X38839000Y-94477000D02*
G01*
X35637000Y-94477000D01*
X35637000Y-92775000D01*
X38839000Y-92775000D01*
X38839000Y-94477000D01*
G37*
G36*
X55349000Y-94477000D02*
G01*
X52147000Y-94477000D01*
X52147000Y-92775000D01*
X55349000Y-92775000D01*
X55349000Y-94477000D01*
G37*
G36*
X110676000Y-93551000D02*
G01*
X109324000Y-93551000D01*
X109324000Y-92449000D01*
X110676000Y-92449000D01*
X110676000Y-93551000D01*
G37*
G36*
X62949600Y-93404600D02*
G01*
X62147600Y-93404600D01*
X62147600Y-92002600D01*
X62949600Y-92002600D01*
X62949600Y-93404600D01*
G37*
G36*
X61049600Y-93404600D02*
G01*
X60247600Y-93404600D01*
X60247600Y-92002600D01*
X61049600Y-92002600D01*
X61049600Y-93404600D01*
G37*
G36*
X26558512Y-91578927D02*
G01*
X26707812Y-91608624D01*
X26871784Y-91676544D01*
X27019354Y-91775147D01*
X27144853Y-91900646D01*
X27243456Y-92048216D01*
X27311376Y-92212188D01*
X27346000Y-92386259D01*
X27346000Y-92563741D01*
X27311376Y-92737812D01*
X27243456Y-92901784D01*
X27144853Y-93049354D01*
X27019354Y-93174853D01*
X26871784Y-93273456D01*
X26707812Y-93341376D01*
X26558512Y-93371073D01*
X26533742Y-93376000D01*
X26356258Y-93376000D01*
X26331488Y-93371073D01*
X26182188Y-93341376D01*
X26018216Y-93273456D01*
X25870646Y-93174853D01*
X25745147Y-93049354D01*
X25646544Y-92901784D01*
X25578624Y-92737812D01*
X25544000Y-92563741D01*
X25544000Y-92386259D01*
X25578624Y-92212188D01*
X25646544Y-92048216D01*
X25745147Y-91900646D01*
X25870646Y-91775147D01*
X26018216Y-91676544D01*
X26182188Y-91608624D01*
X26331488Y-91578927D01*
X26356258Y-91574000D01*
X26533742Y-91574000D01*
X26558512Y-91578927D01*
G37*
G36*
X24018512Y-91578927D02*
G01*
X24167812Y-91608624D01*
X24331784Y-91676544D01*
X24479354Y-91775147D01*
X24604853Y-91900646D01*
X24703456Y-92048216D01*
X24771376Y-92212188D01*
X24806000Y-92386259D01*
X24806000Y-92563741D01*
X24771376Y-92737812D01*
X24703456Y-92901784D01*
X24604853Y-93049354D01*
X24479354Y-93174853D01*
X24331784Y-93273456D01*
X24167812Y-93341376D01*
X24018512Y-93371073D01*
X23993742Y-93376000D01*
X23816258Y-93376000D01*
X23791488Y-93371073D01*
X23642188Y-93341376D01*
X23478216Y-93273456D01*
X23330646Y-93174853D01*
X23205147Y-93049354D01*
X23106544Y-92901784D01*
X23038624Y-92737812D01*
X23004000Y-92563741D01*
X23004000Y-92386259D01*
X23038624Y-92212188D01*
X23106544Y-92048216D01*
X23205147Y-91900646D01*
X23330646Y-91775147D01*
X23478216Y-91676544D01*
X23642188Y-91608624D01*
X23791488Y-91578927D01*
X23816258Y-91574000D01*
X23993742Y-91574000D01*
X24018512Y-91578927D01*
G37*
G36*
X119701000Y-92801000D02*
G01*
X118299000Y-92801000D01*
X118299000Y-91999000D01*
X119701000Y-91999000D01*
X119701000Y-92801000D01*
G37*
G36*
X101676000Y-92351000D02*
G01*
X100324000Y-92351000D01*
X100324000Y-91249000D01*
X101676000Y-91249000D01*
X101676000Y-92351000D01*
G37*
G36*
X38839000Y-91937000D02*
G01*
X35637000Y-91937000D01*
X35637000Y-90235000D01*
X38839000Y-90235000D01*
X38839000Y-91937000D01*
G37*
G36*
X55349000Y-91937000D02*
G01*
X52147000Y-91937000D01*
X52147000Y-90235000D01*
X55349000Y-90235000D01*
X55349000Y-91937000D01*
G37*
G36*
X62949600Y-91575800D02*
G01*
X62147600Y-91575800D01*
X62147600Y-90173800D01*
X62949600Y-90173800D01*
X62949600Y-91575800D01*
G37*
G36*
X61049600Y-91575800D02*
G01*
X60247600Y-91575800D01*
X60247600Y-90173800D01*
X61049600Y-90173800D01*
X61049600Y-91575800D01*
G37*
G36*
X110676000Y-91551000D02*
G01*
X109324000Y-91551000D01*
X109324000Y-90449000D01*
X110676000Y-90449000D01*
X110676000Y-91551000D01*
G37*
G36*
X117801000Y-91176000D02*
G01*
X116699000Y-91176000D01*
X116699000Y-89824000D01*
X117801000Y-89824000D01*
X117801000Y-91176000D01*
G37*
G36*
X115801000Y-91176000D02*
G01*
X114699000Y-91176000D01*
X114699000Y-89824000D01*
X115801000Y-89824000D01*
X115801000Y-91176000D01*
G37*
G36*
X119701000Y-90901000D02*
G01*
X118299000Y-90901000D01*
X118299000Y-90099000D01*
X119701000Y-90099000D01*
X119701000Y-90901000D01*
G37*
G36*
X26558512Y-89038927D02*
G01*
X26707812Y-89068624D01*
X26871784Y-89136544D01*
X27019354Y-89235147D01*
X27144853Y-89360646D01*
X27243456Y-89508216D01*
X27311376Y-89672188D01*
X27346000Y-89846259D01*
X27346000Y-90023741D01*
X27311376Y-90197812D01*
X27243456Y-90361784D01*
X27144853Y-90509354D01*
X27019354Y-90634853D01*
X26871784Y-90733456D01*
X26707812Y-90801376D01*
X26558512Y-90831073D01*
X26533742Y-90836000D01*
X26356258Y-90836000D01*
X26331488Y-90831073D01*
X26182188Y-90801376D01*
X26018216Y-90733456D01*
X25870646Y-90634853D01*
X25745147Y-90509354D01*
X25646544Y-90361784D01*
X25578624Y-90197812D01*
X25544000Y-90023741D01*
X25544000Y-89846259D01*
X25578624Y-89672188D01*
X25646544Y-89508216D01*
X25745147Y-89360646D01*
X25870646Y-89235147D01*
X26018216Y-89136544D01*
X26182188Y-89068624D01*
X26331488Y-89038927D01*
X26356258Y-89034000D01*
X26533742Y-89034000D01*
X26558512Y-89038927D01*
G37*
G36*
X24018512Y-89038927D02*
G01*
X24167812Y-89068624D01*
X24331784Y-89136544D01*
X24479354Y-89235147D01*
X24604853Y-89360646D01*
X24703456Y-89508216D01*
X24771376Y-89672188D01*
X24806000Y-89846259D01*
X24806000Y-90023741D01*
X24771376Y-90197812D01*
X24703456Y-90361784D01*
X24604853Y-90509354D01*
X24479354Y-90634853D01*
X24331784Y-90733456D01*
X24167812Y-90801376D01*
X24018512Y-90831073D01*
X23993742Y-90836000D01*
X23816258Y-90836000D01*
X23791488Y-90831073D01*
X23642188Y-90801376D01*
X23478216Y-90733456D01*
X23330646Y-90634853D01*
X23205147Y-90509354D01*
X23106544Y-90361784D01*
X23038624Y-90197812D01*
X23004000Y-90023741D01*
X23004000Y-89846259D01*
X23038624Y-89672188D01*
X23106544Y-89508216D01*
X23205147Y-89360646D01*
X23330646Y-89235147D01*
X23478216Y-89136544D01*
X23642188Y-89068624D01*
X23791488Y-89038927D01*
X23816258Y-89034000D01*
X23993742Y-89034000D01*
X24018512Y-89038927D01*
G37*
G36*
X101676000Y-90351000D02*
G01*
X100324000Y-90351000D01*
X100324000Y-89249000D01*
X101676000Y-89249000D01*
X101676000Y-90351000D01*
G37*
G36*
X62949600Y-89747000D02*
G01*
X62147600Y-89747000D01*
X62147600Y-88345000D01*
X62949600Y-88345000D01*
X62949600Y-89747000D01*
G37*
G36*
X61049600Y-89747000D02*
G01*
X60247600Y-89747000D01*
X60247600Y-88345000D01*
X61049600Y-88345000D01*
X61049600Y-89747000D01*
G37*
G36*
X55349000Y-89397000D02*
G01*
X52147000Y-89397000D01*
X52147000Y-87695000D01*
X55349000Y-87695000D01*
X55349000Y-89397000D01*
G37*
G36*
X38839000Y-89397000D02*
G01*
X35637000Y-89397000D01*
X35637000Y-87695000D01*
X38839000Y-87695000D01*
X38839000Y-89397000D01*
G37*
G36*
X24018512Y-86498927D02*
G01*
X24167812Y-86528624D01*
X24331784Y-86596544D01*
X24479354Y-86695147D01*
X24604853Y-86820646D01*
X24703456Y-86968216D01*
X24771376Y-87132188D01*
X24806000Y-87306259D01*
X24806000Y-87483741D01*
X24771376Y-87657812D01*
X24703456Y-87821784D01*
X24604853Y-87969354D01*
X24479354Y-88094853D01*
X24331784Y-88193456D01*
X24167812Y-88261376D01*
X24018512Y-88291073D01*
X23993742Y-88296000D01*
X23816258Y-88296000D01*
X23791488Y-88291073D01*
X23642188Y-88261376D01*
X23478216Y-88193456D01*
X23330646Y-88094853D01*
X23205147Y-87969354D01*
X23106544Y-87821784D01*
X23038624Y-87657812D01*
X23004000Y-87483741D01*
X23004000Y-87306259D01*
X23038624Y-87132188D01*
X23106544Y-86968216D01*
X23205147Y-86820646D01*
X23330646Y-86695147D01*
X23478216Y-86596544D01*
X23642188Y-86528624D01*
X23791488Y-86498927D01*
X23816258Y-86494000D01*
X23993742Y-86494000D01*
X24018512Y-86498927D01*
G37*
G36*
X26558512Y-86498927D02*
G01*
X26707812Y-86528624D01*
X26871784Y-86596544D01*
X27019354Y-86695147D01*
X27144853Y-86820646D01*
X27243456Y-86968216D01*
X27311376Y-87132188D01*
X27346000Y-87306259D01*
X27346000Y-87483741D01*
X27311376Y-87657812D01*
X27243456Y-87821784D01*
X27144853Y-87969354D01*
X27019354Y-88094853D01*
X26871784Y-88193456D01*
X26707812Y-88261376D01*
X26558512Y-88291073D01*
X26533742Y-88296000D01*
X26356258Y-88296000D01*
X26331488Y-88291073D01*
X26182188Y-88261376D01*
X26018216Y-88193456D01*
X25870646Y-88094853D01*
X25745147Y-87969354D01*
X25646544Y-87821784D01*
X25578624Y-87657812D01*
X25544000Y-87483741D01*
X25544000Y-87306259D01*
X25578624Y-87132188D01*
X25646544Y-86968216D01*
X25745147Y-86820646D01*
X25870646Y-86695147D01*
X26018216Y-86596544D01*
X26182188Y-86528624D01*
X26331488Y-86498927D01*
X26356258Y-86494000D01*
X26533742Y-86494000D01*
X26558512Y-86498927D01*
G37*
G36*
X61049600Y-87918200D02*
G01*
X60247600Y-87918200D01*
X60247600Y-86516200D01*
X61049600Y-86516200D01*
X61049600Y-87918200D01*
G37*
G36*
X62949600Y-87918200D02*
G01*
X62147600Y-87918200D01*
X62147600Y-86516200D01*
X62949600Y-86516200D01*
X62949600Y-87918200D01*
G37*
G36*
X38839000Y-86857000D02*
G01*
X35637000Y-86857000D01*
X35637000Y-85155000D01*
X38839000Y-85155000D01*
X38839000Y-86857000D01*
G37*
G36*
X55349000Y-86857000D02*
G01*
X52147000Y-86857000D01*
X52147000Y-85155000D01*
X55349000Y-85155000D01*
X55349000Y-86857000D01*
G37*
G36*
X62949600Y-86089400D02*
G01*
X62147600Y-86089400D01*
X62147600Y-84687400D01*
X62949600Y-84687400D01*
X62949600Y-86089400D01*
G37*
G36*
X61049600Y-86089400D02*
G01*
X60247600Y-86089400D01*
X60247600Y-84687400D01*
X61049600Y-84687400D01*
X61049600Y-86089400D01*
G37*
G36*
X26558512Y-83958927D02*
G01*
X26707812Y-83988624D01*
X26871784Y-84056544D01*
X27019354Y-84155147D01*
X27144853Y-84280646D01*
X27243456Y-84428216D01*
X27311376Y-84592188D01*
X27346000Y-84766259D01*
X27346000Y-84943741D01*
X27311376Y-85117812D01*
X27243456Y-85281784D01*
X27144853Y-85429354D01*
X27019354Y-85554853D01*
X26871784Y-85653456D01*
X26707812Y-85721376D01*
X26558512Y-85751073D01*
X26533742Y-85756000D01*
X26356258Y-85756000D01*
X26331488Y-85751073D01*
X26182188Y-85721376D01*
X26018216Y-85653456D01*
X25870646Y-85554853D01*
X25745147Y-85429354D01*
X25646544Y-85281784D01*
X25578624Y-85117812D01*
X25544000Y-84943741D01*
X25544000Y-84766259D01*
X25578624Y-84592188D01*
X25646544Y-84428216D01*
X25745147Y-84280646D01*
X25870646Y-84155147D01*
X26018216Y-84056544D01*
X26182188Y-83988624D01*
X26331488Y-83958927D01*
X26356258Y-83954000D01*
X26533742Y-83954000D01*
X26558512Y-83958927D01*
G37*
G36*
X24018512Y-83958927D02*
G01*
X24167812Y-83988624D01*
X24331784Y-84056544D01*
X24479354Y-84155147D01*
X24604853Y-84280646D01*
X24703456Y-84428216D01*
X24771376Y-84592188D01*
X24806000Y-84766259D01*
X24806000Y-84943741D01*
X24771376Y-85117812D01*
X24703456Y-85281784D01*
X24604853Y-85429354D01*
X24479354Y-85554853D01*
X24331784Y-85653456D01*
X24167812Y-85721376D01*
X24018512Y-85751073D01*
X23993742Y-85756000D01*
X23816258Y-85756000D01*
X23791488Y-85751073D01*
X23642188Y-85721376D01*
X23478216Y-85653456D01*
X23330646Y-85554853D01*
X23205147Y-85429354D01*
X23106544Y-85281784D01*
X23038624Y-85117812D01*
X23004000Y-84943741D01*
X23004000Y-84766259D01*
X23038624Y-84592188D01*
X23106544Y-84428216D01*
X23205147Y-84280646D01*
X23330646Y-84155147D01*
X23478216Y-84056544D01*
X23642188Y-83988624D01*
X23791488Y-83958927D01*
X23816258Y-83954000D01*
X23993742Y-83954000D01*
X24018512Y-83958927D01*
G37*
G36*
X55349000Y-84317000D02*
G01*
X52147000Y-84317000D01*
X52147000Y-82615000D01*
X55349000Y-82615000D01*
X55349000Y-84317000D01*
G37*
G36*
X38839000Y-84317000D02*
G01*
X35637000Y-84317000D01*
X35637000Y-82615000D01*
X38839000Y-82615000D01*
X38839000Y-84317000D01*
G37*
G36*
X62949600Y-84235200D02*
G01*
X62147600Y-84235200D01*
X62147600Y-82833200D01*
X62949600Y-82833200D01*
X62949600Y-84235200D01*
G37*
G36*
X61049600Y-84235200D02*
G01*
X60247600Y-84235200D01*
X60247600Y-82833200D01*
X61049600Y-82833200D01*
X61049600Y-84235200D01*
G37*
G36*
X26558512Y-81418927D02*
G01*
X26707812Y-81448624D01*
X26871784Y-81516544D01*
X27019354Y-81615147D01*
X27144853Y-81740646D01*
X27243456Y-81888216D01*
X27311376Y-82052188D01*
X27346000Y-82226259D01*
X27346000Y-82403741D01*
X27311376Y-82577812D01*
X27243456Y-82741784D01*
X27144853Y-82889354D01*
X27019354Y-83014853D01*
X26871784Y-83113456D01*
X26707812Y-83181376D01*
X26558512Y-83211073D01*
X26533742Y-83216000D01*
X26356258Y-83216000D01*
X26331488Y-83211073D01*
X26182188Y-83181376D01*
X26018216Y-83113456D01*
X25870646Y-83014853D01*
X25745147Y-82889354D01*
X25646544Y-82741784D01*
X25578624Y-82577812D01*
X25544000Y-82403741D01*
X25544000Y-82226259D01*
X25578624Y-82052188D01*
X25646544Y-81888216D01*
X25745147Y-81740646D01*
X25870646Y-81615147D01*
X26018216Y-81516544D01*
X26182188Y-81448624D01*
X26331488Y-81418927D01*
X26356258Y-81414000D01*
X26533742Y-81414000D01*
X26558512Y-81418927D01*
G37*
G36*
X24018512Y-81418927D02*
G01*
X24167812Y-81448624D01*
X24331784Y-81516544D01*
X24479354Y-81615147D01*
X24604853Y-81740646D01*
X24703456Y-81888216D01*
X24771376Y-82052188D01*
X24806000Y-82226259D01*
X24806000Y-82403741D01*
X24771376Y-82577812D01*
X24703456Y-82741784D01*
X24604853Y-82889354D01*
X24479354Y-83014853D01*
X24331784Y-83113456D01*
X24167812Y-83181376D01*
X24018512Y-83211073D01*
X23993742Y-83216000D01*
X23816258Y-83216000D01*
X23791488Y-83211073D01*
X23642188Y-83181376D01*
X23478216Y-83113456D01*
X23330646Y-83014853D01*
X23205147Y-82889354D01*
X23106544Y-82741784D01*
X23038624Y-82577812D01*
X23004000Y-82403741D01*
X23004000Y-82226259D01*
X23038624Y-82052188D01*
X23106544Y-81888216D01*
X23205147Y-81740646D01*
X23330646Y-81615147D01*
X23478216Y-81516544D01*
X23642188Y-81448624D01*
X23791488Y-81418927D01*
X23816258Y-81414000D01*
X23993742Y-81414000D01*
X24018512Y-81418927D01*
G37*
G36*
X34051000Y-82451000D02*
G01*
X32649000Y-82451000D01*
X32649000Y-81649000D01*
X34051000Y-81649000D01*
X34051000Y-82451000D01*
G37*
G36*
X61049600Y-82381000D02*
G01*
X60247600Y-82381000D01*
X60247600Y-80979000D01*
X61049600Y-80979000D01*
X61049600Y-82381000D01*
G37*
G36*
X62949600Y-82381000D02*
G01*
X62147600Y-82381000D01*
X62147600Y-80979000D01*
X62949600Y-80979000D01*
X62949600Y-82381000D01*
G37*
G36*
X55349000Y-81777000D02*
G01*
X52147000Y-81777000D01*
X52147000Y-80075000D01*
X55349000Y-80075000D01*
X55349000Y-81777000D01*
G37*
G36*
X38839000Y-81777000D02*
G01*
X35637000Y-81777000D01*
X35637000Y-80075000D01*
X38839000Y-80075000D01*
X38839000Y-81777000D01*
G37*
G36*
X24018512Y-78878927D02*
G01*
X24167812Y-78908624D01*
X24331784Y-78976544D01*
X24479354Y-79075147D01*
X24604853Y-79200646D01*
X24703456Y-79348216D01*
X24771376Y-79512188D01*
X24806000Y-79686259D01*
X24806000Y-79863741D01*
X24771376Y-80037812D01*
X24703456Y-80201784D01*
X24604853Y-80349354D01*
X24479354Y-80474853D01*
X24331784Y-80573456D01*
X24167812Y-80641376D01*
X24018512Y-80671073D01*
X23993742Y-80676000D01*
X23816258Y-80676000D01*
X23791488Y-80671073D01*
X23642188Y-80641376D01*
X23478216Y-80573456D01*
X23330646Y-80474853D01*
X23205147Y-80349354D01*
X23106544Y-80201784D01*
X23038624Y-80037812D01*
X23004000Y-79863741D01*
X23004000Y-79686259D01*
X23038624Y-79512188D01*
X23106544Y-79348216D01*
X23205147Y-79200646D01*
X23330646Y-79075147D01*
X23478216Y-78976544D01*
X23642188Y-78908624D01*
X23791488Y-78878927D01*
X23816258Y-78874000D01*
X23993742Y-78874000D01*
X24018512Y-78878927D01*
G37*
G36*
X26558512Y-78878927D02*
G01*
X26707812Y-78908624D01*
X26871784Y-78976544D01*
X27019354Y-79075147D01*
X27144853Y-79200646D01*
X27243456Y-79348216D01*
X27311376Y-79512188D01*
X27346000Y-79686259D01*
X27346000Y-79863741D01*
X27311376Y-80037812D01*
X27243456Y-80201784D01*
X27144853Y-80349354D01*
X27019354Y-80474853D01*
X26871784Y-80573456D01*
X26707812Y-80641376D01*
X26558512Y-80671073D01*
X26533742Y-80676000D01*
X26356258Y-80676000D01*
X26331488Y-80671073D01*
X26182188Y-80641376D01*
X26018216Y-80573456D01*
X25870646Y-80474853D01*
X25745147Y-80349354D01*
X25646544Y-80201784D01*
X25578624Y-80037812D01*
X25544000Y-79863741D01*
X25544000Y-79686259D01*
X25578624Y-79512188D01*
X25646544Y-79348216D01*
X25745147Y-79200646D01*
X25870646Y-79075147D01*
X26018216Y-78976544D01*
X26182188Y-78908624D01*
X26331488Y-78878927D01*
X26356258Y-78874000D01*
X26533742Y-78874000D01*
X26558512Y-78878927D01*
G37*
G36*
X34051000Y-80551000D02*
G01*
X32649000Y-80551000D01*
X32649000Y-79749000D01*
X34051000Y-79749000D01*
X34051000Y-80551000D01*
G37*
G36*
X62949600Y-80526800D02*
G01*
X62147600Y-80526800D01*
X62147600Y-79124800D01*
X62949600Y-79124800D01*
X62949600Y-80526800D01*
G37*
G36*
X61049600Y-80526800D02*
G01*
X60247600Y-80526800D01*
X60247600Y-79124800D01*
X61049600Y-79124800D01*
X61049600Y-80526800D01*
G37*
G36*
X104581000Y-79606000D02*
G01*
X103479000Y-79606000D01*
X103479000Y-78254000D01*
X104581000Y-78254000D01*
X104581000Y-79606000D01*
G37*
G36*
X106581000Y-79606000D02*
G01*
X105479000Y-79606000D01*
X105479000Y-78254000D01*
X106581000Y-78254000D01*
X106581000Y-79606000D01*
G37*
G36*
X83551000Y-79426000D02*
G01*
X82449000Y-79426000D01*
X82449000Y-78074000D01*
X83551000Y-78074000D01*
X83551000Y-79426000D01*
G37*
G36*
X81551000Y-79426000D02*
G01*
X80449000Y-79426000D01*
X80449000Y-78074000D01*
X81551000Y-78074000D01*
X81551000Y-79426000D01*
G37*
G36*
X55349000Y-79237000D02*
G01*
X52147000Y-79237000D01*
X52147000Y-77535000D01*
X55349000Y-77535000D01*
X55349000Y-79237000D01*
G37*
G36*
X38839000Y-79237000D02*
G01*
X35637000Y-79237000D01*
X35637000Y-77535000D01*
X38839000Y-77535000D01*
X38839000Y-79237000D01*
G37*
G36*
X24018512Y-76338927D02*
G01*
X24167812Y-76368624D01*
X24331784Y-76436544D01*
X24479354Y-76535147D01*
X24604853Y-76660646D01*
X24703456Y-76808216D01*
X24771376Y-76972188D01*
X24806000Y-77146259D01*
X24806000Y-77323741D01*
X24771376Y-77497812D01*
X24703456Y-77661784D01*
X24604853Y-77809354D01*
X24479354Y-77934853D01*
X24331784Y-78033456D01*
X24167812Y-78101376D01*
X24018512Y-78131073D01*
X23993742Y-78136000D01*
X23816258Y-78136000D01*
X23791488Y-78131073D01*
X23642188Y-78101376D01*
X23478216Y-78033456D01*
X23330646Y-77934853D01*
X23205147Y-77809354D01*
X23106544Y-77661784D01*
X23038624Y-77497812D01*
X23004000Y-77323741D01*
X23004000Y-77146259D01*
X23038624Y-76972188D01*
X23106544Y-76808216D01*
X23205147Y-76660646D01*
X23330646Y-76535147D01*
X23478216Y-76436544D01*
X23642188Y-76368624D01*
X23791488Y-76338927D01*
X23816258Y-76334000D01*
X23993742Y-76334000D01*
X24018512Y-76338927D01*
G37*
G36*
X26558512Y-76338927D02*
G01*
X26707812Y-76368624D01*
X26871784Y-76436544D01*
X27019354Y-76535147D01*
X27144853Y-76660646D01*
X27243456Y-76808216D01*
X27311376Y-76972188D01*
X27346000Y-77146259D01*
X27346000Y-77323741D01*
X27311376Y-77497812D01*
X27243456Y-77661784D01*
X27144853Y-77809354D01*
X27019354Y-77934853D01*
X26871784Y-78033456D01*
X26707812Y-78101376D01*
X26558512Y-78131073D01*
X26533742Y-78136000D01*
X26356258Y-78136000D01*
X26331488Y-78131073D01*
X26182188Y-78101376D01*
X26018216Y-78033456D01*
X25870646Y-77934853D01*
X25745147Y-77809354D01*
X25646544Y-77661784D01*
X25578624Y-77497812D01*
X25544000Y-77323741D01*
X25544000Y-77146259D01*
X25578624Y-76972188D01*
X25646544Y-76808216D01*
X25745147Y-76660646D01*
X25870646Y-76535147D01*
X26018216Y-76436544D01*
X26182188Y-76368624D01*
X26331488Y-76338927D01*
X26356258Y-76334000D01*
X26533742Y-76334000D01*
X26558512Y-76338927D01*
G37*
G36*
X69301000Y-77926000D02*
G01*
X68199000Y-77926000D01*
X68199000Y-76574000D01*
X69301000Y-76574000D01*
X69301000Y-77926000D01*
G37*
G36*
X67301000Y-77926000D02*
G01*
X66199000Y-77926000D01*
X66199000Y-76574000D01*
X67301000Y-76574000D01*
X67301000Y-77926000D01*
G37*
G36*
X38839000Y-76697000D02*
G01*
X35637000Y-76697000D01*
X35637000Y-74995000D01*
X38839000Y-74995000D01*
X38839000Y-76697000D01*
G37*
G36*
X55349000Y-76697000D02*
G01*
X52147000Y-76697000D01*
X52147000Y-74995000D01*
X55349000Y-74995000D01*
X55349000Y-76697000D01*
G37*
G36*
X24806000Y-75596000D02*
G01*
X23004000Y-75596000D01*
X23004000Y-73794000D01*
X24806000Y-73794000D01*
X24806000Y-75596000D01*
G37*
G36*
X26558512Y-73798927D02*
G01*
X26707812Y-73828624D01*
X26871784Y-73896544D01*
X27019354Y-73995147D01*
X27144853Y-74120646D01*
X27243456Y-74268216D01*
X27311376Y-74432188D01*
X27346000Y-74606259D01*
X27346000Y-74783741D01*
X27311376Y-74957812D01*
X27243456Y-75121784D01*
X27144853Y-75269354D01*
X27019354Y-75394853D01*
X26871784Y-75493456D01*
X26707812Y-75561376D01*
X26558512Y-75591073D01*
X26533742Y-75596000D01*
X26356258Y-75596000D01*
X26331488Y-75591073D01*
X26182188Y-75561376D01*
X26018216Y-75493456D01*
X25870646Y-75394853D01*
X25745147Y-75269354D01*
X25646544Y-75121784D01*
X25578624Y-74957812D01*
X25544000Y-74783741D01*
X25544000Y-74606259D01*
X25578624Y-74432188D01*
X25646544Y-74268216D01*
X25745147Y-74120646D01*
X25870646Y-73995147D01*
X26018216Y-73896544D01*
X26182188Y-73828624D01*
X26331488Y-73798927D01*
X26356258Y-73794000D01*
X26533742Y-73794000D01*
X26558512Y-73798927D01*
G37*
G36*
X38839000Y-74157000D02*
G01*
X35637000Y-74157000D01*
X35637000Y-72455000D01*
X38839000Y-72455000D01*
X38839000Y-74157000D01*
G37*
G36*
X55349000Y-74157000D02*
G01*
X52147000Y-74157000D01*
X52147000Y-72455000D01*
X55349000Y-72455000D01*
X55349000Y-74157000D01*
G37*
G36*
X106621000Y-72426000D02*
G01*
X105519000Y-72426000D01*
X105519000Y-71074000D01*
X106621000Y-71074000D01*
X106621000Y-72426000D01*
G37*
G36*
X104621000Y-72426000D02*
G01*
X103519000Y-72426000D01*
X103519000Y-71074000D01*
X104621000Y-71074000D01*
X104621000Y-72426000D01*
G37*
G36*
X38839000Y-71617000D02*
G01*
X35637000Y-71617000D01*
X35637000Y-69915000D01*
X38839000Y-69915000D01*
X38839000Y-71617000D01*
G37*
G36*
X55349000Y-71617000D02*
G01*
X52147000Y-71617000D01*
X52147000Y-69915000D01*
X55349000Y-69915000D01*
X55349000Y-71617000D01*
G37*
G36*
X96744987Y-68876524D02*
G01*
X96763730Y-68882210D01*
X96780997Y-68891439D01*
X96796138Y-68903865D01*
X96803375Y-68912683D01*
X96820702Y-68930010D01*
X96841076Y-68943623D01*
X96863715Y-68953001D01*
X96887748Y-68957781D01*
X96912252Y-68957781D01*
X96936285Y-68953001D01*
X96958924Y-68943623D01*
X96979299Y-68930009D01*
X96996625Y-68912683D01*
X97003862Y-68903865D01*
X97019003Y-68891439D01*
X97036270Y-68882210D01*
X97055013Y-68876524D01*
X97080640Y-68874000D01*
X97519360Y-68874000D01*
X97544987Y-68876524D01*
X97563730Y-68882210D01*
X97580997Y-68891439D01*
X97596138Y-68903865D01*
X97603375Y-68912683D01*
X97620702Y-68930010D01*
X97641076Y-68943623D01*
X97663715Y-68953001D01*
X97687748Y-68957781D01*
X97712252Y-68957781D01*
X97736285Y-68953001D01*
X97758924Y-68943623D01*
X97779299Y-68930009D01*
X97796625Y-68912683D01*
X97803862Y-68903865D01*
X97819003Y-68891439D01*
X97836270Y-68882210D01*
X97855013Y-68876524D01*
X97880640Y-68874000D01*
X98319360Y-68874000D01*
X98344987Y-68876524D01*
X98363730Y-68882210D01*
X98380997Y-68891439D01*
X98396138Y-68903865D01*
X98403375Y-68912683D01*
X98420702Y-68930010D01*
X98441076Y-68943623D01*
X98463715Y-68953001D01*
X98487748Y-68957781D01*
X98512252Y-68957781D01*
X98536285Y-68953001D01*
X98558924Y-68943623D01*
X98579299Y-68930009D01*
X98596625Y-68912683D01*
X98603862Y-68903865D01*
X98619003Y-68891439D01*
X98636270Y-68882210D01*
X98655013Y-68876524D01*
X98680640Y-68874000D01*
X99119360Y-68874000D01*
X99144987Y-68876524D01*
X99163730Y-68882210D01*
X99180997Y-68891439D01*
X99196138Y-68903865D01*
X99203375Y-68912683D01*
X99220702Y-68930010D01*
X99241076Y-68943623D01*
X99263715Y-68953001D01*
X99287748Y-68957781D01*
X99312252Y-68957781D01*
X99336285Y-68953001D01*
X99358924Y-68943623D01*
X99379299Y-68930009D01*
X99396625Y-68912683D01*
X99403862Y-68903865D01*
X99419003Y-68891439D01*
X99436270Y-68882210D01*
X99455013Y-68876524D01*
X99480640Y-68874000D01*
X99919360Y-68874000D01*
X99944987Y-68876524D01*
X99963730Y-68882210D01*
X99980997Y-68891439D01*
X99996138Y-68903865D01*
X100003375Y-68912683D01*
X100020702Y-68930010D01*
X100041076Y-68943623D01*
X100063715Y-68953001D01*
X100087748Y-68957781D01*
X100112252Y-68957781D01*
X100136285Y-68953001D01*
X100158924Y-68943623D01*
X100179299Y-68930009D01*
X100196625Y-68912683D01*
X100203862Y-68903865D01*
X100219003Y-68891439D01*
X100236270Y-68882210D01*
X100255013Y-68876524D01*
X100280640Y-68874000D01*
X100719360Y-68874000D01*
X100744987Y-68876524D01*
X100763730Y-68882210D01*
X100780997Y-68891439D01*
X100796138Y-68903865D01*
X100803375Y-68912683D01*
X100820702Y-68930010D01*
X100841076Y-68943623D01*
X100863715Y-68953001D01*
X100887748Y-68957781D01*
X100912252Y-68957781D01*
X100936285Y-68953001D01*
X100958924Y-68943623D01*
X100979299Y-68930009D01*
X100996625Y-68912683D01*
X101003862Y-68903865D01*
X101019003Y-68891439D01*
X101036270Y-68882210D01*
X101055013Y-68876524D01*
X101080640Y-68874000D01*
X101519360Y-68874000D01*
X101544987Y-68876524D01*
X101563730Y-68882210D01*
X101580997Y-68891439D01*
X101596138Y-68903865D01*
X101603375Y-68912683D01*
X101620702Y-68930010D01*
X101641076Y-68943623D01*
X101663715Y-68953001D01*
X101687748Y-68957781D01*
X101712252Y-68957781D01*
X101736285Y-68953001D01*
X101758924Y-68943623D01*
X101779299Y-68930009D01*
X101796625Y-68912683D01*
X101803862Y-68903865D01*
X101819003Y-68891439D01*
X101836270Y-68882210D01*
X101855013Y-68876524D01*
X101880640Y-68874000D01*
X102319360Y-68874000D01*
X102344987Y-68876524D01*
X102363730Y-68882210D01*
X102380997Y-68891439D01*
X102396138Y-68903865D01*
X102403375Y-68912683D01*
X102420702Y-68930010D01*
X102441076Y-68943623D01*
X102463715Y-68953001D01*
X102487748Y-68957781D01*
X102512252Y-68957781D01*
X102536285Y-68953001D01*
X102558924Y-68943623D01*
X102579299Y-68930009D01*
X102596625Y-68912683D01*
X102603862Y-68903865D01*
X102619003Y-68891439D01*
X102636270Y-68882210D01*
X102655013Y-68876524D01*
X102680640Y-68874000D01*
X103119360Y-68874000D01*
X103144987Y-68876524D01*
X103163730Y-68882210D01*
X103180997Y-68891439D01*
X103196138Y-68903865D01*
X103203375Y-68912683D01*
X103220702Y-68930010D01*
X103241076Y-68943623D01*
X103263715Y-68953001D01*
X103287748Y-68957781D01*
X103312252Y-68957781D01*
X103336285Y-68953001D01*
X103358924Y-68943623D01*
X103379299Y-68930009D01*
X103396625Y-68912683D01*
X103403862Y-68903865D01*
X103419003Y-68891439D01*
X103436270Y-68882210D01*
X103455013Y-68876524D01*
X103480640Y-68874000D01*
X103919360Y-68874000D01*
X103944987Y-68876524D01*
X103963730Y-68882210D01*
X103980997Y-68891439D01*
X103996138Y-68903865D01*
X104003375Y-68912683D01*
X104020702Y-68930010D01*
X104041076Y-68943623D01*
X104063715Y-68953001D01*
X104087748Y-68957781D01*
X104112252Y-68957781D01*
X104136285Y-68953001D01*
X104158924Y-68943623D01*
X104179299Y-68930009D01*
X104196625Y-68912683D01*
X104203862Y-68903865D01*
X104219003Y-68891439D01*
X104236270Y-68882210D01*
X104255013Y-68876524D01*
X104280640Y-68874000D01*
X104719360Y-68874000D01*
X104744987Y-68876524D01*
X104763730Y-68882210D01*
X104780997Y-68891439D01*
X104796138Y-68903865D01*
X104803375Y-68912683D01*
X104820702Y-68930010D01*
X104841076Y-68943623D01*
X104863715Y-68953001D01*
X104887748Y-68957781D01*
X104912252Y-68957781D01*
X104936285Y-68953001D01*
X104958924Y-68943623D01*
X104979299Y-68930009D01*
X104996625Y-68912683D01*
X105003862Y-68903865D01*
X105019003Y-68891439D01*
X105036270Y-68882210D01*
X105055013Y-68876524D01*
X105080640Y-68874000D01*
X105519360Y-68874000D01*
X105544987Y-68876524D01*
X105563730Y-68882210D01*
X105580997Y-68891439D01*
X105596138Y-68903865D01*
X105603375Y-68912683D01*
X105620702Y-68930010D01*
X105641076Y-68943623D01*
X105663715Y-68953001D01*
X105687748Y-68957781D01*
X105712252Y-68957781D01*
X105736285Y-68953001D01*
X105758924Y-68943623D01*
X105779299Y-68930009D01*
X105796625Y-68912683D01*
X105803862Y-68903865D01*
X105819003Y-68891439D01*
X105836270Y-68882210D01*
X105855013Y-68876524D01*
X105880640Y-68874000D01*
X106319360Y-68874000D01*
X106344987Y-68876524D01*
X106363730Y-68882210D01*
X106380997Y-68891439D01*
X106396138Y-68903865D01*
X106403375Y-68912683D01*
X106420702Y-68930010D01*
X106441076Y-68943623D01*
X106463715Y-68953001D01*
X106487748Y-68957781D01*
X106512252Y-68957781D01*
X106536285Y-68953001D01*
X106558924Y-68943623D01*
X106579299Y-68930009D01*
X106596625Y-68912683D01*
X106603862Y-68903865D01*
X106619003Y-68891439D01*
X106636270Y-68882210D01*
X106655013Y-68876524D01*
X106680640Y-68874000D01*
X107119360Y-68874000D01*
X107144987Y-68876524D01*
X107163730Y-68882210D01*
X107180997Y-68891439D01*
X107196138Y-68903865D01*
X107203375Y-68912683D01*
X107220702Y-68930010D01*
X107241076Y-68943623D01*
X107263715Y-68953001D01*
X107287748Y-68957781D01*
X107312252Y-68957781D01*
X107336285Y-68953001D01*
X107358924Y-68943623D01*
X107379299Y-68930009D01*
X107396625Y-68912683D01*
X107403862Y-68903865D01*
X107419003Y-68891439D01*
X107436270Y-68882210D01*
X107455013Y-68876524D01*
X107480640Y-68874000D01*
X107919360Y-68874000D01*
X107944987Y-68876524D01*
X107963730Y-68882210D01*
X107980997Y-68891439D01*
X107996138Y-68903865D01*
X108003375Y-68912683D01*
X108020702Y-68930010D01*
X108041076Y-68943623D01*
X108063715Y-68953001D01*
X108087748Y-68957781D01*
X108112252Y-68957781D01*
X108136285Y-68953001D01*
X108158924Y-68943623D01*
X108179299Y-68930009D01*
X108196625Y-68912683D01*
X108203862Y-68903865D01*
X108219003Y-68891439D01*
X108236270Y-68882210D01*
X108255013Y-68876524D01*
X108280640Y-68874000D01*
X108719360Y-68874000D01*
X108744987Y-68876524D01*
X108763730Y-68882210D01*
X108780997Y-68891439D01*
X108796138Y-68903865D01*
X108803375Y-68912683D01*
X108820702Y-68930010D01*
X108841076Y-68943623D01*
X108863715Y-68953001D01*
X108887748Y-68957781D01*
X108912252Y-68957781D01*
X108936285Y-68953001D01*
X108958924Y-68943623D01*
X108979299Y-68930009D01*
X108996625Y-68912683D01*
X109003862Y-68903865D01*
X109019003Y-68891439D01*
X109036270Y-68882210D01*
X109055013Y-68876524D01*
X109080640Y-68874000D01*
X109519360Y-68874000D01*
X109544987Y-68876524D01*
X109563730Y-68882210D01*
X109580997Y-68891439D01*
X109596138Y-68903865D01*
X109603375Y-68912683D01*
X109620702Y-68930010D01*
X109641076Y-68943623D01*
X109663715Y-68953001D01*
X109687748Y-68957781D01*
X109712252Y-68957781D01*
X109736285Y-68953001D01*
X109758924Y-68943623D01*
X109779299Y-68930009D01*
X109796625Y-68912683D01*
X109803862Y-68903865D01*
X109819003Y-68891439D01*
X109836270Y-68882210D01*
X109855013Y-68876524D01*
X109880640Y-68874000D01*
X110319360Y-68874000D01*
X110344987Y-68876524D01*
X110363730Y-68882210D01*
X110380997Y-68891439D01*
X110396138Y-68903865D01*
X110403375Y-68912683D01*
X110420702Y-68930010D01*
X110441076Y-68943623D01*
X110463715Y-68953001D01*
X110487748Y-68957781D01*
X110512252Y-68957781D01*
X110536285Y-68953001D01*
X110558924Y-68943623D01*
X110579299Y-68930009D01*
X110596625Y-68912683D01*
X110603862Y-68903865D01*
X110619003Y-68891439D01*
X110636270Y-68882210D01*
X110655013Y-68876524D01*
X110680640Y-68874000D01*
X111119360Y-68874000D01*
X111144987Y-68876524D01*
X111163730Y-68882210D01*
X111180997Y-68891439D01*
X111196138Y-68903865D01*
X111203375Y-68912683D01*
X111220702Y-68930010D01*
X111241076Y-68943623D01*
X111263715Y-68953001D01*
X111287748Y-68957781D01*
X111312252Y-68957781D01*
X111336285Y-68953001D01*
X111358924Y-68943623D01*
X111379299Y-68930009D01*
X111396625Y-68912683D01*
X111403862Y-68903865D01*
X111419003Y-68891439D01*
X111436270Y-68882210D01*
X111455013Y-68876524D01*
X111480640Y-68874000D01*
X111919360Y-68874000D01*
X111944987Y-68876524D01*
X111963730Y-68882210D01*
X111980997Y-68891439D01*
X111996138Y-68903865D01*
X112003375Y-68912683D01*
X112020702Y-68930010D01*
X112041076Y-68943623D01*
X112063715Y-68953001D01*
X112087748Y-68957781D01*
X112112252Y-68957781D01*
X112136285Y-68953001D01*
X112158924Y-68943623D01*
X112179299Y-68930009D01*
X112196625Y-68912683D01*
X112203862Y-68903865D01*
X112219003Y-68891439D01*
X112236270Y-68882210D01*
X112255013Y-68876524D01*
X112280640Y-68874000D01*
X112719360Y-68874000D01*
X112744987Y-68876524D01*
X112763730Y-68882210D01*
X112780997Y-68891439D01*
X112796138Y-68903865D01*
X112803375Y-68912683D01*
X112820702Y-68930010D01*
X112841076Y-68943623D01*
X112863715Y-68953001D01*
X112887748Y-68957781D01*
X112912252Y-68957781D01*
X112936285Y-68953001D01*
X112958924Y-68943623D01*
X112979299Y-68930009D01*
X112996625Y-68912683D01*
X113003862Y-68903865D01*
X113019003Y-68891439D01*
X113036270Y-68882210D01*
X113055013Y-68876524D01*
X113080640Y-68874000D01*
X113519360Y-68874000D01*
X113544987Y-68876524D01*
X113563730Y-68882210D01*
X113580997Y-68891439D01*
X113596136Y-68903864D01*
X113608561Y-68919003D01*
X113617790Y-68936270D01*
X113623476Y-68955013D01*
X113626000Y-68980640D01*
X113626000Y-70394360D01*
X113623476Y-70419987D01*
X113617790Y-70438730D01*
X113608561Y-70455997D01*
X113596136Y-70471136D01*
X113580997Y-70483561D01*
X113563730Y-70492790D01*
X113544987Y-70498476D01*
X113519360Y-70501000D01*
X113080640Y-70501000D01*
X113055013Y-70498476D01*
X113036270Y-70492790D01*
X113019003Y-70483561D01*
X113003862Y-70471135D01*
X112996625Y-70462317D01*
X112979298Y-70444990D01*
X112958924Y-70431377D01*
X112936285Y-70421999D01*
X112912252Y-70417219D01*
X112887748Y-70417219D01*
X112863715Y-70421999D01*
X112841076Y-70431377D01*
X112820701Y-70444991D01*
X112803375Y-70462317D01*
X112796138Y-70471135D01*
X112780997Y-70483561D01*
X112763730Y-70492790D01*
X112744987Y-70498476D01*
X112719360Y-70501000D01*
X112280640Y-70501000D01*
X112255013Y-70498476D01*
X112236270Y-70492790D01*
X112219003Y-70483561D01*
X112203862Y-70471135D01*
X112196625Y-70462317D01*
X112179298Y-70444990D01*
X112158924Y-70431377D01*
X112136285Y-70421999D01*
X112112252Y-70417219D01*
X112087748Y-70417219D01*
X112063715Y-70421999D01*
X112041076Y-70431377D01*
X112020701Y-70444991D01*
X112003375Y-70462317D01*
X111996138Y-70471135D01*
X111980997Y-70483561D01*
X111963730Y-70492790D01*
X111944987Y-70498476D01*
X111919360Y-70501000D01*
X111480640Y-70501000D01*
X111455013Y-70498476D01*
X111436270Y-70492790D01*
X111419003Y-70483561D01*
X111403862Y-70471135D01*
X111396625Y-70462317D01*
X111379298Y-70444990D01*
X111358924Y-70431377D01*
X111336285Y-70421999D01*
X111312252Y-70417219D01*
X111287748Y-70417219D01*
X111263715Y-70421999D01*
X111241076Y-70431377D01*
X111220701Y-70444991D01*
X111203375Y-70462317D01*
X111196138Y-70471135D01*
X111180997Y-70483561D01*
X111163730Y-70492790D01*
X111144987Y-70498476D01*
X111119360Y-70501000D01*
X110680640Y-70501000D01*
X110655013Y-70498476D01*
X110636270Y-70492790D01*
X110619003Y-70483561D01*
X110603862Y-70471135D01*
X110596625Y-70462317D01*
X110579298Y-70444990D01*
X110558924Y-70431377D01*
X110536285Y-70421999D01*
X110512252Y-70417219D01*
X110487748Y-70417219D01*
X110463715Y-70421999D01*
X110441076Y-70431377D01*
X110420701Y-70444991D01*
X110403375Y-70462317D01*
X110396138Y-70471135D01*
X110380997Y-70483561D01*
X110363730Y-70492790D01*
X110344987Y-70498476D01*
X110319360Y-70501000D01*
X109880640Y-70501000D01*
X109855013Y-70498476D01*
X109836270Y-70492790D01*
X109819003Y-70483561D01*
X109803862Y-70471135D01*
X109796625Y-70462317D01*
X109779298Y-70444990D01*
X109758924Y-70431377D01*
X109736285Y-70421999D01*
X109712252Y-70417219D01*
X109687748Y-70417219D01*
X109663715Y-70421999D01*
X109641076Y-70431377D01*
X109620701Y-70444991D01*
X109603375Y-70462317D01*
X109596138Y-70471135D01*
X109580997Y-70483561D01*
X109563730Y-70492790D01*
X109544987Y-70498476D01*
X109519360Y-70501000D01*
X109080640Y-70501000D01*
X109055013Y-70498476D01*
X109036270Y-70492790D01*
X109019003Y-70483561D01*
X109003862Y-70471135D01*
X108996625Y-70462317D01*
X108979298Y-70444990D01*
X108958924Y-70431377D01*
X108936285Y-70421999D01*
X108912252Y-70417219D01*
X108887748Y-70417219D01*
X108863715Y-70421999D01*
X108841076Y-70431377D01*
X108820701Y-70444991D01*
X108803375Y-70462317D01*
X108796138Y-70471135D01*
X108780997Y-70483561D01*
X108763730Y-70492790D01*
X108744987Y-70498476D01*
X108719360Y-70501000D01*
X108280640Y-70501000D01*
X108255013Y-70498476D01*
X108236270Y-70492790D01*
X108219003Y-70483561D01*
X108203862Y-70471135D01*
X108196625Y-70462317D01*
X108179298Y-70444990D01*
X108158924Y-70431377D01*
X108136285Y-70421999D01*
X108112252Y-70417219D01*
X108087748Y-70417219D01*
X108063715Y-70421999D01*
X108041076Y-70431377D01*
X108020701Y-70444991D01*
X108003375Y-70462317D01*
X107996138Y-70471135D01*
X107980997Y-70483561D01*
X107963730Y-70492790D01*
X107944987Y-70498476D01*
X107919360Y-70501000D01*
X107480640Y-70501000D01*
X107455013Y-70498476D01*
X107436270Y-70492790D01*
X107419003Y-70483561D01*
X107403862Y-70471135D01*
X107396625Y-70462317D01*
X107379298Y-70444990D01*
X107358924Y-70431377D01*
X107336285Y-70421999D01*
X107312252Y-70417219D01*
X107287748Y-70417219D01*
X107263715Y-70421999D01*
X107241076Y-70431377D01*
X107220701Y-70444991D01*
X107203375Y-70462317D01*
X107196138Y-70471135D01*
X107180997Y-70483561D01*
X107163730Y-70492790D01*
X107144987Y-70498476D01*
X107119360Y-70501000D01*
X106680640Y-70501000D01*
X106655013Y-70498476D01*
X106636270Y-70492790D01*
X106619003Y-70483561D01*
X106603862Y-70471135D01*
X106596625Y-70462317D01*
X106579298Y-70444990D01*
X106558924Y-70431377D01*
X106536285Y-70421999D01*
X106512252Y-70417219D01*
X106487748Y-70417219D01*
X106463715Y-70421999D01*
X106441076Y-70431377D01*
X106420701Y-70444991D01*
X106403375Y-70462317D01*
X106396138Y-70471135D01*
X106380997Y-70483561D01*
X106363730Y-70492790D01*
X106344987Y-70498476D01*
X106319360Y-70501000D01*
X105880640Y-70501000D01*
X105855013Y-70498476D01*
X105836270Y-70492790D01*
X105819003Y-70483561D01*
X105803862Y-70471135D01*
X105796625Y-70462317D01*
X105779298Y-70444990D01*
X105758924Y-70431377D01*
X105736285Y-70421999D01*
X105712252Y-70417219D01*
X105687748Y-70417219D01*
X105663715Y-70421999D01*
X105641076Y-70431377D01*
X105620701Y-70444991D01*
X105603375Y-70462317D01*
X105596138Y-70471135D01*
X105580997Y-70483561D01*
X105563730Y-70492790D01*
X105544987Y-70498476D01*
X105519360Y-70501000D01*
X105080640Y-70501000D01*
X105055013Y-70498476D01*
X105036270Y-70492790D01*
X105019003Y-70483561D01*
X105003862Y-70471135D01*
X104996625Y-70462317D01*
X104979298Y-70444990D01*
X104958924Y-70431377D01*
X104936285Y-70421999D01*
X104912252Y-70417219D01*
X104887748Y-70417219D01*
X104863715Y-70421999D01*
X104841076Y-70431377D01*
X104820701Y-70444991D01*
X104803375Y-70462317D01*
X104796138Y-70471135D01*
X104780997Y-70483561D01*
X104763730Y-70492790D01*
X104744987Y-70498476D01*
X104719360Y-70501000D01*
X104280640Y-70501000D01*
X104255013Y-70498476D01*
X104236270Y-70492790D01*
X104219003Y-70483561D01*
X104203862Y-70471135D01*
X104196625Y-70462317D01*
X104179298Y-70444990D01*
X104158924Y-70431377D01*
X104136285Y-70421999D01*
X104112252Y-70417219D01*
X104087748Y-70417219D01*
X104063715Y-70421999D01*
X104041076Y-70431377D01*
X104020701Y-70444991D01*
X104003375Y-70462317D01*
X103996138Y-70471135D01*
X103980997Y-70483561D01*
X103963730Y-70492790D01*
X103944987Y-70498476D01*
X103919360Y-70501000D01*
X103480640Y-70501000D01*
X103455013Y-70498476D01*
X103436270Y-70492790D01*
X103419003Y-70483561D01*
X103403862Y-70471135D01*
X103396625Y-70462317D01*
X103379298Y-70444990D01*
X103358924Y-70431377D01*
X103336285Y-70421999D01*
X103312252Y-70417219D01*
X103287748Y-70417219D01*
X103263715Y-70421999D01*
X103241076Y-70431377D01*
X103220701Y-70444991D01*
X103203375Y-70462317D01*
X103196138Y-70471135D01*
X103180997Y-70483561D01*
X103163730Y-70492790D01*
X103144987Y-70498476D01*
X103119360Y-70501000D01*
X102680640Y-70501000D01*
X102655013Y-70498476D01*
X102636270Y-70492790D01*
X102619003Y-70483561D01*
X102603862Y-70471135D01*
X102596625Y-70462317D01*
X102579298Y-70444990D01*
X102558924Y-70431377D01*
X102536285Y-70421999D01*
X102512252Y-70417219D01*
X102487748Y-70417219D01*
X102463715Y-70421999D01*
X102441076Y-70431377D01*
X102420701Y-70444991D01*
X102403375Y-70462317D01*
X102396138Y-70471135D01*
X102380997Y-70483561D01*
X102363730Y-70492790D01*
X102344987Y-70498476D01*
X102319360Y-70501000D01*
X101880640Y-70501000D01*
X101855013Y-70498476D01*
X101836270Y-70492790D01*
X101819003Y-70483561D01*
X101803862Y-70471135D01*
X101796625Y-70462317D01*
X101779298Y-70444990D01*
X101758924Y-70431377D01*
X101736285Y-70421999D01*
X101712252Y-70417219D01*
X101687748Y-70417219D01*
X101663715Y-70421999D01*
X101641076Y-70431377D01*
X101620701Y-70444991D01*
X101603375Y-70462317D01*
X101596138Y-70471135D01*
X101580997Y-70483561D01*
X101563730Y-70492790D01*
X101544987Y-70498476D01*
X101519360Y-70501000D01*
X101080640Y-70501000D01*
X101055013Y-70498476D01*
X101036270Y-70492790D01*
X101019003Y-70483561D01*
X101003862Y-70471135D01*
X100996625Y-70462317D01*
X100979298Y-70444990D01*
X100958924Y-70431377D01*
X100936285Y-70421999D01*
X100912252Y-70417219D01*
X100887748Y-70417219D01*
X100863715Y-70421999D01*
X100841076Y-70431377D01*
X100820701Y-70444991D01*
X100803375Y-70462317D01*
X100796138Y-70471135D01*
X100780997Y-70483561D01*
X100763730Y-70492790D01*
X100744987Y-70498476D01*
X100719360Y-70501000D01*
X100280640Y-70501000D01*
X100255013Y-70498476D01*
X100236270Y-70492790D01*
X100219003Y-70483561D01*
X100203862Y-70471135D01*
X100196625Y-70462317D01*
X100179298Y-70444990D01*
X100158924Y-70431377D01*
X100136285Y-70421999D01*
X100112252Y-70417219D01*
X100087748Y-70417219D01*
X100063715Y-70421999D01*
X100041076Y-70431377D01*
X100020701Y-70444991D01*
X100003375Y-70462317D01*
X99996138Y-70471135D01*
X99980997Y-70483561D01*
X99963730Y-70492790D01*
X99944987Y-70498476D01*
X99919360Y-70501000D01*
X99480640Y-70501000D01*
X99455013Y-70498476D01*
X99436270Y-70492790D01*
X99419003Y-70483561D01*
X99403862Y-70471135D01*
X99396625Y-70462317D01*
X99379298Y-70444990D01*
X99358924Y-70431377D01*
X99336285Y-70421999D01*
X99312252Y-70417219D01*
X99287748Y-70417219D01*
X99263715Y-70421999D01*
X99241076Y-70431377D01*
X99220701Y-70444991D01*
X99203375Y-70462317D01*
X99196138Y-70471135D01*
X99180997Y-70483561D01*
X99163730Y-70492790D01*
X99144987Y-70498476D01*
X99119360Y-70501000D01*
X98680640Y-70501000D01*
X98655013Y-70498476D01*
X98636270Y-70492790D01*
X98619003Y-70483561D01*
X98603862Y-70471135D01*
X98596625Y-70462317D01*
X98579298Y-70444990D01*
X98558924Y-70431377D01*
X98536285Y-70421999D01*
X98512252Y-70417219D01*
X98487748Y-70417219D01*
X98463715Y-70421999D01*
X98441076Y-70431377D01*
X98420701Y-70444991D01*
X98403375Y-70462317D01*
X98396138Y-70471135D01*
X98380997Y-70483561D01*
X98363730Y-70492790D01*
X98344987Y-70498476D01*
X98319360Y-70501000D01*
X97880640Y-70501000D01*
X97855013Y-70498476D01*
X97836270Y-70492790D01*
X97819003Y-70483561D01*
X97803862Y-70471135D01*
X97796625Y-70462317D01*
X97779298Y-70444990D01*
X97758924Y-70431377D01*
X97736285Y-70421999D01*
X97712252Y-70417219D01*
X97687748Y-70417219D01*
X97663715Y-70421999D01*
X97641076Y-70431377D01*
X97620701Y-70444991D01*
X97603375Y-70462317D01*
X97596138Y-70471135D01*
X97580997Y-70483561D01*
X97563730Y-70492790D01*
X97544987Y-70498476D01*
X97519360Y-70501000D01*
X97080640Y-70501000D01*
X97055013Y-70498476D01*
X97036270Y-70492790D01*
X97019003Y-70483561D01*
X97003862Y-70471135D01*
X96996625Y-70462317D01*
X96979298Y-70444990D01*
X96958924Y-70431377D01*
X96936285Y-70421999D01*
X96912252Y-70417219D01*
X96887748Y-70417219D01*
X96863715Y-70421999D01*
X96841076Y-70431377D01*
X96820701Y-70444991D01*
X96803375Y-70462317D01*
X96796138Y-70471135D01*
X96780997Y-70483561D01*
X96763730Y-70492790D01*
X96744987Y-70498476D01*
X96719360Y-70501000D01*
X96280640Y-70501000D01*
X96255013Y-70498476D01*
X96236270Y-70492790D01*
X96219003Y-70483561D01*
X96203864Y-70471136D01*
X96191439Y-70455997D01*
X96182210Y-70438730D01*
X96176524Y-70419987D01*
X96174000Y-70394360D01*
X96174000Y-68980640D01*
X96176524Y-68955013D01*
X96182210Y-68936270D01*
X96191439Y-68919003D01*
X96203864Y-68903864D01*
X96219003Y-68891439D01*
X96236270Y-68882210D01*
X96255013Y-68876524D01*
X96280640Y-68874000D01*
X96719360Y-68874000D01*
X96744987Y-68876524D01*
G37*
G36*
X38839000Y-69077000D02*
G01*
X35637000Y-69077000D01*
X35637000Y-67375000D01*
X38839000Y-67375000D01*
X38839000Y-69077000D01*
G37*
G36*
X55349000Y-69077000D02*
G01*
X52147000Y-69077000D01*
X52147000Y-67375000D01*
X55349000Y-67375000D01*
X55349000Y-69077000D01*
G37*
G36*
X24018512Y-66813927D02*
G01*
X24167812Y-66843624D01*
X24331784Y-66911544D01*
X24479354Y-67010147D01*
X24604853Y-67135646D01*
X24703456Y-67283216D01*
X24771376Y-67447188D01*
X24806000Y-67621259D01*
X24806000Y-67798741D01*
X24771376Y-67972812D01*
X24703456Y-68136784D01*
X24604853Y-68284354D01*
X24479354Y-68409853D01*
X24331784Y-68508456D01*
X24167812Y-68576376D01*
X24018512Y-68606073D01*
X23993742Y-68611000D01*
X23816258Y-68611000D01*
X23791488Y-68606073D01*
X23642188Y-68576376D01*
X23478216Y-68508456D01*
X23330646Y-68409853D01*
X23205147Y-68284354D01*
X23106544Y-68136784D01*
X23038624Y-67972812D01*
X23004000Y-67798741D01*
X23004000Y-67621259D01*
X23038624Y-67447188D01*
X23106544Y-67283216D01*
X23205147Y-67135646D01*
X23330646Y-67010147D01*
X23478216Y-66911544D01*
X23642188Y-66843624D01*
X23791488Y-66813927D01*
X23816258Y-66809000D01*
X23993742Y-66809000D01*
X24018512Y-66813927D01*
G37*
G36*
X33543512Y-66813927D02*
G01*
X33692812Y-66843624D01*
X33856784Y-66911544D01*
X34004354Y-67010147D01*
X34129853Y-67135646D01*
X34228456Y-67283216D01*
X34296376Y-67447188D01*
X34331000Y-67621259D01*
X34331000Y-67798741D01*
X34296376Y-67972812D01*
X34228456Y-68136784D01*
X34129853Y-68284354D01*
X34004354Y-68409853D01*
X33856784Y-68508456D01*
X33692812Y-68576376D01*
X33543512Y-68606073D01*
X33518742Y-68611000D01*
X33341258Y-68611000D01*
X33316488Y-68606073D01*
X33167188Y-68576376D01*
X33003216Y-68508456D01*
X32855646Y-68409853D01*
X32730147Y-68284354D01*
X32631544Y-68136784D01*
X32563624Y-67972812D01*
X32529000Y-67798741D01*
X32529000Y-67621259D01*
X32563624Y-67447188D01*
X32631544Y-67283216D01*
X32730147Y-67135646D01*
X32855646Y-67010147D01*
X33003216Y-66911544D01*
X33167188Y-66843624D01*
X33316488Y-66813927D01*
X33341258Y-66809000D01*
X33518742Y-66809000D01*
X33543512Y-66813927D01*
G37*
G36*
X80601000Y-67201000D02*
G01*
X79799000Y-67201000D01*
X79799000Y-65799000D01*
X80601000Y-65799000D01*
X80601000Y-67201000D01*
G37*
G36*
X82501000Y-67201000D02*
G01*
X81699000Y-67201000D01*
X81699000Y-65799000D01*
X82501000Y-65799000D01*
X82501000Y-67201000D01*
G37*
G36*
X77501000Y-67201000D02*
G01*
X76699000Y-67201000D01*
X76699000Y-65799000D01*
X77501000Y-65799000D01*
X77501000Y-67201000D01*
G37*
G36*
X79401000Y-67201000D02*
G01*
X78599000Y-67201000D01*
X78599000Y-65799000D01*
X79401000Y-65799000D01*
X79401000Y-67201000D01*
G37*
G36*
X55349000Y-66537000D02*
G01*
X52147000Y-66537000D01*
X52147000Y-64835000D01*
X55349000Y-64835000D01*
X55349000Y-66537000D01*
G37*
G36*
X38839000Y-66537000D02*
G01*
X35637000Y-66537000D01*
X35637000Y-64835000D01*
X38839000Y-64835000D01*
X38839000Y-66537000D01*
G37*
G36*
X24018512Y-64273927D02*
G01*
X24167812Y-64303624D01*
X24331784Y-64371544D01*
X24479354Y-64470147D01*
X24604853Y-64595646D01*
X24703456Y-64743216D01*
X24771376Y-64907188D01*
X24806000Y-65081259D01*
X24806000Y-65258741D01*
X24771376Y-65432812D01*
X24703456Y-65596784D01*
X24604853Y-65744354D01*
X24479354Y-65869853D01*
X24331784Y-65968456D01*
X24167812Y-66036376D01*
X24018512Y-66066073D01*
X23993742Y-66071000D01*
X23816258Y-66071000D01*
X23791488Y-66066073D01*
X23642188Y-66036376D01*
X23478216Y-65968456D01*
X23330646Y-65869853D01*
X23205147Y-65744354D01*
X23106544Y-65596784D01*
X23038624Y-65432812D01*
X23004000Y-65258741D01*
X23004000Y-65081259D01*
X23038624Y-64907188D01*
X23106544Y-64743216D01*
X23205147Y-64595646D01*
X23330646Y-64470147D01*
X23478216Y-64371544D01*
X23642188Y-64303624D01*
X23791488Y-64273927D01*
X23816258Y-64269000D01*
X23993742Y-64269000D01*
X24018512Y-64273927D01*
G37*
G36*
X33543512Y-64273927D02*
G01*
X33692812Y-64303624D01*
X33856784Y-64371544D01*
X34004354Y-64470147D01*
X34129853Y-64595646D01*
X34228456Y-64743216D01*
X34296376Y-64907188D01*
X34331000Y-65081259D01*
X34331000Y-65258741D01*
X34296376Y-65432812D01*
X34228456Y-65596784D01*
X34129853Y-65744354D01*
X34004354Y-65869853D01*
X33856784Y-65968456D01*
X33692812Y-66036376D01*
X33543512Y-66066073D01*
X33518742Y-66071000D01*
X33341258Y-66071000D01*
X33316488Y-66066073D01*
X33167188Y-66036376D01*
X33003216Y-65968456D01*
X32855646Y-65869853D01*
X32730147Y-65744354D01*
X32631544Y-65596784D01*
X32563624Y-65432812D01*
X32529000Y-65258741D01*
X32529000Y-65081259D01*
X32563624Y-64907188D01*
X32631544Y-64743216D01*
X32730147Y-64595646D01*
X32855646Y-64470147D01*
X33003216Y-64371544D01*
X33167188Y-64303624D01*
X33316488Y-64273927D01*
X33341258Y-64269000D01*
X33518742Y-64269000D01*
X33543512Y-64273927D01*
G37*
G36*
X69251000Y-64151000D02*
G01*
X68649000Y-64151000D01*
X68649000Y-63449000D01*
X69251000Y-63449000D01*
X69251000Y-64151000D01*
G37*
G36*
X38839000Y-63997000D02*
G01*
X35637000Y-63997000D01*
X35637000Y-62295000D01*
X38839000Y-62295000D01*
X38839000Y-63997000D01*
G37*
G36*
X55349000Y-63997000D02*
G01*
X52147000Y-63997000D01*
X52147000Y-62295000D01*
X55349000Y-62295000D01*
X55349000Y-63997000D01*
G37*
G36*
X24806000Y-63531000D02*
G01*
X23004000Y-63531000D01*
X23004000Y-61729000D01*
X24806000Y-61729000D01*
X24806000Y-63531000D01*
G37*
G36*
X34331000Y-63531000D02*
G01*
X32529000Y-63531000D01*
X32529000Y-61729000D01*
X34331000Y-61729000D01*
X34331000Y-63531000D01*
G37*
G36*
X78351000Y-63476000D02*
G01*
X77249000Y-63476000D01*
X77249000Y-62124000D01*
X78351000Y-62124000D01*
X78351000Y-63476000D01*
G37*
G36*
X76351000Y-63476000D02*
G01*
X75249000Y-63476000D01*
X75249000Y-62124000D01*
X76351000Y-62124000D01*
X76351000Y-63476000D01*
G37*
G36*
X91256000Y-63271000D02*
G01*
X89904000Y-63271000D01*
X89904000Y-62169000D01*
X91256000Y-62169000D01*
X91256000Y-63271000D01*
G37*
G36*
X69251000Y-63051000D02*
G01*
X68649000Y-63051000D01*
X68649000Y-62349000D01*
X69251000Y-62349000D01*
X69251000Y-63051000D01*
G37*
G36*
X62531000Y-62391000D02*
G01*
X61929000Y-62391000D01*
X61929000Y-61689000D01*
X62531000Y-61689000D01*
X62531000Y-62391000D01*
G37*
G36*
X73401000Y-60814001D02*
G01*
X73403402Y-60838387D01*
X73410515Y-60861836D01*
X73422066Y-60883447D01*
X73437611Y-60902389D01*
X73456553Y-60917934D01*
X73478164Y-60929485D01*
X73501613Y-60936598D01*
X73525999Y-60939000D01*
X74331000Y-60939000D01*
X74331000Y-61541000D01*
X73629000Y-61541000D01*
X73629000Y-61175999D01*
X73626598Y-61151613D01*
X73619485Y-61128164D01*
X73607934Y-61106553D01*
X73592389Y-61087611D01*
X73573447Y-61072066D01*
X73551836Y-61060515D01*
X73528387Y-61053402D01*
X73504001Y-61051000D01*
X72699000Y-61051000D01*
X72699000Y-60449000D01*
X73401000Y-60449000D01*
X73401000Y-60814001D01*
G37*
G36*
X75431000Y-61541000D02*
G01*
X74729000Y-61541000D01*
X74729000Y-60939000D01*
X75431000Y-60939000D01*
X75431000Y-61541000D01*
G37*
G36*
X55349000Y-61457000D02*
G01*
X52147000Y-61457000D01*
X52147000Y-59755000D01*
X55349000Y-59755000D01*
X55349000Y-61457000D01*
G37*
G36*
X38839000Y-61457000D02*
G01*
X35637000Y-61457000D01*
X35637000Y-59755000D01*
X38839000Y-59755000D01*
X38839000Y-61457000D01*
G37*
G36*
X62531000Y-61291000D02*
G01*
X61929000Y-61291000D01*
X61929000Y-60589000D01*
X62531000Y-60589000D01*
X62531000Y-61291000D01*
G37*
G36*
X91256000Y-61271000D02*
G01*
X89904000Y-61271000D01*
X89904000Y-60169000D01*
X91256000Y-60169000D01*
X91256000Y-61271000D01*
G37*
G36*
X72301000Y-61051000D02*
G01*
X71599000Y-61051000D01*
X71599000Y-60449000D01*
X72301000Y-60449000D01*
X72301000Y-61051000D01*
G37*
G36*
X65381000Y-60611000D02*
G01*
X64679000Y-60611000D01*
X64679000Y-60009000D01*
X65381000Y-60009000D01*
X65381000Y-60611000D01*
G37*
G36*
X64281000Y-60611000D02*
G01*
X63579000Y-60611000D01*
X63579000Y-60009000D01*
X64281000Y-60009000D01*
X64281000Y-60611000D01*
G37*
G36*
X71551000Y-60151000D02*
G01*
X70849000Y-60151000D01*
X70849000Y-59649000D01*
X71551000Y-59649000D01*
X71551000Y-60151000D01*
G37*
G36*
X96744987Y-57701524D02*
G01*
X96763730Y-57707210D01*
X96780997Y-57716439D01*
X96796138Y-57728865D01*
X96803375Y-57737683D01*
X96820702Y-57755010D01*
X96841076Y-57768623D01*
X96863715Y-57778001D01*
X96887748Y-57782781D01*
X96912252Y-57782781D01*
X96936285Y-57778001D01*
X96958924Y-57768623D01*
X96979299Y-57755009D01*
X96996625Y-57737683D01*
X97003862Y-57728865D01*
X97019003Y-57716439D01*
X97036270Y-57707210D01*
X97055013Y-57701524D01*
X97080640Y-57699000D01*
X97519360Y-57699000D01*
X97544987Y-57701524D01*
X97563730Y-57707210D01*
X97580997Y-57716439D01*
X97596138Y-57728865D01*
X97603375Y-57737683D01*
X97620702Y-57755010D01*
X97641076Y-57768623D01*
X97663715Y-57778001D01*
X97687748Y-57782781D01*
X97712252Y-57782781D01*
X97736285Y-57778001D01*
X97758924Y-57768623D01*
X97779299Y-57755009D01*
X97796625Y-57737683D01*
X97803862Y-57728865D01*
X97819003Y-57716439D01*
X97836270Y-57707210D01*
X97855013Y-57701524D01*
X97880640Y-57699000D01*
X98319360Y-57699000D01*
X98344987Y-57701524D01*
X98363730Y-57707210D01*
X98380997Y-57716439D01*
X98396138Y-57728865D01*
X98403375Y-57737683D01*
X98420702Y-57755010D01*
X98441076Y-57768623D01*
X98463715Y-57778001D01*
X98487748Y-57782781D01*
X98512252Y-57782781D01*
X98536285Y-57778001D01*
X98558924Y-57768623D01*
X98579299Y-57755009D01*
X98596625Y-57737683D01*
X98603862Y-57728865D01*
X98619003Y-57716439D01*
X98636270Y-57707210D01*
X98655013Y-57701524D01*
X98680640Y-57699000D01*
X99119360Y-57699000D01*
X99144987Y-57701524D01*
X99163730Y-57707210D01*
X99180997Y-57716439D01*
X99196138Y-57728865D01*
X99203375Y-57737683D01*
X99220702Y-57755010D01*
X99241076Y-57768623D01*
X99263715Y-57778001D01*
X99287748Y-57782781D01*
X99312252Y-57782781D01*
X99336285Y-57778001D01*
X99358924Y-57768623D01*
X99379299Y-57755009D01*
X99396625Y-57737683D01*
X99403862Y-57728865D01*
X99419003Y-57716439D01*
X99436270Y-57707210D01*
X99455013Y-57701524D01*
X99480640Y-57699000D01*
X99919360Y-57699000D01*
X99944987Y-57701524D01*
X99963730Y-57707210D01*
X99980997Y-57716439D01*
X99996138Y-57728865D01*
X100003375Y-57737683D01*
X100020702Y-57755010D01*
X100041076Y-57768623D01*
X100063715Y-57778001D01*
X100087748Y-57782781D01*
X100112252Y-57782781D01*
X100136285Y-57778001D01*
X100158924Y-57768623D01*
X100179299Y-57755009D01*
X100196625Y-57737683D01*
X100203862Y-57728865D01*
X100219003Y-57716439D01*
X100236270Y-57707210D01*
X100255013Y-57701524D01*
X100280640Y-57699000D01*
X100719360Y-57699000D01*
X100744987Y-57701524D01*
X100763730Y-57707210D01*
X100780997Y-57716439D01*
X100796138Y-57728865D01*
X100803375Y-57737683D01*
X100820702Y-57755010D01*
X100841076Y-57768623D01*
X100863715Y-57778001D01*
X100887748Y-57782781D01*
X100912252Y-57782781D01*
X100936285Y-57778001D01*
X100958924Y-57768623D01*
X100979299Y-57755009D01*
X100996625Y-57737683D01*
X101003862Y-57728865D01*
X101019003Y-57716439D01*
X101036270Y-57707210D01*
X101055013Y-57701524D01*
X101080640Y-57699000D01*
X101519360Y-57699000D01*
X101544987Y-57701524D01*
X101563730Y-57707210D01*
X101580997Y-57716439D01*
X101596138Y-57728865D01*
X101603375Y-57737683D01*
X101620702Y-57755010D01*
X101641076Y-57768623D01*
X101663715Y-57778001D01*
X101687748Y-57782781D01*
X101712252Y-57782781D01*
X101736285Y-57778001D01*
X101758924Y-57768623D01*
X101779299Y-57755009D01*
X101796625Y-57737683D01*
X101803862Y-57728865D01*
X101819003Y-57716439D01*
X101836270Y-57707210D01*
X101855013Y-57701524D01*
X101880640Y-57699000D01*
X102319360Y-57699000D01*
X102344987Y-57701524D01*
X102363730Y-57707210D01*
X102380997Y-57716439D01*
X102396138Y-57728865D01*
X102403375Y-57737683D01*
X102420702Y-57755010D01*
X102441076Y-57768623D01*
X102463715Y-57778001D01*
X102487748Y-57782781D01*
X102512252Y-57782781D01*
X102536285Y-57778001D01*
X102558924Y-57768623D01*
X102579299Y-57755009D01*
X102596625Y-57737683D01*
X102603862Y-57728865D01*
X102619003Y-57716439D01*
X102636270Y-57707210D01*
X102655013Y-57701524D01*
X102680640Y-57699000D01*
X103119360Y-57699000D01*
X103144987Y-57701524D01*
X103163730Y-57707210D01*
X103180997Y-57716439D01*
X103196138Y-57728865D01*
X103203375Y-57737683D01*
X103220702Y-57755010D01*
X103241076Y-57768623D01*
X103263715Y-57778001D01*
X103287748Y-57782781D01*
X103312252Y-57782781D01*
X103336285Y-57778001D01*
X103358924Y-57768623D01*
X103379299Y-57755009D01*
X103396625Y-57737683D01*
X103403862Y-57728865D01*
X103419003Y-57716439D01*
X103436270Y-57707210D01*
X103455013Y-57701524D01*
X103480640Y-57699000D01*
X103919360Y-57699000D01*
X103944987Y-57701524D01*
X103963730Y-57707210D01*
X103980997Y-57716439D01*
X103996138Y-57728865D01*
X104003375Y-57737683D01*
X104020702Y-57755010D01*
X104041076Y-57768623D01*
X104063715Y-57778001D01*
X104087748Y-57782781D01*
X104112252Y-57782781D01*
X104136285Y-57778001D01*
X104158924Y-57768623D01*
X104179299Y-57755009D01*
X104196625Y-57737683D01*
X104203862Y-57728865D01*
X104219003Y-57716439D01*
X104236270Y-57707210D01*
X104255013Y-57701524D01*
X104280640Y-57699000D01*
X104719360Y-57699000D01*
X104744987Y-57701524D01*
X104763730Y-57707210D01*
X104780997Y-57716439D01*
X104796138Y-57728865D01*
X104803375Y-57737683D01*
X104820702Y-57755010D01*
X104841076Y-57768623D01*
X104863715Y-57778001D01*
X104887748Y-57782781D01*
X104912252Y-57782781D01*
X104936285Y-57778001D01*
X104958924Y-57768623D01*
X104979299Y-57755009D01*
X104996625Y-57737683D01*
X105003862Y-57728865D01*
X105019003Y-57716439D01*
X105036270Y-57707210D01*
X105055013Y-57701524D01*
X105080640Y-57699000D01*
X105519360Y-57699000D01*
X105544987Y-57701524D01*
X105563730Y-57707210D01*
X105580997Y-57716439D01*
X105596138Y-57728865D01*
X105603375Y-57737683D01*
X105620702Y-57755010D01*
X105641076Y-57768623D01*
X105663715Y-57778001D01*
X105687748Y-57782781D01*
X105712252Y-57782781D01*
X105736285Y-57778001D01*
X105758924Y-57768623D01*
X105779299Y-57755009D01*
X105796625Y-57737683D01*
X105803862Y-57728865D01*
X105819003Y-57716439D01*
X105836270Y-57707210D01*
X105855013Y-57701524D01*
X105880640Y-57699000D01*
X106319360Y-57699000D01*
X106344987Y-57701524D01*
X106363730Y-57707210D01*
X106380997Y-57716439D01*
X106396138Y-57728865D01*
X106403375Y-57737683D01*
X106420702Y-57755010D01*
X106441076Y-57768623D01*
X106463715Y-57778001D01*
X106487748Y-57782781D01*
X106512252Y-57782781D01*
X106536285Y-57778001D01*
X106558924Y-57768623D01*
X106579299Y-57755009D01*
X106596625Y-57737683D01*
X106603862Y-57728865D01*
X106619003Y-57716439D01*
X106636270Y-57707210D01*
X106655013Y-57701524D01*
X106680640Y-57699000D01*
X107119360Y-57699000D01*
X107144987Y-57701524D01*
X107163730Y-57707210D01*
X107180997Y-57716439D01*
X107196138Y-57728865D01*
X107203375Y-57737683D01*
X107220702Y-57755010D01*
X107241076Y-57768623D01*
X107263715Y-57778001D01*
X107287748Y-57782781D01*
X107312252Y-57782781D01*
X107336285Y-57778001D01*
X107358924Y-57768623D01*
X107379299Y-57755009D01*
X107396625Y-57737683D01*
X107403862Y-57728865D01*
X107419003Y-57716439D01*
X107436270Y-57707210D01*
X107455013Y-57701524D01*
X107480640Y-57699000D01*
X107919360Y-57699000D01*
X107944987Y-57701524D01*
X107963730Y-57707210D01*
X107980997Y-57716439D01*
X107996138Y-57728865D01*
X108003375Y-57737683D01*
X108020702Y-57755010D01*
X108041076Y-57768623D01*
X108063715Y-57778001D01*
X108087748Y-57782781D01*
X108112252Y-57782781D01*
X108136285Y-57778001D01*
X108158924Y-57768623D01*
X108179299Y-57755009D01*
X108196625Y-57737683D01*
X108203862Y-57728865D01*
X108219003Y-57716439D01*
X108236270Y-57707210D01*
X108255013Y-57701524D01*
X108280640Y-57699000D01*
X108719360Y-57699000D01*
X108744987Y-57701524D01*
X108763730Y-57707210D01*
X108780997Y-57716439D01*
X108796138Y-57728865D01*
X108803375Y-57737683D01*
X108820702Y-57755010D01*
X108841076Y-57768623D01*
X108863715Y-57778001D01*
X108887748Y-57782781D01*
X108912252Y-57782781D01*
X108936285Y-57778001D01*
X108958924Y-57768623D01*
X108979299Y-57755009D01*
X108996625Y-57737683D01*
X109003862Y-57728865D01*
X109019003Y-57716439D01*
X109036270Y-57707210D01*
X109055013Y-57701524D01*
X109080640Y-57699000D01*
X109519360Y-57699000D01*
X109544987Y-57701524D01*
X109563730Y-57707210D01*
X109580997Y-57716439D01*
X109596138Y-57728865D01*
X109603375Y-57737683D01*
X109620702Y-57755010D01*
X109641076Y-57768623D01*
X109663715Y-57778001D01*
X109687748Y-57782781D01*
X109712252Y-57782781D01*
X109736285Y-57778001D01*
X109758924Y-57768623D01*
X109779299Y-57755009D01*
X109796625Y-57737683D01*
X109803862Y-57728865D01*
X109819003Y-57716439D01*
X109836270Y-57707210D01*
X109855013Y-57701524D01*
X109880640Y-57699000D01*
X110319360Y-57699000D01*
X110344987Y-57701524D01*
X110363730Y-57707210D01*
X110380997Y-57716439D01*
X110396138Y-57728865D01*
X110403375Y-57737683D01*
X110420702Y-57755010D01*
X110441076Y-57768623D01*
X110463715Y-57778001D01*
X110487748Y-57782781D01*
X110512252Y-57782781D01*
X110536285Y-57778001D01*
X110558924Y-57768623D01*
X110579299Y-57755009D01*
X110596625Y-57737683D01*
X110603862Y-57728865D01*
X110619003Y-57716439D01*
X110636270Y-57707210D01*
X110655013Y-57701524D01*
X110680640Y-57699000D01*
X111119360Y-57699000D01*
X111144987Y-57701524D01*
X111163730Y-57707210D01*
X111180997Y-57716439D01*
X111196138Y-57728865D01*
X111203375Y-57737683D01*
X111220702Y-57755010D01*
X111241076Y-57768623D01*
X111263715Y-57778001D01*
X111287748Y-57782781D01*
X111312252Y-57782781D01*
X111336285Y-57778001D01*
X111358924Y-57768623D01*
X111379299Y-57755009D01*
X111396625Y-57737683D01*
X111403862Y-57728865D01*
X111419003Y-57716439D01*
X111436270Y-57707210D01*
X111455013Y-57701524D01*
X111480640Y-57699000D01*
X111919360Y-57699000D01*
X111944987Y-57701524D01*
X111963730Y-57707210D01*
X111980997Y-57716439D01*
X111996138Y-57728865D01*
X112003375Y-57737683D01*
X112020702Y-57755010D01*
X112041076Y-57768623D01*
X112063715Y-57778001D01*
X112087748Y-57782781D01*
X112112252Y-57782781D01*
X112136285Y-57778001D01*
X112158924Y-57768623D01*
X112179299Y-57755009D01*
X112196625Y-57737683D01*
X112203862Y-57728865D01*
X112219003Y-57716439D01*
X112236270Y-57707210D01*
X112255013Y-57701524D01*
X112280640Y-57699000D01*
X112719360Y-57699000D01*
X112744987Y-57701524D01*
X112763730Y-57707210D01*
X112780997Y-57716439D01*
X112796138Y-57728865D01*
X112803375Y-57737683D01*
X112820702Y-57755010D01*
X112841076Y-57768623D01*
X112863715Y-57778001D01*
X112887748Y-57782781D01*
X112912252Y-57782781D01*
X112936285Y-57778001D01*
X112958924Y-57768623D01*
X112979299Y-57755009D01*
X112996625Y-57737683D01*
X113003862Y-57728865D01*
X113019003Y-57716439D01*
X113036270Y-57707210D01*
X113055013Y-57701524D01*
X113080640Y-57699000D01*
X113519360Y-57699000D01*
X113544987Y-57701524D01*
X113563730Y-57707210D01*
X113580997Y-57716439D01*
X113596136Y-57728864D01*
X113608561Y-57744003D01*
X113617790Y-57761270D01*
X113623476Y-57780013D01*
X113626000Y-57805640D01*
X113626000Y-59219360D01*
X113623476Y-59244987D01*
X113617790Y-59263730D01*
X113608561Y-59280997D01*
X113596136Y-59296136D01*
X113580997Y-59308561D01*
X113563730Y-59317790D01*
X113544987Y-59323476D01*
X113519360Y-59326000D01*
X113080640Y-59326000D01*
X113055013Y-59323476D01*
X113036270Y-59317790D01*
X113019003Y-59308561D01*
X113003862Y-59296135D01*
X112996625Y-59287317D01*
X112979298Y-59269990D01*
X112958924Y-59256377D01*
X112936285Y-59246999D01*
X112912252Y-59242219D01*
X112887748Y-59242219D01*
X112863715Y-59246999D01*
X112841076Y-59256377D01*
X112820701Y-59269991D01*
X112803375Y-59287317D01*
X112796138Y-59296135D01*
X112780997Y-59308561D01*
X112763730Y-59317790D01*
X112744987Y-59323476D01*
X112719360Y-59326000D01*
X112280640Y-59326000D01*
X112255013Y-59323476D01*
X112236270Y-59317790D01*
X112219003Y-59308561D01*
X112203862Y-59296135D01*
X112196625Y-59287317D01*
X112179298Y-59269990D01*
X112158924Y-59256377D01*
X112136285Y-59246999D01*
X112112252Y-59242219D01*
X112087748Y-59242219D01*
X112063715Y-59246999D01*
X112041076Y-59256377D01*
X112020701Y-59269991D01*
X112003375Y-59287317D01*
X111996138Y-59296135D01*
X111980997Y-59308561D01*
X111963730Y-59317790D01*
X111944987Y-59323476D01*
X111919360Y-59326000D01*
X111480640Y-59326000D01*
X111455013Y-59323476D01*
X111436270Y-59317790D01*
X111419003Y-59308561D01*
X111403862Y-59296135D01*
X111396625Y-59287317D01*
X111379298Y-59269990D01*
X111358924Y-59256377D01*
X111336285Y-59246999D01*
X111312252Y-59242219D01*
X111287748Y-59242219D01*
X111263715Y-59246999D01*
X111241076Y-59256377D01*
X111220701Y-59269991D01*
X111203375Y-59287317D01*
X111196138Y-59296135D01*
X111180997Y-59308561D01*
X111163730Y-59317790D01*
X111144987Y-59323476D01*
X111119360Y-59326000D01*
X110680640Y-59326000D01*
X110655013Y-59323476D01*
X110636270Y-59317790D01*
X110619003Y-59308561D01*
X110603862Y-59296135D01*
X110596625Y-59287317D01*
X110579298Y-59269990D01*
X110558924Y-59256377D01*
X110536285Y-59246999D01*
X110512252Y-59242219D01*
X110487748Y-59242219D01*
X110463715Y-59246999D01*
X110441076Y-59256377D01*
X110420701Y-59269991D01*
X110403375Y-59287317D01*
X110396138Y-59296135D01*
X110380997Y-59308561D01*
X110363730Y-59317790D01*
X110344987Y-59323476D01*
X110319360Y-59326000D01*
X109880640Y-59326000D01*
X109855013Y-59323476D01*
X109836270Y-59317790D01*
X109819003Y-59308561D01*
X109803862Y-59296135D01*
X109796625Y-59287317D01*
X109779298Y-59269990D01*
X109758924Y-59256377D01*
X109736285Y-59246999D01*
X109712252Y-59242219D01*
X109687748Y-59242219D01*
X109663715Y-59246999D01*
X109641076Y-59256377D01*
X109620701Y-59269991D01*
X109603375Y-59287317D01*
X109596138Y-59296135D01*
X109580997Y-59308561D01*
X109563730Y-59317790D01*
X109544987Y-59323476D01*
X109519360Y-59326000D01*
X109080640Y-59326000D01*
X109055013Y-59323476D01*
X109036270Y-59317790D01*
X109019003Y-59308561D01*
X109003862Y-59296135D01*
X108996625Y-59287317D01*
X108979298Y-59269990D01*
X108958924Y-59256377D01*
X108936285Y-59246999D01*
X108912252Y-59242219D01*
X108887748Y-59242219D01*
X108863715Y-59246999D01*
X108841076Y-59256377D01*
X108820701Y-59269991D01*
X108803375Y-59287317D01*
X108796138Y-59296135D01*
X108780997Y-59308561D01*
X108763730Y-59317790D01*
X108744987Y-59323476D01*
X108719360Y-59326000D01*
X108280640Y-59326000D01*
X108255013Y-59323476D01*
X108236270Y-59317790D01*
X108219003Y-59308561D01*
X108203862Y-59296135D01*
X108196625Y-59287317D01*
X108179298Y-59269990D01*
X108158924Y-59256377D01*
X108136285Y-59246999D01*
X108112252Y-59242219D01*
X108087748Y-59242219D01*
X108063715Y-59246999D01*
X108041076Y-59256377D01*
X108020701Y-59269991D01*
X108003375Y-59287317D01*
X107996138Y-59296135D01*
X107980997Y-59308561D01*
X107963730Y-59317790D01*
X107944987Y-59323476D01*
X107919360Y-59326000D01*
X107480640Y-59326000D01*
X107455013Y-59323476D01*
X107436270Y-59317790D01*
X107419003Y-59308561D01*
X107403862Y-59296135D01*
X107396625Y-59287317D01*
X107379298Y-59269990D01*
X107358924Y-59256377D01*
X107336285Y-59246999D01*
X107312252Y-59242219D01*
X107287748Y-59242219D01*
X107263715Y-59246999D01*
X107241076Y-59256377D01*
X107220701Y-59269991D01*
X107203375Y-59287317D01*
X107196138Y-59296135D01*
X107180997Y-59308561D01*
X107163730Y-59317790D01*
X107144987Y-59323476D01*
X107119360Y-59326000D01*
X106680640Y-59326000D01*
X106655013Y-59323476D01*
X106636270Y-59317790D01*
X106619003Y-59308561D01*
X106603862Y-59296135D01*
X106596625Y-59287317D01*
X106579298Y-59269990D01*
X106558924Y-59256377D01*
X106536285Y-59246999D01*
X106512252Y-59242219D01*
X106487748Y-59242219D01*
X106463715Y-59246999D01*
X106441076Y-59256377D01*
X106420701Y-59269991D01*
X106403375Y-59287317D01*
X106396138Y-59296135D01*
X106380997Y-59308561D01*
X106363730Y-59317790D01*
X106344987Y-59323476D01*
X106319360Y-59326000D01*
X105880640Y-59326000D01*
X105855013Y-59323476D01*
X105836270Y-59317790D01*
X105819003Y-59308561D01*
X105803862Y-59296135D01*
X105796625Y-59287317D01*
X105779298Y-59269990D01*
X105758924Y-59256377D01*
X105736285Y-59246999D01*
X105712252Y-59242219D01*
X105687748Y-59242219D01*
X105663715Y-59246999D01*
X105641076Y-59256377D01*
X105620701Y-59269991D01*
X105603375Y-59287317D01*
X105596138Y-59296135D01*
X105580997Y-59308561D01*
X105563730Y-59317790D01*
X105544987Y-59323476D01*
X105519360Y-59326000D01*
X105080640Y-59326000D01*
X105055013Y-59323476D01*
X105036270Y-59317790D01*
X105019003Y-59308561D01*
X105003862Y-59296135D01*
X104996625Y-59287317D01*
X104979298Y-59269990D01*
X104958924Y-59256377D01*
X104936285Y-59246999D01*
X104912252Y-59242219D01*
X104887748Y-59242219D01*
X104863715Y-59246999D01*
X104841076Y-59256377D01*
X104820701Y-59269991D01*
X104803375Y-59287317D01*
X104796138Y-59296135D01*
X104780997Y-59308561D01*
X104763730Y-59317790D01*
X104744987Y-59323476D01*
X104719360Y-59326000D01*
X104280640Y-59326000D01*
X104255013Y-59323476D01*
X104236270Y-59317790D01*
X104219003Y-59308561D01*
X104203862Y-59296135D01*
X104196625Y-59287317D01*
X104179298Y-59269990D01*
X104158924Y-59256377D01*
X104136285Y-59246999D01*
X104112252Y-59242219D01*
X104087748Y-59242219D01*
X104063715Y-59246999D01*
X104041076Y-59256377D01*
X104020701Y-59269991D01*
X104003375Y-59287317D01*
X103996138Y-59296135D01*
X103980997Y-59308561D01*
X103963730Y-59317790D01*
X103944987Y-59323476D01*
X103919360Y-59326000D01*
X103480640Y-59326000D01*
X103455013Y-59323476D01*
X103436270Y-59317790D01*
X103419003Y-59308561D01*
X103403862Y-59296135D01*
X103396625Y-59287317D01*
X103379298Y-59269990D01*
X103358924Y-59256377D01*
X103336285Y-59246999D01*
X103312252Y-59242219D01*
X103287748Y-59242219D01*
X103263715Y-59246999D01*
X103241076Y-59256377D01*
X103220701Y-59269991D01*
X103203375Y-59287317D01*
X103196138Y-59296135D01*
X103180997Y-59308561D01*
X103163730Y-59317790D01*
X103144987Y-59323476D01*
X103119360Y-59326000D01*
X102680640Y-59326000D01*
X102655013Y-59323476D01*
X102636270Y-59317790D01*
X102619003Y-59308561D01*
X102603862Y-59296135D01*
X102596625Y-59287317D01*
X102579298Y-59269990D01*
X102558924Y-59256377D01*
X102536285Y-59246999D01*
X102512252Y-59242219D01*
X102487748Y-59242219D01*
X102463715Y-59246999D01*
X102441076Y-59256377D01*
X102420701Y-59269991D01*
X102403375Y-59287317D01*
X102396138Y-59296135D01*
X102380997Y-59308561D01*
X102363730Y-59317790D01*
X102344987Y-59323476D01*
X102319360Y-59326000D01*
X101880640Y-59326000D01*
X101855013Y-59323476D01*
X101836270Y-59317790D01*
X101819003Y-59308561D01*
X101803862Y-59296135D01*
X101796625Y-59287317D01*
X101779298Y-59269990D01*
X101758924Y-59256377D01*
X101736285Y-59246999D01*
X101712252Y-59242219D01*
X101687748Y-59242219D01*
X101663715Y-59246999D01*
X101641076Y-59256377D01*
X101620701Y-59269991D01*
X101603375Y-59287317D01*
X101596138Y-59296135D01*
X101580997Y-59308561D01*
X101563730Y-59317790D01*
X101544987Y-59323476D01*
X101519360Y-59326000D01*
X101080640Y-59326000D01*
X101055013Y-59323476D01*
X101036270Y-59317790D01*
X101019003Y-59308561D01*
X101003862Y-59296135D01*
X100996625Y-59287317D01*
X100979298Y-59269990D01*
X100958924Y-59256377D01*
X100936285Y-59246999D01*
X100912252Y-59242219D01*
X100887748Y-59242219D01*
X100863715Y-59246999D01*
X100841076Y-59256377D01*
X100820701Y-59269991D01*
X100803375Y-59287317D01*
X100796138Y-59296135D01*
X100780997Y-59308561D01*
X100763730Y-59317790D01*
X100744987Y-59323476D01*
X100719360Y-59326000D01*
X100280640Y-59326000D01*
X100255013Y-59323476D01*
X100236270Y-59317790D01*
X100219003Y-59308561D01*
X100203862Y-59296135D01*
X100196625Y-59287317D01*
X100179298Y-59269990D01*
X100158924Y-59256377D01*
X100136285Y-59246999D01*
X100112252Y-59242219D01*
X100087748Y-59242219D01*
X100063715Y-59246999D01*
X100041076Y-59256377D01*
X100020701Y-59269991D01*
X100003375Y-59287317D01*
X99996138Y-59296135D01*
X99980997Y-59308561D01*
X99963730Y-59317790D01*
X99944987Y-59323476D01*
X99919360Y-59326000D01*
X99480640Y-59326000D01*
X99455013Y-59323476D01*
X99436270Y-59317790D01*
X99419003Y-59308561D01*
X99403862Y-59296135D01*
X99396625Y-59287317D01*
X99379298Y-59269990D01*
X99358924Y-59256377D01*
X99336285Y-59246999D01*
X99312252Y-59242219D01*
X99287748Y-59242219D01*
X99263715Y-59246999D01*
X99241076Y-59256377D01*
X99220701Y-59269991D01*
X99203375Y-59287317D01*
X99196138Y-59296135D01*
X99180997Y-59308561D01*
X99163730Y-59317790D01*
X99144987Y-59323476D01*
X99119360Y-59326000D01*
X98680640Y-59326000D01*
X98655013Y-59323476D01*
X98636270Y-59317790D01*
X98619003Y-59308561D01*
X98603862Y-59296135D01*
X98596625Y-59287317D01*
X98579298Y-59269990D01*
X98558924Y-59256377D01*
X98536285Y-59246999D01*
X98512252Y-59242219D01*
X98487748Y-59242219D01*
X98463715Y-59246999D01*
X98441076Y-59256377D01*
X98420701Y-59269991D01*
X98403375Y-59287317D01*
X98396138Y-59296135D01*
X98380997Y-59308561D01*
X98363730Y-59317790D01*
X98344987Y-59323476D01*
X98319360Y-59326000D01*
X97880640Y-59326000D01*
X97855013Y-59323476D01*
X97836270Y-59317790D01*
X97819003Y-59308561D01*
X97803862Y-59296135D01*
X97796625Y-59287317D01*
X97779298Y-59269990D01*
X97758924Y-59256377D01*
X97736285Y-59246999D01*
X97712252Y-59242219D01*
X97687748Y-59242219D01*
X97663715Y-59246999D01*
X97641076Y-59256377D01*
X97620701Y-59269991D01*
X97603375Y-59287317D01*
X97596138Y-59296135D01*
X97580997Y-59308561D01*
X97563730Y-59317790D01*
X97544987Y-59323476D01*
X97519360Y-59326000D01*
X97080640Y-59326000D01*
X97055013Y-59323476D01*
X97036270Y-59317790D01*
X97019003Y-59308561D01*
X97003862Y-59296135D01*
X96996625Y-59287317D01*
X96979298Y-59269990D01*
X96958924Y-59256377D01*
X96936285Y-59246999D01*
X96912252Y-59242219D01*
X96887748Y-59242219D01*
X96863715Y-59246999D01*
X96841076Y-59256377D01*
X96820701Y-59269991D01*
X96803375Y-59287317D01*
X96796138Y-59296135D01*
X96780997Y-59308561D01*
X96763730Y-59317790D01*
X96744987Y-59323476D01*
X96719360Y-59326000D01*
X96280640Y-59326000D01*
X96255013Y-59323476D01*
X96236270Y-59317790D01*
X96219003Y-59308561D01*
X96203864Y-59296136D01*
X96191439Y-59280997D01*
X96182210Y-59263730D01*
X96176524Y-59244987D01*
X96174000Y-59219360D01*
X96174000Y-57805640D01*
X96176524Y-57780013D01*
X96182210Y-57761270D01*
X96191439Y-57744003D01*
X96203864Y-57728864D01*
X96219003Y-57716439D01*
X96236270Y-57707210D01*
X96255013Y-57701524D01*
X96280640Y-57699000D01*
X96719360Y-57699000D01*
X96744987Y-57701524D01*
G37*
G36*
X71551000Y-59251000D02*
G01*
X70849000Y-59251000D01*
X70849000Y-58749000D01*
X71551000Y-58749000D01*
X71551000Y-59251000D01*
G37*
G36*
X38839000Y-58917000D02*
G01*
X35637000Y-58917000D01*
X35637000Y-57215000D01*
X38839000Y-57215000D01*
X38839000Y-58917000D01*
G37*
G36*
X55349000Y-58917000D02*
G01*
X52147000Y-58917000D01*
X52147000Y-57215000D01*
X55349000Y-57215000D01*
X55349000Y-58917000D01*
G37*
G36*
X24018512Y-56653927D02*
G01*
X24167812Y-56683624D01*
X24331784Y-56751544D01*
X24479354Y-56850147D01*
X24604853Y-56975646D01*
X24703456Y-57123216D01*
X24771376Y-57287188D01*
X24806000Y-57461259D01*
X24806000Y-57638741D01*
X24771376Y-57812812D01*
X24703456Y-57976784D01*
X24604853Y-58124354D01*
X24479354Y-58249853D01*
X24331784Y-58348456D01*
X24167812Y-58416376D01*
X24018512Y-58446073D01*
X23993742Y-58451000D01*
X23816258Y-58451000D01*
X23791488Y-58446073D01*
X23642188Y-58416376D01*
X23478216Y-58348456D01*
X23330646Y-58249853D01*
X23205147Y-58124354D01*
X23106544Y-57976784D01*
X23038624Y-57812812D01*
X23004000Y-57638741D01*
X23004000Y-57461259D01*
X23038624Y-57287188D01*
X23106544Y-57123216D01*
X23205147Y-56975646D01*
X23330646Y-56850147D01*
X23478216Y-56751544D01*
X23642188Y-56683624D01*
X23791488Y-56653927D01*
X23816258Y-56649000D01*
X23993742Y-56649000D01*
X24018512Y-56653927D01*
G37*
G36*
X68271000Y-57851000D02*
G01*
X67569000Y-57851000D01*
X67569000Y-57249000D01*
X68271000Y-57249000D01*
X68271000Y-57851000D01*
G37*
G36*
X69371000Y-57851000D02*
G01*
X68669000Y-57851000D01*
X68669000Y-57249000D01*
X69371000Y-57249000D01*
X69371000Y-57851000D01*
G37*
G36*
X64521000Y-56901000D02*
G01*
X63819000Y-56901000D01*
X63819000Y-56299000D01*
X64521000Y-56299000D01*
X64521000Y-56901000D01*
G37*
G36*
X63421000Y-56901000D02*
G01*
X62719000Y-56901000D01*
X62719000Y-56299000D01*
X63421000Y-56299000D01*
X63421000Y-56901000D01*
G37*
G36*
X55349000Y-56377000D02*
G01*
X52147000Y-56377000D01*
X52147000Y-54675000D01*
X55349000Y-54675000D01*
X55349000Y-56377000D01*
G37*
G36*
X38839000Y-56377000D02*
G01*
X35637000Y-56377000D01*
X35637000Y-54675000D01*
X38839000Y-54675000D01*
X38839000Y-56377000D01*
G37*
G36*
X24018512Y-54113927D02*
G01*
X24167812Y-54143624D01*
X24331784Y-54211544D01*
X24479354Y-54310147D01*
X24604853Y-54435646D01*
X24703456Y-54583216D01*
X24771376Y-54747188D01*
X24806000Y-54921259D01*
X24806000Y-55098741D01*
X24771376Y-55272812D01*
X24703456Y-55436784D01*
X24604853Y-55584354D01*
X24479354Y-55709853D01*
X24331784Y-55808456D01*
X24167812Y-55876376D01*
X24018512Y-55906073D01*
X23993742Y-55911000D01*
X23816258Y-55911000D01*
X23791488Y-55906073D01*
X23642188Y-55876376D01*
X23478216Y-55808456D01*
X23330646Y-55709853D01*
X23205147Y-55584354D01*
X23106544Y-55436784D01*
X23038624Y-55272812D01*
X23004000Y-55098741D01*
X23004000Y-54921259D01*
X23038624Y-54747188D01*
X23106544Y-54583216D01*
X23205147Y-54435646D01*
X23330646Y-54310147D01*
X23478216Y-54211544D01*
X23642188Y-54143624D01*
X23791488Y-54113927D01*
X23816258Y-54109000D01*
X23993742Y-54109000D01*
X24018512Y-54113927D01*
G37*
G36*
X33543512Y-54113927D02*
G01*
X33692812Y-54143624D01*
X33856784Y-54211544D01*
X34004354Y-54310147D01*
X34129853Y-54435646D01*
X34228456Y-54583216D01*
X34296376Y-54747188D01*
X34331000Y-54921259D01*
X34331000Y-55098741D01*
X34296376Y-55272812D01*
X34228456Y-55436784D01*
X34129853Y-55584354D01*
X34004354Y-55709853D01*
X33856784Y-55808456D01*
X33692812Y-55876376D01*
X33543512Y-55906073D01*
X33518742Y-55911000D01*
X33341258Y-55911000D01*
X33316488Y-55906073D01*
X33167188Y-55876376D01*
X33003216Y-55808456D01*
X32855646Y-55709853D01*
X32730147Y-55584354D01*
X32631544Y-55436784D01*
X32563624Y-55272812D01*
X32529000Y-55098741D01*
X32529000Y-54921259D01*
X32563624Y-54747188D01*
X32631544Y-54583216D01*
X32730147Y-54435646D01*
X32855646Y-54310147D01*
X33003216Y-54211544D01*
X33167188Y-54143624D01*
X33316488Y-54113927D01*
X33341258Y-54109000D01*
X33518742Y-54109000D01*
X33543512Y-54113927D01*
G37*
G36*
X69411000Y-55761000D02*
G01*
X68709000Y-55761000D01*
X68709000Y-55159000D01*
X69411000Y-55159000D01*
X69411000Y-55761000D01*
G37*
G36*
X68311000Y-55761000D02*
G01*
X67609000Y-55761000D01*
X67609000Y-55159000D01*
X68311000Y-55159000D01*
X68311000Y-55761000D01*
G37*
G36*
X96834987Y-53876524D02*
G01*
X96853730Y-53882210D01*
X96870997Y-53891439D01*
X96886138Y-53903865D01*
X96893375Y-53912683D01*
X96910702Y-53930010D01*
X96931076Y-53943623D01*
X96953715Y-53953001D01*
X96977748Y-53957781D01*
X97002252Y-53957781D01*
X97026285Y-53953001D01*
X97048924Y-53943623D01*
X97069299Y-53930009D01*
X97086625Y-53912683D01*
X97093862Y-53903865D01*
X97109003Y-53891439D01*
X97126270Y-53882210D01*
X97145013Y-53876524D01*
X97170640Y-53874000D01*
X97609360Y-53874000D01*
X97634987Y-53876524D01*
X97653730Y-53882210D01*
X97670997Y-53891439D01*
X97686138Y-53903865D01*
X97693375Y-53912683D01*
X97710702Y-53930010D01*
X97731076Y-53943623D01*
X97753715Y-53953001D01*
X97777748Y-53957781D01*
X97802252Y-53957781D01*
X97826285Y-53953001D01*
X97848924Y-53943623D01*
X97869299Y-53930009D01*
X97886625Y-53912683D01*
X97893862Y-53903865D01*
X97909003Y-53891439D01*
X97926270Y-53882210D01*
X97945013Y-53876524D01*
X97970640Y-53874000D01*
X98409360Y-53874000D01*
X98434987Y-53876524D01*
X98453730Y-53882210D01*
X98470997Y-53891439D01*
X98486138Y-53903865D01*
X98493375Y-53912683D01*
X98510702Y-53930010D01*
X98531076Y-53943623D01*
X98553715Y-53953001D01*
X98577748Y-53957781D01*
X98602252Y-53957781D01*
X98626285Y-53953001D01*
X98648924Y-53943623D01*
X98669299Y-53930009D01*
X98686625Y-53912683D01*
X98693862Y-53903865D01*
X98709003Y-53891439D01*
X98726270Y-53882210D01*
X98745013Y-53876524D01*
X98770640Y-53874000D01*
X99209360Y-53874000D01*
X99234987Y-53876524D01*
X99253730Y-53882210D01*
X99270997Y-53891439D01*
X99286138Y-53903865D01*
X99293375Y-53912683D01*
X99310702Y-53930010D01*
X99331076Y-53943623D01*
X99353715Y-53953001D01*
X99377748Y-53957781D01*
X99402252Y-53957781D01*
X99426285Y-53953001D01*
X99448924Y-53943623D01*
X99469299Y-53930009D01*
X99486625Y-53912683D01*
X99493862Y-53903865D01*
X99509003Y-53891439D01*
X99526270Y-53882210D01*
X99545013Y-53876524D01*
X99570640Y-53874000D01*
X100009360Y-53874000D01*
X100034987Y-53876524D01*
X100053730Y-53882210D01*
X100070997Y-53891439D01*
X100086138Y-53903865D01*
X100093375Y-53912683D01*
X100110702Y-53930010D01*
X100131076Y-53943623D01*
X100153715Y-53953001D01*
X100177748Y-53957781D01*
X100202252Y-53957781D01*
X100226285Y-53953001D01*
X100248924Y-53943623D01*
X100269299Y-53930009D01*
X100286625Y-53912683D01*
X100293862Y-53903865D01*
X100309003Y-53891439D01*
X100326270Y-53882210D01*
X100345013Y-53876524D01*
X100370640Y-53874000D01*
X100809360Y-53874000D01*
X100834987Y-53876524D01*
X100853730Y-53882210D01*
X100870997Y-53891439D01*
X100886138Y-53903865D01*
X100893375Y-53912683D01*
X100910702Y-53930010D01*
X100931076Y-53943623D01*
X100953715Y-53953001D01*
X100977748Y-53957781D01*
X101002252Y-53957781D01*
X101026285Y-53953001D01*
X101048924Y-53943623D01*
X101069299Y-53930009D01*
X101086625Y-53912683D01*
X101093862Y-53903865D01*
X101109003Y-53891439D01*
X101126270Y-53882210D01*
X101145013Y-53876524D01*
X101170640Y-53874000D01*
X101609360Y-53874000D01*
X101634987Y-53876524D01*
X101653730Y-53882210D01*
X101670997Y-53891439D01*
X101686138Y-53903865D01*
X101693375Y-53912683D01*
X101710702Y-53930010D01*
X101731076Y-53943623D01*
X101753715Y-53953001D01*
X101777748Y-53957781D01*
X101802252Y-53957781D01*
X101826285Y-53953001D01*
X101848924Y-53943623D01*
X101869299Y-53930009D01*
X101886625Y-53912683D01*
X101893862Y-53903865D01*
X101909003Y-53891439D01*
X101926270Y-53882210D01*
X101945013Y-53876524D01*
X101970640Y-53874000D01*
X102409360Y-53874000D01*
X102434987Y-53876524D01*
X102453730Y-53882210D01*
X102470997Y-53891439D01*
X102486138Y-53903865D01*
X102493375Y-53912683D01*
X102510702Y-53930010D01*
X102531076Y-53943623D01*
X102553715Y-53953001D01*
X102577748Y-53957781D01*
X102602252Y-53957781D01*
X102626285Y-53953001D01*
X102648924Y-53943623D01*
X102669299Y-53930009D01*
X102686625Y-53912683D01*
X102693862Y-53903865D01*
X102709003Y-53891439D01*
X102726270Y-53882210D01*
X102745013Y-53876524D01*
X102770640Y-53874000D01*
X103209360Y-53874000D01*
X103234987Y-53876524D01*
X103253730Y-53882210D01*
X103270997Y-53891439D01*
X103286138Y-53903865D01*
X103293375Y-53912683D01*
X103310702Y-53930010D01*
X103331076Y-53943623D01*
X103353715Y-53953001D01*
X103377748Y-53957781D01*
X103402252Y-53957781D01*
X103426285Y-53953001D01*
X103448924Y-53943623D01*
X103469299Y-53930009D01*
X103486625Y-53912683D01*
X103493862Y-53903865D01*
X103509003Y-53891439D01*
X103526270Y-53882210D01*
X103545013Y-53876524D01*
X103570640Y-53874000D01*
X104009360Y-53874000D01*
X104034987Y-53876524D01*
X104053730Y-53882210D01*
X104070997Y-53891439D01*
X104086138Y-53903865D01*
X104093375Y-53912683D01*
X104110702Y-53930010D01*
X104131076Y-53943623D01*
X104153715Y-53953001D01*
X104177748Y-53957781D01*
X104202252Y-53957781D01*
X104226285Y-53953001D01*
X104248924Y-53943623D01*
X104269299Y-53930009D01*
X104286625Y-53912683D01*
X104293862Y-53903865D01*
X104309003Y-53891439D01*
X104326270Y-53882210D01*
X104345013Y-53876524D01*
X104370640Y-53874000D01*
X104809360Y-53874000D01*
X104834987Y-53876524D01*
X104853730Y-53882210D01*
X104870997Y-53891439D01*
X104886138Y-53903865D01*
X104893375Y-53912683D01*
X104910702Y-53930010D01*
X104931076Y-53943623D01*
X104953715Y-53953001D01*
X104977748Y-53957781D01*
X105002252Y-53957781D01*
X105026285Y-53953001D01*
X105048924Y-53943623D01*
X105069299Y-53930009D01*
X105086625Y-53912683D01*
X105093862Y-53903865D01*
X105109003Y-53891439D01*
X105126270Y-53882210D01*
X105145013Y-53876524D01*
X105170640Y-53874000D01*
X105609360Y-53874000D01*
X105634987Y-53876524D01*
X105653730Y-53882210D01*
X105670997Y-53891439D01*
X105686138Y-53903865D01*
X105693375Y-53912683D01*
X105710702Y-53930010D01*
X105731076Y-53943623D01*
X105753715Y-53953001D01*
X105777748Y-53957781D01*
X105802252Y-53957781D01*
X105826285Y-53953001D01*
X105848924Y-53943623D01*
X105869299Y-53930009D01*
X105886625Y-53912683D01*
X105893862Y-53903865D01*
X105909003Y-53891439D01*
X105926270Y-53882210D01*
X105945013Y-53876524D01*
X105970640Y-53874000D01*
X106409360Y-53874000D01*
X106434987Y-53876524D01*
X106453730Y-53882210D01*
X106470997Y-53891439D01*
X106486138Y-53903865D01*
X106493375Y-53912683D01*
X106510702Y-53930010D01*
X106531076Y-53943623D01*
X106553715Y-53953001D01*
X106577748Y-53957781D01*
X106602252Y-53957781D01*
X106626285Y-53953001D01*
X106648924Y-53943623D01*
X106669299Y-53930009D01*
X106686625Y-53912683D01*
X106693862Y-53903865D01*
X106709003Y-53891439D01*
X106726270Y-53882210D01*
X106745013Y-53876524D01*
X106770640Y-53874000D01*
X107209360Y-53874000D01*
X107234987Y-53876524D01*
X107253730Y-53882210D01*
X107270997Y-53891439D01*
X107286138Y-53903865D01*
X107293375Y-53912683D01*
X107310702Y-53930010D01*
X107331076Y-53943623D01*
X107353715Y-53953001D01*
X107377748Y-53957781D01*
X107402252Y-53957781D01*
X107426285Y-53953001D01*
X107448924Y-53943623D01*
X107469299Y-53930009D01*
X107486625Y-53912683D01*
X107493862Y-53903865D01*
X107509003Y-53891439D01*
X107526270Y-53882210D01*
X107545013Y-53876524D01*
X107570640Y-53874000D01*
X108009360Y-53874000D01*
X108034987Y-53876524D01*
X108053730Y-53882210D01*
X108070997Y-53891439D01*
X108086138Y-53903865D01*
X108093375Y-53912683D01*
X108110702Y-53930010D01*
X108131076Y-53943623D01*
X108153715Y-53953001D01*
X108177748Y-53957781D01*
X108202252Y-53957781D01*
X108226285Y-53953001D01*
X108248924Y-53943623D01*
X108269299Y-53930009D01*
X108286625Y-53912683D01*
X108293862Y-53903865D01*
X108309003Y-53891439D01*
X108326270Y-53882210D01*
X108345013Y-53876524D01*
X108370640Y-53874000D01*
X108809360Y-53874000D01*
X108834987Y-53876524D01*
X108853730Y-53882210D01*
X108870997Y-53891439D01*
X108886138Y-53903865D01*
X108893375Y-53912683D01*
X108910702Y-53930010D01*
X108931076Y-53943623D01*
X108953715Y-53953001D01*
X108977748Y-53957781D01*
X109002252Y-53957781D01*
X109026285Y-53953001D01*
X109048924Y-53943623D01*
X109069299Y-53930009D01*
X109086625Y-53912683D01*
X109093862Y-53903865D01*
X109109003Y-53891439D01*
X109126270Y-53882210D01*
X109145013Y-53876524D01*
X109170640Y-53874000D01*
X109609360Y-53874000D01*
X109634987Y-53876524D01*
X109653730Y-53882210D01*
X109670997Y-53891439D01*
X109686138Y-53903865D01*
X109693375Y-53912683D01*
X109710702Y-53930010D01*
X109731076Y-53943623D01*
X109753715Y-53953001D01*
X109777748Y-53957781D01*
X109802252Y-53957781D01*
X109826285Y-53953001D01*
X109848924Y-53943623D01*
X109869299Y-53930009D01*
X109886625Y-53912683D01*
X109893862Y-53903865D01*
X109909003Y-53891439D01*
X109926270Y-53882210D01*
X109945013Y-53876524D01*
X109970640Y-53874000D01*
X110409360Y-53874000D01*
X110434987Y-53876524D01*
X110453730Y-53882210D01*
X110470997Y-53891439D01*
X110486138Y-53903865D01*
X110493375Y-53912683D01*
X110510702Y-53930010D01*
X110531076Y-53943623D01*
X110553715Y-53953001D01*
X110577748Y-53957781D01*
X110602252Y-53957781D01*
X110626285Y-53953001D01*
X110648924Y-53943623D01*
X110669299Y-53930009D01*
X110686625Y-53912683D01*
X110693862Y-53903865D01*
X110709003Y-53891439D01*
X110726270Y-53882210D01*
X110745013Y-53876524D01*
X110770640Y-53874000D01*
X111209360Y-53874000D01*
X111234987Y-53876524D01*
X111253730Y-53882210D01*
X111270997Y-53891439D01*
X111286138Y-53903865D01*
X111293375Y-53912683D01*
X111310702Y-53930010D01*
X111331076Y-53943623D01*
X111353715Y-53953001D01*
X111377748Y-53957781D01*
X111402252Y-53957781D01*
X111426285Y-53953001D01*
X111448924Y-53943623D01*
X111469299Y-53930009D01*
X111486625Y-53912683D01*
X111493862Y-53903865D01*
X111509003Y-53891439D01*
X111526270Y-53882210D01*
X111545013Y-53876524D01*
X111570640Y-53874000D01*
X112009360Y-53874000D01*
X112034987Y-53876524D01*
X112053730Y-53882210D01*
X112070997Y-53891439D01*
X112086138Y-53903865D01*
X112093375Y-53912683D01*
X112110702Y-53930010D01*
X112131076Y-53943623D01*
X112153715Y-53953001D01*
X112177748Y-53957781D01*
X112202252Y-53957781D01*
X112226285Y-53953001D01*
X112248924Y-53943623D01*
X112269299Y-53930009D01*
X112286625Y-53912683D01*
X112293862Y-53903865D01*
X112309003Y-53891439D01*
X112326270Y-53882210D01*
X112345013Y-53876524D01*
X112370640Y-53874000D01*
X112809360Y-53874000D01*
X112834987Y-53876524D01*
X112853730Y-53882210D01*
X112870997Y-53891439D01*
X112886138Y-53903865D01*
X112893375Y-53912683D01*
X112910702Y-53930010D01*
X112931076Y-53943623D01*
X112953715Y-53953001D01*
X112977748Y-53957781D01*
X113002252Y-53957781D01*
X113026285Y-53953001D01*
X113048924Y-53943623D01*
X113069299Y-53930009D01*
X113086625Y-53912683D01*
X113093862Y-53903865D01*
X113109003Y-53891439D01*
X113126270Y-53882210D01*
X113145013Y-53876524D01*
X113170640Y-53874000D01*
X113609360Y-53874000D01*
X113634987Y-53876524D01*
X113653730Y-53882210D01*
X113670997Y-53891439D01*
X113686136Y-53903864D01*
X113698561Y-53919003D01*
X113707790Y-53936270D01*
X113713476Y-53955013D01*
X113716000Y-53980640D01*
X113716000Y-55394360D01*
X113713476Y-55419987D01*
X113707790Y-55438730D01*
X113698561Y-55455997D01*
X113686136Y-55471136D01*
X113670997Y-55483561D01*
X113653730Y-55492790D01*
X113634987Y-55498476D01*
X113609360Y-55501000D01*
X113170640Y-55501000D01*
X113145013Y-55498476D01*
X113126270Y-55492790D01*
X113109003Y-55483561D01*
X113093862Y-55471135D01*
X113086625Y-55462317D01*
X113069298Y-55444990D01*
X113048924Y-55431377D01*
X113026285Y-55421999D01*
X113002252Y-55417219D01*
X112977748Y-55417219D01*
X112953715Y-55421999D01*
X112931076Y-55431377D01*
X112910701Y-55444991D01*
X112893375Y-55462317D01*
X112886138Y-55471135D01*
X112870997Y-55483561D01*
X112853730Y-55492790D01*
X112834987Y-55498476D01*
X112809360Y-55501000D01*
X112370640Y-55501000D01*
X112345013Y-55498476D01*
X112326270Y-55492790D01*
X112309003Y-55483561D01*
X112293862Y-55471135D01*
X112286625Y-55462317D01*
X112269298Y-55444990D01*
X112248924Y-55431377D01*
X112226285Y-55421999D01*
X112202252Y-55417219D01*
X112177748Y-55417219D01*
X112153715Y-55421999D01*
X112131076Y-55431377D01*
X112110701Y-55444991D01*
X112093375Y-55462317D01*
X112086138Y-55471135D01*
X112070997Y-55483561D01*
X112053730Y-55492790D01*
X112034987Y-55498476D01*
X112009360Y-55501000D01*
X111570640Y-55501000D01*
X111545013Y-55498476D01*
X111526270Y-55492790D01*
X111509003Y-55483561D01*
X111493862Y-55471135D01*
X111486625Y-55462317D01*
X111469298Y-55444990D01*
X111448924Y-55431377D01*
X111426285Y-55421999D01*
X111402252Y-55417219D01*
X111377748Y-55417219D01*
X111353715Y-55421999D01*
X111331076Y-55431377D01*
X111310701Y-55444991D01*
X111293375Y-55462317D01*
X111286138Y-55471135D01*
X111270997Y-55483561D01*
X111253730Y-55492790D01*
X111234987Y-55498476D01*
X111209360Y-55501000D01*
X110770640Y-55501000D01*
X110745013Y-55498476D01*
X110726270Y-55492790D01*
X110709003Y-55483561D01*
X110693862Y-55471135D01*
X110686625Y-55462317D01*
X110669298Y-55444990D01*
X110648924Y-55431377D01*
X110626285Y-55421999D01*
X110602252Y-55417219D01*
X110577748Y-55417219D01*
X110553715Y-55421999D01*
X110531076Y-55431377D01*
X110510701Y-55444991D01*
X110493375Y-55462317D01*
X110486138Y-55471135D01*
X110470997Y-55483561D01*
X110453730Y-55492790D01*
X110434987Y-55498476D01*
X110409360Y-55501000D01*
X109970640Y-55501000D01*
X109945013Y-55498476D01*
X109926270Y-55492790D01*
X109909003Y-55483561D01*
X109893862Y-55471135D01*
X109886625Y-55462317D01*
X109869298Y-55444990D01*
X109848924Y-55431377D01*
X109826285Y-55421999D01*
X109802252Y-55417219D01*
X109777748Y-55417219D01*
X109753715Y-55421999D01*
X109731076Y-55431377D01*
X109710701Y-55444991D01*
X109693375Y-55462317D01*
X109686138Y-55471135D01*
X109670997Y-55483561D01*
X109653730Y-55492790D01*
X109634987Y-55498476D01*
X109609360Y-55501000D01*
X109170640Y-55501000D01*
X109145013Y-55498476D01*
X109126270Y-55492790D01*
X109109003Y-55483561D01*
X109093862Y-55471135D01*
X109086625Y-55462317D01*
X109069298Y-55444990D01*
X109048924Y-55431377D01*
X109026285Y-55421999D01*
X109002252Y-55417219D01*
X108977748Y-55417219D01*
X108953715Y-55421999D01*
X108931076Y-55431377D01*
X108910701Y-55444991D01*
X108893375Y-55462317D01*
X108886138Y-55471135D01*
X108870997Y-55483561D01*
X108853730Y-55492790D01*
X108834987Y-55498476D01*
X108809360Y-55501000D01*
X108370640Y-55501000D01*
X108345013Y-55498476D01*
X108326270Y-55492790D01*
X108309003Y-55483561D01*
X108293862Y-55471135D01*
X108286625Y-55462317D01*
X108269298Y-55444990D01*
X108248924Y-55431377D01*
X108226285Y-55421999D01*
X108202252Y-55417219D01*
X108177748Y-55417219D01*
X108153715Y-55421999D01*
X108131076Y-55431377D01*
X108110701Y-55444991D01*
X108093375Y-55462317D01*
X108086138Y-55471135D01*
X108070997Y-55483561D01*
X108053730Y-55492790D01*
X108034987Y-55498476D01*
X108009360Y-55501000D01*
X107570640Y-55501000D01*
X107545013Y-55498476D01*
X107526270Y-55492790D01*
X107509003Y-55483561D01*
X107493862Y-55471135D01*
X107486625Y-55462317D01*
X107469298Y-55444990D01*
X107448924Y-55431377D01*
X107426285Y-55421999D01*
X107402252Y-55417219D01*
X107377748Y-55417219D01*
X107353715Y-55421999D01*
X107331076Y-55431377D01*
X107310701Y-55444991D01*
X107293375Y-55462317D01*
X107286138Y-55471135D01*
X107270997Y-55483561D01*
X107253730Y-55492790D01*
X107234987Y-55498476D01*
X107209360Y-55501000D01*
X106770640Y-55501000D01*
X106745013Y-55498476D01*
X106726270Y-55492790D01*
X106709003Y-55483561D01*
X106693862Y-55471135D01*
X106686625Y-55462317D01*
X106669298Y-55444990D01*
X106648924Y-55431377D01*
X106626285Y-55421999D01*
X106602252Y-55417219D01*
X106577748Y-55417219D01*
X106553715Y-55421999D01*
X106531076Y-55431377D01*
X106510701Y-55444991D01*
X106493375Y-55462317D01*
X106486138Y-55471135D01*
X106470997Y-55483561D01*
X106453730Y-55492790D01*
X106434987Y-55498476D01*
X106409360Y-55501000D01*
X105970640Y-55501000D01*
X105945013Y-55498476D01*
X105926270Y-55492790D01*
X105909003Y-55483561D01*
X105893862Y-55471135D01*
X105886625Y-55462317D01*
X105869298Y-55444990D01*
X105848924Y-55431377D01*
X105826285Y-55421999D01*
X105802252Y-55417219D01*
X105777748Y-55417219D01*
X105753715Y-55421999D01*
X105731076Y-55431377D01*
X105710701Y-55444991D01*
X105693375Y-55462317D01*
X105686138Y-55471135D01*
X105670997Y-55483561D01*
X105653730Y-55492790D01*
X105634987Y-55498476D01*
X105609360Y-55501000D01*
X105170640Y-55501000D01*
X105145013Y-55498476D01*
X105126270Y-55492790D01*
X105109003Y-55483561D01*
X105093862Y-55471135D01*
X105086625Y-55462317D01*
X105069298Y-55444990D01*
X105048924Y-55431377D01*
X105026285Y-55421999D01*
X105002252Y-55417219D01*
X104977748Y-55417219D01*
X104953715Y-55421999D01*
X104931076Y-55431377D01*
X104910701Y-55444991D01*
X104893375Y-55462317D01*
X104886138Y-55471135D01*
X104870997Y-55483561D01*
X104853730Y-55492790D01*
X104834987Y-55498476D01*
X104809360Y-55501000D01*
X104370640Y-55501000D01*
X104345013Y-55498476D01*
X104326270Y-55492790D01*
X104309003Y-55483561D01*
X104293862Y-55471135D01*
X104286625Y-55462317D01*
X104269298Y-55444990D01*
X104248924Y-55431377D01*
X104226285Y-55421999D01*
X104202252Y-55417219D01*
X104177748Y-55417219D01*
X104153715Y-55421999D01*
X104131076Y-55431377D01*
X104110701Y-55444991D01*
X104093375Y-55462317D01*
X104086138Y-55471135D01*
X104070997Y-55483561D01*
X104053730Y-55492790D01*
X104034987Y-55498476D01*
X104009360Y-55501000D01*
X103570640Y-55501000D01*
X103545013Y-55498476D01*
X103526270Y-55492790D01*
X103509003Y-55483561D01*
X103493862Y-55471135D01*
X103486625Y-55462317D01*
X103469298Y-55444990D01*
X103448924Y-55431377D01*
X103426285Y-55421999D01*
X103402252Y-55417219D01*
X103377748Y-55417219D01*
X103353715Y-55421999D01*
X103331076Y-55431377D01*
X103310701Y-55444991D01*
X103293375Y-55462317D01*
X103286138Y-55471135D01*
X103270997Y-55483561D01*
X103253730Y-55492790D01*
X103234987Y-55498476D01*
X103209360Y-55501000D01*
X102770640Y-55501000D01*
X102745013Y-55498476D01*
X102726270Y-55492790D01*
X102709003Y-55483561D01*
X102693862Y-55471135D01*
X102686625Y-55462317D01*
X102669298Y-55444990D01*
X102648924Y-55431377D01*
X102626285Y-55421999D01*
X102602252Y-55417219D01*
X102577748Y-55417219D01*
X102553715Y-55421999D01*
X102531076Y-55431377D01*
X102510701Y-55444991D01*
X102493375Y-55462317D01*
X102486138Y-55471135D01*
X102470997Y-55483561D01*
X102453730Y-55492790D01*
X102434987Y-55498476D01*
X102409360Y-55501000D01*
X101970640Y-55501000D01*
X101945013Y-55498476D01*
X101926270Y-55492790D01*
X101909003Y-55483561D01*
X101893862Y-55471135D01*
X101886625Y-55462317D01*
X101869298Y-55444990D01*
X101848924Y-55431377D01*
X101826285Y-55421999D01*
X101802252Y-55417219D01*
X101777748Y-55417219D01*
X101753715Y-55421999D01*
X101731076Y-55431377D01*
X101710701Y-55444991D01*
X101693375Y-55462317D01*
X101686138Y-55471135D01*
X101670997Y-55483561D01*
X101653730Y-55492790D01*
X101634987Y-55498476D01*
X101609360Y-55501000D01*
X101170640Y-55501000D01*
X101145013Y-55498476D01*
X101126270Y-55492790D01*
X101109003Y-55483561D01*
X101093862Y-55471135D01*
X101086625Y-55462317D01*
X101069298Y-55444990D01*
X101048924Y-55431377D01*
X101026285Y-55421999D01*
X101002252Y-55417219D01*
X100977748Y-55417219D01*
X100953715Y-55421999D01*
X100931076Y-55431377D01*
X100910701Y-55444991D01*
X100893375Y-55462317D01*
X100886138Y-55471135D01*
X100870997Y-55483561D01*
X100853730Y-55492790D01*
X100834987Y-55498476D01*
X100809360Y-55501000D01*
X100370640Y-55501000D01*
X100345013Y-55498476D01*
X100326270Y-55492790D01*
X100309003Y-55483561D01*
X100293862Y-55471135D01*
X100286625Y-55462317D01*
X100269298Y-55444990D01*
X100248924Y-55431377D01*
X100226285Y-55421999D01*
X100202252Y-55417219D01*
X100177748Y-55417219D01*
X100153715Y-55421999D01*
X100131076Y-55431377D01*
X100110701Y-55444991D01*
X100093375Y-55462317D01*
X100086138Y-55471135D01*
X100070997Y-55483561D01*
X100053730Y-55492790D01*
X100034987Y-55498476D01*
X100009360Y-55501000D01*
X99570640Y-55501000D01*
X99545013Y-55498476D01*
X99526270Y-55492790D01*
X99509003Y-55483561D01*
X99493862Y-55471135D01*
X99486625Y-55462317D01*
X99469298Y-55444990D01*
X99448924Y-55431377D01*
X99426285Y-55421999D01*
X99402252Y-55417219D01*
X99377748Y-55417219D01*
X99353715Y-55421999D01*
X99331076Y-55431377D01*
X99310701Y-55444991D01*
X99293375Y-55462317D01*
X99286138Y-55471135D01*
X99270997Y-55483561D01*
X99253730Y-55492790D01*
X99234987Y-55498476D01*
X99209360Y-55501000D01*
X98770640Y-55501000D01*
X98745013Y-55498476D01*
X98726270Y-55492790D01*
X98709003Y-55483561D01*
X98693862Y-55471135D01*
X98686625Y-55462317D01*
X98669298Y-55444990D01*
X98648924Y-55431377D01*
X98626285Y-55421999D01*
X98602252Y-55417219D01*
X98577748Y-55417219D01*
X98553715Y-55421999D01*
X98531076Y-55431377D01*
X98510701Y-55444991D01*
X98493375Y-55462317D01*
X98486138Y-55471135D01*
X98470997Y-55483561D01*
X98453730Y-55492790D01*
X98434987Y-55498476D01*
X98409360Y-55501000D01*
X97970640Y-55501000D01*
X97945013Y-55498476D01*
X97926270Y-55492790D01*
X97909003Y-55483561D01*
X97893862Y-55471135D01*
X97886625Y-55462317D01*
X97869298Y-55444990D01*
X97848924Y-55431377D01*
X97826285Y-55421999D01*
X97802252Y-55417219D01*
X97777748Y-55417219D01*
X97753715Y-55421999D01*
X97731076Y-55431377D01*
X97710701Y-55444991D01*
X97693375Y-55462317D01*
X97686138Y-55471135D01*
X97670997Y-55483561D01*
X97653730Y-55492790D01*
X97634987Y-55498476D01*
X97609360Y-55501000D01*
X97170640Y-55501000D01*
X97145013Y-55498476D01*
X97126270Y-55492790D01*
X97109003Y-55483561D01*
X97093862Y-55471135D01*
X97086625Y-55462317D01*
X97069298Y-55444990D01*
X97048924Y-55431377D01*
X97026285Y-55421999D01*
X97002252Y-55417219D01*
X96977748Y-55417219D01*
X96953715Y-55421999D01*
X96931076Y-55431377D01*
X96910701Y-55444991D01*
X96893375Y-55462317D01*
X96886138Y-55471135D01*
X96870997Y-55483561D01*
X96853730Y-55492790D01*
X96834987Y-55498476D01*
X96809360Y-55501000D01*
X96370640Y-55501000D01*
X96345013Y-55498476D01*
X96326270Y-55492790D01*
X96309003Y-55483561D01*
X96293864Y-55471136D01*
X96281439Y-55455997D01*
X96272210Y-55438730D01*
X96266524Y-55419987D01*
X96264000Y-55394360D01*
X96264000Y-53980640D01*
X96266524Y-53955013D01*
X96272210Y-53936270D01*
X96281439Y-53919003D01*
X96293864Y-53903864D01*
X96309003Y-53891439D01*
X96326270Y-53882210D01*
X96345013Y-53876524D01*
X96370640Y-53874000D01*
X96809360Y-53874000D01*
X96834987Y-53876524D01*
G37*
G36*
X73861000Y-55191000D02*
G01*
X73159000Y-55191000D01*
X73159000Y-54589000D01*
X73861000Y-54589000D01*
X73861000Y-55191000D01*
G37*
G36*
X74961000Y-55191000D02*
G01*
X74259000Y-55191000D01*
X74259000Y-54589000D01*
X74961000Y-54589000D01*
X74961000Y-55191000D01*
G37*
G36*
X76221000Y-54371000D02*
G01*
X75519000Y-54371000D01*
X75519000Y-53769000D01*
X76221000Y-53769000D01*
X76221000Y-54371000D01*
G37*
G36*
X77321000Y-54371000D02*
G01*
X76619000Y-54371000D01*
X76619000Y-53769000D01*
X77321000Y-53769000D01*
X77321000Y-54371000D01*
G37*
G36*
X55349000Y-53837000D02*
G01*
X52147000Y-53837000D01*
X52147000Y-52135000D01*
X55349000Y-52135000D01*
X55349000Y-53837000D01*
G37*
G36*
X38839000Y-53837000D02*
G01*
X35637000Y-53837000D01*
X35637000Y-52135000D01*
X38839000Y-52135000D01*
X38839000Y-53837000D01*
G37*
G36*
X34331000Y-53371000D02*
G01*
X32529000Y-53371000D01*
X32529000Y-51569000D01*
X34331000Y-51569000D01*
X34331000Y-53371000D01*
G37*
G36*
X24806000Y-53371000D02*
G01*
X23004000Y-53371000D01*
X23004000Y-51569000D01*
X24806000Y-51569000D01*
X24806000Y-53371000D01*
G37*
G36*
X63801000Y-53151000D02*
G01*
X63199000Y-53151000D01*
X63199000Y-52449000D01*
X63801000Y-52449000D01*
X63801000Y-53151000D01*
G37*
G36*
X65801000Y-53151000D02*
G01*
X65199000Y-53151000D01*
X65199000Y-52449000D01*
X65801000Y-52449000D01*
X65801000Y-53151000D01*
G37*
G36*
X65801000Y-52051000D02*
G01*
X65199000Y-52051000D01*
X65199000Y-51349000D01*
X65801000Y-51349000D01*
X65801000Y-52051000D01*
G37*
G36*
X63801000Y-52051000D02*
G01*
X63199000Y-52051000D01*
X63199000Y-51349000D01*
X63801000Y-51349000D01*
X63801000Y-52051000D01*
G37*
G36*
X70181000Y-52011000D02*
G01*
X69479000Y-52011000D01*
X69479000Y-51409000D01*
X70181000Y-51409000D01*
X70181000Y-52011000D01*
G37*
G36*
X69081000Y-52011000D02*
G01*
X68379000Y-52011000D01*
X68379000Y-51409000D01*
X69081000Y-51409000D01*
X69081000Y-52011000D01*
G37*
G36*
X71271000Y-51401000D02*
G01*
X70669000Y-51401000D01*
X70669000Y-50699000D01*
X71271000Y-50699000D01*
X71271000Y-51401000D01*
G37*
G36*
X38839000Y-51297000D02*
G01*
X35637000Y-51297000D01*
X35637000Y-49595000D01*
X38839000Y-49595000D01*
X38839000Y-51297000D01*
G37*
G36*
X55349000Y-51297000D02*
G01*
X52147000Y-51297000D01*
X52147000Y-49595000D01*
X55349000Y-49595000D01*
X55349000Y-51297000D01*
G37*
G36*
X71271000Y-50301000D02*
G01*
X70669000Y-50301000D01*
X70669000Y-49599000D01*
X71271000Y-49599000D01*
X71271000Y-50301000D01*
G37*
G36*
X85051000Y-49246000D02*
G01*
X83949000Y-49246000D01*
X83949000Y-47894000D01*
X85051000Y-47894000D01*
X85051000Y-49246000D01*
G37*
G36*
X87051000Y-49246000D02*
G01*
X85949000Y-49246000D01*
X85949000Y-47894000D01*
X87051000Y-47894000D01*
X87051000Y-49246000D01*
G37*
G36*
X55349000Y-48757000D02*
G01*
X52147000Y-48757000D01*
X52147000Y-47055000D01*
X55349000Y-47055000D01*
X55349000Y-48757000D01*
G37*
G36*
X38839000Y-48757000D02*
G01*
X35637000Y-48757000D01*
X35637000Y-47055000D01*
X38839000Y-47055000D01*
X38839000Y-48757000D01*
G37*
G36*
X33001000Y-46901000D02*
G01*
X31999000Y-46901000D01*
X31999000Y-45999000D01*
X33001000Y-45999000D01*
X33001000Y-46901000D01*
G37*
G36*
X55349000Y-46217000D02*
G01*
X52147000Y-46217000D01*
X52147000Y-44515000D01*
X55349000Y-44515000D01*
X55349000Y-46217000D01*
G37*
G36*
X38839000Y-46217000D02*
G01*
X35637000Y-46217000D01*
X35637000Y-44515000D01*
X38839000Y-44515000D01*
X38839000Y-46217000D01*
G37*
G36*
X31001000Y-45951000D02*
G01*
X29999000Y-45951000D01*
X29999000Y-45049000D01*
X31001000Y-45049000D01*
X31001000Y-45951000D01*
G37*
G36*
X33001000Y-45001000D02*
G01*
X31999000Y-45001000D01*
X31999000Y-44099000D01*
X33001000Y-44099000D01*
X33001000Y-45001000D01*
G37*
G36*
X96834987Y-42701524D02*
G01*
X96853730Y-42707210D01*
X96870997Y-42716439D01*
X96886138Y-42728865D01*
X96893375Y-42737683D01*
X96910702Y-42755010D01*
X96931076Y-42768623D01*
X96953715Y-42778001D01*
X96977748Y-42782781D01*
X97002252Y-42782781D01*
X97026285Y-42778001D01*
X97048924Y-42768623D01*
X97069299Y-42755009D01*
X97086625Y-42737683D01*
X97093862Y-42728865D01*
X97109003Y-42716439D01*
X97126270Y-42707210D01*
X97145013Y-42701524D01*
X97170640Y-42699000D01*
X97609360Y-42699000D01*
X97634987Y-42701524D01*
X97653730Y-42707210D01*
X97670997Y-42716439D01*
X97686138Y-42728865D01*
X97693375Y-42737683D01*
X97710702Y-42755010D01*
X97731076Y-42768623D01*
X97753715Y-42778001D01*
X97777748Y-42782781D01*
X97802252Y-42782781D01*
X97826285Y-42778001D01*
X97848924Y-42768623D01*
X97869299Y-42755009D01*
X97886625Y-42737683D01*
X97893862Y-42728865D01*
X97909003Y-42716439D01*
X97926270Y-42707210D01*
X97945013Y-42701524D01*
X97970640Y-42699000D01*
X98409360Y-42699000D01*
X98434987Y-42701524D01*
X98453730Y-42707210D01*
X98470997Y-42716439D01*
X98486138Y-42728865D01*
X98493375Y-42737683D01*
X98510702Y-42755010D01*
X98531076Y-42768623D01*
X98553715Y-42778001D01*
X98577748Y-42782781D01*
X98602252Y-42782781D01*
X98626285Y-42778001D01*
X98648924Y-42768623D01*
X98669299Y-42755009D01*
X98686625Y-42737683D01*
X98693862Y-42728865D01*
X98709003Y-42716439D01*
X98726270Y-42707210D01*
X98745013Y-42701524D01*
X98770640Y-42699000D01*
X99209360Y-42699000D01*
X99234987Y-42701524D01*
X99253730Y-42707210D01*
X99270997Y-42716439D01*
X99286138Y-42728865D01*
X99293375Y-42737683D01*
X99310702Y-42755010D01*
X99331076Y-42768623D01*
X99353715Y-42778001D01*
X99377748Y-42782781D01*
X99402252Y-42782781D01*
X99426285Y-42778001D01*
X99448924Y-42768623D01*
X99469299Y-42755009D01*
X99486625Y-42737683D01*
X99493862Y-42728865D01*
X99509003Y-42716439D01*
X99526270Y-42707210D01*
X99545013Y-42701524D01*
X99570640Y-42699000D01*
X100009360Y-42699000D01*
X100034987Y-42701524D01*
X100053730Y-42707210D01*
X100070997Y-42716439D01*
X100086138Y-42728865D01*
X100093375Y-42737683D01*
X100110702Y-42755010D01*
X100131076Y-42768623D01*
X100153715Y-42778001D01*
X100177748Y-42782781D01*
X100202252Y-42782781D01*
X100226285Y-42778001D01*
X100248924Y-42768623D01*
X100269299Y-42755009D01*
X100286625Y-42737683D01*
X100293862Y-42728865D01*
X100309003Y-42716439D01*
X100326270Y-42707210D01*
X100345013Y-42701524D01*
X100370640Y-42699000D01*
X100809360Y-42699000D01*
X100834987Y-42701524D01*
X100853730Y-42707210D01*
X100870997Y-42716439D01*
X100886138Y-42728865D01*
X100893375Y-42737683D01*
X100910702Y-42755010D01*
X100931076Y-42768623D01*
X100953715Y-42778001D01*
X100977748Y-42782781D01*
X101002252Y-42782781D01*
X101026285Y-42778001D01*
X101048924Y-42768623D01*
X101069299Y-42755009D01*
X101086625Y-42737683D01*
X101093862Y-42728865D01*
X101109003Y-42716439D01*
X101126270Y-42707210D01*
X101145013Y-42701524D01*
X101170640Y-42699000D01*
X101609360Y-42699000D01*
X101634987Y-42701524D01*
X101653730Y-42707210D01*
X101670997Y-42716439D01*
X101686138Y-42728865D01*
X101693375Y-42737683D01*
X101710702Y-42755010D01*
X101731076Y-42768623D01*
X101753715Y-42778001D01*
X101777748Y-42782781D01*
X101802252Y-42782781D01*
X101826285Y-42778001D01*
X101848924Y-42768623D01*
X101869299Y-42755009D01*
X101886625Y-42737683D01*
X101893862Y-42728865D01*
X101909003Y-42716439D01*
X101926270Y-42707210D01*
X101945013Y-42701524D01*
X101970640Y-42699000D01*
X102409360Y-42699000D01*
X102434987Y-42701524D01*
X102453730Y-42707210D01*
X102470997Y-42716439D01*
X102486138Y-42728865D01*
X102493375Y-42737683D01*
X102510702Y-42755010D01*
X102531076Y-42768623D01*
X102553715Y-42778001D01*
X102577748Y-42782781D01*
X102602252Y-42782781D01*
X102626285Y-42778001D01*
X102648924Y-42768623D01*
X102669299Y-42755009D01*
X102686625Y-42737683D01*
X102693862Y-42728865D01*
X102709003Y-42716439D01*
X102726270Y-42707210D01*
X102745013Y-42701524D01*
X102770640Y-42699000D01*
X103209360Y-42699000D01*
X103234987Y-42701524D01*
X103253730Y-42707210D01*
X103270997Y-42716439D01*
X103286138Y-42728865D01*
X103293375Y-42737683D01*
X103310702Y-42755010D01*
X103331076Y-42768623D01*
X103353715Y-42778001D01*
X103377748Y-42782781D01*
X103402252Y-42782781D01*
X103426285Y-42778001D01*
X103448924Y-42768623D01*
X103469299Y-42755009D01*
X103486625Y-42737683D01*
X103493862Y-42728865D01*
X103509003Y-42716439D01*
X103526270Y-42707210D01*
X103545013Y-42701524D01*
X103570640Y-42699000D01*
X104009360Y-42699000D01*
X104034987Y-42701524D01*
X104053730Y-42707210D01*
X104070997Y-42716439D01*
X104086138Y-42728865D01*
X104093375Y-42737683D01*
X104110702Y-42755010D01*
X104131076Y-42768623D01*
X104153715Y-42778001D01*
X104177748Y-42782781D01*
X104202252Y-42782781D01*
X104226285Y-42778001D01*
X104248924Y-42768623D01*
X104269299Y-42755009D01*
X104286625Y-42737683D01*
X104293862Y-42728865D01*
X104309003Y-42716439D01*
X104326270Y-42707210D01*
X104345013Y-42701524D01*
X104370640Y-42699000D01*
X104809360Y-42699000D01*
X104834987Y-42701524D01*
X104853730Y-42707210D01*
X104870997Y-42716439D01*
X104886138Y-42728865D01*
X104893375Y-42737683D01*
X104910702Y-42755010D01*
X104931076Y-42768623D01*
X104953715Y-42778001D01*
X104977748Y-42782781D01*
X105002252Y-42782781D01*
X105026285Y-42778001D01*
X105048924Y-42768623D01*
X105069299Y-42755009D01*
X105086625Y-42737683D01*
X105093862Y-42728865D01*
X105109003Y-42716439D01*
X105126270Y-42707210D01*
X105145013Y-42701524D01*
X105170640Y-42699000D01*
X105609360Y-42699000D01*
X105634987Y-42701524D01*
X105653730Y-42707210D01*
X105670997Y-42716439D01*
X105686138Y-42728865D01*
X105693375Y-42737683D01*
X105710702Y-42755010D01*
X105731076Y-42768623D01*
X105753715Y-42778001D01*
X105777748Y-42782781D01*
X105802252Y-42782781D01*
X105826285Y-42778001D01*
X105848924Y-42768623D01*
X105869299Y-42755009D01*
X105886625Y-42737683D01*
X105893862Y-42728865D01*
X105909003Y-42716439D01*
X105926270Y-42707210D01*
X105945013Y-42701524D01*
X105970640Y-42699000D01*
X106409360Y-42699000D01*
X106434987Y-42701524D01*
X106453730Y-42707210D01*
X106470997Y-42716439D01*
X106486138Y-42728865D01*
X106493375Y-42737683D01*
X106510702Y-42755010D01*
X106531076Y-42768623D01*
X106553715Y-42778001D01*
X106577748Y-42782781D01*
X106602252Y-42782781D01*
X106626285Y-42778001D01*
X106648924Y-42768623D01*
X106669299Y-42755009D01*
X106686625Y-42737683D01*
X106693862Y-42728865D01*
X106709003Y-42716439D01*
X106726270Y-42707210D01*
X106745013Y-42701524D01*
X106770640Y-42699000D01*
X107209360Y-42699000D01*
X107234987Y-42701524D01*
X107253730Y-42707210D01*
X107270997Y-42716439D01*
X107286138Y-42728865D01*
X107293375Y-42737683D01*
X107310702Y-42755010D01*
X107331076Y-42768623D01*
X107353715Y-42778001D01*
X107377748Y-42782781D01*
X107402252Y-42782781D01*
X107426285Y-42778001D01*
X107448924Y-42768623D01*
X107469299Y-42755009D01*
X107486625Y-42737683D01*
X107493862Y-42728865D01*
X107509003Y-42716439D01*
X107526270Y-42707210D01*
X107545013Y-42701524D01*
X107570640Y-42699000D01*
X108009360Y-42699000D01*
X108034987Y-42701524D01*
X108053730Y-42707210D01*
X108070997Y-42716439D01*
X108086138Y-42728865D01*
X108093375Y-42737683D01*
X108110702Y-42755010D01*
X108131076Y-42768623D01*
X108153715Y-42778001D01*
X108177748Y-42782781D01*
X108202252Y-42782781D01*
X108226285Y-42778001D01*
X108248924Y-42768623D01*
X108269299Y-42755009D01*
X108286625Y-42737683D01*
X108293862Y-42728865D01*
X108309003Y-42716439D01*
X108326270Y-42707210D01*
X108345013Y-42701524D01*
X108370640Y-42699000D01*
X108809360Y-42699000D01*
X108834987Y-42701524D01*
X108853730Y-42707210D01*
X108870997Y-42716439D01*
X108886138Y-42728865D01*
X108893375Y-42737683D01*
X108910702Y-42755010D01*
X108931076Y-42768623D01*
X108953715Y-42778001D01*
X108977748Y-42782781D01*
X109002252Y-42782781D01*
X109026285Y-42778001D01*
X109048924Y-42768623D01*
X109069299Y-42755009D01*
X109086625Y-42737683D01*
X109093862Y-42728865D01*
X109109003Y-42716439D01*
X109126270Y-42707210D01*
X109145013Y-42701524D01*
X109170640Y-42699000D01*
X109609360Y-42699000D01*
X109634987Y-42701524D01*
X109653730Y-42707210D01*
X109670997Y-42716439D01*
X109686138Y-42728865D01*
X109693375Y-42737683D01*
X109710702Y-42755010D01*
X109731076Y-42768623D01*
X109753715Y-42778001D01*
X109777748Y-42782781D01*
X109802252Y-42782781D01*
X109826285Y-42778001D01*
X109848924Y-42768623D01*
X109869299Y-42755009D01*
X109886625Y-42737683D01*
X109893862Y-42728865D01*
X109909003Y-42716439D01*
X109926270Y-42707210D01*
X109945013Y-42701524D01*
X109970640Y-42699000D01*
X110409360Y-42699000D01*
X110434987Y-42701524D01*
X110453730Y-42707210D01*
X110470997Y-42716439D01*
X110486138Y-42728865D01*
X110493375Y-42737683D01*
X110510702Y-42755010D01*
X110531076Y-42768623D01*
X110553715Y-42778001D01*
X110577748Y-42782781D01*
X110602252Y-42782781D01*
X110626285Y-42778001D01*
X110648924Y-42768623D01*
X110669299Y-42755009D01*
X110686625Y-42737683D01*
X110693862Y-42728865D01*
X110709003Y-42716439D01*
X110726270Y-42707210D01*
X110745013Y-42701524D01*
X110770640Y-42699000D01*
X111209360Y-42699000D01*
X111234987Y-42701524D01*
X111253730Y-42707210D01*
X111270997Y-42716439D01*
X111286138Y-42728865D01*
X111293375Y-42737683D01*
X111310702Y-42755010D01*
X111331076Y-42768623D01*
X111353715Y-42778001D01*
X111377748Y-42782781D01*
X111402252Y-42782781D01*
X111426285Y-42778001D01*
X111448924Y-42768623D01*
X111469299Y-42755009D01*
X111486625Y-42737683D01*
X111493862Y-42728865D01*
X111509003Y-42716439D01*
X111526270Y-42707210D01*
X111545013Y-42701524D01*
X111570640Y-42699000D01*
X112009360Y-42699000D01*
X112034987Y-42701524D01*
X112053730Y-42707210D01*
X112070997Y-42716439D01*
X112086138Y-42728865D01*
X112093375Y-42737683D01*
X112110702Y-42755010D01*
X112131076Y-42768623D01*
X112153715Y-42778001D01*
X112177748Y-42782781D01*
X112202252Y-42782781D01*
X112226285Y-42778001D01*
X112248924Y-42768623D01*
X112269299Y-42755009D01*
X112286625Y-42737683D01*
X112293862Y-42728865D01*
X112309003Y-42716439D01*
X112326270Y-42707210D01*
X112345013Y-42701524D01*
X112370640Y-42699000D01*
X112809360Y-42699000D01*
X112834987Y-42701524D01*
X112853730Y-42707210D01*
X112870997Y-42716439D01*
X112886138Y-42728865D01*
X112893375Y-42737683D01*
X112910702Y-42755010D01*
X112931076Y-42768623D01*
X112953715Y-42778001D01*
X112977748Y-42782781D01*
X113002252Y-42782781D01*
X113026285Y-42778001D01*
X113048924Y-42768623D01*
X113069299Y-42755009D01*
X113086625Y-42737683D01*
X113093862Y-42728865D01*
X113109003Y-42716439D01*
X113126270Y-42707210D01*
X113145013Y-42701524D01*
X113170640Y-42699000D01*
X113609360Y-42699000D01*
X113634987Y-42701524D01*
X113653730Y-42707210D01*
X113670997Y-42716439D01*
X113686136Y-42728864D01*
X113698561Y-42744003D01*
X113707790Y-42761270D01*
X113713476Y-42780013D01*
X113716000Y-42805640D01*
X113716000Y-44219360D01*
X113713476Y-44244987D01*
X113707790Y-44263730D01*
X113698561Y-44280997D01*
X113686136Y-44296136D01*
X113670997Y-44308561D01*
X113653730Y-44317790D01*
X113634987Y-44323476D01*
X113609360Y-44326000D01*
X113170640Y-44326000D01*
X113145013Y-44323476D01*
X113126270Y-44317790D01*
X113109003Y-44308561D01*
X113093862Y-44296135D01*
X113086625Y-44287317D01*
X113069298Y-44269990D01*
X113048924Y-44256377D01*
X113026285Y-44246999D01*
X113002252Y-44242219D01*
X112977748Y-44242219D01*
X112953715Y-44246999D01*
X112931076Y-44256377D01*
X112910701Y-44269991D01*
X112893375Y-44287317D01*
X112886138Y-44296135D01*
X112870997Y-44308561D01*
X112853730Y-44317790D01*
X112834987Y-44323476D01*
X112809360Y-44326000D01*
X112370640Y-44326000D01*
X112345013Y-44323476D01*
X112326270Y-44317790D01*
X112309003Y-44308561D01*
X112293862Y-44296135D01*
X112286625Y-44287317D01*
X112269298Y-44269990D01*
X112248924Y-44256377D01*
X112226285Y-44246999D01*
X112202252Y-44242219D01*
X112177748Y-44242219D01*
X112153715Y-44246999D01*
X112131076Y-44256377D01*
X112110701Y-44269991D01*
X112093375Y-44287317D01*
X112086138Y-44296135D01*
X112070997Y-44308561D01*
X112053730Y-44317790D01*
X112034987Y-44323476D01*
X112009360Y-44326000D01*
X111570640Y-44326000D01*
X111545013Y-44323476D01*
X111526270Y-44317790D01*
X111509003Y-44308561D01*
X111493862Y-44296135D01*
X111486625Y-44287317D01*
X111469298Y-44269990D01*
X111448924Y-44256377D01*
X111426285Y-44246999D01*
X111402252Y-44242219D01*
X111377748Y-44242219D01*
X111353715Y-44246999D01*
X111331076Y-44256377D01*
X111310701Y-44269991D01*
X111293375Y-44287317D01*
X111286138Y-44296135D01*
X111270997Y-44308561D01*
X111253730Y-44317790D01*
X111234987Y-44323476D01*
X111209360Y-44326000D01*
X110770640Y-44326000D01*
X110745013Y-44323476D01*
X110726270Y-44317790D01*
X110709003Y-44308561D01*
X110693862Y-44296135D01*
X110686625Y-44287317D01*
X110669298Y-44269990D01*
X110648924Y-44256377D01*
X110626285Y-44246999D01*
X110602252Y-44242219D01*
X110577748Y-44242219D01*
X110553715Y-44246999D01*
X110531076Y-44256377D01*
X110510701Y-44269991D01*
X110493375Y-44287317D01*
X110486138Y-44296135D01*
X110470997Y-44308561D01*
X110453730Y-44317790D01*
X110434987Y-44323476D01*
X110409360Y-44326000D01*
X109970640Y-44326000D01*
X109945013Y-44323476D01*
X109926270Y-44317790D01*
X109909003Y-44308561D01*
X109893862Y-44296135D01*
X109886625Y-44287317D01*
X109869298Y-44269990D01*
X109848924Y-44256377D01*
X109826285Y-44246999D01*
X109802252Y-44242219D01*
X109777748Y-44242219D01*
X109753715Y-44246999D01*
X109731076Y-44256377D01*
X109710701Y-44269991D01*
X109693375Y-44287317D01*
X109686138Y-44296135D01*
X109670997Y-44308561D01*
X109653730Y-44317790D01*
X109634987Y-44323476D01*
X109609360Y-44326000D01*
X109170640Y-44326000D01*
X109145013Y-44323476D01*
X109126270Y-44317790D01*
X109109003Y-44308561D01*
X109093862Y-44296135D01*
X109086625Y-44287317D01*
X109069298Y-44269990D01*
X109048924Y-44256377D01*
X109026285Y-44246999D01*
X109002252Y-44242219D01*
X108977748Y-44242219D01*
X108953715Y-44246999D01*
X108931076Y-44256377D01*
X108910701Y-44269991D01*
X108893375Y-44287317D01*
X108886138Y-44296135D01*
X108870997Y-44308561D01*
X108853730Y-44317790D01*
X108834987Y-44323476D01*
X108809360Y-44326000D01*
X108370640Y-44326000D01*
X108345013Y-44323476D01*
X108326270Y-44317790D01*
X108309003Y-44308561D01*
X108293862Y-44296135D01*
X108286625Y-44287317D01*
X108269298Y-44269990D01*
X108248924Y-44256377D01*
X108226285Y-44246999D01*
X108202252Y-44242219D01*
X108177748Y-44242219D01*
X108153715Y-44246999D01*
X108131076Y-44256377D01*
X108110701Y-44269991D01*
X108093375Y-44287317D01*
X108086138Y-44296135D01*
X108070997Y-44308561D01*
X108053730Y-44317790D01*
X108034987Y-44323476D01*
X108009360Y-44326000D01*
X107570640Y-44326000D01*
X107545013Y-44323476D01*
X107526270Y-44317790D01*
X107509003Y-44308561D01*
X107493862Y-44296135D01*
X107486625Y-44287317D01*
X107469298Y-44269990D01*
X107448924Y-44256377D01*
X107426285Y-44246999D01*
X107402252Y-44242219D01*
X107377748Y-44242219D01*
X107353715Y-44246999D01*
X107331076Y-44256377D01*
X107310701Y-44269991D01*
X107293375Y-44287317D01*
X107286138Y-44296135D01*
X107270997Y-44308561D01*
X107253730Y-44317790D01*
X107234987Y-44323476D01*
X107209360Y-44326000D01*
X106770640Y-44326000D01*
X106745013Y-44323476D01*
X106726270Y-44317790D01*
X106709003Y-44308561D01*
X106693862Y-44296135D01*
X106686625Y-44287317D01*
X106669298Y-44269990D01*
X106648924Y-44256377D01*
X106626285Y-44246999D01*
X106602252Y-44242219D01*
X106577748Y-44242219D01*
X106553715Y-44246999D01*
X106531076Y-44256377D01*
X106510701Y-44269991D01*
X106493375Y-44287317D01*
X106486138Y-44296135D01*
X106470997Y-44308561D01*
X106453730Y-44317790D01*
X106434987Y-44323476D01*
X106409360Y-44326000D01*
X105970640Y-44326000D01*
X105945013Y-44323476D01*
X105926270Y-44317790D01*
X105909003Y-44308561D01*
X105893862Y-44296135D01*
X105886625Y-44287317D01*
X105869298Y-44269990D01*
X105848924Y-44256377D01*
X105826285Y-44246999D01*
X105802252Y-44242219D01*
X105777748Y-44242219D01*
X105753715Y-44246999D01*
X105731076Y-44256377D01*
X105710701Y-44269991D01*
X105693375Y-44287317D01*
X105686138Y-44296135D01*
X105670997Y-44308561D01*
X105653730Y-44317790D01*
X105634987Y-44323476D01*
X105609360Y-44326000D01*
X105170640Y-44326000D01*
X105145013Y-44323476D01*
X105126270Y-44317790D01*
X105109003Y-44308561D01*
X105093862Y-44296135D01*
X105086625Y-44287317D01*
X105069298Y-44269990D01*
X105048924Y-44256377D01*
X105026285Y-44246999D01*
X105002252Y-44242219D01*
X104977748Y-44242219D01*
X104953715Y-44246999D01*
X104931076Y-44256377D01*
X104910701Y-44269991D01*
X104893375Y-44287317D01*
X104886138Y-44296135D01*
X104870997Y-44308561D01*
X104853730Y-44317790D01*
X104834987Y-44323476D01*
X104809360Y-44326000D01*
X104370640Y-44326000D01*
X104345013Y-44323476D01*
X104326270Y-44317790D01*
X104309003Y-44308561D01*
X104293862Y-44296135D01*
X104286625Y-44287317D01*
X104269298Y-44269990D01*
X104248924Y-44256377D01*
X104226285Y-44246999D01*
X104202252Y-44242219D01*
X104177748Y-44242219D01*
X104153715Y-44246999D01*
X104131076Y-44256377D01*
X104110701Y-44269991D01*
X104093375Y-44287317D01*
X104086138Y-44296135D01*
X104070997Y-44308561D01*
X104053730Y-44317790D01*
X104034987Y-44323476D01*
X104009360Y-44326000D01*
X103570640Y-44326000D01*
X103545013Y-44323476D01*
X103526270Y-44317790D01*
X103509003Y-44308561D01*
X103493862Y-44296135D01*
X103486625Y-44287317D01*
X103469298Y-44269990D01*
X103448924Y-44256377D01*
X103426285Y-44246999D01*
X103402252Y-44242219D01*
X103377748Y-44242219D01*
X103353715Y-44246999D01*
X103331076Y-44256377D01*
X103310701Y-44269991D01*
X103293375Y-44287317D01*
X103286138Y-44296135D01*
X103270997Y-44308561D01*
X103253730Y-44317790D01*
X103234987Y-44323476D01*
X103209360Y-44326000D01*
X102770640Y-44326000D01*
X102745013Y-44323476D01*
X102726270Y-44317790D01*
X102709003Y-44308561D01*
X102693862Y-44296135D01*
X102686625Y-44287317D01*
X102669298Y-44269990D01*
X102648924Y-44256377D01*
X102626285Y-44246999D01*
X102602252Y-44242219D01*
X102577748Y-44242219D01*
X102553715Y-44246999D01*
X102531076Y-44256377D01*
X102510701Y-44269991D01*
X102493375Y-44287317D01*
X102486138Y-44296135D01*
X102470997Y-44308561D01*
X102453730Y-44317790D01*
X102434987Y-44323476D01*
X102409360Y-44326000D01*
X101970640Y-44326000D01*
X101945013Y-44323476D01*
X101926270Y-44317790D01*
X101909003Y-44308561D01*
X101893862Y-44296135D01*
X101886625Y-44287317D01*
X101869298Y-44269990D01*
X101848924Y-44256377D01*
X101826285Y-44246999D01*
X101802252Y-44242219D01*
X101777748Y-44242219D01*
X101753715Y-44246999D01*
X101731076Y-44256377D01*
X101710701Y-44269991D01*
X101693375Y-44287317D01*
X101686138Y-44296135D01*
X101670997Y-44308561D01*
X101653730Y-44317790D01*
X101634987Y-44323476D01*
X101609360Y-44326000D01*
X101170640Y-44326000D01*
X101145013Y-44323476D01*
X101126270Y-44317790D01*
X101109003Y-44308561D01*
X101093862Y-44296135D01*
X101086625Y-44287317D01*
X101069298Y-44269990D01*
X101048924Y-44256377D01*
X101026285Y-44246999D01*
X101002252Y-44242219D01*
X100977748Y-44242219D01*
X100953715Y-44246999D01*
X100931076Y-44256377D01*
X100910701Y-44269991D01*
X100893375Y-44287317D01*
X100886138Y-44296135D01*
X100870997Y-44308561D01*
X100853730Y-44317790D01*
X100834987Y-44323476D01*
X100809360Y-44326000D01*
X100370640Y-44326000D01*
X100345013Y-44323476D01*
X100326270Y-44317790D01*
X100309003Y-44308561D01*
X100293862Y-44296135D01*
X100286625Y-44287317D01*
X100269298Y-44269990D01*
X100248924Y-44256377D01*
X100226285Y-44246999D01*
X100202252Y-44242219D01*
X100177748Y-44242219D01*
X100153715Y-44246999D01*
X100131076Y-44256377D01*
X100110701Y-44269991D01*
X100093375Y-44287317D01*
X100086138Y-44296135D01*
X100070997Y-44308561D01*
X100053730Y-44317790D01*
X100034987Y-44323476D01*
X100009360Y-44326000D01*
X99570640Y-44326000D01*
X99545013Y-44323476D01*
X99526270Y-44317790D01*
X99509003Y-44308561D01*
X99493862Y-44296135D01*
X99486625Y-44287317D01*
X99469298Y-44269990D01*
X99448924Y-44256377D01*
X99426285Y-44246999D01*
X99402252Y-44242219D01*
X99377748Y-44242219D01*
X99353715Y-44246999D01*
X99331076Y-44256377D01*
X99310701Y-44269991D01*
X99293375Y-44287317D01*
X99286138Y-44296135D01*
X99270997Y-44308561D01*
X99253730Y-44317790D01*
X99234987Y-44323476D01*
X99209360Y-44326000D01*
X98770640Y-44326000D01*
X98745013Y-44323476D01*
X98726270Y-44317790D01*
X98709003Y-44308561D01*
X98693862Y-44296135D01*
X98686625Y-44287317D01*
X98669298Y-44269990D01*
X98648924Y-44256377D01*
X98626285Y-44246999D01*
X98602252Y-44242219D01*
X98577748Y-44242219D01*
X98553715Y-44246999D01*
X98531076Y-44256377D01*
X98510701Y-44269991D01*
X98493375Y-44287317D01*
X98486138Y-44296135D01*
X98470997Y-44308561D01*
X98453730Y-44317790D01*
X98434987Y-44323476D01*
X98409360Y-44326000D01*
X97970640Y-44326000D01*
X97945013Y-44323476D01*
X97926270Y-44317790D01*
X97909003Y-44308561D01*
X97893862Y-44296135D01*
X97886625Y-44287317D01*
X97869298Y-44269990D01*
X97848924Y-44256377D01*
X97826285Y-44246999D01*
X97802252Y-44242219D01*
X97777748Y-44242219D01*
X97753715Y-44246999D01*
X97731076Y-44256377D01*
X97710701Y-44269991D01*
X97693375Y-44287317D01*
X97686138Y-44296135D01*
X97670997Y-44308561D01*
X97653730Y-44317790D01*
X97634987Y-44323476D01*
X97609360Y-44326000D01*
X97170640Y-44326000D01*
X97145013Y-44323476D01*
X97126270Y-44317790D01*
X97109003Y-44308561D01*
X97093862Y-44296135D01*
X97086625Y-44287317D01*
X97069298Y-44269990D01*
X97048924Y-44256377D01*
X97026285Y-44246999D01*
X97002252Y-44242219D01*
X96977748Y-44242219D01*
X96953715Y-44246999D01*
X96931076Y-44256377D01*
X96910701Y-44269991D01*
X96893375Y-44287317D01*
X96886138Y-44296135D01*
X96870997Y-44308561D01*
X96853730Y-44317790D01*
X96834987Y-44323476D01*
X96809360Y-44326000D01*
X96370640Y-44326000D01*
X96345013Y-44323476D01*
X96326270Y-44317790D01*
X96309003Y-44308561D01*
X96293864Y-44296136D01*
X96281439Y-44280997D01*
X96272210Y-44263730D01*
X96266524Y-44244987D01*
X96264000Y-44219360D01*
X96264000Y-42805640D01*
X96266524Y-42780013D01*
X96272210Y-42761270D01*
X96281439Y-42744003D01*
X96293864Y-42728864D01*
X96309003Y-42716439D01*
X96326270Y-42707210D01*
X96345013Y-42701524D01*
X96370640Y-42699000D01*
X96809360Y-42699000D01*
X96834987Y-42701524D01*
G37*
G36*
X43551000Y-42676000D02*
G01*
X42449000Y-42676000D01*
X42449000Y-41324000D01*
X43551000Y-41324000D01*
X43551000Y-42676000D01*
G37*
G36*
X45551000Y-42676000D02*
G01*
X44449000Y-42676000D01*
X44449000Y-41324000D01*
X45551000Y-41324000D01*
X45551000Y-42676000D01*
G37*
G36*
X47301000Y-42676000D02*
G01*
X46199000Y-42676000D01*
X46199000Y-41324000D01*
X47301000Y-41324000D01*
X47301000Y-42676000D01*
G37*
G36*
X49301000Y-42676000D02*
G01*
X48199000Y-42676000D01*
X48199000Y-41324000D01*
X49301000Y-41324000D01*
X49301000Y-42676000D01*
G37*
G36*
X107301000Y-42176000D02*
G01*
X106199000Y-42176000D01*
X106199000Y-40824000D01*
X107301000Y-40824000D01*
X107301000Y-42176000D01*
G37*
G36*
X105301000Y-42176000D02*
G01*
X104199000Y-42176000D01*
X104199000Y-40824000D01*
X105301000Y-40824000D01*
X105301000Y-42176000D01*
G37*
G36*
X52396000Y-42071000D02*
G01*
X51044000Y-42071000D01*
X51044000Y-40969000D01*
X52396000Y-40969000D01*
X52396000Y-42071000D01*
G37*
G36*
X120901000Y-41901000D02*
G01*
X119099000Y-41901000D01*
X119099000Y-40099000D01*
X120901000Y-40099000D01*
X120901000Y-41901000D01*
G37*
G36*
X52396000Y-40071000D02*
G01*
X51044000Y-40071000D01*
X51044000Y-38969000D01*
X52396000Y-38969000D01*
X52396000Y-40071000D01*
G37*
G36*
X120113512Y-37563927D02*
G01*
X120262812Y-37593624D01*
X120426784Y-37661544D01*
X120574354Y-37760147D01*
X120699853Y-37885646D01*
X120798456Y-38033216D01*
X120866376Y-38197188D01*
X120901000Y-38371259D01*
X120901000Y-38548741D01*
X120866376Y-38722812D01*
X120798456Y-38886784D01*
X120699853Y-39034354D01*
X120574354Y-39159853D01*
X120426784Y-39258456D01*
X120262812Y-39326376D01*
X120113512Y-39356073D01*
X120088742Y-39361000D01*
X119911258Y-39361000D01*
X119886488Y-39356073D01*
X119737188Y-39326376D01*
X119573216Y-39258456D01*
X119425646Y-39159853D01*
X119300147Y-39034354D01*
X119201544Y-38886784D01*
X119133624Y-38722812D01*
X119099000Y-38548741D01*
X119099000Y-38371259D01*
X119133624Y-38197188D01*
X119201544Y-38033216D01*
X119300147Y-37885646D01*
X119425646Y-37760147D01*
X119573216Y-37661544D01*
X119737188Y-37593624D01*
X119886488Y-37563927D01*
X119911258Y-37559000D01*
X120088742Y-37559000D01*
X120113512Y-37563927D01*
G37*
G36*
X95851000Y-38201000D02*
G01*
X95049000Y-38201000D01*
X95049000Y-36799000D01*
X95851000Y-36799000D01*
X95851000Y-38201000D01*
G37*
G36*
X93951000Y-38201000D02*
G01*
X93149000Y-38201000D01*
X93149000Y-36799000D01*
X93951000Y-36799000D01*
X93951000Y-38201000D01*
G37*
G36*
X120113512Y-35023927D02*
G01*
X120262812Y-35053624D01*
X120426784Y-35121544D01*
X120574354Y-35220147D01*
X120699853Y-35345646D01*
X120798456Y-35493216D01*
X120866376Y-35657188D01*
X120901000Y-35831259D01*
X120901000Y-36008741D01*
X120866376Y-36182812D01*
X120798456Y-36346784D01*
X120699853Y-36494354D01*
X120574354Y-36619853D01*
X120426784Y-36718456D01*
X120262812Y-36786376D01*
X120113512Y-36816073D01*
X120088742Y-36821000D01*
X119911258Y-36821000D01*
X119886488Y-36816073D01*
X119737188Y-36786376D01*
X119573216Y-36718456D01*
X119425646Y-36619853D01*
X119300147Y-36494354D01*
X119201544Y-36346784D01*
X119133624Y-36182812D01*
X119099000Y-36008741D01*
X119099000Y-35831259D01*
X119133624Y-35657188D01*
X119201544Y-35493216D01*
X119300147Y-35345646D01*
X119425646Y-35220147D01*
X119573216Y-35121544D01*
X119737188Y-35053624D01*
X119886488Y-35023927D01*
X119911258Y-35019000D01*
X120088742Y-35019000D01*
X120113512Y-35023927D01*
G37*
G36*
X81426000Y-36801000D02*
G01*
X80074000Y-36801000D01*
X80074000Y-35699000D01*
X81426000Y-35699000D01*
X81426000Y-36801000D01*
G37*
G36*
X46151000Y-35666000D02*
G01*
X45049000Y-35666000D01*
X45049000Y-34314000D01*
X46151000Y-34314000D01*
X46151000Y-35666000D01*
G37*
G36*
X48151000Y-35666000D02*
G01*
X47049000Y-35666000D01*
X47049000Y-34314000D01*
X48151000Y-34314000D01*
X48151000Y-35666000D01*
G37*
G36*
X79451000Y-35601000D02*
G01*
X78049000Y-35601000D01*
X78049000Y-34799000D01*
X79451000Y-34799000D01*
X79451000Y-35601000D01*
G37*
G36*
X93653512Y-33603927D02*
G01*
X93802812Y-33633624D01*
X93966784Y-33701544D01*
X94114354Y-33800147D01*
X94239853Y-33925646D01*
X94338456Y-34073216D01*
X94406376Y-34237188D01*
X94441000Y-34411259D01*
X94441000Y-34588741D01*
X94406376Y-34762812D01*
X94338456Y-34926784D01*
X94239853Y-35074354D01*
X94114354Y-35199853D01*
X93966784Y-35298456D01*
X93802812Y-35366376D01*
X93653512Y-35396073D01*
X93628742Y-35401000D01*
X93451258Y-35401000D01*
X93426488Y-35396073D01*
X93277188Y-35366376D01*
X93113216Y-35298456D01*
X92965646Y-35199853D01*
X92840147Y-35074354D01*
X92741544Y-34926784D01*
X92673624Y-34762812D01*
X92639000Y-34588741D01*
X92639000Y-34411259D01*
X92673624Y-34237188D01*
X92741544Y-34073216D01*
X92840147Y-33925646D01*
X92965646Y-33800147D01*
X93113216Y-33701544D01*
X93277188Y-33633624D01*
X93426488Y-33603927D01*
X93451258Y-33599000D01*
X93628742Y-33599000D01*
X93653512Y-33603927D01*
G37*
G36*
X98733512Y-33603927D02*
G01*
X98882812Y-33633624D01*
X99046784Y-33701544D01*
X99194354Y-33800147D01*
X99319853Y-33925646D01*
X99418456Y-34073216D01*
X99486376Y-34237188D01*
X99521000Y-34411259D01*
X99521000Y-34588741D01*
X99486376Y-34762812D01*
X99418456Y-34926784D01*
X99319853Y-35074354D01*
X99194354Y-35199853D01*
X99046784Y-35298456D01*
X98882812Y-35366376D01*
X98733512Y-35396073D01*
X98708742Y-35401000D01*
X98531258Y-35401000D01*
X98506488Y-35396073D01*
X98357188Y-35366376D01*
X98193216Y-35298456D01*
X98045646Y-35199853D01*
X97920147Y-35074354D01*
X97821544Y-34926784D01*
X97753624Y-34762812D01*
X97719000Y-34588741D01*
X97719000Y-34411259D01*
X97753624Y-34237188D01*
X97821544Y-34073216D01*
X97920147Y-33925646D01*
X98045646Y-33800147D01*
X98193216Y-33701544D01*
X98357188Y-33633624D01*
X98506488Y-33603927D01*
X98531258Y-33599000D01*
X98708742Y-33599000D01*
X98733512Y-33603927D01*
G37*
G36*
X96193512Y-33603927D02*
G01*
X96342812Y-33633624D01*
X96506784Y-33701544D01*
X96654354Y-33800147D01*
X96779853Y-33925646D01*
X96878456Y-34073216D01*
X96946376Y-34237188D01*
X96981000Y-34411259D01*
X96981000Y-34588741D01*
X96946376Y-34762812D01*
X96878456Y-34926784D01*
X96779853Y-35074354D01*
X96654354Y-35199853D01*
X96506784Y-35298456D01*
X96342812Y-35366376D01*
X96193512Y-35396073D01*
X96168742Y-35401000D01*
X95991258Y-35401000D01*
X95966488Y-35396073D01*
X95817188Y-35366376D01*
X95653216Y-35298456D01*
X95505646Y-35199853D01*
X95380147Y-35074354D01*
X95281544Y-34926784D01*
X95213624Y-34762812D01*
X95179000Y-34588741D01*
X95179000Y-34411259D01*
X95213624Y-34237188D01*
X95281544Y-34073216D01*
X95380147Y-33925646D01*
X95505646Y-33800147D01*
X95653216Y-33701544D01*
X95817188Y-33633624D01*
X95966488Y-33603927D01*
X95991258Y-33599000D01*
X96168742Y-33599000D01*
X96193512Y-33603927D01*
G37*
G36*
X91901000Y-35401000D02*
G01*
X90099000Y-35401000D01*
X90099000Y-33599000D01*
X91901000Y-33599000D01*
X91901000Y-35401000D01*
G37*
G36*
X108153512Y-33603927D02*
G01*
X108302812Y-33633624D01*
X108466784Y-33701544D01*
X108614354Y-33800147D01*
X108739853Y-33925646D01*
X108838456Y-34073216D01*
X108906376Y-34237188D01*
X108941000Y-34411259D01*
X108941000Y-34588741D01*
X108906376Y-34762812D01*
X108838456Y-34926784D01*
X108739853Y-35074354D01*
X108614354Y-35199853D01*
X108466784Y-35298456D01*
X108302812Y-35366376D01*
X108153512Y-35396073D01*
X108128742Y-35401000D01*
X107951258Y-35401000D01*
X107926488Y-35396073D01*
X107777188Y-35366376D01*
X107613216Y-35298456D01*
X107465646Y-35199853D01*
X107340147Y-35074354D01*
X107241544Y-34926784D01*
X107173624Y-34762812D01*
X107139000Y-34588741D01*
X107139000Y-34411259D01*
X107173624Y-34237188D01*
X107241544Y-34073216D01*
X107340147Y-33925646D01*
X107465646Y-33800147D01*
X107613216Y-33701544D01*
X107777188Y-33633624D01*
X107926488Y-33603927D01*
X107951258Y-33599000D01*
X108128742Y-33599000D01*
X108153512Y-33603927D01*
G37*
G36*
X106401000Y-35401000D02*
G01*
X104599000Y-35401000D01*
X104599000Y-33599000D01*
X106401000Y-33599000D01*
X106401000Y-35401000D01*
G37*
G36*
X61751000Y-35351000D02*
G01*
X60349000Y-35351000D01*
X60349000Y-34549000D01*
X61751000Y-34549000D01*
X61751000Y-35351000D01*
G37*
G36*
X83346000Y-34801000D02*
G01*
X81994000Y-34801000D01*
X81994000Y-33699000D01*
X83346000Y-33699000D01*
X83346000Y-34801000D01*
G37*
G36*
X81426000Y-34801000D02*
G01*
X80074000Y-34801000D01*
X80074000Y-33699000D01*
X81426000Y-33699000D01*
X81426000Y-34801000D01*
G37*
G36*
X35989903Y-31872075D02*
G01*
X36180446Y-31951000D01*
X36217571Y-31966378D01*
X36422466Y-32103285D01*
X36596715Y-32277534D01*
X36733622Y-32482429D01*
X36733623Y-32482431D01*
X36782430Y-32600262D01*
X36827925Y-32710097D01*
X36876000Y-32951787D01*
X36876000Y-33198213D01*
X36827925Y-33439903D01*
X36733622Y-33667571D01*
X36596715Y-33872466D01*
X36422466Y-34046715D01*
X36217571Y-34183622D01*
X36217570Y-34183623D01*
X36217569Y-34183623D01*
X35989903Y-34277925D01*
X35748214Y-34326000D01*
X35501786Y-34326000D01*
X35260097Y-34277925D01*
X35032431Y-34183623D01*
X35032430Y-34183623D01*
X35032429Y-34183622D01*
X34827534Y-34046715D01*
X34653285Y-33872466D01*
X34516378Y-33667571D01*
X34422075Y-33439903D01*
X34374000Y-33198213D01*
X34374000Y-32951787D01*
X34422075Y-32710097D01*
X34467570Y-32600262D01*
X34516377Y-32482431D01*
X34516378Y-32482429D01*
X34653285Y-32277534D01*
X34827534Y-32103285D01*
X35032429Y-31966378D01*
X35069555Y-31951000D01*
X35260097Y-31872075D01*
X35501786Y-31824000D01*
X35748214Y-31824000D01*
X35989903Y-31872075D01*
G37*
G36*
X31876000Y-34326000D02*
G01*
X29374000Y-34326000D01*
X29374000Y-31824000D01*
X31876000Y-31824000D01*
X31876000Y-34326000D01*
G37*
G36*
X25376000Y-34326000D02*
G01*
X22874000Y-34326000D01*
X22874000Y-31824000D01*
X25376000Y-31824000D01*
X25376000Y-34326000D01*
G37*
G36*
X79451000Y-33701000D02*
G01*
X78049000Y-33701000D01*
X78049000Y-32899000D01*
X79451000Y-32899000D01*
X79451000Y-33701000D01*
G37*
G36*
X61751000Y-33451000D02*
G01*
X60349000Y-33451000D01*
X60349000Y-32649000D01*
X61751000Y-32649000D01*
X61751000Y-33451000D01*
G37*
G36*
X83346000Y-32801000D02*
G01*
X81994000Y-32801000D01*
X81994000Y-31699000D01*
X83346000Y-31699000D01*
X83346000Y-32801000D01*
G37*
G36*
X108891000Y-32786000D02*
G01*
X107789000Y-32786000D01*
X107789000Y-31434000D01*
X108891000Y-31434000D01*
X108891000Y-32786000D01*
G37*
G36*
X106891000Y-32786000D02*
G01*
X105789000Y-32786000D01*
X105789000Y-31434000D01*
X106891000Y-31434000D01*
X106891000Y-32786000D01*
G37*
G36*
X118403097Y-30574069D02*
G01*
X118506032Y-30584207D01*
X118704146Y-30644305D01*
X118704149Y-30644306D01*
X118755556Y-30671784D01*
X118886729Y-30741897D01*
X119046765Y-30873235D01*
X119178103Y-31033271D01*
X119203973Y-31081671D01*
X119275694Y-31215851D01*
X119275695Y-31215854D01*
X119335793Y-31413968D01*
X119356085Y-31620000D01*
X119335793Y-31826032D01*
X119297884Y-31951000D01*
X119275694Y-32024149D01*
X119248807Y-32074450D01*
X119178103Y-32206729D01*
X119046765Y-32366765D01*
X118886729Y-32498103D01*
X118811512Y-32538307D01*
X118704149Y-32595694D01*
X118704146Y-32595695D01*
X118506032Y-32655793D01*
X118403097Y-32665931D01*
X118351631Y-32671000D01*
X117648369Y-32671000D01*
X117596903Y-32665931D01*
X117493968Y-32655793D01*
X117295854Y-32595695D01*
X117295851Y-32595694D01*
X117188488Y-32538307D01*
X117113271Y-32498103D01*
X116953235Y-32366765D01*
X116821897Y-32206729D01*
X116751193Y-32074450D01*
X116724306Y-32024149D01*
X116702116Y-31951000D01*
X116664207Y-31826032D01*
X116643915Y-31620000D01*
X116664207Y-31413968D01*
X116724305Y-31215854D01*
X116724306Y-31215851D01*
X116796027Y-31081671D01*
X116821897Y-31033271D01*
X116953235Y-30873235D01*
X117113271Y-30741897D01*
X117244444Y-30671784D01*
X117295851Y-30644306D01*
X117295854Y-30644305D01*
X117493968Y-30584207D01*
X117596903Y-30574069D01*
X117648369Y-30569000D01*
X118351631Y-30569000D01*
X118403097Y-30574069D01*
G37*
G36*
X78459999Y-30999737D02*
G01*
X78469608Y-31002652D01*
X78478472Y-31007390D01*
X78486237Y-31013763D01*
X78496448Y-31026206D01*
X78503378Y-31036575D01*
X78520705Y-31053902D01*
X78541080Y-31067515D01*
X78563720Y-31076891D01*
X78587753Y-31081671D01*
X78612257Y-31081670D01*
X78636290Y-31076888D01*
X78658929Y-31067510D01*
X78679302Y-31053895D01*
X78696629Y-31036568D01*
X78703558Y-31026198D01*
X78713763Y-31013763D01*
X78721528Y-31007390D01*
X78730392Y-31002652D01*
X78740001Y-30999737D01*
X78756140Y-30998148D01*
X79243861Y-30998148D01*
X79262199Y-30999954D01*
X79274450Y-31000556D01*
X79292869Y-31000556D01*
X79315149Y-31002750D01*
X79399233Y-31019476D01*
X79420660Y-31025976D01*
X79499858Y-31058780D01*
X79505303Y-31061691D01*
X79505309Y-31061693D01*
X79514169Y-31066429D01*
X79514173Y-31066432D01*
X79519614Y-31069340D01*
X79590899Y-31116971D01*
X79608204Y-31131172D01*
X79668828Y-31191796D01*
X79683029Y-31209101D01*
X79730660Y-31280386D01*
X79733568Y-31285827D01*
X79733571Y-31285831D01*
X79738307Y-31294691D01*
X79738309Y-31294697D01*
X79741220Y-31300142D01*
X79774024Y-31379340D01*
X79780524Y-31400767D01*
X79797250Y-31484851D01*
X79799444Y-31507131D01*
X79799444Y-31525550D01*
X79800046Y-31537801D01*
X79801852Y-31556139D01*
X79801852Y-32043862D01*
X79800046Y-32062199D01*
X79799444Y-32074450D01*
X79799444Y-32092869D01*
X79797250Y-32115149D01*
X79780524Y-32199233D01*
X79774024Y-32220660D01*
X79741220Y-32299858D01*
X79738309Y-32305303D01*
X79738307Y-32305309D01*
X79733571Y-32314169D01*
X79733568Y-32314173D01*
X79730660Y-32319614D01*
X79683029Y-32390899D01*
X79668828Y-32408204D01*
X79608204Y-32468828D01*
X79590899Y-32483029D01*
X79519614Y-32530660D01*
X79514173Y-32533568D01*
X79514169Y-32533571D01*
X79505309Y-32538307D01*
X79505303Y-32538309D01*
X79499858Y-32541220D01*
X79420660Y-32574024D01*
X79399233Y-32580524D01*
X79315149Y-32597250D01*
X79292869Y-32599444D01*
X79274450Y-32599444D01*
X79262199Y-32600046D01*
X79243862Y-32601852D01*
X78756140Y-32601852D01*
X78740001Y-32600263D01*
X78730392Y-32597348D01*
X78721528Y-32592610D01*
X78713763Y-32586237D01*
X78703552Y-32573794D01*
X78696622Y-32563425D01*
X78679295Y-32546098D01*
X78658920Y-32532485D01*
X78636280Y-32523109D01*
X78612247Y-32518329D01*
X78587743Y-32518330D01*
X78563710Y-32523112D01*
X78541071Y-32532490D01*
X78520698Y-32546105D01*
X78503371Y-32563432D01*
X78496442Y-32573802D01*
X78486237Y-32586237D01*
X78478472Y-32592610D01*
X78469608Y-32597348D01*
X78459999Y-32600263D01*
X78443860Y-32601852D01*
X77956138Y-32601852D01*
X77937801Y-32600046D01*
X77925550Y-32599444D01*
X77907131Y-32599444D01*
X77884851Y-32597250D01*
X77800767Y-32580524D01*
X77779340Y-32574024D01*
X77700142Y-32541220D01*
X77694697Y-32538309D01*
X77694691Y-32538307D01*
X77685831Y-32533571D01*
X77685827Y-32533568D01*
X77680386Y-32530660D01*
X77609101Y-32483029D01*
X77591796Y-32468828D01*
X77531172Y-32408204D01*
X77516971Y-32390899D01*
X77469340Y-32319614D01*
X77466432Y-32314173D01*
X77466429Y-32314169D01*
X77461693Y-32305309D01*
X77461691Y-32305303D01*
X77458780Y-32299858D01*
X77425976Y-32220660D01*
X77419476Y-32199233D01*
X77402750Y-32115149D01*
X77400556Y-32092869D01*
X77400556Y-32074450D01*
X77399954Y-32062199D01*
X77398148Y-32043862D01*
X77398148Y-31556139D01*
X77399954Y-31537801D01*
X77400556Y-31525550D01*
X77400556Y-31507131D01*
X77402750Y-31484851D01*
X77419476Y-31400767D01*
X77425976Y-31379340D01*
X77458780Y-31300142D01*
X77461691Y-31294697D01*
X77461693Y-31294691D01*
X77466429Y-31285831D01*
X77466432Y-31285827D01*
X77469340Y-31280386D01*
X77516971Y-31209101D01*
X77531172Y-31191796D01*
X77591796Y-31131172D01*
X77609101Y-31116971D01*
X77680386Y-31069340D01*
X77685827Y-31066432D01*
X77685831Y-31066429D01*
X77694691Y-31061693D01*
X77694697Y-31061691D01*
X77700142Y-31058780D01*
X77779340Y-31025976D01*
X77800767Y-31019476D01*
X77884851Y-31002750D01*
X77907131Y-31000556D01*
X77925550Y-31000556D01*
X77937801Y-30999954D01*
X77956139Y-30998148D01*
X78443860Y-30998148D01*
X78459999Y-30999737D01*
G37*
G36*
X93601000Y-32201000D02*
G01*
X92799000Y-32201000D01*
X92799000Y-30799000D01*
X93601000Y-30799000D01*
X93601000Y-32201000D01*
G37*
G36*
X100201000Y-32201000D02*
G01*
X99399000Y-32201000D01*
X99399000Y-30799000D01*
X100201000Y-30799000D01*
X100201000Y-32201000D01*
G37*
G36*
X91701000Y-32201000D02*
G01*
X90899000Y-32201000D01*
X90899000Y-30799000D01*
X91701000Y-30799000D01*
X91701000Y-32201000D01*
G37*
G36*
X95451000Y-32201000D02*
G01*
X94649000Y-32201000D01*
X94649000Y-30799000D01*
X95451000Y-30799000D01*
X95451000Y-32201000D01*
G37*
G36*
X97351000Y-32201000D02*
G01*
X96549000Y-32201000D01*
X96549000Y-30799000D01*
X97351000Y-30799000D01*
X97351000Y-32201000D01*
G37*
G36*
X102101000Y-32201000D02*
G01*
X101299000Y-32201000D01*
X101299000Y-30799000D01*
X102101000Y-30799000D01*
X102101000Y-32201000D01*
G37*
G36*
X86281000Y-32116000D02*
G01*
X85179000Y-32116000D01*
X85179000Y-30764000D01*
X86281000Y-30764000D01*
X86281000Y-32116000D01*
G37*
G36*
X88281000Y-32116000D02*
G01*
X87179000Y-32116000D01*
X87179000Y-30764000D01*
X88281000Y-30764000D01*
X88281000Y-32116000D01*
G37*
G36*
X61801000Y-31951000D02*
G01*
X60999000Y-31951000D01*
X60999000Y-30549000D01*
X61801000Y-30549000D01*
X61801000Y-31951000D01*
G37*
G36*
X59901000Y-31951000D02*
G01*
X59099000Y-31951000D01*
X59099000Y-30549000D01*
X59901000Y-30549000D01*
X59901000Y-31951000D01*
G37*
G36*
X74818512Y-29348927D02*
G01*
X74967812Y-29378624D01*
X75131784Y-29446544D01*
X75279354Y-29545147D01*
X75404853Y-29670646D01*
X75503456Y-29818216D01*
X75571376Y-29982188D01*
X75606000Y-30156259D01*
X75606000Y-30333741D01*
X75571376Y-30507812D01*
X75503456Y-30671784D01*
X75404853Y-30819354D01*
X75279354Y-30944853D01*
X75131784Y-31043456D01*
X74967812Y-31111376D01*
X74818512Y-31141073D01*
X74793742Y-31146000D01*
X74616258Y-31146000D01*
X74591488Y-31141073D01*
X74442188Y-31111376D01*
X74278216Y-31043456D01*
X74130646Y-30944853D01*
X74005147Y-30819354D01*
X73906544Y-30671784D01*
X73838624Y-30507812D01*
X73804000Y-30333741D01*
X73804000Y-30156259D01*
X73838624Y-29982188D01*
X73906544Y-29818216D01*
X74005147Y-29670646D01*
X74130646Y-29545147D01*
X74278216Y-29446544D01*
X74442188Y-29378624D01*
X74591488Y-29348927D01*
X74616258Y-29344000D01*
X74793742Y-29344000D01*
X74818512Y-29348927D01*
G37*
G36*
X81803512Y-29348927D02*
G01*
X81952812Y-29378624D01*
X82116784Y-29446544D01*
X82264354Y-29545147D01*
X82389853Y-29670646D01*
X82488456Y-29818216D01*
X82556376Y-29982188D01*
X82591000Y-30156259D01*
X82591000Y-30333741D01*
X82556376Y-30507812D01*
X82488456Y-30671784D01*
X82389853Y-30819354D01*
X82264354Y-30944853D01*
X82116784Y-31043456D01*
X81952812Y-31111376D01*
X81803512Y-31141073D01*
X81778742Y-31146000D01*
X81601258Y-31146000D01*
X81576488Y-31141073D01*
X81427188Y-31111376D01*
X81263216Y-31043456D01*
X81115646Y-30944853D01*
X80990147Y-30819354D01*
X80891544Y-30671784D01*
X80823624Y-30507812D01*
X80789000Y-30333741D01*
X80789000Y-30156259D01*
X80823624Y-29982188D01*
X80891544Y-29818216D01*
X80990147Y-29670646D01*
X81115646Y-29545147D01*
X81263216Y-29446544D01*
X81427188Y-29378624D01*
X81576488Y-29348927D01*
X81601258Y-29344000D01*
X81778742Y-29344000D01*
X81803512Y-29348927D01*
G37*
G36*
X34751000Y-31076000D02*
G01*
X33649000Y-31076000D01*
X33649000Y-29724000D01*
X34751000Y-29724000D01*
X34751000Y-31076000D01*
G37*
G36*
X32751000Y-31076000D02*
G01*
X31649000Y-31076000D01*
X31649000Y-29724000D01*
X32751000Y-29724000D01*
X32751000Y-31076000D01*
G37*
G36*
X78151000Y-30276000D02*
G01*
X77049000Y-30276000D01*
X77049000Y-28924000D01*
X78151000Y-28924000D01*
X78151000Y-30276000D01*
G37*
G36*
X80151000Y-30276000D02*
G01*
X79049000Y-30276000D01*
X79049000Y-28924000D01*
X80151000Y-28924000D01*
X80151000Y-30276000D01*
G37*
G36*
X118403097Y-28034069D02*
G01*
X118506032Y-28044207D01*
X118704146Y-28104305D01*
X118704149Y-28104306D01*
X118800975Y-28156061D01*
X118886729Y-28201897D01*
X119046765Y-28333235D01*
X119178103Y-28493271D01*
X119219850Y-28571375D01*
X119275694Y-28675851D01*
X119275695Y-28675854D01*
X119335793Y-28873968D01*
X119356085Y-29080000D01*
X119335793Y-29286032D01*
X119280220Y-29469229D01*
X119275694Y-29484149D01*
X119243912Y-29543608D01*
X119178103Y-29666729D01*
X119046765Y-29826765D01*
X118886729Y-29958103D01*
X118800975Y-30003939D01*
X118704149Y-30055694D01*
X118704146Y-30055695D01*
X118506032Y-30115793D01*
X118403097Y-30125931D01*
X118351631Y-30131000D01*
X117648369Y-30131000D01*
X117596903Y-30125931D01*
X117493968Y-30115793D01*
X117295854Y-30055695D01*
X117295851Y-30055694D01*
X117199025Y-30003939D01*
X117113271Y-29958103D01*
X116953235Y-29826765D01*
X116821897Y-29666729D01*
X116756088Y-29543608D01*
X116724306Y-29484149D01*
X116719780Y-29469229D01*
X116664207Y-29286032D01*
X116643915Y-29080000D01*
X116664207Y-28873968D01*
X116724305Y-28675854D01*
X116724306Y-28675851D01*
X116780150Y-28571375D01*
X116821897Y-28493271D01*
X116953235Y-28333235D01*
X117113271Y-28201897D01*
X117199025Y-28156061D01*
X117295851Y-28104306D01*
X117295854Y-28104305D01*
X117493968Y-28044207D01*
X117596903Y-28034069D01*
X117648369Y-28029000D01*
X118351631Y-28029000D01*
X118403097Y-28034069D01*
G37*
G36*
X61776000Y-29951000D02*
G01*
X60974000Y-29951000D01*
X60974000Y-28549000D01*
X61776000Y-28549000D01*
X61776000Y-29951000D01*
G37*
G36*
X59876000Y-29951000D02*
G01*
X59074000Y-29951000D01*
X59074000Y-28549000D01*
X59876000Y-28549000D01*
X59876000Y-29951000D01*
G37*
G36*
X96186778Y-28095547D02*
G01*
X96353224Y-28164491D01*
X96503022Y-28264583D01*
X96630417Y-28391978D01*
X96730509Y-28541776D01*
X96799453Y-28708222D01*
X96834600Y-28884918D01*
X96834600Y-29065082D01*
X96799453Y-29241778D01*
X96730509Y-29408224D01*
X96630417Y-29558022D01*
X96503022Y-29685417D01*
X96353224Y-29785509D01*
X96186778Y-29854453D01*
X96010082Y-29889600D01*
X95829918Y-29889600D01*
X95653222Y-29854453D01*
X95486776Y-29785509D01*
X95336978Y-29685417D01*
X95209583Y-29558022D01*
X95109491Y-29408224D01*
X95040547Y-29241778D01*
X95005400Y-29065082D01*
X95005400Y-28884918D01*
X95040547Y-28708222D01*
X95109491Y-28541776D01*
X95209583Y-28391978D01*
X95336978Y-28264583D01*
X95486776Y-28164491D01*
X95653222Y-28095547D01*
X95829918Y-28060400D01*
X96010082Y-28060400D01*
X96186778Y-28095547D01*
G37*
G36*
X101266778Y-28095547D02*
G01*
X101433224Y-28164491D01*
X101583022Y-28264583D01*
X101710417Y-28391978D01*
X101810509Y-28541776D01*
X101879453Y-28708222D01*
X101914600Y-28884918D01*
X101914600Y-29065082D01*
X101879453Y-29241778D01*
X101810509Y-29408224D01*
X101710417Y-29558022D01*
X101583022Y-29685417D01*
X101433224Y-29785509D01*
X101266778Y-29854453D01*
X101090082Y-29889600D01*
X100909918Y-29889600D01*
X100733222Y-29854453D01*
X100566776Y-29785509D01*
X100416978Y-29685417D01*
X100289583Y-29558022D01*
X100189491Y-29408224D01*
X100120547Y-29241778D01*
X100085400Y-29065082D01*
X100085400Y-28884918D01*
X100120547Y-28708222D01*
X100189491Y-28541776D01*
X100289583Y-28391978D01*
X100416978Y-28264583D01*
X100566776Y-28164491D01*
X100733222Y-28095547D01*
X100909918Y-28060400D01*
X101090082Y-28060400D01*
X101266778Y-28095547D01*
G37*
G36*
X98726778Y-28095547D02*
G01*
X98893224Y-28164491D01*
X99043022Y-28264583D01*
X99170417Y-28391978D01*
X99270509Y-28541776D01*
X99339453Y-28708222D01*
X99374600Y-28884918D01*
X99374600Y-29065082D01*
X99339453Y-29241778D01*
X99270509Y-29408224D01*
X99170417Y-29558022D01*
X99043022Y-29685417D01*
X98893224Y-29785509D01*
X98726778Y-29854453D01*
X98550082Y-29889600D01*
X98369918Y-29889600D01*
X98193222Y-29854453D01*
X98026776Y-29785509D01*
X97876978Y-29685417D01*
X97749583Y-29558022D01*
X97649491Y-29408224D01*
X97580547Y-29241778D01*
X97545400Y-29065082D01*
X97545400Y-28884918D01*
X97580547Y-28708222D01*
X97649491Y-28541776D01*
X97749583Y-28391978D01*
X97876978Y-28264583D01*
X98026776Y-28164491D01*
X98193222Y-28095547D01*
X98369918Y-28060400D01*
X98550082Y-28060400D01*
X98726778Y-28095547D01*
G37*
G36*
X91106778Y-28095547D02*
G01*
X91273224Y-28164491D01*
X91423022Y-28264583D01*
X91550417Y-28391978D01*
X91650509Y-28541776D01*
X91719453Y-28708222D01*
X91754600Y-28884918D01*
X91754600Y-29065082D01*
X91719453Y-29241778D01*
X91650509Y-29408224D01*
X91550417Y-29558022D01*
X91423022Y-29685417D01*
X91273224Y-29785509D01*
X91106778Y-29854453D01*
X90930082Y-29889600D01*
X90749918Y-29889600D01*
X90573222Y-29854453D01*
X90406776Y-29785509D01*
X90256978Y-29685417D01*
X90129583Y-29558022D01*
X90029491Y-29408224D01*
X89960547Y-29241778D01*
X89925400Y-29065082D01*
X89925400Y-28884918D01*
X89960547Y-28708222D01*
X90029491Y-28541776D01*
X90129583Y-28391978D01*
X90256978Y-28264583D01*
X90406776Y-28164491D01*
X90573222Y-28095547D01*
X90749918Y-28060400D01*
X90930082Y-28060400D01*
X91106778Y-28095547D01*
G37*
G36*
X93646778Y-28095547D02*
G01*
X93813224Y-28164491D01*
X93963022Y-28264583D01*
X94090417Y-28391978D01*
X94190509Y-28541776D01*
X94259453Y-28708222D01*
X94294600Y-28884918D01*
X94294600Y-29065082D01*
X94259453Y-29241778D01*
X94190509Y-29408224D01*
X94090417Y-29558022D01*
X93963022Y-29685417D01*
X93813224Y-29785509D01*
X93646778Y-29854453D01*
X93470082Y-29889600D01*
X93289918Y-29889600D01*
X93113222Y-29854453D01*
X92946776Y-29785509D01*
X92796978Y-29685417D01*
X92669583Y-29558022D01*
X92569491Y-29408224D01*
X92500547Y-29241778D01*
X92465400Y-29065082D01*
X92465400Y-28884918D01*
X92500547Y-28708222D01*
X92569491Y-28541776D01*
X92669583Y-28391978D01*
X92796978Y-28264583D01*
X92946776Y-28164491D01*
X93113222Y-28095547D01*
X93289918Y-28060400D01*
X93470082Y-28060400D01*
X93646778Y-28095547D01*
G37*
G36*
X56982023Y-27510590D02*
G01*
X57082682Y-27541125D01*
X57133013Y-27556392D01*
X57272165Y-27630771D01*
X57394133Y-27730867D01*
X57494229Y-27852835D01*
X57568608Y-27991987D01*
X57583875Y-28042318D01*
X57614410Y-28142977D01*
X57626000Y-28260655D01*
X57626000Y-28839345D01*
X57614410Y-28957023D01*
X57583875Y-29057682D01*
X57568608Y-29108013D01*
X57497108Y-29241778D01*
X57494229Y-29247165D01*
X57394133Y-29369133D01*
X57299806Y-29446544D01*
X57272164Y-29469229D01*
X57133012Y-29543608D01*
X57085494Y-29558022D01*
X56982022Y-29589410D01*
X56825000Y-29604875D01*
X56667977Y-29589410D01*
X56564505Y-29558022D01*
X56516987Y-29543608D01*
X56377835Y-29469229D01*
X56350193Y-29446544D01*
X56255867Y-29369133D01*
X56155771Y-29247164D01*
X56081393Y-29108013D01*
X56081392Y-29108012D01*
X56066125Y-29057681D01*
X56035590Y-28957022D01*
X56024000Y-28839344D01*
X56024000Y-28260655D01*
X56035590Y-28142977D01*
X56066125Y-28042318D01*
X56081392Y-27991987D01*
X56103301Y-27951000D01*
X56155771Y-27852835D01*
X56255868Y-27730867D01*
X56377836Y-27630771D01*
X56454835Y-27589614D01*
X56516988Y-27556392D01*
X56567319Y-27541125D01*
X56667978Y-27510590D01*
X56825000Y-27495125D01*
X56982023Y-27510590D01*
G37*
G36*
X46132023Y-27510590D02*
G01*
X46232682Y-27541125D01*
X46283013Y-27556392D01*
X46422165Y-27630771D01*
X46544133Y-27730867D01*
X46644229Y-27852835D01*
X46718608Y-27991987D01*
X46733875Y-28042318D01*
X46764410Y-28142977D01*
X46776000Y-28260655D01*
X46776000Y-28839345D01*
X46764410Y-28957023D01*
X46733875Y-29057682D01*
X46718608Y-29108013D01*
X46647108Y-29241778D01*
X46644229Y-29247165D01*
X46544133Y-29369133D01*
X46449806Y-29446544D01*
X46422164Y-29469229D01*
X46283012Y-29543608D01*
X46235494Y-29558022D01*
X46132022Y-29589410D01*
X45975000Y-29604875D01*
X45817977Y-29589410D01*
X45714505Y-29558022D01*
X45666987Y-29543608D01*
X45527835Y-29469229D01*
X45500193Y-29446544D01*
X45405867Y-29369133D01*
X45305771Y-29247164D01*
X45231393Y-29108013D01*
X45231392Y-29108012D01*
X45216125Y-29057681D01*
X45185590Y-28957022D01*
X45174000Y-28839344D01*
X45174000Y-28260655D01*
X45185590Y-28142977D01*
X45216125Y-28042318D01*
X45231392Y-27991987D01*
X45253301Y-27951000D01*
X45305771Y-27852835D01*
X45405868Y-27730867D01*
X45527836Y-27630771D01*
X45604835Y-27589614D01*
X45666988Y-27556392D01*
X45717319Y-27541125D01*
X45817978Y-27510590D01*
X45975000Y-27495125D01*
X46132023Y-27510590D01*
G37*
G36*
X67291000Y-29276000D02*
G01*
X66189000Y-29276000D01*
X66189000Y-27924000D01*
X67291000Y-27924000D01*
X67291000Y-29276000D01*
G37*
G36*
X65291000Y-29276000D02*
G01*
X64189000Y-29276000D01*
X64189000Y-27924000D01*
X65291000Y-27924000D01*
X65291000Y-29276000D01*
G37*
G36*
X110061000Y-28801000D02*
G01*
X109059000Y-28801000D01*
X109059000Y-27899000D01*
X110061000Y-27899000D01*
X110061000Y-28801000D01*
G37*
G36*
X106341000Y-28651000D02*
G01*
X105339000Y-28651000D01*
X105339000Y-27749000D01*
X106341000Y-27749000D01*
X106341000Y-28651000D01*
G37*
G36*
X74818512Y-26808927D02*
G01*
X74967812Y-26838624D01*
X75131784Y-26906544D01*
X75279354Y-27005147D01*
X75404853Y-27130646D01*
X75503456Y-27278216D01*
X75571376Y-27442188D01*
X75606000Y-27616259D01*
X75606000Y-27793741D01*
X75571376Y-27967812D01*
X75503456Y-28131784D01*
X75404853Y-28279354D01*
X75279354Y-28404853D01*
X75131784Y-28503456D01*
X74967812Y-28571376D01*
X74818512Y-28601073D01*
X74793742Y-28606000D01*
X74616258Y-28606000D01*
X74591488Y-28601073D01*
X74442188Y-28571376D01*
X74278216Y-28503456D01*
X74130646Y-28404853D01*
X74005147Y-28279354D01*
X73906544Y-28131784D01*
X73838624Y-27967812D01*
X73804000Y-27793741D01*
X73804000Y-27616259D01*
X73838624Y-27442188D01*
X73906544Y-27278216D01*
X74005147Y-27130646D01*
X74130646Y-27005147D01*
X74278216Y-26906544D01*
X74442188Y-26838624D01*
X74591488Y-26808927D01*
X74616258Y-26804000D01*
X74793742Y-26804000D01*
X74818512Y-26808927D01*
G37*
G36*
X81803512Y-26808927D02*
G01*
X81952812Y-26838624D01*
X82116784Y-26906544D01*
X82264354Y-27005147D01*
X82389853Y-27130646D01*
X82488456Y-27278216D01*
X82556376Y-27442188D01*
X82591000Y-27616259D01*
X82591000Y-27793741D01*
X82556376Y-27967812D01*
X82488456Y-28131784D01*
X82389853Y-28279354D01*
X82264354Y-28404853D01*
X82116784Y-28503456D01*
X81952812Y-28571376D01*
X81803512Y-28601073D01*
X81778742Y-28606000D01*
X81601258Y-28606000D01*
X81576488Y-28601073D01*
X81427188Y-28571376D01*
X81263216Y-28503456D01*
X81115646Y-28404853D01*
X80990147Y-28279354D01*
X80891544Y-28131784D01*
X80823624Y-27967812D01*
X80789000Y-27793741D01*
X80789000Y-27616259D01*
X80823624Y-27442188D01*
X80891544Y-27278216D01*
X80990147Y-27130646D01*
X81115646Y-27005147D01*
X81263216Y-26906544D01*
X81427188Y-26838624D01*
X81576488Y-26808927D01*
X81601258Y-26804000D01*
X81778742Y-26804000D01*
X81803512Y-26808927D01*
G37*
G36*
X79951000Y-28501000D02*
G01*
X79149000Y-28501000D01*
X79149000Y-27099000D01*
X79951000Y-27099000D01*
X79951000Y-28501000D01*
G37*
G36*
X78051000Y-28501000D02*
G01*
X77249000Y-28501000D01*
X77249000Y-27099000D01*
X78051000Y-27099000D01*
X78051000Y-28501000D01*
G37*
G36*
X47810721Y-27220174D02*
G01*
X47910995Y-27261709D01*
X47910996Y-27261710D01*
X48001242Y-27322010D01*
X48077990Y-27398758D01*
X48077991Y-27398760D01*
X48138291Y-27489005D01*
X48179826Y-27589279D01*
X48201000Y-27695730D01*
X48201000Y-27804270D01*
X48179826Y-27910721D01*
X48138291Y-28010995D01*
X48138290Y-28010996D01*
X48077990Y-28101242D01*
X48001242Y-28177990D01*
X47965462Y-28201897D01*
X47910995Y-28238291D01*
X47810721Y-28279826D01*
X47704270Y-28301000D01*
X47595730Y-28301000D01*
X47489279Y-28279826D01*
X47389005Y-28238291D01*
X47334538Y-28201897D01*
X47298758Y-28177990D01*
X47222010Y-28101242D01*
X47161710Y-28010996D01*
X47161709Y-28010995D01*
X47120174Y-27910721D01*
X47099000Y-27804270D01*
X47099000Y-27695730D01*
X47120174Y-27589279D01*
X47161709Y-27489005D01*
X47222009Y-27398760D01*
X47222010Y-27398758D01*
X47298758Y-27322010D01*
X47389004Y-27261710D01*
X47389005Y-27261709D01*
X47489279Y-27220174D01*
X47595730Y-27199000D01*
X47704270Y-27199000D01*
X47810721Y-27220174D01*
G37*
G36*
X55310721Y-27220174D02*
G01*
X55410995Y-27261709D01*
X55410996Y-27261710D01*
X55501242Y-27322010D01*
X55577990Y-27398758D01*
X55577991Y-27398760D01*
X55638291Y-27489005D01*
X55679826Y-27589279D01*
X55701000Y-27695730D01*
X55701000Y-27804270D01*
X55679826Y-27910721D01*
X55638291Y-28010995D01*
X55638290Y-28010996D01*
X55577990Y-28101242D01*
X55501242Y-28177990D01*
X55465462Y-28201897D01*
X55410995Y-28238291D01*
X55310721Y-28279826D01*
X55204270Y-28301000D01*
X55095730Y-28301000D01*
X54989279Y-28279826D01*
X54889005Y-28238291D01*
X54834538Y-28201897D01*
X54798758Y-28177990D01*
X54722010Y-28101242D01*
X54661710Y-28010996D01*
X54661709Y-28010995D01*
X54620174Y-27910721D01*
X54599000Y-27804270D01*
X54599000Y-27695730D01*
X54620174Y-27589279D01*
X54661709Y-27489005D01*
X54722009Y-27398760D01*
X54722010Y-27398758D01*
X54798758Y-27322010D01*
X54889004Y-27261710D01*
X54889005Y-27261709D01*
X54989279Y-27220174D01*
X55095730Y-27199000D01*
X55204270Y-27199000D01*
X55310721Y-27220174D01*
G37*
G36*
X61776000Y-27951000D02*
G01*
X60974000Y-27951000D01*
X60974000Y-26549000D01*
X61776000Y-26549000D01*
X61776000Y-27951000D01*
G37*
G36*
X59876000Y-27951000D02*
G01*
X59074000Y-27951000D01*
X59074000Y-26549000D01*
X59876000Y-26549000D01*
X59876000Y-27951000D01*
G37*
G36*
X86262199Y-24169954D02*
G01*
X86274450Y-24170556D01*
X86292869Y-24170556D01*
X86315149Y-24172750D01*
X86399233Y-24189476D01*
X86420660Y-24195976D01*
X86499858Y-24228780D01*
X86505303Y-24231691D01*
X86505309Y-24231693D01*
X86514169Y-24236429D01*
X86514173Y-24236432D01*
X86519614Y-24239340D01*
X86590899Y-24286971D01*
X86608204Y-24301172D01*
X86668828Y-24361796D01*
X86683029Y-24379101D01*
X86730660Y-24450386D01*
X86733568Y-24455827D01*
X86733571Y-24455831D01*
X86738307Y-24464691D01*
X86738309Y-24464697D01*
X86741220Y-24470142D01*
X86774024Y-24549340D01*
X86780524Y-24570767D01*
X86797250Y-24654851D01*
X86799444Y-24677131D01*
X86799444Y-24695550D01*
X86800046Y-24707801D01*
X86801852Y-24726139D01*
X86801852Y-25263860D01*
X86800263Y-25279999D01*
X86795855Y-25294528D01*
X86790394Y-25307711D01*
X86785612Y-25331745D01*
X86785611Y-25356249D01*
X86790391Y-25380282D01*
X86799768Y-25402921D01*
X86801000Y-25404765D01*
X86801000Y-26636050D01*
X86794525Y-26648164D01*
X86787412Y-26671613D01*
X86785010Y-26695999D01*
X86787412Y-26720385D01*
X86794525Y-26743834D01*
X86796848Y-26748746D01*
X86800263Y-26760001D01*
X86801852Y-26776140D01*
X86801852Y-27313862D01*
X86800046Y-27332199D01*
X86799444Y-27344450D01*
X86799444Y-27362869D01*
X86797250Y-27385149D01*
X86780524Y-27469233D01*
X86774024Y-27490660D01*
X86741220Y-27569858D01*
X86738309Y-27575303D01*
X86738307Y-27575309D01*
X86733571Y-27584169D01*
X86733568Y-27584173D01*
X86730660Y-27589614D01*
X86683029Y-27660899D01*
X86668828Y-27678204D01*
X86608204Y-27738828D01*
X86590899Y-27753029D01*
X86519614Y-27800660D01*
X86514173Y-27803568D01*
X86514169Y-27803571D01*
X86505309Y-27808307D01*
X86505303Y-27808309D01*
X86499858Y-27811220D01*
X86420660Y-27844024D01*
X86399233Y-27850524D01*
X86315149Y-27867250D01*
X86292869Y-27869444D01*
X86274450Y-27869444D01*
X86262199Y-27870046D01*
X86243862Y-27871852D01*
X85756138Y-27871852D01*
X85737801Y-27870046D01*
X85725550Y-27869444D01*
X85707131Y-27869444D01*
X85684851Y-27867250D01*
X85600767Y-27850524D01*
X85579340Y-27844024D01*
X85500142Y-27811220D01*
X85494697Y-27808309D01*
X85494691Y-27808307D01*
X85485831Y-27803571D01*
X85485827Y-27803568D01*
X85480386Y-27800660D01*
X85409101Y-27753029D01*
X85391796Y-27738828D01*
X85331172Y-27678204D01*
X85316971Y-27660899D01*
X85269340Y-27589614D01*
X85266432Y-27584173D01*
X85266429Y-27584169D01*
X85261693Y-27575309D01*
X85261691Y-27575303D01*
X85258780Y-27569858D01*
X85225976Y-27490660D01*
X85219476Y-27469233D01*
X85202750Y-27385149D01*
X85200556Y-27362869D01*
X85200556Y-27344450D01*
X85199954Y-27332199D01*
X85198148Y-27313862D01*
X85198148Y-26776140D01*
X85199737Y-26760001D01*
X85204145Y-26745472D01*
X85209606Y-26732289D01*
X85214388Y-26708255D01*
X85214389Y-26683751D01*
X85209609Y-26659718D01*
X85200232Y-26637079D01*
X85199000Y-26635235D01*
X85199000Y-25403950D01*
X85205475Y-25391836D01*
X85212588Y-25368387D01*
X85214990Y-25344001D01*
X85212588Y-25319615D01*
X85205475Y-25296166D01*
X85203152Y-25291254D01*
X85199737Y-25279999D01*
X85198148Y-25263860D01*
X85198148Y-24726139D01*
X85199954Y-24707801D01*
X85200556Y-24695550D01*
X85200556Y-24677131D01*
X85202750Y-24654851D01*
X85219476Y-24570767D01*
X85225976Y-24549340D01*
X85258780Y-24470142D01*
X85261691Y-24464697D01*
X85261693Y-24464691D01*
X85266429Y-24455831D01*
X85266432Y-24455827D01*
X85269340Y-24450386D01*
X85316971Y-24379101D01*
X85331172Y-24361796D01*
X85391796Y-24301172D01*
X85409101Y-24286971D01*
X85480386Y-24239340D01*
X85485827Y-24236432D01*
X85485831Y-24236429D01*
X85494691Y-24231693D01*
X85494697Y-24231691D01*
X85500142Y-24228780D01*
X85579340Y-24195976D01*
X85600767Y-24189476D01*
X85684851Y-24172750D01*
X85707131Y-24170556D01*
X85725550Y-24170556D01*
X85737801Y-24169954D01*
X85756139Y-24168148D01*
X86243861Y-24168148D01*
X86262199Y-24169954D01*
G37*
G36*
X108061000Y-27851000D02*
G01*
X107059000Y-27851000D01*
X107059000Y-26949000D01*
X108061000Y-26949000D01*
X108061000Y-27851000D01*
G37*
G36*
X111701000Y-27701000D02*
G01*
X110899000Y-27701000D01*
X110899000Y-26299000D01*
X111701000Y-26299000D01*
X111701000Y-27701000D01*
G37*
G36*
X113601000Y-27701000D02*
G01*
X112799000Y-27701000D01*
X112799000Y-26299000D01*
X113601000Y-26299000D01*
X113601000Y-27701000D01*
G37*
G36*
X104341000Y-27701000D02*
G01*
X103339000Y-27701000D01*
X103339000Y-26799000D01*
X104341000Y-26799000D01*
X104341000Y-27701000D01*
G37*
G36*
X115951000Y-27601000D02*
G01*
X114549000Y-27601000D01*
X114549000Y-26799000D01*
X115951000Y-26799000D01*
X115951000Y-27601000D01*
G37*
G36*
X118403097Y-25494069D02*
G01*
X118506032Y-25504207D01*
X118675275Y-25555547D01*
X118704149Y-25564306D01*
X118800975Y-25616061D01*
X118886729Y-25661897D01*
X119046765Y-25793235D01*
X119178103Y-25953271D01*
X119202545Y-25999000D01*
X119275694Y-26135851D01*
X119275695Y-26135854D01*
X119335793Y-26333968D01*
X119356085Y-26540000D01*
X119335793Y-26746032D01*
X119275695Y-26944146D01*
X119275694Y-26944149D01*
X119273101Y-26949000D01*
X119178103Y-27126729D01*
X119046765Y-27286765D01*
X118886729Y-27418103D01*
X118800975Y-27463939D01*
X118704149Y-27515694D01*
X118704146Y-27515695D01*
X118506032Y-27575793D01*
X118403097Y-27585931D01*
X118351631Y-27591000D01*
X117648369Y-27591000D01*
X117596903Y-27585931D01*
X117493968Y-27575793D01*
X117295854Y-27515695D01*
X117295851Y-27515694D01*
X117199025Y-27463939D01*
X117113271Y-27418103D01*
X116953235Y-27286765D01*
X116821897Y-27126729D01*
X116726899Y-26949000D01*
X116724306Y-26944149D01*
X116724305Y-26944146D01*
X116664207Y-26746032D01*
X116643915Y-26540000D01*
X116664207Y-26333968D01*
X116724305Y-26135854D01*
X116724306Y-26135851D01*
X116797455Y-25999000D01*
X116821897Y-25953271D01*
X116953235Y-25793235D01*
X117113271Y-25661897D01*
X117199025Y-25616061D01*
X117295851Y-25564306D01*
X117324725Y-25555547D01*
X117493968Y-25504207D01*
X117596903Y-25494069D01*
X117648369Y-25489000D01*
X118351631Y-25489000D01*
X118403097Y-25494069D01*
G37*
G36*
X89451000Y-27351000D02*
G01*
X88049000Y-27351000D01*
X88049000Y-26549000D01*
X89451000Y-26549000D01*
X89451000Y-27351000D01*
G37*
G36*
X101914600Y-27349600D02*
G01*
X100085400Y-27349600D01*
X100085400Y-25520400D01*
X101914600Y-25520400D01*
X101914600Y-27349600D01*
G37*
G36*
X98726778Y-25555547D02*
G01*
X98893224Y-25624491D01*
X99043022Y-25724583D01*
X99170417Y-25851978D01*
X99270509Y-26001776D01*
X99339453Y-26168222D01*
X99374600Y-26344918D01*
X99374600Y-26525082D01*
X99339453Y-26701778D01*
X99270509Y-26868224D01*
X99170417Y-27018022D01*
X99043022Y-27145417D01*
X98893224Y-27245509D01*
X98726778Y-27314453D01*
X98550082Y-27349600D01*
X98369918Y-27349600D01*
X98193222Y-27314453D01*
X98026776Y-27245509D01*
X97876978Y-27145417D01*
X97749583Y-27018022D01*
X97649491Y-26868224D01*
X97580547Y-26701778D01*
X97545400Y-26525082D01*
X97545400Y-26344918D01*
X97580547Y-26168222D01*
X97649491Y-26001776D01*
X97749583Y-25851978D01*
X97876978Y-25724583D01*
X98026776Y-25624491D01*
X98193222Y-25555547D01*
X98369918Y-25520400D01*
X98550082Y-25520400D01*
X98726778Y-25555547D01*
G37*
G36*
X96186778Y-25555547D02*
G01*
X96353224Y-25624491D01*
X96503022Y-25724583D01*
X96630417Y-25851978D01*
X96730509Y-26001776D01*
X96799453Y-26168222D01*
X96834600Y-26344918D01*
X96834600Y-26525082D01*
X96799453Y-26701778D01*
X96730509Y-26868224D01*
X96630417Y-27018022D01*
X96503022Y-27145417D01*
X96353224Y-27245509D01*
X96186778Y-27314453D01*
X96010082Y-27349600D01*
X95829918Y-27349600D01*
X95653222Y-27314453D01*
X95486776Y-27245509D01*
X95336978Y-27145417D01*
X95209583Y-27018022D01*
X95109491Y-26868224D01*
X95040547Y-26701778D01*
X95005400Y-26525082D01*
X95005400Y-26344918D01*
X95040547Y-26168222D01*
X95109491Y-26001776D01*
X95209583Y-25851978D01*
X95336978Y-25724583D01*
X95486776Y-25624491D01*
X95653222Y-25555547D01*
X95829918Y-25520400D01*
X96010082Y-25520400D01*
X96186778Y-25555547D01*
G37*
G36*
X93646778Y-25555547D02*
G01*
X93813224Y-25624491D01*
X93963022Y-25724583D01*
X94090417Y-25851978D01*
X94190509Y-26001776D01*
X94259453Y-26168222D01*
X94294600Y-26344918D01*
X94294600Y-26525082D01*
X94259453Y-26701778D01*
X94190509Y-26868224D01*
X94090417Y-27018022D01*
X93963022Y-27145417D01*
X93813224Y-27245509D01*
X93646778Y-27314453D01*
X93470082Y-27349600D01*
X93289918Y-27349600D01*
X93113222Y-27314453D01*
X92946776Y-27245509D01*
X92796978Y-27145417D01*
X92669583Y-27018022D01*
X92569491Y-26868224D01*
X92500547Y-26701778D01*
X92465400Y-26525082D01*
X92465400Y-26344918D01*
X92500547Y-26168222D01*
X92569491Y-26001776D01*
X92669583Y-25851978D01*
X92796978Y-25724583D01*
X92946776Y-25624491D01*
X93113222Y-25555547D01*
X93289918Y-25520400D01*
X93470082Y-25520400D01*
X93646778Y-25555547D01*
G37*
G36*
X91106778Y-25555547D02*
G01*
X91273224Y-25624491D01*
X91423022Y-25724583D01*
X91550417Y-25851978D01*
X91650509Y-26001776D01*
X91719453Y-26168222D01*
X91754600Y-26344918D01*
X91754600Y-26525082D01*
X91719453Y-26701778D01*
X91650509Y-26868224D01*
X91550417Y-27018022D01*
X91423022Y-27145417D01*
X91273224Y-27245509D01*
X91106778Y-27314453D01*
X90930082Y-27349600D01*
X90749918Y-27349600D01*
X90573222Y-27314453D01*
X90406776Y-27245509D01*
X90256978Y-27145417D01*
X90129583Y-27018022D01*
X90029491Y-26868224D01*
X89960547Y-26701778D01*
X89925400Y-26525082D01*
X89925400Y-26344918D01*
X89960547Y-26168222D01*
X90029491Y-26001776D01*
X90129583Y-25851978D01*
X90256978Y-25724583D01*
X90406776Y-25624491D01*
X90573222Y-25555547D01*
X90749918Y-25520400D01*
X90930082Y-25520400D01*
X91106778Y-25555547D01*
G37*
G36*
X71551000Y-27301000D02*
G01*
X70749000Y-27301000D01*
X70749000Y-25899000D01*
X71551000Y-25899000D01*
X71551000Y-27301000D01*
G37*
G36*
X69651000Y-27301000D02*
G01*
X68849000Y-27301000D01*
X68849000Y-25899000D01*
X69651000Y-25899000D01*
X69651000Y-27301000D01*
G37*
G36*
X67351000Y-27276000D02*
G01*
X66249000Y-27276000D01*
X66249000Y-25924000D01*
X67351000Y-25924000D01*
X67351000Y-27276000D01*
G37*
G36*
X65351000Y-27276000D02*
G01*
X64249000Y-27276000D01*
X64249000Y-25924000D01*
X65351000Y-25924000D01*
X65351000Y-27276000D01*
G37*
G36*
X110061000Y-26901000D02*
G01*
X109059000Y-26901000D01*
X109059000Y-25999000D01*
X110061000Y-25999000D01*
X110061000Y-26901000D01*
G37*
G36*
X106341000Y-26751000D02*
G01*
X105339000Y-26751000D01*
X105339000Y-25849000D01*
X106341000Y-25849000D01*
X106341000Y-26751000D01*
G37*
G36*
X80151000Y-26676000D02*
G01*
X79049000Y-26676000D01*
X79049000Y-25324000D01*
X80151000Y-25324000D01*
X80151000Y-26676000D01*
G37*
G36*
X78151000Y-26676000D02*
G01*
X77049000Y-26676000D01*
X77049000Y-25324000D01*
X78151000Y-25324000D01*
X78151000Y-26676000D01*
G37*
G36*
X75606000Y-26066000D02*
G01*
X73804000Y-26066000D01*
X73804000Y-24264000D01*
X75606000Y-24264000D01*
X75606000Y-26066000D01*
G37*
G36*
X82591000Y-26066000D02*
G01*
X80789000Y-26066000D01*
X80789000Y-24264000D01*
X82591000Y-24264000D01*
X82591000Y-26066000D01*
G37*
G36*
X59876000Y-25951000D02*
G01*
X59074000Y-25951000D01*
X59074000Y-24549000D01*
X59876000Y-24549000D01*
X59876000Y-25951000D01*
G37*
G36*
X61776000Y-25951000D02*
G01*
X60974000Y-25951000D01*
X60974000Y-24549000D01*
X61776000Y-24549000D01*
X61776000Y-25951000D01*
G37*
G36*
X115951000Y-25701000D02*
G01*
X114549000Y-25701000D01*
X114549000Y-24899000D01*
X115951000Y-24899000D01*
X115951000Y-25701000D01*
G37*
G36*
X89451000Y-25451000D02*
G01*
X88049000Y-25451000D01*
X88049000Y-24649000D01*
X89451000Y-24649000D01*
X89451000Y-25451000D01*
G37*
G36*
X46132023Y-23010590D02*
G01*
X46232682Y-23041125D01*
X46283013Y-23056392D01*
X46422165Y-23130771D01*
X46544133Y-23230867D01*
X46644229Y-23352835D01*
X46718608Y-23491987D01*
X46718608Y-23491988D01*
X46764410Y-23642977D01*
X46776000Y-23760655D01*
X46776000Y-24339345D01*
X46764410Y-24457023D01*
X46760430Y-24470142D01*
X46718608Y-24608013D01*
X46665270Y-24707801D01*
X46644229Y-24747165D01*
X46544133Y-24869133D01*
X46507739Y-24899000D01*
X46422164Y-24969229D01*
X46283012Y-25043608D01*
X46258643Y-25051000D01*
X46132022Y-25089410D01*
X45975000Y-25104875D01*
X45817977Y-25089410D01*
X45691356Y-25051000D01*
X45666987Y-25043608D01*
X45527835Y-24969229D01*
X45405867Y-24869133D01*
X45305771Y-24747164D01*
X45294533Y-24726139D01*
X45231392Y-24608012D01*
X45189570Y-24470142D01*
X45185590Y-24457022D01*
X45174000Y-24339344D01*
X45174000Y-23760655D01*
X45185590Y-23642977D01*
X45231392Y-23491988D01*
X45231392Y-23491987D01*
X45250607Y-23456039D01*
X45305771Y-23352835D01*
X45405868Y-23230867D01*
X45527836Y-23130771D01*
X45666988Y-23056392D01*
X45717319Y-23041125D01*
X45817978Y-23010590D01*
X45975000Y-22995125D01*
X46132023Y-23010590D01*
G37*
G36*
X56982023Y-23010590D02*
G01*
X57082682Y-23041125D01*
X57133013Y-23056392D01*
X57272165Y-23130771D01*
X57394133Y-23230867D01*
X57494229Y-23352835D01*
X57568608Y-23491987D01*
X57568608Y-23491988D01*
X57614410Y-23642977D01*
X57626000Y-23760655D01*
X57626000Y-24339345D01*
X57614410Y-24457023D01*
X57610430Y-24470142D01*
X57568608Y-24608013D01*
X57515270Y-24707801D01*
X57494229Y-24747165D01*
X57394133Y-24869133D01*
X57357739Y-24899000D01*
X57272164Y-24969229D01*
X57133012Y-25043608D01*
X57108643Y-25051000D01*
X56982022Y-25089410D01*
X56825000Y-25104875D01*
X56667977Y-25089410D01*
X56541356Y-25051000D01*
X56516987Y-25043608D01*
X56377835Y-24969229D01*
X56255867Y-24869133D01*
X56155771Y-24747164D01*
X56144533Y-24726139D01*
X56081392Y-24608012D01*
X56039570Y-24470142D01*
X56035590Y-24457022D01*
X56024000Y-24339344D01*
X56024000Y-23760655D01*
X56035590Y-23642977D01*
X56081392Y-23491988D01*
X56081392Y-23491987D01*
X56100607Y-23456039D01*
X56155771Y-23352835D01*
X56255868Y-23230867D01*
X56377836Y-23130771D01*
X56516988Y-23056392D01*
X56567319Y-23041125D01*
X56667978Y-23010590D01*
X56825000Y-22995125D01*
X56982023Y-23010590D01*
G37*
G36*
X119351000Y-25051000D02*
G01*
X116649000Y-25051000D01*
X116649000Y-22949000D01*
X119351000Y-22949000D01*
X119351000Y-25051000D01*
G37*
G36*
X78050500Y-24901000D02*
G01*
X77248500Y-24901000D01*
X77248500Y-23499000D01*
X78050500Y-23499000D01*
X78050500Y-24901000D01*
G37*
G36*
X79950500Y-24901000D02*
G01*
X79148500Y-24901000D01*
X79148500Y-23499000D01*
X79950500Y-23499000D01*
X79950500Y-24901000D01*
G37*
G36*
X104701000Y-24451000D02*
G01*
X103899000Y-24451000D01*
X103899000Y-23049000D01*
X104701000Y-23049000D01*
X104701000Y-24451000D01*
G37*
G36*
X106601000Y-24451000D02*
G01*
X105799000Y-24451000D01*
X105799000Y-23049000D01*
X106601000Y-23049000D01*
X106601000Y-24451000D01*
G37*
M02*
