M48
; DRILL file {KiCad (5.1.6)-1} date 06/05/21 12:16:35
; FORMAT={-:-/ absolute / inch / decimal}
; #@! TF.CreationDate,2021-06-05T12:16:35+01:00
; #@! TF.GenerationSoftware,Kicad,Pcbnew,(5.1.6)-1
FMAT,2
INCH
T1C0.0118
T2C0.0150
T3C0.0394
T4C0.0400
T5C0.0472
T6C0.0394
%
G90
G05
T1
X0.9831Y-1.7713
X1.0352Y-1.7079
X1.0411Y-1.9506
X1.0929Y-1.9508
X1.0937Y-1.8476
X1.0949Y-1.8965
X1.1474Y-1.7632
X1.313Y-3.187
X1.315Y-3.0846
X1.3169Y-2.8307
X1.3248Y-1.6469
X1.3501Y-2.3343
X1.3504Y-3.3563
X1.3583Y-2.7657
X1.3698Y-2.3146
X1.372Y-3.6673
X1.3868Y-3.2874
X1.3878Y-2.5866
X1.3911Y-3.8657
X1.3913Y-3.5343
X1.3964Y-1.8074
X1.4026Y-1.5978
X1.4665Y-3.0394
X1.4764Y-2.6394
X1.4764Y-2.7362
X1.5417Y-2.9339
X1.5417Y-3.3445
X1.5417Y-3.4394
X1.5418Y-3.5352
X1.5436Y-2.834
X1.5436Y-3.0299
X1.5449Y-2.3817
X1.5453Y-3.1425
X1.6161Y-3.6907
X1.6181Y-1.7028
X1.628Y-3.249
X1.6358Y-3.0846
X1.636Y-2.8012
X1.6661Y-2.0169
X1.7106Y-3.4547
X1.7126Y-3.5335
X1.7161Y-3.4064
X1.7271Y-3.4321
X1.7283Y-3.4783
X1.7406Y-2.1185
X1.7519Y-2.4215
X1.7717Y-1.7283
X1.7717Y-2.4016
X1.811Y-1.3307
X1.8406Y-1.7008
X1.861Y-1.1358
X1.8764Y-1.4126
X1.9Y-2.2445
X1.9Y-2.6764
X1.9085Y-3.1214
X1.9094Y-3.0315
X1.9094Y-3.061
X1.9094Y-3.0906
X1.9094Y-3.1496
X1.9168Y-1.5458
X1.9307Y-1.1181
X1.9348Y-3.5195
X1.937Y-1.4705
X1.939Y-1.752
X1.9393Y-3.2453
X1.9421Y-1.987
X1.9612Y-1.4564
X1.9661Y-2.2157
X1.9665Y-2.9902
X1.9768Y-1.1189
X1.9863Y-1.4686
X1.9874Y-1.5992
X1.9911Y-2.2407
X2.0059Y-2.7008
X2.0098Y-1.7461
X2.0138Y-1.4547
X2.0177Y-3.0748
X2.0236Y-1.1189
X2.0399Y-1.4648
X2.0437Y-3.1343
X2.0709Y-1.1268
X2.0768Y-1.5846
X2.0863Y-1.2124
X2.0925Y-1.5492
X2.1022Y-1.2369
X2.1161Y-2.9376
X2.1161Y-3.0376
X2.1161Y-3.1398
X2.1293Y-1.2299
X2.153Y-2.7331
X2.1539Y-2.835
X2.1791Y-1.2224
X2.1929Y-2.7343
X2.194Y-2.6732
X2.199Y-2.3485
X2.2Y-2.4811
X2.204Y-2.6351
X2.2075Y-3.0222
X2.2096Y-2.4166
X2.2117Y-2.0346
X2.2125Y-2.0787
X2.2129Y-2.2333
X2.214Y-2.3721
X2.2191Y-2.1935
X2.2244Y-2.6024
X2.2283Y-1.2579
X2.2305Y-2.4352
X2.2323Y-2.0571
X2.2323Y-2.0984
X2.233Y-2.253
X2.2389Y-2.2133
X2.2785Y-1.3102
X2.2906Y-0.9457
X2.2988Y-2.5087
X2.2992Y-1.3602
X2.3033Y-1.1024
X2.3091Y-2.3504
X2.313Y-1.437
X2.313Y-1.4862
X2.313Y-1.5453
X2.313Y-1.5945
X2.313Y-1.6535
X2.313Y-1.7028
X2.313Y-1.7618
X2.313Y-1.811
X2.3209Y-2.3839
X2.3228Y-2.8839
X2.3346Y-3.3386
X2.3346Y-3.3917
X2.339Y-2.0372
X2.3424Y-2.3456
X2.3543Y-2.1469
X2.3555Y-1.2894
X2.3589Y-2.323
X2.3819Y-1.0039
X2.3819Y-2.1457
X2.3819Y-2.8543
X2.3846Y-2.8205
X2.3866Y-2.3195
X2.3951Y-2.6124
X2.3957Y-2.676
X2.3957Y-2.7126
X2.4004Y-2.5067
X2.4016Y-1.9094
X2.4055Y-2.8799
X2.4091Y-2.6366
X2.4311Y-3.6516
X2.4311Y-3.2185
X2.4311Y-3.2874
X2.4311Y-3.3661
X2.4311Y-3.435
X2.4311Y-3.5039
X2.4311Y-3.5728
X2.4311Y-3.7205
X2.435Y-2.878
X2.4362Y-2.6158
X2.4422Y-1.7881
X2.4439Y-1.6781
X2.4449Y-1.4626
X2.4455Y-1.5683
X2.4505Y-2.6398
X2.4606Y-1.1516
X2.4606Y-1.2303
X2.4724Y-1.0
X2.476Y-2.6153
X2.48Y-2.1486
X2.4801Y-2.3817
X2.4801Y-2.3033
X2.4803Y-2.0276
X2.4803Y-2.4213
X2.4803Y-2.4606
X2.4803Y-2.3425
X2.4813Y-2.1063
X2.4902Y-2.641
X2.5059Y-3.7697
X2.5098Y-1.0531
X2.5098Y-3.1398
X2.5098Y-3.8681
X2.5129Y-3.5819
X2.5129Y-3.6575
X2.5158Y-2.6165
X2.5195Y-2.3425
X2.5197Y-2.4213
X2.5197Y-2.0669
X2.5197Y-2.1063
X2.5197Y-2.1457
X2.5197Y-2.2638
X2.5197Y-2.3031
X2.5197Y-2.4606
X2.5211Y-1.9492
X2.5281Y-3.9041
X2.53Y-2.6423
X2.5439Y-1.7874
X2.5461Y-1.6456
X2.5492Y-1.8996
X2.5555Y-2.6179
X2.5591Y-2.1457
X2.5591Y-1.9488
X2.5591Y-2.0276
X2.5591Y-2.1063
X2.5591Y-2.185
X2.5591Y-2.2244
X2.5591Y-2.2638
X2.5591Y-2.3031
X2.5591Y-2.4213
X2.5593Y-2.3427
X2.5594Y-2.4606
X2.561Y-0.9902
X2.5698Y-2.6457
X2.5728Y-1.6933
X2.5768Y-3.5748
X2.5768Y-3.6575
X2.5787Y-3.7677
X2.5787Y-3.89
X2.5886Y-1.063
X2.5886Y-1.8583
X2.5894Y-3.0161
X2.5984Y-2.2245
X2.5984Y-2.3031
X2.5984Y-1.9105
X2.5984Y-1.9882
X2.5984Y-2.1457
X2.5984Y-2.185
X2.5984Y-2.2639
X2.5984Y-2.3421
X2.5984Y-2.3819
X2.5984Y-2.4213
X2.5984Y-2.0669
X2.5993Y-2.1061
X2.604Y-1.8832
X2.6083Y-0.998
X2.6092Y-2.6326
X2.6164Y-2.7524
X2.622Y-2.5945
X2.6375Y-2.3034
X2.6378Y-2.3819
X2.6378Y-2.2634
X2.6378Y-1.6409
X2.6378Y-1.9882
X2.6378Y-2.185
X2.6378Y-2.3425
X2.6379Y-2.1064
X2.6379Y-2.0274
X2.6382Y-2.1457
X2.6384Y-2.4218
X2.6417Y-3.5374
X2.655Y-1.9024
X2.6608Y-2.6252
X2.6728Y-2.7736
X2.6772Y-2.0669
X2.6772Y-2.1063
X2.6772Y-2.1457
X2.6772Y-2.2244
X2.6772Y-2.3049
X2.6772Y-2.3425
X2.6772Y-2.4606
X2.6772Y-1.9882
X2.68Y-1.826
X2.694Y-2.7591
X2.7066Y-1.8974
X2.7067Y-3.7697
X2.7067Y-3.8583
X2.7103Y-3.1497
X2.7126Y-2.7736
X2.7137Y-2.8758
X2.7161Y-2.2244
X2.7165Y-2.1063
X2.7165Y-2.3819
X2.7165Y-2.0669
X2.7165Y-2.3425
X2.7165Y-1.9882
X2.7165Y-2.1457
X2.7165Y-2.4213
X2.7165Y-2.3031
X2.7244Y-1.0945
X2.7301Y-1.804
X2.7313Y-3.2963
X2.7343Y-1.8675
X2.7362Y-2.7598
X2.7402Y-3.5354
X2.7504Y-3.0531
X2.7557Y-2.3031
X2.7559Y-2.1457
X2.7559Y-1.9488
X2.7559Y-1.9882
X2.7559Y-2.0669
X2.7559Y-2.2244
X2.7559Y-2.2638
X2.7559Y-2.3425
X2.7559Y-2.3819
X2.7559Y-2.4606
X2.7661Y-0.9907
X2.7756Y-3.7697
X2.7756Y-3.8583
X2.7795Y-3.2638
X2.7807Y-1.8267
X2.7907Y-3.0693
X2.7946Y-1.8755
X2.7953Y-2.0669
X2.7953Y-2.1457
X2.7953Y-2.2244
X2.7953Y-2.2638
X2.7953Y-2.3031
X2.7953Y-2.3819
X2.7953Y-2.4213
X2.8011Y-1.4607
X2.8011Y-1.5707
X2.8063Y-2.7205
X2.8071Y-1.1142
X2.82Y-3.0474
X2.8225Y-1.8583
X2.8268Y-1.2598
X2.8277Y-1.2955
X2.8345Y-2.0671
X2.8345Y-2.4605
X2.8346Y-1.9882
X2.8346Y-2.1063
X2.8346Y-2.185
X2.8346Y-2.3425
X2.8346Y-2.4213
X2.8346Y-2.3031
X2.8346Y-2.2244
X2.8347Y-2.2639
X2.8398Y-3.0753
X2.8399Y-1.8801
X2.8598Y-3.0455
X2.8622Y-1.8498
X2.8661Y-1.3228
X2.874Y-1.9882
X2.874Y-2.0276
X2.874Y-2.0664
X2.874Y-2.1063
X2.874Y-2.185
X2.874Y-2.2244
X2.874Y-2.2638
X2.874Y-2.4606
X2.874Y-2.4213
X2.8744Y-2.3425
X2.876Y-1.5728
X2.8797Y-1.8733
X2.8806Y-3.0659
X2.8811Y-1.4557
X2.8995Y-3.0428
X2.902Y-1.8504
X2.9129Y-2.3824
X2.9134Y-2.1063
X2.9134Y-1.9882
X2.9134Y-2.0276
X2.9134Y-2.0669
X2.9134Y-2.2244
X2.9134Y-2.2638
X2.9134Y-2.4606
X2.9195Y-1.877
X2.9206Y-3.0641
X2.9393Y-3.0415
X2.9446Y-1.8648
X2.9528Y-2.0669
X2.9528Y-2.1063
X2.9528Y-2.185
X2.9528Y-2.2638
X2.9528Y-2.3819
X2.9528Y-1.9882
X2.9531Y-2.2244
X2.9603Y-1.8893
X2.9603Y-3.0656
X2.9717Y-2.5893
X2.9791Y-3.0425
X2.9823Y-2.6181
X2.9906Y-2.185
X2.9921Y-2.4213
X3.002Y-1.5676
X3.002Y-1.4567
X3.0068Y-3.0462
X3.0157Y-1.0236
X3.0157Y-1.1732
X3.0164Y-2.687
X3.0198Y-2.7223
X3.0345Y-3.0428
X3.0413Y-1.9488
X3.0413Y-2.185
X3.0413Y-2.5394
X3.0414Y-2.2352
X3.0433Y-3.3307
X3.0503Y-2.2853
X3.0579Y-2.0839
X3.0599Y-2.7292
X3.063Y-3.2972
X3.0807Y-1.4567
X3.0807Y-1.565
X3.0906Y-1.415
X3.0906Y-2.4114
X3.0914Y-2.7326
X3.1102Y-3.4941
X3.1147Y-3.1037
X3.1303Y-1.9209
X3.132Y-2.7202
X3.1398Y-3.2972
X3.1425Y-1.2985
X3.1503Y-2.7453
X3.1717Y-2.7227
X3.172Y-2.4504
X3.1728Y-2.4906
X3.1791Y-1.2992
X3.1827Y-2.5484
X3.1921Y-2.7424
X3.1938Y-2.4717
X3.1945Y-2.4291
X3.1949Y-1.5256
X3.1961Y-2.5138
X3.2001Y-2.5706
X3.2014Y-3.4843
X3.2047Y-3.7587
X3.2063Y-1.7598
X3.2079Y-1.6614
X3.2083Y-3.6976
X3.2083Y-3.8665
X3.2087Y-3.3858
X3.2115Y-2.7215
X3.2213Y-3.1386
X3.2283Y-1.9094
X3.2283Y-3.2972
X3.2326Y-2.7417
X3.2444Y-3.5409
X3.2512Y-2.719
X3.2542Y-3.2979
X3.2656Y-3.4799
X3.2677Y-2.0866
X3.2717Y-3.6886
X3.2717Y-3.7587
X3.2723Y-2.7373
X3.273Y-1.7628
X3.2752Y-3.8665
X3.2756Y-1.6626
X3.2776Y-2.6181
X3.2839Y-2.3165
X3.2863Y-1.8998
X3.2874Y-2.3917
X3.2921Y-2.4315
X3.2939Y-3.3034
X3.2939Y-2.7196
X3.2972Y-2.0669
X3.2973Y-2.4719
X3.3164Y-2.3978
X3.3205Y-2.4375
X3.3241Y-1.4091
X3.3285Y-2.4773
X3.3301Y-3.2953
X3.3315Y-2.1162
X3.3315Y-2.5171
X3.333Y-2.3753
X3.3337Y-2.724
X3.3364Y-1.2718
X3.3402Y-0.9771
X3.3444Y-3.0846
X3.3448Y-1.3479
X3.3469Y-2.0923
X3.3478Y-1.3768
X3.3541Y-3.1323
X3.3612Y-2.7291
X3.3715Y-2.1219
X3.3811Y-3.1396
X3.3833Y-3.1099
X3.3858Y-1.1319
X3.3866Y-2.098
X3.391Y-2.7165
X3.4047Y-1.3574
X3.4055Y-1.2894
X3.4061Y-2.74
X3.4121Y-2.1094
X3.4133Y-2.0409
X3.4308Y-2.7176
X3.4338Y-2.0917
X3.435Y-1.0236
X3.44Y-2.1926
X3.448Y-2.7396
X3.4487Y-2.8054
X3.4541Y-1.9567
X3.4547Y-2.0496
X3.4554Y-1.9138
X3.4564Y-1.9964
X3.4564Y-2.4428
X3.4565Y-2.3622
X3.457Y-2.3219
X3.4571Y-2.4732
X3.4578Y-2.402
X3.4585Y-2.2789
X3.4587Y-2.7793
X3.4596Y-2.2126
X3.4646Y-1.2795
X3.4646Y-3.8484
X3.4719Y-2.7546
X3.4744Y-3.9392
X3.4744Y-1.1811
X3.4764Y-2.3004
X3.478Y-1.8969
X3.4783Y-2.3413
X3.4787Y-2.4251
X3.4791Y-1.9413
X3.4795Y-2.8331
X3.4807Y-2.3811
X3.4837Y-1.9908
X3.4839Y-2.0311
X3.4901Y-2.2157
X3.498Y-1.1095
X3.5004Y-1.465
X3.5024Y-1.5665
X3.5138Y-2.1256
X3.5146Y-1.8965
X3.5157Y-2.2276
X3.5197Y-2.8358
X3.5272Y-2.2698
X3.5411Y-2.2394
X3.5659Y-2.3808
X3.5799Y-1.4614
X3.5801Y-1.5659
X3.6039Y-2.9934
X3.6043Y-3.1634
X3.6043Y-3.3563
X3.6052Y-2.4324
X3.6062Y-3.4632
X3.6083Y-3.2736
X3.6122Y-3.8484
X3.6169Y-3.0181
X3.622Y-3.9392
X3.624Y-2.8299
X3.6248Y-3.7929
X3.6511Y-2.2157
X3.6531Y-2.1159
X3.6719Y-3.521
X3.6732Y-3.2736
X3.6742Y-3.1585
X3.6752Y-3.3563
X3.6772Y-3.4744
X3.685Y-3.752
X3.7119Y-3.7393
X3.7389Y-3.7467
X3.7436Y-2.2532
X3.7652Y-3.7374
X3.7697Y-3.8484
X3.7697Y-3.9392
X3.7699Y-2.2773
X3.7798Y-2.5006
X3.7906Y-2.5264
X3.7915Y-3.7468
X3.8043Y-1.4626
X3.8051Y-1.5661
X3.8146Y-3.7295
X3.815Y-2.2147
X3.8156Y-2.6535
X3.8179Y-2.6934
X3.829Y-2.5098
X3.8361Y-1.8157
X3.8372Y-1.9592
X3.8428Y-3.7444
X3.8543Y-2.0591
X3.8547Y-2.2147
X3.8553Y-2.6539
X3.8577Y-2.6923
X3.8636Y-2.2567
X3.8688Y-2.5095
X3.8699Y-3.7376
X3.8713Y-2.3964
X3.876Y-1.5646
X3.8764Y-1.2201
X3.8783Y-1.4622
X3.887Y-1.9367
X3.888Y-1.6634
X3.891Y-2.0955
X3.8913Y-3.7555
X3.8945Y-2.2133
X3.8951Y-2.6482
X3.8975Y-2.687
X3.9028Y-2.3504
X3.9046Y-2.2568
X3.9101Y-2.5096
X3.9138Y-3.615
X3.919Y-3.8557
X3.9245Y-3.9692
X3.9252Y-2.0591
X3.9303Y-1.9488
X3.9343Y-2.2119
X3.9351Y-2.6485
X3.9372Y-2.6867
X3.9409Y-2.3937
X3.9443Y-2.258
X3.9498Y-2.5113
X3.9534Y-1.9048
X3.9567Y-2.0945
X3.9661Y-2.3558
X3.9744Y-2.2138
X3.9749Y-2.6552
X3.9764Y-3.7559
X3.977Y-2.6831
X3.9783Y-1.7861
X3.9862Y-2.2537
X3.9896Y-2.5112
X3.9937Y-1.9491
X4.0015Y-2.0551
X4.0046Y-2.6872
X4.0059Y-2.2087
X4.0059Y-1.6654
X4.0059Y-1.8996
X4.0074Y-2.3991
X4.0079Y-3.8504
X4.015Y-1.7886
X4.0157Y-2.9331
X4.0177Y-2.3527
X4.0265Y-2.6522
X4.0268Y-3.615
X4.0272Y-3.7508
X4.0371Y-2.0937
X4.0412Y-2.5073
X4.0444Y-2.6824
X4.0445Y-2.2559
X4.0453Y-1.9488
X4.0457Y-2.206
X4.0537Y-3.7411
X4.0551Y-3.5039
X4.0575Y-2.3543
X4.065Y-2.0965
X4.0665Y-1.7862
X4.0683Y-2.6503
X4.074Y-1.6626
X4.0809Y-2.5034
X4.0843Y-2.2519
X4.0846Y-0.9744
X4.0854Y-2.2033
X4.0884Y-2.6852
X4.0898Y-3.7374
X4.0933Y-2.8642
X4.0945Y-2.0965
X4.0953Y-2.3898
X4.0973Y-2.3532
X4.1134Y-3.0819
X4.1177Y-2.0594
X4.1182Y-2.5427
X4.1208Y-3.7365
X4.124Y-1.8012
X4.1243Y-2.6598
X4.1358Y-2.5085
X4.1417Y-2.1024
X4.1419Y-2.6882
X4.1437Y-3.8319
X4.1457Y-2.3976
X4.1465Y-2.9866
X4.1486Y-3.7392
X4.1569Y-2.353
X4.161Y-2.2059
X4.1641Y-2.6615
X4.1642Y-0.9835
X4.1656Y-2.2545
X4.173Y-2.0669
X4.1756Y-2.5116
X4.1761Y-3.7341
X4.1827Y-2.6922
X4.1967Y-2.3543
X4.2008Y-2.2104
X4.2017Y-3.7228
X4.2028Y-2.0965
X4.2043Y-1.574
X4.2049Y-2.662
X4.2052Y-2.2424
X4.2055Y-1.4626
X4.2128Y-1.9565
X4.2154Y-2.511
X4.2221Y-3.7037
X4.2228Y-2.6843
X4.2283Y-2.4016
X4.24Y-1.9094
X4.2406Y-2.2054
X4.2425Y-2.1023
X4.2431Y-3.678
X4.2439Y-2.2583
X4.2446Y-2.6603
X4.2551Y-2.5096
X4.2563Y-3.6224
X4.26Y-2.0628
X4.2626Y-2.6824
X4.2634Y-2.3537
X4.2752Y-1.4646
X4.2752Y-1.5768
X4.2756Y-3.8583
X4.2762Y-1.9567
X4.2803Y-2.2075
X4.2844Y-2.6537
X4.2847Y-2.2551
X4.2872Y-2.4016
X4.2921Y-3.6252
X4.2949Y-2.5048
X4.2998Y-2.063
X4.3001Y-1.9223
X4.3023Y-2.6886
X4.3161Y-1.2579
X4.3201Y-2.2085
X4.3242Y-2.6575
X4.3245Y-2.2508
X4.3268Y-2.3583
X4.3287Y-0.9524
X4.3303Y-0.9157
X4.3307Y-3.9118
X4.3325Y-0.989
X4.3347Y-2.4974
X4.3348Y-2.1015
X4.3396Y-1.9488
X4.3421Y-2.6966
X4.3543Y-2.4016
X4.3587Y-1.9093
X4.3598Y-2.2038
X4.3632Y-2.0591
X4.3643Y-2.2523
X4.3661Y-2.6535
X4.3744Y-2.4971
X4.382Y-2.695
X4.3858Y-3.6772
X4.3898Y-3.8976
X4.3976Y-2.3661
X4.3996Y-2.202
X4.4016Y-2.0945
X4.404Y-2.2504
X4.4124Y-2.6569
X4.414Y-1.9474
X4.4142Y-2.5
X4.4193Y-1.0236
X4.4291Y-2.063
X4.4394Y-2.2011
X4.4409Y-2.689
X4.4409Y-3.6063
X4.4647Y-2.243
X4.5276Y-0.9547
X4.5669Y-3.9118
X4.5846Y-3.7224
X4.626Y-3.6516
X4.626Y-3.878
T2
X1.563Y-2.4843
X2.3098Y-2.1484
X2.8911Y-2.7907
X3.342Y-1.8205
X3.3882Y-1.4807
X3.6928Y-3.0879
X3.7024Y-2.3961
X3.7024Y-2.8638
X3.7924Y-2.3851
X4.4382Y-1.615
X4.4657Y-2.3886
X4.5917Y-2.9571
X4.6122Y-2.0787
X4.6161Y-2.3547
X4.6197Y-2.5118
X4.6315Y-1.6555
X4.6366Y-3.4972
X4.685Y-3.1614
X4.685Y-3.7402
X4.6933Y-2.7185
X4.6965Y-1.8654
X4.6965Y-2.276
T3
X1.4661Y-3.8407
X1.4661Y-3.9407
X1.5661Y-3.8407
X1.5661Y-3.9407
X1.6661Y-3.8407
X1.6661Y-3.9407
X1.7661Y-3.8407
X1.7661Y-3.9407
X1.8661Y-3.8407
X1.8661Y-3.9407
X1.9661Y-3.8407
X1.9661Y-3.9407
X2.0661Y-3.8407
X2.0661Y-3.9407
X2.1661Y-3.8407
X2.1661Y-3.9407
X2.2661Y-3.8407
X2.2661Y-3.9407
X1.2933Y-3.8386
X1.2933Y-3.9386
X2.9411Y-0.9907
X2.9411Y-1.0907
X2.9411Y-1.1907
X3.2161Y-0.9907
X3.2161Y-1.0907
X3.2161Y-1.1907
X0.9411Y-2.9407
X0.9411Y-3.0407
X0.9411Y-3.1407
X0.9411Y-3.2407
X0.9411Y-3.3407
X0.9411Y-3.4407
X0.9411Y-3.5407
X0.9411Y-3.6407
X0.9411Y-3.7407
X0.9411Y-3.8407
X0.9411Y-3.9407
X1.0411Y-2.9407
X1.0411Y-3.0407
X1.0411Y-3.1407
X1.0411Y-3.2407
X1.0411Y-3.3407
X1.0411Y-3.4407
X1.0411Y-3.5407
X1.0411Y-3.6407
X1.0411Y-3.7407
X1.0411Y-3.8407
X1.0411Y-3.9407
X4.7244Y-1.4142
X4.7244Y-1.5142
X4.7244Y-1.6142
X0.9411Y-2.4657
X0.9411Y-2.5657
X0.9411Y-2.6657
X1.3161Y-2.0657
X1.3161Y-2.1657
X3.5827Y-1.3583
X3.6827Y-1.3583
X3.7827Y-1.3583
X3.8827Y-1.3583
X0.9411Y-2.0657
X0.9411Y-2.1657
X0.9411Y-2.2657
X4.1535Y-1.3583
X4.2535Y-1.3583
X1.3161Y-2.4657
X1.3161Y-2.5657
X1.3161Y-2.6657
X1.81Y-0.9469
X1.81Y-1.124
X2.2372Y-0.9469
X2.2372Y-1.124
T4
X3.5764Y-1.0407
X3.5764Y-1.1407
X3.6764Y-1.0407
X3.6764Y-1.1407
X3.7764Y-1.0407
X3.7764Y-1.1407
X3.8764Y-1.0407
X3.8764Y-1.1407
X3.9764Y-1.0407
X3.9764Y-1.1407
T5
X4.6457Y-0.9449
X4.6457Y-1.0449
X4.6457Y-1.1449
X4.6457Y-1.2449
X0.9498Y-1.3022
X1.2057Y-1.3022
X1.4026Y-1.3022
T6
X1.876Y-1.0925
X2.1713Y-1.0925
T0
M30
