M48
INCH,TZ
T1C0.0157
T2C0.0394
%
G90
G05
T1
X39705Y-32571
X39750Y-16500
X40191Y-27811
X40268Y-31669
X40450Y-15001
X40450Y-22403
X41500Y-21750
X41500Y-31000
X41500Y-31500
X41500Y-32000
X41750Y-21250
X42000Y-26000
X42866Y-21512
X43500Y-29750
X43500Y-31500
X43800Y-28235
X44150Y-20850
X44500Y-31500
X44835Y-21354
X45212Y-25859
X45500Y-16000
X45500Y-29450
X46285Y-25606
X46400Y-14450
X46500Y-12500
X46500Y-31550
X46596Y-28251
X46715Y-26394
X47027Y-28681
X47400Y-31500
X47450Y-14500
X47500Y-15800
X48100Y-30500
X48400Y-14450
X49953Y-21354
X50400Y-13000
X51263Y-13587
X51295Y-20439
X51550Y-31400
X51600Y-29100
X51717Y-20724
X52004Y-20126
X52500Y-14200
X52500Y-14800
X52600Y-29100
X52600Y-31800
X52928Y-21512
X52949Y-21906
X53417Y-30567
X53732Y-20094
X54016Y-20906
X54285Y-21590
X54600Y-31300
X54835Y-20409
X55450Y-29150
X55460Y-14586
X55750Y-21215
X55937Y-20252
X56450Y-31550
X56500Y-29250
X56550Y-29750
X57276Y-21433
X57500Y-31800
X57614Y-29079
X58450Y-31550
X58535Y-20724
X58638Y-24232
X59953Y-21984
X60000Y-18165
X60500Y-21000
X61350Y-24150
X61500Y-21250
X61550Y-12450
T2
X35500Y-23000
X35500Y-24000
X36500Y-23000
X36500Y-24000
X37500Y-23000
X37500Y-24000
X42000Y-17000
X43000Y-17000
X44000Y-17000
X45000Y-17000
X46000Y-17000
X47000Y-17000
X48000Y-17000
X49000Y-17000
X50000Y-17000
X51000Y-17000
X52000Y-17000
X53000Y-17000
X54000Y-17000
X55000Y-17000
X56000Y-17000
X57000Y-17000
X58000Y-17000
X59000Y-17000
X60000Y-17000
X61000Y-17000
X42000Y-19000
X43000Y-19000
X44000Y-19000
X45000Y-19000
X46000Y-19000
X47000Y-19000
X48000Y-19000
X49000Y-19000
X50000Y-19000
X51000Y-19000
X52000Y-19000
X53000Y-19000
X54000Y-19000
X55000Y-19000
X56000Y-19000
X57000Y-19000
X58000Y-19000
X59000Y-19000
X60000Y-19000
X61000Y-19000
X45000Y-27000
X46000Y-27000
X47000Y-27000
X48000Y-27000
X49000Y-27000
X50000Y-27000
X51000Y-27000
X52000Y-27000
X53000Y-27000
X54000Y-27000
X55000Y-27000
X56000Y-27000
X57000Y-27000
X58000Y-27000
X59000Y-27000
X60000Y-27000
X61000Y-27000
X42000Y-23000
X43000Y-23000
X44000Y-23000
X45000Y-23000
X46000Y-23000
X47000Y-23000
X48000Y-23000
X49000Y-23000
X50000Y-23000
X51000Y-23000
X52000Y-23000
X53000Y-23000
X54000Y-23000
X55000Y-23000
X56000Y-23000
X57000Y-23000
X58000Y-23000
X59000Y-23000
X60000Y-23000
X61000Y-23000
X42000Y-25000
X43000Y-25000
X44000Y-25000
X45000Y-25000
X46000Y-25000
X47000Y-25000
X48000Y-25000
X49000Y-25000
X50000Y-25000
X51000Y-25000
X52000Y-25000
X53000Y-25000
X54000Y-25000
X55000Y-25000
X56000Y-25000
X57000Y-25000
X58000Y-25000
X59000Y-25000
X60000Y-25000
X61000Y-25000
X35500Y-19000
X36500Y-19000
X37500Y-19000
X63000Y-19250
X63000Y-20250
X63000Y-21250
X35500Y-28000
X35500Y-29000
X36500Y-28000
X36500Y-29000
X37500Y-28000
X37500Y-29000
X38500Y-28000
X38500Y-29000
X35500Y-15500
X36500Y-15500
X37500Y-15500
X35500Y-12000
X36500Y-12000
X37500Y-12000
T0
M30
