G04 #@! TF.GenerationSoftware,KiCad,Pcbnew,(5.1.6)-1*
G04 #@! TF.CreationDate,2021-05-11T11:26:14+01:00*
G04 #@! TF.ProjectId,cpu_exp_65xx_6x09,6370755f-6578-4705-9f36-3578785f3678,3.01*
G04 #@! TF.SameCoordinates,Original*
G04 #@! TF.FileFunction,Copper,L1,Top*
G04 #@! TF.FilePolarity,Positive*
%FSLAX46Y46*%
G04 Gerber Fmt 4.6, Leading zero omitted, Abs format (unit mm)*
G04 Created by KiCad (PCBNEW (5.1.6)-1) date 2021-05-11 11:26:14*
%MOMM*%
%LPD*%
G01*
G04 APERTURE LIST*
G04 #@! TA.AperFunction,ComponentPad*
%ADD10O,1.700000X1.700000*%
G04 #@! TD*
G04 #@! TA.AperFunction,ComponentPad*
%ADD11C,1.700000*%
G04 #@! TD*
G04 #@! TA.AperFunction,ComponentPad*
%ADD12R,1.700000X1.700000*%
G04 #@! TD*
G04 #@! TA.AperFunction,ViaPad*
%ADD13C,0.800000*%
G04 #@! TD*
G04 #@! TA.AperFunction,Conductor*
%ADD14C,1.270000*%
G04 #@! TD*
G04 #@! TA.AperFunction,Conductor*
%ADD15C,0.250000*%
G04 #@! TD*
G04 #@! TA.AperFunction,Conductor*
%ADD16C,0.254000*%
G04 #@! TD*
G04 APERTURE END LIST*
D10*
X106680000Y-63500000D03*
X109220000Y-63500000D03*
X111760000Y-63500000D03*
X114300000Y-63500000D03*
X116840000Y-63500000D03*
X119380000Y-63500000D03*
X121920000Y-63500000D03*
X124460000Y-63500000D03*
X127000000Y-63500000D03*
X129540000Y-63500000D03*
X132080000Y-63500000D03*
X134620000Y-63500000D03*
X137160000Y-63500000D03*
X139700000Y-63500000D03*
X142240000Y-63500000D03*
X147320000Y-63500000D03*
X149860000Y-63500000D03*
X152400000Y-63500000D03*
D11*
X154940000Y-63500000D03*
D10*
X144780000Y-63500000D03*
X106680000Y-58420000D03*
X109220000Y-58420000D03*
X111760000Y-58420000D03*
X114300000Y-58420000D03*
X116840000Y-58420000D03*
X119380000Y-58420000D03*
X121920000Y-58420000D03*
X124460000Y-58420000D03*
X127000000Y-58420000D03*
X129540000Y-58420000D03*
X132080000Y-58420000D03*
X134620000Y-58420000D03*
X137160000Y-58420000D03*
X139700000Y-58420000D03*
X142240000Y-58420000D03*
X147320000Y-58420000D03*
X149860000Y-58420000D03*
X152400000Y-58420000D03*
D11*
X154940000Y-58420000D03*
D10*
X144780000Y-58420000D03*
X95250000Y-39370000D03*
X92710000Y-39370000D03*
D12*
X90170000Y-39370000D03*
D10*
X95250000Y-48260000D03*
X92710000Y-48260000D03*
D12*
X90170000Y-48260000D03*
D10*
X114300000Y-68580000D03*
X116840000Y-68580000D03*
X119380000Y-68580000D03*
X121920000Y-68580000D03*
X124460000Y-68580000D03*
X127000000Y-68580000D03*
X129540000Y-68580000D03*
X132080000Y-68580000D03*
X134620000Y-68580000D03*
X137160000Y-68580000D03*
X139700000Y-68580000D03*
X142240000Y-68580000D03*
X144780000Y-68580000D03*
X147320000Y-68580000D03*
X149860000Y-68580000D03*
X152400000Y-68580000D03*
D12*
X154940000Y-68580000D03*
D10*
X95250000Y-58420000D03*
X95250000Y-60960000D03*
X92710000Y-58420000D03*
X92710000Y-60960000D03*
X90170000Y-58420000D03*
D12*
X90170000Y-60960000D03*
D10*
X97790000Y-71120000D03*
X97790000Y-73660000D03*
X95250000Y-71120000D03*
X95250000Y-73660000D03*
X92710000Y-71120000D03*
X92710000Y-73660000D03*
X90170000Y-71120000D03*
D12*
X90170000Y-73660000D03*
D10*
X106680000Y-43180000D03*
X109220000Y-43180000D03*
X111760000Y-43180000D03*
X114300000Y-43180000D03*
X116840000Y-43180000D03*
X119380000Y-43180000D03*
X121920000Y-43180000D03*
X124460000Y-43180000D03*
X127000000Y-43180000D03*
X129540000Y-43180000D03*
X132080000Y-43180000D03*
X134620000Y-43180000D03*
X137160000Y-43180000D03*
X139700000Y-43180000D03*
X142240000Y-43180000D03*
X144780000Y-43180000D03*
X147320000Y-43180000D03*
X149860000Y-43180000D03*
X152400000Y-43180000D03*
D12*
X154940000Y-43180000D03*
D10*
X106680000Y-48260000D03*
X109220000Y-48260000D03*
X111760000Y-48260000D03*
X114300000Y-48260000D03*
X116840000Y-48260000D03*
X119380000Y-48260000D03*
X121920000Y-48260000D03*
X124460000Y-48260000D03*
X127000000Y-48260000D03*
X129540000Y-48260000D03*
X132080000Y-48260000D03*
X134620000Y-48260000D03*
X137160000Y-48260000D03*
X139700000Y-48260000D03*
X142240000Y-48260000D03*
X144780000Y-48260000D03*
X147320000Y-48260000D03*
X149860000Y-48260000D03*
X152400000Y-48260000D03*
D12*
X154940000Y-48260000D03*
D10*
X160020000Y-53975000D03*
X160020000Y-51435000D03*
D12*
X160020000Y-48895000D03*
D10*
X95250000Y-30480000D03*
X92710000Y-30480000D03*
D12*
X90170000Y-30480000D03*
D13*
X106680000Y-66040000D03*
X102743000Y-38103000D03*
X102743000Y-56903000D03*
X108880000Y-54640000D03*
X113880000Y-54240000D03*
X126880000Y-54240000D03*
X114837653Y-65682347D03*
X118655000Y-67040000D03*
X117565000Y-65040000D03*
X102085000Y-70640000D03*
X102280000Y-80440000D03*
X135680000Y-77640000D03*
X136480000Y-51040000D03*
X139280000Y-51840000D03*
X142080000Y-51440000D03*
X145480000Y-54440000D03*
X148680000Y-52640000D03*
X152280000Y-55840000D03*
X118110000Y-31750000D03*
X132090000Y-51120000D03*
X130290000Y-51914990D03*
X143637000Y-75565000D03*
X148940000Y-61550000D03*
X131360000Y-52640000D03*
X105410000Y-55245000D03*
X134489998Y-55640000D03*
X137884773Y-54839450D03*
X120523000Y-36830000D03*
X100965000Y-41910000D03*
X115570000Y-40640000D03*
X153670000Y-53340000D03*
X106045000Y-53975000D03*
X134435998Y-54640225D03*
X137200000Y-53100000D03*
X122174000Y-77470000D03*
X100850000Y-82730000D03*
X156337000Y-31623000D03*
X110490000Y-75565000D03*
X105410000Y-78740000D03*
X110490000Y-80010000D03*
X105410000Y-80010000D03*
X113030000Y-80010000D03*
X105410000Y-81279988D03*
X120396000Y-80010000D03*
X118110000Y-80137000D03*
X111252000Y-71718010D03*
X115570000Y-74803000D03*
X133604000Y-73914000D03*
X112141000Y-52959000D03*
X133604000Y-80772000D03*
X120650000Y-40132000D03*
X140868536Y-37049144D03*
X122936000Y-36703000D03*
X146050000Y-80772000D03*
X152400000Y-46139996D03*
X117856000Y-36703000D03*
X141605000Y-53884990D03*
X148463000Y-80137000D03*
X156210000Y-53975000D03*
X140843000Y-74041000D03*
X130937000Y-79756000D03*
X119448268Y-72849999D03*
X130208693Y-34511979D03*
X138684000Y-79502000D03*
X128016000Y-33020000D03*
X133350000Y-36068000D03*
X133350000Y-37592000D03*
X131064000Y-73914000D03*
X118354552Y-71756282D03*
X143383000Y-80137000D03*
X155829000Y-61341000D03*
X143510000Y-74295000D03*
X146339998Y-73860000D03*
D14*
X90170000Y-71120000D02*
X92710000Y-71120000D01*
X92710000Y-71120000D02*
X95250000Y-71120000D01*
X95250000Y-71120000D02*
X97790000Y-71120000D01*
X106680000Y-66040000D02*
X106680000Y-63500000D01*
X97790000Y-71120000D02*
X101600000Y-71120000D01*
X111760000Y-66040000D02*
X114300000Y-68580000D01*
X106680000Y-66040000D02*
X111760000Y-66040000D01*
D15*
X102743000Y-56903000D02*
X106617000Y-56903000D01*
X106617000Y-56903000D02*
X108880000Y-54640000D01*
X115664999Y-64855001D02*
X115664999Y-61455001D01*
X114837653Y-65682347D02*
X115664999Y-64855001D01*
X114837653Y-65682347D02*
X116922653Y-65682347D01*
X116922653Y-65682347D02*
X117565000Y-65040000D01*
X102080000Y-70640000D02*
X102085000Y-70640000D01*
D14*
X102080000Y-70640000D02*
X106680000Y-66040000D01*
X101600000Y-71120000D02*
X102080000Y-70640000D01*
D15*
X114300000Y-69782081D02*
X120557919Y-76040000D01*
X114300000Y-68580000D02*
X114300000Y-69782081D01*
X120557919Y-76040000D02*
X125680000Y-76040000D01*
X133952001Y-81497001D02*
X135680000Y-79769002D01*
X125680000Y-76040000D02*
X131137001Y-81497001D01*
X135680000Y-79769002D02*
X135680000Y-77640000D01*
X131137001Y-81497001D02*
X133952001Y-81497001D01*
X142080000Y-51440000D02*
X145080000Y-54440000D01*
X145080000Y-54440000D02*
X145480000Y-54440000D01*
X148680000Y-52640000D02*
X151880000Y-55840000D01*
X151880000Y-55840000D02*
X152280000Y-55840000D01*
X116580000Y-33280000D02*
X118110000Y-31750000D01*
X104622000Y-33280000D02*
X116580000Y-33280000D01*
X95250000Y-30480000D02*
X101822000Y-30480000D01*
X101822000Y-30480000D02*
X104622000Y-33280000D01*
X130684315Y-51120000D02*
X132090000Y-51120000D01*
X128364999Y-48800684D02*
X130684315Y-51120000D01*
X125095000Y-44450000D02*
X128364999Y-47719999D01*
X118910998Y-44450000D02*
X125095000Y-44450000D01*
X128364999Y-47719999D02*
X128364999Y-48800684D01*
X118110000Y-31750000D02*
X114880000Y-34980000D01*
X114880000Y-37410000D02*
X118100000Y-40630000D01*
X118100000Y-40630000D02*
X118100000Y-43639002D01*
X114880000Y-34980000D02*
X114880000Y-37410000D01*
X118100000Y-43639002D02*
X118910998Y-44450000D01*
X92710000Y-30480000D02*
X97600000Y-35370000D01*
X97600000Y-35370000D02*
X97600000Y-43453589D01*
X125758572Y-50248572D02*
X127424990Y-51914990D01*
X127424990Y-51914990D02*
X130290000Y-51914990D01*
X124486428Y-46326428D02*
X125758572Y-47598572D01*
X100472839Y-46326428D02*
X124486428Y-46326428D01*
X97600000Y-43453589D02*
X100472839Y-46326428D01*
X125758572Y-47598572D02*
X125758572Y-50248572D01*
X95250000Y-35560000D02*
X90170000Y-30480000D01*
X95250000Y-39370000D02*
X95250000Y-35560000D01*
X142240000Y-68580000D02*
X142240000Y-70320000D01*
X142240000Y-70320000D02*
X142280000Y-70360000D01*
X142280000Y-70360000D02*
X142280000Y-75150000D01*
X142695000Y-75565000D02*
X143637000Y-75565000D01*
X142280000Y-75150000D02*
X142695000Y-75565000D01*
X151039999Y-63004314D02*
X149585685Y-61550000D01*
X143637000Y-75565000D02*
X148209000Y-75565000D01*
X149505685Y-61550000D02*
X148940000Y-61550000D01*
X149585685Y-61550000D02*
X149505685Y-61550000D01*
X148209000Y-75565000D02*
X151039999Y-72734001D01*
X151039999Y-72734001D02*
X151039999Y-63004314D01*
X126710000Y-52640000D02*
X131360000Y-52640000D01*
X123230000Y-47580000D02*
X123230000Y-49160000D01*
X95250000Y-43358000D02*
X98882000Y-46990000D01*
X95250000Y-39370000D02*
X95250000Y-43358000D01*
X98882000Y-46990000D02*
X122640000Y-46990000D01*
X122640000Y-46990000D02*
X123230000Y-47580000D01*
X123230000Y-49160000D02*
X126710000Y-52640000D01*
X105975685Y-55245000D02*
X106830000Y-54390685D01*
X105410000Y-55245000D02*
X105975685Y-55245000D01*
X106830000Y-52689002D02*
X102370998Y-48230000D01*
X106830000Y-54390685D02*
X106830000Y-52689002D01*
X102370998Y-48230000D02*
X99230000Y-48230000D01*
X92710000Y-41710000D02*
X92710000Y-39370000D01*
X99230000Y-48230000D02*
X92710000Y-41710000D01*
X134489998Y-55640000D02*
X137084223Y-55640000D01*
X137084223Y-55640000D02*
X137884773Y-54839450D01*
X100965000Y-41910000D02*
X114300000Y-41910000D01*
X114300000Y-41910000D02*
X115570000Y-40640000D01*
X142240000Y-39789231D02*
X143289989Y-38739242D01*
X142406011Y-34710011D02*
X132421989Y-34710011D01*
X131445000Y-35687000D02*
X121666000Y-35687000D01*
X121666000Y-35687000D02*
X120523000Y-36830000D01*
X143289989Y-35593989D02*
X142406011Y-34710011D01*
X143289989Y-38739242D02*
X143289989Y-35593989D01*
X142240000Y-43180000D02*
X142240000Y-39789231D01*
X132421989Y-34710011D02*
X131445000Y-35687000D01*
X96704989Y-52254989D02*
X92710000Y-48260000D01*
X106045000Y-53975000D02*
X104324989Y-52254989D01*
X104324989Y-52254989D02*
X96704989Y-52254989D01*
X154940000Y-52070000D02*
X153670000Y-53340000D01*
X154940000Y-48260000D02*
X154940000Y-52070000D01*
X135659775Y-54640225D02*
X137200000Y-53100000D01*
X134435998Y-54640225D02*
X135659775Y-54640225D01*
D14*
X122573999Y-77869999D02*
X122174000Y-77470000D01*
X127254000Y-82550000D02*
X122573999Y-77869999D01*
X127254000Y-82550000D02*
X127074000Y-82730000D01*
X127074000Y-82730000D02*
X100850000Y-82730000D01*
X152273000Y-82550000D02*
X127254000Y-82550000D01*
X159385000Y-75438000D02*
X152273000Y-82550000D01*
X160020000Y-53975000D02*
X159385000Y-54610000D01*
X159385000Y-54610000D02*
X159385000Y-75438000D01*
X156337000Y-34837000D02*
X156337000Y-31623000D01*
X160020000Y-48895000D02*
X160020000Y-38520000D01*
X160020000Y-38520000D02*
X156337000Y-34837000D01*
D15*
X105809999Y-78340001D02*
X105410000Y-78740000D01*
X110490000Y-75565000D02*
X108585000Y-75565000D01*
X108585000Y-75565000D02*
X105809999Y-78340001D01*
X110490000Y-80010000D02*
X105410000Y-80010000D01*
X105975685Y-81279988D02*
X105410000Y-81279988D01*
X113030000Y-80010000D02*
X111760012Y-81279988D01*
X111760012Y-81279988D02*
X105975685Y-81279988D01*
X104140000Y-73660000D02*
X97790000Y-73660000D01*
X107315000Y-70485000D02*
X104140000Y-73660000D01*
X113411000Y-70485000D02*
X107315000Y-70485000D01*
X118364000Y-75438000D02*
X113411000Y-70485000D01*
X120396000Y-80010000D02*
X118364000Y-77978000D01*
X118364000Y-77978000D02*
X118364000Y-75438000D01*
X107200000Y-73660000D02*
X105930000Y-74930000D01*
X117710001Y-79737001D02*
X117710001Y-75546001D01*
X118110000Y-80137000D02*
X117710001Y-79737001D01*
X117710001Y-75546001D02*
X113157000Y-70993000D01*
X113157000Y-70993000D02*
X110363000Y-70993000D01*
X110363000Y-70993000D02*
X107696000Y-73660000D01*
X107696000Y-73660000D02*
X107200000Y-73660000D01*
X95250000Y-73660000D02*
X95885000Y-74295000D01*
X95885000Y-74295000D02*
X96520000Y-74930000D01*
X105930000Y-74930000D02*
X96520000Y-74930000D01*
X111252000Y-71718010D02*
X108802010Y-74168000D01*
X108802010Y-74168000D02*
X107662000Y-74168000D01*
X92710000Y-74862081D02*
X93412919Y-75565000D01*
X92710000Y-73660000D02*
X92710000Y-74862081D01*
X106265000Y-75565000D02*
X107662000Y-74168000D01*
X93412919Y-75565000D02*
X106265000Y-75565000D01*
X108077000Y-74803000D02*
X115570000Y-74803000D01*
X90170000Y-74760000D02*
X91610000Y-76200000D01*
X90170000Y-73660000D02*
X90170000Y-74760000D01*
X106680000Y-76200000D02*
X108077000Y-74803000D01*
X91610000Y-76200000D02*
X106680000Y-76200000D01*
X118690000Y-70460000D02*
X118150000Y-69920000D01*
X129140000Y-70460000D02*
X118690000Y-70460000D01*
X133604000Y-73914000D02*
X132594000Y-73914000D01*
X132594000Y-73914000D02*
X129140000Y-70460000D01*
X118150000Y-56010000D02*
X115099000Y-52959000D01*
X115099000Y-52959000D02*
X112141000Y-52959000D01*
X118290001Y-64149003D02*
X118150000Y-64009002D01*
X117929999Y-65748003D02*
X118290001Y-65388001D01*
X118290001Y-65388001D02*
X118290001Y-64149003D01*
X117929999Y-67388001D02*
X117929999Y-65748003D01*
X118150000Y-67608002D02*
X117929999Y-67388001D01*
X118150000Y-64009002D02*
X118150000Y-56010000D01*
X118150000Y-69920000D02*
X118150000Y-67608002D01*
X112935001Y-64805001D02*
X112935001Y-56535001D01*
X115620000Y-67490000D02*
X112935001Y-64805001D01*
X124839950Y-72007950D02*
X119175886Y-72007950D01*
X133604000Y-80772000D02*
X124839950Y-72007950D01*
X112935001Y-56535001D02*
X109220000Y-52820000D01*
X119175886Y-72007950D02*
X118702553Y-72481283D01*
X118702553Y-72481283D02*
X118006551Y-72481283D01*
X118006551Y-72481283D02*
X115620000Y-70094732D01*
X109220000Y-52820000D02*
X109220000Y-48260000D01*
X115620000Y-70094732D02*
X115620000Y-67490000D01*
X137785680Y-40132000D02*
X140468537Y-37449143D01*
X120650000Y-40132000D02*
X137785680Y-40132000D01*
X140468537Y-37449143D02*
X140868536Y-37049144D01*
X148684999Y-57244999D02*
X146144999Y-57244999D01*
X149860000Y-58420000D02*
X148684999Y-57244999D01*
X146144999Y-57244999D02*
X139700000Y-50800000D01*
X139700000Y-50800000D02*
X139700000Y-48260000D01*
X123501685Y-36703000D02*
X122936000Y-36703000D01*
X131065411Y-36703000D02*
X123501685Y-36703000D01*
X132600433Y-35167978D02*
X131065411Y-36703000D01*
X142839978Y-38552843D02*
X142839978Y-36542386D01*
X141465570Y-35167978D02*
X132600433Y-35167978D01*
X141064999Y-40327822D02*
X142839978Y-38552843D01*
X139700000Y-48260000D02*
X141064999Y-46895001D01*
X142839978Y-36542386D02*
X141465570Y-35167978D01*
X141064999Y-46895001D02*
X141064999Y-40327822D01*
X152400000Y-43180000D02*
X152400000Y-46139996D01*
X152400000Y-43280000D02*
X152400000Y-43180000D01*
X146449999Y-81171999D02*
X149587001Y-81171999D01*
X149587001Y-81171999D02*
X158115000Y-72644000D01*
X146050000Y-80772000D02*
X146449999Y-81171999D01*
X158115000Y-72644000D02*
X158115000Y-48995000D01*
X158115000Y-48995000D02*
X152400000Y-43280000D01*
X141605000Y-53975000D02*
X141605000Y-53884990D01*
X137160000Y-58420000D02*
X141605000Y-53975000D01*
X118255999Y-36303001D02*
X117856000Y-36703000D01*
X119888000Y-34671000D02*
X118255999Y-36303001D01*
X142592411Y-34260000D02*
X132235589Y-34260000D01*
X144780000Y-48260000D02*
X143590031Y-47070031D01*
X143590031Y-47070031D02*
X143590031Y-39075613D01*
X143740000Y-38925644D02*
X143740000Y-35407589D01*
X143740000Y-35407589D02*
X142592411Y-34260000D01*
X132235589Y-34260000D02*
X131258600Y-35236989D01*
X143590031Y-39075613D02*
X143740000Y-38925644D01*
X131258600Y-35236989D02*
X129286985Y-35236989D01*
X129286985Y-35236989D02*
X128720996Y-34671000D01*
X128720996Y-34671000D02*
X119888000Y-34671000D01*
X156609999Y-54374999D02*
X156210000Y-53975000D01*
X148463000Y-80137000D02*
X149028685Y-80137000D01*
X157664989Y-71500696D02*
X157664989Y-55429989D01*
X157664989Y-55429989D02*
X156609999Y-54374999D01*
X149028685Y-80137000D02*
X157664989Y-71500696D01*
X149860000Y-45720000D02*
X147320000Y-48260000D01*
X149860000Y-43180000D02*
X149860000Y-45720000D01*
X140843000Y-74606685D02*
X140843000Y-74041000D01*
X142944315Y-76708000D02*
X140843000Y-74606685D01*
X148012685Y-76708000D02*
X142944315Y-76708000D01*
X154940000Y-68580000D02*
X154940000Y-69780685D01*
X154940000Y-69780685D02*
X148012685Y-76708000D01*
X123993704Y-72812704D02*
X119507385Y-72812704D01*
X130937000Y-79756000D02*
X123993704Y-72812704D01*
X119470090Y-72849999D02*
X119448268Y-72849999D01*
X119507385Y-72812704D02*
X119470090Y-72849999D01*
X142778822Y-33810000D02*
X130910672Y-33810000D01*
X144780000Y-43180000D02*
X144780000Y-35811178D01*
X130910672Y-33810000D02*
X130208693Y-34511979D01*
X144780000Y-35811178D02*
X142778822Y-33810000D01*
X146144999Y-44355001D02*
X147320000Y-43180000D01*
X146233001Y-53053999D02*
X146144999Y-53053999D01*
X151224999Y-58045997D02*
X146233001Y-53053999D01*
X146144999Y-53053999D02*
X146144999Y-44355001D01*
X151224999Y-59495001D02*
X151224999Y-58045997D01*
X144410000Y-60300000D02*
X150420000Y-60300000D01*
X150420000Y-60300000D02*
X151224999Y-59495001D01*
X143604999Y-61105001D02*
X143630000Y-61080000D01*
X143604999Y-64615001D02*
X143604999Y-61105001D01*
X141064999Y-67155001D02*
X143604999Y-64615001D01*
X141064999Y-70225001D02*
X141064999Y-67155001D01*
X138684000Y-79502000D02*
X138684000Y-72606000D01*
X138684000Y-72606000D02*
X141064999Y-70225001D01*
X143604999Y-61105001D02*
X144410000Y-60300000D01*
X152410000Y-68570000D02*
X152400000Y-68580000D01*
X152400000Y-63500000D02*
X152410000Y-63510000D01*
X152410000Y-63510000D02*
X152410000Y-68570000D01*
X142625233Y-33020000D02*
X128016000Y-33020000D01*
X142660000Y-33020000D02*
X142625233Y-33020000D01*
X153575001Y-62324999D02*
X153575001Y-54896001D01*
X152400000Y-63500000D02*
X153575001Y-62324999D01*
X151224999Y-41584999D02*
X142660000Y-33020000D01*
X153575001Y-54896001D02*
X151224999Y-52545999D01*
X151224999Y-52545999D02*
X151224999Y-41584999D01*
X138609775Y-54491376D02*
X138524999Y-54406600D01*
X138524999Y-54406600D02*
X138524999Y-42231412D01*
X134620000Y-58420000D02*
X135377227Y-58420000D01*
X135377227Y-58420000D02*
X138609775Y-55187452D01*
X141279170Y-35617989D02*
X133800011Y-35617989D01*
X142389967Y-36728786D02*
X141279170Y-35617989D01*
X133800011Y-35617989D02*
X133749999Y-35668001D01*
X138524999Y-42231412D02*
X142389967Y-38366444D01*
X138609775Y-55187452D02*
X138609775Y-54491376D01*
X133749999Y-35668001D02*
X133350000Y-36068000D01*
X142389967Y-38366444D02*
X142389967Y-36728786D01*
X141939956Y-36915186D02*
X141092770Y-36068000D01*
X141939956Y-38180044D02*
X141939956Y-36915186D01*
X136271000Y-60071000D02*
X134366000Y-60071000D01*
X138430000Y-62230000D02*
X136271000Y-60071000D01*
X142240000Y-63500000D02*
X141420000Y-63500000D01*
X141040000Y-63120000D02*
X141040000Y-63100998D01*
X134874000Y-36068000D02*
X133749999Y-37192001D01*
X141040000Y-63100998D02*
X140169002Y-62230000D01*
X138540000Y-41580000D02*
X141939956Y-38180044D01*
X133406243Y-59111243D02*
X133406243Y-56216216D01*
X134366000Y-60071000D02*
X133406243Y-59111243D01*
X141092770Y-36068000D02*
X134874000Y-36068000D01*
X137020998Y-41580000D02*
X138540000Y-41580000D01*
X135910000Y-42690998D02*
X137020998Y-41580000D01*
X133749999Y-37192001D02*
X133350000Y-37592000D01*
X141420000Y-63500000D02*
X141040000Y-63120000D01*
X135910000Y-44557000D02*
X135910000Y-42690998D01*
X140169002Y-62230000D02*
X138430000Y-62230000D01*
X133420000Y-47047000D02*
X135910000Y-44557000D01*
X133420000Y-56202459D02*
X133420000Y-47047000D01*
X133406243Y-56216216D02*
X133420000Y-56202459D01*
X131064000Y-73914000D02*
X128506283Y-71356283D01*
X118754551Y-71356283D02*
X118354552Y-71756282D01*
X128506283Y-71356283D02*
X118754551Y-71356283D01*
X144108001Y-79411999D02*
X148680001Y-79411999D01*
X157214978Y-62726978D02*
X156228999Y-61740999D01*
X148680001Y-79411999D02*
X157214978Y-70877022D01*
X143383000Y-80137000D02*
X144108001Y-79411999D01*
X157214978Y-70877022D02*
X157214978Y-62726978D01*
X156228999Y-61740999D02*
X155829000Y-61341000D01*
X147350000Y-63530000D02*
X147320000Y-63500000D01*
X147350000Y-73854998D02*
X147350000Y-63530000D01*
X148190001Y-74694999D02*
X147350000Y-73854998D01*
X143510000Y-74295000D02*
X143909999Y-74694999D01*
X143909999Y-74694999D02*
X148190001Y-74694999D01*
X152400000Y-58420000D02*
X152400000Y-59622081D01*
X152400000Y-59622081D02*
X151197083Y-60824998D01*
X151197083Y-60824998D02*
X147455002Y-60824998D01*
X145629999Y-62650001D02*
X144780000Y-63500000D01*
X147455002Y-60824998D02*
X145629999Y-62650001D01*
X146339998Y-73294315D02*
X146339998Y-73860000D01*
X145970000Y-72924317D02*
X146339998Y-73294315D01*
X144780000Y-63500000D02*
X145970000Y-64690000D01*
X145970000Y-64690000D02*
X145970000Y-72924317D01*
D16*
G36*
X88965506Y-75040537D02*
G01*
X89075820Y-75099502D01*
X89195518Y-75135812D01*
X89320000Y-75148072D01*
X89515674Y-75148072D01*
X89535026Y-75184276D01*
X89599718Y-75263102D01*
X89630000Y-75300001D01*
X89658998Y-75323799D01*
X91046201Y-76711003D01*
X91069999Y-76740001D01*
X91098997Y-76763799D01*
X91185724Y-76834974D01*
X91317753Y-76905546D01*
X91461014Y-76949003D01*
X91610000Y-76963677D01*
X91647333Y-76960000D01*
X106115199Y-76960000D01*
X105370199Y-77705000D01*
X105308061Y-77705000D01*
X105108102Y-77744774D01*
X104919744Y-77822795D01*
X104750226Y-77936063D01*
X104606063Y-78080226D01*
X104492795Y-78249744D01*
X104414774Y-78438102D01*
X104375000Y-78638061D01*
X104375000Y-78841939D01*
X104414774Y-79041898D01*
X104492795Y-79230256D01*
X104589510Y-79375000D01*
X104492795Y-79519744D01*
X104414774Y-79708102D01*
X104375000Y-79908061D01*
X104375000Y-80111939D01*
X104414774Y-80311898D01*
X104492795Y-80500256D01*
X104589506Y-80644994D01*
X104492795Y-80789732D01*
X104414774Y-80978090D01*
X104375000Y-81178049D01*
X104375000Y-81381927D01*
X104390530Y-81460000D01*
X100787620Y-81460000D01*
X100601037Y-81478377D01*
X100361641Y-81550997D01*
X100141012Y-81668925D01*
X99947630Y-81827630D01*
X99788925Y-82021012D01*
X99670997Y-82241641D01*
X99598377Y-82481037D01*
X99573856Y-82730000D01*
X99598377Y-82978963D01*
X99653294Y-83160000D01*
X88925000Y-83160000D01*
X88925000Y-75007295D01*
X88965506Y-75040537D01*
G37*
X88965506Y-75040537D02*
X89075820Y-75099502D01*
X89195518Y-75135812D01*
X89320000Y-75148072D01*
X89515674Y-75148072D01*
X89535026Y-75184276D01*
X89599718Y-75263102D01*
X89630000Y-75300001D01*
X89658998Y-75323799D01*
X91046201Y-76711003D01*
X91069999Y-76740001D01*
X91098997Y-76763799D01*
X91185724Y-76834974D01*
X91317753Y-76905546D01*
X91461014Y-76949003D01*
X91610000Y-76963677D01*
X91647333Y-76960000D01*
X106115199Y-76960000D01*
X105370199Y-77705000D01*
X105308061Y-77705000D01*
X105108102Y-77744774D01*
X104919744Y-77822795D01*
X104750226Y-77936063D01*
X104606063Y-78080226D01*
X104492795Y-78249744D01*
X104414774Y-78438102D01*
X104375000Y-78638061D01*
X104375000Y-78841939D01*
X104414774Y-79041898D01*
X104492795Y-79230256D01*
X104589510Y-79375000D01*
X104492795Y-79519744D01*
X104414774Y-79708102D01*
X104375000Y-79908061D01*
X104375000Y-80111939D01*
X104414774Y-80311898D01*
X104492795Y-80500256D01*
X104589506Y-80644994D01*
X104492795Y-80789732D01*
X104414774Y-80978090D01*
X104375000Y-81178049D01*
X104375000Y-81381927D01*
X104390530Y-81460000D01*
X100787620Y-81460000D01*
X100601037Y-81478377D01*
X100361641Y-81550997D01*
X100141012Y-81668925D01*
X99947630Y-81827630D01*
X99788925Y-82021012D01*
X99670997Y-82241641D01*
X99598377Y-82481037D01*
X99573856Y-82730000D01*
X99598377Y-82978963D01*
X99653294Y-83160000D01*
X88925000Y-83160000D01*
X88925000Y-75007295D01*
X88965506Y-75040537D01*
G36*
X162535000Y-83160000D02*
G01*
X153459050Y-83160000D01*
X160238920Y-76380132D01*
X160287370Y-76340370D01*
X160327132Y-76291920D01*
X160327135Y-76291917D01*
X160387487Y-76218377D01*
X160446075Y-76146988D01*
X160564003Y-75926359D01*
X160585484Y-75855546D01*
X160636623Y-75686964D01*
X160642651Y-75625758D01*
X160655000Y-75500380D01*
X160655000Y-75500373D01*
X160661143Y-75438000D01*
X160655000Y-75375627D01*
X160655000Y-55319327D01*
X160723411Y-55290990D01*
X160966632Y-55128475D01*
X161173475Y-54921632D01*
X161335990Y-54678411D01*
X161447932Y-54408158D01*
X161505000Y-54121260D01*
X161505000Y-53828740D01*
X161447932Y-53541842D01*
X161335990Y-53271589D01*
X161173475Y-53028368D01*
X160966632Y-52821525D01*
X160792240Y-52705000D01*
X160966632Y-52588475D01*
X161173475Y-52381632D01*
X161335990Y-52138411D01*
X161447932Y-51868158D01*
X161505000Y-51581260D01*
X161505000Y-51288740D01*
X161447932Y-51001842D01*
X161335990Y-50731589D01*
X161173475Y-50488368D01*
X161041620Y-50356513D01*
X161114180Y-50334502D01*
X161224494Y-50275537D01*
X161321185Y-50196185D01*
X161400537Y-50099494D01*
X161459502Y-49989180D01*
X161495812Y-49869482D01*
X161508072Y-49745000D01*
X161508072Y-48045000D01*
X161495812Y-47920518D01*
X161459502Y-47800820D01*
X161400537Y-47690506D01*
X161321185Y-47593815D01*
X161290000Y-47568222D01*
X161290000Y-38582380D01*
X161296144Y-38520000D01*
X161271623Y-38271037D01*
X161199003Y-38031641D01*
X161176873Y-37990239D01*
X161081075Y-37811012D01*
X160922370Y-37617630D01*
X160873914Y-37577863D01*
X157607000Y-34310950D01*
X157607000Y-31560620D01*
X157588623Y-31374037D01*
X157516003Y-31134641D01*
X157398075Y-30914012D01*
X157239370Y-30720630D01*
X157045988Y-30561925D01*
X156825359Y-30443997D01*
X156585963Y-30371377D01*
X156337000Y-30346856D01*
X156088038Y-30371377D01*
X155848642Y-30443997D01*
X155628013Y-30561925D01*
X155434631Y-30720630D01*
X155275926Y-30914012D01*
X155157998Y-31134641D01*
X155085378Y-31374037D01*
X155067001Y-31560620D01*
X155067000Y-34774627D01*
X155060857Y-34837000D01*
X155067000Y-34899373D01*
X155067000Y-34899379D01*
X155073291Y-34963247D01*
X155085377Y-35085963D01*
X155100472Y-35135723D01*
X155157997Y-35325358D01*
X155275925Y-35545987D01*
X155434630Y-35739370D01*
X155483091Y-35779141D01*
X158750001Y-39046052D01*
X158750000Y-47568222D01*
X158718815Y-47593815D01*
X158639463Y-47690506D01*
X158580498Y-47800820D01*
X158544188Y-47920518D01*
X158531928Y-48045000D01*
X158531928Y-48337126D01*
X154757026Y-44562224D01*
X154813000Y-44506250D01*
X154813000Y-43307000D01*
X155067000Y-43307000D01*
X155067000Y-44506250D01*
X155225750Y-44665000D01*
X155790000Y-44668072D01*
X155914482Y-44655812D01*
X156034180Y-44619502D01*
X156144494Y-44560537D01*
X156241185Y-44481185D01*
X156320537Y-44384494D01*
X156379502Y-44274180D01*
X156415812Y-44154482D01*
X156428072Y-44030000D01*
X156425000Y-43465750D01*
X156266250Y-43307000D01*
X155067000Y-43307000D01*
X154813000Y-43307000D01*
X154793000Y-43307000D01*
X154793000Y-43053000D01*
X154813000Y-43053000D01*
X154813000Y-41853750D01*
X155067000Y-41853750D01*
X155067000Y-43053000D01*
X156266250Y-43053000D01*
X156425000Y-42894250D01*
X156428072Y-42330000D01*
X156415812Y-42205518D01*
X156379502Y-42085820D01*
X156320537Y-41975506D01*
X156241185Y-41878815D01*
X156144494Y-41799463D01*
X156034180Y-41740498D01*
X155914482Y-41704188D01*
X155790000Y-41691928D01*
X155225750Y-41695000D01*
X155067000Y-41853750D01*
X154813000Y-41853750D01*
X154654250Y-41695000D01*
X154090000Y-41691928D01*
X153965518Y-41704188D01*
X153845820Y-41740498D01*
X153735506Y-41799463D01*
X153638815Y-41878815D01*
X153559463Y-41975506D01*
X153500498Y-42085820D01*
X153478487Y-42158380D01*
X153346632Y-42026525D01*
X153103411Y-41864010D01*
X152833158Y-41752068D01*
X152546260Y-41695000D01*
X152253740Y-41695000D01*
X151984999Y-41748456D01*
X151984999Y-41622324D01*
X151988675Y-41584999D01*
X151984999Y-41547674D01*
X151984999Y-41547666D01*
X151974002Y-41436013D01*
X151930545Y-41292752D01*
X151859973Y-41160723D01*
X151765000Y-41044998D01*
X151736002Y-41021200D01*
X143223804Y-32509003D01*
X143200001Y-32479999D01*
X143084276Y-32385026D01*
X142952247Y-32314454D01*
X142808986Y-32270997D01*
X142697333Y-32260000D01*
X142697322Y-32260000D01*
X142660000Y-32256324D01*
X142622678Y-32260000D01*
X128719711Y-32260000D01*
X128675774Y-32216063D01*
X128506256Y-32102795D01*
X128317898Y-32024774D01*
X128117939Y-31985000D01*
X127914061Y-31985000D01*
X127714102Y-32024774D01*
X127525744Y-32102795D01*
X127356226Y-32216063D01*
X127212063Y-32360226D01*
X127098795Y-32529744D01*
X127020774Y-32718102D01*
X126981000Y-32918061D01*
X126981000Y-33121939D01*
X127020774Y-33321898D01*
X127098795Y-33510256D01*
X127212063Y-33679774D01*
X127356226Y-33823937D01*
X127486525Y-33911000D01*
X119925323Y-33911000D01*
X119888000Y-33907324D01*
X119850677Y-33911000D01*
X119850667Y-33911000D01*
X119739014Y-33921997D01*
X119595753Y-33965454D01*
X119463723Y-34036026D01*
X119416189Y-34075037D01*
X119347999Y-34130999D01*
X119324201Y-34159997D01*
X117816199Y-35668000D01*
X117754061Y-35668000D01*
X117554102Y-35707774D01*
X117365744Y-35785795D01*
X117196226Y-35899063D01*
X117052063Y-36043226D01*
X116938795Y-36212744D01*
X116860774Y-36401102D01*
X116821000Y-36601061D01*
X116821000Y-36804939D01*
X116860774Y-37004898D01*
X116938795Y-37193256D01*
X117052063Y-37362774D01*
X117196226Y-37506937D01*
X117365744Y-37620205D01*
X117554102Y-37698226D01*
X117754061Y-37738000D01*
X117957939Y-37738000D01*
X118157898Y-37698226D01*
X118346256Y-37620205D01*
X118515774Y-37506937D01*
X118659937Y-37362774D01*
X118773205Y-37193256D01*
X118851226Y-37004898D01*
X118891000Y-36804939D01*
X118891000Y-36742801D01*
X120202802Y-35431000D01*
X120847198Y-35431000D01*
X120483199Y-35795000D01*
X120421061Y-35795000D01*
X120221102Y-35834774D01*
X120032744Y-35912795D01*
X119863226Y-36026063D01*
X119719063Y-36170226D01*
X119605795Y-36339744D01*
X119527774Y-36528102D01*
X119488000Y-36728061D01*
X119488000Y-36931939D01*
X119527774Y-37131898D01*
X119605795Y-37320256D01*
X119719063Y-37489774D01*
X119863226Y-37633937D01*
X120032744Y-37747205D01*
X120221102Y-37825226D01*
X120421061Y-37865000D01*
X120624939Y-37865000D01*
X120824898Y-37825226D01*
X121013256Y-37747205D01*
X121182774Y-37633937D01*
X121326937Y-37489774D01*
X121440205Y-37320256D01*
X121518226Y-37131898D01*
X121558000Y-36931939D01*
X121558000Y-36869801D01*
X121919439Y-36508363D01*
X121901000Y-36601061D01*
X121901000Y-36804939D01*
X121940774Y-37004898D01*
X122018795Y-37193256D01*
X122132063Y-37362774D01*
X122276226Y-37506937D01*
X122445744Y-37620205D01*
X122634102Y-37698226D01*
X122834061Y-37738000D01*
X123037939Y-37738000D01*
X123237898Y-37698226D01*
X123426256Y-37620205D01*
X123595774Y-37506937D01*
X123639711Y-37463000D01*
X131028089Y-37463000D01*
X131065411Y-37466676D01*
X131102733Y-37463000D01*
X131102744Y-37463000D01*
X131214397Y-37452003D01*
X131357658Y-37408546D01*
X131489687Y-37337974D01*
X131605412Y-37243001D01*
X131629215Y-37213997D01*
X132389494Y-36453719D01*
X132432795Y-36558256D01*
X132546063Y-36727774D01*
X132648289Y-36830000D01*
X132546063Y-36932226D01*
X132432795Y-37101744D01*
X132354774Y-37290102D01*
X132315000Y-37490061D01*
X132315000Y-37693939D01*
X132354774Y-37893898D01*
X132432795Y-38082256D01*
X132546063Y-38251774D01*
X132690226Y-38395937D01*
X132859744Y-38509205D01*
X133048102Y-38587226D01*
X133248061Y-38627000D01*
X133451939Y-38627000D01*
X133651898Y-38587226D01*
X133840256Y-38509205D01*
X134009774Y-38395937D01*
X134153937Y-38251774D01*
X134267205Y-38082256D01*
X134345226Y-37893898D01*
X134385000Y-37693939D01*
X134385000Y-37631801D01*
X135188803Y-36828000D01*
X139857247Y-36828000D01*
X139833536Y-36947205D01*
X139833536Y-37009342D01*
X137470879Y-39372000D01*
X121353711Y-39372000D01*
X121309774Y-39328063D01*
X121140256Y-39214795D01*
X120951898Y-39136774D01*
X120751939Y-39097000D01*
X120548061Y-39097000D01*
X120348102Y-39136774D01*
X120159744Y-39214795D01*
X119990226Y-39328063D01*
X119846063Y-39472226D01*
X119732795Y-39641744D01*
X119654774Y-39830102D01*
X119615000Y-40030061D01*
X119615000Y-40233939D01*
X119654774Y-40433898D01*
X119732795Y-40622256D01*
X119846063Y-40791774D01*
X119990226Y-40935937D01*
X120159744Y-41049205D01*
X120348102Y-41127226D01*
X120548061Y-41167000D01*
X120751939Y-41167000D01*
X120951898Y-41127226D01*
X121140256Y-41049205D01*
X121309774Y-40935937D01*
X121353711Y-40892000D01*
X136695925Y-40892000D01*
X136596722Y-40945026D01*
X136590631Y-40950025D01*
X136509994Y-41016201D01*
X136509990Y-41016205D01*
X136480997Y-41039999D01*
X136457203Y-41068992D01*
X135526492Y-41999704D01*
X135323411Y-41864010D01*
X135053158Y-41752068D01*
X134766260Y-41695000D01*
X134473740Y-41695000D01*
X134186842Y-41752068D01*
X133916589Y-41864010D01*
X133673368Y-42026525D01*
X133466525Y-42233368D01*
X133350000Y-42407760D01*
X133233475Y-42233368D01*
X133026632Y-42026525D01*
X132783411Y-41864010D01*
X132513158Y-41752068D01*
X132226260Y-41695000D01*
X131933740Y-41695000D01*
X131646842Y-41752068D01*
X131376589Y-41864010D01*
X131133368Y-42026525D01*
X130926525Y-42233368D01*
X130810000Y-42407760D01*
X130693475Y-42233368D01*
X130486632Y-42026525D01*
X130243411Y-41864010D01*
X129973158Y-41752068D01*
X129686260Y-41695000D01*
X129393740Y-41695000D01*
X129106842Y-41752068D01*
X128836589Y-41864010D01*
X128593368Y-42026525D01*
X128386525Y-42233368D01*
X128270000Y-42407760D01*
X128153475Y-42233368D01*
X127946632Y-42026525D01*
X127703411Y-41864010D01*
X127433158Y-41752068D01*
X127146260Y-41695000D01*
X126853740Y-41695000D01*
X126566842Y-41752068D01*
X126296589Y-41864010D01*
X126053368Y-42026525D01*
X125846525Y-42233368D01*
X125730000Y-42407760D01*
X125613475Y-42233368D01*
X125406632Y-42026525D01*
X125163411Y-41864010D01*
X124893158Y-41752068D01*
X124606260Y-41695000D01*
X124313740Y-41695000D01*
X124026842Y-41752068D01*
X123756589Y-41864010D01*
X123513368Y-42026525D01*
X123306525Y-42233368D01*
X123190000Y-42407760D01*
X123073475Y-42233368D01*
X122866632Y-42026525D01*
X122623411Y-41864010D01*
X122353158Y-41752068D01*
X122066260Y-41695000D01*
X121773740Y-41695000D01*
X121486842Y-41752068D01*
X121216589Y-41864010D01*
X120973368Y-42026525D01*
X120766525Y-42233368D01*
X120650000Y-42407760D01*
X120533475Y-42233368D01*
X120326632Y-42026525D01*
X120083411Y-41864010D01*
X119813158Y-41752068D01*
X119526260Y-41695000D01*
X119233740Y-41695000D01*
X118946842Y-41752068D01*
X118860000Y-41788039D01*
X118860000Y-40667325D01*
X118863676Y-40630000D01*
X118860000Y-40592675D01*
X118860000Y-40592667D01*
X118849003Y-40481014D01*
X118805546Y-40337753D01*
X118734974Y-40205724D01*
X118640001Y-40089999D01*
X118611004Y-40066202D01*
X115640000Y-37095199D01*
X115640000Y-35294801D01*
X117091003Y-33843799D01*
X117120001Y-33820001D01*
X117143801Y-33791000D01*
X118149802Y-32785000D01*
X118211939Y-32785000D01*
X118411898Y-32745226D01*
X118600256Y-32667205D01*
X118769774Y-32553937D01*
X118913937Y-32409774D01*
X119027205Y-32240256D01*
X119105226Y-32051898D01*
X119145000Y-31851939D01*
X119145000Y-31648061D01*
X119105226Y-31448102D01*
X119027205Y-31259744D01*
X118913937Y-31090226D01*
X118769774Y-30946063D01*
X118600256Y-30832795D01*
X118411898Y-30754774D01*
X118211939Y-30715000D01*
X118008061Y-30715000D01*
X117808102Y-30754774D01*
X117619744Y-30832795D01*
X117450226Y-30946063D01*
X117306063Y-31090226D01*
X117192795Y-31259744D01*
X117114774Y-31448102D01*
X117075000Y-31648061D01*
X117075000Y-31710198D01*
X116265198Y-32520000D01*
X104936802Y-32520000D01*
X102385804Y-29969003D01*
X102362001Y-29939999D01*
X102246276Y-29845026D01*
X102114247Y-29774454D01*
X101970986Y-29730997D01*
X101859333Y-29720000D01*
X101859322Y-29720000D01*
X101822000Y-29716324D01*
X101784678Y-29720000D01*
X96528178Y-29720000D01*
X96403475Y-29533368D01*
X96196632Y-29326525D01*
X95953411Y-29164010D01*
X95683158Y-29052068D01*
X95396260Y-28995000D01*
X95103740Y-28995000D01*
X94816842Y-29052068D01*
X94546589Y-29164010D01*
X94303368Y-29326525D01*
X94096525Y-29533368D01*
X93980000Y-29707760D01*
X93863475Y-29533368D01*
X93656632Y-29326525D01*
X93413411Y-29164010D01*
X93143158Y-29052068D01*
X92856260Y-28995000D01*
X92563740Y-28995000D01*
X92276842Y-29052068D01*
X92006589Y-29164010D01*
X91763368Y-29326525D01*
X91631513Y-29458380D01*
X91609502Y-29385820D01*
X91550537Y-29275506D01*
X91471185Y-29178815D01*
X91374494Y-29099463D01*
X91264180Y-29040498D01*
X91144482Y-29004188D01*
X91020000Y-28991928D01*
X89320000Y-28991928D01*
X89195518Y-29004188D01*
X89075820Y-29040498D01*
X88965506Y-29099463D01*
X88925000Y-29132705D01*
X88925000Y-28600000D01*
X162535001Y-28600000D01*
X162535000Y-83160000D01*
G37*
X162535000Y-83160000D02*
X153459050Y-83160000D01*
X160238920Y-76380132D01*
X160287370Y-76340370D01*
X160327132Y-76291920D01*
X160327135Y-76291917D01*
X160387487Y-76218377D01*
X160446075Y-76146988D01*
X160564003Y-75926359D01*
X160585484Y-75855546D01*
X160636623Y-75686964D01*
X160642651Y-75625758D01*
X160655000Y-75500380D01*
X160655000Y-75500373D01*
X160661143Y-75438000D01*
X160655000Y-75375627D01*
X160655000Y-55319327D01*
X160723411Y-55290990D01*
X160966632Y-55128475D01*
X161173475Y-54921632D01*
X161335990Y-54678411D01*
X161447932Y-54408158D01*
X161505000Y-54121260D01*
X161505000Y-53828740D01*
X161447932Y-53541842D01*
X161335990Y-53271589D01*
X161173475Y-53028368D01*
X160966632Y-52821525D01*
X160792240Y-52705000D01*
X160966632Y-52588475D01*
X161173475Y-52381632D01*
X161335990Y-52138411D01*
X161447932Y-51868158D01*
X161505000Y-51581260D01*
X161505000Y-51288740D01*
X161447932Y-51001842D01*
X161335990Y-50731589D01*
X161173475Y-50488368D01*
X161041620Y-50356513D01*
X161114180Y-50334502D01*
X161224494Y-50275537D01*
X161321185Y-50196185D01*
X161400537Y-50099494D01*
X161459502Y-49989180D01*
X161495812Y-49869482D01*
X161508072Y-49745000D01*
X161508072Y-48045000D01*
X161495812Y-47920518D01*
X161459502Y-47800820D01*
X161400537Y-47690506D01*
X161321185Y-47593815D01*
X161290000Y-47568222D01*
X161290000Y-38582380D01*
X161296144Y-38520000D01*
X161271623Y-38271037D01*
X161199003Y-38031641D01*
X161176873Y-37990239D01*
X161081075Y-37811012D01*
X160922370Y-37617630D01*
X160873914Y-37577863D01*
X157607000Y-34310950D01*
X157607000Y-31560620D01*
X157588623Y-31374037D01*
X157516003Y-31134641D01*
X157398075Y-30914012D01*
X157239370Y-30720630D01*
X157045988Y-30561925D01*
X156825359Y-30443997D01*
X156585963Y-30371377D01*
X156337000Y-30346856D01*
X156088038Y-30371377D01*
X155848642Y-30443997D01*
X155628013Y-30561925D01*
X155434631Y-30720630D01*
X155275926Y-30914012D01*
X155157998Y-31134641D01*
X155085378Y-31374037D01*
X155067001Y-31560620D01*
X155067000Y-34774627D01*
X155060857Y-34837000D01*
X155067000Y-34899373D01*
X155067000Y-34899379D01*
X155073291Y-34963247D01*
X155085377Y-35085963D01*
X155100472Y-35135723D01*
X155157997Y-35325358D01*
X155275925Y-35545987D01*
X155434630Y-35739370D01*
X155483091Y-35779141D01*
X158750001Y-39046052D01*
X158750000Y-47568222D01*
X158718815Y-47593815D01*
X158639463Y-47690506D01*
X158580498Y-47800820D01*
X158544188Y-47920518D01*
X158531928Y-48045000D01*
X158531928Y-48337126D01*
X154757026Y-44562224D01*
X154813000Y-44506250D01*
X154813000Y-43307000D01*
X155067000Y-43307000D01*
X155067000Y-44506250D01*
X155225750Y-44665000D01*
X155790000Y-44668072D01*
X155914482Y-44655812D01*
X156034180Y-44619502D01*
X156144494Y-44560537D01*
X156241185Y-44481185D01*
X156320537Y-44384494D01*
X156379502Y-44274180D01*
X156415812Y-44154482D01*
X156428072Y-44030000D01*
X156425000Y-43465750D01*
X156266250Y-43307000D01*
X155067000Y-43307000D01*
X154813000Y-43307000D01*
X154793000Y-43307000D01*
X154793000Y-43053000D01*
X154813000Y-43053000D01*
X154813000Y-41853750D01*
X155067000Y-41853750D01*
X155067000Y-43053000D01*
X156266250Y-43053000D01*
X156425000Y-42894250D01*
X156428072Y-42330000D01*
X156415812Y-42205518D01*
X156379502Y-42085820D01*
X156320537Y-41975506D01*
X156241185Y-41878815D01*
X156144494Y-41799463D01*
X156034180Y-41740498D01*
X155914482Y-41704188D01*
X155790000Y-41691928D01*
X155225750Y-41695000D01*
X155067000Y-41853750D01*
X154813000Y-41853750D01*
X154654250Y-41695000D01*
X154090000Y-41691928D01*
X153965518Y-41704188D01*
X153845820Y-41740498D01*
X153735506Y-41799463D01*
X153638815Y-41878815D01*
X153559463Y-41975506D01*
X153500498Y-42085820D01*
X153478487Y-42158380D01*
X153346632Y-42026525D01*
X153103411Y-41864010D01*
X152833158Y-41752068D01*
X152546260Y-41695000D01*
X152253740Y-41695000D01*
X151984999Y-41748456D01*
X151984999Y-41622324D01*
X151988675Y-41584999D01*
X151984999Y-41547674D01*
X151984999Y-41547666D01*
X151974002Y-41436013D01*
X151930545Y-41292752D01*
X151859973Y-41160723D01*
X151765000Y-41044998D01*
X151736002Y-41021200D01*
X143223804Y-32509003D01*
X143200001Y-32479999D01*
X143084276Y-32385026D01*
X142952247Y-32314454D01*
X142808986Y-32270997D01*
X142697333Y-32260000D01*
X142697322Y-32260000D01*
X142660000Y-32256324D01*
X142622678Y-32260000D01*
X128719711Y-32260000D01*
X128675774Y-32216063D01*
X128506256Y-32102795D01*
X128317898Y-32024774D01*
X128117939Y-31985000D01*
X127914061Y-31985000D01*
X127714102Y-32024774D01*
X127525744Y-32102795D01*
X127356226Y-32216063D01*
X127212063Y-32360226D01*
X127098795Y-32529744D01*
X127020774Y-32718102D01*
X126981000Y-32918061D01*
X126981000Y-33121939D01*
X127020774Y-33321898D01*
X127098795Y-33510256D01*
X127212063Y-33679774D01*
X127356226Y-33823937D01*
X127486525Y-33911000D01*
X119925323Y-33911000D01*
X119888000Y-33907324D01*
X119850677Y-33911000D01*
X119850667Y-33911000D01*
X119739014Y-33921997D01*
X119595753Y-33965454D01*
X119463723Y-34036026D01*
X119416189Y-34075037D01*
X119347999Y-34130999D01*
X119324201Y-34159997D01*
X117816199Y-35668000D01*
X117754061Y-35668000D01*
X117554102Y-35707774D01*
X117365744Y-35785795D01*
X117196226Y-35899063D01*
X117052063Y-36043226D01*
X116938795Y-36212744D01*
X116860774Y-36401102D01*
X116821000Y-36601061D01*
X116821000Y-36804939D01*
X116860774Y-37004898D01*
X116938795Y-37193256D01*
X117052063Y-37362774D01*
X117196226Y-37506937D01*
X117365744Y-37620205D01*
X117554102Y-37698226D01*
X117754061Y-37738000D01*
X117957939Y-37738000D01*
X118157898Y-37698226D01*
X118346256Y-37620205D01*
X118515774Y-37506937D01*
X118659937Y-37362774D01*
X118773205Y-37193256D01*
X118851226Y-37004898D01*
X118891000Y-36804939D01*
X118891000Y-36742801D01*
X120202802Y-35431000D01*
X120847198Y-35431000D01*
X120483199Y-35795000D01*
X120421061Y-35795000D01*
X120221102Y-35834774D01*
X120032744Y-35912795D01*
X119863226Y-36026063D01*
X119719063Y-36170226D01*
X119605795Y-36339744D01*
X119527774Y-36528102D01*
X119488000Y-36728061D01*
X119488000Y-36931939D01*
X119527774Y-37131898D01*
X119605795Y-37320256D01*
X119719063Y-37489774D01*
X119863226Y-37633937D01*
X120032744Y-37747205D01*
X120221102Y-37825226D01*
X120421061Y-37865000D01*
X120624939Y-37865000D01*
X120824898Y-37825226D01*
X121013256Y-37747205D01*
X121182774Y-37633937D01*
X121326937Y-37489774D01*
X121440205Y-37320256D01*
X121518226Y-37131898D01*
X121558000Y-36931939D01*
X121558000Y-36869801D01*
X121919439Y-36508363D01*
X121901000Y-36601061D01*
X121901000Y-36804939D01*
X121940774Y-37004898D01*
X122018795Y-37193256D01*
X122132063Y-37362774D01*
X122276226Y-37506937D01*
X122445744Y-37620205D01*
X122634102Y-37698226D01*
X122834061Y-37738000D01*
X123037939Y-37738000D01*
X123237898Y-37698226D01*
X123426256Y-37620205D01*
X123595774Y-37506937D01*
X123639711Y-37463000D01*
X131028089Y-37463000D01*
X131065411Y-37466676D01*
X131102733Y-37463000D01*
X131102744Y-37463000D01*
X131214397Y-37452003D01*
X131357658Y-37408546D01*
X131489687Y-37337974D01*
X131605412Y-37243001D01*
X131629215Y-37213997D01*
X132389494Y-36453719D01*
X132432795Y-36558256D01*
X132546063Y-36727774D01*
X132648289Y-36830000D01*
X132546063Y-36932226D01*
X132432795Y-37101744D01*
X132354774Y-37290102D01*
X132315000Y-37490061D01*
X132315000Y-37693939D01*
X132354774Y-37893898D01*
X132432795Y-38082256D01*
X132546063Y-38251774D01*
X132690226Y-38395937D01*
X132859744Y-38509205D01*
X133048102Y-38587226D01*
X133248061Y-38627000D01*
X133451939Y-38627000D01*
X133651898Y-38587226D01*
X133840256Y-38509205D01*
X134009774Y-38395937D01*
X134153937Y-38251774D01*
X134267205Y-38082256D01*
X134345226Y-37893898D01*
X134385000Y-37693939D01*
X134385000Y-37631801D01*
X135188803Y-36828000D01*
X139857247Y-36828000D01*
X139833536Y-36947205D01*
X139833536Y-37009342D01*
X137470879Y-39372000D01*
X121353711Y-39372000D01*
X121309774Y-39328063D01*
X121140256Y-39214795D01*
X120951898Y-39136774D01*
X120751939Y-39097000D01*
X120548061Y-39097000D01*
X120348102Y-39136774D01*
X120159744Y-39214795D01*
X119990226Y-39328063D01*
X119846063Y-39472226D01*
X119732795Y-39641744D01*
X119654774Y-39830102D01*
X119615000Y-40030061D01*
X119615000Y-40233939D01*
X119654774Y-40433898D01*
X119732795Y-40622256D01*
X119846063Y-40791774D01*
X119990226Y-40935937D01*
X120159744Y-41049205D01*
X120348102Y-41127226D01*
X120548061Y-41167000D01*
X120751939Y-41167000D01*
X120951898Y-41127226D01*
X121140256Y-41049205D01*
X121309774Y-40935937D01*
X121353711Y-40892000D01*
X136695925Y-40892000D01*
X136596722Y-40945026D01*
X136590631Y-40950025D01*
X136509994Y-41016201D01*
X136509990Y-41016205D01*
X136480997Y-41039999D01*
X136457203Y-41068992D01*
X135526492Y-41999704D01*
X135323411Y-41864010D01*
X135053158Y-41752068D01*
X134766260Y-41695000D01*
X134473740Y-41695000D01*
X134186842Y-41752068D01*
X133916589Y-41864010D01*
X133673368Y-42026525D01*
X133466525Y-42233368D01*
X133350000Y-42407760D01*
X133233475Y-42233368D01*
X133026632Y-42026525D01*
X132783411Y-41864010D01*
X132513158Y-41752068D01*
X132226260Y-41695000D01*
X131933740Y-41695000D01*
X131646842Y-41752068D01*
X131376589Y-41864010D01*
X131133368Y-42026525D01*
X130926525Y-42233368D01*
X130810000Y-42407760D01*
X130693475Y-42233368D01*
X130486632Y-42026525D01*
X130243411Y-41864010D01*
X129973158Y-41752068D01*
X129686260Y-41695000D01*
X129393740Y-41695000D01*
X129106842Y-41752068D01*
X128836589Y-41864010D01*
X128593368Y-42026525D01*
X128386525Y-42233368D01*
X128270000Y-42407760D01*
X128153475Y-42233368D01*
X127946632Y-42026525D01*
X127703411Y-41864010D01*
X127433158Y-41752068D01*
X127146260Y-41695000D01*
X126853740Y-41695000D01*
X126566842Y-41752068D01*
X126296589Y-41864010D01*
X126053368Y-42026525D01*
X125846525Y-42233368D01*
X125730000Y-42407760D01*
X125613475Y-42233368D01*
X125406632Y-42026525D01*
X125163411Y-41864010D01*
X124893158Y-41752068D01*
X124606260Y-41695000D01*
X124313740Y-41695000D01*
X124026842Y-41752068D01*
X123756589Y-41864010D01*
X123513368Y-42026525D01*
X123306525Y-42233368D01*
X123190000Y-42407760D01*
X123073475Y-42233368D01*
X122866632Y-42026525D01*
X122623411Y-41864010D01*
X122353158Y-41752068D01*
X122066260Y-41695000D01*
X121773740Y-41695000D01*
X121486842Y-41752068D01*
X121216589Y-41864010D01*
X120973368Y-42026525D01*
X120766525Y-42233368D01*
X120650000Y-42407760D01*
X120533475Y-42233368D01*
X120326632Y-42026525D01*
X120083411Y-41864010D01*
X119813158Y-41752068D01*
X119526260Y-41695000D01*
X119233740Y-41695000D01*
X118946842Y-41752068D01*
X118860000Y-41788039D01*
X118860000Y-40667325D01*
X118863676Y-40630000D01*
X118860000Y-40592675D01*
X118860000Y-40592667D01*
X118849003Y-40481014D01*
X118805546Y-40337753D01*
X118734974Y-40205724D01*
X118640001Y-40089999D01*
X118611004Y-40066202D01*
X115640000Y-37095199D01*
X115640000Y-35294801D01*
X117091003Y-33843799D01*
X117120001Y-33820001D01*
X117143801Y-33791000D01*
X118149802Y-32785000D01*
X118211939Y-32785000D01*
X118411898Y-32745226D01*
X118600256Y-32667205D01*
X118769774Y-32553937D01*
X118913937Y-32409774D01*
X119027205Y-32240256D01*
X119105226Y-32051898D01*
X119145000Y-31851939D01*
X119145000Y-31648061D01*
X119105226Y-31448102D01*
X119027205Y-31259744D01*
X118913937Y-31090226D01*
X118769774Y-30946063D01*
X118600256Y-30832795D01*
X118411898Y-30754774D01*
X118211939Y-30715000D01*
X118008061Y-30715000D01*
X117808102Y-30754774D01*
X117619744Y-30832795D01*
X117450226Y-30946063D01*
X117306063Y-31090226D01*
X117192795Y-31259744D01*
X117114774Y-31448102D01*
X117075000Y-31648061D01*
X117075000Y-31710198D01*
X116265198Y-32520000D01*
X104936802Y-32520000D01*
X102385804Y-29969003D01*
X102362001Y-29939999D01*
X102246276Y-29845026D01*
X102114247Y-29774454D01*
X101970986Y-29730997D01*
X101859333Y-29720000D01*
X101859322Y-29720000D01*
X101822000Y-29716324D01*
X101784678Y-29720000D01*
X96528178Y-29720000D01*
X96403475Y-29533368D01*
X96196632Y-29326525D01*
X95953411Y-29164010D01*
X95683158Y-29052068D01*
X95396260Y-28995000D01*
X95103740Y-28995000D01*
X94816842Y-29052068D01*
X94546589Y-29164010D01*
X94303368Y-29326525D01*
X94096525Y-29533368D01*
X93980000Y-29707760D01*
X93863475Y-29533368D01*
X93656632Y-29326525D01*
X93413411Y-29164010D01*
X93143158Y-29052068D01*
X92856260Y-28995000D01*
X92563740Y-28995000D01*
X92276842Y-29052068D01*
X92006589Y-29164010D01*
X91763368Y-29326525D01*
X91631513Y-29458380D01*
X91609502Y-29385820D01*
X91550537Y-29275506D01*
X91471185Y-29178815D01*
X91374494Y-29099463D01*
X91264180Y-29040498D01*
X91144482Y-29004188D01*
X91020000Y-28991928D01*
X89320000Y-28991928D01*
X89195518Y-29004188D01*
X89075820Y-29040498D01*
X88965506Y-29099463D01*
X88925000Y-29132705D01*
X88925000Y-28600000D01*
X162535001Y-28600000D01*
X162535000Y-83160000D01*
G36*
X91763368Y-40523475D02*
G01*
X91950000Y-40648179D01*
X91950000Y-41672677D01*
X91946324Y-41710000D01*
X91950000Y-41747322D01*
X91950000Y-41747332D01*
X91960997Y-41858985D01*
X91996343Y-41975506D01*
X92004454Y-42002246D01*
X92075026Y-42134276D01*
X92088749Y-42150997D01*
X92169999Y-42250001D01*
X92199003Y-42273804D01*
X98666205Y-48741008D01*
X98689999Y-48770001D01*
X98718992Y-48793795D01*
X98718996Y-48793799D01*
X98727386Y-48800684D01*
X98805724Y-48864974D01*
X98937753Y-48935546D01*
X99081014Y-48979003D01*
X99192667Y-48990000D01*
X99192676Y-48990000D01*
X99229999Y-48993676D01*
X99267322Y-48990000D01*
X102056197Y-48990000D01*
X104614944Y-51548748D01*
X104473975Y-51505986D01*
X104362322Y-51494989D01*
X104362311Y-51494989D01*
X104324989Y-51491313D01*
X104287667Y-51494989D01*
X97019791Y-51494989D01*
X95269802Y-49745000D01*
X95396260Y-49745000D01*
X95683158Y-49687932D01*
X95953411Y-49575990D01*
X96196632Y-49413475D01*
X96403475Y-49206632D01*
X96565990Y-48963411D01*
X96677932Y-48693158D01*
X96735000Y-48406260D01*
X96735000Y-48113740D01*
X96677932Y-47826842D01*
X96565990Y-47556589D01*
X96403475Y-47313368D01*
X96196632Y-47106525D01*
X95953411Y-46944010D01*
X95683158Y-46832068D01*
X95396260Y-46775000D01*
X95103740Y-46775000D01*
X94816842Y-46832068D01*
X94546589Y-46944010D01*
X94303368Y-47106525D01*
X94096525Y-47313368D01*
X93980000Y-47487760D01*
X93863475Y-47313368D01*
X93656632Y-47106525D01*
X93413411Y-46944010D01*
X93143158Y-46832068D01*
X92856260Y-46775000D01*
X92563740Y-46775000D01*
X92276842Y-46832068D01*
X92006589Y-46944010D01*
X91763368Y-47106525D01*
X91631513Y-47238380D01*
X91609502Y-47165820D01*
X91550537Y-47055506D01*
X91471185Y-46958815D01*
X91374494Y-46879463D01*
X91264180Y-46820498D01*
X91144482Y-46784188D01*
X91020000Y-46771928D01*
X90455750Y-46775000D01*
X90297000Y-46933750D01*
X90297000Y-48133000D01*
X90317000Y-48133000D01*
X90317000Y-48387000D01*
X90297000Y-48387000D01*
X90297000Y-49586250D01*
X90455750Y-49745000D01*
X91020000Y-49748072D01*
X91144482Y-49735812D01*
X91264180Y-49699502D01*
X91374494Y-49640537D01*
X91471185Y-49561185D01*
X91550537Y-49464494D01*
X91609502Y-49354180D01*
X91631513Y-49281620D01*
X91763368Y-49413475D01*
X92006589Y-49575990D01*
X92276842Y-49687932D01*
X92563740Y-49745000D01*
X92856260Y-49745000D01*
X93076408Y-49701209D01*
X96141189Y-52765991D01*
X96164988Y-52794990D01*
X96193986Y-52818788D01*
X96280713Y-52889963D01*
X96412742Y-52960535D01*
X96556003Y-53003992D01*
X96704989Y-53018666D01*
X96742322Y-53014989D01*
X104010188Y-53014989D01*
X105010000Y-54014802D01*
X105010000Y-54076939D01*
X105049229Y-54274160D01*
X104919744Y-54327795D01*
X104750226Y-54441063D01*
X104606063Y-54585226D01*
X104492795Y-54754744D01*
X104414774Y-54943102D01*
X104375000Y-55143061D01*
X104375000Y-55346939D01*
X104414774Y-55546898D01*
X104492795Y-55735256D01*
X104606063Y-55904774D01*
X104750226Y-56048937D01*
X104919744Y-56162205D01*
X105108102Y-56240226D01*
X105308061Y-56280000D01*
X105511939Y-56280000D01*
X105711898Y-56240226D01*
X105900256Y-56162205D01*
X106069774Y-56048937D01*
X106124724Y-55993987D01*
X106267932Y-55950546D01*
X106399961Y-55879974D01*
X106515686Y-55785001D01*
X106539488Y-55755998D01*
X107341004Y-54954483D01*
X107370001Y-54930686D01*
X107464974Y-54814961D01*
X107535546Y-54682932D01*
X107579003Y-54539671D01*
X107590000Y-54428018D01*
X107590000Y-54428008D01*
X107593676Y-54390685D01*
X107590000Y-54353362D01*
X107590000Y-52726324D01*
X107593676Y-52689001D01*
X107590000Y-52651678D01*
X107590000Y-52651669D01*
X107579003Y-52540016D01*
X107535546Y-52396755D01*
X107534316Y-52394454D01*
X107464974Y-52264725D01*
X107393799Y-52177999D01*
X107370001Y-52149001D01*
X107341003Y-52125203D01*
X102965799Y-47750000D01*
X105283897Y-47750000D01*
X105252068Y-47826842D01*
X105195000Y-48113740D01*
X105195000Y-48406260D01*
X105252068Y-48693158D01*
X105364010Y-48963411D01*
X105526525Y-49206632D01*
X105733368Y-49413475D01*
X105976589Y-49575990D01*
X106246842Y-49687932D01*
X106533740Y-49745000D01*
X106826260Y-49745000D01*
X107113158Y-49687932D01*
X107383411Y-49575990D01*
X107626632Y-49413475D01*
X107833475Y-49206632D01*
X107950000Y-49032240D01*
X108066525Y-49206632D01*
X108273368Y-49413475D01*
X108460001Y-49538179D01*
X108460000Y-52782677D01*
X108456324Y-52820000D01*
X108460000Y-52857322D01*
X108460000Y-52857332D01*
X108470997Y-52968985D01*
X108499903Y-53064276D01*
X108514454Y-53112246D01*
X108585026Y-53244276D01*
X108624871Y-53292826D01*
X108679999Y-53360001D01*
X108709003Y-53383804D01*
X112175002Y-56849804D01*
X112175002Y-56988457D01*
X111906260Y-56935000D01*
X111613740Y-56935000D01*
X111326842Y-56992068D01*
X111056589Y-57104010D01*
X110813368Y-57266525D01*
X110606525Y-57473368D01*
X110490000Y-57647760D01*
X110373475Y-57473368D01*
X110166632Y-57266525D01*
X109923411Y-57104010D01*
X109653158Y-56992068D01*
X109366260Y-56935000D01*
X109073740Y-56935000D01*
X108786842Y-56992068D01*
X108516589Y-57104010D01*
X108273368Y-57266525D01*
X108066525Y-57473368D01*
X107950000Y-57647760D01*
X107833475Y-57473368D01*
X107626632Y-57266525D01*
X107383411Y-57104010D01*
X107113158Y-56992068D01*
X106826260Y-56935000D01*
X106533740Y-56935000D01*
X106246842Y-56992068D01*
X105976589Y-57104010D01*
X105733368Y-57266525D01*
X105526525Y-57473368D01*
X105364010Y-57716589D01*
X105252068Y-57986842D01*
X105195000Y-58273740D01*
X105195000Y-58566260D01*
X105252068Y-58853158D01*
X105364010Y-59123411D01*
X105526525Y-59366632D01*
X105733368Y-59573475D01*
X105976589Y-59735990D01*
X106246842Y-59847932D01*
X106533740Y-59905000D01*
X106826260Y-59905000D01*
X107113158Y-59847932D01*
X107383411Y-59735990D01*
X107626632Y-59573475D01*
X107833475Y-59366632D01*
X107950000Y-59192240D01*
X108066525Y-59366632D01*
X108273368Y-59573475D01*
X108516589Y-59735990D01*
X108786842Y-59847932D01*
X109073740Y-59905000D01*
X109366260Y-59905000D01*
X109653158Y-59847932D01*
X109923411Y-59735990D01*
X110166632Y-59573475D01*
X110373475Y-59366632D01*
X110490000Y-59192240D01*
X110606525Y-59366632D01*
X110813368Y-59573475D01*
X111056589Y-59735990D01*
X111326842Y-59847932D01*
X111613740Y-59905000D01*
X111906260Y-59905000D01*
X112175002Y-59851544D01*
X112175001Y-62068456D01*
X111906260Y-62015000D01*
X111613740Y-62015000D01*
X111326842Y-62072068D01*
X111056589Y-62184010D01*
X110813368Y-62346525D01*
X110606525Y-62553368D01*
X110490000Y-62727760D01*
X110373475Y-62553368D01*
X110166632Y-62346525D01*
X109923411Y-62184010D01*
X109653158Y-62072068D01*
X109366260Y-62015000D01*
X109073740Y-62015000D01*
X108786842Y-62072068D01*
X108516589Y-62184010D01*
X108273368Y-62346525D01*
X108066525Y-62553368D01*
X107944805Y-62735534D01*
X107875178Y-62618645D01*
X107680269Y-62402412D01*
X107446920Y-62228359D01*
X107184099Y-62103175D01*
X107036890Y-62058524D01*
X106807000Y-62179845D01*
X106807000Y-63373000D01*
X106827000Y-63373000D01*
X106827000Y-63627000D01*
X106807000Y-63627000D01*
X106807000Y-64820155D01*
X107036890Y-64941476D01*
X107184099Y-64896825D01*
X107446920Y-64771641D01*
X107680269Y-64597588D01*
X107875178Y-64381355D01*
X107944805Y-64264466D01*
X108066525Y-64446632D01*
X108273368Y-64653475D01*
X108516589Y-64815990D01*
X108786842Y-64927932D01*
X109073740Y-64985000D01*
X109366260Y-64985000D01*
X109653158Y-64927932D01*
X109923411Y-64815990D01*
X110166632Y-64653475D01*
X110373475Y-64446632D01*
X110490000Y-64272240D01*
X110606525Y-64446632D01*
X110813368Y-64653475D01*
X111056589Y-64815990D01*
X111326842Y-64927932D01*
X111613740Y-64985000D01*
X111906260Y-64985000D01*
X112183619Y-64929829D01*
X112185998Y-64953986D01*
X112211871Y-65039278D01*
X112229455Y-65097247D01*
X112300027Y-65229277D01*
X112317014Y-65249975D01*
X112395000Y-65345002D01*
X112424004Y-65368805D01*
X114172998Y-67117800D01*
X114172998Y-67259844D01*
X113943110Y-67138524D01*
X113795901Y-67183175D01*
X113533080Y-67308359D01*
X113299731Y-67482412D01*
X113104822Y-67698645D01*
X112955843Y-67948748D01*
X112858519Y-68223109D01*
X112979186Y-68453000D01*
X114173000Y-68453000D01*
X114173000Y-68433000D01*
X114427000Y-68433000D01*
X114427000Y-68453000D01*
X114447000Y-68453000D01*
X114447000Y-68707000D01*
X114427000Y-68707000D01*
X114427000Y-69900155D01*
X114656890Y-70021476D01*
X114804099Y-69976825D01*
X114860000Y-69950199D01*
X114860000Y-70057409D01*
X114856324Y-70094732D01*
X114860000Y-70132054D01*
X114860000Y-70132064D01*
X114870997Y-70243717D01*
X114910513Y-70373986D01*
X114914454Y-70386978D01*
X114985026Y-70519008D01*
X115005834Y-70544362D01*
X115079999Y-70634733D01*
X115109003Y-70658536D01*
X117442752Y-72992286D01*
X117466550Y-73021284D01*
X117582275Y-73116257D01*
X117714304Y-73186829D01*
X117857565Y-73230286D01*
X117969218Y-73241283D01*
X117969226Y-73241283D01*
X118006551Y-73244959D01*
X118043876Y-73241283D01*
X118490067Y-73241283D01*
X118531063Y-73340255D01*
X118644331Y-73509773D01*
X118788494Y-73653936D01*
X118958012Y-73767204D01*
X119146370Y-73845225D01*
X119346329Y-73884999D01*
X119550207Y-73884999D01*
X119750166Y-73845225D01*
X119938524Y-73767204D01*
X120108042Y-73653936D01*
X120189274Y-73572704D01*
X123678903Y-73572704D01*
X129902000Y-79795802D01*
X129902000Y-79857939D01*
X129941774Y-80057898D01*
X130019795Y-80246256D01*
X130133063Y-80415774D01*
X130277226Y-80559937D01*
X130446744Y-80673205D01*
X130635102Y-80751226D01*
X130835061Y-80791000D01*
X131038939Y-80791000D01*
X131238898Y-80751226D01*
X131427256Y-80673205D01*
X131596774Y-80559937D01*
X131740937Y-80415774D01*
X131854205Y-80246256D01*
X131897919Y-80140721D01*
X132569000Y-80811802D01*
X132569000Y-80873939D01*
X132608774Y-81073898D01*
X132686795Y-81262256D01*
X132698651Y-81280000D01*
X127780052Y-81280000D01*
X123427915Y-76927865D01*
X123027916Y-76527866D01*
X122882987Y-76408926D01*
X122662359Y-76290998D01*
X122422963Y-76218377D01*
X122174000Y-76193857D01*
X121925037Y-76218377D01*
X121685641Y-76290998D01*
X121465013Y-76408926D01*
X121271630Y-76567630D01*
X121112926Y-76761013D01*
X120994998Y-76981641D01*
X120922377Y-77221037D01*
X120897857Y-77470000D01*
X120922377Y-77718963D01*
X120994998Y-77958359D01*
X121112926Y-78178987D01*
X121231866Y-78323916D01*
X121631865Y-78723915D01*
X124367949Y-81460000D01*
X112654801Y-81460000D01*
X113069802Y-81045000D01*
X113131939Y-81045000D01*
X113331898Y-81005226D01*
X113520256Y-80927205D01*
X113689774Y-80813937D01*
X113833937Y-80669774D01*
X113947205Y-80500256D01*
X114025226Y-80311898D01*
X114065000Y-80111939D01*
X114065000Y-79908061D01*
X114025226Y-79708102D01*
X113947205Y-79519744D01*
X113833937Y-79350226D01*
X113689774Y-79206063D01*
X113520256Y-79092795D01*
X113331898Y-79014774D01*
X113131939Y-78975000D01*
X112928061Y-78975000D01*
X112728102Y-79014774D01*
X112539744Y-79092795D01*
X112370226Y-79206063D01*
X112226063Y-79350226D01*
X112112795Y-79519744D01*
X112034774Y-79708102D01*
X111995000Y-79908061D01*
X111995000Y-79970198D01*
X111445211Y-80519988D01*
X111394021Y-80519988D01*
X111407205Y-80500256D01*
X111485226Y-80311898D01*
X111525000Y-80111939D01*
X111525000Y-79908061D01*
X111485226Y-79708102D01*
X111407205Y-79519744D01*
X111293937Y-79350226D01*
X111149774Y-79206063D01*
X110980256Y-79092795D01*
X110791898Y-79014774D01*
X110591939Y-78975000D01*
X110388061Y-78975000D01*
X110188102Y-79014774D01*
X109999744Y-79092795D01*
X109830226Y-79206063D01*
X109786289Y-79250000D01*
X106314013Y-79250000D01*
X106327205Y-79230256D01*
X106405226Y-79041898D01*
X106445000Y-78841939D01*
X106445000Y-78779801D01*
X108899802Y-76325000D01*
X109786289Y-76325000D01*
X109830226Y-76368937D01*
X109999744Y-76482205D01*
X110188102Y-76560226D01*
X110388061Y-76600000D01*
X110591939Y-76600000D01*
X110791898Y-76560226D01*
X110980256Y-76482205D01*
X111149774Y-76368937D01*
X111293937Y-76224774D01*
X111407205Y-76055256D01*
X111485226Y-75866898D01*
X111525000Y-75666939D01*
X111525000Y-75563000D01*
X114866289Y-75563000D01*
X114910226Y-75606937D01*
X115079744Y-75720205D01*
X115268102Y-75798226D01*
X115468061Y-75838000D01*
X115671939Y-75838000D01*
X115871898Y-75798226D01*
X116060256Y-75720205D01*
X116229774Y-75606937D01*
X116373937Y-75462774D01*
X116445248Y-75356050D01*
X116950002Y-75860804D01*
X116950001Y-79699678D01*
X116946325Y-79737001D01*
X116950001Y-79774323D01*
X116950001Y-79774333D01*
X116960998Y-79885986D01*
X116991948Y-79988015D01*
X117004455Y-80029247D01*
X117075000Y-80161226D01*
X117075000Y-80238939D01*
X117114774Y-80438898D01*
X117192795Y-80627256D01*
X117306063Y-80796774D01*
X117450226Y-80940937D01*
X117619744Y-81054205D01*
X117808102Y-81132226D01*
X118008061Y-81172000D01*
X118211939Y-81172000D01*
X118411898Y-81132226D01*
X118600256Y-81054205D01*
X118769774Y-80940937D01*
X118913937Y-80796774D01*
X119027205Y-80627256D01*
X119105226Y-80438898D01*
X119145000Y-80238939D01*
X119145000Y-80035061D01*
X119105226Y-79835102D01*
X119076182Y-79764983D01*
X119361000Y-80049802D01*
X119361000Y-80111939D01*
X119400774Y-80311898D01*
X119478795Y-80500256D01*
X119592063Y-80669774D01*
X119736226Y-80813937D01*
X119905744Y-80927205D01*
X120094102Y-81005226D01*
X120294061Y-81045000D01*
X120497939Y-81045000D01*
X120697898Y-81005226D01*
X120886256Y-80927205D01*
X121055774Y-80813937D01*
X121199937Y-80669774D01*
X121313205Y-80500256D01*
X121391226Y-80311898D01*
X121431000Y-80111939D01*
X121431000Y-79908061D01*
X121391226Y-79708102D01*
X121313205Y-79519744D01*
X121199937Y-79350226D01*
X121055774Y-79206063D01*
X120886256Y-79092795D01*
X120697898Y-79014774D01*
X120497939Y-78975000D01*
X120435802Y-78975000D01*
X119124000Y-77663199D01*
X119124000Y-75475325D01*
X119127676Y-75438000D01*
X119124000Y-75400675D01*
X119124000Y-75400667D01*
X119113003Y-75289014D01*
X119069546Y-75145753D01*
X118998974Y-75013724D01*
X118904001Y-74897999D01*
X118875003Y-74874201D01*
X113994930Y-69994129D01*
X114173000Y-69900155D01*
X114173000Y-68707000D01*
X112979186Y-68707000D01*
X112858519Y-68936891D01*
X112955843Y-69211252D01*
X113104822Y-69461355D01*
X113299731Y-69677588D01*
X113363295Y-69725000D01*
X107352322Y-69725000D01*
X107314999Y-69721324D01*
X107277676Y-69725000D01*
X107277667Y-69725000D01*
X107166014Y-69735997D01*
X107022753Y-69779454D01*
X106890723Y-69850026D01*
X106807083Y-69918668D01*
X106774999Y-69944999D01*
X106751201Y-69973997D01*
X103825199Y-72900000D01*
X99068178Y-72900000D01*
X98943475Y-72713368D01*
X98736632Y-72506525D01*
X98560594Y-72388900D01*
X98790269Y-72217588D01*
X98985178Y-72001355D01*
X99134157Y-71751252D01*
X99231481Y-71476891D01*
X99110814Y-71247000D01*
X97917000Y-71247000D01*
X97917000Y-71267000D01*
X97663000Y-71267000D01*
X97663000Y-71247000D01*
X95377000Y-71247000D01*
X95377000Y-71267000D01*
X95123000Y-71267000D01*
X95123000Y-71247000D01*
X92837000Y-71247000D01*
X92837000Y-71267000D01*
X92583000Y-71267000D01*
X92583000Y-71247000D01*
X90297000Y-71247000D01*
X90297000Y-71267000D01*
X90043000Y-71267000D01*
X90043000Y-71247000D01*
X90023000Y-71247000D01*
X90023000Y-70993000D01*
X90043000Y-70993000D01*
X90043000Y-69799845D01*
X90297000Y-69799845D01*
X90297000Y-70993000D01*
X92583000Y-70993000D01*
X92583000Y-69799845D01*
X92837000Y-69799845D01*
X92837000Y-70993000D01*
X95123000Y-70993000D01*
X95123000Y-69799845D01*
X95377000Y-69799845D01*
X95377000Y-70993000D01*
X97663000Y-70993000D01*
X97663000Y-69799845D01*
X97917000Y-69799845D01*
X97917000Y-70993000D01*
X99110814Y-70993000D01*
X99231481Y-70763109D01*
X99134157Y-70488748D01*
X98985178Y-70238645D01*
X98790269Y-70022412D01*
X98556920Y-69848359D01*
X98294099Y-69723175D01*
X98146890Y-69678524D01*
X97917000Y-69799845D01*
X97663000Y-69799845D01*
X97433110Y-69678524D01*
X97285901Y-69723175D01*
X97023080Y-69848359D01*
X96789731Y-70022412D01*
X96594822Y-70238645D01*
X96520000Y-70364255D01*
X96445178Y-70238645D01*
X96250269Y-70022412D01*
X96016920Y-69848359D01*
X95754099Y-69723175D01*
X95606890Y-69678524D01*
X95377000Y-69799845D01*
X95123000Y-69799845D01*
X94893110Y-69678524D01*
X94745901Y-69723175D01*
X94483080Y-69848359D01*
X94249731Y-70022412D01*
X94054822Y-70238645D01*
X93980000Y-70364255D01*
X93905178Y-70238645D01*
X93710269Y-70022412D01*
X93476920Y-69848359D01*
X93214099Y-69723175D01*
X93066890Y-69678524D01*
X92837000Y-69799845D01*
X92583000Y-69799845D01*
X92353110Y-69678524D01*
X92205901Y-69723175D01*
X91943080Y-69848359D01*
X91709731Y-70022412D01*
X91514822Y-70238645D01*
X91440000Y-70364255D01*
X91365178Y-70238645D01*
X91170269Y-70022412D01*
X90936920Y-69848359D01*
X90674099Y-69723175D01*
X90526890Y-69678524D01*
X90297000Y-69799845D01*
X90043000Y-69799845D01*
X89813110Y-69678524D01*
X89665901Y-69723175D01*
X89403080Y-69848359D01*
X89169731Y-70022412D01*
X88974822Y-70238645D01*
X88925000Y-70322285D01*
X88925000Y-63856891D01*
X105238519Y-63856891D01*
X105335843Y-64131252D01*
X105484822Y-64381355D01*
X105679731Y-64597588D01*
X105913080Y-64771641D01*
X106175901Y-64896825D01*
X106323110Y-64941476D01*
X106553000Y-64820155D01*
X106553000Y-63627000D01*
X105359186Y-63627000D01*
X105238519Y-63856891D01*
X88925000Y-63856891D01*
X88925000Y-63143109D01*
X105238519Y-63143109D01*
X105359186Y-63373000D01*
X106553000Y-63373000D01*
X106553000Y-62179845D01*
X106323110Y-62058524D01*
X106175901Y-62103175D01*
X105913080Y-62228359D01*
X105679731Y-62402412D01*
X105484822Y-62618645D01*
X105335843Y-62868748D01*
X105238519Y-63143109D01*
X88925000Y-63143109D01*
X88925000Y-62307295D01*
X88965506Y-62340537D01*
X89075820Y-62399502D01*
X89195518Y-62435812D01*
X89320000Y-62448072D01*
X91020000Y-62448072D01*
X91144482Y-62435812D01*
X91264180Y-62399502D01*
X91374494Y-62340537D01*
X91471185Y-62261185D01*
X91550537Y-62164494D01*
X91609502Y-62054180D01*
X91631513Y-61981620D01*
X91763368Y-62113475D01*
X92006589Y-62275990D01*
X92276842Y-62387932D01*
X92563740Y-62445000D01*
X92856260Y-62445000D01*
X93143158Y-62387932D01*
X93413411Y-62275990D01*
X93656632Y-62113475D01*
X93863475Y-61906632D01*
X93980000Y-61732240D01*
X94096525Y-61906632D01*
X94303368Y-62113475D01*
X94546589Y-62275990D01*
X94816842Y-62387932D01*
X95103740Y-62445000D01*
X95396260Y-62445000D01*
X95683158Y-62387932D01*
X95953411Y-62275990D01*
X96196632Y-62113475D01*
X96403475Y-61906632D01*
X96565990Y-61663411D01*
X96677932Y-61393158D01*
X96735000Y-61106260D01*
X96735000Y-60813740D01*
X96677932Y-60526842D01*
X96565990Y-60256589D01*
X96403475Y-60013368D01*
X96196632Y-59806525D01*
X96020594Y-59688900D01*
X96250269Y-59517588D01*
X96445178Y-59301355D01*
X96594157Y-59051252D01*
X96691481Y-58776891D01*
X96570814Y-58547000D01*
X95377000Y-58547000D01*
X95377000Y-58567000D01*
X95123000Y-58567000D01*
X95123000Y-58547000D01*
X92837000Y-58547000D01*
X92837000Y-58567000D01*
X92583000Y-58567000D01*
X92583000Y-58547000D01*
X90297000Y-58547000D01*
X90297000Y-58567000D01*
X90043000Y-58567000D01*
X90043000Y-58547000D01*
X90023000Y-58547000D01*
X90023000Y-58293000D01*
X90043000Y-58293000D01*
X90043000Y-57099845D01*
X90297000Y-57099845D01*
X90297000Y-58293000D01*
X92583000Y-58293000D01*
X92583000Y-57099845D01*
X92837000Y-57099845D01*
X92837000Y-58293000D01*
X95123000Y-58293000D01*
X95123000Y-57099845D01*
X95377000Y-57099845D01*
X95377000Y-58293000D01*
X96570814Y-58293000D01*
X96691481Y-58063109D01*
X96594157Y-57788748D01*
X96445178Y-57538645D01*
X96250269Y-57322412D01*
X96016920Y-57148359D01*
X95754099Y-57023175D01*
X95606890Y-56978524D01*
X95377000Y-57099845D01*
X95123000Y-57099845D01*
X94893110Y-56978524D01*
X94745901Y-57023175D01*
X94483080Y-57148359D01*
X94249731Y-57322412D01*
X94054822Y-57538645D01*
X93980000Y-57664255D01*
X93905178Y-57538645D01*
X93710269Y-57322412D01*
X93476920Y-57148359D01*
X93214099Y-57023175D01*
X93066890Y-56978524D01*
X92837000Y-57099845D01*
X92583000Y-57099845D01*
X92353110Y-56978524D01*
X92205901Y-57023175D01*
X91943080Y-57148359D01*
X91709731Y-57322412D01*
X91514822Y-57538645D01*
X91440000Y-57664255D01*
X91365178Y-57538645D01*
X91170269Y-57322412D01*
X90936920Y-57148359D01*
X90674099Y-57023175D01*
X90526890Y-56978524D01*
X90297000Y-57099845D01*
X90043000Y-57099845D01*
X89813110Y-56978524D01*
X89665901Y-57023175D01*
X89403080Y-57148359D01*
X89169731Y-57322412D01*
X88974822Y-57538645D01*
X88925000Y-57622285D01*
X88925000Y-49607295D01*
X88965506Y-49640537D01*
X89075820Y-49699502D01*
X89195518Y-49735812D01*
X89320000Y-49748072D01*
X89884250Y-49745000D01*
X90043000Y-49586250D01*
X90043000Y-48387000D01*
X90023000Y-48387000D01*
X90023000Y-48133000D01*
X90043000Y-48133000D01*
X90043000Y-46933750D01*
X89884250Y-46775000D01*
X89320000Y-46771928D01*
X89195518Y-46784188D01*
X89075820Y-46820498D01*
X88965506Y-46879463D01*
X88925000Y-46912705D01*
X88925000Y-40717295D01*
X88965506Y-40750537D01*
X89075820Y-40809502D01*
X89195518Y-40845812D01*
X89320000Y-40858072D01*
X91020000Y-40858072D01*
X91144482Y-40845812D01*
X91264180Y-40809502D01*
X91374494Y-40750537D01*
X91471185Y-40671185D01*
X91550537Y-40574494D01*
X91609502Y-40464180D01*
X91631513Y-40391620D01*
X91763368Y-40523475D01*
G37*
X91763368Y-40523475D02*
X91950000Y-40648179D01*
X91950000Y-41672677D01*
X91946324Y-41710000D01*
X91950000Y-41747322D01*
X91950000Y-41747332D01*
X91960997Y-41858985D01*
X91996343Y-41975506D01*
X92004454Y-42002246D01*
X92075026Y-42134276D01*
X92088749Y-42150997D01*
X92169999Y-42250001D01*
X92199003Y-42273804D01*
X98666205Y-48741008D01*
X98689999Y-48770001D01*
X98718992Y-48793795D01*
X98718996Y-48793799D01*
X98727386Y-48800684D01*
X98805724Y-48864974D01*
X98937753Y-48935546D01*
X99081014Y-48979003D01*
X99192667Y-48990000D01*
X99192676Y-48990000D01*
X99229999Y-48993676D01*
X99267322Y-48990000D01*
X102056197Y-48990000D01*
X104614944Y-51548748D01*
X104473975Y-51505986D01*
X104362322Y-51494989D01*
X104362311Y-51494989D01*
X104324989Y-51491313D01*
X104287667Y-51494989D01*
X97019791Y-51494989D01*
X95269802Y-49745000D01*
X95396260Y-49745000D01*
X95683158Y-49687932D01*
X95953411Y-49575990D01*
X96196632Y-49413475D01*
X96403475Y-49206632D01*
X96565990Y-48963411D01*
X96677932Y-48693158D01*
X96735000Y-48406260D01*
X96735000Y-48113740D01*
X96677932Y-47826842D01*
X96565990Y-47556589D01*
X96403475Y-47313368D01*
X96196632Y-47106525D01*
X95953411Y-46944010D01*
X95683158Y-46832068D01*
X95396260Y-46775000D01*
X95103740Y-46775000D01*
X94816842Y-46832068D01*
X94546589Y-46944010D01*
X94303368Y-47106525D01*
X94096525Y-47313368D01*
X93980000Y-47487760D01*
X93863475Y-47313368D01*
X93656632Y-47106525D01*
X93413411Y-46944010D01*
X93143158Y-46832068D01*
X92856260Y-46775000D01*
X92563740Y-46775000D01*
X92276842Y-46832068D01*
X92006589Y-46944010D01*
X91763368Y-47106525D01*
X91631513Y-47238380D01*
X91609502Y-47165820D01*
X91550537Y-47055506D01*
X91471185Y-46958815D01*
X91374494Y-46879463D01*
X91264180Y-46820498D01*
X91144482Y-46784188D01*
X91020000Y-46771928D01*
X90455750Y-46775000D01*
X90297000Y-46933750D01*
X90297000Y-48133000D01*
X90317000Y-48133000D01*
X90317000Y-48387000D01*
X90297000Y-48387000D01*
X90297000Y-49586250D01*
X90455750Y-49745000D01*
X91020000Y-49748072D01*
X91144482Y-49735812D01*
X91264180Y-49699502D01*
X91374494Y-49640537D01*
X91471185Y-49561185D01*
X91550537Y-49464494D01*
X91609502Y-49354180D01*
X91631513Y-49281620D01*
X91763368Y-49413475D01*
X92006589Y-49575990D01*
X92276842Y-49687932D01*
X92563740Y-49745000D01*
X92856260Y-49745000D01*
X93076408Y-49701209D01*
X96141189Y-52765991D01*
X96164988Y-52794990D01*
X96193986Y-52818788D01*
X96280713Y-52889963D01*
X96412742Y-52960535D01*
X96556003Y-53003992D01*
X96704989Y-53018666D01*
X96742322Y-53014989D01*
X104010188Y-53014989D01*
X105010000Y-54014802D01*
X105010000Y-54076939D01*
X105049229Y-54274160D01*
X104919744Y-54327795D01*
X104750226Y-54441063D01*
X104606063Y-54585226D01*
X104492795Y-54754744D01*
X104414774Y-54943102D01*
X104375000Y-55143061D01*
X104375000Y-55346939D01*
X104414774Y-55546898D01*
X104492795Y-55735256D01*
X104606063Y-55904774D01*
X104750226Y-56048937D01*
X104919744Y-56162205D01*
X105108102Y-56240226D01*
X105308061Y-56280000D01*
X105511939Y-56280000D01*
X105711898Y-56240226D01*
X105900256Y-56162205D01*
X106069774Y-56048937D01*
X106124724Y-55993987D01*
X106267932Y-55950546D01*
X106399961Y-55879974D01*
X106515686Y-55785001D01*
X106539488Y-55755998D01*
X107341004Y-54954483D01*
X107370001Y-54930686D01*
X107464974Y-54814961D01*
X107535546Y-54682932D01*
X107579003Y-54539671D01*
X107590000Y-54428018D01*
X107590000Y-54428008D01*
X107593676Y-54390685D01*
X107590000Y-54353362D01*
X107590000Y-52726324D01*
X107593676Y-52689001D01*
X107590000Y-52651678D01*
X107590000Y-52651669D01*
X107579003Y-52540016D01*
X107535546Y-52396755D01*
X107534316Y-52394454D01*
X107464974Y-52264725D01*
X107393799Y-52177999D01*
X107370001Y-52149001D01*
X107341003Y-52125203D01*
X102965799Y-47750000D01*
X105283897Y-47750000D01*
X105252068Y-47826842D01*
X105195000Y-48113740D01*
X105195000Y-48406260D01*
X105252068Y-48693158D01*
X105364010Y-48963411D01*
X105526525Y-49206632D01*
X105733368Y-49413475D01*
X105976589Y-49575990D01*
X106246842Y-49687932D01*
X106533740Y-49745000D01*
X106826260Y-49745000D01*
X107113158Y-49687932D01*
X107383411Y-49575990D01*
X107626632Y-49413475D01*
X107833475Y-49206632D01*
X107950000Y-49032240D01*
X108066525Y-49206632D01*
X108273368Y-49413475D01*
X108460001Y-49538179D01*
X108460000Y-52782677D01*
X108456324Y-52820000D01*
X108460000Y-52857322D01*
X108460000Y-52857332D01*
X108470997Y-52968985D01*
X108499903Y-53064276D01*
X108514454Y-53112246D01*
X108585026Y-53244276D01*
X108624871Y-53292826D01*
X108679999Y-53360001D01*
X108709003Y-53383804D01*
X112175002Y-56849804D01*
X112175002Y-56988457D01*
X111906260Y-56935000D01*
X111613740Y-56935000D01*
X111326842Y-56992068D01*
X111056589Y-57104010D01*
X110813368Y-57266525D01*
X110606525Y-57473368D01*
X110490000Y-57647760D01*
X110373475Y-57473368D01*
X110166632Y-57266525D01*
X109923411Y-57104010D01*
X109653158Y-56992068D01*
X109366260Y-56935000D01*
X109073740Y-56935000D01*
X108786842Y-56992068D01*
X108516589Y-57104010D01*
X108273368Y-57266525D01*
X108066525Y-57473368D01*
X107950000Y-57647760D01*
X107833475Y-57473368D01*
X107626632Y-57266525D01*
X107383411Y-57104010D01*
X107113158Y-56992068D01*
X106826260Y-56935000D01*
X106533740Y-56935000D01*
X106246842Y-56992068D01*
X105976589Y-57104010D01*
X105733368Y-57266525D01*
X105526525Y-57473368D01*
X105364010Y-57716589D01*
X105252068Y-57986842D01*
X105195000Y-58273740D01*
X105195000Y-58566260D01*
X105252068Y-58853158D01*
X105364010Y-59123411D01*
X105526525Y-59366632D01*
X105733368Y-59573475D01*
X105976589Y-59735990D01*
X106246842Y-59847932D01*
X106533740Y-59905000D01*
X106826260Y-59905000D01*
X107113158Y-59847932D01*
X107383411Y-59735990D01*
X107626632Y-59573475D01*
X107833475Y-59366632D01*
X107950000Y-59192240D01*
X108066525Y-59366632D01*
X108273368Y-59573475D01*
X108516589Y-59735990D01*
X108786842Y-59847932D01*
X109073740Y-59905000D01*
X109366260Y-59905000D01*
X109653158Y-59847932D01*
X109923411Y-59735990D01*
X110166632Y-59573475D01*
X110373475Y-59366632D01*
X110490000Y-59192240D01*
X110606525Y-59366632D01*
X110813368Y-59573475D01*
X111056589Y-59735990D01*
X111326842Y-59847932D01*
X111613740Y-59905000D01*
X111906260Y-59905000D01*
X112175002Y-59851544D01*
X112175001Y-62068456D01*
X111906260Y-62015000D01*
X111613740Y-62015000D01*
X111326842Y-62072068D01*
X111056589Y-62184010D01*
X110813368Y-62346525D01*
X110606525Y-62553368D01*
X110490000Y-62727760D01*
X110373475Y-62553368D01*
X110166632Y-62346525D01*
X109923411Y-62184010D01*
X109653158Y-62072068D01*
X109366260Y-62015000D01*
X109073740Y-62015000D01*
X108786842Y-62072068D01*
X108516589Y-62184010D01*
X108273368Y-62346525D01*
X108066525Y-62553368D01*
X107944805Y-62735534D01*
X107875178Y-62618645D01*
X107680269Y-62402412D01*
X107446920Y-62228359D01*
X107184099Y-62103175D01*
X107036890Y-62058524D01*
X106807000Y-62179845D01*
X106807000Y-63373000D01*
X106827000Y-63373000D01*
X106827000Y-63627000D01*
X106807000Y-63627000D01*
X106807000Y-64820155D01*
X107036890Y-64941476D01*
X107184099Y-64896825D01*
X107446920Y-64771641D01*
X107680269Y-64597588D01*
X107875178Y-64381355D01*
X107944805Y-64264466D01*
X108066525Y-64446632D01*
X108273368Y-64653475D01*
X108516589Y-64815990D01*
X108786842Y-64927932D01*
X109073740Y-64985000D01*
X109366260Y-64985000D01*
X109653158Y-64927932D01*
X109923411Y-64815990D01*
X110166632Y-64653475D01*
X110373475Y-64446632D01*
X110490000Y-64272240D01*
X110606525Y-64446632D01*
X110813368Y-64653475D01*
X111056589Y-64815990D01*
X111326842Y-64927932D01*
X111613740Y-64985000D01*
X111906260Y-64985000D01*
X112183619Y-64929829D01*
X112185998Y-64953986D01*
X112211871Y-65039278D01*
X112229455Y-65097247D01*
X112300027Y-65229277D01*
X112317014Y-65249975D01*
X112395000Y-65345002D01*
X112424004Y-65368805D01*
X114172998Y-67117800D01*
X114172998Y-67259844D01*
X113943110Y-67138524D01*
X113795901Y-67183175D01*
X113533080Y-67308359D01*
X113299731Y-67482412D01*
X113104822Y-67698645D01*
X112955843Y-67948748D01*
X112858519Y-68223109D01*
X112979186Y-68453000D01*
X114173000Y-68453000D01*
X114173000Y-68433000D01*
X114427000Y-68433000D01*
X114427000Y-68453000D01*
X114447000Y-68453000D01*
X114447000Y-68707000D01*
X114427000Y-68707000D01*
X114427000Y-69900155D01*
X114656890Y-70021476D01*
X114804099Y-69976825D01*
X114860000Y-69950199D01*
X114860000Y-70057409D01*
X114856324Y-70094732D01*
X114860000Y-70132054D01*
X114860000Y-70132064D01*
X114870997Y-70243717D01*
X114910513Y-70373986D01*
X114914454Y-70386978D01*
X114985026Y-70519008D01*
X115005834Y-70544362D01*
X115079999Y-70634733D01*
X115109003Y-70658536D01*
X117442752Y-72992286D01*
X117466550Y-73021284D01*
X117582275Y-73116257D01*
X117714304Y-73186829D01*
X117857565Y-73230286D01*
X117969218Y-73241283D01*
X117969226Y-73241283D01*
X118006551Y-73244959D01*
X118043876Y-73241283D01*
X118490067Y-73241283D01*
X118531063Y-73340255D01*
X118644331Y-73509773D01*
X118788494Y-73653936D01*
X118958012Y-73767204D01*
X119146370Y-73845225D01*
X119346329Y-73884999D01*
X119550207Y-73884999D01*
X119750166Y-73845225D01*
X119938524Y-73767204D01*
X120108042Y-73653936D01*
X120189274Y-73572704D01*
X123678903Y-73572704D01*
X129902000Y-79795802D01*
X129902000Y-79857939D01*
X129941774Y-80057898D01*
X130019795Y-80246256D01*
X130133063Y-80415774D01*
X130277226Y-80559937D01*
X130446744Y-80673205D01*
X130635102Y-80751226D01*
X130835061Y-80791000D01*
X131038939Y-80791000D01*
X131238898Y-80751226D01*
X131427256Y-80673205D01*
X131596774Y-80559937D01*
X131740937Y-80415774D01*
X131854205Y-80246256D01*
X131897919Y-80140721D01*
X132569000Y-80811802D01*
X132569000Y-80873939D01*
X132608774Y-81073898D01*
X132686795Y-81262256D01*
X132698651Y-81280000D01*
X127780052Y-81280000D01*
X123427915Y-76927865D01*
X123027916Y-76527866D01*
X122882987Y-76408926D01*
X122662359Y-76290998D01*
X122422963Y-76218377D01*
X122174000Y-76193857D01*
X121925037Y-76218377D01*
X121685641Y-76290998D01*
X121465013Y-76408926D01*
X121271630Y-76567630D01*
X121112926Y-76761013D01*
X120994998Y-76981641D01*
X120922377Y-77221037D01*
X120897857Y-77470000D01*
X120922377Y-77718963D01*
X120994998Y-77958359D01*
X121112926Y-78178987D01*
X121231866Y-78323916D01*
X121631865Y-78723915D01*
X124367949Y-81460000D01*
X112654801Y-81460000D01*
X113069802Y-81045000D01*
X113131939Y-81045000D01*
X113331898Y-81005226D01*
X113520256Y-80927205D01*
X113689774Y-80813937D01*
X113833937Y-80669774D01*
X113947205Y-80500256D01*
X114025226Y-80311898D01*
X114065000Y-80111939D01*
X114065000Y-79908061D01*
X114025226Y-79708102D01*
X113947205Y-79519744D01*
X113833937Y-79350226D01*
X113689774Y-79206063D01*
X113520256Y-79092795D01*
X113331898Y-79014774D01*
X113131939Y-78975000D01*
X112928061Y-78975000D01*
X112728102Y-79014774D01*
X112539744Y-79092795D01*
X112370226Y-79206063D01*
X112226063Y-79350226D01*
X112112795Y-79519744D01*
X112034774Y-79708102D01*
X111995000Y-79908061D01*
X111995000Y-79970198D01*
X111445211Y-80519988D01*
X111394021Y-80519988D01*
X111407205Y-80500256D01*
X111485226Y-80311898D01*
X111525000Y-80111939D01*
X111525000Y-79908061D01*
X111485226Y-79708102D01*
X111407205Y-79519744D01*
X111293937Y-79350226D01*
X111149774Y-79206063D01*
X110980256Y-79092795D01*
X110791898Y-79014774D01*
X110591939Y-78975000D01*
X110388061Y-78975000D01*
X110188102Y-79014774D01*
X109999744Y-79092795D01*
X109830226Y-79206063D01*
X109786289Y-79250000D01*
X106314013Y-79250000D01*
X106327205Y-79230256D01*
X106405226Y-79041898D01*
X106445000Y-78841939D01*
X106445000Y-78779801D01*
X108899802Y-76325000D01*
X109786289Y-76325000D01*
X109830226Y-76368937D01*
X109999744Y-76482205D01*
X110188102Y-76560226D01*
X110388061Y-76600000D01*
X110591939Y-76600000D01*
X110791898Y-76560226D01*
X110980256Y-76482205D01*
X111149774Y-76368937D01*
X111293937Y-76224774D01*
X111407205Y-76055256D01*
X111485226Y-75866898D01*
X111525000Y-75666939D01*
X111525000Y-75563000D01*
X114866289Y-75563000D01*
X114910226Y-75606937D01*
X115079744Y-75720205D01*
X115268102Y-75798226D01*
X115468061Y-75838000D01*
X115671939Y-75838000D01*
X115871898Y-75798226D01*
X116060256Y-75720205D01*
X116229774Y-75606937D01*
X116373937Y-75462774D01*
X116445248Y-75356050D01*
X116950002Y-75860804D01*
X116950001Y-79699678D01*
X116946325Y-79737001D01*
X116950001Y-79774323D01*
X116950001Y-79774333D01*
X116960998Y-79885986D01*
X116991948Y-79988015D01*
X117004455Y-80029247D01*
X117075000Y-80161226D01*
X117075000Y-80238939D01*
X117114774Y-80438898D01*
X117192795Y-80627256D01*
X117306063Y-80796774D01*
X117450226Y-80940937D01*
X117619744Y-81054205D01*
X117808102Y-81132226D01*
X118008061Y-81172000D01*
X118211939Y-81172000D01*
X118411898Y-81132226D01*
X118600256Y-81054205D01*
X118769774Y-80940937D01*
X118913937Y-80796774D01*
X119027205Y-80627256D01*
X119105226Y-80438898D01*
X119145000Y-80238939D01*
X119145000Y-80035061D01*
X119105226Y-79835102D01*
X119076182Y-79764983D01*
X119361000Y-80049802D01*
X119361000Y-80111939D01*
X119400774Y-80311898D01*
X119478795Y-80500256D01*
X119592063Y-80669774D01*
X119736226Y-80813937D01*
X119905744Y-80927205D01*
X120094102Y-81005226D01*
X120294061Y-81045000D01*
X120497939Y-81045000D01*
X120697898Y-81005226D01*
X120886256Y-80927205D01*
X121055774Y-80813937D01*
X121199937Y-80669774D01*
X121313205Y-80500256D01*
X121391226Y-80311898D01*
X121431000Y-80111939D01*
X121431000Y-79908061D01*
X121391226Y-79708102D01*
X121313205Y-79519744D01*
X121199937Y-79350226D01*
X121055774Y-79206063D01*
X120886256Y-79092795D01*
X120697898Y-79014774D01*
X120497939Y-78975000D01*
X120435802Y-78975000D01*
X119124000Y-77663199D01*
X119124000Y-75475325D01*
X119127676Y-75438000D01*
X119124000Y-75400675D01*
X119124000Y-75400667D01*
X119113003Y-75289014D01*
X119069546Y-75145753D01*
X118998974Y-75013724D01*
X118904001Y-74897999D01*
X118875003Y-74874201D01*
X113994930Y-69994129D01*
X114173000Y-69900155D01*
X114173000Y-68707000D01*
X112979186Y-68707000D01*
X112858519Y-68936891D01*
X112955843Y-69211252D01*
X113104822Y-69461355D01*
X113299731Y-69677588D01*
X113363295Y-69725000D01*
X107352322Y-69725000D01*
X107314999Y-69721324D01*
X107277676Y-69725000D01*
X107277667Y-69725000D01*
X107166014Y-69735997D01*
X107022753Y-69779454D01*
X106890723Y-69850026D01*
X106807083Y-69918668D01*
X106774999Y-69944999D01*
X106751201Y-69973997D01*
X103825199Y-72900000D01*
X99068178Y-72900000D01*
X98943475Y-72713368D01*
X98736632Y-72506525D01*
X98560594Y-72388900D01*
X98790269Y-72217588D01*
X98985178Y-72001355D01*
X99134157Y-71751252D01*
X99231481Y-71476891D01*
X99110814Y-71247000D01*
X97917000Y-71247000D01*
X97917000Y-71267000D01*
X97663000Y-71267000D01*
X97663000Y-71247000D01*
X95377000Y-71247000D01*
X95377000Y-71267000D01*
X95123000Y-71267000D01*
X95123000Y-71247000D01*
X92837000Y-71247000D01*
X92837000Y-71267000D01*
X92583000Y-71267000D01*
X92583000Y-71247000D01*
X90297000Y-71247000D01*
X90297000Y-71267000D01*
X90043000Y-71267000D01*
X90043000Y-71247000D01*
X90023000Y-71247000D01*
X90023000Y-70993000D01*
X90043000Y-70993000D01*
X90043000Y-69799845D01*
X90297000Y-69799845D01*
X90297000Y-70993000D01*
X92583000Y-70993000D01*
X92583000Y-69799845D01*
X92837000Y-69799845D01*
X92837000Y-70993000D01*
X95123000Y-70993000D01*
X95123000Y-69799845D01*
X95377000Y-69799845D01*
X95377000Y-70993000D01*
X97663000Y-70993000D01*
X97663000Y-69799845D01*
X97917000Y-69799845D01*
X97917000Y-70993000D01*
X99110814Y-70993000D01*
X99231481Y-70763109D01*
X99134157Y-70488748D01*
X98985178Y-70238645D01*
X98790269Y-70022412D01*
X98556920Y-69848359D01*
X98294099Y-69723175D01*
X98146890Y-69678524D01*
X97917000Y-69799845D01*
X97663000Y-69799845D01*
X97433110Y-69678524D01*
X97285901Y-69723175D01*
X97023080Y-69848359D01*
X96789731Y-70022412D01*
X96594822Y-70238645D01*
X96520000Y-70364255D01*
X96445178Y-70238645D01*
X96250269Y-70022412D01*
X96016920Y-69848359D01*
X95754099Y-69723175D01*
X95606890Y-69678524D01*
X95377000Y-69799845D01*
X95123000Y-69799845D01*
X94893110Y-69678524D01*
X94745901Y-69723175D01*
X94483080Y-69848359D01*
X94249731Y-70022412D01*
X94054822Y-70238645D01*
X93980000Y-70364255D01*
X93905178Y-70238645D01*
X93710269Y-70022412D01*
X93476920Y-69848359D01*
X93214099Y-69723175D01*
X93066890Y-69678524D01*
X92837000Y-69799845D01*
X92583000Y-69799845D01*
X92353110Y-69678524D01*
X92205901Y-69723175D01*
X91943080Y-69848359D01*
X91709731Y-70022412D01*
X91514822Y-70238645D01*
X91440000Y-70364255D01*
X91365178Y-70238645D01*
X91170269Y-70022412D01*
X90936920Y-69848359D01*
X90674099Y-69723175D01*
X90526890Y-69678524D01*
X90297000Y-69799845D01*
X90043000Y-69799845D01*
X89813110Y-69678524D01*
X89665901Y-69723175D01*
X89403080Y-69848359D01*
X89169731Y-70022412D01*
X88974822Y-70238645D01*
X88925000Y-70322285D01*
X88925000Y-63856891D01*
X105238519Y-63856891D01*
X105335843Y-64131252D01*
X105484822Y-64381355D01*
X105679731Y-64597588D01*
X105913080Y-64771641D01*
X106175901Y-64896825D01*
X106323110Y-64941476D01*
X106553000Y-64820155D01*
X106553000Y-63627000D01*
X105359186Y-63627000D01*
X105238519Y-63856891D01*
X88925000Y-63856891D01*
X88925000Y-63143109D01*
X105238519Y-63143109D01*
X105359186Y-63373000D01*
X106553000Y-63373000D01*
X106553000Y-62179845D01*
X106323110Y-62058524D01*
X106175901Y-62103175D01*
X105913080Y-62228359D01*
X105679731Y-62402412D01*
X105484822Y-62618645D01*
X105335843Y-62868748D01*
X105238519Y-63143109D01*
X88925000Y-63143109D01*
X88925000Y-62307295D01*
X88965506Y-62340537D01*
X89075820Y-62399502D01*
X89195518Y-62435812D01*
X89320000Y-62448072D01*
X91020000Y-62448072D01*
X91144482Y-62435812D01*
X91264180Y-62399502D01*
X91374494Y-62340537D01*
X91471185Y-62261185D01*
X91550537Y-62164494D01*
X91609502Y-62054180D01*
X91631513Y-61981620D01*
X91763368Y-62113475D01*
X92006589Y-62275990D01*
X92276842Y-62387932D01*
X92563740Y-62445000D01*
X92856260Y-62445000D01*
X93143158Y-62387932D01*
X93413411Y-62275990D01*
X93656632Y-62113475D01*
X93863475Y-61906632D01*
X93980000Y-61732240D01*
X94096525Y-61906632D01*
X94303368Y-62113475D01*
X94546589Y-62275990D01*
X94816842Y-62387932D01*
X95103740Y-62445000D01*
X95396260Y-62445000D01*
X95683158Y-62387932D01*
X95953411Y-62275990D01*
X96196632Y-62113475D01*
X96403475Y-61906632D01*
X96565990Y-61663411D01*
X96677932Y-61393158D01*
X96735000Y-61106260D01*
X96735000Y-60813740D01*
X96677932Y-60526842D01*
X96565990Y-60256589D01*
X96403475Y-60013368D01*
X96196632Y-59806525D01*
X96020594Y-59688900D01*
X96250269Y-59517588D01*
X96445178Y-59301355D01*
X96594157Y-59051252D01*
X96691481Y-58776891D01*
X96570814Y-58547000D01*
X95377000Y-58547000D01*
X95377000Y-58567000D01*
X95123000Y-58567000D01*
X95123000Y-58547000D01*
X92837000Y-58547000D01*
X92837000Y-58567000D01*
X92583000Y-58567000D01*
X92583000Y-58547000D01*
X90297000Y-58547000D01*
X90297000Y-58567000D01*
X90043000Y-58567000D01*
X90043000Y-58547000D01*
X90023000Y-58547000D01*
X90023000Y-58293000D01*
X90043000Y-58293000D01*
X90043000Y-57099845D01*
X90297000Y-57099845D01*
X90297000Y-58293000D01*
X92583000Y-58293000D01*
X92583000Y-57099845D01*
X92837000Y-57099845D01*
X92837000Y-58293000D01*
X95123000Y-58293000D01*
X95123000Y-57099845D01*
X95377000Y-57099845D01*
X95377000Y-58293000D01*
X96570814Y-58293000D01*
X96691481Y-58063109D01*
X96594157Y-57788748D01*
X96445178Y-57538645D01*
X96250269Y-57322412D01*
X96016920Y-57148359D01*
X95754099Y-57023175D01*
X95606890Y-56978524D01*
X95377000Y-57099845D01*
X95123000Y-57099845D01*
X94893110Y-56978524D01*
X94745901Y-57023175D01*
X94483080Y-57148359D01*
X94249731Y-57322412D01*
X94054822Y-57538645D01*
X93980000Y-57664255D01*
X93905178Y-57538645D01*
X93710269Y-57322412D01*
X93476920Y-57148359D01*
X93214099Y-57023175D01*
X93066890Y-56978524D01*
X92837000Y-57099845D01*
X92583000Y-57099845D01*
X92353110Y-56978524D01*
X92205901Y-57023175D01*
X91943080Y-57148359D01*
X91709731Y-57322412D01*
X91514822Y-57538645D01*
X91440000Y-57664255D01*
X91365178Y-57538645D01*
X91170269Y-57322412D01*
X90936920Y-57148359D01*
X90674099Y-57023175D01*
X90526890Y-56978524D01*
X90297000Y-57099845D01*
X90043000Y-57099845D01*
X89813110Y-56978524D01*
X89665901Y-57023175D01*
X89403080Y-57148359D01*
X89169731Y-57322412D01*
X88974822Y-57538645D01*
X88925000Y-57622285D01*
X88925000Y-49607295D01*
X88965506Y-49640537D01*
X89075820Y-49699502D01*
X89195518Y-49735812D01*
X89320000Y-49748072D01*
X89884250Y-49745000D01*
X90043000Y-49586250D01*
X90043000Y-48387000D01*
X90023000Y-48387000D01*
X90023000Y-48133000D01*
X90043000Y-48133000D01*
X90043000Y-46933750D01*
X89884250Y-46775000D01*
X89320000Y-46771928D01*
X89195518Y-46784188D01*
X89075820Y-46820498D01*
X88965506Y-46879463D01*
X88925000Y-46912705D01*
X88925000Y-40717295D01*
X88965506Y-40750537D01*
X89075820Y-40809502D01*
X89195518Y-40845812D01*
X89320000Y-40858072D01*
X91020000Y-40858072D01*
X91144482Y-40845812D01*
X91264180Y-40809502D01*
X91374494Y-40750537D01*
X91471185Y-40671185D01*
X91550537Y-40574494D01*
X91609502Y-40464180D01*
X91631513Y-40391620D01*
X91763368Y-40523475D01*
G36*
X156454979Y-63041781D02*
G01*
X156454978Y-70562220D01*
X148365200Y-78651999D01*
X144145323Y-78651999D01*
X144108000Y-78648323D01*
X144070677Y-78651999D01*
X144070668Y-78651999D01*
X143959015Y-78662996D01*
X143815754Y-78706453D01*
X143683725Y-78777025D01*
X143568000Y-78871998D01*
X143544202Y-78900997D01*
X143343198Y-79102000D01*
X143281061Y-79102000D01*
X143081102Y-79141774D01*
X142892744Y-79219795D01*
X142723226Y-79333063D01*
X142579063Y-79477226D01*
X142465795Y-79646744D01*
X142387774Y-79835102D01*
X142348000Y-80035061D01*
X142348000Y-80238939D01*
X142387774Y-80438898D01*
X142465795Y-80627256D01*
X142579063Y-80796774D01*
X142723226Y-80940937D01*
X142892744Y-81054205D01*
X143081102Y-81132226D01*
X143281061Y-81172000D01*
X143484939Y-81172000D01*
X143684898Y-81132226D01*
X143873256Y-81054205D01*
X144042774Y-80940937D01*
X144186937Y-80796774D01*
X144300205Y-80627256D01*
X144378226Y-80438898D01*
X144418000Y-80238939D01*
X144418000Y-80176802D01*
X144422803Y-80171999D01*
X145206124Y-80171999D01*
X145132795Y-80281744D01*
X145054774Y-80470102D01*
X145015000Y-80670061D01*
X145015000Y-80873939D01*
X145054774Y-81073898D01*
X145132795Y-81262256D01*
X145144651Y-81280000D01*
X134509349Y-81280000D01*
X134521205Y-81262256D01*
X134599226Y-81073898D01*
X134639000Y-80873939D01*
X134639000Y-80670061D01*
X134599226Y-80470102D01*
X134521205Y-80281744D01*
X134407937Y-80112226D01*
X134263774Y-79968063D01*
X134094256Y-79854795D01*
X133905898Y-79776774D01*
X133705939Y-79737000D01*
X133643802Y-79737000D01*
X126023084Y-72116283D01*
X128191482Y-72116283D01*
X130029000Y-73953802D01*
X130029000Y-74015939D01*
X130068774Y-74215898D01*
X130146795Y-74404256D01*
X130260063Y-74573774D01*
X130404226Y-74717937D01*
X130573744Y-74831205D01*
X130762102Y-74909226D01*
X130962061Y-74949000D01*
X131165939Y-74949000D01*
X131365898Y-74909226D01*
X131554256Y-74831205D01*
X131723774Y-74717937D01*
X131867937Y-74573774D01*
X131981205Y-74404256D01*
X131989479Y-74384281D01*
X132030201Y-74425003D01*
X132053999Y-74454001D01*
X132169724Y-74548974D01*
X132301753Y-74619546D01*
X132445014Y-74663003D01*
X132556667Y-74674000D01*
X132556675Y-74674000D01*
X132594000Y-74677676D01*
X132631325Y-74674000D01*
X132900289Y-74674000D01*
X132944226Y-74717937D01*
X133113744Y-74831205D01*
X133302102Y-74909226D01*
X133502061Y-74949000D01*
X133705939Y-74949000D01*
X133905898Y-74909226D01*
X134094256Y-74831205D01*
X134263774Y-74717937D01*
X134407937Y-74573774D01*
X134521205Y-74404256D01*
X134599226Y-74215898D01*
X134639000Y-74015939D01*
X134639000Y-73812061D01*
X134599226Y-73612102D01*
X134521205Y-73423744D01*
X134407937Y-73254226D01*
X134263774Y-73110063D01*
X134094256Y-72996795D01*
X133905898Y-72918774D01*
X133705939Y-72879000D01*
X133502061Y-72879000D01*
X133302102Y-72918774D01*
X133113744Y-72996795D01*
X132944226Y-73110063D01*
X132904545Y-73149744D01*
X129797645Y-70042844D01*
X129973158Y-70007932D01*
X130243411Y-69895990D01*
X130486632Y-69733475D01*
X130693475Y-69526632D01*
X130810000Y-69352240D01*
X130926525Y-69526632D01*
X131133368Y-69733475D01*
X131376589Y-69895990D01*
X131646842Y-70007932D01*
X131933740Y-70065000D01*
X132226260Y-70065000D01*
X132513158Y-70007932D01*
X132783411Y-69895990D01*
X133026632Y-69733475D01*
X133233475Y-69526632D01*
X133350000Y-69352240D01*
X133466525Y-69526632D01*
X133673368Y-69733475D01*
X133916589Y-69895990D01*
X134186842Y-70007932D01*
X134473740Y-70065000D01*
X134766260Y-70065000D01*
X135053158Y-70007932D01*
X135323411Y-69895990D01*
X135566632Y-69733475D01*
X135773475Y-69526632D01*
X135890000Y-69352240D01*
X136006525Y-69526632D01*
X136213368Y-69733475D01*
X136456589Y-69895990D01*
X136726842Y-70007932D01*
X137013740Y-70065000D01*
X137306260Y-70065000D01*
X137593158Y-70007932D01*
X137863411Y-69895990D01*
X138106632Y-69733475D01*
X138313475Y-69526632D01*
X138430000Y-69352240D01*
X138546525Y-69526632D01*
X138753368Y-69733475D01*
X138996589Y-69895990D01*
X139266842Y-70007932D01*
X139553740Y-70065000D01*
X139846260Y-70065000D01*
X140133158Y-70007932D01*
X140259668Y-69955530D01*
X138172998Y-72042201D01*
X138144000Y-72065999D01*
X138120202Y-72094997D01*
X138120201Y-72094998D01*
X138049026Y-72181724D01*
X137978454Y-72313754D01*
X137957050Y-72384316D01*
X137934998Y-72457014D01*
X137928749Y-72520457D01*
X137920324Y-72606000D01*
X137924001Y-72643332D01*
X137924000Y-78798289D01*
X137880063Y-78842226D01*
X137766795Y-79011744D01*
X137688774Y-79200102D01*
X137649000Y-79400061D01*
X137649000Y-79603939D01*
X137688774Y-79803898D01*
X137766795Y-79992256D01*
X137880063Y-80161774D01*
X138024226Y-80305937D01*
X138193744Y-80419205D01*
X138382102Y-80497226D01*
X138582061Y-80537000D01*
X138785939Y-80537000D01*
X138985898Y-80497226D01*
X139174256Y-80419205D01*
X139343774Y-80305937D01*
X139487937Y-80161774D01*
X139601205Y-79992256D01*
X139679226Y-79803898D01*
X139719000Y-79603939D01*
X139719000Y-79400061D01*
X139679226Y-79200102D01*
X139601205Y-79011744D01*
X139487937Y-78842226D01*
X139444000Y-78798289D01*
X139444000Y-72920801D01*
X141520000Y-70844802D01*
X141520001Y-73254290D01*
X141502774Y-73237063D01*
X141333256Y-73123795D01*
X141144898Y-73045774D01*
X140944939Y-73006000D01*
X140741061Y-73006000D01*
X140541102Y-73045774D01*
X140352744Y-73123795D01*
X140183226Y-73237063D01*
X140039063Y-73381226D01*
X139925795Y-73550744D01*
X139847774Y-73739102D01*
X139808000Y-73939061D01*
X139808000Y-74142939D01*
X139847774Y-74342898D01*
X139925795Y-74531256D01*
X140039063Y-74700774D01*
X140094014Y-74755725D01*
X140125479Y-74859454D01*
X140137454Y-74898931D01*
X140208026Y-75030961D01*
X140243958Y-75074744D01*
X140302999Y-75146686D01*
X140332003Y-75170489D01*
X142380516Y-77219003D01*
X142404314Y-77248001D01*
X142520039Y-77342974D01*
X142652068Y-77413546D01*
X142795329Y-77457003D01*
X142906982Y-77468000D01*
X142906991Y-77468000D01*
X142944314Y-77471676D01*
X142981637Y-77468000D01*
X147975363Y-77468000D01*
X148012685Y-77471676D01*
X148050007Y-77468000D01*
X148050018Y-77468000D01*
X148161671Y-77457003D01*
X148304932Y-77413546D01*
X148436961Y-77342974D01*
X148552686Y-77248001D01*
X148576489Y-77218997D01*
X155451003Y-70344484D01*
X155480001Y-70320686D01*
X155574974Y-70204961D01*
X155645546Y-70072932D01*
X155647020Y-70068072D01*
X155790000Y-70068072D01*
X155914482Y-70055812D01*
X156034180Y-70019502D01*
X156144494Y-69960537D01*
X156241185Y-69881185D01*
X156320537Y-69784494D01*
X156379502Y-69674180D01*
X156415812Y-69554482D01*
X156428072Y-69430000D01*
X156428072Y-67730000D01*
X156415812Y-67605518D01*
X156379502Y-67485820D01*
X156320537Y-67375506D01*
X156241185Y-67278815D01*
X156144494Y-67199463D01*
X156034180Y-67140498D01*
X155914482Y-67104188D01*
X155790000Y-67091928D01*
X154090000Y-67091928D01*
X153965518Y-67104188D01*
X153845820Y-67140498D01*
X153735506Y-67199463D01*
X153638815Y-67278815D01*
X153559463Y-67375506D01*
X153500498Y-67485820D01*
X153478487Y-67558380D01*
X153346632Y-67426525D01*
X153170000Y-67308503D01*
X153170000Y-64771497D01*
X153346632Y-64653475D01*
X153553475Y-64446632D01*
X153670000Y-64272240D01*
X153786525Y-64446632D01*
X153993368Y-64653475D01*
X154236589Y-64815990D01*
X154506842Y-64927932D01*
X154793740Y-64985000D01*
X155086260Y-64985000D01*
X155373158Y-64927932D01*
X155643411Y-64815990D01*
X155886632Y-64653475D01*
X156093475Y-64446632D01*
X156255990Y-64203411D01*
X156367932Y-63933158D01*
X156425000Y-63646260D01*
X156425000Y-63353740D01*
X156367932Y-63066842D01*
X156288660Y-62875462D01*
X156454979Y-63041781D01*
G37*
X156454979Y-63041781D02*
X156454978Y-70562220D01*
X148365200Y-78651999D01*
X144145323Y-78651999D01*
X144108000Y-78648323D01*
X144070677Y-78651999D01*
X144070668Y-78651999D01*
X143959015Y-78662996D01*
X143815754Y-78706453D01*
X143683725Y-78777025D01*
X143568000Y-78871998D01*
X143544202Y-78900997D01*
X143343198Y-79102000D01*
X143281061Y-79102000D01*
X143081102Y-79141774D01*
X142892744Y-79219795D01*
X142723226Y-79333063D01*
X142579063Y-79477226D01*
X142465795Y-79646744D01*
X142387774Y-79835102D01*
X142348000Y-80035061D01*
X142348000Y-80238939D01*
X142387774Y-80438898D01*
X142465795Y-80627256D01*
X142579063Y-80796774D01*
X142723226Y-80940937D01*
X142892744Y-81054205D01*
X143081102Y-81132226D01*
X143281061Y-81172000D01*
X143484939Y-81172000D01*
X143684898Y-81132226D01*
X143873256Y-81054205D01*
X144042774Y-80940937D01*
X144186937Y-80796774D01*
X144300205Y-80627256D01*
X144378226Y-80438898D01*
X144418000Y-80238939D01*
X144418000Y-80176802D01*
X144422803Y-80171999D01*
X145206124Y-80171999D01*
X145132795Y-80281744D01*
X145054774Y-80470102D01*
X145015000Y-80670061D01*
X145015000Y-80873939D01*
X145054774Y-81073898D01*
X145132795Y-81262256D01*
X145144651Y-81280000D01*
X134509349Y-81280000D01*
X134521205Y-81262256D01*
X134599226Y-81073898D01*
X134639000Y-80873939D01*
X134639000Y-80670061D01*
X134599226Y-80470102D01*
X134521205Y-80281744D01*
X134407937Y-80112226D01*
X134263774Y-79968063D01*
X134094256Y-79854795D01*
X133905898Y-79776774D01*
X133705939Y-79737000D01*
X133643802Y-79737000D01*
X126023084Y-72116283D01*
X128191482Y-72116283D01*
X130029000Y-73953802D01*
X130029000Y-74015939D01*
X130068774Y-74215898D01*
X130146795Y-74404256D01*
X130260063Y-74573774D01*
X130404226Y-74717937D01*
X130573744Y-74831205D01*
X130762102Y-74909226D01*
X130962061Y-74949000D01*
X131165939Y-74949000D01*
X131365898Y-74909226D01*
X131554256Y-74831205D01*
X131723774Y-74717937D01*
X131867937Y-74573774D01*
X131981205Y-74404256D01*
X131989479Y-74384281D01*
X132030201Y-74425003D01*
X132053999Y-74454001D01*
X132169724Y-74548974D01*
X132301753Y-74619546D01*
X132445014Y-74663003D01*
X132556667Y-74674000D01*
X132556675Y-74674000D01*
X132594000Y-74677676D01*
X132631325Y-74674000D01*
X132900289Y-74674000D01*
X132944226Y-74717937D01*
X133113744Y-74831205D01*
X133302102Y-74909226D01*
X133502061Y-74949000D01*
X133705939Y-74949000D01*
X133905898Y-74909226D01*
X134094256Y-74831205D01*
X134263774Y-74717937D01*
X134407937Y-74573774D01*
X134521205Y-74404256D01*
X134599226Y-74215898D01*
X134639000Y-74015939D01*
X134639000Y-73812061D01*
X134599226Y-73612102D01*
X134521205Y-73423744D01*
X134407937Y-73254226D01*
X134263774Y-73110063D01*
X134094256Y-72996795D01*
X133905898Y-72918774D01*
X133705939Y-72879000D01*
X133502061Y-72879000D01*
X133302102Y-72918774D01*
X133113744Y-72996795D01*
X132944226Y-73110063D01*
X132904545Y-73149744D01*
X129797645Y-70042844D01*
X129973158Y-70007932D01*
X130243411Y-69895990D01*
X130486632Y-69733475D01*
X130693475Y-69526632D01*
X130810000Y-69352240D01*
X130926525Y-69526632D01*
X131133368Y-69733475D01*
X131376589Y-69895990D01*
X131646842Y-70007932D01*
X131933740Y-70065000D01*
X132226260Y-70065000D01*
X132513158Y-70007932D01*
X132783411Y-69895990D01*
X133026632Y-69733475D01*
X133233475Y-69526632D01*
X133350000Y-69352240D01*
X133466525Y-69526632D01*
X133673368Y-69733475D01*
X133916589Y-69895990D01*
X134186842Y-70007932D01*
X134473740Y-70065000D01*
X134766260Y-70065000D01*
X135053158Y-70007932D01*
X135323411Y-69895990D01*
X135566632Y-69733475D01*
X135773475Y-69526632D01*
X135890000Y-69352240D01*
X136006525Y-69526632D01*
X136213368Y-69733475D01*
X136456589Y-69895990D01*
X136726842Y-70007932D01*
X137013740Y-70065000D01*
X137306260Y-70065000D01*
X137593158Y-70007932D01*
X137863411Y-69895990D01*
X138106632Y-69733475D01*
X138313475Y-69526632D01*
X138430000Y-69352240D01*
X138546525Y-69526632D01*
X138753368Y-69733475D01*
X138996589Y-69895990D01*
X139266842Y-70007932D01*
X139553740Y-70065000D01*
X139846260Y-70065000D01*
X140133158Y-70007932D01*
X140259668Y-69955530D01*
X138172998Y-72042201D01*
X138144000Y-72065999D01*
X138120202Y-72094997D01*
X138120201Y-72094998D01*
X138049026Y-72181724D01*
X137978454Y-72313754D01*
X137957050Y-72384316D01*
X137934998Y-72457014D01*
X137928749Y-72520457D01*
X137920324Y-72606000D01*
X137924001Y-72643332D01*
X137924000Y-78798289D01*
X137880063Y-78842226D01*
X137766795Y-79011744D01*
X137688774Y-79200102D01*
X137649000Y-79400061D01*
X137649000Y-79603939D01*
X137688774Y-79803898D01*
X137766795Y-79992256D01*
X137880063Y-80161774D01*
X138024226Y-80305937D01*
X138193744Y-80419205D01*
X138382102Y-80497226D01*
X138582061Y-80537000D01*
X138785939Y-80537000D01*
X138985898Y-80497226D01*
X139174256Y-80419205D01*
X139343774Y-80305937D01*
X139487937Y-80161774D01*
X139601205Y-79992256D01*
X139679226Y-79803898D01*
X139719000Y-79603939D01*
X139719000Y-79400061D01*
X139679226Y-79200102D01*
X139601205Y-79011744D01*
X139487937Y-78842226D01*
X139444000Y-78798289D01*
X139444000Y-72920801D01*
X141520000Y-70844802D01*
X141520001Y-73254290D01*
X141502774Y-73237063D01*
X141333256Y-73123795D01*
X141144898Y-73045774D01*
X140944939Y-73006000D01*
X140741061Y-73006000D01*
X140541102Y-73045774D01*
X140352744Y-73123795D01*
X140183226Y-73237063D01*
X140039063Y-73381226D01*
X139925795Y-73550744D01*
X139847774Y-73739102D01*
X139808000Y-73939061D01*
X139808000Y-74142939D01*
X139847774Y-74342898D01*
X139925795Y-74531256D01*
X140039063Y-74700774D01*
X140094014Y-74755725D01*
X140125479Y-74859454D01*
X140137454Y-74898931D01*
X140208026Y-75030961D01*
X140243958Y-75074744D01*
X140302999Y-75146686D01*
X140332003Y-75170489D01*
X142380516Y-77219003D01*
X142404314Y-77248001D01*
X142520039Y-77342974D01*
X142652068Y-77413546D01*
X142795329Y-77457003D01*
X142906982Y-77468000D01*
X142906991Y-77468000D01*
X142944314Y-77471676D01*
X142981637Y-77468000D01*
X147975363Y-77468000D01*
X148012685Y-77471676D01*
X148050007Y-77468000D01*
X148050018Y-77468000D01*
X148161671Y-77457003D01*
X148304932Y-77413546D01*
X148436961Y-77342974D01*
X148552686Y-77248001D01*
X148576489Y-77218997D01*
X155451003Y-70344484D01*
X155480001Y-70320686D01*
X155574974Y-70204961D01*
X155645546Y-70072932D01*
X155647020Y-70068072D01*
X155790000Y-70068072D01*
X155914482Y-70055812D01*
X156034180Y-70019502D01*
X156144494Y-69960537D01*
X156241185Y-69881185D01*
X156320537Y-69784494D01*
X156379502Y-69674180D01*
X156415812Y-69554482D01*
X156428072Y-69430000D01*
X156428072Y-67730000D01*
X156415812Y-67605518D01*
X156379502Y-67485820D01*
X156320537Y-67375506D01*
X156241185Y-67278815D01*
X156144494Y-67199463D01*
X156034180Y-67140498D01*
X155914482Y-67104188D01*
X155790000Y-67091928D01*
X154090000Y-67091928D01*
X153965518Y-67104188D01*
X153845820Y-67140498D01*
X153735506Y-67199463D01*
X153638815Y-67278815D01*
X153559463Y-67375506D01*
X153500498Y-67485820D01*
X153478487Y-67558380D01*
X153346632Y-67426525D01*
X153170000Y-67308503D01*
X153170000Y-64771497D01*
X153346632Y-64653475D01*
X153553475Y-64446632D01*
X153670000Y-64272240D01*
X153786525Y-64446632D01*
X153993368Y-64653475D01*
X154236589Y-64815990D01*
X154506842Y-64927932D01*
X154793740Y-64985000D01*
X155086260Y-64985000D01*
X155373158Y-64927932D01*
X155643411Y-64815990D01*
X155886632Y-64653475D01*
X156093475Y-64446632D01*
X156255990Y-64203411D01*
X156367932Y-63933158D01*
X156425000Y-63646260D01*
X156425000Y-63353740D01*
X156367932Y-63066842D01*
X156288660Y-62875462D01*
X156454979Y-63041781D01*
G36*
X141086525Y-64446632D02*
G01*
X141293368Y-64653475D01*
X141536589Y-64815990D01*
X141806842Y-64927932D01*
X142093740Y-64985000D01*
X142160198Y-64985000D01*
X140553997Y-66591202D01*
X140524999Y-66615000D01*
X140501201Y-66643998D01*
X140501200Y-66643999D01*
X140430025Y-66730725D01*
X140359453Y-66862755D01*
X140315997Y-67006016D01*
X140301323Y-67155001D01*
X140305000Y-67192333D01*
X140305000Y-67223247D01*
X140133158Y-67152068D01*
X139846260Y-67095000D01*
X139553740Y-67095000D01*
X139266842Y-67152068D01*
X138996589Y-67264010D01*
X138753368Y-67426525D01*
X138546525Y-67633368D01*
X138430000Y-67807760D01*
X138313475Y-67633368D01*
X138106632Y-67426525D01*
X137863411Y-67264010D01*
X137593158Y-67152068D01*
X137306260Y-67095000D01*
X137013740Y-67095000D01*
X136726842Y-67152068D01*
X136456589Y-67264010D01*
X136213368Y-67426525D01*
X136006525Y-67633368D01*
X135890000Y-67807760D01*
X135773475Y-67633368D01*
X135566632Y-67426525D01*
X135323411Y-67264010D01*
X135053158Y-67152068D01*
X134766260Y-67095000D01*
X134473740Y-67095000D01*
X134186842Y-67152068D01*
X133916589Y-67264010D01*
X133673368Y-67426525D01*
X133466525Y-67633368D01*
X133350000Y-67807760D01*
X133233475Y-67633368D01*
X133026632Y-67426525D01*
X132783411Y-67264010D01*
X132513158Y-67152068D01*
X132226260Y-67095000D01*
X131933740Y-67095000D01*
X131646842Y-67152068D01*
X131376589Y-67264010D01*
X131133368Y-67426525D01*
X130926525Y-67633368D01*
X130810000Y-67807760D01*
X130693475Y-67633368D01*
X130486632Y-67426525D01*
X130243411Y-67264010D01*
X129973158Y-67152068D01*
X129686260Y-67095000D01*
X129393740Y-67095000D01*
X129106842Y-67152068D01*
X128836589Y-67264010D01*
X128593368Y-67426525D01*
X128386525Y-67633368D01*
X128270000Y-67807760D01*
X128153475Y-67633368D01*
X127946632Y-67426525D01*
X127703411Y-67264010D01*
X127433158Y-67152068D01*
X127146260Y-67095000D01*
X126853740Y-67095000D01*
X126566842Y-67152068D01*
X126296589Y-67264010D01*
X126053368Y-67426525D01*
X125846525Y-67633368D01*
X125730000Y-67807760D01*
X125613475Y-67633368D01*
X125406632Y-67426525D01*
X125163411Y-67264010D01*
X124893158Y-67152068D01*
X124606260Y-67095000D01*
X124313740Y-67095000D01*
X124026842Y-67152068D01*
X123756589Y-67264010D01*
X123513368Y-67426525D01*
X123306525Y-67633368D01*
X123190000Y-67807760D01*
X123073475Y-67633368D01*
X122866632Y-67426525D01*
X122623411Y-67264010D01*
X122353158Y-67152068D01*
X122066260Y-67095000D01*
X121773740Y-67095000D01*
X121486842Y-67152068D01*
X121216589Y-67264010D01*
X120973368Y-67426525D01*
X120766525Y-67633368D01*
X120650000Y-67807760D01*
X120533475Y-67633368D01*
X120326632Y-67426525D01*
X120083411Y-67264010D01*
X119813158Y-67152068D01*
X119526260Y-67095000D01*
X119233740Y-67095000D01*
X118946842Y-67152068D01*
X118800461Y-67212701D01*
X118784974Y-67183726D01*
X118690001Y-67068001D01*
X118689999Y-67067999D01*
X118689999Y-66062804D01*
X118800999Y-65951804D01*
X118830002Y-65928002D01*
X118924975Y-65812277D01*
X118995547Y-65680248D01*
X119039004Y-65536987D01*
X119050001Y-65425334D01*
X119050001Y-65425326D01*
X119053677Y-65388001D01*
X119050001Y-65350676D01*
X119050001Y-64948452D01*
X119233740Y-64985000D01*
X119526260Y-64985000D01*
X119813158Y-64927932D01*
X120083411Y-64815990D01*
X120326632Y-64653475D01*
X120533475Y-64446632D01*
X120650000Y-64272240D01*
X120766525Y-64446632D01*
X120973368Y-64653475D01*
X121216589Y-64815990D01*
X121486842Y-64927932D01*
X121773740Y-64985000D01*
X122066260Y-64985000D01*
X122353158Y-64927932D01*
X122623411Y-64815990D01*
X122866632Y-64653475D01*
X123073475Y-64446632D01*
X123190000Y-64272240D01*
X123306525Y-64446632D01*
X123513368Y-64653475D01*
X123756589Y-64815990D01*
X124026842Y-64927932D01*
X124313740Y-64985000D01*
X124606260Y-64985000D01*
X124893158Y-64927932D01*
X125163411Y-64815990D01*
X125406632Y-64653475D01*
X125613475Y-64446632D01*
X125730000Y-64272240D01*
X125846525Y-64446632D01*
X126053368Y-64653475D01*
X126296589Y-64815990D01*
X126566842Y-64927932D01*
X126853740Y-64985000D01*
X127146260Y-64985000D01*
X127433158Y-64927932D01*
X127703411Y-64815990D01*
X127946632Y-64653475D01*
X128153475Y-64446632D01*
X128270000Y-64272240D01*
X128386525Y-64446632D01*
X128593368Y-64653475D01*
X128836589Y-64815990D01*
X129106842Y-64927932D01*
X129393740Y-64985000D01*
X129686260Y-64985000D01*
X129973158Y-64927932D01*
X130243411Y-64815990D01*
X130486632Y-64653475D01*
X130693475Y-64446632D01*
X130810000Y-64272240D01*
X130926525Y-64446632D01*
X131133368Y-64653475D01*
X131376589Y-64815990D01*
X131646842Y-64927932D01*
X131933740Y-64985000D01*
X132226260Y-64985000D01*
X132513158Y-64927932D01*
X132783411Y-64815990D01*
X133026632Y-64653475D01*
X133233475Y-64446632D01*
X133350000Y-64272240D01*
X133466525Y-64446632D01*
X133673368Y-64653475D01*
X133916589Y-64815990D01*
X134186842Y-64927932D01*
X134473740Y-64985000D01*
X134766260Y-64985000D01*
X135053158Y-64927932D01*
X135323411Y-64815990D01*
X135566632Y-64653475D01*
X135773475Y-64446632D01*
X135890000Y-64272240D01*
X136006525Y-64446632D01*
X136213368Y-64653475D01*
X136456589Y-64815990D01*
X136726842Y-64927932D01*
X137013740Y-64985000D01*
X137306260Y-64985000D01*
X137593158Y-64927932D01*
X137863411Y-64815990D01*
X138106632Y-64653475D01*
X138313475Y-64446632D01*
X138430000Y-64272240D01*
X138546525Y-64446632D01*
X138753368Y-64653475D01*
X138996589Y-64815990D01*
X139266842Y-64927932D01*
X139553740Y-64985000D01*
X139846260Y-64985000D01*
X140133158Y-64927932D01*
X140403411Y-64815990D01*
X140646632Y-64653475D01*
X140853475Y-64446632D01*
X140970000Y-64272240D01*
X141086525Y-64446632D01*
G37*
X141086525Y-64446632D02*
X141293368Y-64653475D01*
X141536589Y-64815990D01*
X141806842Y-64927932D01*
X142093740Y-64985000D01*
X142160198Y-64985000D01*
X140553997Y-66591202D01*
X140524999Y-66615000D01*
X140501201Y-66643998D01*
X140501200Y-66643999D01*
X140430025Y-66730725D01*
X140359453Y-66862755D01*
X140315997Y-67006016D01*
X140301323Y-67155001D01*
X140305000Y-67192333D01*
X140305000Y-67223247D01*
X140133158Y-67152068D01*
X139846260Y-67095000D01*
X139553740Y-67095000D01*
X139266842Y-67152068D01*
X138996589Y-67264010D01*
X138753368Y-67426525D01*
X138546525Y-67633368D01*
X138430000Y-67807760D01*
X138313475Y-67633368D01*
X138106632Y-67426525D01*
X137863411Y-67264010D01*
X137593158Y-67152068D01*
X137306260Y-67095000D01*
X137013740Y-67095000D01*
X136726842Y-67152068D01*
X136456589Y-67264010D01*
X136213368Y-67426525D01*
X136006525Y-67633368D01*
X135890000Y-67807760D01*
X135773475Y-67633368D01*
X135566632Y-67426525D01*
X135323411Y-67264010D01*
X135053158Y-67152068D01*
X134766260Y-67095000D01*
X134473740Y-67095000D01*
X134186842Y-67152068D01*
X133916589Y-67264010D01*
X133673368Y-67426525D01*
X133466525Y-67633368D01*
X133350000Y-67807760D01*
X133233475Y-67633368D01*
X133026632Y-67426525D01*
X132783411Y-67264010D01*
X132513158Y-67152068D01*
X132226260Y-67095000D01*
X131933740Y-67095000D01*
X131646842Y-67152068D01*
X131376589Y-67264010D01*
X131133368Y-67426525D01*
X130926525Y-67633368D01*
X130810000Y-67807760D01*
X130693475Y-67633368D01*
X130486632Y-67426525D01*
X130243411Y-67264010D01*
X129973158Y-67152068D01*
X129686260Y-67095000D01*
X129393740Y-67095000D01*
X129106842Y-67152068D01*
X128836589Y-67264010D01*
X128593368Y-67426525D01*
X128386525Y-67633368D01*
X128270000Y-67807760D01*
X128153475Y-67633368D01*
X127946632Y-67426525D01*
X127703411Y-67264010D01*
X127433158Y-67152068D01*
X127146260Y-67095000D01*
X126853740Y-67095000D01*
X126566842Y-67152068D01*
X126296589Y-67264010D01*
X126053368Y-67426525D01*
X125846525Y-67633368D01*
X125730000Y-67807760D01*
X125613475Y-67633368D01*
X125406632Y-67426525D01*
X125163411Y-67264010D01*
X124893158Y-67152068D01*
X124606260Y-67095000D01*
X124313740Y-67095000D01*
X124026842Y-67152068D01*
X123756589Y-67264010D01*
X123513368Y-67426525D01*
X123306525Y-67633368D01*
X123190000Y-67807760D01*
X123073475Y-67633368D01*
X122866632Y-67426525D01*
X122623411Y-67264010D01*
X122353158Y-67152068D01*
X122066260Y-67095000D01*
X121773740Y-67095000D01*
X121486842Y-67152068D01*
X121216589Y-67264010D01*
X120973368Y-67426525D01*
X120766525Y-67633368D01*
X120650000Y-67807760D01*
X120533475Y-67633368D01*
X120326632Y-67426525D01*
X120083411Y-67264010D01*
X119813158Y-67152068D01*
X119526260Y-67095000D01*
X119233740Y-67095000D01*
X118946842Y-67152068D01*
X118800461Y-67212701D01*
X118784974Y-67183726D01*
X118690001Y-67068001D01*
X118689999Y-67067999D01*
X118689999Y-66062804D01*
X118800999Y-65951804D01*
X118830002Y-65928002D01*
X118924975Y-65812277D01*
X118995547Y-65680248D01*
X119039004Y-65536987D01*
X119050001Y-65425334D01*
X119050001Y-65425326D01*
X119053677Y-65388001D01*
X119050001Y-65350676D01*
X119050001Y-64948452D01*
X119233740Y-64985000D01*
X119526260Y-64985000D01*
X119813158Y-64927932D01*
X120083411Y-64815990D01*
X120326632Y-64653475D01*
X120533475Y-64446632D01*
X120650000Y-64272240D01*
X120766525Y-64446632D01*
X120973368Y-64653475D01*
X121216589Y-64815990D01*
X121486842Y-64927932D01*
X121773740Y-64985000D01*
X122066260Y-64985000D01*
X122353158Y-64927932D01*
X122623411Y-64815990D01*
X122866632Y-64653475D01*
X123073475Y-64446632D01*
X123190000Y-64272240D01*
X123306525Y-64446632D01*
X123513368Y-64653475D01*
X123756589Y-64815990D01*
X124026842Y-64927932D01*
X124313740Y-64985000D01*
X124606260Y-64985000D01*
X124893158Y-64927932D01*
X125163411Y-64815990D01*
X125406632Y-64653475D01*
X125613475Y-64446632D01*
X125730000Y-64272240D01*
X125846525Y-64446632D01*
X126053368Y-64653475D01*
X126296589Y-64815990D01*
X126566842Y-64927932D01*
X126853740Y-64985000D01*
X127146260Y-64985000D01*
X127433158Y-64927932D01*
X127703411Y-64815990D01*
X127946632Y-64653475D01*
X128153475Y-64446632D01*
X128270000Y-64272240D01*
X128386525Y-64446632D01*
X128593368Y-64653475D01*
X128836589Y-64815990D01*
X129106842Y-64927932D01*
X129393740Y-64985000D01*
X129686260Y-64985000D01*
X129973158Y-64927932D01*
X130243411Y-64815990D01*
X130486632Y-64653475D01*
X130693475Y-64446632D01*
X130810000Y-64272240D01*
X130926525Y-64446632D01*
X131133368Y-64653475D01*
X131376589Y-64815990D01*
X131646842Y-64927932D01*
X131933740Y-64985000D01*
X132226260Y-64985000D01*
X132513158Y-64927932D01*
X132783411Y-64815990D01*
X133026632Y-64653475D01*
X133233475Y-64446632D01*
X133350000Y-64272240D01*
X133466525Y-64446632D01*
X133673368Y-64653475D01*
X133916589Y-64815990D01*
X134186842Y-64927932D01*
X134473740Y-64985000D01*
X134766260Y-64985000D01*
X135053158Y-64927932D01*
X135323411Y-64815990D01*
X135566632Y-64653475D01*
X135773475Y-64446632D01*
X135890000Y-64272240D01*
X136006525Y-64446632D01*
X136213368Y-64653475D01*
X136456589Y-64815990D01*
X136726842Y-64927932D01*
X137013740Y-64985000D01*
X137306260Y-64985000D01*
X137593158Y-64927932D01*
X137863411Y-64815990D01*
X138106632Y-64653475D01*
X138313475Y-64446632D01*
X138430000Y-64272240D01*
X138546525Y-64446632D01*
X138753368Y-64653475D01*
X138996589Y-64815990D01*
X139266842Y-64927932D01*
X139553740Y-64985000D01*
X139846260Y-64985000D01*
X140133158Y-64927932D01*
X140403411Y-64815990D01*
X140646632Y-64653475D01*
X140853475Y-64446632D01*
X140970000Y-64272240D01*
X141086525Y-64446632D01*
G36*
X115686525Y-64446632D02*
G01*
X115893368Y-64653475D01*
X116136589Y-64815990D01*
X116406842Y-64927932D01*
X116693740Y-64985000D01*
X116986260Y-64985000D01*
X117273158Y-64927932D01*
X117530001Y-64821544D01*
X117530001Y-65073200D01*
X117418997Y-65184204D01*
X117389999Y-65208002D01*
X117366201Y-65237000D01*
X117366200Y-65237001D01*
X117295025Y-65323727D01*
X117224453Y-65455757D01*
X117199813Y-65536987D01*
X117180997Y-65599017D01*
X117172996Y-65680248D01*
X117166323Y-65748003D01*
X117170000Y-65785335D01*
X117169999Y-67131548D01*
X116986260Y-67095000D01*
X116693740Y-67095000D01*
X116406842Y-67152068D01*
X116320290Y-67187919D01*
X116271691Y-67096999D01*
X116254974Y-67065723D01*
X116183799Y-66978997D01*
X116160001Y-66949999D01*
X116131003Y-66926201D01*
X114189801Y-64985000D01*
X114446260Y-64985000D01*
X114733158Y-64927932D01*
X115003411Y-64815990D01*
X115246632Y-64653475D01*
X115453475Y-64446632D01*
X115570000Y-64272240D01*
X115686525Y-64446632D01*
G37*
X115686525Y-64446632D02*
X115893368Y-64653475D01*
X116136589Y-64815990D01*
X116406842Y-64927932D01*
X116693740Y-64985000D01*
X116986260Y-64985000D01*
X117273158Y-64927932D01*
X117530001Y-64821544D01*
X117530001Y-65073200D01*
X117418997Y-65184204D01*
X117389999Y-65208002D01*
X117366201Y-65237000D01*
X117366200Y-65237001D01*
X117295025Y-65323727D01*
X117224453Y-65455757D01*
X117199813Y-65536987D01*
X117180997Y-65599017D01*
X117172996Y-65680248D01*
X117166323Y-65748003D01*
X117170000Y-65785335D01*
X117169999Y-67131548D01*
X116986260Y-67095000D01*
X116693740Y-67095000D01*
X116406842Y-67152068D01*
X116320290Y-67187919D01*
X116271691Y-67096999D01*
X116254974Y-67065723D01*
X116183799Y-66978997D01*
X116160001Y-66949999D01*
X116131003Y-66926201D01*
X114189801Y-64985000D01*
X114446260Y-64985000D01*
X114733158Y-64927932D01*
X115003411Y-64815990D01*
X115246632Y-64653475D01*
X115453475Y-64446632D01*
X115570000Y-64272240D01*
X115686525Y-64446632D01*
G36*
X115686525Y-59366632D02*
G01*
X115893368Y-59573475D01*
X116136589Y-59735990D01*
X116406842Y-59847932D01*
X116693740Y-59905000D01*
X116986260Y-59905000D01*
X117273158Y-59847932D01*
X117390001Y-59799534D01*
X117390000Y-62120465D01*
X117273158Y-62072068D01*
X116986260Y-62015000D01*
X116693740Y-62015000D01*
X116406842Y-62072068D01*
X116136589Y-62184010D01*
X115893368Y-62346525D01*
X115686525Y-62553368D01*
X115570000Y-62727760D01*
X115453475Y-62553368D01*
X115246632Y-62346525D01*
X115003411Y-62184010D01*
X114733158Y-62072068D01*
X114446260Y-62015000D01*
X114153740Y-62015000D01*
X113866842Y-62072068D01*
X113695001Y-62143247D01*
X113695001Y-59776753D01*
X113866842Y-59847932D01*
X114153740Y-59905000D01*
X114446260Y-59905000D01*
X114733158Y-59847932D01*
X115003411Y-59735990D01*
X115246632Y-59573475D01*
X115453475Y-59366632D01*
X115570000Y-59192240D01*
X115686525Y-59366632D01*
G37*
X115686525Y-59366632D02*
X115893368Y-59573475D01*
X116136589Y-59735990D01*
X116406842Y-59847932D01*
X116693740Y-59905000D01*
X116986260Y-59905000D01*
X117273158Y-59847932D01*
X117390001Y-59799534D01*
X117390000Y-62120465D01*
X117273158Y-62072068D01*
X116986260Y-62015000D01*
X116693740Y-62015000D01*
X116406842Y-62072068D01*
X116136589Y-62184010D01*
X115893368Y-62346525D01*
X115686525Y-62553368D01*
X115570000Y-62727760D01*
X115453475Y-62553368D01*
X115246632Y-62346525D01*
X115003411Y-62184010D01*
X114733158Y-62072068D01*
X114446260Y-62015000D01*
X114153740Y-62015000D01*
X113866842Y-62072068D01*
X113695001Y-62143247D01*
X113695001Y-59776753D01*
X113866842Y-59847932D01*
X114153740Y-59905000D01*
X114446260Y-59905000D01*
X114733158Y-59847932D01*
X115003411Y-59735990D01*
X115246632Y-59573475D01*
X115453475Y-59366632D01*
X115570000Y-59192240D01*
X115686525Y-59366632D01*
G36*
X120766525Y-49206632D02*
G01*
X120973368Y-49413475D01*
X121216589Y-49575990D01*
X121486842Y-49687932D01*
X121773740Y-49745000D01*
X122066260Y-49745000D01*
X122353158Y-49687932D01*
X122597152Y-49586867D01*
X122632530Y-49629974D01*
X122690000Y-49700001D01*
X122718998Y-49723799D01*
X126146201Y-53151003D01*
X126169999Y-53180001D01*
X126285724Y-53274974D01*
X126417753Y-53345546D01*
X126561014Y-53389003D01*
X126672667Y-53400000D01*
X126672676Y-53400000D01*
X126709999Y-53403676D01*
X126747322Y-53400000D01*
X130656289Y-53400000D01*
X130700226Y-53443937D01*
X130869744Y-53557205D01*
X131058102Y-53635226D01*
X131258061Y-53675000D01*
X131461939Y-53675000D01*
X131661898Y-53635226D01*
X131850256Y-53557205D01*
X132019774Y-53443937D01*
X132163937Y-53299774D01*
X132277205Y-53130256D01*
X132355226Y-52941898D01*
X132395000Y-52741939D01*
X132395000Y-52538061D01*
X132355226Y-52338102D01*
X132277205Y-52149744D01*
X132270302Y-52139413D01*
X132391898Y-52115226D01*
X132580256Y-52037205D01*
X132660000Y-51983922D01*
X132660000Y-56058135D01*
X132657241Y-56067230D01*
X132648204Y-56158986D01*
X132642567Y-56216216D01*
X132646244Y-56253548D01*
X132646244Y-57047194D01*
X132513158Y-56992068D01*
X132226260Y-56935000D01*
X131933740Y-56935000D01*
X131646842Y-56992068D01*
X131376589Y-57104010D01*
X131133368Y-57266525D01*
X130926525Y-57473368D01*
X130810000Y-57647760D01*
X130693475Y-57473368D01*
X130486632Y-57266525D01*
X130243411Y-57104010D01*
X129973158Y-56992068D01*
X129686260Y-56935000D01*
X129393740Y-56935000D01*
X129106842Y-56992068D01*
X128836589Y-57104010D01*
X128593368Y-57266525D01*
X128386525Y-57473368D01*
X128270000Y-57647760D01*
X128153475Y-57473368D01*
X127946632Y-57266525D01*
X127703411Y-57104010D01*
X127433158Y-56992068D01*
X127146260Y-56935000D01*
X126853740Y-56935000D01*
X126566842Y-56992068D01*
X126296589Y-57104010D01*
X126053368Y-57266525D01*
X125846525Y-57473368D01*
X125730000Y-57647760D01*
X125613475Y-57473368D01*
X125406632Y-57266525D01*
X125163411Y-57104010D01*
X124893158Y-56992068D01*
X124606260Y-56935000D01*
X124313740Y-56935000D01*
X124026842Y-56992068D01*
X123756589Y-57104010D01*
X123513368Y-57266525D01*
X123306525Y-57473368D01*
X123190000Y-57647760D01*
X123073475Y-57473368D01*
X122866632Y-57266525D01*
X122623411Y-57104010D01*
X122353158Y-56992068D01*
X122066260Y-56935000D01*
X121773740Y-56935000D01*
X121486842Y-56992068D01*
X121216589Y-57104010D01*
X120973368Y-57266525D01*
X120766525Y-57473368D01*
X120650000Y-57647760D01*
X120533475Y-57473368D01*
X120326632Y-57266525D01*
X120083411Y-57104010D01*
X119813158Y-56992068D01*
X119526260Y-56935000D01*
X119233740Y-56935000D01*
X118946842Y-56992068D01*
X118910000Y-57007328D01*
X118910000Y-56047333D01*
X118913677Y-56010000D01*
X118899003Y-55861014D01*
X118855546Y-55717753D01*
X118784974Y-55585724D01*
X118713799Y-55498997D01*
X118690001Y-55469999D01*
X118661003Y-55446201D01*
X115662804Y-52448003D01*
X115639001Y-52418999D01*
X115523276Y-52324026D01*
X115391247Y-52253454D01*
X115247986Y-52209997D01*
X115136333Y-52199000D01*
X115136322Y-52199000D01*
X115099000Y-52195324D01*
X115061678Y-52199000D01*
X112844711Y-52199000D01*
X112800774Y-52155063D01*
X112631256Y-52041795D01*
X112442898Y-51963774D01*
X112242939Y-51924000D01*
X112039061Y-51924000D01*
X111839102Y-51963774D01*
X111650744Y-52041795D01*
X111481226Y-52155063D01*
X111337063Y-52299226D01*
X111223795Y-52468744D01*
X111145774Y-52657102D01*
X111106000Y-52857061D01*
X111106000Y-53060939D01*
X111145774Y-53260898D01*
X111223795Y-53449256D01*
X111337063Y-53618774D01*
X111481226Y-53762937D01*
X111650744Y-53876205D01*
X111839102Y-53954226D01*
X112039061Y-53994000D01*
X112242939Y-53994000D01*
X112442898Y-53954226D01*
X112631256Y-53876205D01*
X112800774Y-53762937D01*
X112844711Y-53719000D01*
X114784199Y-53719000D01*
X117390001Y-56324803D01*
X117390001Y-57040466D01*
X117273158Y-56992068D01*
X116986260Y-56935000D01*
X116693740Y-56935000D01*
X116406842Y-56992068D01*
X116136589Y-57104010D01*
X115893368Y-57266525D01*
X115686525Y-57473368D01*
X115570000Y-57647760D01*
X115453475Y-57473368D01*
X115246632Y-57266525D01*
X115003411Y-57104010D01*
X114733158Y-56992068D01*
X114446260Y-56935000D01*
X114153740Y-56935000D01*
X113866842Y-56992068D01*
X113695001Y-57063247D01*
X113695001Y-56572326D01*
X113698677Y-56535001D01*
X113695001Y-56497676D01*
X113695001Y-56497668D01*
X113684004Y-56386015D01*
X113640547Y-56242754D01*
X113569975Y-56110725D01*
X113475002Y-55995000D01*
X113446004Y-55971202D01*
X109980000Y-52505199D01*
X109980000Y-49538178D01*
X110166632Y-49413475D01*
X110373475Y-49206632D01*
X110490000Y-49032240D01*
X110606525Y-49206632D01*
X110813368Y-49413475D01*
X111056589Y-49575990D01*
X111326842Y-49687932D01*
X111613740Y-49745000D01*
X111906260Y-49745000D01*
X112193158Y-49687932D01*
X112463411Y-49575990D01*
X112706632Y-49413475D01*
X112913475Y-49206632D01*
X113030000Y-49032240D01*
X113146525Y-49206632D01*
X113353368Y-49413475D01*
X113596589Y-49575990D01*
X113866842Y-49687932D01*
X114153740Y-49745000D01*
X114446260Y-49745000D01*
X114733158Y-49687932D01*
X115003411Y-49575990D01*
X115246632Y-49413475D01*
X115453475Y-49206632D01*
X115570000Y-49032240D01*
X115686525Y-49206632D01*
X115893368Y-49413475D01*
X116136589Y-49575990D01*
X116406842Y-49687932D01*
X116693740Y-49745000D01*
X116986260Y-49745000D01*
X117273158Y-49687932D01*
X117543411Y-49575990D01*
X117786632Y-49413475D01*
X117993475Y-49206632D01*
X118110000Y-49032240D01*
X118226525Y-49206632D01*
X118433368Y-49413475D01*
X118676589Y-49575990D01*
X118946842Y-49687932D01*
X119233740Y-49745000D01*
X119526260Y-49745000D01*
X119813158Y-49687932D01*
X120083411Y-49575990D01*
X120326632Y-49413475D01*
X120533475Y-49206632D01*
X120650000Y-49032240D01*
X120766525Y-49206632D01*
G37*
X120766525Y-49206632D02*
X120973368Y-49413475D01*
X121216589Y-49575990D01*
X121486842Y-49687932D01*
X121773740Y-49745000D01*
X122066260Y-49745000D01*
X122353158Y-49687932D01*
X122597152Y-49586867D01*
X122632530Y-49629974D01*
X122690000Y-49700001D01*
X122718998Y-49723799D01*
X126146201Y-53151003D01*
X126169999Y-53180001D01*
X126285724Y-53274974D01*
X126417753Y-53345546D01*
X126561014Y-53389003D01*
X126672667Y-53400000D01*
X126672676Y-53400000D01*
X126709999Y-53403676D01*
X126747322Y-53400000D01*
X130656289Y-53400000D01*
X130700226Y-53443937D01*
X130869744Y-53557205D01*
X131058102Y-53635226D01*
X131258061Y-53675000D01*
X131461939Y-53675000D01*
X131661898Y-53635226D01*
X131850256Y-53557205D01*
X132019774Y-53443937D01*
X132163937Y-53299774D01*
X132277205Y-53130256D01*
X132355226Y-52941898D01*
X132395000Y-52741939D01*
X132395000Y-52538061D01*
X132355226Y-52338102D01*
X132277205Y-52149744D01*
X132270302Y-52139413D01*
X132391898Y-52115226D01*
X132580256Y-52037205D01*
X132660000Y-51983922D01*
X132660000Y-56058135D01*
X132657241Y-56067230D01*
X132648204Y-56158986D01*
X132642567Y-56216216D01*
X132646244Y-56253548D01*
X132646244Y-57047194D01*
X132513158Y-56992068D01*
X132226260Y-56935000D01*
X131933740Y-56935000D01*
X131646842Y-56992068D01*
X131376589Y-57104010D01*
X131133368Y-57266525D01*
X130926525Y-57473368D01*
X130810000Y-57647760D01*
X130693475Y-57473368D01*
X130486632Y-57266525D01*
X130243411Y-57104010D01*
X129973158Y-56992068D01*
X129686260Y-56935000D01*
X129393740Y-56935000D01*
X129106842Y-56992068D01*
X128836589Y-57104010D01*
X128593368Y-57266525D01*
X128386525Y-57473368D01*
X128270000Y-57647760D01*
X128153475Y-57473368D01*
X127946632Y-57266525D01*
X127703411Y-57104010D01*
X127433158Y-56992068D01*
X127146260Y-56935000D01*
X126853740Y-56935000D01*
X126566842Y-56992068D01*
X126296589Y-57104010D01*
X126053368Y-57266525D01*
X125846525Y-57473368D01*
X125730000Y-57647760D01*
X125613475Y-57473368D01*
X125406632Y-57266525D01*
X125163411Y-57104010D01*
X124893158Y-56992068D01*
X124606260Y-56935000D01*
X124313740Y-56935000D01*
X124026842Y-56992068D01*
X123756589Y-57104010D01*
X123513368Y-57266525D01*
X123306525Y-57473368D01*
X123190000Y-57647760D01*
X123073475Y-57473368D01*
X122866632Y-57266525D01*
X122623411Y-57104010D01*
X122353158Y-56992068D01*
X122066260Y-56935000D01*
X121773740Y-56935000D01*
X121486842Y-56992068D01*
X121216589Y-57104010D01*
X120973368Y-57266525D01*
X120766525Y-57473368D01*
X120650000Y-57647760D01*
X120533475Y-57473368D01*
X120326632Y-57266525D01*
X120083411Y-57104010D01*
X119813158Y-56992068D01*
X119526260Y-56935000D01*
X119233740Y-56935000D01*
X118946842Y-56992068D01*
X118910000Y-57007328D01*
X118910000Y-56047333D01*
X118913677Y-56010000D01*
X118899003Y-55861014D01*
X118855546Y-55717753D01*
X118784974Y-55585724D01*
X118713799Y-55498997D01*
X118690001Y-55469999D01*
X118661003Y-55446201D01*
X115662804Y-52448003D01*
X115639001Y-52418999D01*
X115523276Y-52324026D01*
X115391247Y-52253454D01*
X115247986Y-52209997D01*
X115136333Y-52199000D01*
X115136322Y-52199000D01*
X115099000Y-52195324D01*
X115061678Y-52199000D01*
X112844711Y-52199000D01*
X112800774Y-52155063D01*
X112631256Y-52041795D01*
X112442898Y-51963774D01*
X112242939Y-51924000D01*
X112039061Y-51924000D01*
X111839102Y-51963774D01*
X111650744Y-52041795D01*
X111481226Y-52155063D01*
X111337063Y-52299226D01*
X111223795Y-52468744D01*
X111145774Y-52657102D01*
X111106000Y-52857061D01*
X111106000Y-53060939D01*
X111145774Y-53260898D01*
X111223795Y-53449256D01*
X111337063Y-53618774D01*
X111481226Y-53762937D01*
X111650744Y-53876205D01*
X111839102Y-53954226D01*
X112039061Y-53994000D01*
X112242939Y-53994000D01*
X112442898Y-53954226D01*
X112631256Y-53876205D01*
X112800774Y-53762937D01*
X112844711Y-53719000D01*
X114784199Y-53719000D01*
X117390001Y-56324803D01*
X117390001Y-57040466D01*
X117273158Y-56992068D01*
X116986260Y-56935000D01*
X116693740Y-56935000D01*
X116406842Y-56992068D01*
X116136589Y-57104010D01*
X115893368Y-57266525D01*
X115686525Y-57473368D01*
X115570000Y-57647760D01*
X115453475Y-57473368D01*
X115246632Y-57266525D01*
X115003411Y-57104010D01*
X114733158Y-56992068D01*
X114446260Y-56935000D01*
X114153740Y-56935000D01*
X113866842Y-56992068D01*
X113695001Y-57063247D01*
X113695001Y-56572326D01*
X113698677Y-56535001D01*
X113695001Y-56497676D01*
X113695001Y-56497668D01*
X113684004Y-56386015D01*
X113640547Y-56242754D01*
X113569975Y-56110725D01*
X113475002Y-55995000D01*
X113446004Y-55971202D01*
X109980000Y-52505199D01*
X109980000Y-49538178D01*
X110166632Y-49413475D01*
X110373475Y-49206632D01*
X110490000Y-49032240D01*
X110606525Y-49206632D01*
X110813368Y-49413475D01*
X111056589Y-49575990D01*
X111326842Y-49687932D01*
X111613740Y-49745000D01*
X111906260Y-49745000D01*
X112193158Y-49687932D01*
X112463411Y-49575990D01*
X112706632Y-49413475D01*
X112913475Y-49206632D01*
X113030000Y-49032240D01*
X113146525Y-49206632D01*
X113353368Y-49413475D01*
X113596589Y-49575990D01*
X113866842Y-49687932D01*
X114153740Y-49745000D01*
X114446260Y-49745000D01*
X114733158Y-49687932D01*
X115003411Y-49575990D01*
X115246632Y-49413475D01*
X115453475Y-49206632D01*
X115570000Y-49032240D01*
X115686525Y-49206632D01*
X115893368Y-49413475D01*
X116136589Y-49575990D01*
X116406842Y-49687932D01*
X116693740Y-49745000D01*
X116986260Y-49745000D01*
X117273158Y-49687932D01*
X117543411Y-49575990D01*
X117786632Y-49413475D01*
X117993475Y-49206632D01*
X118110000Y-49032240D01*
X118226525Y-49206632D01*
X118433368Y-49413475D01*
X118676589Y-49575990D01*
X118946842Y-49687932D01*
X119233740Y-49745000D01*
X119526260Y-49745000D01*
X119813158Y-49687932D01*
X120083411Y-49575990D01*
X120326632Y-49413475D01*
X120533475Y-49206632D01*
X120650000Y-49032240D01*
X120766525Y-49206632D01*
G36*
X148706525Y-49206632D02*
G01*
X148913368Y-49413475D01*
X149156589Y-49575990D01*
X149426842Y-49687932D01*
X149713740Y-49745000D01*
X150006260Y-49745000D01*
X150293158Y-49687932D01*
X150464999Y-49616753D01*
X150464999Y-52508677D01*
X150461323Y-52545999D01*
X150464999Y-52583321D01*
X150464999Y-52583331D01*
X150475996Y-52694984D01*
X150510890Y-52810015D01*
X150519453Y-52838245D01*
X150590025Y-52970275D01*
X150612829Y-52998061D01*
X150684998Y-53086000D01*
X150714002Y-53109803D01*
X152815002Y-55210804D01*
X152815002Y-56988456D01*
X152546260Y-56935000D01*
X152253740Y-56935000D01*
X151966842Y-56992068D01*
X151696589Y-57104010D01*
X151493508Y-57239704D01*
X146904999Y-52651196D01*
X146904999Y-49691544D01*
X147173740Y-49745000D01*
X147466260Y-49745000D01*
X147753158Y-49687932D01*
X148023411Y-49575990D01*
X148266632Y-49413475D01*
X148473475Y-49206632D01*
X148590000Y-49032240D01*
X148706525Y-49206632D01*
G37*
X148706525Y-49206632D02*
X148913368Y-49413475D01*
X149156589Y-49575990D01*
X149426842Y-49687932D01*
X149713740Y-49745000D01*
X150006260Y-49745000D01*
X150293158Y-49687932D01*
X150464999Y-49616753D01*
X150464999Y-52508677D01*
X150461323Y-52545999D01*
X150464999Y-52583321D01*
X150464999Y-52583331D01*
X150475996Y-52694984D01*
X150510890Y-52810015D01*
X150519453Y-52838245D01*
X150590025Y-52970275D01*
X150612829Y-52998061D01*
X150684998Y-53086000D01*
X150714002Y-53109803D01*
X152815002Y-55210804D01*
X152815002Y-56988456D01*
X152546260Y-56935000D01*
X152253740Y-56935000D01*
X151966842Y-56992068D01*
X151696589Y-57104010D01*
X151493508Y-57239704D01*
X146904999Y-52651196D01*
X146904999Y-49691544D01*
X147173740Y-49745000D01*
X147466260Y-49745000D01*
X147753158Y-49687932D01*
X148023411Y-49575990D01*
X148266632Y-49413475D01*
X148473475Y-49206632D01*
X148590000Y-49032240D01*
X148706525Y-49206632D01*
G36*
X143626525Y-49206632D02*
G01*
X143833368Y-49413475D01*
X144076589Y-49575990D01*
X144346842Y-49687932D01*
X144633740Y-49745000D01*
X144926260Y-49745000D01*
X145213158Y-49687932D01*
X145384999Y-49616753D01*
X145384999Y-53016666D01*
X145381322Y-53053999D01*
X145395996Y-53202985D01*
X145439453Y-53346246D01*
X145510025Y-53478275D01*
X145569483Y-53550725D01*
X145604998Y-53594000D01*
X145720723Y-53688973D01*
X145852752Y-53759545D01*
X145868533Y-53764332D01*
X148589199Y-56484999D01*
X146459801Y-56484999D01*
X140460000Y-50485199D01*
X140460000Y-49538178D01*
X140646632Y-49413475D01*
X140853475Y-49206632D01*
X140970000Y-49032240D01*
X141086525Y-49206632D01*
X141293368Y-49413475D01*
X141536589Y-49575990D01*
X141806842Y-49687932D01*
X142093740Y-49745000D01*
X142386260Y-49745000D01*
X142673158Y-49687932D01*
X142943411Y-49575990D01*
X143186632Y-49413475D01*
X143393475Y-49206632D01*
X143510000Y-49032240D01*
X143626525Y-49206632D01*
G37*
X143626525Y-49206632D02*
X143833368Y-49413475D01*
X144076589Y-49575990D01*
X144346842Y-49687932D01*
X144633740Y-49745000D01*
X144926260Y-49745000D01*
X145213158Y-49687932D01*
X145384999Y-49616753D01*
X145384999Y-53016666D01*
X145381322Y-53053999D01*
X145395996Y-53202985D01*
X145439453Y-53346246D01*
X145510025Y-53478275D01*
X145569483Y-53550725D01*
X145604998Y-53594000D01*
X145720723Y-53688973D01*
X145852752Y-53759545D01*
X145868533Y-53764332D01*
X148589199Y-56484999D01*
X146459801Y-56484999D01*
X140460000Y-50485199D01*
X140460000Y-49538178D01*
X140646632Y-49413475D01*
X140853475Y-49206632D01*
X140970000Y-49032240D01*
X141086525Y-49206632D01*
X141293368Y-49413475D01*
X141536589Y-49575990D01*
X141806842Y-49687932D01*
X142093740Y-49745000D01*
X142386260Y-49745000D01*
X142673158Y-49687932D01*
X142943411Y-49575990D01*
X143186632Y-49413475D01*
X143393475Y-49206632D01*
X143510000Y-49032240D01*
X143626525Y-49206632D01*
G36*
X140925739Y-53100540D02*
G01*
X140801063Y-53225216D01*
X140687795Y-53394734D01*
X140609774Y-53583092D01*
X140570000Y-53783051D01*
X140570000Y-53935198D01*
X139369775Y-55135423D01*
X139369775Y-54528698D01*
X139373451Y-54491375D01*
X139369775Y-54454053D01*
X139369775Y-54454043D01*
X139358778Y-54342390D01*
X139315321Y-54199129D01*
X139284999Y-54142401D01*
X139284999Y-51459800D01*
X140925739Y-53100540D01*
G37*
X140925739Y-53100540D02*
X140801063Y-53225216D01*
X140687795Y-53394734D01*
X140609774Y-53583092D01*
X140570000Y-53783051D01*
X140570000Y-53935198D01*
X139369775Y-55135423D01*
X139369775Y-54528698D01*
X139373451Y-54491375D01*
X139369775Y-54454053D01*
X139369775Y-54454043D01*
X139358778Y-54342390D01*
X139315321Y-54199129D01*
X139284999Y-54142401D01*
X139284999Y-51459800D01*
X140925739Y-53100540D01*
G36*
X136006525Y-49206632D02*
G01*
X136213368Y-49413475D01*
X136456589Y-49575990D01*
X136726842Y-49687932D01*
X137013740Y-49745000D01*
X137306260Y-49745000D01*
X137593158Y-49687932D01*
X137764999Y-49616753D01*
X137764999Y-52232737D01*
X137690256Y-52182795D01*
X137501898Y-52104774D01*
X137301939Y-52065000D01*
X137098061Y-52065000D01*
X136898102Y-52104774D01*
X136709744Y-52182795D01*
X136540226Y-52296063D01*
X136396063Y-52440226D01*
X136282795Y-52609744D01*
X136204774Y-52798102D01*
X136165000Y-52998061D01*
X136165000Y-53060198D01*
X135344974Y-53880225D01*
X135139709Y-53880225D01*
X135095772Y-53836288D01*
X134926254Y-53723020D01*
X134737896Y-53644999D01*
X134537937Y-53605225D01*
X134334059Y-53605225D01*
X134180000Y-53635869D01*
X134180000Y-49685098D01*
X134186842Y-49687932D01*
X134473740Y-49745000D01*
X134766260Y-49745000D01*
X135053158Y-49687932D01*
X135323411Y-49575990D01*
X135566632Y-49413475D01*
X135773475Y-49206632D01*
X135890000Y-49032240D01*
X136006525Y-49206632D01*
G37*
X136006525Y-49206632D02*
X136213368Y-49413475D01*
X136456589Y-49575990D01*
X136726842Y-49687932D01*
X137013740Y-49745000D01*
X137306260Y-49745000D01*
X137593158Y-49687932D01*
X137764999Y-49616753D01*
X137764999Y-52232737D01*
X137690256Y-52182795D01*
X137501898Y-52104774D01*
X137301939Y-52065000D01*
X137098061Y-52065000D01*
X136898102Y-52104774D01*
X136709744Y-52182795D01*
X136540226Y-52296063D01*
X136396063Y-52440226D01*
X136282795Y-52609744D01*
X136204774Y-52798102D01*
X136165000Y-52998061D01*
X136165000Y-53060198D01*
X135344974Y-53880225D01*
X135139709Y-53880225D01*
X135095772Y-53836288D01*
X134926254Y-53723020D01*
X134737896Y-53644999D01*
X134537937Y-53605225D01*
X134334059Y-53605225D01*
X134180000Y-53635869D01*
X134180000Y-49685098D01*
X134186842Y-49687932D01*
X134473740Y-49745000D01*
X134766260Y-49745000D01*
X135053158Y-49687932D01*
X135323411Y-49575990D01*
X135566632Y-49413475D01*
X135773475Y-49206632D01*
X135890000Y-49032240D01*
X136006525Y-49206632D01*
G36*
X104058201Y-33791003D02*
G01*
X104081999Y-33820001D01*
X104110997Y-33843799D01*
X104197723Y-33914974D01*
X104280063Y-33958986D01*
X104329753Y-33985546D01*
X104473014Y-34029003D01*
X104584667Y-34040000D01*
X104584677Y-34040000D01*
X104622000Y-34043676D01*
X104659323Y-34040000D01*
X114745199Y-34040000D01*
X114369003Y-34416196D01*
X114339999Y-34439999D01*
X114284871Y-34507174D01*
X114245026Y-34555724D01*
X114210137Y-34620997D01*
X114174454Y-34687754D01*
X114130997Y-34831015D01*
X114120000Y-34942668D01*
X114120000Y-34942678D01*
X114116324Y-34980000D01*
X114120000Y-35017323D01*
X114120001Y-37372668D01*
X114116324Y-37410000D01*
X114120001Y-37447333D01*
X114123119Y-37478985D01*
X114130998Y-37558985D01*
X114174454Y-37702246D01*
X114245026Y-37834276D01*
X114286036Y-37884246D01*
X114340000Y-37950001D01*
X114368998Y-37973799D01*
X117340000Y-40944802D01*
X117340000Y-41779755D01*
X117273158Y-41752068D01*
X116986260Y-41695000D01*
X116693740Y-41695000D01*
X116406842Y-41752068D01*
X116136589Y-41864010D01*
X115893368Y-42026525D01*
X115686525Y-42233368D01*
X115570000Y-42407760D01*
X115453475Y-42233368D01*
X115252454Y-42032347D01*
X115609802Y-41675000D01*
X115671939Y-41675000D01*
X115871898Y-41635226D01*
X116060256Y-41557205D01*
X116229774Y-41443937D01*
X116373937Y-41299774D01*
X116487205Y-41130256D01*
X116565226Y-40941898D01*
X116605000Y-40741939D01*
X116605000Y-40538061D01*
X116565226Y-40338102D01*
X116487205Y-40149744D01*
X116373937Y-39980226D01*
X116229774Y-39836063D01*
X116060256Y-39722795D01*
X115871898Y-39644774D01*
X115671939Y-39605000D01*
X115468061Y-39605000D01*
X115268102Y-39644774D01*
X115079744Y-39722795D01*
X114910226Y-39836063D01*
X114766063Y-39980226D01*
X114652795Y-40149744D01*
X114574774Y-40338102D01*
X114535000Y-40538061D01*
X114535000Y-40600198D01*
X113985199Y-41150000D01*
X101668711Y-41150000D01*
X101624774Y-41106063D01*
X101455256Y-40992795D01*
X101266898Y-40914774D01*
X101066939Y-40875000D01*
X100863061Y-40875000D01*
X100663102Y-40914774D01*
X100474744Y-40992795D01*
X100305226Y-41106063D01*
X100161063Y-41250226D01*
X100047795Y-41419744D01*
X99969774Y-41608102D01*
X99930000Y-41808061D01*
X99930000Y-42011939D01*
X99969774Y-42211898D01*
X100047795Y-42400256D01*
X100161063Y-42569774D01*
X100305226Y-42713937D01*
X100474744Y-42827205D01*
X100663102Y-42905226D01*
X100863061Y-42945000D01*
X101066939Y-42945000D01*
X101266898Y-42905226D01*
X101455256Y-42827205D01*
X101624774Y-42713937D01*
X101668711Y-42670000D01*
X105283897Y-42670000D01*
X105252068Y-42746842D01*
X105195000Y-43033740D01*
X105195000Y-43326260D01*
X105252068Y-43613158D01*
X105364010Y-43883411D01*
X105526525Y-44126632D01*
X105733368Y-44333475D01*
X105976589Y-44495990D01*
X106246842Y-44607932D01*
X106533740Y-44665000D01*
X106826260Y-44665000D01*
X107113158Y-44607932D01*
X107383411Y-44495990D01*
X107626632Y-44333475D01*
X107833475Y-44126632D01*
X107950000Y-43952240D01*
X108066525Y-44126632D01*
X108273368Y-44333475D01*
X108516589Y-44495990D01*
X108786842Y-44607932D01*
X109073740Y-44665000D01*
X109366260Y-44665000D01*
X109653158Y-44607932D01*
X109923411Y-44495990D01*
X110166632Y-44333475D01*
X110373475Y-44126632D01*
X110490000Y-43952240D01*
X110606525Y-44126632D01*
X110813368Y-44333475D01*
X111056589Y-44495990D01*
X111326842Y-44607932D01*
X111613740Y-44665000D01*
X111906260Y-44665000D01*
X112193158Y-44607932D01*
X112463411Y-44495990D01*
X112706632Y-44333475D01*
X112913475Y-44126632D01*
X113030000Y-43952240D01*
X113146525Y-44126632D01*
X113353368Y-44333475D01*
X113596589Y-44495990D01*
X113866842Y-44607932D01*
X114153740Y-44665000D01*
X114446260Y-44665000D01*
X114733158Y-44607932D01*
X115003411Y-44495990D01*
X115246632Y-44333475D01*
X115453475Y-44126632D01*
X115570000Y-43952240D01*
X115686525Y-44126632D01*
X115893368Y-44333475D01*
X116136589Y-44495990D01*
X116406842Y-44607932D01*
X116693740Y-44665000D01*
X116986260Y-44665000D01*
X117273158Y-44607932D01*
X117543411Y-44495990D01*
X117746492Y-44360296D01*
X118347199Y-44961002D01*
X118370997Y-44990001D01*
X118486722Y-45084974D01*
X118618751Y-45155546D01*
X118762012Y-45199003D01*
X118873665Y-45210000D01*
X118873674Y-45210000D01*
X118910997Y-45213676D01*
X118948320Y-45210000D01*
X124780199Y-45210000D01*
X126450469Y-46880271D01*
X126296589Y-46944010D01*
X126225987Y-46991185D01*
X125050232Y-45815431D01*
X125026429Y-45786427D01*
X124910704Y-45691454D01*
X124778675Y-45620882D01*
X124635414Y-45577425D01*
X124523761Y-45566428D01*
X124523750Y-45566428D01*
X124486428Y-45562752D01*
X124449106Y-45566428D01*
X100787641Y-45566428D01*
X98360000Y-43138788D01*
X98360000Y-35407322D01*
X98363676Y-35369999D01*
X98360000Y-35332676D01*
X98360000Y-35332667D01*
X98349003Y-35221014D01*
X98305546Y-35077753D01*
X98234974Y-34945724D01*
X98140001Y-34829999D01*
X98111004Y-34806202D01*
X95269801Y-31965000D01*
X95396260Y-31965000D01*
X95683158Y-31907932D01*
X95953411Y-31795990D01*
X96196632Y-31633475D01*
X96403475Y-31426632D01*
X96528178Y-31240000D01*
X101507199Y-31240000D01*
X104058201Y-33791003D01*
G37*
X104058201Y-33791003D02*
X104081999Y-33820001D01*
X104110997Y-33843799D01*
X104197723Y-33914974D01*
X104280063Y-33958986D01*
X104329753Y-33985546D01*
X104473014Y-34029003D01*
X104584667Y-34040000D01*
X104584677Y-34040000D01*
X104622000Y-34043676D01*
X104659323Y-34040000D01*
X114745199Y-34040000D01*
X114369003Y-34416196D01*
X114339999Y-34439999D01*
X114284871Y-34507174D01*
X114245026Y-34555724D01*
X114210137Y-34620997D01*
X114174454Y-34687754D01*
X114130997Y-34831015D01*
X114120000Y-34942668D01*
X114120000Y-34942678D01*
X114116324Y-34980000D01*
X114120000Y-35017323D01*
X114120001Y-37372668D01*
X114116324Y-37410000D01*
X114120001Y-37447333D01*
X114123119Y-37478985D01*
X114130998Y-37558985D01*
X114174454Y-37702246D01*
X114245026Y-37834276D01*
X114286036Y-37884246D01*
X114340000Y-37950001D01*
X114368998Y-37973799D01*
X117340000Y-40944802D01*
X117340000Y-41779755D01*
X117273158Y-41752068D01*
X116986260Y-41695000D01*
X116693740Y-41695000D01*
X116406842Y-41752068D01*
X116136589Y-41864010D01*
X115893368Y-42026525D01*
X115686525Y-42233368D01*
X115570000Y-42407760D01*
X115453475Y-42233368D01*
X115252454Y-42032347D01*
X115609802Y-41675000D01*
X115671939Y-41675000D01*
X115871898Y-41635226D01*
X116060256Y-41557205D01*
X116229774Y-41443937D01*
X116373937Y-41299774D01*
X116487205Y-41130256D01*
X116565226Y-40941898D01*
X116605000Y-40741939D01*
X116605000Y-40538061D01*
X116565226Y-40338102D01*
X116487205Y-40149744D01*
X116373937Y-39980226D01*
X116229774Y-39836063D01*
X116060256Y-39722795D01*
X115871898Y-39644774D01*
X115671939Y-39605000D01*
X115468061Y-39605000D01*
X115268102Y-39644774D01*
X115079744Y-39722795D01*
X114910226Y-39836063D01*
X114766063Y-39980226D01*
X114652795Y-40149744D01*
X114574774Y-40338102D01*
X114535000Y-40538061D01*
X114535000Y-40600198D01*
X113985199Y-41150000D01*
X101668711Y-41150000D01*
X101624774Y-41106063D01*
X101455256Y-40992795D01*
X101266898Y-40914774D01*
X101066939Y-40875000D01*
X100863061Y-40875000D01*
X100663102Y-40914774D01*
X100474744Y-40992795D01*
X100305226Y-41106063D01*
X100161063Y-41250226D01*
X100047795Y-41419744D01*
X99969774Y-41608102D01*
X99930000Y-41808061D01*
X99930000Y-42011939D01*
X99969774Y-42211898D01*
X100047795Y-42400256D01*
X100161063Y-42569774D01*
X100305226Y-42713937D01*
X100474744Y-42827205D01*
X100663102Y-42905226D01*
X100863061Y-42945000D01*
X101066939Y-42945000D01*
X101266898Y-42905226D01*
X101455256Y-42827205D01*
X101624774Y-42713937D01*
X101668711Y-42670000D01*
X105283897Y-42670000D01*
X105252068Y-42746842D01*
X105195000Y-43033740D01*
X105195000Y-43326260D01*
X105252068Y-43613158D01*
X105364010Y-43883411D01*
X105526525Y-44126632D01*
X105733368Y-44333475D01*
X105976589Y-44495990D01*
X106246842Y-44607932D01*
X106533740Y-44665000D01*
X106826260Y-44665000D01*
X107113158Y-44607932D01*
X107383411Y-44495990D01*
X107626632Y-44333475D01*
X107833475Y-44126632D01*
X107950000Y-43952240D01*
X108066525Y-44126632D01*
X108273368Y-44333475D01*
X108516589Y-44495990D01*
X108786842Y-44607932D01*
X109073740Y-44665000D01*
X109366260Y-44665000D01*
X109653158Y-44607932D01*
X109923411Y-44495990D01*
X110166632Y-44333475D01*
X110373475Y-44126632D01*
X110490000Y-43952240D01*
X110606525Y-44126632D01*
X110813368Y-44333475D01*
X111056589Y-44495990D01*
X111326842Y-44607932D01*
X111613740Y-44665000D01*
X111906260Y-44665000D01*
X112193158Y-44607932D01*
X112463411Y-44495990D01*
X112706632Y-44333475D01*
X112913475Y-44126632D01*
X113030000Y-43952240D01*
X113146525Y-44126632D01*
X113353368Y-44333475D01*
X113596589Y-44495990D01*
X113866842Y-44607932D01*
X114153740Y-44665000D01*
X114446260Y-44665000D01*
X114733158Y-44607932D01*
X115003411Y-44495990D01*
X115246632Y-44333475D01*
X115453475Y-44126632D01*
X115570000Y-43952240D01*
X115686525Y-44126632D01*
X115893368Y-44333475D01*
X116136589Y-44495990D01*
X116406842Y-44607932D01*
X116693740Y-44665000D01*
X116986260Y-44665000D01*
X117273158Y-44607932D01*
X117543411Y-44495990D01*
X117746492Y-44360296D01*
X118347199Y-44961002D01*
X118370997Y-44990001D01*
X118486722Y-45084974D01*
X118618751Y-45155546D01*
X118762012Y-45199003D01*
X118873665Y-45210000D01*
X118873674Y-45210000D01*
X118910997Y-45213676D01*
X118948320Y-45210000D01*
X124780199Y-45210000D01*
X126450469Y-46880271D01*
X126296589Y-46944010D01*
X126225987Y-46991185D01*
X125050232Y-45815431D01*
X125026429Y-45786427D01*
X124910704Y-45691454D01*
X124778675Y-45620882D01*
X124635414Y-45577425D01*
X124523761Y-45566428D01*
X124523750Y-45566428D01*
X124486428Y-45562752D01*
X124449106Y-45566428D01*
X100787641Y-45566428D01*
X98360000Y-43138788D01*
X98360000Y-35407322D01*
X98363676Y-35369999D01*
X98360000Y-35332676D01*
X98360000Y-35332667D01*
X98349003Y-35221014D01*
X98305546Y-35077753D01*
X98234974Y-34945724D01*
X98140001Y-34829999D01*
X98111004Y-34806202D01*
X95269801Y-31965000D01*
X95396260Y-31965000D01*
X95683158Y-31907932D01*
X95953411Y-31795990D01*
X96196632Y-31633475D01*
X96403475Y-31426632D01*
X96528178Y-31240000D01*
X101507199Y-31240000D01*
X104058201Y-33791003D01*
M02*
