G04 #@! TF.GenerationSoftware,KiCad,Pcbnew,(5.1.6)-1*
G04 #@! TF.CreationDate,2021-05-11T11:26:14+01:00*
G04 #@! TF.ProjectId,cpu_exp_65xx_6x09,6370755f-6578-4705-9f36-3578785f3678,3.01*
G04 #@! TF.SameCoordinates,Original*
G04 #@! TF.FileFunction,Legend,Bot*
G04 #@! TF.FilePolarity,Positive*
%FSLAX46Y46*%
G04 Gerber Fmt 4.6, Leading zero omitted, Abs format (unit mm)*
G04 Created by KiCad (PCBNEW (5.1.6)-1) date 2021-05-11 11:26:14*
%MOMM*%
%LPD*%
G01*
G04 APERTURE LIST*
%ADD10C,0.120000*%
%ADD11C,0.150000*%
G04 APERTURE END LIST*
D10*
X91385000Y-80460000D02*
X91385000Y-78460000D01*
X89245000Y-78460000D02*
X89245000Y-80460000D01*
X158810000Y-36890000D02*
X158810000Y-31690000D01*
X107890000Y-36890000D02*
X107890000Y-31690000D01*
X158240000Y-38330000D02*
X158240000Y-36890000D01*
X158810000Y-36890000D02*
X158240000Y-36890000D01*
X158810000Y-31690000D02*
X158240000Y-31690000D01*
X108460000Y-36890000D02*
X107890000Y-36890000D01*
X108460000Y-31690000D02*
X107890000Y-31690000D01*
X156720000Y-36890000D02*
X155700000Y-36890000D01*
X156720000Y-31690000D02*
X155700000Y-31690000D01*
X154180000Y-36890000D02*
X153160000Y-36890000D01*
X154180000Y-31690000D02*
X153160000Y-31690000D01*
X151640000Y-36890000D02*
X150620000Y-36890000D01*
X151640000Y-31690000D02*
X150620000Y-31690000D01*
X149100000Y-36890000D02*
X148080000Y-36890000D01*
X149100000Y-31690000D02*
X148080000Y-31690000D01*
X146560000Y-36890000D02*
X145540000Y-36890000D01*
X146560000Y-31690000D02*
X145540000Y-31690000D01*
X144020000Y-36890000D02*
X143000000Y-36890000D01*
X144020000Y-31690000D02*
X143000000Y-31690000D01*
X141480000Y-36890000D02*
X140460000Y-36890000D01*
X141480000Y-31690000D02*
X140460000Y-31690000D01*
X138940000Y-36890000D02*
X137920000Y-36890000D01*
X138940000Y-31690000D02*
X137920000Y-31690000D01*
X136400000Y-36890000D02*
X135380000Y-36890000D01*
X136400000Y-31690000D02*
X135380000Y-31690000D01*
X133860000Y-36890000D02*
X132840000Y-36890000D01*
X133860000Y-31690000D02*
X132840000Y-31690000D01*
X131320000Y-36890000D02*
X130300000Y-36890000D01*
X131320000Y-31690000D02*
X130300000Y-31690000D01*
X128780000Y-36890000D02*
X127760000Y-36890000D01*
X128780000Y-31690000D02*
X127760000Y-31690000D01*
X126240000Y-36890000D02*
X125220000Y-36890000D01*
X126240000Y-31690000D02*
X125220000Y-31690000D01*
X123700000Y-36890000D02*
X122680000Y-36890000D01*
X123700000Y-31690000D02*
X122680000Y-31690000D01*
X121160000Y-36890000D02*
X120140000Y-36890000D01*
X121160000Y-31690000D02*
X120140000Y-31690000D01*
X118620000Y-36890000D02*
X117600000Y-36890000D01*
X118620000Y-31690000D02*
X117600000Y-31690000D01*
X116080000Y-36890000D02*
X115060000Y-36890000D01*
X116080000Y-31690000D02*
X115060000Y-31690000D01*
X113540000Y-36890000D02*
X112520000Y-36890000D01*
X113540000Y-31690000D02*
X112520000Y-31690000D01*
X111000000Y-36890000D02*
X109980000Y-36890000D01*
X111000000Y-31690000D02*
X109980000Y-31690000D01*
X161350000Y-80070000D02*
X161350000Y-74870000D01*
X161350000Y-74870000D02*
X160780000Y-74870000D01*
X159260000Y-74870000D02*
X158240000Y-74870000D01*
X156720000Y-74870000D02*
X155700000Y-74870000D01*
X154180000Y-74870000D02*
X153160000Y-74870000D01*
X151640000Y-74870000D02*
X150620000Y-74870000D01*
X149100000Y-74870000D02*
X148080000Y-74870000D01*
X146560000Y-74870000D02*
X145540000Y-74870000D01*
X144020000Y-74870000D02*
X143000000Y-74870000D01*
X141480000Y-74870000D02*
X140460000Y-74870000D01*
X138940000Y-74870000D02*
X137920000Y-74870000D01*
X136400000Y-74870000D02*
X135380000Y-74870000D01*
X133860000Y-74870000D02*
X132840000Y-74870000D01*
X131320000Y-74870000D02*
X130300000Y-74870000D01*
X128780000Y-74870000D02*
X127760000Y-74870000D01*
X126240000Y-74870000D02*
X125220000Y-74870000D01*
X123700000Y-74870000D02*
X122680000Y-74870000D01*
X121160000Y-74870000D02*
X120140000Y-74870000D01*
X118620000Y-74870000D02*
X117600000Y-74870000D01*
X116080000Y-74870000D02*
X115060000Y-74870000D01*
X113540000Y-74870000D02*
X112520000Y-74870000D01*
X111000000Y-74870000D02*
X110430000Y-74870000D01*
X110430000Y-80070000D02*
X110430000Y-74870000D01*
X161350000Y-80070000D02*
X160780000Y-80070000D01*
X159260000Y-80070000D02*
X158240000Y-80070000D01*
X156720000Y-80070000D02*
X155700000Y-80070000D01*
X154180000Y-80070000D02*
X153160000Y-80070000D01*
X151640000Y-80070000D02*
X150620000Y-80070000D01*
X149100000Y-80070000D02*
X148080000Y-80070000D01*
X146560000Y-80070000D02*
X145540000Y-80070000D01*
X144020000Y-80070000D02*
X143000000Y-80070000D01*
X141480000Y-80070000D02*
X140460000Y-80070000D01*
X138940000Y-80070000D02*
X137920000Y-80070000D01*
X136400000Y-80070000D02*
X135380000Y-80070000D01*
X133860000Y-80070000D02*
X132840000Y-80070000D01*
X131320000Y-80070000D02*
X130300000Y-80070000D01*
X128780000Y-80070000D02*
X127760000Y-80070000D01*
X126240000Y-80070000D02*
X125220000Y-80070000D01*
X123700000Y-80070000D02*
X122680000Y-80070000D01*
X121160000Y-80070000D02*
X120140000Y-80070000D01*
X118620000Y-80070000D02*
X117600000Y-80070000D01*
X116080000Y-80070000D02*
X115060000Y-80070000D01*
X113540000Y-80070000D02*
X112520000Y-80070000D01*
X111000000Y-80070000D02*
X110430000Y-80070000D01*
X160780000Y-74870000D02*
X160780000Y-73510000D01*
X96320000Y-66405000D02*
X96320000Y-64405000D01*
X94180000Y-64405000D02*
X94180000Y-66405000D01*
X93780000Y-66405000D02*
X93780000Y-64405000D01*
X91640000Y-64405000D02*
X91640000Y-66405000D01*
X89100000Y-64405000D02*
X89100000Y-66405000D01*
X91240000Y-66405000D02*
X91240000Y-64405000D01*
X99005000Y-80460000D02*
X99005000Y-78460000D01*
X96865000Y-78460000D02*
X96865000Y-80460000D01*
X96465000Y-80460000D02*
X96465000Y-78460000D01*
X94325000Y-78460000D02*
X94325000Y-80460000D01*
X93925000Y-80460000D02*
X93925000Y-78460000D01*
X91785000Y-78460000D02*
X91785000Y-80460000D01*
X161782000Y-40390000D02*
X159782000Y-40390000D01*
X159782000Y-38350000D02*
X161782000Y-38350000D01*
X157349000Y-45323000D02*
X157349000Y-43323000D01*
X159389000Y-43323000D02*
X159389000Y-45323000D01*
D11*
X90481666Y-83087380D02*
X90815000Y-82611190D01*
X91053095Y-83087380D02*
X91053095Y-82087380D01*
X90672142Y-82087380D01*
X90576904Y-82135000D01*
X90529285Y-82182619D01*
X90481666Y-82277857D01*
X90481666Y-82420714D01*
X90529285Y-82515952D01*
X90576904Y-82563571D01*
X90672142Y-82611190D01*
X91053095Y-82611190D01*
X89529285Y-83087380D02*
X90100714Y-83087380D01*
X89815000Y-83087380D02*
X89815000Y-82087380D01*
X89910238Y-82230238D01*
X90005476Y-82325476D01*
X90100714Y-82373095D01*
X160262380Y-33551904D02*
X159262380Y-33551904D01*
X159262380Y-33932857D01*
X159310000Y-34028095D01*
X159357619Y-34075714D01*
X159452857Y-34123333D01*
X159595714Y-34123333D01*
X159690952Y-34075714D01*
X159738571Y-34028095D01*
X159786190Y-33932857D01*
X159786190Y-33551904D01*
X159262380Y-35028095D02*
X159262380Y-34551904D01*
X159738571Y-34504285D01*
X159690952Y-34551904D01*
X159643333Y-34647142D01*
X159643333Y-34885238D01*
X159690952Y-34980476D01*
X159738571Y-35028095D01*
X159833809Y-35075714D01*
X160071904Y-35075714D01*
X160167142Y-35028095D01*
X160214761Y-34980476D01*
X160262380Y-34885238D01*
X160262380Y-34647142D01*
X160214761Y-34551904D01*
X160167142Y-34504285D01*
X163242380Y-76731904D02*
X162242380Y-76731904D01*
X162242380Y-77112857D01*
X162290000Y-77208095D01*
X162337619Y-77255714D01*
X162432857Y-77303333D01*
X162575714Y-77303333D01*
X162670952Y-77255714D01*
X162718571Y-77208095D01*
X162766190Y-77112857D01*
X162766190Y-76731904D01*
X162242380Y-78160476D02*
X162242380Y-77970000D01*
X162290000Y-77874761D01*
X162337619Y-77827142D01*
X162480476Y-77731904D01*
X162670952Y-77684285D01*
X163051904Y-77684285D01*
X163147142Y-77731904D01*
X163194761Y-77779523D01*
X163242380Y-77874761D01*
X163242380Y-78065238D01*
X163194761Y-78160476D01*
X163147142Y-78208095D01*
X163051904Y-78255714D01*
X162813809Y-78255714D01*
X162718571Y-78208095D01*
X162670952Y-78160476D01*
X162623333Y-78065238D01*
X162623333Y-77874761D01*
X162670952Y-77779523D01*
X162718571Y-77731904D01*
X162813809Y-77684285D01*
X95416666Y-69032380D02*
X95750000Y-68556190D01*
X95988095Y-69032380D02*
X95988095Y-68032380D01*
X95607142Y-68032380D01*
X95511904Y-68080000D01*
X95464285Y-68127619D01*
X95416666Y-68222857D01*
X95416666Y-68365714D01*
X95464285Y-68460952D01*
X95511904Y-68508571D01*
X95607142Y-68556190D01*
X95988095Y-68556190D01*
X95083333Y-68032380D02*
X94416666Y-68032380D01*
X94845238Y-69032380D01*
X92876666Y-69032380D02*
X93210000Y-68556190D01*
X93448095Y-69032380D02*
X93448095Y-68032380D01*
X93067142Y-68032380D01*
X92971904Y-68080000D01*
X92924285Y-68127619D01*
X92876666Y-68222857D01*
X92876666Y-68365714D01*
X92924285Y-68460952D01*
X92971904Y-68508571D01*
X93067142Y-68556190D01*
X93448095Y-68556190D01*
X92019523Y-68032380D02*
X92210000Y-68032380D01*
X92305238Y-68080000D01*
X92352857Y-68127619D01*
X92448095Y-68270476D01*
X92495714Y-68460952D01*
X92495714Y-68841904D01*
X92448095Y-68937142D01*
X92400476Y-68984761D01*
X92305238Y-69032380D01*
X92114761Y-69032380D01*
X92019523Y-68984761D01*
X91971904Y-68937142D01*
X91924285Y-68841904D01*
X91924285Y-68603809D01*
X91971904Y-68508571D01*
X92019523Y-68460952D01*
X92114761Y-68413333D01*
X92305238Y-68413333D01*
X92400476Y-68460952D01*
X92448095Y-68508571D01*
X92495714Y-68603809D01*
X90336666Y-69032380D02*
X90670000Y-68556190D01*
X90908095Y-69032380D02*
X90908095Y-68032380D01*
X90527142Y-68032380D01*
X90431904Y-68080000D01*
X90384285Y-68127619D01*
X90336666Y-68222857D01*
X90336666Y-68365714D01*
X90384285Y-68460952D01*
X90431904Y-68508571D01*
X90527142Y-68556190D01*
X90908095Y-68556190D01*
X89431904Y-68032380D02*
X89908095Y-68032380D01*
X89955714Y-68508571D01*
X89908095Y-68460952D01*
X89812857Y-68413333D01*
X89574761Y-68413333D01*
X89479523Y-68460952D01*
X89431904Y-68508571D01*
X89384285Y-68603809D01*
X89384285Y-68841904D01*
X89431904Y-68937142D01*
X89479523Y-68984761D01*
X89574761Y-69032380D01*
X89812857Y-69032380D01*
X89908095Y-68984761D01*
X89955714Y-68937142D01*
X98101666Y-83087380D02*
X98435000Y-82611190D01*
X98673095Y-83087380D02*
X98673095Y-82087380D01*
X98292142Y-82087380D01*
X98196904Y-82135000D01*
X98149285Y-82182619D01*
X98101666Y-82277857D01*
X98101666Y-82420714D01*
X98149285Y-82515952D01*
X98196904Y-82563571D01*
X98292142Y-82611190D01*
X98673095Y-82611190D01*
X97244523Y-82420714D02*
X97244523Y-83087380D01*
X97482619Y-82039761D02*
X97720714Y-82754047D01*
X97101666Y-82754047D01*
X95561666Y-83087380D02*
X95895000Y-82611190D01*
X96133095Y-83087380D02*
X96133095Y-82087380D01*
X95752142Y-82087380D01*
X95656904Y-82135000D01*
X95609285Y-82182619D01*
X95561666Y-82277857D01*
X95561666Y-82420714D01*
X95609285Y-82515952D01*
X95656904Y-82563571D01*
X95752142Y-82611190D01*
X96133095Y-82611190D01*
X95228333Y-82087380D02*
X94609285Y-82087380D01*
X94942619Y-82468333D01*
X94799761Y-82468333D01*
X94704523Y-82515952D01*
X94656904Y-82563571D01*
X94609285Y-82658809D01*
X94609285Y-82896904D01*
X94656904Y-82992142D01*
X94704523Y-83039761D01*
X94799761Y-83087380D01*
X95085476Y-83087380D01*
X95180714Y-83039761D01*
X95228333Y-82992142D01*
X93021666Y-83087380D02*
X93355000Y-82611190D01*
X93593095Y-83087380D02*
X93593095Y-82087380D01*
X93212142Y-82087380D01*
X93116904Y-82135000D01*
X93069285Y-82182619D01*
X93021666Y-82277857D01*
X93021666Y-82420714D01*
X93069285Y-82515952D01*
X93116904Y-82563571D01*
X93212142Y-82611190D01*
X93593095Y-82611190D01*
X92640714Y-82182619D02*
X92593095Y-82135000D01*
X92497857Y-82087380D01*
X92259761Y-82087380D01*
X92164523Y-82135000D01*
X92116904Y-82182619D01*
X92069285Y-82277857D01*
X92069285Y-82373095D01*
X92116904Y-82515952D01*
X92688333Y-83087380D01*
X92069285Y-83087380D01*
X160948666Y-37977142D02*
X160996285Y-38024761D01*
X161139142Y-38072380D01*
X161234380Y-38072380D01*
X161377238Y-38024761D01*
X161472476Y-37929523D01*
X161520095Y-37834285D01*
X161567714Y-37643809D01*
X161567714Y-37500952D01*
X161520095Y-37310476D01*
X161472476Y-37215238D01*
X161377238Y-37120000D01*
X161234380Y-37072380D01*
X161139142Y-37072380D01*
X160996285Y-37120000D01*
X160948666Y-37167619D01*
X160567714Y-37167619D02*
X160520095Y-37120000D01*
X160424857Y-37072380D01*
X160186761Y-37072380D01*
X160091523Y-37120000D01*
X160043904Y-37167619D01*
X159996285Y-37262857D01*
X159996285Y-37358095D01*
X160043904Y-37500952D01*
X160615333Y-38072380D01*
X159996285Y-38072380D01*
X160476142Y-44156333D02*
X160523761Y-44108714D01*
X160571380Y-43965857D01*
X160571380Y-43870619D01*
X160523761Y-43727761D01*
X160428523Y-43632523D01*
X160333285Y-43584904D01*
X160142809Y-43537285D01*
X159999952Y-43537285D01*
X159809476Y-43584904D01*
X159714238Y-43632523D01*
X159619000Y-43727761D01*
X159571380Y-43870619D01*
X159571380Y-43965857D01*
X159619000Y-44108714D01*
X159666619Y-44156333D01*
X160571380Y-45108714D02*
X160571380Y-44537285D01*
X160571380Y-44823000D02*
X159571380Y-44823000D01*
X159714238Y-44727761D01*
X159809476Y-44632523D01*
X159857095Y-44537285D01*
M02*
