G04 #@! TF.GenerationSoftware,KiCad,Pcbnew,(5.1.6)-1*
G04 #@! TF.CreationDate,2021-05-11T11:26:14+01:00*
G04 #@! TF.ProjectId,cpu_exp_65xx_6x09,6370755f-6578-4705-9f36-3578785f3678,3.01*
G04 #@! TF.SameCoordinates,Original*
G04 #@! TF.FileFunction,Soldermask,Top*
G04 #@! TF.FilePolarity,Negative*
%FSLAX46Y46*%
G04 Gerber Fmt 4.6, Leading zero omitted, Abs format (unit mm)*
G04 Created by KiCad (PCBNEW (5.1.6)-1) date 2021-05-11 11:26:14*
%MOMM*%
%LPD*%
G01*
G04 APERTURE LIST*
%ADD10C,0.100000*%
G04 APERTURE END LIST*
D10*
G36*
X97903512Y-72763927D02*
G01*
X98052812Y-72793624D01*
X98216784Y-72861544D01*
X98364354Y-72960147D01*
X98489853Y-73085646D01*
X98588456Y-73233216D01*
X98656376Y-73397188D01*
X98691000Y-73571259D01*
X98691000Y-73748741D01*
X98656376Y-73922812D01*
X98588456Y-74086784D01*
X98489853Y-74234354D01*
X98364354Y-74359853D01*
X98216784Y-74458456D01*
X98052812Y-74526376D01*
X97903512Y-74556073D01*
X97878742Y-74561000D01*
X97701258Y-74561000D01*
X97676488Y-74556073D01*
X97527188Y-74526376D01*
X97363216Y-74458456D01*
X97215646Y-74359853D01*
X97090147Y-74234354D01*
X96991544Y-74086784D01*
X96923624Y-73922812D01*
X96889000Y-73748741D01*
X96889000Y-73571259D01*
X96923624Y-73397188D01*
X96991544Y-73233216D01*
X97090147Y-73085646D01*
X97215646Y-72960147D01*
X97363216Y-72861544D01*
X97527188Y-72793624D01*
X97676488Y-72763927D01*
X97701258Y-72759000D01*
X97878742Y-72759000D01*
X97903512Y-72763927D01*
G37*
G36*
X92823512Y-72763927D02*
G01*
X92972812Y-72793624D01*
X93136784Y-72861544D01*
X93284354Y-72960147D01*
X93409853Y-73085646D01*
X93508456Y-73233216D01*
X93576376Y-73397188D01*
X93611000Y-73571259D01*
X93611000Y-73748741D01*
X93576376Y-73922812D01*
X93508456Y-74086784D01*
X93409853Y-74234354D01*
X93284354Y-74359853D01*
X93136784Y-74458456D01*
X92972812Y-74526376D01*
X92823512Y-74556073D01*
X92798742Y-74561000D01*
X92621258Y-74561000D01*
X92596488Y-74556073D01*
X92447188Y-74526376D01*
X92283216Y-74458456D01*
X92135646Y-74359853D01*
X92010147Y-74234354D01*
X91911544Y-74086784D01*
X91843624Y-73922812D01*
X91809000Y-73748741D01*
X91809000Y-73571259D01*
X91843624Y-73397188D01*
X91911544Y-73233216D01*
X92010147Y-73085646D01*
X92135646Y-72960147D01*
X92283216Y-72861544D01*
X92447188Y-72793624D01*
X92596488Y-72763927D01*
X92621258Y-72759000D01*
X92798742Y-72759000D01*
X92823512Y-72763927D01*
G37*
G36*
X91071000Y-74561000D02*
G01*
X89269000Y-74561000D01*
X89269000Y-72759000D01*
X91071000Y-72759000D01*
X91071000Y-74561000D01*
G37*
G36*
X95363512Y-72763927D02*
G01*
X95512812Y-72793624D01*
X95676784Y-72861544D01*
X95824354Y-72960147D01*
X95949853Y-73085646D01*
X96048456Y-73233216D01*
X96116376Y-73397188D01*
X96151000Y-73571259D01*
X96151000Y-73748741D01*
X96116376Y-73922812D01*
X96048456Y-74086784D01*
X95949853Y-74234354D01*
X95824354Y-74359853D01*
X95676784Y-74458456D01*
X95512812Y-74526376D01*
X95363512Y-74556073D01*
X95338742Y-74561000D01*
X95161258Y-74561000D01*
X95136488Y-74556073D01*
X94987188Y-74526376D01*
X94823216Y-74458456D01*
X94675646Y-74359853D01*
X94550147Y-74234354D01*
X94451544Y-74086784D01*
X94383624Y-73922812D01*
X94349000Y-73748741D01*
X94349000Y-73571259D01*
X94383624Y-73397188D01*
X94451544Y-73233216D01*
X94550147Y-73085646D01*
X94675646Y-72960147D01*
X94823216Y-72861544D01*
X94987188Y-72793624D01*
X95136488Y-72763927D01*
X95161258Y-72759000D01*
X95338742Y-72759000D01*
X95363512Y-72763927D01*
G37*
G36*
X92823512Y-70223927D02*
G01*
X92972812Y-70253624D01*
X93136784Y-70321544D01*
X93284354Y-70420147D01*
X93409853Y-70545646D01*
X93508456Y-70693216D01*
X93576376Y-70857188D01*
X93611000Y-71031259D01*
X93611000Y-71208741D01*
X93576376Y-71382812D01*
X93508456Y-71546784D01*
X93409853Y-71694354D01*
X93284354Y-71819853D01*
X93136784Y-71918456D01*
X92972812Y-71986376D01*
X92823512Y-72016073D01*
X92798742Y-72021000D01*
X92621258Y-72021000D01*
X92596488Y-72016073D01*
X92447188Y-71986376D01*
X92283216Y-71918456D01*
X92135646Y-71819853D01*
X92010147Y-71694354D01*
X91911544Y-71546784D01*
X91843624Y-71382812D01*
X91809000Y-71208741D01*
X91809000Y-71031259D01*
X91843624Y-70857188D01*
X91911544Y-70693216D01*
X92010147Y-70545646D01*
X92135646Y-70420147D01*
X92283216Y-70321544D01*
X92447188Y-70253624D01*
X92596488Y-70223927D01*
X92621258Y-70219000D01*
X92798742Y-70219000D01*
X92823512Y-70223927D01*
G37*
G36*
X97903512Y-70223927D02*
G01*
X98052812Y-70253624D01*
X98216784Y-70321544D01*
X98364354Y-70420147D01*
X98489853Y-70545646D01*
X98588456Y-70693216D01*
X98656376Y-70857188D01*
X98691000Y-71031259D01*
X98691000Y-71208741D01*
X98656376Y-71382812D01*
X98588456Y-71546784D01*
X98489853Y-71694354D01*
X98364354Y-71819853D01*
X98216784Y-71918456D01*
X98052812Y-71986376D01*
X97903512Y-72016073D01*
X97878742Y-72021000D01*
X97701258Y-72021000D01*
X97676488Y-72016073D01*
X97527188Y-71986376D01*
X97363216Y-71918456D01*
X97215646Y-71819853D01*
X97090147Y-71694354D01*
X96991544Y-71546784D01*
X96923624Y-71382812D01*
X96889000Y-71208741D01*
X96889000Y-71031259D01*
X96923624Y-70857188D01*
X96991544Y-70693216D01*
X97090147Y-70545646D01*
X97215646Y-70420147D01*
X97363216Y-70321544D01*
X97527188Y-70253624D01*
X97676488Y-70223927D01*
X97701258Y-70219000D01*
X97878742Y-70219000D01*
X97903512Y-70223927D01*
G37*
G36*
X95363512Y-70223927D02*
G01*
X95512812Y-70253624D01*
X95676784Y-70321544D01*
X95824354Y-70420147D01*
X95949853Y-70545646D01*
X96048456Y-70693216D01*
X96116376Y-70857188D01*
X96151000Y-71031259D01*
X96151000Y-71208741D01*
X96116376Y-71382812D01*
X96048456Y-71546784D01*
X95949853Y-71694354D01*
X95824354Y-71819853D01*
X95676784Y-71918456D01*
X95512812Y-71986376D01*
X95363512Y-72016073D01*
X95338742Y-72021000D01*
X95161258Y-72021000D01*
X95136488Y-72016073D01*
X94987188Y-71986376D01*
X94823216Y-71918456D01*
X94675646Y-71819853D01*
X94550147Y-71694354D01*
X94451544Y-71546784D01*
X94383624Y-71382812D01*
X94349000Y-71208741D01*
X94349000Y-71031259D01*
X94383624Y-70857188D01*
X94451544Y-70693216D01*
X94550147Y-70545646D01*
X94675646Y-70420147D01*
X94823216Y-70321544D01*
X94987188Y-70253624D01*
X95136488Y-70223927D01*
X95161258Y-70219000D01*
X95338742Y-70219000D01*
X95363512Y-70223927D01*
G37*
G36*
X90283512Y-70223927D02*
G01*
X90432812Y-70253624D01*
X90596784Y-70321544D01*
X90744354Y-70420147D01*
X90869853Y-70545646D01*
X90968456Y-70693216D01*
X91036376Y-70857188D01*
X91071000Y-71031259D01*
X91071000Y-71208741D01*
X91036376Y-71382812D01*
X90968456Y-71546784D01*
X90869853Y-71694354D01*
X90744354Y-71819853D01*
X90596784Y-71918456D01*
X90432812Y-71986376D01*
X90283512Y-72016073D01*
X90258742Y-72021000D01*
X90081258Y-72021000D01*
X90056488Y-72016073D01*
X89907188Y-71986376D01*
X89743216Y-71918456D01*
X89595646Y-71819853D01*
X89470147Y-71694354D01*
X89371544Y-71546784D01*
X89303624Y-71382812D01*
X89269000Y-71208741D01*
X89269000Y-71031259D01*
X89303624Y-70857188D01*
X89371544Y-70693216D01*
X89470147Y-70545646D01*
X89595646Y-70420147D01*
X89743216Y-70321544D01*
X89907188Y-70253624D01*
X90056488Y-70223927D01*
X90081258Y-70219000D01*
X90258742Y-70219000D01*
X90283512Y-70223927D01*
G37*
G36*
X152513512Y-67683927D02*
G01*
X152662812Y-67713624D01*
X152826784Y-67781544D01*
X152974354Y-67880147D01*
X153099853Y-68005646D01*
X153198456Y-68153216D01*
X153266376Y-68317188D01*
X153301000Y-68491259D01*
X153301000Y-68668741D01*
X153266376Y-68842812D01*
X153198456Y-69006784D01*
X153099853Y-69154354D01*
X152974354Y-69279853D01*
X152826784Y-69378456D01*
X152662812Y-69446376D01*
X152513512Y-69476073D01*
X152488742Y-69481000D01*
X152311258Y-69481000D01*
X152286488Y-69476073D01*
X152137188Y-69446376D01*
X151973216Y-69378456D01*
X151825646Y-69279853D01*
X151700147Y-69154354D01*
X151601544Y-69006784D01*
X151533624Y-68842812D01*
X151499000Y-68668741D01*
X151499000Y-68491259D01*
X151533624Y-68317188D01*
X151601544Y-68153216D01*
X151700147Y-68005646D01*
X151825646Y-67880147D01*
X151973216Y-67781544D01*
X152137188Y-67713624D01*
X152286488Y-67683927D01*
X152311258Y-67679000D01*
X152488742Y-67679000D01*
X152513512Y-67683927D01*
G37*
G36*
X134733512Y-67683927D02*
G01*
X134882812Y-67713624D01*
X135046784Y-67781544D01*
X135194354Y-67880147D01*
X135319853Y-68005646D01*
X135418456Y-68153216D01*
X135486376Y-68317188D01*
X135521000Y-68491259D01*
X135521000Y-68668741D01*
X135486376Y-68842812D01*
X135418456Y-69006784D01*
X135319853Y-69154354D01*
X135194354Y-69279853D01*
X135046784Y-69378456D01*
X134882812Y-69446376D01*
X134733512Y-69476073D01*
X134708742Y-69481000D01*
X134531258Y-69481000D01*
X134506488Y-69476073D01*
X134357188Y-69446376D01*
X134193216Y-69378456D01*
X134045646Y-69279853D01*
X133920147Y-69154354D01*
X133821544Y-69006784D01*
X133753624Y-68842812D01*
X133719000Y-68668741D01*
X133719000Y-68491259D01*
X133753624Y-68317188D01*
X133821544Y-68153216D01*
X133920147Y-68005646D01*
X134045646Y-67880147D01*
X134193216Y-67781544D01*
X134357188Y-67713624D01*
X134506488Y-67683927D01*
X134531258Y-67679000D01*
X134708742Y-67679000D01*
X134733512Y-67683927D01*
G37*
G36*
X137273512Y-67683927D02*
G01*
X137422812Y-67713624D01*
X137586784Y-67781544D01*
X137734354Y-67880147D01*
X137859853Y-68005646D01*
X137958456Y-68153216D01*
X138026376Y-68317188D01*
X138061000Y-68491259D01*
X138061000Y-68668741D01*
X138026376Y-68842812D01*
X137958456Y-69006784D01*
X137859853Y-69154354D01*
X137734354Y-69279853D01*
X137586784Y-69378456D01*
X137422812Y-69446376D01*
X137273512Y-69476073D01*
X137248742Y-69481000D01*
X137071258Y-69481000D01*
X137046488Y-69476073D01*
X136897188Y-69446376D01*
X136733216Y-69378456D01*
X136585646Y-69279853D01*
X136460147Y-69154354D01*
X136361544Y-69006784D01*
X136293624Y-68842812D01*
X136259000Y-68668741D01*
X136259000Y-68491259D01*
X136293624Y-68317188D01*
X136361544Y-68153216D01*
X136460147Y-68005646D01*
X136585646Y-67880147D01*
X136733216Y-67781544D01*
X136897188Y-67713624D01*
X137046488Y-67683927D01*
X137071258Y-67679000D01*
X137248742Y-67679000D01*
X137273512Y-67683927D01*
G37*
G36*
X139813512Y-67683927D02*
G01*
X139962812Y-67713624D01*
X140126784Y-67781544D01*
X140274354Y-67880147D01*
X140399853Y-68005646D01*
X140498456Y-68153216D01*
X140566376Y-68317188D01*
X140601000Y-68491259D01*
X140601000Y-68668741D01*
X140566376Y-68842812D01*
X140498456Y-69006784D01*
X140399853Y-69154354D01*
X140274354Y-69279853D01*
X140126784Y-69378456D01*
X139962812Y-69446376D01*
X139813512Y-69476073D01*
X139788742Y-69481000D01*
X139611258Y-69481000D01*
X139586488Y-69476073D01*
X139437188Y-69446376D01*
X139273216Y-69378456D01*
X139125646Y-69279853D01*
X139000147Y-69154354D01*
X138901544Y-69006784D01*
X138833624Y-68842812D01*
X138799000Y-68668741D01*
X138799000Y-68491259D01*
X138833624Y-68317188D01*
X138901544Y-68153216D01*
X139000147Y-68005646D01*
X139125646Y-67880147D01*
X139273216Y-67781544D01*
X139437188Y-67713624D01*
X139586488Y-67683927D01*
X139611258Y-67679000D01*
X139788742Y-67679000D01*
X139813512Y-67683927D01*
G37*
G36*
X142353512Y-67683927D02*
G01*
X142502812Y-67713624D01*
X142666784Y-67781544D01*
X142814354Y-67880147D01*
X142939853Y-68005646D01*
X143038456Y-68153216D01*
X143106376Y-68317188D01*
X143141000Y-68491259D01*
X143141000Y-68668741D01*
X143106376Y-68842812D01*
X143038456Y-69006784D01*
X142939853Y-69154354D01*
X142814354Y-69279853D01*
X142666784Y-69378456D01*
X142502812Y-69446376D01*
X142353512Y-69476073D01*
X142328742Y-69481000D01*
X142151258Y-69481000D01*
X142126488Y-69476073D01*
X141977188Y-69446376D01*
X141813216Y-69378456D01*
X141665646Y-69279853D01*
X141540147Y-69154354D01*
X141441544Y-69006784D01*
X141373624Y-68842812D01*
X141339000Y-68668741D01*
X141339000Y-68491259D01*
X141373624Y-68317188D01*
X141441544Y-68153216D01*
X141540147Y-68005646D01*
X141665646Y-67880147D01*
X141813216Y-67781544D01*
X141977188Y-67713624D01*
X142126488Y-67683927D01*
X142151258Y-67679000D01*
X142328742Y-67679000D01*
X142353512Y-67683927D01*
G37*
G36*
X144893512Y-67683927D02*
G01*
X145042812Y-67713624D01*
X145206784Y-67781544D01*
X145354354Y-67880147D01*
X145479853Y-68005646D01*
X145578456Y-68153216D01*
X145646376Y-68317188D01*
X145681000Y-68491259D01*
X145681000Y-68668741D01*
X145646376Y-68842812D01*
X145578456Y-69006784D01*
X145479853Y-69154354D01*
X145354354Y-69279853D01*
X145206784Y-69378456D01*
X145042812Y-69446376D01*
X144893512Y-69476073D01*
X144868742Y-69481000D01*
X144691258Y-69481000D01*
X144666488Y-69476073D01*
X144517188Y-69446376D01*
X144353216Y-69378456D01*
X144205646Y-69279853D01*
X144080147Y-69154354D01*
X143981544Y-69006784D01*
X143913624Y-68842812D01*
X143879000Y-68668741D01*
X143879000Y-68491259D01*
X143913624Y-68317188D01*
X143981544Y-68153216D01*
X144080147Y-68005646D01*
X144205646Y-67880147D01*
X144353216Y-67781544D01*
X144517188Y-67713624D01*
X144666488Y-67683927D01*
X144691258Y-67679000D01*
X144868742Y-67679000D01*
X144893512Y-67683927D01*
G37*
G36*
X147433512Y-67683927D02*
G01*
X147582812Y-67713624D01*
X147746784Y-67781544D01*
X147894354Y-67880147D01*
X148019853Y-68005646D01*
X148118456Y-68153216D01*
X148186376Y-68317188D01*
X148221000Y-68491259D01*
X148221000Y-68668741D01*
X148186376Y-68842812D01*
X148118456Y-69006784D01*
X148019853Y-69154354D01*
X147894354Y-69279853D01*
X147746784Y-69378456D01*
X147582812Y-69446376D01*
X147433512Y-69476073D01*
X147408742Y-69481000D01*
X147231258Y-69481000D01*
X147206488Y-69476073D01*
X147057188Y-69446376D01*
X146893216Y-69378456D01*
X146745646Y-69279853D01*
X146620147Y-69154354D01*
X146521544Y-69006784D01*
X146453624Y-68842812D01*
X146419000Y-68668741D01*
X146419000Y-68491259D01*
X146453624Y-68317188D01*
X146521544Y-68153216D01*
X146620147Y-68005646D01*
X146745646Y-67880147D01*
X146893216Y-67781544D01*
X147057188Y-67713624D01*
X147206488Y-67683927D01*
X147231258Y-67679000D01*
X147408742Y-67679000D01*
X147433512Y-67683927D01*
G37*
G36*
X149973512Y-67683927D02*
G01*
X150122812Y-67713624D01*
X150286784Y-67781544D01*
X150434354Y-67880147D01*
X150559853Y-68005646D01*
X150658456Y-68153216D01*
X150726376Y-68317188D01*
X150761000Y-68491259D01*
X150761000Y-68668741D01*
X150726376Y-68842812D01*
X150658456Y-69006784D01*
X150559853Y-69154354D01*
X150434354Y-69279853D01*
X150286784Y-69378456D01*
X150122812Y-69446376D01*
X149973512Y-69476073D01*
X149948742Y-69481000D01*
X149771258Y-69481000D01*
X149746488Y-69476073D01*
X149597188Y-69446376D01*
X149433216Y-69378456D01*
X149285646Y-69279853D01*
X149160147Y-69154354D01*
X149061544Y-69006784D01*
X148993624Y-68842812D01*
X148959000Y-68668741D01*
X148959000Y-68491259D01*
X148993624Y-68317188D01*
X149061544Y-68153216D01*
X149160147Y-68005646D01*
X149285646Y-67880147D01*
X149433216Y-67781544D01*
X149597188Y-67713624D01*
X149746488Y-67683927D01*
X149771258Y-67679000D01*
X149948742Y-67679000D01*
X149973512Y-67683927D01*
G37*
G36*
X132193512Y-67683927D02*
G01*
X132342812Y-67713624D01*
X132506784Y-67781544D01*
X132654354Y-67880147D01*
X132779853Y-68005646D01*
X132878456Y-68153216D01*
X132946376Y-68317188D01*
X132981000Y-68491259D01*
X132981000Y-68668741D01*
X132946376Y-68842812D01*
X132878456Y-69006784D01*
X132779853Y-69154354D01*
X132654354Y-69279853D01*
X132506784Y-69378456D01*
X132342812Y-69446376D01*
X132193512Y-69476073D01*
X132168742Y-69481000D01*
X131991258Y-69481000D01*
X131966488Y-69476073D01*
X131817188Y-69446376D01*
X131653216Y-69378456D01*
X131505646Y-69279853D01*
X131380147Y-69154354D01*
X131281544Y-69006784D01*
X131213624Y-68842812D01*
X131179000Y-68668741D01*
X131179000Y-68491259D01*
X131213624Y-68317188D01*
X131281544Y-68153216D01*
X131380147Y-68005646D01*
X131505646Y-67880147D01*
X131653216Y-67781544D01*
X131817188Y-67713624D01*
X131966488Y-67683927D01*
X131991258Y-67679000D01*
X132168742Y-67679000D01*
X132193512Y-67683927D01*
G37*
G36*
X129653512Y-67683927D02*
G01*
X129802812Y-67713624D01*
X129966784Y-67781544D01*
X130114354Y-67880147D01*
X130239853Y-68005646D01*
X130338456Y-68153216D01*
X130406376Y-68317188D01*
X130441000Y-68491259D01*
X130441000Y-68668741D01*
X130406376Y-68842812D01*
X130338456Y-69006784D01*
X130239853Y-69154354D01*
X130114354Y-69279853D01*
X129966784Y-69378456D01*
X129802812Y-69446376D01*
X129653512Y-69476073D01*
X129628742Y-69481000D01*
X129451258Y-69481000D01*
X129426488Y-69476073D01*
X129277188Y-69446376D01*
X129113216Y-69378456D01*
X128965646Y-69279853D01*
X128840147Y-69154354D01*
X128741544Y-69006784D01*
X128673624Y-68842812D01*
X128639000Y-68668741D01*
X128639000Y-68491259D01*
X128673624Y-68317188D01*
X128741544Y-68153216D01*
X128840147Y-68005646D01*
X128965646Y-67880147D01*
X129113216Y-67781544D01*
X129277188Y-67713624D01*
X129426488Y-67683927D01*
X129451258Y-67679000D01*
X129628742Y-67679000D01*
X129653512Y-67683927D01*
G37*
G36*
X127113512Y-67683927D02*
G01*
X127262812Y-67713624D01*
X127426784Y-67781544D01*
X127574354Y-67880147D01*
X127699853Y-68005646D01*
X127798456Y-68153216D01*
X127866376Y-68317188D01*
X127901000Y-68491259D01*
X127901000Y-68668741D01*
X127866376Y-68842812D01*
X127798456Y-69006784D01*
X127699853Y-69154354D01*
X127574354Y-69279853D01*
X127426784Y-69378456D01*
X127262812Y-69446376D01*
X127113512Y-69476073D01*
X127088742Y-69481000D01*
X126911258Y-69481000D01*
X126886488Y-69476073D01*
X126737188Y-69446376D01*
X126573216Y-69378456D01*
X126425646Y-69279853D01*
X126300147Y-69154354D01*
X126201544Y-69006784D01*
X126133624Y-68842812D01*
X126099000Y-68668741D01*
X126099000Y-68491259D01*
X126133624Y-68317188D01*
X126201544Y-68153216D01*
X126300147Y-68005646D01*
X126425646Y-67880147D01*
X126573216Y-67781544D01*
X126737188Y-67713624D01*
X126886488Y-67683927D01*
X126911258Y-67679000D01*
X127088742Y-67679000D01*
X127113512Y-67683927D01*
G37*
G36*
X124573512Y-67683927D02*
G01*
X124722812Y-67713624D01*
X124886784Y-67781544D01*
X125034354Y-67880147D01*
X125159853Y-68005646D01*
X125258456Y-68153216D01*
X125326376Y-68317188D01*
X125361000Y-68491259D01*
X125361000Y-68668741D01*
X125326376Y-68842812D01*
X125258456Y-69006784D01*
X125159853Y-69154354D01*
X125034354Y-69279853D01*
X124886784Y-69378456D01*
X124722812Y-69446376D01*
X124573512Y-69476073D01*
X124548742Y-69481000D01*
X124371258Y-69481000D01*
X124346488Y-69476073D01*
X124197188Y-69446376D01*
X124033216Y-69378456D01*
X123885646Y-69279853D01*
X123760147Y-69154354D01*
X123661544Y-69006784D01*
X123593624Y-68842812D01*
X123559000Y-68668741D01*
X123559000Y-68491259D01*
X123593624Y-68317188D01*
X123661544Y-68153216D01*
X123760147Y-68005646D01*
X123885646Y-67880147D01*
X124033216Y-67781544D01*
X124197188Y-67713624D01*
X124346488Y-67683927D01*
X124371258Y-67679000D01*
X124548742Y-67679000D01*
X124573512Y-67683927D01*
G37*
G36*
X122033512Y-67683927D02*
G01*
X122182812Y-67713624D01*
X122346784Y-67781544D01*
X122494354Y-67880147D01*
X122619853Y-68005646D01*
X122718456Y-68153216D01*
X122786376Y-68317188D01*
X122821000Y-68491259D01*
X122821000Y-68668741D01*
X122786376Y-68842812D01*
X122718456Y-69006784D01*
X122619853Y-69154354D01*
X122494354Y-69279853D01*
X122346784Y-69378456D01*
X122182812Y-69446376D01*
X122033512Y-69476073D01*
X122008742Y-69481000D01*
X121831258Y-69481000D01*
X121806488Y-69476073D01*
X121657188Y-69446376D01*
X121493216Y-69378456D01*
X121345646Y-69279853D01*
X121220147Y-69154354D01*
X121121544Y-69006784D01*
X121053624Y-68842812D01*
X121019000Y-68668741D01*
X121019000Y-68491259D01*
X121053624Y-68317188D01*
X121121544Y-68153216D01*
X121220147Y-68005646D01*
X121345646Y-67880147D01*
X121493216Y-67781544D01*
X121657188Y-67713624D01*
X121806488Y-67683927D01*
X121831258Y-67679000D01*
X122008742Y-67679000D01*
X122033512Y-67683927D01*
G37*
G36*
X119493512Y-67683927D02*
G01*
X119642812Y-67713624D01*
X119806784Y-67781544D01*
X119954354Y-67880147D01*
X120079853Y-68005646D01*
X120178456Y-68153216D01*
X120246376Y-68317188D01*
X120281000Y-68491259D01*
X120281000Y-68668741D01*
X120246376Y-68842812D01*
X120178456Y-69006784D01*
X120079853Y-69154354D01*
X119954354Y-69279853D01*
X119806784Y-69378456D01*
X119642812Y-69446376D01*
X119493512Y-69476073D01*
X119468742Y-69481000D01*
X119291258Y-69481000D01*
X119266488Y-69476073D01*
X119117188Y-69446376D01*
X118953216Y-69378456D01*
X118805646Y-69279853D01*
X118680147Y-69154354D01*
X118581544Y-69006784D01*
X118513624Y-68842812D01*
X118479000Y-68668741D01*
X118479000Y-68491259D01*
X118513624Y-68317188D01*
X118581544Y-68153216D01*
X118680147Y-68005646D01*
X118805646Y-67880147D01*
X118953216Y-67781544D01*
X119117188Y-67713624D01*
X119266488Y-67683927D01*
X119291258Y-67679000D01*
X119468742Y-67679000D01*
X119493512Y-67683927D01*
G37*
G36*
X116953512Y-67683927D02*
G01*
X117102812Y-67713624D01*
X117266784Y-67781544D01*
X117414354Y-67880147D01*
X117539853Y-68005646D01*
X117638456Y-68153216D01*
X117706376Y-68317188D01*
X117741000Y-68491259D01*
X117741000Y-68668741D01*
X117706376Y-68842812D01*
X117638456Y-69006784D01*
X117539853Y-69154354D01*
X117414354Y-69279853D01*
X117266784Y-69378456D01*
X117102812Y-69446376D01*
X116953512Y-69476073D01*
X116928742Y-69481000D01*
X116751258Y-69481000D01*
X116726488Y-69476073D01*
X116577188Y-69446376D01*
X116413216Y-69378456D01*
X116265646Y-69279853D01*
X116140147Y-69154354D01*
X116041544Y-69006784D01*
X115973624Y-68842812D01*
X115939000Y-68668741D01*
X115939000Y-68491259D01*
X115973624Y-68317188D01*
X116041544Y-68153216D01*
X116140147Y-68005646D01*
X116265646Y-67880147D01*
X116413216Y-67781544D01*
X116577188Y-67713624D01*
X116726488Y-67683927D01*
X116751258Y-67679000D01*
X116928742Y-67679000D01*
X116953512Y-67683927D01*
G37*
G36*
X114413512Y-67683927D02*
G01*
X114562812Y-67713624D01*
X114726784Y-67781544D01*
X114874354Y-67880147D01*
X114999853Y-68005646D01*
X115098456Y-68153216D01*
X115166376Y-68317188D01*
X115201000Y-68491259D01*
X115201000Y-68668741D01*
X115166376Y-68842812D01*
X115098456Y-69006784D01*
X114999853Y-69154354D01*
X114874354Y-69279853D01*
X114726784Y-69378456D01*
X114562812Y-69446376D01*
X114413512Y-69476073D01*
X114388742Y-69481000D01*
X114211258Y-69481000D01*
X114186488Y-69476073D01*
X114037188Y-69446376D01*
X113873216Y-69378456D01*
X113725646Y-69279853D01*
X113600147Y-69154354D01*
X113501544Y-69006784D01*
X113433624Y-68842812D01*
X113399000Y-68668741D01*
X113399000Y-68491259D01*
X113433624Y-68317188D01*
X113501544Y-68153216D01*
X113600147Y-68005646D01*
X113725646Y-67880147D01*
X113873216Y-67781544D01*
X114037188Y-67713624D01*
X114186488Y-67683927D01*
X114211258Y-67679000D01*
X114388742Y-67679000D01*
X114413512Y-67683927D01*
G37*
G36*
X155841000Y-69481000D02*
G01*
X154039000Y-69481000D01*
X154039000Y-67679000D01*
X155841000Y-67679000D01*
X155841000Y-69481000D01*
G37*
G36*
X134733512Y-62603927D02*
G01*
X134882812Y-62633624D01*
X135046784Y-62701544D01*
X135194354Y-62800147D01*
X135319853Y-62925646D01*
X135418456Y-63073216D01*
X135486376Y-63237188D01*
X135521000Y-63411259D01*
X135521000Y-63588741D01*
X135486376Y-63762812D01*
X135418456Y-63926784D01*
X135319853Y-64074354D01*
X135194354Y-64199853D01*
X135046784Y-64298456D01*
X134882812Y-64366376D01*
X134733512Y-64396073D01*
X134708742Y-64401000D01*
X134531258Y-64401000D01*
X134506488Y-64396073D01*
X134357188Y-64366376D01*
X134193216Y-64298456D01*
X134045646Y-64199853D01*
X133920147Y-64074354D01*
X133821544Y-63926784D01*
X133753624Y-63762812D01*
X133719000Y-63588741D01*
X133719000Y-63411259D01*
X133753624Y-63237188D01*
X133821544Y-63073216D01*
X133920147Y-62925646D01*
X134045646Y-62800147D01*
X134193216Y-62701544D01*
X134357188Y-62633624D01*
X134506488Y-62603927D01*
X134531258Y-62599000D01*
X134708742Y-62599000D01*
X134733512Y-62603927D01*
G37*
G36*
X137273512Y-62603927D02*
G01*
X137422812Y-62633624D01*
X137586784Y-62701544D01*
X137734354Y-62800147D01*
X137859853Y-62925646D01*
X137958456Y-63073216D01*
X138026376Y-63237188D01*
X138061000Y-63411259D01*
X138061000Y-63588741D01*
X138026376Y-63762812D01*
X137958456Y-63926784D01*
X137859853Y-64074354D01*
X137734354Y-64199853D01*
X137586784Y-64298456D01*
X137422812Y-64366376D01*
X137273512Y-64396073D01*
X137248742Y-64401000D01*
X137071258Y-64401000D01*
X137046488Y-64396073D01*
X136897188Y-64366376D01*
X136733216Y-64298456D01*
X136585646Y-64199853D01*
X136460147Y-64074354D01*
X136361544Y-63926784D01*
X136293624Y-63762812D01*
X136259000Y-63588741D01*
X136259000Y-63411259D01*
X136293624Y-63237188D01*
X136361544Y-63073216D01*
X136460147Y-62925646D01*
X136585646Y-62800147D01*
X136733216Y-62701544D01*
X136897188Y-62633624D01*
X137046488Y-62603927D01*
X137071258Y-62599000D01*
X137248742Y-62599000D01*
X137273512Y-62603927D01*
G37*
G36*
X139813512Y-62603927D02*
G01*
X139962812Y-62633624D01*
X140126784Y-62701544D01*
X140274354Y-62800147D01*
X140399853Y-62925646D01*
X140498456Y-63073216D01*
X140566376Y-63237188D01*
X140601000Y-63411259D01*
X140601000Y-63588741D01*
X140566376Y-63762812D01*
X140498456Y-63926784D01*
X140399853Y-64074354D01*
X140274354Y-64199853D01*
X140126784Y-64298456D01*
X139962812Y-64366376D01*
X139813512Y-64396073D01*
X139788742Y-64401000D01*
X139611258Y-64401000D01*
X139586488Y-64396073D01*
X139437188Y-64366376D01*
X139273216Y-64298456D01*
X139125646Y-64199853D01*
X139000147Y-64074354D01*
X138901544Y-63926784D01*
X138833624Y-63762812D01*
X138799000Y-63588741D01*
X138799000Y-63411259D01*
X138833624Y-63237188D01*
X138901544Y-63073216D01*
X139000147Y-62925646D01*
X139125646Y-62800147D01*
X139273216Y-62701544D01*
X139437188Y-62633624D01*
X139586488Y-62603927D01*
X139611258Y-62599000D01*
X139788742Y-62599000D01*
X139813512Y-62603927D01*
G37*
G36*
X142353512Y-62603927D02*
G01*
X142502812Y-62633624D01*
X142666784Y-62701544D01*
X142814354Y-62800147D01*
X142939853Y-62925646D01*
X143038456Y-63073216D01*
X143106376Y-63237188D01*
X143141000Y-63411259D01*
X143141000Y-63588741D01*
X143106376Y-63762812D01*
X143038456Y-63926784D01*
X142939853Y-64074354D01*
X142814354Y-64199853D01*
X142666784Y-64298456D01*
X142502812Y-64366376D01*
X142353512Y-64396073D01*
X142328742Y-64401000D01*
X142151258Y-64401000D01*
X142126488Y-64396073D01*
X141977188Y-64366376D01*
X141813216Y-64298456D01*
X141665646Y-64199853D01*
X141540147Y-64074354D01*
X141441544Y-63926784D01*
X141373624Y-63762812D01*
X141339000Y-63588741D01*
X141339000Y-63411259D01*
X141373624Y-63237188D01*
X141441544Y-63073216D01*
X141540147Y-62925646D01*
X141665646Y-62800147D01*
X141813216Y-62701544D01*
X141977188Y-62633624D01*
X142126488Y-62603927D01*
X142151258Y-62599000D01*
X142328742Y-62599000D01*
X142353512Y-62603927D01*
G37*
G36*
X147433512Y-62603927D02*
G01*
X147582812Y-62633624D01*
X147746784Y-62701544D01*
X147894354Y-62800147D01*
X148019853Y-62925646D01*
X148118456Y-63073216D01*
X148186376Y-63237188D01*
X148221000Y-63411259D01*
X148221000Y-63588741D01*
X148186376Y-63762812D01*
X148118456Y-63926784D01*
X148019853Y-64074354D01*
X147894354Y-64199853D01*
X147746784Y-64298456D01*
X147582812Y-64366376D01*
X147433512Y-64396073D01*
X147408742Y-64401000D01*
X147231258Y-64401000D01*
X147206488Y-64396073D01*
X147057188Y-64366376D01*
X146893216Y-64298456D01*
X146745646Y-64199853D01*
X146620147Y-64074354D01*
X146521544Y-63926784D01*
X146453624Y-63762812D01*
X146419000Y-63588741D01*
X146419000Y-63411259D01*
X146453624Y-63237188D01*
X146521544Y-63073216D01*
X146620147Y-62925646D01*
X146745646Y-62800147D01*
X146893216Y-62701544D01*
X147057188Y-62633624D01*
X147206488Y-62603927D01*
X147231258Y-62599000D01*
X147408742Y-62599000D01*
X147433512Y-62603927D01*
G37*
G36*
X149973512Y-62603927D02*
G01*
X150122812Y-62633624D01*
X150286784Y-62701544D01*
X150434354Y-62800147D01*
X150559853Y-62925646D01*
X150658456Y-63073216D01*
X150726376Y-63237188D01*
X150761000Y-63411259D01*
X150761000Y-63588741D01*
X150726376Y-63762812D01*
X150658456Y-63926784D01*
X150559853Y-64074354D01*
X150434354Y-64199853D01*
X150286784Y-64298456D01*
X150122812Y-64366376D01*
X149973512Y-64396073D01*
X149948742Y-64401000D01*
X149771258Y-64401000D01*
X149746488Y-64396073D01*
X149597188Y-64366376D01*
X149433216Y-64298456D01*
X149285646Y-64199853D01*
X149160147Y-64074354D01*
X149061544Y-63926784D01*
X148993624Y-63762812D01*
X148959000Y-63588741D01*
X148959000Y-63411259D01*
X148993624Y-63237188D01*
X149061544Y-63073216D01*
X149160147Y-62925646D01*
X149285646Y-62800147D01*
X149433216Y-62701544D01*
X149597188Y-62633624D01*
X149746488Y-62603927D01*
X149771258Y-62599000D01*
X149948742Y-62599000D01*
X149973512Y-62603927D01*
G37*
G36*
X152513512Y-62603927D02*
G01*
X152662812Y-62633624D01*
X152826784Y-62701544D01*
X152974354Y-62800147D01*
X153099853Y-62925646D01*
X153198456Y-63073216D01*
X153266376Y-63237188D01*
X153301000Y-63411259D01*
X153301000Y-63588741D01*
X153266376Y-63762812D01*
X153198456Y-63926784D01*
X153099853Y-64074354D01*
X152974354Y-64199853D01*
X152826784Y-64298456D01*
X152662812Y-64366376D01*
X152513512Y-64396073D01*
X152488742Y-64401000D01*
X152311258Y-64401000D01*
X152286488Y-64396073D01*
X152137188Y-64366376D01*
X151973216Y-64298456D01*
X151825646Y-64199853D01*
X151700147Y-64074354D01*
X151601544Y-63926784D01*
X151533624Y-63762812D01*
X151499000Y-63588741D01*
X151499000Y-63411259D01*
X151533624Y-63237188D01*
X151601544Y-63073216D01*
X151700147Y-62925646D01*
X151825646Y-62800147D01*
X151973216Y-62701544D01*
X152137188Y-62633624D01*
X152286488Y-62603927D01*
X152311258Y-62599000D01*
X152488742Y-62599000D01*
X152513512Y-62603927D01*
G37*
G36*
X155053512Y-62603927D02*
G01*
X155202812Y-62633624D01*
X155366784Y-62701544D01*
X155514354Y-62800147D01*
X155639853Y-62925646D01*
X155738456Y-63073216D01*
X155806376Y-63237188D01*
X155841000Y-63411259D01*
X155841000Y-63588741D01*
X155806376Y-63762812D01*
X155738456Y-63926784D01*
X155639853Y-64074354D01*
X155514354Y-64199853D01*
X155366784Y-64298456D01*
X155202812Y-64366376D01*
X155053512Y-64396073D01*
X155028742Y-64401000D01*
X154851258Y-64401000D01*
X154826488Y-64396073D01*
X154677188Y-64366376D01*
X154513216Y-64298456D01*
X154365646Y-64199853D01*
X154240147Y-64074354D01*
X154141544Y-63926784D01*
X154073624Y-63762812D01*
X154039000Y-63588741D01*
X154039000Y-63411259D01*
X154073624Y-63237188D01*
X154141544Y-63073216D01*
X154240147Y-62925646D01*
X154365646Y-62800147D01*
X154513216Y-62701544D01*
X154677188Y-62633624D01*
X154826488Y-62603927D01*
X154851258Y-62599000D01*
X155028742Y-62599000D01*
X155053512Y-62603927D01*
G37*
G36*
X144893512Y-62603927D02*
G01*
X145042812Y-62633624D01*
X145206784Y-62701544D01*
X145354354Y-62800147D01*
X145479853Y-62925646D01*
X145578456Y-63073216D01*
X145646376Y-63237188D01*
X145681000Y-63411259D01*
X145681000Y-63588741D01*
X145646376Y-63762812D01*
X145578456Y-63926784D01*
X145479853Y-64074354D01*
X145354354Y-64199853D01*
X145206784Y-64298456D01*
X145042812Y-64366376D01*
X144893512Y-64396073D01*
X144868742Y-64401000D01*
X144691258Y-64401000D01*
X144666488Y-64396073D01*
X144517188Y-64366376D01*
X144353216Y-64298456D01*
X144205646Y-64199853D01*
X144080147Y-64074354D01*
X143981544Y-63926784D01*
X143913624Y-63762812D01*
X143879000Y-63588741D01*
X143879000Y-63411259D01*
X143913624Y-63237188D01*
X143981544Y-63073216D01*
X144080147Y-62925646D01*
X144205646Y-62800147D01*
X144353216Y-62701544D01*
X144517188Y-62633624D01*
X144666488Y-62603927D01*
X144691258Y-62599000D01*
X144868742Y-62599000D01*
X144893512Y-62603927D01*
G37*
G36*
X119493512Y-62603927D02*
G01*
X119642812Y-62633624D01*
X119806784Y-62701544D01*
X119954354Y-62800147D01*
X120079853Y-62925646D01*
X120178456Y-63073216D01*
X120246376Y-63237188D01*
X120281000Y-63411259D01*
X120281000Y-63588741D01*
X120246376Y-63762812D01*
X120178456Y-63926784D01*
X120079853Y-64074354D01*
X119954354Y-64199853D01*
X119806784Y-64298456D01*
X119642812Y-64366376D01*
X119493512Y-64396073D01*
X119468742Y-64401000D01*
X119291258Y-64401000D01*
X119266488Y-64396073D01*
X119117188Y-64366376D01*
X118953216Y-64298456D01*
X118805646Y-64199853D01*
X118680147Y-64074354D01*
X118581544Y-63926784D01*
X118513624Y-63762812D01*
X118479000Y-63588741D01*
X118479000Y-63411259D01*
X118513624Y-63237188D01*
X118581544Y-63073216D01*
X118680147Y-62925646D01*
X118805646Y-62800147D01*
X118953216Y-62701544D01*
X119117188Y-62633624D01*
X119266488Y-62603927D01*
X119291258Y-62599000D01*
X119468742Y-62599000D01*
X119493512Y-62603927D01*
G37*
G36*
X106793512Y-62603927D02*
G01*
X106942812Y-62633624D01*
X107106784Y-62701544D01*
X107254354Y-62800147D01*
X107379853Y-62925646D01*
X107478456Y-63073216D01*
X107546376Y-63237188D01*
X107581000Y-63411259D01*
X107581000Y-63588741D01*
X107546376Y-63762812D01*
X107478456Y-63926784D01*
X107379853Y-64074354D01*
X107254354Y-64199853D01*
X107106784Y-64298456D01*
X106942812Y-64366376D01*
X106793512Y-64396073D01*
X106768742Y-64401000D01*
X106591258Y-64401000D01*
X106566488Y-64396073D01*
X106417188Y-64366376D01*
X106253216Y-64298456D01*
X106105646Y-64199853D01*
X105980147Y-64074354D01*
X105881544Y-63926784D01*
X105813624Y-63762812D01*
X105779000Y-63588741D01*
X105779000Y-63411259D01*
X105813624Y-63237188D01*
X105881544Y-63073216D01*
X105980147Y-62925646D01*
X106105646Y-62800147D01*
X106253216Y-62701544D01*
X106417188Y-62633624D01*
X106566488Y-62603927D01*
X106591258Y-62599000D01*
X106768742Y-62599000D01*
X106793512Y-62603927D01*
G37*
G36*
X109333512Y-62603927D02*
G01*
X109482812Y-62633624D01*
X109646784Y-62701544D01*
X109794354Y-62800147D01*
X109919853Y-62925646D01*
X110018456Y-63073216D01*
X110086376Y-63237188D01*
X110121000Y-63411259D01*
X110121000Y-63588741D01*
X110086376Y-63762812D01*
X110018456Y-63926784D01*
X109919853Y-64074354D01*
X109794354Y-64199853D01*
X109646784Y-64298456D01*
X109482812Y-64366376D01*
X109333512Y-64396073D01*
X109308742Y-64401000D01*
X109131258Y-64401000D01*
X109106488Y-64396073D01*
X108957188Y-64366376D01*
X108793216Y-64298456D01*
X108645646Y-64199853D01*
X108520147Y-64074354D01*
X108421544Y-63926784D01*
X108353624Y-63762812D01*
X108319000Y-63588741D01*
X108319000Y-63411259D01*
X108353624Y-63237188D01*
X108421544Y-63073216D01*
X108520147Y-62925646D01*
X108645646Y-62800147D01*
X108793216Y-62701544D01*
X108957188Y-62633624D01*
X109106488Y-62603927D01*
X109131258Y-62599000D01*
X109308742Y-62599000D01*
X109333512Y-62603927D01*
G37*
G36*
X111873512Y-62603927D02*
G01*
X112022812Y-62633624D01*
X112186784Y-62701544D01*
X112334354Y-62800147D01*
X112459853Y-62925646D01*
X112558456Y-63073216D01*
X112626376Y-63237188D01*
X112661000Y-63411259D01*
X112661000Y-63588741D01*
X112626376Y-63762812D01*
X112558456Y-63926784D01*
X112459853Y-64074354D01*
X112334354Y-64199853D01*
X112186784Y-64298456D01*
X112022812Y-64366376D01*
X111873512Y-64396073D01*
X111848742Y-64401000D01*
X111671258Y-64401000D01*
X111646488Y-64396073D01*
X111497188Y-64366376D01*
X111333216Y-64298456D01*
X111185646Y-64199853D01*
X111060147Y-64074354D01*
X110961544Y-63926784D01*
X110893624Y-63762812D01*
X110859000Y-63588741D01*
X110859000Y-63411259D01*
X110893624Y-63237188D01*
X110961544Y-63073216D01*
X111060147Y-62925646D01*
X111185646Y-62800147D01*
X111333216Y-62701544D01*
X111497188Y-62633624D01*
X111646488Y-62603927D01*
X111671258Y-62599000D01*
X111848742Y-62599000D01*
X111873512Y-62603927D01*
G37*
G36*
X114413512Y-62603927D02*
G01*
X114562812Y-62633624D01*
X114726784Y-62701544D01*
X114874354Y-62800147D01*
X114999853Y-62925646D01*
X115098456Y-63073216D01*
X115166376Y-63237188D01*
X115201000Y-63411259D01*
X115201000Y-63588741D01*
X115166376Y-63762812D01*
X115098456Y-63926784D01*
X114999853Y-64074354D01*
X114874354Y-64199853D01*
X114726784Y-64298456D01*
X114562812Y-64366376D01*
X114413512Y-64396073D01*
X114388742Y-64401000D01*
X114211258Y-64401000D01*
X114186488Y-64396073D01*
X114037188Y-64366376D01*
X113873216Y-64298456D01*
X113725646Y-64199853D01*
X113600147Y-64074354D01*
X113501544Y-63926784D01*
X113433624Y-63762812D01*
X113399000Y-63588741D01*
X113399000Y-63411259D01*
X113433624Y-63237188D01*
X113501544Y-63073216D01*
X113600147Y-62925646D01*
X113725646Y-62800147D01*
X113873216Y-62701544D01*
X114037188Y-62633624D01*
X114186488Y-62603927D01*
X114211258Y-62599000D01*
X114388742Y-62599000D01*
X114413512Y-62603927D01*
G37*
G36*
X116953512Y-62603927D02*
G01*
X117102812Y-62633624D01*
X117266784Y-62701544D01*
X117414354Y-62800147D01*
X117539853Y-62925646D01*
X117638456Y-63073216D01*
X117706376Y-63237188D01*
X117741000Y-63411259D01*
X117741000Y-63588741D01*
X117706376Y-63762812D01*
X117638456Y-63926784D01*
X117539853Y-64074354D01*
X117414354Y-64199853D01*
X117266784Y-64298456D01*
X117102812Y-64366376D01*
X116953512Y-64396073D01*
X116928742Y-64401000D01*
X116751258Y-64401000D01*
X116726488Y-64396073D01*
X116577188Y-64366376D01*
X116413216Y-64298456D01*
X116265646Y-64199853D01*
X116140147Y-64074354D01*
X116041544Y-63926784D01*
X115973624Y-63762812D01*
X115939000Y-63588741D01*
X115939000Y-63411259D01*
X115973624Y-63237188D01*
X116041544Y-63073216D01*
X116140147Y-62925646D01*
X116265646Y-62800147D01*
X116413216Y-62701544D01*
X116577188Y-62633624D01*
X116726488Y-62603927D01*
X116751258Y-62599000D01*
X116928742Y-62599000D01*
X116953512Y-62603927D01*
G37*
G36*
X129653512Y-62603927D02*
G01*
X129802812Y-62633624D01*
X129966784Y-62701544D01*
X130114354Y-62800147D01*
X130239853Y-62925646D01*
X130338456Y-63073216D01*
X130406376Y-63237188D01*
X130441000Y-63411259D01*
X130441000Y-63588741D01*
X130406376Y-63762812D01*
X130338456Y-63926784D01*
X130239853Y-64074354D01*
X130114354Y-64199853D01*
X129966784Y-64298456D01*
X129802812Y-64366376D01*
X129653512Y-64396073D01*
X129628742Y-64401000D01*
X129451258Y-64401000D01*
X129426488Y-64396073D01*
X129277188Y-64366376D01*
X129113216Y-64298456D01*
X128965646Y-64199853D01*
X128840147Y-64074354D01*
X128741544Y-63926784D01*
X128673624Y-63762812D01*
X128639000Y-63588741D01*
X128639000Y-63411259D01*
X128673624Y-63237188D01*
X128741544Y-63073216D01*
X128840147Y-62925646D01*
X128965646Y-62800147D01*
X129113216Y-62701544D01*
X129277188Y-62633624D01*
X129426488Y-62603927D01*
X129451258Y-62599000D01*
X129628742Y-62599000D01*
X129653512Y-62603927D01*
G37*
G36*
X122033512Y-62603927D02*
G01*
X122182812Y-62633624D01*
X122346784Y-62701544D01*
X122494354Y-62800147D01*
X122619853Y-62925646D01*
X122718456Y-63073216D01*
X122786376Y-63237188D01*
X122821000Y-63411259D01*
X122821000Y-63588741D01*
X122786376Y-63762812D01*
X122718456Y-63926784D01*
X122619853Y-64074354D01*
X122494354Y-64199853D01*
X122346784Y-64298456D01*
X122182812Y-64366376D01*
X122033512Y-64396073D01*
X122008742Y-64401000D01*
X121831258Y-64401000D01*
X121806488Y-64396073D01*
X121657188Y-64366376D01*
X121493216Y-64298456D01*
X121345646Y-64199853D01*
X121220147Y-64074354D01*
X121121544Y-63926784D01*
X121053624Y-63762812D01*
X121019000Y-63588741D01*
X121019000Y-63411259D01*
X121053624Y-63237188D01*
X121121544Y-63073216D01*
X121220147Y-62925646D01*
X121345646Y-62800147D01*
X121493216Y-62701544D01*
X121657188Y-62633624D01*
X121806488Y-62603927D01*
X121831258Y-62599000D01*
X122008742Y-62599000D01*
X122033512Y-62603927D01*
G37*
G36*
X124573512Y-62603927D02*
G01*
X124722812Y-62633624D01*
X124886784Y-62701544D01*
X125034354Y-62800147D01*
X125159853Y-62925646D01*
X125258456Y-63073216D01*
X125326376Y-63237188D01*
X125361000Y-63411259D01*
X125361000Y-63588741D01*
X125326376Y-63762812D01*
X125258456Y-63926784D01*
X125159853Y-64074354D01*
X125034354Y-64199853D01*
X124886784Y-64298456D01*
X124722812Y-64366376D01*
X124573512Y-64396073D01*
X124548742Y-64401000D01*
X124371258Y-64401000D01*
X124346488Y-64396073D01*
X124197188Y-64366376D01*
X124033216Y-64298456D01*
X123885646Y-64199853D01*
X123760147Y-64074354D01*
X123661544Y-63926784D01*
X123593624Y-63762812D01*
X123559000Y-63588741D01*
X123559000Y-63411259D01*
X123593624Y-63237188D01*
X123661544Y-63073216D01*
X123760147Y-62925646D01*
X123885646Y-62800147D01*
X124033216Y-62701544D01*
X124197188Y-62633624D01*
X124346488Y-62603927D01*
X124371258Y-62599000D01*
X124548742Y-62599000D01*
X124573512Y-62603927D01*
G37*
G36*
X127113512Y-62603927D02*
G01*
X127262812Y-62633624D01*
X127426784Y-62701544D01*
X127574354Y-62800147D01*
X127699853Y-62925646D01*
X127798456Y-63073216D01*
X127866376Y-63237188D01*
X127901000Y-63411259D01*
X127901000Y-63588741D01*
X127866376Y-63762812D01*
X127798456Y-63926784D01*
X127699853Y-64074354D01*
X127574354Y-64199853D01*
X127426784Y-64298456D01*
X127262812Y-64366376D01*
X127113512Y-64396073D01*
X127088742Y-64401000D01*
X126911258Y-64401000D01*
X126886488Y-64396073D01*
X126737188Y-64366376D01*
X126573216Y-64298456D01*
X126425646Y-64199853D01*
X126300147Y-64074354D01*
X126201544Y-63926784D01*
X126133624Y-63762812D01*
X126099000Y-63588741D01*
X126099000Y-63411259D01*
X126133624Y-63237188D01*
X126201544Y-63073216D01*
X126300147Y-62925646D01*
X126425646Y-62800147D01*
X126573216Y-62701544D01*
X126737188Y-62633624D01*
X126886488Y-62603927D01*
X126911258Y-62599000D01*
X127088742Y-62599000D01*
X127113512Y-62603927D01*
G37*
G36*
X132193512Y-62603927D02*
G01*
X132342812Y-62633624D01*
X132506784Y-62701544D01*
X132654354Y-62800147D01*
X132779853Y-62925646D01*
X132878456Y-63073216D01*
X132946376Y-63237188D01*
X132981000Y-63411259D01*
X132981000Y-63588741D01*
X132946376Y-63762812D01*
X132878456Y-63926784D01*
X132779853Y-64074354D01*
X132654354Y-64199853D01*
X132506784Y-64298456D01*
X132342812Y-64366376D01*
X132193512Y-64396073D01*
X132168742Y-64401000D01*
X131991258Y-64401000D01*
X131966488Y-64396073D01*
X131817188Y-64366376D01*
X131653216Y-64298456D01*
X131505646Y-64199853D01*
X131380147Y-64074354D01*
X131281544Y-63926784D01*
X131213624Y-63762812D01*
X131179000Y-63588741D01*
X131179000Y-63411259D01*
X131213624Y-63237188D01*
X131281544Y-63073216D01*
X131380147Y-62925646D01*
X131505646Y-62800147D01*
X131653216Y-62701544D01*
X131817188Y-62633624D01*
X131966488Y-62603927D01*
X131991258Y-62599000D01*
X132168742Y-62599000D01*
X132193512Y-62603927D01*
G37*
G36*
X91071000Y-61861000D02*
G01*
X89269000Y-61861000D01*
X89269000Y-60059000D01*
X91071000Y-60059000D01*
X91071000Y-61861000D01*
G37*
G36*
X95363512Y-60063927D02*
G01*
X95512812Y-60093624D01*
X95676784Y-60161544D01*
X95824354Y-60260147D01*
X95949853Y-60385646D01*
X96048456Y-60533216D01*
X96116376Y-60697188D01*
X96151000Y-60871259D01*
X96151000Y-61048741D01*
X96116376Y-61222812D01*
X96048456Y-61386784D01*
X95949853Y-61534354D01*
X95824354Y-61659853D01*
X95676784Y-61758456D01*
X95512812Y-61826376D01*
X95363512Y-61856073D01*
X95338742Y-61861000D01*
X95161258Y-61861000D01*
X95136488Y-61856073D01*
X94987188Y-61826376D01*
X94823216Y-61758456D01*
X94675646Y-61659853D01*
X94550147Y-61534354D01*
X94451544Y-61386784D01*
X94383624Y-61222812D01*
X94349000Y-61048741D01*
X94349000Y-60871259D01*
X94383624Y-60697188D01*
X94451544Y-60533216D01*
X94550147Y-60385646D01*
X94675646Y-60260147D01*
X94823216Y-60161544D01*
X94987188Y-60093624D01*
X95136488Y-60063927D01*
X95161258Y-60059000D01*
X95338742Y-60059000D01*
X95363512Y-60063927D01*
G37*
G36*
X92823512Y-60063927D02*
G01*
X92972812Y-60093624D01*
X93136784Y-60161544D01*
X93284354Y-60260147D01*
X93409853Y-60385646D01*
X93508456Y-60533216D01*
X93576376Y-60697188D01*
X93611000Y-60871259D01*
X93611000Y-61048741D01*
X93576376Y-61222812D01*
X93508456Y-61386784D01*
X93409853Y-61534354D01*
X93284354Y-61659853D01*
X93136784Y-61758456D01*
X92972812Y-61826376D01*
X92823512Y-61856073D01*
X92798742Y-61861000D01*
X92621258Y-61861000D01*
X92596488Y-61856073D01*
X92447188Y-61826376D01*
X92283216Y-61758456D01*
X92135646Y-61659853D01*
X92010147Y-61534354D01*
X91911544Y-61386784D01*
X91843624Y-61222812D01*
X91809000Y-61048741D01*
X91809000Y-60871259D01*
X91843624Y-60697188D01*
X91911544Y-60533216D01*
X92010147Y-60385646D01*
X92135646Y-60260147D01*
X92283216Y-60161544D01*
X92447188Y-60093624D01*
X92596488Y-60063927D01*
X92621258Y-60059000D01*
X92798742Y-60059000D01*
X92823512Y-60063927D01*
G37*
G36*
X152513512Y-57523927D02*
G01*
X152662812Y-57553624D01*
X152826784Y-57621544D01*
X152974354Y-57720147D01*
X153099853Y-57845646D01*
X153198456Y-57993216D01*
X153266376Y-58157188D01*
X153301000Y-58331259D01*
X153301000Y-58508741D01*
X153266376Y-58682812D01*
X153198456Y-58846784D01*
X153099853Y-58994354D01*
X152974354Y-59119853D01*
X152826784Y-59218456D01*
X152662812Y-59286376D01*
X152513512Y-59316073D01*
X152488742Y-59321000D01*
X152311258Y-59321000D01*
X152286488Y-59316073D01*
X152137188Y-59286376D01*
X151973216Y-59218456D01*
X151825646Y-59119853D01*
X151700147Y-58994354D01*
X151601544Y-58846784D01*
X151533624Y-58682812D01*
X151499000Y-58508741D01*
X151499000Y-58331259D01*
X151533624Y-58157188D01*
X151601544Y-57993216D01*
X151700147Y-57845646D01*
X151825646Y-57720147D01*
X151973216Y-57621544D01*
X152137188Y-57553624D01*
X152286488Y-57523927D01*
X152311258Y-57519000D01*
X152488742Y-57519000D01*
X152513512Y-57523927D01*
G37*
G36*
X155053512Y-57523927D02*
G01*
X155202812Y-57553624D01*
X155366784Y-57621544D01*
X155514354Y-57720147D01*
X155639853Y-57845646D01*
X155738456Y-57993216D01*
X155806376Y-58157188D01*
X155841000Y-58331259D01*
X155841000Y-58508741D01*
X155806376Y-58682812D01*
X155738456Y-58846784D01*
X155639853Y-58994354D01*
X155514354Y-59119853D01*
X155366784Y-59218456D01*
X155202812Y-59286376D01*
X155053512Y-59316073D01*
X155028742Y-59321000D01*
X154851258Y-59321000D01*
X154826488Y-59316073D01*
X154677188Y-59286376D01*
X154513216Y-59218456D01*
X154365646Y-59119853D01*
X154240147Y-58994354D01*
X154141544Y-58846784D01*
X154073624Y-58682812D01*
X154039000Y-58508741D01*
X154039000Y-58331259D01*
X154073624Y-58157188D01*
X154141544Y-57993216D01*
X154240147Y-57845646D01*
X154365646Y-57720147D01*
X154513216Y-57621544D01*
X154677188Y-57553624D01*
X154826488Y-57523927D01*
X154851258Y-57519000D01*
X155028742Y-57519000D01*
X155053512Y-57523927D01*
G37*
G36*
X90283512Y-57523927D02*
G01*
X90432812Y-57553624D01*
X90596784Y-57621544D01*
X90744354Y-57720147D01*
X90869853Y-57845646D01*
X90968456Y-57993216D01*
X91036376Y-58157188D01*
X91071000Y-58331259D01*
X91071000Y-58508741D01*
X91036376Y-58682812D01*
X90968456Y-58846784D01*
X90869853Y-58994354D01*
X90744354Y-59119853D01*
X90596784Y-59218456D01*
X90432812Y-59286376D01*
X90283512Y-59316073D01*
X90258742Y-59321000D01*
X90081258Y-59321000D01*
X90056488Y-59316073D01*
X89907188Y-59286376D01*
X89743216Y-59218456D01*
X89595646Y-59119853D01*
X89470147Y-58994354D01*
X89371544Y-58846784D01*
X89303624Y-58682812D01*
X89269000Y-58508741D01*
X89269000Y-58331259D01*
X89303624Y-58157188D01*
X89371544Y-57993216D01*
X89470147Y-57845646D01*
X89595646Y-57720147D01*
X89743216Y-57621544D01*
X89907188Y-57553624D01*
X90056488Y-57523927D01*
X90081258Y-57519000D01*
X90258742Y-57519000D01*
X90283512Y-57523927D01*
G37*
G36*
X147433512Y-57523927D02*
G01*
X147582812Y-57553624D01*
X147746784Y-57621544D01*
X147894354Y-57720147D01*
X148019853Y-57845646D01*
X148118456Y-57993216D01*
X148186376Y-58157188D01*
X148221000Y-58331259D01*
X148221000Y-58508741D01*
X148186376Y-58682812D01*
X148118456Y-58846784D01*
X148019853Y-58994354D01*
X147894354Y-59119853D01*
X147746784Y-59218456D01*
X147582812Y-59286376D01*
X147433512Y-59316073D01*
X147408742Y-59321000D01*
X147231258Y-59321000D01*
X147206488Y-59316073D01*
X147057188Y-59286376D01*
X146893216Y-59218456D01*
X146745646Y-59119853D01*
X146620147Y-58994354D01*
X146521544Y-58846784D01*
X146453624Y-58682812D01*
X146419000Y-58508741D01*
X146419000Y-58331259D01*
X146453624Y-58157188D01*
X146521544Y-57993216D01*
X146620147Y-57845646D01*
X146745646Y-57720147D01*
X146893216Y-57621544D01*
X147057188Y-57553624D01*
X147206488Y-57523927D01*
X147231258Y-57519000D01*
X147408742Y-57519000D01*
X147433512Y-57523927D01*
G37*
G36*
X144893512Y-57523927D02*
G01*
X145042812Y-57553624D01*
X145206784Y-57621544D01*
X145354354Y-57720147D01*
X145479853Y-57845646D01*
X145578456Y-57993216D01*
X145646376Y-58157188D01*
X145681000Y-58331259D01*
X145681000Y-58508741D01*
X145646376Y-58682812D01*
X145578456Y-58846784D01*
X145479853Y-58994354D01*
X145354354Y-59119853D01*
X145206784Y-59218456D01*
X145042812Y-59286376D01*
X144893512Y-59316073D01*
X144868742Y-59321000D01*
X144691258Y-59321000D01*
X144666488Y-59316073D01*
X144517188Y-59286376D01*
X144353216Y-59218456D01*
X144205646Y-59119853D01*
X144080147Y-58994354D01*
X143981544Y-58846784D01*
X143913624Y-58682812D01*
X143879000Y-58508741D01*
X143879000Y-58331259D01*
X143913624Y-58157188D01*
X143981544Y-57993216D01*
X144080147Y-57845646D01*
X144205646Y-57720147D01*
X144353216Y-57621544D01*
X144517188Y-57553624D01*
X144666488Y-57523927D01*
X144691258Y-57519000D01*
X144868742Y-57519000D01*
X144893512Y-57523927D01*
G37*
G36*
X142353512Y-57523927D02*
G01*
X142502812Y-57553624D01*
X142666784Y-57621544D01*
X142814354Y-57720147D01*
X142939853Y-57845646D01*
X143038456Y-57993216D01*
X143106376Y-58157188D01*
X143141000Y-58331259D01*
X143141000Y-58508741D01*
X143106376Y-58682812D01*
X143038456Y-58846784D01*
X142939853Y-58994354D01*
X142814354Y-59119853D01*
X142666784Y-59218456D01*
X142502812Y-59286376D01*
X142353512Y-59316073D01*
X142328742Y-59321000D01*
X142151258Y-59321000D01*
X142126488Y-59316073D01*
X141977188Y-59286376D01*
X141813216Y-59218456D01*
X141665646Y-59119853D01*
X141540147Y-58994354D01*
X141441544Y-58846784D01*
X141373624Y-58682812D01*
X141339000Y-58508741D01*
X141339000Y-58331259D01*
X141373624Y-58157188D01*
X141441544Y-57993216D01*
X141540147Y-57845646D01*
X141665646Y-57720147D01*
X141813216Y-57621544D01*
X141977188Y-57553624D01*
X142126488Y-57523927D01*
X142151258Y-57519000D01*
X142328742Y-57519000D01*
X142353512Y-57523927D01*
G37*
G36*
X139813512Y-57523927D02*
G01*
X139962812Y-57553624D01*
X140126784Y-57621544D01*
X140274354Y-57720147D01*
X140399853Y-57845646D01*
X140498456Y-57993216D01*
X140566376Y-58157188D01*
X140601000Y-58331259D01*
X140601000Y-58508741D01*
X140566376Y-58682812D01*
X140498456Y-58846784D01*
X140399853Y-58994354D01*
X140274354Y-59119853D01*
X140126784Y-59218456D01*
X139962812Y-59286376D01*
X139813512Y-59316073D01*
X139788742Y-59321000D01*
X139611258Y-59321000D01*
X139586488Y-59316073D01*
X139437188Y-59286376D01*
X139273216Y-59218456D01*
X139125646Y-59119853D01*
X139000147Y-58994354D01*
X138901544Y-58846784D01*
X138833624Y-58682812D01*
X138799000Y-58508741D01*
X138799000Y-58331259D01*
X138833624Y-58157188D01*
X138901544Y-57993216D01*
X139000147Y-57845646D01*
X139125646Y-57720147D01*
X139273216Y-57621544D01*
X139437188Y-57553624D01*
X139586488Y-57523927D01*
X139611258Y-57519000D01*
X139788742Y-57519000D01*
X139813512Y-57523927D01*
G37*
G36*
X137273512Y-57523927D02*
G01*
X137422812Y-57553624D01*
X137586784Y-57621544D01*
X137734354Y-57720147D01*
X137859853Y-57845646D01*
X137958456Y-57993216D01*
X138026376Y-58157188D01*
X138061000Y-58331259D01*
X138061000Y-58508741D01*
X138026376Y-58682812D01*
X137958456Y-58846784D01*
X137859853Y-58994354D01*
X137734354Y-59119853D01*
X137586784Y-59218456D01*
X137422812Y-59286376D01*
X137273512Y-59316073D01*
X137248742Y-59321000D01*
X137071258Y-59321000D01*
X137046488Y-59316073D01*
X136897188Y-59286376D01*
X136733216Y-59218456D01*
X136585646Y-59119853D01*
X136460147Y-58994354D01*
X136361544Y-58846784D01*
X136293624Y-58682812D01*
X136259000Y-58508741D01*
X136259000Y-58331259D01*
X136293624Y-58157188D01*
X136361544Y-57993216D01*
X136460147Y-57845646D01*
X136585646Y-57720147D01*
X136733216Y-57621544D01*
X136897188Y-57553624D01*
X137046488Y-57523927D01*
X137071258Y-57519000D01*
X137248742Y-57519000D01*
X137273512Y-57523927D01*
G37*
G36*
X134733512Y-57523927D02*
G01*
X134882812Y-57553624D01*
X135046784Y-57621544D01*
X135194354Y-57720147D01*
X135319853Y-57845646D01*
X135418456Y-57993216D01*
X135486376Y-58157188D01*
X135521000Y-58331259D01*
X135521000Y-58508741D01*
X135486376Y-58682812D01*
X135418456Y-58846784D01*
X135319853Y-58994354D01*
X135194354Y-59119853D01*
X135046784Y-59218456D01*
X134882812Y-59286376D01*
X134733512Y-59316073D01*
X134708742Y-59321000D01*
X134531258Y-59321000D01*
X134506488Y-59316073D01*
X134357188Y-59286376D01*
X134193216Y-59218456D01*
X134045646Y-59119853D01*
X133920147Y-58994354D01*
X133821544Y-58846784D01*
X133753624Y-58682812D01*
X133719000Y-58508741D01*
X133719000Y-58331259D01*
X133753624Y-58157188D01*
X133821544Y-57993216D01*
X133920147Y-57845646D01*
X134045646Y-57720147D01*
X134193216Y-57621544D01*
X134357188Y-57553624D01*
X134506488Y-57523927D01*
X134531258Y-57519000D01*
X134708742Y-57519000D01*
X134733512Y-57523927D01*
G37*
G36*
X132193512Y-57523927D02*
G01*
X132342812Y-57553624D01*
X132506784Y-57621544D01*
X132654354Y-57720147D01*
X132779853Y-57845646D01*
X132878456Y-57993216D01*
X132946376Y-58157188D01*
X132981000Y-58331259D01*
X132981000Y-58508741D01*
X132946376Y-58682812D01*
X132878456Y-58846784D01*
X132779853Y-58994354D01*
X132654354Y-59119853D01*
X132506784Y-59218456D01*
X132342812Y-59286376D01*
X132193512Y-59316073D01*
X132168742Y-59321000D01*
X131991258Y-59321000D01*
X131966488Y-59316073D01*
X131817188Y-59286376D01*
X131653216Y-59218456D01*
X131505646Y-59119853D01*
X131380147Y-58994354D01*
X131281544Y-58846784D01*
X131213624Y-58682812D01*
X131179000Y-58508741D01*
X131179000Y-58331259D01*
X131213624Y-58157188D01*
X131281544Y-57993216D01*
X131380147Y-57845646D01*
X131505646Y-57720147D01*
X131653216Y-57621544D01*
X131817188Y-57553624D01*
X131966488Y-57523927D01*
X131991258Y-57519000D01*
X132168742Y-57519000D01*
X132193512Y-57523927D01*
G37*
G36*
X129653512Y-57523927D02*
G01*
X129802812Y-57553624D01*
X129966784Y-57621544D01*
X130114354Y-57720147D01*
X130239853Y-57845646D01*
X130338456Y-57993216D01*
X130406376Y-58157188D01*
X130441000Y-58331259D01*
X130441000Y-58508741D01*
X130406376Y-58682812D01*
X130338456Y-58846784D01*
X130239853Y-58994354D01*
X130114354Y-59119853D01*
X129966784Y-59218456D01*
X129802812Y-59286376D01*
X129653512Y-59316073D01*
X129628742Y-59321000D01*
X129451258Y-59321000D01*
X129426488Y-59316073D01*
X129277188Y-59286376D01*
X129113216Y-59218456D01*
X128965646Y-59119853D01*
X128840147Y-58994354D01*
X128741544Y-58846784D01*
X128673624Y-58682812D01*
X128639000Y-58508741D01*
X128639000Y-58331259D01*
X128673624Y-58157188D01*
X128741544Y-57993216D01*
X128840147Y-57845646D01*
X128965646Y-57720147D01*
X129113216Y-57621544D01*
X129277188Y-57553624D01*
X129426488Y-57523927D01*
X129451258Y-57519000D01*
X129628742Y-57519000D01*
X129653512Y-57523927D01*
G37*
G36*
X124573512Y-57523927D02*
G01*
X124722812Y-57553624D01*
X124886784Y-57621544D01*
X125034354Y-57720147D01*
X125159853Y-57845646D01*
X125258456Y-57993216D01*
X125326376Y-58157188D01*
X125361000Y-58331259D01*
X125361000Y-58508741D01*
X125326376Y-58682812D01*
X125258456Y-58846784D01*
X125159853Y-58994354D01*
X125034354Y-59119853D01*
X124886784Y-59218456D01*
X124722812Y-59286376D01*
X124573512Y-59316073D01*
X124548742Y-59321000D01*
X124371258Y-59321000D01*
X124346488Y-59316073D01*
X124197188Y-59286376D01*
X124033216Y-59218456D01*
X123885646Y-59119853D01*
X123760147Y-58994354D01*
X123661544Y-58846784D01*
X123593624Y-58682812D01*
X123559000Y-58508741D01*
X123559000Y-58331259D01*
X123593624Y-58157188D01*
X123661544Y-57993216D01*
X123760147Y-57845646D01*
X123885646Y-57720147D01*
X124033216Y-57621544D01*
X124197188Y-57553624D01*
X124346488Y-57523927D01*
X124371258Y-57519000D01*
X124548742Y-57519000D01*
X124573512Y-57523927D01*
G37*
G36*
X149973512Y-57523927D02*
G01*
X150122812Y-57553624D01*
X150286784Y-57621544D01*
X150434354Y-57720147D01*
X150559853Y-57845646D01*
X150658456Y-57993216D01*
X150726376Y-58157188D01*
X150761000Y-58331259D01*
X150761000Y-58508741D01*
X150726376Y-58682812D01*
X150658456Y-58846784D01*
X150559853Y-58994354D01*
X150434354Y-59119853D01*
X150286784Y-59218456D01*
X150122812Y-59286376D01*
X149973512Y-59316073D01*
X149948742Y-59321000D01*
X149771258Y-59321000D01*
X149746488Y-59316073D01*
X149597188Y-59286376D01*
X149433216Y-59218456D01*
X149285646Y-59119853D01*
X149160147Y-58994354D01*
X149061544Y-58846784D01*
X148993624Y-58682812D01*
X148959000Y-58508741D01*
X148959000Y-58331259D01*
X148993624Y-58157188D01*
X149061544Y-57993216D01*
X149160147Y-57845646D01*
X149285646Y-57720147D01*
X149433216Y-57621544D01*
X149597188Y-57553624D01*
X149746488Y-57523927D01*
X149771258Y-57519000D01*
X149948742Y-57519000D01*
X149973512Y-57523927D01*
G37*
G36*
X92823512Y-57523927D02*
G01*
X92972812Y-57553624D01*
X93136784Y-57621544D01*
X93284354Y-57720147D01*
X93409853Y-57845646D01*
X93508456Y-57993216D01*
X93576376Y-58157188D01*
X93611000Y-58331259D01*
X93611000Y-58508741D01*
X93576376Y-58682812D01*
X93508456Y-58846784D01*
X93409853Y-58994354D01*
X93284354Y-59119853D01*
X93136784Y-59218456D01*
X92972812Y-59286376D01*
X92823512Y-59316073D01*
X92798742Y-59321000D01*
X92621258Y-59321000D01*
X92596488Y-59316073D01*
X92447188Y-59286376D01*
X92283216Y-59218456D01*
X92135646Y-59119853D01*
X92010147Y-58994354D01*
X91911544Y-58846784D01*
X91843624Y-58682812D01*
X91809000Y-58508741D01*
X91809000Y-58331259D01*
X91843624Y-58157188D01*
X91911544Y-57993216D01*
X92010147Y-57845646D01*
X92135646Y-57720147D01*
X92283216Y-57621544D01*
X92447188Y-57553624D01*
X92596488Y-57523927D01*
X92621258Y-57519000D01*
X92798742Y-57519000D01*
X92823512Y-57523927D01*
G37*
G36*
X95363512Y-57523927D02*
G01*
X95512812Y-57553624D01*
X95676784Y-57621544D01*
X95824354Y-57720147D01*
X95949853Y-57845646D01*
X96048456Y-57993216D01*
X96116376Y-58157188D01*
X96151000Y-58331259D01*
X96151000Y-58508741D01*
X96116376Y-58682812D01*
X96048456Y-58846784D01*
X95949853Y-58994354D01*
X95824354Y-59119853D01*
X95676784Y-59218456D01*
X95512812Y-59286376D01*
X95363512Y-59316073D01*
X95338742Y-59321000D01*
X95161258Y-59321000D01*
X95136488Y-59316073D01*
X94987188Y-59286376D01*
X94823216Y-59218456D01*
X94675646Y-59119853D01*
X94550147Y-58994354D01*
X94451544Y-58846784D01*
X94383624Y-58682812D01*
X94349000Y-58508741D01*
X94349000Y-58331259D01*
X94383624Y-58157188D01*
X94451544Y-57993216D01*
X94550147Y-57845646D01*
X94675646Y-57720147D01*
X94823216Y-57621544D01*
X94987188Y-57553624D01*
X95136488Y-57523927D01*
X95161258Y-57519000D01*
X95338742Y-57519000D01*
X95363512Y-57523927D01*
G37*
G36*
X106793512Y-57523927D02*
G01*
X106942812Y-57553624D01*
X107106784Y-57621544D01*
X107254354Y-57720147D01*
X107379853Y-57845646D01*
X107478456Y-57993216D01*
X107546376Y-58157188D01*
X107581000Y-58331259D01*
X107581000Y-58508741D01*
X107546376Y-58682812D01*
X107478456Y-58846784D01*
X107379853Y-58994354D01*
X107254354Y-59119853D01*
X107106784Y-59218456D01*
X106942812Y-59286376D01*
X106793512Y-59316073D01*
X106768742Y-59321000D01*
X106591258Y-59321000D01*
X106566488Y-59316073D01*
X106417188Y-59286376D01*
X106253216Y-59218456D01*
X106105646Y-59119853D01*
X105980147Y-58994354D01*
X105881544Y-58846784D01*
X105813624Y-58682812D01*
X105779000Y-58508741D01*
X105779000Y-58331259D01*
X105813624Y-58157188D01*
X105881544Y-57993216D01*
X105980147Y-57845646D01*
X106105646Y-57720147D01*
X106253216Y-57621544D01*
X106417188Y-57553624D01*
X106566488Y-57523927D01*
X106591258Y-57519000D01*
X106768742Y-57519000D01*
X106793512Y-57523927D01*
G37*
G36*
X109333512Y-57523927D02*
G01*
X109482812Y-57553624D01*
X109646784Y-57621544D01*
X109794354Y-57720147D01*
X109919853Y-57845646D01*
X110018456Y-57993216D01*
X110086376Y-58157188D01*
X110121000Y-58331259D01*
X110121000Y-58508741D01*
X110086376Y-58682812D01*
X110018456Y-58846784D01*
X109919853Y-58994354D01*
X109794354Y-59119853D01*
X109646784Y-59218456D01*
X109482812Y-59286376D01*
X109333512Y-59316073D01*
X109308742Y-59321000D01*
X109131258Y-59321000D01*
X109106488Y-59316073D01*
X108957188Y-59286376D01*
X108793216Y-59218456D01*
X108645646Y-59119853D01*
X108520147Y-58994354D01*
X108421544Y-58846784D01*
X108353624Y-58682812D01*
X108319000Y-58508741D01*
X108319000Y-58331259D01*
X108353624Y-58157188D01*
X108421544Y-57993216D01*
X108520147Y-57845646D01*
X108645646Y-57720147D01*
X108793216Y-57621544D01*
X108957188Y-57553624D01*
X109106488Y-57523927D01*
X109131258Y-57519000D01*
X109308742Y-57519000D01*
X109333512Y-57523927D01*
G37*
G36*
X119493512Y-57523927D02*
G01*
X119642812Y-57553624D01*
X119806784Y-57621544D01*
X119954354Y-57720147D01*
X120079853Y-57845646D01*
X120178456Y-57993216D01*
X120246376Y-58157188D01*
X120281000Y-58331259D01*
X120281000Y-58508741D01*
X120246376Y-58682812D01*
X120178456Y-58846784D01*
X120079853Y-58994354D01*
X119954354Y-59119853D01*
X119806784Y-59218456D01*
X119642812Y-59286376D01*
X119493512Y-59316073D01*
X119468742Y-59321000D01*
X119291258Y-59321000D01*
X119266488Y-59316073D01*
X119117188Y-59286376D01*
X118953216Y-59218456D01*
X118805646Y-59119853D01*
X118680147Y-58994354D01*
X118581544Y-58846784D01*
X118513624Y-58682812D01*
X118479000Y-58508741D01*
X118479000Y-58331259D01*
X118513624Y-58157188D01*
X118581544Y-57993216D01*
X118680147Y-57845646D01*
X118805646Y-57720147D01*
X118953216Y-57621544D01*
X119117188Y-57553624D01*
X119266488Y-57523927D01*
X119291258Y-57519000D01*
X119468742Y-57519000D01*
X119493512Y-57523927D01*
G37*
G36*
X116953512Y-57523927D02*
G01*
X117102812Y-57553624D01*
X117266784Y-57621544D01*
X117414354Y-57720147D01*
X117539853Y-57845646D01*
X117638456Y-57993216D01*
X117706376Y-58157188D01*
X117741000Y-58331259D01*
X117741000Y-58508741D01*
X117706376Y-58682812D01*
X117638456Y-58846784D01*
X117539853Y-58994354D01*
X117414354Y-59119853D01*
X117266784Y-59218456D01*
X117102812Y-59286376D01*
X116953512Y-59316073D01*
X116928742Y-59321000D01*
X116751258Y-59321000D01*
X116726488Y-59316073D01*
X116577188Y-59286376D01*
X116413216Y-59218456D01*
X116265646Y-59119853D01*
X116140147Y-58994354D01*
X116041544Y-58846784D01*
X115973624Y-58682812D01*
X115939000Y-58508741D01*
X115939000Y-58331259D01*
X115973624Y-58157188D01*
X116041544Y-57993216D01*
X116140147Y-57845646D01*
X116265646Y-57720147D01*
X116413216Y-57621544D01*
X116577188Y-57553624D01*
X116726488Y-57523927D01*
X116751258Y-57519000D01*
X116928742Y-57519000D01*
X116953512Y-57523927D01*
G37*
G36*
X114413512Y-57523927D02*
G01*
X114562812Y-57553624D01*
X114726784Y-57621544D01*
X114874354Y-57720147D01*
X114999853Y-57845646D01*
X115098456Y-57993216D01*
X115166376Y-58157188D01*
X115201000Y-58331259D01*
X115201000Y-58508741D01*
X115166376Y-58682812D01*
X115098456Y-58846784D01*
X114999853Y-58994354D01*
X114874354Y-59119853D01*
X114726784Y-59218456D01*
X114562812Y-59286376D01*
X114413512Y-59316073D01*
X114388742Y-59321000D01*
X114211258Y-59321000D01*
X114186488Y-59316073D01*
X114037188Y-59286376D01*
X113873216Y-59218456D01*
X113725646Y-59119853D01*
X113600147Y-58994354D01*
X113501544Y-58846784D01*
X113433624Y-58682812D01*
X113399000Y-58508741D01*
X113399000Y-58331259D01*
X113433624Y-58157188D01*
X113501544Y-57993216D01*
X113600147Y-57845646D01*
X113725646Y-57720147D01*
X113873216Y-57621544D01*
X114037188Y-57553624D01*
X114186488Y-57523927D01*
X114211258Y-57519000D01*
X114388742Y-57519000D01*
X114413512Y-57523927D01*
G37*
G36*
X122033512Y-57523927D02*
G01*
X122182812Y-57553624D01*
X122346784Y-57621544D01*
X122494354Y-57720147D01*
X122619853Y-57845646D01*
X122718456Y-57993216D01*
X122786376Y-58157188D01*
X122821000Y-58331259D01*
X122821000Y-58508741D01*
X122786376Y-58682812D01*
X122718456Y-58846784D01*
X122619853Y-58994354D01*
X122494354Y-59119853D01*
X122346784Y-59218456D01*
X122182812Y-59286376D01*
X122033512Y-59316073D01*
X122008742Y-59321000D01*
X121831258Y-59321000D01*
X121806488Y-59316073D01*
X121657188Y-59286376D01*
X121493216Y-59218456D01*
X121345646Y-59119853D01*
X121220147Y-58994354D01*
X121121544Y-58846784D01*
X121053624Y-58682812D01*
X121019000Y-58508741D01*
X121019000Y-58331259D01*
X121053624Y-58157188D01*
X121121544Y-57993216D01*
X121220147Y-57845646D01*
X121345646Y-57720147D01*
X121493216Y-57621544D01*
X121657188Y-57553624D01*
X121806488Y-57523927D01*
X121831258Y-57519000D01*
X122008742Y-57519000D01*
X122033512Y-57523927D01*
G37*
G36*
X111873512Y-57523927D02*
G01*
X112022812Y-57553624D01*
X112186784Y-57621544D01*
X112334354Y-57720147D01*
X112459853Y-57845646D01*
X112558456Y-57993216D01*
X112626376Y-58157188D01*
X112661000Y-58331259D01*
X112661000Y-58508741D01*
X112626376Y-58682812D01*
X112558456Y-58846784D01*
X112459853Y-58994354D01*
X112334354Y-59119853D01*
X112186784Y-59218456D01*
X112022812Y-59286376D01*
X111873512Y-59316073D01*
X111848742Y-59321000D01*
X111671258Y-59321000D01*
X111646488Y-59316073D01*
X111497188Y-59286376D01*
X111333216Y-59218456D01*
X111185646Y-59119853D01*
X111060147Y-58994354D01*
X110961544Y-58846784D01*
X110893624Y-58682812D01*
X110859000Y-58508741D01*
X110859000Y-58331259D01*
X110893624Y-58157188D01*
X110961544Y-57993216D01*
X111060147Y-57845646D01*
X111185646Y-57720147D01*
X111333216Y-57621544D01*
X111497188Y-57553624D01*
X111646488Y-57523927D01*
X111671258Y-57519000D01*
X111848742Y-57519000D01*
X111873512Y-57523927D01*
G37*
G36*
X127113512Y-57523927D02*
G01*
X127262812Y-57553624D01*
X127426784Y-57621544D01*
X127574354Y-57720147D01*
X127699853Y-57845646D01*
X127798456Y-57993216D01*
X127866376Y-58157188D01*
X127901000Y-58331259D01*
X127901000Y-58508741D01*
X127866376Y-58682812D01*
X127798456Y-58846784D01*
X127699853Y-58994354D01*
X127574354Y-59119853D01*
X127426784Y-59218456D01*
X127262812Y-59286376D01*
X127113512Y-59316073D01*
X127088742Y-59321000D01*
X126911258Y-59321000D01*
X126886488Y-59316073D01*
X126737188Y-59286376D01*
X126573216Y-59218456D01*
X126425646Y-59119853D01*
X126300147Y-58994354D01*
X126201544Y-58846784D01*
X126133624Y-58682812D01*
X126099000Y-58508741D01*
X126099000Y-58331259D01*
X126133624Y-58157188D01*
X126201544Y-57993216D01*
X126300147Y-57845646D01*
X126425646Y-57720147D01*
X126573216Y-57621544D01*
X126737188Y-57553624D01*
X126886488Y-57523927D01*
X126911258Y-57519000D01*
X127088742Y-57519000D01*
X127113512Y-57523927D01*
G37*
G36*
X160133512Y-53078927D02*
G01*
X160282812Y-53108624D01*
X160446784Y-53176544D01*
X160594354Y-53275147D01*
X160719853Y-53400646D01*
X160818456Y-53548216D01*
X160886376Y-53712188D01*
X160921000Y-53886259D01*
X160921000Y-54063741D01*
X160886376Y-54237812D01*
X160818456Y-54401784D01*
X160719853Y-54549354D01*
X160594354Y-54674853D01*
X160446784Y-54773456D01*
X160282812Y-54841376D01*
X160133512Y-54871073D01*
X160108742Y-54876000D01*
X159931258Y-54876000D01*
X159906488Y-54871073D01*
X159757188Y-54841376D01*
X159593216Y-54773456D01*
X159445646Y-54674853D01*
X159320147Y-54549354D01*
X159221544Y-54401784D01*
X159153624Y-54237812D01*
X159119000Y-54063741D01*
X159119000Y-53886259D01*
X159153624Y-53712188D01*
X159221544Y-53548216D01*
X159320147Y-53400646D01*
X159445646Y-53275147D01*
X159593216Y-53176544D01*
X159757188Y-53108624D01*
X159906488Y-53078927D01*
X159931258Y-53074000D01*
X160108742Y-53074000D01*
X160133512Y-53078927D01*
G37*
G36*
X160133512Y-50538927D02*
G01*
X160282812Y-50568624D01*
X160446784Y-50636544D01*
X160594354Y-50735147D01*
X160719853Y-50860646D01*
X160818456Y-51008216D01*
X160886376Y-51172188D01*
X160921000Y-51346259D01*
X160921000Y-51523741D01*
X160886376Y-51697812D01*
X160818456Y-51861784D01*
X160719853Y-52009354D01*
X160594354Y-52134853D01*
X160446784Y-52233456D01*
X160282812Y-52301376D01*
X160133512Y-52331073D01*
X160108742Y-52336000D01*
X159931258Y-52336000D01*
X159906488Y-52331073D01*
X159757188Y-52301376D01*
X159593216Y-52233456D01*
X159445646Y-52134853D01*
X159320147Y-52009354D01*
X159221544Y-51861784D01*
X159153624Y-51697812D01*
X159119000Y-51523741D01*
X159119000Y-51346259D01*
X159153624Y-51172188D01*
X159221544Y-51008216D01*
X159320147Y-50860646D01*
X159445646Y-50735147D01*
X159593216Y-50636544D01*
X159757188Y-50568624D01*
X159906488Y-50538927D01*
X159931258Y-50534000D01*
X160108742Y-50534000D01*
X160133512Y-50538927D01*
G37*
G36*
X160921000Y-49796000D02*
G01*
X159119000Y-49796000D01*
X159119000Y-47994000D01*
X160921000Y-47994000D01*
X160921000Y-49796000D01*
G37*
G36*
X91071000Y-49161000D02*
G01*
X89269000Y-49161000D01*
X89269000Y-47359000D01*
X91071000Y-47359000D01*
X91071000Y-49161000D01*
G37*
G36*
X95363512Y-47363927D02*
G01*
X95512812Y-47393624D01*
X95676784Y-47461544D01*
X95824354Y-47560147D01*
X95949853Y-47685646D01*
X96048456Y-47833216D01*
X96116376Y-47997188D01*
X96151000Y-48171259D01*
X96151000Y-48348741D01*
X96116376Y-48522812D01*
X96048456Y-48686784D01*
X95949853Y-48834354D01*
X95824354Y-48959853D01*
X95676784Y-49058456D01*
X95512812Y-49126376D01*
X95363512Y-49156073D01*
X95338742Y-49161000D01*
X95161258Y-49161000D01*
X95136488Y-49156073D01*
X94987188Y-49126376D01*
X94823216Y-49058456D01*
X94675646Y-48959853D01*
X94550147Y-48834354D01*
X94451544Y-48686784D01*
X94383624Y-48522812D01*
X94349000Y-48348741D01*
X94349000Y-48171259D01*
X94383624Y-47997188D01*
X94451544Y-47833216D01*
X94550147Y-47685646D01*
X94675646Y-47560147D01*
X94823216Y-47461544D01*
X94987188Y-47393624D01*
X95136488Y-47363927D01*
X95161258Y-47359000D01*
X95338742Y-47359000D01*
X95363512Y-47363927D01*
G37*
G36*
X92823512Y-47363927D02*
G01*
X92972812Y-47393624D01*
X93136784Y-47461544D01*
X93284354Y-47560147D01*
X93409853Y-47685646D01*
X93508456Y-47833216D01*
X93576376Y-47997188D01*
X93611000Y-48171259D01*
X93611000Y-48348741D01*
X93576376Y-48522812D01*
X93508456Y-48686784D01*
X93409853Y-48834354D01*
X93284354Y-48959853D01*
X93136784Y-49058456D01*
X92972812Y-49126376D01*
X92823512Y-49156073D01*
X92798742Y-49161000D01*
X92621258Y-49161000D01*
X92596488Y-49156073D01*
X92447188Y-49126376D01*
X92283216Y-49058456D01*
X92135646Y-48959853D01*
X92010147Y-48834354D01*
X91911544Y-48686784D01*
X91843624Y-48522812D01*
X91809000Y-48348741D01*
X91809000Y-48171259D01*
X91843624Y-47997188D01*
X91911544Y-47833216D01*
X92010147Y-47685646D01*
X92135646Y-47560147D01*
X92283216Y-47461544D01*
X92447188Y-47393624D01*
X92596488Y-47363927D01*
X92621258Y-47359000D01*
X92798742Y-47359000D01*
X92823512Y-47363927D01*
G37*
G36*
X114413512Y-47363927D02*
G01*
X114562812Y-47393624D01*
X114726784Y-47461544D01*
X114874354Y-47560147D01*
X114999853Y-47685646D01*
X115098456Y-47833216D01*
X115166376Y-47997188D01*
X115201000Y-48171259D01*
X115201000Y-48348741D01*
X115166376Y-48522812D01*
X115098456Y-48686784D01*
X114999853Y-48834354D01*
X114874354Y-48959853D01*
X114726784Y-49058456D01*
X114562812Y-49126376D01*
X114413512Y-49156073D01*
X114388742Y-49161000D01*
X114211258Y-49161000D01*
X114186488Y-49156073D01*
X114037188Y-49126376D01*
X113873216Y-49058456D01*
X113725646Y-48959853D01*
X113600147Y-48834354D01*
X113501544Y-48686784D01*
X113433624Y-48522812D01*
X113399000Y-48348741D01*
X113399000Y-48171259D01*
X113433624Y-47997188D01*
X113501544Y-47833216D01*
X113600147Y-47685646D01*
X113725646Y-47560147D01*
X113873216Y-47461544D01*
X114037188Y-47393624D01*
X114186488Y-47363927D01*
X114211258Y-47359000D01*
X114388742Y-47359000D01*
X114413512Y-47363927D01*
G37*
G36*
X116953512Y-47363927D02*
G01*
X117102812Y-47393624D01*
X117266784Y-47461544D01*
X117414354Y-47560147D01*
X117539853Y-47685646D01*
X117638456Y-47833216D01*
X117706376Y-47997188D01*
X117741000Y-48171259D01*
X117741000Y-48348741D01*
X117706376Y-48522812D01*
X117638456Y-48686784D01*
X117539853Y-48834354D01*
X117414354Y-48959853D01*
X117266784Y-49058456D01*
X117102812Y-49126376D01*
X116953512Y-49156073D01*
X116928742Y-49161000D01*
X116751258Y-49161000D01*
X116726488Y-49156073D01*
X116577188Y-49126376D01*
X116413216Y-49058456D01*
X116265646Y-48959853D01*
X116140147Y-48834354D01*
X116041544Y-48686784D01*
X115973624Y-48522812D01*
X115939000Y-48348741D01*
X115939000Y-48171259D01*
X115973624Y-47997188D01*
X116041544Y-47833216D01*
X116140147Y-47685646D01*
X116265646Y-47560147D01*
X116413216Y-47461544D01*
X116577188Y-47393624D01*
X116726488Y-47363927D01*
X116751258Y-47359000D01*
X116928742Y-47359000D01*
X116953512Y-47363927D01*
G37*
G36*
X111873512Y-47363927D02*
G01*
X112022812Y-47393624D01*
X112186784Y-47461544D01*
X112334354Y-47560147D01*
X112459853Y-47685646D01*
X112558456Y-47833216D01*
X112626376Y-47997188D01*
X112661000Y-48171259D01*
X112661000Y-48348741D01*
X112626376Y-48522812D01*
X112558456Y-48686784D01*
X112459853Y-48834354D01*
X112334354Y-48959853D01*
X112186784Y-49058456D01*
X112022812Y-49126376D01*
X111873512Y-49156073D01*
X111848742Y-49161000D01*
X111671258Y-49161000D01*
X111646488Y-49156073D01*
X111497188Y-49126376D01*
X111333216Y-49058456D01*
X111185646Y-48959853D01*
X111060147Y-48834354D01*
X110961544Y-48686784D01*
X110893624Y-48522812D01*
X110859000Y-48348741D01*
X110859000Y-48171259D01*
X110893624Y-47997188D01*
X110961544Y-47833216D01*
X111060147Y-47685646D01*
X111185646Y-47560147D01*
X111333216Y-47461544D01*
X111497188Y-47393624D01*
X111646488Y-47363927D01*
X111671258Y-47359000D01*
X111848742Y-47359000D01*
X111873512Y-47363927D01*
G37*
G36*
X142353512Y-47363927D02*
G01*
X142502812Y-47393624D01*
X142666784Y-47461544D01*
X142814354Y-47560147D01*
X142939853Y-47685646D01*
X143038456Y-47833216D01*
X143106376Y-47997188D01*
X143141000Y-48171259D01*
X143141000Y-48348741D01*
X143106376Y-48522812D01*
X143038456Y-48686784D01*
X142939853Y-48834354D01*
X142814354Y-48959853D01*
X142666784Y-49058456D01*
X142502812Y-49126376D01*
X142353512Y-49156073D01*
X142328742Y-49161000D01*
X142151258Y-49161000D01*
X142126488Y-49156073D01*
X141977188Y-49126376D01*
X141813216Y-49058456D01*
X141665646Y-48959853D01*
X141540147Y-48834354D01*
X141441544Y-48686784D01*
X141373624Y-48522812D01*
X141339000Y-48348741D01*
X141339000Y-48171259D01*
X141373624Y-47997188D01*
X141441544Y-47833216D01*
X141540147Y-47685646D01*
X141665646Y-47560147D01*
X141813216Y-47461544D01*
X141977188Y-47393624D01*
X142126488Y-47363927D01*
X142151258Y-47359000D01*
X142328742Y-47359000D01*
X142353512Y-47363927D01*
G37*
G36*
X122033512Y-47363927D02*
G01*
X122182812Y-47393624D01*
X122346784Y-47461544D01*
X122494354Y-47560147D01*
X122619853Y-47685646D01*
X122718456Y-47833216D01*
X122786376Y-47997188D01*
X122821000Y-48171259D01*
X122821000Y-48348741D01*
X122786376Y-48522812D01*
X122718456Y-48686784D01*
X122619853Y-48834354D01*
X122494354Y-48959853D01*
X122346784Y-49058456D01*
X122182812Y-49126376D01*
X122033512Y-49156073D01*
X122008742Y-49161000D01*
X121831258Y-49161000D01*
X121806488Y-49156073D01*
X121657188Y-49126376D01*
X121493216Y-49058456D01*
X121345646Y-48959853D01*
X121220147Y-48834354D01*
X121121544Y-48686784D01*
X121053624Y-48522812D01*
X121019000Y-48348741D01*
X121019000Y-48171259D01*
X121053624Y-47997188D01*
X121121544Y-47833216D01*
X121220147Y-47685646D01*
X121345646Y-47560147D01*
X121493216Y-47461544D01*
X121657188Y-47393624D01*
X121806488Y-47363927D01*
X121831258Y-47359000D01*
X122008742Y-47359000D01*
X122033512Y-47363927D01*
G37*
G36*
X124573512Y-47363927D02*
G01*
X124722812Y-47393624D01*
X124886784Y-47461544D01*
X125034354Y-47560147D01*
X125159853Y-47685646D01*
X125258456Y-47833216D01*
X125326376Y-47997188D01*
X125361000Y-48171259D01*
X125361000Y-48348741D01*
X125326376Y-48522812D01*
X125258456Y-48686784D01*
X125159853Y-48834354D01*
X125034354Y-48959853D01*
X124886784Y-49058456D01*
X124722812Y-49126376D01*
X124573512Y-49156073D01*
X124548742Y-49161000D01*
X124371258Y-49161000D01*
X124346488Y-49156073D01*
X124197188Y-49126376D01*
X124033216Y-49058456D01*
X123885646Y-48959853D01*
X123760147Y-48834354D01*
X123661544Y-48686784D01*
X123593624Y-48522812D01*
X123559000Y-48348741D01*
X123559000Y-48171259D01*
X123593624Y-47997188D01*
X123661544Y-47833216D01*
X123760147Y-47685646D01*
X123885646Y-47560147D01*
X124033216Y-47461544D01*
X124197188Y-47393624D01*
X124346488Y-47363927D01*
X124371258Y-47359000D01*
X124548742Y-47359000D01*
X124573512Y-47363927D01*
G37*
G36*
X127113512Y-47363927D02*
G01*
X127262812Y-47393624D01*
X127426784Y-47461544D01*
X127574354Y-47560147D01*
X127699853Y-47685646D01*
X127798456Y-47833216D01*
X127866376Y-47997188D01*
X127901000Y-48171259D01*
X127901000Y-48348741D01*
X127866376Y-48522812D01*
X127798456Y-48686784D01*
X127699853Y-48834354D01*
X127574354Y-48959853D01*
X127426784Y-49058456D01*
X127262812Y-49126376D01*
X127113512Y-49156073D01*
X127088742Y-49161000D01*
X126911258Y-49161000D01*
X126886488Y-49156073D01*
X126737188Y-49126376D01*
X126573216Y-49058456D01*
X126425646Y-48959853D01*
X126300147Y-48834354D01*
X126201544Y-48686784D01*
X126133624Y-48522812D01*
X126099000Y-48348741D01*
X126099000Y-48171259D01*
X126133624Y-47997188D01*
X126201544Y-47833216D01*
X126300147Y-47685646D01*
X126425646Y-47560147D01*
X126573216Y-47461544D01*
X126737188Y-47393624D01*
X126886488Y-47363927D01*
X126911258Y-47359000D01*
X127088742Y-47359000D01*
X127113512Y-47363927D01*
G37*
G36*
X129653512Y-47363927D02*
G01*
X129802812Y-47393624D01*
X129966784Y-47461544D01*
X130114354Y-47560147D01*
X130239853Y-47685646D01*
X130338456Y-47833216D01*
X130406376Y-47997188D01*
X130441000Y-48171259D01*
X130441000Y-48348741D01*
X130406376Y-48522812D01*
X130338456Y-48686784D01*
X130239853Y-48834354D01*
X130114354Y-48959853D01*
X129966784Y-49058456D01*
X129802812Y-49126376D01*
X129653512Y-49156073D01*
X129628742Y-49161000D01*
X129451258Y-49161000D01*
X129426488Y-49156073D01*
X129277188Y-49126376D01*
X129113216Y-49058456D01*
X128965646Y-48959853D01*
X128840147Y-48834354D01*
X128741544Y-48686784D01*
X128673624Y-48522812D01*
X128639000Y-48348741D01*
X128639000Y-48171259D01*
X128673624Y-47997188D01*
X128741544Y-47833216D01*
X128840147Y-47685646D01*
X128965646Y-47560147D01*
X129113216Y-47461544D01*
X129277188Y-47393624D01*
X129426488Y-47363927D01*
X129451258Y-47359000D01*
X129628742Y-47359000D01*
X129653512Y-47363927D01*
G37*
G36*
X134733512Y-47363927D02*
G01*
X134882812Y-47393624D01*
X135046784Y-47461544D01*
X135194354Y-47560147D01*
X135319853Y-47685646D01*
X135418456Y-47833216D01*
X135486376Y-47997188D01*
X135521000Y-48171259D01*
X135521000Y-48348741D01*
X135486376Y-48522812D01*
X135418456Y-48686784D01*
X135319853Y-48834354D01*
X135194354Y-48959853D01*
X135046784Y-49058456D01*
X134882812Y-49126376D01*
X134733512Y-49156073D01*
X134708742Y-49161000D01*
X134531258Y-49161000D01*
X134506488Y-49156073D01*
X134357188Y-49126376D01*
X134193216Y-49058456D01*
X134045646Y-48959853D01*
X133920147Y-48834354D01*
X133821544Y-48686784D01*
X133753624Y-48522812D01*
X133719000Y-48348741D01*
X133719000Y-48171259D01*
X133753624Y-47997188D01*
X133821544Y-47833216D01*
X133920147Y-47685646D01*
X134045646Y-47560147D01*
X134193216Y-47461544D01*
X134357188Y-47393624D01*
X134506488Y-47363927D01*
X134531258Y-47359000D01*
X134708742Y-47359000D01*
X134733512Y-47363927D01*
G37*
G36*
X132193512Y-47363927D02*
G01*
X132342812Y-47393624D01*
X132506784Y-47461544D01*
X132654354Y-47560147D01*
X132779853Y-47685646D01*
X132878456Y-47833216D01*
X132946376Y-47997188D01*
X132981000Y-48171259D01*
X132981000Y-48348741D01*
X132946376Y-48522812D01*
X132878456Y-48686784D01*
X132779853Y-48834354D01*
X132654354Y-48959853D01*
X132506784Y-49058456D01*
X132342812Y-49126376D01*
X132193512Y-49156073D01*
X132168742Y-49161000D01*
X131991258Y-49161000D01*
X131966488Y-49156073D01*
X131817188Y-49126376D01*
X131653216Y-49058456D01*
X131505646Y-48959853D01*
X131380147Y-48834354D01*
X131281544Y-48686784D01*
X131213624Y-48522812D01*
X131179000Y-48348741D01*
X131179000Y-48171259D01*
X131213624Y-47997188D01*
X131281544Y-47833216D01*
X131380147Y-47685646D01*
X131505646Y-47560147D01*
X131653216Y-47461544D01*
X131817188Y-47393624D01*
X131966488Y-47363927D01*
X131991258Y-47359000D01*
X132168742Y-47359000D01*
X132193512Y-47363927D01*
G37*
G36*
X109333512Y-47363927D02*
G01*
X109482812Y-47393624D01*
X109646784Y-47461544D01*
X109794354Y-47560147D01*
X109919853Y-47685646D01*
X110018456Y-47833216D01*
X110086376Y-47997188D01*
X110121000Y-48171259D01*
X110121000Y-48348741D01*
X110086376Y-48522812D01*
X110018456Y-48686784D01*
X109919853Y-48834354D01*
X109794354Y-48959853D01*
X109646784Y-49058456D01*
X109482812Y-49126376D01*
X109333512Y-49156073D01*
X109308742Y-49161000D01*
X109131258Y-49161000D01*
X109106488Y-49156073D01*
X108957188Y-49126376D01*
X108793216Y-49058456D01*
X108645646Y-48959853D01*
X108520147Y-48834354D01*
X108421544Y-48686784D01*
X108353624Y-48522812D01*
X108319000Y-48348741D01*
X108319000Y-48171259D01*
X108353624Y-47997188D01*
X108421544Y-47833216D01*
X108520147Y-47685646D01*
X108645646Y-47560147D01*
X108793216Y-47461544D01*
X108957188Y-47393624D01*
X109106488Y-47363927D01*
X109131258Y-47359000D01*
X109308742Y-47359000D01*
X109333512Y-47363927D01*
G37*
G36*
X119493512Y-47363927D02*
G01*
X119642812Y-47393624D01*
X119806784Y-47461544D01*
X119954354Y-47560147D01*
X120079853Y-47685646D01*
X120178456Y-47833216D01*
X120246376Y-47997188D01*
X120281000Y-48171259D01*
X120281000Y-48348741D01*
X120246376Y-48522812D01*
X120178456Y-48686784D01*
X120079853Y-48834354D01*
X119954354Y-48959853D01*
X119806784Y-49058456D01*
X119642812Y-49126376D01*
X119493512Y-49156073D01*
X119468742Y-49161000D01*
X119291258Y-49161000D01*
X119266488Y-49156073D01*
X119117188Y-49126376D01*
X118953216Y-49058456D01*
X118805646Y-48959853D01*
X118680147Y-48834354D01*
X118581544Y-48686784D01*
X118513624Y-48522812D01*
X118479000Y-48348741D01*
X118479000Y-48171259D01*
X118513624Y-47997188D01*
X118581544Y-47833216D01*
X118680147Y-47685646D01*
X118805646Y-47560147D01*
X118953216Y-47461544D01*
X119117188Y-47393624D01*
X119266488Y-47363927D01*
X119291258Y-47359000D01*
X119468742Y-47359000D01*
X119493512Y-47363927D01*
G37*
G36*
X106793512Y-47363927D02*
G01*
X106942812Y-47393624D01*
X107106784Y-47461544D01*
X107254354Y-47560147D01*
X107379853Y-47685646D01*
X107478456Y-47833216D01*
X107546376Y-47997188D01*
X107581000Y-48171259D01*
X107581000Y-48348741D01*
X107546376Y-48522812D01*
X107478456Y-48686784D01*
X107379853Y-48834354D01*
X107254354Y-48959853D01*
X107106784Y-49058456D01*
X106942812Y-49126376D01*
X106793512Y-49156073D01*
X106768742Y-49161000D01*
X106591258Y-49161000D01*
X106566488Y-49156073D01*
X106417188Y-49126376D01*
X106253216Y-49058456D01*
X106105646Y-48959853D01*
X105980147Y-48834354D01*
X105881544Y-48686784D01*
X105813624Y-48522812D01*
X105779000Y-48348741D01*
X105779000Y-48171259D01*
X105813624Y-47997188D01*
X105881544Y-47833216D01*
X105980147Y-47685646D01*
X106105646Y-47560147D01*
X106253216Y-47461544D01*
X106417188Y-47393624D01*
X106566488Y-47363927D01*
X106591258Y-47359000D01*
X106768742Y-47359000D01*
X106793512Y-47363927D01*
G37*
G36*
X155841000Y-49161000D02*
G01*
X154039000Y-49161000D01*
X154039000Y-47359000D01*
X155841000Y-47359000D01*
X155841000Y-49161000D01*
G37*
G36*
X152513512Y-47363927D02*
G01*
X152662812Y-47393624D01*
X152826784Y-47461544D01*
X152974354Y-47560147D01*
X153099853Y-47685646D01*
X153198456Y-47833216D01*
X153266376Y-47997188D01*
X153301000Y-48171259D01*
X153301000Y-48348741D01*
X153266376Y-48522812D01*
X153198456Y-48686784D01*
X153099853Y-48834354D01*
X152974354Y-48959853D01*
X152826784Y-49058456D01*
X152662812Y-49126376D01*
X152513512Y-49156073D01*
X152488742Y-49161000D01*
X152311258Y-49161000D01*
X152286488Y-49156073D01*
X152137188Y-49126376D01*
X151973216Y-49058456D01*
X151825646Y-48959853D01*
X151700147Y-48834354D01*
X151601544Y-48686784D01*
X151533624Y-48522812D01*
X151499000Y-48348741D01*
X151499000Y-48171259D01*
X151533624Y-47997188D01*
X151601544Y-47833216D01*
X151700147Y-47685646D01*
X151825646Y-47560147D01*
X151973216Y-47461544D01*
X152137188Y-47393624D01*
X152286488Y-47363927D01*
X152311258Y-47359000D01*
X152488742Y-47359000D01*
X152513512Y-47363927D01*
G37*
G36*
X149973512Y-47363927D02*
G01*
X150122812Y-47393624D01*
X150286784Y-47461544D01*
X150434354Y-47560147D01*
X150559853Y-47685646D01*
X150658456Y-47833216D01*
X150726376Y-47997188D01*
X150761000Y-48171259D01*
X150761000Y-48348741D01*
X150726376Y-48522812D01*
X150658456Y-48686784D01*
X150559853Y-48834354D01*
X150434354Y-48959853D01*
X150286784Y-49058456D01*
X150122812Y-49126376D01*
X149973512Y-49156073D01*
X149948742Y-49161000D01*
X149771258Y-49161000D01*
X149746488Y-49156073D01*
X149597188Y-49126376D01*
X149433216Y-49058456D01*
X149285646Y-48959853D01*
X149160147Y-48834354D01*
X149061544Y-48686784D01*
X148993624Y-48522812D01*
X148959000Y-48348741D01*
X148959000Y-48171259D01*
X148993624Y-47997188D01*
X149061544Y-47833216D01*
X149160147Y-47685646D01*
X149285646Y-47560147D01*
X149433216Y-47461544D01*
X149597188Y-47393624D01*
X149746488Y-47363927D01*
X149771258Y-47359000D01*
X149948742Y-47359000D01*
X149973512Y-47363927D01*
G37*
G36*
X147433512Y-47363927D02*
G01*
X147582812Y-47393624D01*
X147746784Y-47461544D01*
X147894354Y-47560147D01*
X148019853Y-47685646D01*
X148118456Y-47833216D01*
X148186376Y-47997188D01*
X148221000Y-48171259D01*
X148221000Y-48348741D01*
X148186376Y-48522812D01*
X148118456Y-48686784D01*
X148019853Y-48834354D01*
X147894354Y-48959853D01*
X147746784Y-49058456D01*
X147582812Y-49126376D01*
X147433512Y-49156073D01*
X147408742Y-49161000D01*
X147231258Y-49161000D01*
X147206488Y-49156073D01*
X147057188Y-49126376D01*
X146893216Y-49058456D01*
X146745646Y-48959853D01*
X146620147Y-48834354D01*
X146521544Y-48686784D01*
X146453624Y-48522812D01*
X146419000Y-48348741D01*
X146419000Y-48171259D01*
X146453624Y-47997188D01*
X146521544Y-47833216D01*
X146620147Y-47685646D01*
X146745646Y-47560147D01*
X146893216Y-47461544D01*
X147057188Y-47393624D01*
X147206488Y-47363927D01*
X147231258Y-47359000D01*
X147408742Y-47359000D01*
X147433512Y-47363927D01*
G37*
G36*
X144893512Y-47363927D02*
G01*
X145042812Y-47393624D01*
X145206784Y-47461544D01*
X145354354Y-47560147D01*
X145479853Y-47685646D01*
X145578456Y-47833216D01*
X145646376Y-47997188D01*
X145681000Y-48171259D01*
X145681000Y-48348741D01*
X145646376Y-48522812D01*
X145578456Y-48686784D01*
X145479853Y-48834354D01*
X145354354Y-48959853D01*
X145206784Y-49058456D01*
X145042812Y-49126376D01*
X144893512Y-49156073D01*
X144868742Y-49161000D01*
X144691258Y-49161000D01*
X144666488Y-49156073D01*
X144517188Y-49126376D01*
X144353216Y-49058456D01*
X144205646Y-48959853D01*
X144080147Y-48834354D01*
X143981544Y-48686784D01*
X143913624Y-48522812D01*
X143879000Y-48348741D01*
X143879000Y-48171259D01*
X143913624Y-47997188D01*
X143981544Y-47833216D01*
X144080147Y-47685646D01*
X144205646Y-47560147D01*
X144353216Y-47461544D01*
X144517188Y-47393624D01*
X144666488Y-47363927D01*
X144691258Y-47359000D01*
X144868742Y-47359000D01*
X144893512Y-47363927D01*
G37*
G36*
X139813512Y-47363927D02*
G01*
X139962812Y-47393624D01*
X140126784Y-47461544D01*
X140274354Y-47560147D01*
X140399853Y-47685646D01*
X140498456Y-47833216D01*
X140566376Y-47997188D01*
X140601000Y-48171259D01*
X140601000Y-48348741D01*
X140566376Y-48522812D01*
X140498456Y-48686784D01*
X140399853Y-48834354D01*
X140274354Y-48959853D01*
X140126784Y-49058456D01*
X139962812Y-49126376D01*
X139813512Y-49156073D01*
X139788742Y-49161000D01*
X139611258Y-49161000D01*
X139586488Y-49156073D01*
X139437188Y-49126376D01*
X139273216Y-49058456D01*
X139125646Y-48959853D01*
X139000147Y-48834354D01*
X138901544Y-48686784D01*
X138833624Y-48522812D01*
X138799000Y-48348741D01*
X138799000Y-48171259D01*
X138833624Y-47997188D01*
X138901544Y-47833216D01*
X139000147Y-47685646D01*
X139125646Y-47560147D01*
X139273216Y-47461544D01*
X139437188Y-47393624D01*
X139586488Y-47363927D01*
X139611258Y-47359000D01*
X139788742Y-47359000D01*
X139813512Y-47363927D01*
G37*
G36*
X137273512Y-47363927D02*
G01*
X137422812Y-47393624D01*
X137586784Y-47461544D01*
X137734354Y-47560147D01*
X137859853Y-47685646D01*
X137958456Y-47833216D01*
X138026376Y-47997188D01*
X138061000Y-48171259D01*
X138061000Y-48348741D01*
X138026376Y-48522812D01*
X137958456Y-48686784D01*
X137859853Y-48834354D01*
X137734354Y-48959853D01*
X137586784Y-49058456D01*
X137422812Y-49126376D01*
X137273512Y-49156073D01*
X137248742Y-49161000D01*
X137071258Y-49161000D01*
X137046488Y-49156073D01*
X136897188Y-49126376D01*
X136733216Y-49058456D01*
X136585646Y-48959853D01*
X136460147Y-48834354D01*
X136361544Y-48686784D01*
X136293624Y-48522812D01*
X136259000Y-48348741D01*
X136259000Y-48171259D01*
X136293624Y-47997188D01*
X136361544Y-47833216D01*
X136460147Y-47685646D01*
X136585646Y-47560147D01*
X136733216Y-47461544D01*
X136897188Y-47393624D01*
X137046488Y-47363927D01*
X137071258Y-47359000D01*
X137248742Y-47359000D01*
X137273512Y-47363927D01*
G37*
G36*
X106793512Y-42283927D02*
G01*
X106942812Y-42313624D01*
X107106784Y-42381544D01*
X107254354Y-42480147D01*
X107379853Y-42605646D01*
X107478456Y-42753216D01*
X107546376Y-42917188D01*
X107581000Y-43091259D01*
X107581000Y-43268741D01*
X107546376Y-43442812D01*
X107478456Y-43606784D01*
X107379853Y-43754354D01*
X107254354Y-43879853D01*
X107106784Y-43978456D01*
X106942812Y-44046376D01*
X106793512Y-44076073D01*
X106768742Y-44081000D01*
X106591258Y-44081000D01*
X106566488Y-44076073D01*
X106417188Y-44046376D01*
X106253216Y-43978456D01*
X106105646Y-43879853D01*
X105980147Y-43754354D01*
X105881544Y-43606784D01*
X105813624Y-43442812D01*
X105779000Y-43268741D01*
X105779000Y-43091259D01*
X105813624Y-42917188D01*
X105881544Y-42753216D01*
X105980147Y-42605646D01*
X106105646Y-42480147D01*
X106253216Y-42381544D01*
X106417188Y-42313624D01*
X106566488Y-42283927D01*
X106591258Y-42279000D01*
X106768742Y-42279000D01*
X106793512Y-42283927D01*
G37*
G36*
X109333512Y-42283927D02*
G01*
X109482812Y-42313624D01*
X109646784Y-42381544D01*
X109794354Y-42480147D01*
X109919853Y-42605646D01*
X110018456Y-42753216D01*
X110086376Y-42917188D01*
X110121000Y-43091259D01*
X110121000Y-43268741D01*
X110086376Y-43442812D01*
X110018456Y-43606784D01*
X109919853Y-43754354D01*
X109794354Y-43879853D01*
X109646784Y-43978456D01*
X109482812Y-44046376D01*
X109333512Y-44076073D01*
X109308742Y-44081000D01*
X109131258Y-44081000D01*
X109106488Y-44076073D01*
X108957188Y-44046376D01*
X108793216Y-43978456D01*
X108645646Y-43879853D01*
X108520147Y-43754354D01*
X108421544Y-43606784D01*
X108353624Y-43442812D01*
X108319000Y-43268741D01*
X108319000Y-43091259D01*
X108353624Y-42917188D01*
X108421544Y-42753216D01*
X108520147Y-42605646D01*
X108645646Y-42480147D01*
X108793216Y-42381544D01*
X108957188Y-42313624D01*
X109106488Y-42283927D01*
X109131258Y-42279000D01*
X109308742Y-42279000D01*
X109333512Y-42283927D01*
G37*
G36*
X111873512Y-42283927D02*
G01*
X112022812Y-42313624D01*
X112186784Y-42381544D01*
X112334354Y-42480147D01*
X112459853Y-42605646D01*
X112558456Y-42753216D01*
X112626376Y-42917188D01*
X112661000Y-43091259D01*
X112661000Y-43268741D01*
X112626376Y-43442812D01*
X112558456Y-43606784D01*
X112459853Y-43754354D01*
X112334354Y-43879853D01*
X112186784Y-43978456D01*
X112022812Y-44046376D01*
X111873512Y-44076073D01*
X111848742Y-44081000D01*
X111671258Y-44081000D01*
X111646488Y-44076073D01*
X111497188Y-44046376D01*
X111333216Y-43978456D01*
X111185646Y-43879853D01*
X111060147Y-43754354D01*
X110961544Y-43606784D01*
X110893624Y-43442812D01*
X110859000Y-43268741D01*
X110859000Y-43091259D01*
X110893624Y-42917188D01*
X110961544Y-42753216D01*
X111060147Y-42605646D01*
X111185646Y-42480147D01*
X111333216Y-42381544D01*
X111497188Y-42313624D01*
X111646488Y-42283927D01*
X111671258Y-42279000D01*
X111848742Y-42279000D01*
X111873512Y-42283927D01*
G37*
G36*
X114413512Y-42283927D02*
G01*
X114562812Y-42313624D01*
X114726784Y-42381544D01*
X114874354Y-42480147D01*
X114999853Y-42605646D01*
X115098456Y-42753216D01*
X115166376Y-42917188D01*
X115201000Y-43091259D01*
X115201000Y-43268741D01*
X115166376Y-43442812D01*
X115098456Y-43606784D01*
X114999853Y-43754354D01*
X114874354Y-43879853D01*
X114726784Y-43978456D01*
X114562812Y-44046376D01*
X114413512Y-44076073D01*
X114388742Y-44081000D01*
X114211258Y-44081000D01*
X114186488Y-44076073D01*
X114037188Y-44046376D01*
X113873216Y-43978456D01*
X113725646Y-43879853D01*
X113600147Y-43754354D01*
X113501544Y-43606784D01*
X113433624Y-43442812D01*
X113399000Y-43268741D01*
X113399000Y-43091259D01*
X113433624Y-42917188D01*
X113501544Y-42753216D01*
X113600147Y-42605646D01*
X113725646Y-42480147D01*
X113873216Y-42381544D01*
X114037188Y-42313624D01*
X114186488Y-42283927D01*
X114211258Y-42279000D01*
X114388742Y-42279000D01*
X114413512Y-42283927D01*
G37*
G36*
X116953512Y-42283927D02*
G01*
X117102812Y-42313624D01*
X117266784Y-42381544D01*
X117414354Y-42480147D01*
X117539853Y-42605646D01*
X117638456Y-42753216D01*
X117706376Y-42917188D01*
X117741000Y-43091259D01*
X117741000Y-43268741D01*
X117706376Y-43442812D01*
X117638456Y-43606784D01*
X117539853Y-43754354D01*
X117414354Y-43879853D01*
X117266784Y-43978456D01*
X117102812Y-44046376D01*
X116953512Y-44076073D01*
X116928742Y-44081000D01*
X116751258Y-44081000D01*
X116726488Y-44076073D01*
X116577188Y-44046376D01*
X116413216Y-43978456D01*
X116265646Y-43879853D01*
X116140147Y-43754354D01*
X116041544Y-43606784D01*
X115973624Y-43442812D01*
X115939000Y-43268741D01*
X115939000Y-43091259D01*
X115973624Y-42917188D01*
X116041544Y-42753216D01*
X116140147Y-42605646D01*
X116265646Y-42480147D01*
X116413216Y-42381544D01*
X116577188Y-42313624D01*
X116726488Y-42283927D01*
X116751258Y-42279000D01*
X116928742Y-42279000D01*
X116953512Y-42283927D01*
G37*
G36*
X119493512Y-42283927D02*
G01*
X119642812Y-42313624D01*
X119806784Y-42381544D01*
X119954354Y-42480147D01*
X120079853Y-42605646D01*
X120178456Y-42753216D01*
X120246376Y-42917188D01*
X120281000Y-43091259D01*
X120281000Y-43268741D01*
X120246376Y-43442812D01*
X120178456Y-43606784D01*
X120079853Y-43754354D01*
X119954354Y-43879853D01*
X119806784Y-43978456D01*
X119642812Y-44046376D01*
X119493512Y-44076073D01*
X119468742Y-44081000D01*
X119291258Y-44081000D01*
X119266488Y-44076073D01*
X119117188Y-44046376D01*
X118953216Y-43978456D01*
X118805646Y-43879853D01*
X118680147Y-43754354D01*
X118581544Y-43606784D01*
X118513624Y-43442812D01*
X118479000Y-43268741D01*
X118479000Y-43091259D01*
X118513624Y-42917188D01*
X118581544Y-42753216D01*
X118680147Y-42605646D01*
X118805646Y-42480147D01*
X118953216Y-42381544D01*
X119117188Y-42313624D01*
X119266488Y-42283927D01*
X119291258Y-42279000D01*
X119468742Y-42279000D01*
X119493512Y-42283927D01*
G37*
G36*
X122033512Y-42283927D02*
G01*
X122182812Y-42313624D01*
X122346784Y-42381544D01*
X122494354Y-42480147D01*
X122619853Y-42605646D01*
X122718456Y-42753216D01*
X122786376Y-42917188D01*
X122821000Y-43091259D01*
X122821000Y-43268741D01*
X122786376Y-43442812D01*
X122718456Y-43606784D01*
X122619853Y-43754354D01*
X122494354Y-43879853D01*
X122346784Y-43978456D01*
X122182812Y-44046376D01*
X122033512Y-44076073D01*
X122008742Y-44081000D01*
X121831258Y-44081000D01*
X121806488Y-44076073D01*
X121657188Y-44046376D01*
X121493216Y-43978456D01*
X121345646Y-43879853D01*
X121220147Y-43754354D01*
X121121544Y-43606784D01*
X121053624Y-43442812D01*
X121019000Y-43268741D01*
X121019000Y-43091259D01*
X121053624Y-42917188D01*
X121121544Y-42753216D01*
X121220147Y-42605646D01*
X121345646Y-42480147D01*
X121493216Y-42381544D01*
X121657188Y-42313624D01*
X121806488Y-42283927D01*
X121831258Y-42279000D01*
X122008742Y-42279000D01*
X122033512Y-42283927D01*
G37*
G36*
X137273512Y-42283927D02*
G01*
X137422812Y-42313624D01*
X137586784Y-42381544D01*
X137734354Y-42480147D01*
X137859853Y-42605646D01*
X137958456Y-42753216D01*
X138026376Y-42917188D01*
X138061000Y-43091259D01*
X138061000Y-43268741D01*
X138026376Y-43442812D01*
X137958456Y-43606784D01*
X137859853Y-43754354D01*
X137734354Y-43879853D01*
X137586784Y-43978456D01*
X137422812Y-44046376D01*
X137273512Y-44076073D01*
X137248742Y-44081000D01*
X137071258Y-44081000D01*
X137046488Y-44076073D01*
X136897188Y-44046376D01*
X136733216Y-43978456D01*
X136585646Y-43879853D01*
X136460147Y-43754354D01*
X136361544Y-43606784D01*
X136293624Y-43442812D01*
X136259000Y-43268741D01*
X136259000Y-43091259D01*
X136293624Y-42917188D01*
X136361544Y-42753216D01*
X136460147Y-42605646D01*
X136585646Y-42480147D01*
X136733216Y-42381544D01*
X136897188Y-42313624D01*
X137046488Y-42283927D01*
X137071258Y-42279000D01*
X137248742Y-42279000D01*
X137273512Y-42283927D01*
G37*
G36*
X124573512Y-42283927D02*
G01*
X124722812Y-42313624D01*
X124886784Y-42381544D01*
X125034354Y-42480147D01*
X125159853Y-42605646D01*
X125258456Y-42753216D01*
X125326376Y-42917188D01*
X125361000Y-43091259D01*
X125361000Y-43268741D01*
X125326376Y-43442812D01*
X125258456Y-43606784D01*
X125159853Y-43754354D01*
X125034354Y-43879853D01*
X124886784Y-43978456D01*
X124722812Y-44046376D01*
X124573512Y-44076073D01*
X124548742Y-44081000D01*
X124371258Y-44081000D01*
X124346488Y-44076073D01*
X124197188Y-44046376D01*
X124033216Y-43978456D01*
X123885646Y-43879853D01*
X123760147Y-43754354D01*
X123661544Y-43606784D01*
X123593624Y-43442812D01*
X123559000Y-43268741D01*
X123559000Y-43091259D01*
X123593624Y-42917188D01*
X123661544Y-42753216D01*
X123760147Y-42605646D01*
X123885646Y-42480147D01*
X124033216Y-42381544D01*
X124197188Y-42313624D01*
X124346488Y-42283927D01*
X124371258Y-42279000D01*
X124548742Y-42279000D01*
X124573512Y-42283927D01*
G37*
G36*
X127113512Y-42283927D02*
G01*
X127262812Y-42313624D01*
X127426784Y-42381544D01*
X127574354Y-42480147D01*
X127699853Y-42605646D01*
X127798456Y-42753216D01*
X127866376Y-42917188D01*
X127901000Y-43091259D01*
X127901000Y-43268741D01*
X127866376Y-43442812D01*
X127798456Y-43606784D01*
X127699853Y-43754354D01*
X127574354Y-43879853D01*
X127426784Y-43978456D01*
X127262812Y-44046376D01*
X127113512Y-44076073D01*
X127088742Y-44081000D01*
X126911258Y-44081000D01*
X126886488Y-44076073D01*
X126737188Y-44046376D01*
X126573216Y-43978456D01*
X126425646Y-43879853D01*
X126300147Y-43754354D01*
X126201544Y-43606784D01*
X126133624Y-43442812D01*
X126099000Y-43268741D01*
X126099000Y-43091259D01*
X126133624Y-42917188D01*
X126201544Y-42753216D01*
X126300147Y-42605646D01*
X126425646Y-42480147D01*
X126573216Y-42381544D01*
X126737188Y-42313624D01*
X126886488Y-42283927D01*
X126911258Y-42279000D01*
X127088742Y-42279000D01*
X127113512Y-42283927D01*
G37*
G36*
X129653512Y-42283927D02*
G01*
X129802812Y-42313624D01*
X129966784Y-42381544D01*
X130114354Y-42480147D01*
X130239853Y-42605646D01*
X130338456Y-42753216D01*
X130406376Y-42917188D01*
X130441000Y-43091259D01*
X130441000Y-43268741D01*
X130406376Y-43442812D01*
X130338456Y-43606784D01*
X130239853Y-43754354D01*
X130114354Y-43879853D01*
X129966784Y-43978456D01*
X129802812Y-44046376D01*
X129653512Y-44076073D01*
X129628742Y-44081000D01*
X129451258Y-44081000D01*
X129426488Y-44076073D01*
X129277188Y-44046376D01*
X129113216Y-43978456D01*
X128965646Y-43879853D01*
X128840147Y-43754354D01*
X128741544Y-43606784D01*
X128673624Y-43442812D01*
X128639000Y-43268741D01*
X128639000Y-43091259D01*
X128673624Y-42917188D01*
X128741544Y-42753216D01*
X128840147Y-42605646D01*
X128965646Y-42480147D01*
X129113216Y-42381544D01*
X129277188Y-42313624D01*
X129426488Y-42283927D01*
X129451258Y-42279000D01*
X129628742Y-42279000D01*
X129653512Y-42283927D01*
G37*
G36*
X132193512Y-42283927D02*
G01*
X132342812Y-42313624D01*
X132506784Y-42381544D01*
X132654354Y-42480147D01*
X132779853Y-42605646D01*
X132878456Y-42753216D01*
X132946376Y-42917188D01*
X132981000Y-43091259D01*
X132981000Y-43268741D01*
X132946376Y-43442812D01*
X132878456Y-43606784D01*
X132779853Y-43754354D01*
X132654354Y-43879853D01*
X132506784Y-43978456D01*
X132342812Y-44046376D01*
X132193512Y-44076073D01*
X132168742Y-44081000D01*
X131991258Y-44081000D01*
X131966488Y-44076073D01*
X131817188Y-44046376D01*
X131653216Y-43978456D01*
X131505646Y-43879853D01*
X131380147Y-43754354D01*
X131281544Y-43606784D01*
X131213624Y-43442812D01*
X131179000Y-43268741D01*
X131179000Y-43091259D01*
X131213624Y-42917188D01*
X131281544Y-42753216D01*
X131380147Y-42605646D01*
X131505646Y-42480147D01*
X131653216Y-42381544D01*
X131817188Y-42313624D01*
X131966488Y-42283927D01*
X131991258Y-42279000D01*
X132168742Y-42279000D01*
X132193512Y-42283927D01*
G37*
G36*
X134733512Y-42283927D02*
G01*
X134882812Y-42313624D01*
X135046784Y-42381544D01*
X135194354Y-42480147D01*
X135319853Y-42605646D01*
X135418456Y-42753216D01*
X135486376Y-42917188D01*
X135521000Y-43091259D01*
X135521000Y-43268741D01*
X135486376Y-43442812D01*
X135418456Y-43606784D01*
X135319853Y-43754354D01*
X135194354Y-43879853D01*
X135046784Y-43978456D01*
X134882812Y-44046376D01*
X134733512Y-44076073D01*
X134708742Y-44081000D01*
X134531258Y-44081000D01*
X134506488Y-44076073D01*
X134357188Y-44046376D01*
X134193216Y-43978456D01*
X134045646Y-43879853D01*
X133920147Y-43754354D01*
X133821544Y-43606784D01*
X133753624Y-43442812D01*
X133719000Y-43268741D01*
X133719000Y-43091259D01*
X133753624Y-42917188D01*
X133821544Y-42753216D01*
X133920147Y-42605646D01*
X134045646Y-42480147D01*
X134193216Y-42381544D01*
X134357188Y-42313624D01*
X134506488Y-42283927D01*
X134531258Y-42279000D01*
X134708742Y-42279000D01*
X134733512Y-42283927D01*
G37*
G36*
X155841000Y-44081000D02*
G01*
X154039000Y-44081000D01*
X154039000Y-42279000D01*
X155841000Y-42279000D01*
X155841000Y-44081000D01*
G37*
G36*
X152513512Y-42283927D02*
G01*
X152662812Y-42313624D01*
X152826784Y-42381544D01*
X152974354Y-42480147D01*
X153099853Y-42605646D01*
X153198456Y-42753216D01*
X153266376Y-42917188D01*
X153301000Y-43091259D01*
X153301000Y-43268741D01*
X153266376Y-43442812D01*
X153198456Y-43606784D01*
X153099853Y-43754354D01*
X152974354Y-43879853D01*
X152826784Y-43978456D01*
X152662812Y-44046376D01*
X152513512Y-44076073D01*
X152488742Y-44081000D01*
X152311258Y-44081000D01*
X152286488Y-44076073D01*
X152137188Y-44046376D01*
X151973216Y-43978456D01*
X151825646Y-43879853D01*
X151700147Y-43754354D01*
X151601544Y-43606784D01*
X151533624Y-43442812D01*
X151499000Y-43268741D01*
X151499000Y-43091259D01*
X151533624Y-42917188D01*
X151601544Y-42753216D01*
X151700147Y-42605646D01*
X151825646Y-42480147D01*
X151973216Y-42381544D01*
X152137188Y-42313624D01*
X152286488Y-42283927D01*
X152311258Y-42279000D01*
X152488742Y-42279000D01*
X152513512Y-42283927D01*
G37*
G36*
X149973512Y-42283927D02*
G01*
X150122812Y-42313624D01*
X150286784Y-42381544D01*
X150434354Y-42480147D01*
X150559853Y-42605646D01*
X150658456Y-42753216D01*
X150726376Y-42917188D01*
X150761000Y-43091259D01*
X150761000Y-43268741D01*
X150726376Y-43442812D01*
X150658456Y-43606784D01*
X150559853Y-43754354D01*
X150434354Y-43879853D01*
X150286784Y-43978456D01*
X150122812Y-44046376D01*
X149973512Y-44076073D01*
X149948742Y-44081000D01*
X149771258Y-44081000D01*
X149746488Y-44076073D01*
X149597188Y-44046376D01*
X149433216Y-43978456D01*
X149285646Y-43879853D01*
X149160147Y-43754354D01*
X149061544Y-43606784D01*
X148993624Y-43442812D01*
X148959000Y-43268741D01*
X148959000Y-43091259D01*
X148993624Y-42917188D01*
X149061544Y-42753216D01*
X149160147Y-42605646D01*
X149285646Y-42480147D01*
X149433216Y-42381544D01*
X149597188Y-42313624D01*
X149746488Y-42283927D01*
X149771258Y-42279000D01*
X149948742Y-42279000D01*
X149973512Y-42283927D01*
G37*
G36*
X147433512Y-42283927D02*
G01*
X147582812Y-42313624D01*
X147746784Y-42381544D01*
X147894354Y-42480147D01*
X148019853Y-42605646D01*
X148118456Y-42753216D01*
X148186376Y-42917188D01*
X148221000Y-43091259D01*
X148221000Y-43268741D01*
X148186376Y-43442812D01*
X148118456Y-43606784D01*
X148019853Y-43754354D01*
X147894354Y-43879853D01*
X147746784Y-43978456D01*
X147582812Y-44046376D01*
X147433512Y-44076073D01*
X147408742Y-44081000D01*
X147231258Y-44081000D01*
X147206488Y-44076073D01*
X147057188Y-44046376D01*
X146893216Y-43978456D01*
X146745646Y-43879853D01*
X146620147Y-43754354D01*
X146521544Y-43606784D01*
X146453624Y-43442812D01*
X146419000Y-43268741D01*
X146419000Y-43091259D01*
X146453624Y-42917188D01*
X146521544Y-42753216D01*
X146620147Y-42605646D01*
X146745646Y-42480147D01*
X146893216Y-42381544D01*
X147057188Y-42313624D01*
X147206488Y-42283927D01*
X147231258Y-42279000D01*
X147408742Y-42279000D01*
X147433512Y-42283927D01*
G37*
G36*
X144893512Y-42283927D02*
G01*
X145042812Y-42313624D01*
X145206784Y-42381544D01*
X145354354Y-42480147D01*
X145479853Y-42605646D01*
X145578456Y-42753216D01*
X145646376Y-42917188D01*
X145681000Y-43091259D01*
X145681000Y-43268741D01*
X145646376Y-43442812D01*
X145578456Y-43606784D01*
X145479853Y-43754354D01*
X145354354Y-43879853D01*
X145206784Y-43978456D01*
X145042812Y-44046376D01*
X144893512Y-44076073D01*
X144868742Y-44081000D01*
X144691258Y-44081000D01*
X144666488Y-44076073D01*
X144517188Y-44046376D01*
X144353216Y-43978456D01*
X144205646Y-43879853D01*
X144080147Y-43754354D01*
X143981544Y-43606784D01*
X143913624Y-43442812D01*
X143879000Y-43268741D01*
X143879000Y-43091259D01*
X143913624Y-42917188D01*
X143981544Y-42753216D01*
X144080147Y-42605646D01*
X144205646Y-42480147D01*
X144353216Y-42381544D01*
X144517188Y-42313624D01*
X144666488Y-42283927D01*
X144691258Y-42279000D01*
X144868742Y-42279000D01*
X144893512Y-42283927D01*
G37*
G36*
X142353512Y-42283927D02*
G01*
X142502812Y-42313624D01*
X142666784Y-42381544D01*
X142814354Y-42480147D01*
X142939853Y-42605646D01*
X143038456Y-42753216D01*
X143106376Y-42917188D01*
X143141000Y-43091259D01*
X143141000Y-43268741D01*
X143106376Y-43442812D01*
X143038456Y-43606784D01*
X142939853Y-43754354D01*
X142814354Y-43879853D01*
X142666784Y-43978456D01*
X142502812Y-44046376D01*
X142353512Y-44076073D01*
X142328742Y-44081000D01*
X142151258Y-44081000D01*
X142126488Y-44076073D01*
X141977188Y-44046376D01*
X141813216Y-43978456D01*
X141665646Y-43879853D01*
X141540147Y-43754354D01*
X141441544Y-43606784D01*
X141373624Y-43442812D01*
X141339000Y-43268741D01*
X141339000Y-43091259D01*
X141373624Y-42917188D01*
X141441544Y-42753216D01*
X141540147Y-42605646D01*
X141665646Y-42480147D01*
X141813216Y-42381544D01*
X141977188Y-42313624D01*
X142126488Y-42283927D01*
X142151258Y-42279000D01*
X142328742Y-42279000D01*
X142353512Y-42283927D01*
G37*
G36*
X139813512Y-42283927D02*
G01*
X139962812Y-42313624D01*
X140126784Y-42381544D01*
X140274354Y-42480147D01*
X140399853Y-42605646D01*
X140498456Y-42753216D01*
X140566376Y-42917188D01*
X140601000Y-43091259D01*
X140601000Y-43268741D01*
X140566376Y-43442812D01*
X140498456Y-43606784D01*
X140399853Y-43754354D01*
X140274354Y-43879853D01*
X140126784Y-43978456D01*
X139962812Y-44046376D01*
X139813512Y-44076073D01*
X139788742Y-44081000D01*
X139611258Y-44081000D01*
X139586488Y-44076073D01*
X139437188Y-44046376D01*
X139273216Y-43978456D01*
X139125646Y-43879853D01*
X139000147Y-43754354D01*
X138901544Y-43606784D01*
X138833624Y-43442812D01*
X138799000Y-43268741D01*
X138799000Y-43091259D01*
X138833624Y-42917188D01*
X138901544Y-42753216D01*
X139000147Y-42605646D01*
X139125646Y-42480147D01*
X139273216Y-42381544D01*
X139437188Y-42313624D01*
X139586488Y-42283927D01*
X139611258Y-42279000D01*
X139788742Y-42279000D01*
X139813512Y-42283927D01*
G37*
G36*
X95363512Y-38473927D02*
G01*
X95512812Y-38503624D01*
X95676784Y-38571544D01*
X95824354Y-38670147D01*
X95949853Y-38795646D01*
X96048456Y-38943216D01*
X96116376Y-39107188D01*
X96151000Y-39281259D01*
X96151000Y-39458741D01*
X96116376Y-39632812D01*
X96048456Y-39796784D01*
X95949853Y-39944354D01*
X95824354Y-40069853D01*
X95676784Y-40168456D01*
X95512812Y-40236376D01*
X95363512Y-40266073D01*
X95338742Y-40271000D01*
X95161258Y-40271000D01*
X95136488Y-40266073D01*
X94987188Y-40236376D01*
X94823216Y-40168456D01*
X94675646Y-40069853D01*
X94550147Y-39944354D01*
X94451544Y-39796784D01*
X94383624Y-39632812D01*
X94349000Y-39458741D01*
X94349000Y-39281259D01*
X94383624Y-39107188D01*
X94451544Y-38943216D01*
X94550147Y-38795646D01*
X94675646Y-38670147D01*
X94823216Y-38571544D01*
X94987188Y-38503624D01*
X95136488Y-38473927D01*
X95161258Y-38469000D01*
X95338742Y-38469000D01*
X95363512Y-38473927D01*
G37*
G36*
X91071000Y-40271000D02*
G01*
X89269000Y-40271000D01*
X89269000Y-38469000D01*
X91071000Y-38469000D01*
X91071000Y-40271000D01*
G37*
G36*
X92823512Y-38473927D02*
G01*
X92972812Y-38503624D01*
X93136784Y-38571544D01*
X93284354Y-38670147D01*
X93409853Y-38795646D01*
X93508456Y-38943216D01*
X93576376Y-39107188D01*
X93611000Y-39281259D01*
X93611000Y-39458741D01*
X93576376Y-39632812D01*
X93508456Y-39796784D01*
X93409853Y-39944354D01*
X93284354Y-40069853D01*
X93136784Y-40168456D01*
X92972812Y-40236376D01*
X92823512Y-40266073D01*
X92798742Y-40271000D01*
X92621258Y-40271000D01*
X92596488Y-40266073D01*
X92447188Y-40236376D01*
X92283216Y-40168456D01*
X92135646Y-40069853D01*
X92010147Y-39944354D01*
X91911544Y-39796784D01*
X91843624Y-39632812D01*
X91809000Y-39458741D01*
X91809000Y-39281259D01*
X91843624Y-39107188D01*
X91911544Y-38943216D01*
X92010147Y-38795646D01*
X92135646Y-38670147D01*
X92283216Y-38571544D01*
X92447188Y-38503624D01*
X92596488Y-38473927D01*
X92621258Y-38469000D01*
X92798742Y-38469000D01*
X92823512Y-38473927D01*
G37*
G36*
X91071000Y-31381000D02*
G01*
X89269000Y-31381000D01*
X89269000Y-29579000D01*
X91071000Y-29579000D01*
X91071000Y-31381000D01*
G37*
G36*
X92823512Y-29583927D02*
G01*
X92972812Y-29613624D01*
X93136784Y-29681544D01*
X93284354Y-29780147D01*
X93409853Y-29905646D01*
X93508456Y-30053216D01*
X93576376Y-30217188D01*
X93611000Y-30391259D01*
X93611000Y-30568741D01*
X93576376Y-30742812D01*
X93508456Y-30906784D01*
X93409853Y-31054354D01*
X93284354Y-31179853D01*
X93136784Y-31278456D01*
X92972812Y-31346376D01*
X92823512Y-31376073D01*
X92798742Y-31381000D01*
X92621258Y-31381000D01*
X92596488Y-31376073D01*
X92447188Y-31346376D01*
X92283216Y-31278456D01*
X92135646Y-31179853D01*
X92010147Y-31054354D01*
X91911544Y-30906784D01*
X91843624Y-30742812D01*
X91809000Y-30568741D01*
X91809000Y-30391259D01*
X91843624Y-30217188D01*
X91911544Y-30053216D01*
X92010147Y-29905646D01*
X92135646Y-29780147D01*
X92283216Y-29681544D01*
X92447188Y-29613624D01*
X92596488Y-29583927D01*
X92621258Y-29579000D01*
X92798742Y-29579000D01*
X92823512Y-29583927D01*
G37*
G36*
X95363512Y-29583927D02*
G01*
X95512812Y-29613624D01*
X95676784Y-29681544D01*
X95824354Y-29780147D01*
X95949853Y-29905646D01*
X96048456Y-30053216D01*
X96116376Y-30217188D01*
X96151000Y-30391259D01*
X96151000Y-30568741D01*
X96116376Y-30742812D01*
X96048456Y-30906784D01*
X95949853Y-31054354D01*
X95824354Y-31179853D01*
X95676784Y-31278456D01*
X95512812Y-31346376D01*
X95363512Y-31376073D01*
X95338742Y-31381000D01*
X95161258Y-31381000D01*
X95136488Y-31376073D01*
X94987188Y-31346376D01*
X94823216Y-31278456D01*
X94675646Y-31179853D01*
X94550147Y-31054354D01*
X94451544Y-30906784D01*
X94383624Y-30742812D01*
X94349000Y-30568741D01*
X94349000Y-30391259D01*
X94383624Y-30217188D01*
X94451544Y-30053216D01*
X94550147Y-29905646D01*
X94675646Y-29780147D01*
X94823216Y-29681544D01*
X94987188Y-29613624D01*
X95136488Y-29583927D01*
X95161258Y-29579000D01*
X95338742Y-29579000D01*
X95363512Y-29583927D01*
G37*
M02*
